ply
format ascii 1.0
element vertex 848
property float x
property float y
property float z
element face 1692
property list uchar int vertex_index
end_header
0.813213 3.448740 0.302152
0.819162 3.412552 0.236656
0.765372 3.508873 0.282417
0.841371 3.426804 0.361755
0.805688 3.490982 0.353258
0.854101 3.367839 0.270064
0.792714 3.518741 0.477921
0.871560 3.376763 0.393611
0.884702 3.333460 0.283399
0.796811 3.497286 0.507863
0.888868 3.357533 0.413849
0.910729 3.309272 0.291575
0.796260 3.483476 0.532266
0.901184 3.345452 0.430584
0.909938 3.335677 0.444624
0.932098 3.290702 0.302303
0.794190 3.472334 0.554533
0.792055 3.463595 0.573038
0.687799 3.620518 0.639152
0.596982 3.740741 0.687627
0.695245 3.629328 0.612638
0.682818 3.616038 0.659834
0.599027 3.735171 0.708251
0.684784 3.609971 0.674229
0.604980 3.731134 0.722992
0.694990 3.599544 0.683889
0.792304 3.452016 0.588833
0.796825 3.436808 0.602646
0.916153 3.325925 0.456830
0.958113 3.263458 0.321792
0.920048 3.316345 0.467216
0.923101 3.308311 0.476059
0.966344 3.253312 0.327984
0.973361 3.245041 0.333638
0.976076 3.222453 0.227296
0.950824 3.205745 0.150859
0.965576 3.232309 0.221367
0.986157 3.214849 0.233105
0.967133 3.195651 0.162058
0.998974 3.210044 0.236589
0.981963 3.237640 0.336917
0.982831 3.188739 0.168901
1.015137 3.210724 0.236441
1.031941 3.215491 0.233556
1.002393 3.186217 0.170794
0.995628 3.234365 0.337958
1.014971 3.237853 0.332060
0.947021 3.300556 0.483005
0.875008 3.421688 0.597294
0.929311 3.301832 0.484305
0.968429 3.304393 0.469301
0.896840 3.420581 0.582840
0.985588 3.310207 0.452183
1.033144 3.246466 0.323945
1.000177 3.317889 0.435184
0.914379 3.422115 0.568550
0.928798 3.423867 0.554022
0.791381 3.561508 0.672733
0.706790 3.698618 0.723182
0.772164 3.565279 0.682432
0.809144 3.558927 0.660785
0.728348 3.690300 0.711797
0.827314 3.558053 0.645363
0.847707 3.560789 0.624866
0.751426 3.687620 0.698694
0.943526 3.426432 0.536686
0.957575 3.433010 0.516936
1.014278 3.327542 0.418302
1.067859 3.271397 0.302041
1.029343 3.339243 0.399295
1.087280 3.288021 0.286326
1.045417 3.354706 0.378200
1.106985 3.309678 0.268550
1.063268 3.374315 0.354868
0.971509 3.443003 0.494683
0.869860 3.568212 0.600750
0.986306 3.457296 0.470212
0.895234 3.581300 0.572914
1.002567 3.476734 0.444272
0.924326 3.593656 0.540513
1.023875 3.502448 0.413246
1.081469 3.402111 0.331417
1.140887 3.365196 0.230733
1.103961 3.440556 0.298927
1.159810 3.407812 0.192785
1.132557 3.512778 0.236046
1.189315 3.488955 0.127422
1.161794 3.610384 0.196090
1.067364 3.561063 0.357718
1.024700 3.643974 0.426943
1.115788 3.626117 0.290585
1.111541 3.694646 0.312863
1.171182 3.702545 0.195041
1.102944 3.777656 0.335773
1.090459 3.867478 0.352084
1.000039 3.744894 0.467282
1.164103 3.797647 0.214221
1.182352 3.806951 0.090352
1.146390 3.892124 0.240956
1.164492 3.911633 0.129129
1.122498 3.983126 0.274843
1.087233 4.078321 0.335860
1.146517 4.012083 0.178554
1.076336 3.951624 0.365127
1.044287 4.036000 0.410395
0.997260 3.928387 0.486463
0.992997 3.845915 0.485167
1.005794 3.997102 0.476008
0.919218 3.941443 0.606693
0.963054 4.023558 0.561033
0.872755 3.953481 0.673422
0.894931 3.840511 0.598706
0.842801 3.840427 0.649730
0.919073 3.724726 0.556768
0.875531 3.715042 0.600989
0.958797 3.609021 0.501161
0.838784 3.706777 0.633074
0.801831 3.838852 0.681589
0.805181 3.698233 0.659963
0.777054 3.690778 0.681270
0.765946 3.836140 0.704477
0.733781 3.832607 0.721277
0.790250 3.969771 0.746385
0.746062 3.973736 0.768707
0.832211 3.962559 0.715491
0.862535 4.066537 0.680650
0.821112 4.080432 0.701605
0.950360 4.137836 0.576936
0.900527 4.053893 0.650340
0.932366 4.040429 0.612733
0.980006 4.121692 0.552893
1.000780 4.106019 0.524318
1.028560 4.182664 0.456954
1.049223 4.161946 0.434078
1.051811 4.236030 0.356535
1.001764 4.201503 0.476353
0.967148 4.220157 0.492076
1.024542 4.255622 0.378152
0.986514 4.272172 0.397833
1.035568 4.296238 0.275992
1.064164 4.272202 0.255932
1.001977 4.317533 0.293703
1.042726 4.311604 0.155593
1.017722 4.303561 0.068325
1.065548 4.286996 0.139912
1.008019 4.335154 0.171188
0.969681 4.357826 0.185391
0.987585 4.323263 0.083639
0.959643 4.328385 0.023059
0.946980 4.340579 0.096972
0.930609 4.347208 0.036635
0.904842 4.360091 0.107414
0.898449 4.366488 0.048526
0.869395 4.374023 0.117011
0.925044 4.374545 0.198788
0.922999 4.357732 0.318919
0.884408 4.383722 0.212041
0.848234 4.388675 0.227153
0.880207 4.375918 0.333444
0.854036 4.328367 0.424835
0.839428 4.385727 0.346647
0.804387 4.381488 0.353371
0.826810 4.339606 0.435054
0.831352 4.279261 0.539263
0.802748 4.341759 0.446305
0.782832 4.331538 0.452999
0.810668 4.282319 0.549729
0.790124 4.279602 0.558258
0.769369 4.207214 0.651488
0.789656 4.206018 0.642281
0.750402 4.206185 0.658718
0.674719 4.119351 0.758471
0.604740 3.988931 0.808827
0.657296 4.120991 0.763130
0.694024 4.116403 0.752623
0.623830 3.985252 0.805456
0.716003 4.110139 0.745756
0.744289 4.102450 0.734475
0.643427 3.980555 0.800232
0.811306 4.199841 0.633336
0.855384 4.270614 0.527627
0.837703 4.187319 0.623912
0.885900 4.255963 0.517019
0.871467 4.172026 0.611772
0.924260 4.239133 0.505372
0.912407 4.154203 0.596530
0.779900 4.093925 0.718084
0.705195 3.975551 0.783045
0.670002 3.977087 0.792928
0.702632 3.832082 0.737337
0.675715 3.837856 0.752980
0.651598 3.845246 0.766192
0.631408 3.852337 0.775181
0.612090 3.858217 0.780910
0.688021 3.705895 0.732162
0.668591 3.711745 0.740315
0.647606 3.716775 0.744666
0.750014 3.570402 0.688706
0.730173 3.578280 0.690589
0.846615 3.423666 0.609632
0.712276 3.587656 0.689365
0.627408 3.721518 0.741666
0.817876 3.425423 0.612304
0.613546 3.727541 0.734281
0.573176 3.866444 0.782364
0.570565 3.994107 0.804274
0.555118 3.869909 0.776609
0.592007 3.862598 0.783485
0.585843 3.991632 0.808378
0.556202 3.996720 0.797895
0.547138 3.871123 0.764862
0.543518 3.997555 0.789915
0.545063 3.872809 0.749459
0.534971 3.997380 0.775362
0.546433 3.876137 0.730121
0.533742 3.998748 0.756944
0.552607 3.878359 0.703476
0.537786 4.001714 0.733495
0.564957 3.881032 0.669588
0.605461 3.742676 0.659646
0.616611 3.750129 0.627150
0.630995 3.758293 0.588042
0.703837 3.638236 0.581430
0.711294 3.645757 0.544743
0.715173 3.660453 0.479560
0.651494 3.770511 0.520126
0.683371 3.688614 0.365652
0.776302 3.553528 0.417705
0.723550 3.597855 0.327078
0.654998 3.606279 0.240811
0.591417 3.562728 0.128714
0.692900 3.538998 0.231136
0.592716 3.695828 0.263646
0.495098 3.673180 0.166802
0.545082 3.794359 0.282025
0.509868 3.900007 0.299134
0.448609 3.782873 0.181970
0.634130 3.789319 0.397798
0.583904 3.900366 0.419227
0.605464 3.889809 0.545121
0.586525 3.992532 0.434512
0.508712 3.993869 0.320485
0.604223 3.987128 0.563298
0.603599 4.063612 0.447901
0.607195 4.060031 0.571001
0.605757 4.112269 0.455863
0.508167 4.068758 0.344249
0.507359 4.119961 0.356631
0.418516 4.083714 0.257371
0.411164 4.137311 0.275372
0.322351 4.108836 0.175647
0.415882 3.986249 0.223416
0.449526 3.890947 0.230860
0.378904 3.881175 0.158041
0.308724 4.045235 0.132521
0.292047 3.948634 0.076658
0.253663 4.079537 0.075337
0.258359 3.977759 0.016683
0.275518 4.137476 0.129013
0.230318 4.108836 0.038048
0.244057 4.173518 0.097981
0.221096 4.131470 0.013032
0.241957 3.997483 -0.023427
0.284685 3.868477 -0.062100
0.231214 4.017308 -0.052395
0.282317 3.884008 -0.087005
0.223346 4.036135 -0.074894
0.217710 4.150027 -0.007529
0.292246 3.901531 -0.105942
0.234874 4.053993 -0.093411
0.316865 3.919068 -0.121875
0.257422 4.070098 -0.109257
0.222723 4.167871 -0.022065
0.241077 4.233098 0.051788
0.243731 4.184400 -0.032972
0.257181 4.253943 0.039128
0.277943 4.200647 -0.043012
0.290118 4.276769 0.021230
0.287299 4.080643 -0.127402
0.322274 4.218626 -0.052672
0.326112 4.298427 -0.000422
0.323167 4.091640 -0.143097
0.378278 4.235698 -0.061499
0.453629 4.247551 -0.085657
0.371017 4.314783 -0.019468
0.363325 4.102065 -0.152970
0.419025 4.105136 -0.158778
0.432985 3.970272 -0.188672
0.406889 3.959880 -0.175648
0.465843 3.976373 -0.195541
0.478757 3.831871 -0.232201
0.501658 3.836209 -0.241639
0.490058 3.698428 -0.237643
0.454392 3.824496 -0.216882
0.429601 3.812723 -0.199541
0.462880 3.694311 -0.226610
0.431215 3.689233 -0.210700
0.523863 3.593910 -0.176492
0.497298 3.595265 -0.171736
0.522865 3.491057 -0.208580
0.546382 3.593962 -0.178880
0.537851 3.490551 -0.220069
0.566353 3.594969 -0.182386
0.558387 3.492725 -0.225993
0.515750 3.701444 -0.244718
0.589514 3.597895 -0.187364
0.582750 3.497170 -0.225598
0.542818 3.703871 -0.248625
0.617969 3.602764 -0.200132
0.617331 3.500253 -0.226982
0.648128 3.602478 -0.230093
0.575143 3.708090 -0.251121
0.614377 3.714311 -0.251442
0.566107 3.844659 -0.255628
0.556519 3.974343 -0.217707
0.603064 3.848660 -0.251566
0.530004 3.837722 -0.250550
0.508951 3.974355 -0.203544
0.473855 4.096610 -0.164490
0.537270 4.082834 -0.182974
0.508092 4.219145 -0.128841
0.562635 4.193505 -0.152823
0.595814 4.281167 -0.080633
0.578952 4.305444 -0.059787
0.680735 4.329662 -0.076111
0.630572 4.264893 -0.109479
0.662284 4.253145 -0.123606
0.696079 4.321228 -0.092715
0.761845 4.353872 -0.086176
0.714782 4.312386 -0.104346
0.735897 4.303995 -0.111795
0.774293 4.345476 -0.094406
0.789241 4.333815 -0.100273
0.824557 4.362095 -0.083303
0.811603 4.371029 -0.075605
0.873066 4.372923 -0.059424
0.839446 4.349683 -0.089085
0.855825 4.332098 -0.092499
0.889608 4.358669 -0.067013
0.932513 4.347000 -0.022626
0.899641 4.337132 -0.071930
0.908707 4.309944 -0.075713
0.937618 4.328810 -0.036555
0.938937 4.306015 -0.048732
0.978013 4.309930 0.007513
0.982123 4.291411 -0.006144
1.030160 4.281713 0.054916
0.985222 4.263121 -0.021910
0.994500 4.215230 -0.040090
1.036425 4.257146 0.040880
0.947673 4.266129 -0.060623
0.922161 4.265409 -0.083159
0.962104 4.211922 -0.073072
0.931971 4.207539 -0.093405
0.977241 4.136365 -0.091338
0.987864 4.022942 -0.122073
1.009516 4.142489 -0.062693
0.938981 4.128376 -0.110555
0.942759 4.018973 -0.134320
0.889687 4.119634 -0.127637
0.838829 4.119290 -0.140797
0.893176 4.012480 -0.140956
0.892131 4.205919 -0.107882
0.887487 4.265420 -0.096717
0.847773 4.208311 -0.119558
0.799631 4.216959 -0.130923
0.846990 4.265016 -0.106188
0.829942 4.299602 -0.105858
0.812880 4.257296 -0.115972
0.786873 4.279663 -0.117580
0.754380 4.229414 -0.138454
0.759300 4.293360 -0.116586
0.807649 4.319943 -0.104016
0.720401 4.237330 -0.138801
0.689668 4.243613 -0.132338
0.674827 4.146276 -0.169587
0.655229 4.045640 -0.192174
0.640636 4.157213 -0.170740
0.715935 4.138373 -0.164482
0.687014 4.035043 -0.166082
0.776259 4.127143 -0.153767
0.753823 4.021162 -0.144914
0.830799 4.011099 -0.141097
0.768300 3.920680 -0.139740
0.850777 3.918093 -0.137460
0.799742 3.828241 -0.144087
0.691552 3.934445 -0.167400
0.654366 3.955463 -0.197771
0.729274 3.836750 -0.180313
0.773147 3.717888 -0.223131
0.678294 3.853110 -0.214564
0.638545 3.851959 -0.238791
0.707373 3.722031 -0.239000
0.660507 3.719776 -0.247333
0.733659 3.597151 -0.250060
0.686514 3.601262 -0.247874
0.787693 3.591151 -0.238917
0.740452 3.502208 -0.247200
0.778169 3.492460 -0.233816
0.758236 3.422974 -0.230208
0.705038 3.504646 -0.249023
0.731165 3.423682 -0.236842
0.663388 3.504896 -0.239717
0.700589 3.423670 -0.236014
0.727077 3.369123 -0.221508
0.659216 3.424961 -0.228962
0.697698 3.367897 -0.221350
0.621584 3.424654 -0.223890
0.592429 3.423088 -0.220967
0.667352 3.364197 -0.218784
0.638680 3.359058 -0.214267
0.727947 3.316981 -0.202410
0.809099 3.273515 -0.167697
0.697969 3.311105 -0.198750
0.753960 3.320457 -0.201916
0.775482 3.322127 -0.198804
0.830740 3.278358 -0.167287
0.850154 3.284849 -0.166530
0.866086 3.245933 -0.150797
0.911549 3.234205 -0.112889
0.886779 3.251317 -0.154961
0.845772 3.242757 -0.146501
0.825495 3.241507 -0.141528
0.895667 3.230035 -0.106534
0.933366 3.235958 -0.058691
0.878267 3.228061 -0.100141
0.923176 3.232181 -0.051803
0.862941 3.228111 -0.094152
0.914317 3.230542 -0.045607
0.847560 3.230521 -0.088949
0.806912 3.243202 -0.135303
0.789288 3.247220 -0.126480
0.765222 3.266652 -0.157725
0.787668 3.269950 -0.165582
0.691672 3.290848 -0.177133
0.746678 3.264363 -0.144012
0.693849 3.273717 -0.152358
0.738362 3.261974 -0.129651
0.706409 3.263487 -0.128093
0.773197 3.252662 -0.114268
0.746611 3.256984 -0.105428
0.830559 3.237770 -0.079538
0.812721 3.247519 -0.070415
0.891844 3.231858 -0.030414
0.905141 3.230345 -0.038482
0.878715 3.235335 -0.021343
0.931956 3.208137 0.026256
0.940494 3.181977 0.093761
0.916423 3.210993 0.034907
0.948898 3.208598 0.017653
0.965271 3.175784 0.093325
0.965147 3.210612 0.010395
0.980549 3.214513 0.003864
0.995162 3.177476 0.089215
1.020531 3.181189 0.082658
1.023751 3.188693 0.169573
1.044844 3.193572 0.165494
1.050115 3.223688 0.228410
1.065993 3.201004 0.159037
1.068039 3.233623 0.221363
1.087830 3.212260 0.150799
1.045252 3.186954 0.074609
1.069343 3.197335 0.066750
0.995194 3.219558 -0.001824
1.012476 3.225945 -0.006672
0.944847 3.241645 -0.064356
1.030565 3.236163 -0.012295
1.049234 3.250948 -0.018919
0.959547 3.250441 -0.069555
1.090239 3.212904 0.058519
1.109339 3.227259 0.138896
1.108818 3.234267 0.048855
1.126886 3.247921 0.122623
1.123785 3.260645 0.038602
1.137068 3.292109 0.025893
1.140554 3.273939 0.105344
1.068244 3.270103 -0.027082
1.086506 3.293234 -0.036522
0.996548 3.277901 -0.082379
0.976973 3.262687 -0.075493
0.961230 3.269654 -0.129369
1.016929 3.299075 -0.092771
1.035002 3.338763 -0.102456
0.976786 3.298839 -0.126524
0.947844 3.308719 -0.142526
0.986876 3.351703 -0.131405
0.996713 3.423275 -0.136194
0.952311 3.363326 -0.146012
0.953958 3.433825 -0.146322
0.907523 3.380955 -0.164125
0.903163 3.328346 -0.157870
0.904695 3.449037 -0.165139
0.842639 3.406842 -0.191259
0.844889 3.354756 -0.187506
0.835739 3.473971 -0.202185
0.791528 3.420423 -0.217149
0.808099 3.376805 -0.205372
0.782353 3.369125 -0.209924
0.827522 3.331409 -0.189061
0.754018 3.369252 -0.216981
0.802748 3.326277 -0.194351
0.866399 3.291457 -0.166057
0.908494 3.259430 -0.158022
0.882113 3.300527 -0.161325
0.927884 3.277178 -0.153438
0.946666 3.251591 -0.124838
0.928800 3.240388 -0.118435
0.865770 3.577379 -0.207231
0.942296 3.561386 -0.179735
0.860738 3.705049 -0.197270
0.940991 3.687821 -0.179457
0.881817 3.814558 -0.140085
0.998182 3.679904 -0.182609
0.955150 3.799079 -0.160280
0.989168 3.550259 -0.167236
1.039951 3.673843 -0.166469
1.070178 3.668699 -0.148171
1.028976 3.541603 -0.154824
1.003418 3.792816 -0.170348
0.966737 3.909874 -0.148114
1.041844 3.790220 -0.165931
1.009916 3.912322 -0.145860
1.078858 3.795478 -0.148678
1.097387 3.666384 -0.133320
1.116659 3.800256 -0.118483
1.052686 3.913836 -0.129012
1.086420 3.916906 -0.094033
1.030025 4.027139 -0.099755
1.068614 4.031113 -0.056874
1.054268 4.145782 -0.012305
1.100888 4.033098 0.003333
1.129501 4.029174 0.082002
1.097541 4.144874 0.061427
1.113519 3.920733 -0.042619
1.139595 3.920965 0.027181
1.145318 3.806522 -0.072639
1.165321 3.810111 -0.010354
1.169941 3.679048 -0.062214
1.193856 3.689234 -0.008678
1.132854 3.670699 -0.104668
1.181779 3.553534 -0.022482
1.205584 3.570921 0.026568
1.143888 3.538797 -0.071232
1.191144 3.453101 0.020612
1.174493 3.361181 0.062776
1.152468 3.427916 -0.035390
1.202608 3.471955 0.072378
1.176369 3.382898 0.125121
1.156891 3.335366 0.157047
1.141831 3.305000 0.176490
1.154589 3.307615 0.087266
1.126601 3.281929 0.191617
1.124048 3.334665 0.252296
1.108534 3.262556 0.203018
1.087863 3.245736 0.211548
1.150838 3.340455 0.001120
1.103142 3.413226 -0.076715
1.105324 3.533188 -0.110084
1.047874 3.413042 -0.112986
1.100561 3.330436 -0.052038
1.067793 3.535738 -0.137597
1.205291 3.584868 0.084961
1.199629 3.696107 0.070964
1.120748 4.134820 0.151990
1.092046 4.214291 0.100705
1.043738 4.216247 0.019507
1.079894 4.256938 0.123401
1.107065 4.202240 0.203835
1.088308 4.242134 0.233386
1.094765 4.178377 0.301186
1.066042 4.134361 0.400944
1.074793 4.210875 0.332076
1.118153 4.112343 0.244716
1.016963 4.084515 0.484852
0.916988 3.913002 -0.144480
1.049982 3.257498 0.314112
0.925167 3.192411 0.090903
0.901635 3.217504 0.041308
0.877612 3.231554 0.037099
0.910117 3.206962 0.085067
0.862595 3.241004 -0.012158
0.790237 3.254813 -0.061014
0.841412 3.249046 -0.003147
0.762860 3.257451 -0.050804
0.815180 3.259250 0.005792
0.732686 3.260235 -0.040462
0.788229 3.271079 0.012016
0.872766 3.235866 0.068190
0.851410 3.257725 0.071120
0.931193 3.222296 0.142680
0.910789 3.240244 0.136311
0.890918 3.263806 0.131960
0.950632 3.245070 0.213033
0.947020 3.276277 0.313876
0.929829 3.264937 0.205418
0.907015 3.288815 0.197977
0.883856 3.315021 0.190428
0.872318 3.290493 0.128077
0.851748 3.321097 0.127182
0.820222 3.302401 0.075518
0.733945 3.312406 0.024626
0.794495 3.335015 0.081400
0.837045 3.277411 0.072856
0.762105 3.286833 0.017391
0.669994 3.283224 -0.030426
0.701452 3.268749 -0.033163
0.604222 3.277923 -0.073067
0.638979 3.303965 -0.032477
0.618247 3.326636 -0.036488
0.579293 3.294909 -0.074017
0.549475 3.290737 -0.101698
0.558933 3.317446 -0.078436
0.528394 3.314053 -0.104346
0.534111 3.355896 -0.089041
0.589116 3.357662 -0.051376
0.506438 3.355483 -0.113444
0.492233 3.411086 -0.098208
0.467307 3.412405 -0.122840
0.434637 3.484804 -0.090923
0.544214 3.412989 -0.063537
0.591002 3.423459 -0.024711
0.478357 3.486532 -0.055050
0.398706 3.574024 -0.026025
0.554179 3.481442 -0.003784
0.632265 3.448379 0.054718
0.481648 3.575463 0.042500
0.403445 3.650187 0.071054
0.339021 3.643859 -0.008389
0.377348 3.714943 0.071175
0.359247 3.797657 0.080250
0.328649 3.716322 -0.003609
0.306524 3.737553 -0.049694
0.315831 3.823446 0.024317
0.291953 3.848317 -0.025368
0.314716 3.653177 -0.059253
0.296898 3.756486 -0.081381
0.298534 3.769698 -0.107402
0.313842 3.662308 -0.093496
0.377074 3.576793 -0.104455
0.325776 3.670090 -0.119828
0.385331 3.580742 -0.126551
0.345370 3.675487 -0.142903
0.370051 3.679553 -0.166766
0.320567 3.781486 -0.131129
0.401525 3.586549 -0.142056
0.434272 3.496441 -0.155392
0.433364 3.592543 -0.152854
0.457631 3.498778 -0.169906
0.466586 3.595532 -0.164131
0.486056 3.497552 -0.183279
0.398497 3.684213 -0.189908
0.396193 3.799979 -0.176239
0.350228 3.936144 -0.139114
0.356980 3.793077 -0.152108
0.382239 3.948563 -0.159087
0.508088 3.493123 -0.195616
0.515056 3.415070 -0.186019
0.535750 3.418557 -0.195049
0.535500 3.346023 -0.162643
0.489697 3.412199 -0.173122
0.470697 3.411784 -0.158809
0.512146 3.346936 -0.152919
0.499322 3.349920 -0.142577
0.534012 3.302643 -0.141063
0.521085 3.306323 -0.132094
0.561448 3.279568 -0.127582
0.552790 3.300401 -0.149529
0.579527 3.300648 -0.160232
0.579192 3.274723 -0.133210
0.611696 3.263377 -0.110570
0.605171 3.272347 -0.139952
0.637513 3.260311 -0.115928
0.644159 3.274824 -0.148841
0.625322 3.304627 -0.178070
0.670824 3.261009 -0.122541
0.717207 3.255982 -0.095908
0.688183 3.254638 -0.085786
0.660590 3.257988 -0.078613
0.631576 3.266067 -0.074672
0.589649 3.269898 -0.106275
0.570852 3.277918 -0.103560
0.548516 3.285294 -0.122207
0.537923 3.292169 -0.116325
0.517806 3.310498 -0.121322
0.497285 3.353068 -0.130562
0.461474 3.412337 -0.142879
0.419937 3.492638 -0.140278
0.417653 3.487741 -0.120012
0.645244 3.320709 -0.199767
0.585227 3.349921 -0.191838
0.552683 3.419313 -0.204735
0.612582 3.354988 -0.206365
0.559795 3.347272 -0.174575
0.570988 3.420543 -0.214811
0.375120 3.575034 -0.072866
0.644858 3.383722 0.004333
0.690346 3.409534 0.092297
0.677401 3.481872 0.169710
0.776916 3.381051 0.117520
0.699443 3.350986 0.033702
0.764611 3.445632 0.198952
0.836958 3.358807 0.148410
0.862634 3.344940 0.194776
0.625598 3.964782 -0.213212
0.597267 3.971122 -0.218643
0.623593 4.058114 -0.199790
0.589367 4.068605 -0.196084
0.605752 4.170554 -0.165903
0.872154 4.307397 -0.093762
0.913771 4.363626 -0.009452
0.889237 4.376671 -0.000229
0.856355 4.380939 -0.051307
0.864004 4.386244 0.004519
0.838295 4.391662 0.005854
0.841372 4.385322 -0.045130
0.865736 4.379446 0.056709
0.832769 4.383365 0.061356
0.798450 4.379360 0.062432
0.836246 4.379518 0.127010
0.804397 4.379070 0.136456
0.775159 4.374639 0.146616
0.817877 4.388200 0.237806
0.791352 4.379770 0.249601
0.771579 4.360386 0.261218
0.779479 4.367592 0.358369
0.761599 4.347250 0.362975
0.753273 4.314480 0.361044
0.769338 4.314783 0.456535
0.758016 4.295877 0.456203
0.771224 4.269760 0.561794
0.756246 4.257820 0.562730
0.732709 4.203308 0.664251
0.715222 4.199495 0.666437
0.639414 4.122965 0.765543
0.619393 4.122129 0.762237
0.605796 4.117480 0.754776
0.698169 4.194283 0.666094
0.596958 4.113760 0.746105
0.683888 4.188013 0.665996
0.590197 4.110469 0.736091
0.668751 4.180090 0.664969
0.582281 4.105390 0.722534
0.654135 4.171603 0.660499
0.569895 4.092318 0.703366
0.634210 4.156555 0.652778
0.567583 4.068803 0.660957
0.547586 3.998468 0.702507
0.569517 3.990586 0.654103
0.583628 3.887569 0.625392
0.613766 4.131684 0.633392
0.675997 4.180521 0.539813
0.618227 4.115925 0.567707
0.630055 4.138229 0.555889
0.636364 4.149427 0.573936
0.641971 4.155653 0.559487
0.669201 4.179799 0.498386
0.645416 4.163717 0.517083
0.687995 4.203174 0.423063
0.624654 4.196638 0.428468
0.609216 4.173128 0.447805
0.649014 4.217227 0.387143
0.506108 4.209978 0.355102
0.501425 4.187955 0.361484
0.395036 4.237737 0.293236
0.520967 4.226184 0.337338
0.387722 4.258979 0.290294
0.546661 4.236770 0.314293
0.677420 4.225061 0.352819
0.407063 4.276806 0.282030
0.580526 4.242459 0.294444
0.429115 4.285979 0.265715
0.703113 4.222129 0.336019
0.612513 4.247101 0.274788
0.731455 4.226570 0.324240
0.643132 4.252172 0.258635
0.457876 4.291737 0.249366
0.366610 4.337265 0.158945
0.496225 4.292986 0.229600
0.552681 4.297508 0.199050
0.410604 4.344706 0.144793
0.376889 4.360023 0.046525
0.481761 4.344511 0.131963
0.582134 4.348370 0.105991
0.464443 4.358260 0.044391
0.448657 4.327579 -0.028366
0.577285 4.347474 0.025916
0.663693 4.334288 0.002559
0.574726 4.331453 -0.026398
0.669322 4.337063 -0.034948
0.730389 4.351496 -0.039425
0.673296 4.334309 -0.058039
0.739637 4.358259 -0.059029
0.750475 4.358635 -0.074575
0.791458 4.380894 -0.055576
0.782375 4.380810 -0.037533
0.827316 4.387728 -0.040178
0.800873 4.377175 -0.066457
0.811175 4.388926 -0.029264
0.808359 4.390072 0.005394
0.772276 4.375732 0.000828
0.764889 4.368428 0.061316
0.723514 4.349741 -0.005568
0.720644 4.350452 0.065982
0.745661 4.364486 0.157817
0.661179 4.342401 0.082349
0.700467 4.339547 0.171846
0.745063 4.320514 0.265496
0.626804 4.319392 0.182217
0.708582 4.284292 0.252486
0.678157 4.264631 0.248407
0.750791 4.281399 0.343927
0.752143 4.273278 0.442280
0.747625 4.260197 0.331789
0.752606 4.247929 0.428807
0.743831 4.243001 0.325365
0.752413 4.228666 0.419799
0.719692 4.221427 0.547401
0.745251 4.214053 0.416347
0.709834 4.209148 0.543304
0.730867 4.206498 0.416810
0.710833 4.203663 0.419319
0.697667 4.195996 0.543961
0.730191 4.232915 0.554289
0.742774 4.245715 0.559527
0.327848 4.344229 0.055915
0.293945 4.320535 0.071965
0.263490 4.292829 0.090006
0.332697 4.322134 0.172297
0.312386 4.301783 0.186049
0.303138 4.283252 0.195619
0.246226 4.270280 0.107099
0.302862 4.263107 0.204939
0.240966 4.251231 0.120597
0.309822 4.238942 0.211321
0.247151 4.230228 0.132622
0.404004 4.215869 0.293354
0.316713 4.206748 0.212463
0.263827 4.202885 0.146872
0.325561 4.156909 0.204017
0.406764 4.183778 0.287223
0.504856 4.158893 0.362657
0.603938 4.144617 0.456264
0.289767 4.162653 0.162306
0.230987 4.195110 0.077865
0.232184 4.213475 0.063042
0.939118 4.288972 0.408220
0.965189 4.336732 0.306887
0.891481 4.310159 0.413946
3 3 0 1
3 3 1 5
3 0 2 700
3 0 700 1
3 0 3 4
3 0 4 2
3 4 3 6
3 4 6 227
3 7 3 5
3 7 5 8
3 9 6 3
3 9 3 7
3 11 10 7
3 11 7 8
3 9 7 10
3 9 10 12
3 13 10 11
3 13 11 15
3 13 16 12
3 13 12 10
3 14 17 16
3 14 16 13
3 14 13 15
3 14 15 593
3 20 12 16
3 20 16 18
3 21 18 16
3 21 16 17
3 19 18 21
3 19 21 22
3 20 18 19
3 20 19 219
3 21 23 24
3 21 24 22
3 21 17 26
3 21 26 23
3 24 23 25
3 24 25 203
3 27 25 23
3 27 23 26
3 28 26 17
3 28 17 14
3 27 26 28
3 27 28 30
3 28 14 593
3 28 593 29
3 28 29 32
3 28 32 30
3 33 31 30
3 33 30 32
3 27 30 31
3 27 31 202
3 33 32 34
3 33 34 37
3 34 32 29
3 34 29 36
3 34 36 589
3 34 589 35
3 34 35 38
3 34 38 37
3 33 37 39
3 33 39 40
3 41 39 37
3 41 37 38
3 42 45 40
3 42 40 39
3 41 44 42
3 41 42 39
3 42 43 46
3 42 46 45
3 42 44 455
3 42 455 43
3 49 40 45
3 49 45 47
3 46 50 47
3 46 47 45
3 48 199 49
3 48 49 47
3 48 47 50
3 48 50 51
3 52 55 51
3 52 51 50
3 46 53 52
3 46 52 50
3 52 53 575
3 52 575 54
3 52 54 56
3 52 56 55
3 60 57 55
3 60 55 56
3 57 59 51
3 57 51 55
3 57 58 194
3 57 194 59
3 60 61 58
3 60 58 57
3 62 60 56
3 62 56 65
3 62 64 61
3 62 61 60
3 63 119 64
3 63 64 62
3 63 62 65
3 63 65 66
3 67 69 66
3 67 66 65
3 67 65 56
3 67 56 54
3 67 68 70
3 67 70 69
3 575 68 67
3 575 67 54
3 71 74 66
3 71 66 69
3 70 72 71
3 70 71 69
3 71 72 552
3 71 552 73
3 71 73 76
3 71 76 74
3 75 63 66
3 75 66 74
3 77 75 74
3 77 74 76
3 79 77 76
3 79 76 78
3 81 78 76
3 81 76 73
3 115 79 78
3 115 78 80
3 81 83 80
3 81 80 78
3 552 82 81
3 552 81 73
3 81 82 84
3 81 84 83
3 84 86 85
3 84 85 83
3 83 85 88
3 83 88 80
3 561 87 85
3 561 85 86
3 90 88 85
3 90 85 87
3 115 80 88
3 115 88 89
3 90 91 89
3 90 89 88
3 90 87 92
3 90 92 91
3 95 89 91
3 95 91 93
3 93 91 92
3 93 92 96
3 94 106 95
3 94 95 93
3 94 93 96
3 94 96 98
3 97 96 92
3 97 92 562
3 97 99 98
3 97 98 96
3 100 98 99
3 100 99 102
3 100 103 94
3 100 94 98
3 101 104 103
3 101 103 100
3 101 100 102
3 101 102 572
3 107 105 103
3 107 103 104
3 94 103 105
3 94 105 106
3 108 111 106
3 108 106 105
3 109 108 105
3 109 105 107
3 109 129 110
3 109 110 108
3 108 110 112
3 108 112 111
3 95 106 111
3 95 111 113
3 112 114 113
3 112 113 111
3 115 113 114
3 115 114 79
3 95 113 115
3 95 115 89
3 79 114 116
3 79 116 77
3 112 117 116
3 112 116 114
3 117 120 118
3 117 118 116
3 77 116 118
3 77 118 75
3 75 118 119
3 75 119 63
3 120 121 119
3 120 119 118
3 120 122 123
3 120 123 121
3 117 124 122
3 117 122 120
3 126 123 122
3 126 122 125
3 128 125 122
3 128 122 124
3 126 125 127
3 126 127 185
3 127 125 128
3 127 128 130
3 128 129 131
3 128 131 130
3 128 124 110
3 128 110 129
3 127 130 132
3 127 132 135
3 131 133 132
3 131 132 130
3 134 132 133
3 134 133 571
3 137 135 132
3 137 132 134
3 138 136 135
3 138 135 137
3 127 135 136
3 127 136 185
3 138 137 139
3 138 139 141
3 137 134 140
3 137 140 139
3 144 142 139
3 144 139 140
3 139 142 145
3 139 145 141
3 346 143 142
3 346 142 144
3 147 145 142
3 147 142 143
3 146 846 141
3 146 141 145
3 147 149 146
3 147 146 145
3 148 150 149
3 148 149 147
3 148 147 143
3 148 143 344
3 152 151 149
3 152 149 150
3 146 149 151
3 146 151 154
3 152 715 153
3 152 153 151
3 153 156 154
3 153 154 151
3 146 154 155
3 146 155 846
3 155 154 156
3 155 156 158
3 153 718 157
3 153 157 156
3 157 160 158
3 157 158 156
3 155 158 159
3 155 159 847
3 159 158 160
3 159 160 162
3 157 721 161
3 157 161 160
3 161 164 162
3 161 162 160
3 163 162 164
3 163 164 166
3 159 162 163
3 159 163 180
3 161 724 165
3 161 165 164
3 165 167 166
3 165 166 164
3 168 166 167
3 168 167 170
3 168 169 163
3 168 163 166
3 168 171 174
3 168 174 169
3 173 171 168
3 173 168 170
3 174 171 172
3 174 172 175
3 173 208 172
3 173 172 171
3 174 175 178
3 174 178 176
3 174 176 179
3 174 179 169
3 177 176 178
3 177 178 188
3 179 176 177
3 179 177 181
3 179 180 163
3 179 163 169
3 179 181 182
3 179 182 180
3 183 184 182
3 183 182 181
3 177 186 183
3 177 183 181
3 183 185 136
3 183 136 184
3 183 186 126
3 183 126 185
3 177 188 187
3 177 187 186
3 126 186 187
3 126 187 123
3 189 187 188
3 189 188 190
3 121 123 187
3 121 187 189
3 121 189 64
3 121 64 119
3 189 190 61
3 189 61 64
3 190 188 178
3 190 178 191
3 190 191 58
3 190 58 61
3 191 178 175
3 191 175 192
3 191 192 194
3 191 194 58
3 192 175 172
3 192 172 193
3 192 193 195
3 192 195 194
3 59 194 195
3 59 195 197
3 193 207 196
3 193 196 195
3 196 198 197
3 196 197 195
3 48 197 198
3 48 198 199
3 59 197 48
3 59 48 51
3 200 202 199
3 200 199 198
3 196 201 200
3 196 200 198
3 200 201 203
3 200 203 25
3 200 25 27
3 200 27 202
3 49 199 202
3 49 202 31
3 206 203 201
3 206 201 204
3 196 207 204
3 196 204 201
3 205 204 207
3 205 207 208
3 206 204 205
3 206 205 209
3 193 172 208
3 193 208 207
3 205 208 173
3 205 173 733
3 206 209 211
3 206 211 210
3 24 203 206
3 24 206 210
3 213 212 210
3 213 210 211
3 24 210 212
3 24 212 22
3 213 215 214
3 213 214 212
3 19 22 212
3 19 212 214
3 215 217 216
3 215 216 214
3 19 214 216
3 19 216 219
3 217 746 218
3 217 218 216
3 218 220 219
3 218 219 216
3 20 219 220
3 20 220 222
3 218 748 221
3 218 221 220
3 223 222 220
3 223 220 221
3 9 12 20
3 9 20 222
3 223 6 9
3 223 9 222
3 224 223 221
3 224 221 225
3 224 227 6
3 224 6 223
3 237 226 224
3 237 224 225
3 226 228 227
3 226 227 224
3 4 227 228
3 4 228 2
3 231 2 228
3 231 228 229
3 226 232 229
3 226 229 228
3 230 229 232
3 230 232 233
3 230 697 231
3 230 231 229
3 236 233 232
3 236 232 234
3 237 234 232
3 237 232 226
3 238 235 234
3 238 234 237
3 252 236 234
3 252 234 235
3 239 238 237
3 239 237 225
3 239 242 240
3 239 240 238
3 238 240 241
3 238 241 235
3 246 241 240
3 246 240 243
3 244 243 240
3 244 240 242
3 244 751 245
3 244 245 243
3 245 247 246
3 245 246 243
3 248 246 247
3 248 247 249
3 248 251 241
3 248 241 246
3 248 249 838
3 248 838 250
3 254 251 248
3 254 248 250
3 252 251 253
3 252 253 236
3 251 252 235
3 251 235 241
3 254 255 253
3 254 253 251
3 256 257 255
3 256 255 254
3 256 254 250
3 256 250 258
3 262 257 256
3 262 256 259
3 256 258 260
3 256 260 259
3 843 261 259
3 843 259 260
3 262 259 261
3 262 261 264
3 633 257 262
3 633 262 263
3 262 264 265
3 262 265 263
3 268 265 264
3 268 264 266
3 267 266 264
3 267 264 261
3 267 272 269
3 267 269 266
3 269 270 268
3 269 268 266
3 269 271 652
3 269 652 270
3 272 274 271
3 272 271 269
3 267 844 273
3 267 273 272
3 272 273 275
3 272 275 274
3 276 278 271
3 276 271 274
3 276 274 275
3 276 275 277
3 276 277 280
3 276 280 279
3 281 278 276
3 281 276 279
3 280 284 282
3 280 282 279
3 281 279 282
3 281 282 285
3 285 282 283
3 285 283 286
3 283 282 284
3 283 284 784
3 281 285 287
3 281 287 288
3 285 286 289
3 285 289 287
3 290 293 288
3 290 288 287
3 291 290 287
3 291 287 289
3 291 304 292
3 291 292 290
3 290 292 295
3 290 295 293
3 295 296 294
3 295 294 293
3 654 288 293
3 654 293 294
3 295 297 298
3 295 298 296
3 295 292 300
3 295 300 297
3 298 297 299
3 298 299 655
3 301 299 297
3 301 297 300
3 301 300 302
3 301 302 303
3 302 300 292
3 302 292 304
3 302 305 306
3 302 306 303
3 302 304 307
3 302 307 305
3 309 306 305
3 309 305 308
3 307 311 308
3 307 308 305
3 402 309 308
3 402 308 310
3 310 308 311
3 310 311 312
3 313 315 312
3 313 312 311
3 307 316 313
3 307 313 311
3 313 314 704
3 313 704 315
3 313 316 317
3 313 317 314
3 291 289 317
3 291 317 316
3 307 304 291
3 307 291 316
3 318 319 314
3 318 314 317
3 286 318 317
3 286 317 289
3 318 320 321
3 318 321 319
3 286 283 320
3 286 320 318
3 283 323 322
3 283 322 320
3 321 320 322
3 321 322 325
3 324 322 323
3 324 323 790
3 327 325 322
3 327 322 324
3 326 325 327
3 326 327 329
3 321 325 326
3 321 326 707
3 327 324 792
3 327 792 328
3 331 329 327
3 331 327 328
3 326 329 330
3 326 330 374
3 330 329 331
3 330 331 332
3 331 333 336
3 331 336 332
3 331 328 334
3 331 334 333
3 711 335 333
3 711 333 334
3 336 333 335
3 336 335 338
3 336 337 372
3 336 372 332
3 336 338 340
3 336 340 337
3 338 335 709
3 338 709 339
3 338 339 342
3 338 342 340
3 708 337 340
3 708 340 341
3 343 341 340
3 343 340 342
3 343 342 344
3 343 344 345
3 339 148 344
3 339 344 342
3 345 344 143
3 345 143 346
3 345 346 349
3 345 349 347
3 343 345 347
3 343 347 350
3 348 347 349
3 348 349 565
3 348 352 350
3 348 350 347
3 351 341 343
3 351 343 350
3 351 350 352
3 351 352 353
3 354 357 353
3 354 353 352
3 354 352 348
3 354 348 356
3 354 356 527
3 354 527 355
3 358 357 354
3 358 354 355
3 358 361 359
3 358 359 357
3 362 353 357
3 362 357 359
3 360 364 362
3 360 362 359
3 360 359 361
3 360 361 382
3 362 363 351
3 362 351 353
3 362 364 366
3 362 366 363
3 380 365 364
3 380 364 360
3 368 366 364
3 368 364 365
3 708 363 366
3 708 366 367
3 368 369 367
3 368 367 366
3 368 365 370
3 368 370 369
3 372 367 369
3 372 369 371
3 371 369 370
3 371 370 373
3 330 332 372
3 330 372 371
3 330 371 373
3 330 373 374
3 375 373 370
3 375 370 378
3 375 377 374
3 375 374 373
3 375 378 379
3 375 379 376
3 705 377 375
3 705 375 376
3 378 370 365
3 378 365 380
3 378 380 381
3 378 381 379
3 380 360 382
3 380 382 381
3 383 381 382
3 383 382 384
3 383 386 379
3 383 379 381
3 383 384 511
3 383 511 385
3 388 386 383
3 388 383 385
3 386 387 376
3 386 376 379
3 388 390 387
3 388 387 386
3 388 385 509
3 388 509 389
3 392 390 388
3 392 388 389
3 390 391 703
3 390 703 387
3 392 393 391
3 392 391 390
3 395 393 392
3 395 392 394
3 392 389 396
3 392 396 394
3 395 394 397
3 395 397 400
3 394 396 398
3 394 398 397
3 495 399 397
3 495 397 398
3 399 401 400
3 399 400 397
3 402 400 401
3 402 401 403
3 402 310 395
3 402 395 400
3 405 309 402
3 405 402 403
3 405 403 404
3 405 404 406
3 499 404 403
3 499 403 401
3 409 407 405
3 409 405 406
3 405 407 306
3 405 306 309
3 407 408 303
3 407 303 306
3 409 410 408
3 409 408 407
3 414 411 409
3 414 409 406
3 409 411 413
3 409 413 410
3 414 416 412
3 414 412 411
3 433 413 411
3 433 411 412
3 415 417 416
3 415 416 414
3 415 414 406
3 415 406 404
3 421 412 416
3 421 416 418
3 420 418 416
3 420 416 417
3 419 418 420
3 419 420 506
3 421 418 419
3 421 419 423
3 433 412 421
3 433 421 422
3 421 423 425
3 421 425 422
3 419 465 424
3 419 424 423
3 426 425 423
3 426 423 424
3 426 428 427
3 426 427 425
3 427 430 422
3 427 422 425
3 427 428 444
3 427 444 429
3 427 429 431
3 427 431 430
3 430 431 435
3 430 435 432
3 430 432 433
3 430 433 422
3 432 434 413
3 432 413 433
3 432 435 436
3 432 436 434
3 437 435 431
3 437 431 439
3 437 438 436
3 437 436 435
3 437 439 440
3 437 440 438
3 442 440 439
3 442 439 441
3 441 439 431
3 441 431 429
3 443 445 442
3 443 442 441
3 443 441 429
3 443 429 444
3 449 446 443
3 449 443 444
3 443 446 448
3 443 448 445
3 449 450 447
3 449 447 446
3 576 448 446
3 576 446 447
3 453 450 449
3 453 449 451
3 449 444 428
3 449 428 451
3 426 452 451
3 426 451 428
3 453 451 452
3 453 452 454
3 453 455 44
3 453 44 450
3 456 455 453
3 456 453 454
3 456 457 43
3 456 43 455
3 458 459 457
3 458 457 456
3 458 456 454
3 458 454 461
3 460 554 459
3 460 459 458
3 460 458 461
3 460 461 462
3 464 462 461
3 464 461 463
3 463 461 454
3 463 454 452
3 463 452 426
3 463 426 424
3 464 463 424
3 464 424 465
3 466 464 465
3 466 465 468
3 466 469 462
3 466 462 464
3 467 471 469
3 467 469 466
3 467 466 468
3 467 468 479
3 470 460 462
3 470 462 469
3 472 470 469
3 472 469 471
3 475 472 471
3 475 471 473
3 476 473 471
3 476 471 467
3 477 474 473
3 477 473 476
3 550 475 473
3 550 473 474
3 477 476 478
3 477 478 481
3 476 467 479
3 476 479 478
3 505 480 478
3 505 478 479
3 483 481 478
3 483 478 480
3 483 485 482
3 483 482 481
3 559 477 481
3 559 481 482
3 483 484 487
3 483 487 485
3 504 484 483
3 504 483 480
3 486 558 482
3 486 482 485
3 487 488 486
3 487 486 485
3 487 484 490
3 487 490 489
3 487 489 491
3 487 491 488
3 492 489 490
3 492 490 493
3 494 491 489
3 494 489 492
3 492 493 496
3 492 496 495
3 494 492 495
3 494 495 398
3 495 496 497
3 495 497 399
3 496 493 498
3 496 498 497
3 499 497 498
3 499 498 500
3 399 497 499
3 399 499 401
3 499 500 415
3 499 415 404
3 500 501 417
3 500 417 415
3 500 498 503
3 500 503 501
3 504 502 501
3 504 501 503
3 420 417 501
3 420 501 502
3 504 503 490
3 504 490 484
3 503 498 493
3 503 493 490
3 505 502 504
3 505 504 480
3 420 502 505
3 420 505 506
3 505 479 468
3 505 468 506
3 419 506 468
3 419 468 465
3 494 398 396
3 494 396 507
3 508 491 494
3 508 494 507
3 389 509 507
3 389 507 396
3 508 507 509
3 508 509 510
3 385 511 510
3 385 510 509
3 512 510 511
3 512 511 513
3 512 514 508
3 512 508 510
3 518 515 512
3 518 512 513
3 512 515 517
3 512 517 514
3 518 520 516
3 518 516 515
3 560 517 515
3 560 515 516
3 518 513 574
3 518 574 519
3 521 520 518
3 521 518 519
3 525 522 520
3 525 520 521
3 523 516 520
3 523 520 522
3 523 522 524
3 523 524 539
3 524 522 525
3 524 525 526
3 525 527 528
3 525 528 526
3 525 521 355
3 525 355 527
3 356 529 528
3 356 528 527
3 532 530 528
3 532 528 529
3 526 528 530
3 526 530 533
3 531 534 533
3 531 533 530
3 532 563 531
3 532 531 530
3 534 536 535
3 534 535 533
3 524 526 533
3 524 533 535
3 537 535 536
3 537 536 538
3 524 535 537
3 524 537 539
3 541 540 537
3 541 537 538
3 540 542 539
3 540 539 537
3 541 546 543
3 541 543 540
3 540 543 545
3 540 545 542
3 545 543 544
3 545 544 555
3 547 544 543
3 547 543 546
3 561 86 546
3 561 546 541
3 84 547 546
3 84 546 86
3 547 548 550
3 547 550 544
3 84 82 548
3 84 548 547
3 550 548 549
3 550 549 475
3 552 549 548
3 552 548 82
3 550 474 555
3 550 555 544
3 475 549 551
3 475 551 472
3 552 72 551
3 552 551 549
3 472 551 553
3 472 553 470
3 70 553 551
3 70 551 72
3 470 553 554
3 470 554 460
3 70 68 554
3 70 554 553
3 575 459 554
3 575 554 68
3 545 555 559
3 545 559 556
3 545 556 557
3 545 557 542
3 560 557 556
3 560 556 558
3 559 482 558
3 559 558 556
3 559 555 474
3 559 474 477
3 486 517 560
3 486 560 558
3 560 516 523
3 560 523 557
3 523 539 542
3 523 542 557
3 562 561 541
3 562 541 538
3 562 92 87
3 562 87 561
3 97 562 538
3 97 538 536
3 534 99 97
3 534 97 536
3 531 102 99
3 531 99 534
3 564 567 563
3 564 563 532
3 564 532 529
3 564 529 565
3 566 564 565
3 566 565 349
3 566 568 567
3 566 567 564
3 571 569 567
3 571 567 568
3 569 572 563
3 569 563 567
3 569 570 101
3 569 101 572
3 571 133 570
3 571 570 569
3 531 563 572
3 531 572 102
3 134 571 568
3 134 568 140
3 101 570 573
3 101 573 104
3 131 573 570
3 131 570 133
3 131 129 109
3 131 109 573
3 109 107 104
3 109 104 573
3 144 140 568
3 144 568 566
3 346 144 566
3 346 566 349
3 348 565 529
3 348 529 356
3 521 519 358
3 521 358 355
3 574 361 358
3 574 358 519
3 384 574 513
3 384 513 511
3 384 382 361
3 384 361 574
3 486 488 514
3 486 514 517
3 508 514 488
3 508 488 491
3 575 53 457
3 575 457 459
3 46 43 457
3 46 457 53
3 41 447 450
3 41 450 44
3 576 579 577
3 576 577 448
3 445 448 577
3 445 577 580
3 578 582 580
3 578 580 577
3 587 578 577
3 587 577 579
3 445 580 581
3 445 581 442
3 581 580 582
3 581 582 583
3 583 582 584
3 583 584 585
3 587 584 582
3 587 582 578
3 585 584 586
3 585 586 605
3 587 588 586
3 587 586 584
3 587 589 590
3 587 590 588
3 35 589 587
3 35 587 579
3 36 592 590
3 36 590 589
3 602 588 590
3 602 590 591
3 592 594 591
3 592 591 590
3 36 29 593
3 36 593 592
3 592 593 15
3 592 15 594
3 595 597 591
3 595 591 594
3 11 595 594
3 11 594 15
3 11 8 596
3 11 596 595
3 595 596 598
3 595 598 597
3 597 598 601
3 597 601 599
3 597 599 602
3 597 602 591
3 602 599 600
3 602 600 603
3 699 600 599
3 699 599 601
3 602 603 586
3 602 586 588
3 603 600 607
3 603 607 604
3 603 604 605
3 603 605 586
3 604 606 678
3 604 678 605
3 604 607 609
3 604 609 606
3 609 607 608
3 609 608 611
3 699 608 607
3 699 607 600
3 609 611 612
3 609 612 610
3 609 610 680
3 609 680 606
3 611 613 615
3 611 615 612
3 611 608 614
3 611 614 613
3 613 614 619
3 613 619 616
3 613 616 617
3 613 617 615
3 617 616 618
3 617 618 687
3 618 616 619
3 618 619 621
3 620 623 621
3 620 621 619
3 620 619 614
3 620 614 695
3 694 618 621
3 694 621 622
3 622 621 623
3 622 623 625
3 620 695 624
3 620 624 623
3 230 625 623
3 230 623 624
3 622 625 626
3 622 626 627
3 230 233 626
3 230 626 625
3 627 626 628
3 627 628 630
3 236 628 626
3 236 626 233
3 253 629 628
3 253 628 236
3 629 632 630
3 629 630 628
3 631 630 632
3 631 632 633
3 627 630 631
3 627 631 634
3 255 632 629
3 255 629 253
3 633 632 255
3 633 255 257
3 631 633 263
3 631 263 635
3 637 634 631
3 637 631 635
3 636 639 637
3 636 637 635
3 636 635 263
3 636 263 265
3 637 639 640
3 637 640 638
3 637 638 694
3 637 694 634
3 644 640 639
3 644 639 641
3 636 643 641
3 636 641 639
3 642 641 643
3 642 643 653
3 644 641 642
3 644 642 646
3 686 640 644
3 686 644 645
3 644 646 647
3 644 647 645
3 649 647 646
3 649 646 648
3 642 650 648
3 642 648 646
3 298 655 649
3 298 649 648
3 298 648 650
3 298 650 296
3 642 653 651
3 642 651 650
3 651 294 296
3 651 296 650
3 651 652 654
3 651 654 294
3 651 653 270
3 651 270 652
3 268 270 653
3 268 653 643
3 654 652 271
3 654 271 278
3 654 278 281
3 654 281 288
3 649 655 657
3 649 657 656
3 649 656 659
3 649 659 647
3 692 658 656
3 692 656 657
3 659 656 658
3 659 658 661
3 659 661 662
3 659 662 660
3 659 660 645
3 659 645 647
3 662 661 663
3 662 663 664
3 666 663 661
3 666 661 658
3 665 681 664
3 665 664 663
3 665 663 666
3 665 666 668
3 666 658 692
3 666 692 667
3 666 667 670
3 666 670 668
3 670 671 669
3 670 669 668
3 679 665 668
3 679 668 669
3 672 674 671
3 672 671 670
3 667 673 672
3 667 672 670
3 672 673 434
3 672 434 436
3 672 436 438
3 672 438 674
3 674 438 440
3 674 440 675
3 674 675 676
3 674 676 671
3 581 675 440
3 581 440 442
3 581 583 676
3 581 676 675
3 677 669 671
3 677 671 676
3 583 585 677
3 583 677 676
3 585 605 678
3 585 678 677
3 677 678 679
3 677 679 669
3 679 678 606
3 679 606 680
3 679 680 681
3 679 681 665
3 682 681 680
3 682 680 610
3 682 683 664
3 682 664 681
3 682 610 612
3 682 612 683
3 662 664 683
3 662 683 684
3 684 683 612
3 684 612 615
3 617 685 684
3 617 684 615
3 662 684 685
3 662 685 660
3 686 645 660
3 686 660 685
3 617 687 686
3 617 686 685
3 686 687 638
3 686 638 640
3 694 638 687
3 694 687 618
3 688 413 434
3 688 434 673
3 688 673 689
3 688 689 691
3 692 689 673
3 692 673 667
3 690 693 691
3 690 691 689
3 692 657 690
3 692 690 689
3 413 688 691
3 413 691 410
3 408 410 691
3 408 691 693
3 301 303 408
3 301 408 693
3 690 299 301
3 690 301 693
3 690 657 655
3 690 655 299
3 268 643 636
3 268 636 265
3 694 622 627
3 694 627 634
3 230 624 696
3 230 696 697
3 699 696 624
3 699 624 695
3 698 700 697
3 698 697 696
3 699 601 698
3 699 698 696
3 699 695 614
3 699 614 608
3 701 1 700
3 701 700 698
3 701 698 601
3 701 601 598
3 702 5 1
3 702 1 701
3 702 701 598
3 702 598 596
3 702 596 8
3 702 8 5
3 231 697 700
3 231 700 2
3 35 579 576
3 35 576 38
3 576 447 41
3 576 41 38
3 395 310 312
3 395 312 393
3 393 312 315
3 393 315 391
3 704 703 391
3 704 391 315
3 704 706 705
3 704 705 703
3 705 376 387
3 705 387 703
3 705 706 707
3 705 707 377
3 704 314 319
3 704 319 706
3 321 707 706
3 321 706 319
3 326 374 377
3 326 377 707
3 708 367 372
3 708 372 337
3 351 363 708
3 351 708 341
3 339 709 150
3 339 150 148
3 711 710 709
3 711 709 335
3 710 152 150
3 710 150 709
3 711 714 712
3 711 712 710
3 710 712 715
3 710 715 152
3 713 716 715
3 713 715 712
3 713 712 714
3 713 714 795
3 153 715 716
3 153 716 718
3 713 798 717
3 713 717 716
3 717 719 718
3 717 718 716
3 157 718 719
3 157 719 721
3 717 800 720
3 717 720 719
3 720 722 721
3 720 721 719
3 161 721 722
3 161 722 724
3 720 803 723
3 720 723 722
3 723 725 724
3 723 724 722
3 165 724 725
3 165 725 727
3 723 806 726
3 723 726 725
3 726 728 727
3 726 727 725
3 729 727 728
3 729 728 730
3 165 727 729
3 165 729 167
3 729 730 732
3 729 732 731
3 729 731 170
3 729 170 167
3 173 170 731
3 173 731 733
3 732 734 733
3 732 733 731
3 205 733 734
3 205 734 209
3 735 211 209
3 735 209 734
3 732 736 735
3 732 735 734
3 735 737 213
3 735 213 211
3 735 736 738
3 735 738 737
3 740 739 737
3 740 737 738
3 213 737 739
3 213 739 215
3 740 742 741
3 740 741 739
3 215 739 741
3 215 741 217
3 744 743 741
3 744 741 742
3 217 741 743
3 217 743 746
3 744 749 745
3 744 745 743
3 745 747 746
3 745 746 743
3 218 746 747
3 218 747 748
3 745 244 242
3 745 242 747
3 748 747 242
3 748 242 239
3 748 239 225
3 748 225 221
3 745 749 751
3 745 751 244
3 744 821 750
3 744 750 749
3 753 751 749
3 753 749 750
3 245 751 752
3 245 752 841
3 751 753 754
3 751 754 752
3 753 750 755
3 753 755 754
3 756 752 754
3 756 754 755
3 756 755 758
3 756 758 759
3 755 750 820
3 755 820 757
3 755 757 760
3 755 760 758
3 762 759 758
3 762 758 761
3 761 758 760
3 761 760 764
3 762 761 763
3 762 763 835
3 761 764 765
3 761 765 763
3 764 766 768
3 764 768 765
3 764 760 767
3 764 767 766
3 766 767 771
3 766 771 769
3 766 769 770
3 766 770 768
3 775 770 769
3 775 769 772
3 771 773 772
3 771 772 769
3 773 814 774
3 773 774 772
3 775 772 774
3 775 774 777
3 775 777 779
3 775 779 776
3 827 770 775
3 827 775 776
3 809 778 777
3 809 777 774
3 779 777 778
3 779 778 781
3 779 781 783
3 779 783 780
3 779 780 824
3 779 824 776
3 807 782 781
3 807 781 778
3 783 781 782
3 783 782 785
3 783 785 787
3 783 787 784
3 783 784 284
3 783 284 780
3 804 786 785
3 804 785 782
3 788 787 785
3 788 785 786
3 790 323 787
3 790 787 788
3 283 784 787
3 283 787 323
3 801 789 788
3 801 788 786
3 789 791 790
3 789 790 788
3 791 792 324
3 791 324 790
3 791 793 796
3 791 796 792
3 789 794 793
3 789 793 791
3 797 795 793
3 797 793 794
3 796 793 795
3 796 795 714
3 796 334 328
3 796 328 792
3 796 714 711
3 796 711 334
3 797 798 713
3 797 713 795
3 797 794 799
3 797 799 798
3 717 798 799
3 717 799 800
3 801 799 794
3 801 794 789
3 801 802 800
3 801 800 799
3 804 802 801
3 804 801 786
3 720 800 802
3 720 802 803
3 804 805 803
3 804 803 802
3 807 805 804
3 807 804 782
3 723 803 805
3 723 805 806
3 807 808 806
3 807 806 805
3 809 808 807
3 809 807 778
3 809 812 810
3 809 810 808
3 726 806 808
3 726 808 810
3 726 810 811
3 726 811 728
3 811 810 812
3 811 812 813
3 814 815 813
3 814 813 812
3 814 812 809
3 814 809 774
3 773 817 815
3 773 815 814
3 822 813 815
3 822 815 816
3 818 816 815
3 818 815 817
3 818 817 819
3 818 819 821
3 771 819 817
3 771 817 773
3 819 820 750
3 819 750 821
3 771 767 820
3 771 820 819
3 818 821 744
3 818 744 742
3 757 820 767
3 757 767 760
3 740 816 818
3 740 818 742
3 822 816 740
3 822 740 738
3 811 813 822
3 811 822 823
3 822 738 736
3 822 736 823
3 811 823 730
3 811 730 728
3 732 730 823
3 732 823 736
3 280 824 780
3 280 780 284
3 280 277 825
3 280 825 824
3 825 827 776
3 825 776 824
3 825 277 275
3 825 275 826
3 825 826 828
3 825 828 827
3 828 768 770
3 828 770 827
3 828 826 830
3 828 830 829
3 828 829 765
3 828 765 768
3 830 832 831
3 830 831 829
3 831 763 765
3 831 765 829
3 831 832 834
3 831 834 833
3 831 833 835
3 831 835 763
3 834 837 836
3 834 836 833
3 833 836 839
3 833 839 835
3 842 838 836
3 842 836 837
3 839 836 838
3 839 838 249
3 840 762 835
3 840 835 839
3 840 839 249
3 840 249 247
3 245 841 840
3 245 840 247
3 840 841 759
3 840 759 762
3 756 759 841
3 756 841 752
3 842 258 250
3 842 250 838
3 842 837 260
3 842 260 258
3 834 843 260
3 834 260 837
3 834 832 844
3 834 844 843
3 843 844 267
3 843 267 261
3 830 273 844
3 830 844 832
3 830 826 275
3 830 275 273
3 845 184 136
3 845 136 138
3 847 182 184
3 847 184 845
3 845 138 141
3 845 141 846
3 155 847 845
3 155 845 846
3 159 180 182
3 159 182 847
3 112 110 124
3 112 124 117
3 49 31 33
3 49 33 40
