ply
format ascii 1.0
element vertex 675
property float x
property float y
property float z
element face 1260
property list uchar int vertex_index
end_header
-0.800521 2.802874 -0.698887
-0.790644 2.805996 -0.708204
-0.801372 2.796898 -0.699847
-0.797687 2.808104 -0.697395
-0.795283 2.796580 -0.687800
-0.795497 2.790423 -0.688728
-0.792799 2.801609 -0.686881
-0.788825 2.805290 -0.685789
-0.793105 2.811927 -0.695714
-0.784196 2.807561 -0.684535
-0.787478 2.814554 -0.693863
-0.779155 2.808886 -0.683004
-0.781351 2.816259 -0.691884
-0.773249 2.809711 -0.681082
-0.773935 2.817291 -0.689464
-0.765592 2.809943 -0.678362
-0.763770 2.817703 -0.686001
-0.756249 2.809276 -0.674708
-0.751274 2.817003 -0.681465
-0.746556 2.807639 -0.670590
-0.738761 2.815281 -0.676772
-0.737686 2.805269 -0.666770
-0.727868 2.812843 -0.672800
-0.730013 2.802420 -0.663521
-0.718372 2.809880 -0.669796
-0.723262 2.799259 -0.660462
-0.710434 2.806696 -0.667510
-0.718160 2.795880 -0.657604
-0.703695 2.803434 -0.665687
-0.713496 2.792695 -0.656916
-0.698095 2.799927 -0.664858
-0.709419 2.789967 -0.657062
-0.693083 2.796757 -0.664560
-0.706616 2.786982 -0.657916
-0.689092 2.793436 -0.664801
-0.704475 2.784084 -0.659153
-0.686422 2.789846 -0.665416
-0.703387 2.781507 -0.660704
-0.684664 2.786290 -0.666322
-0.702789 2.779034 -0.662519
-0.684361 2.782915 -0.667451
-0.703095 2.776710 -0.664457
-0.684775 2.779704 -0.668857
-0.704183 2.774685 -0.666322
-0.686230 2.776969 -0.670316
-0.705698 2.772887 -0.668470
-0.688268 2.774285 -0.672219
-0.707718 2.771509 -0.670546
-0.691196 2.772252 -0.674064
-0.710001 2.770136 -0.672760
-0.694136 2.770261 -0.676260
-0.712334 2.769069 -0.675255
-0.697706 2.768664 -0.678783
-0.715396 2.768387 -0.678418
-0.701808 2.767622 -0.681965
-0.718643 2.767699 -0.681680
-0.706515 2.766914 -0.685665
-0.722728 2.767693 -0.684905
-0.711901 2.766792 -0.689462
-0.726978 2.767642 -0.688337
-0.717173 2.766198 -0.693901
-0.731908 2.768050 -0.691395
-0.723702 2.766522 -0.697924
-0.737245 2.768592 -0.694022
-0.730863 2.767173 -0.701514
-0.742792 2.769299 -0.696105
-0.738449 2.768188 -0.704361
-0.748386 2.770006 -0.697602
-0.745960 2.769188 -0.706471
-0.753848 2.770790 -0.698470
-0.753496 2.770290 -0.707507
-0.759156 2.771410 -0.698981
-0.760691 2.771337 -0.708092
-0.764535 2.772304 -0.698867
-0.767538 2.772591 -0.708255
-0.768943 2.773139 -0.698587
-0.773031 2.773933 -0.708157
-0.772869 2.774165 -0.698013
-0.777892 2.775470 -0.707907
-0.776524 2.775166 -0.697513
-0.782328 2.777068 -0.707522
-0.779845 2.776239 -0.696650
-0.786478 2.779009 -0.706686
-0.783042 2.777388 -0.695188
-0.790347 2.781298 -0.705354
-0.786120 2.778539 -0.693407
-0.793982 2.783820 -0.703842
-0.788602 2.779742 -0.691849
-0.797282 2.786808 -0.702067
-0.792885 2.782832 -0.689006
-0.800024 2.790551 -0.700790
-0.792137 2.796976 -0.710152
-0.792257 2.801601 -0.709414
-0.783355 2.800759 -0.719738
-0.790740 2.793077 -0.711037
-0.782823 2.796855 -0.720369
-0.788315 2.789499 -0.712096
-0.781277 2.793192 -0.720762
-0.785420 2.786288 -0.712843
-0.781879 2.783577 -0.713500
-0.779062 2.789860 -0.721027
-0.776136 2.786893 -0.721097
-0.772009 2.791982 -0.729746
-0.769608 2.789007 -0.729484
-0.773676 2.795394 -0.729734
-0.764593 2.793093 -0.738734
-0.765792 2.796571 -0.738904
-0.762545 2.790100 -0.738241
-0.757093 2.793427 -0.748137
-0.755275 2.790301 -0.747484
-0.749911 2.792575 -0.758127
-0.757943 2.796768 -0.748453
-0.750700 2.796157 -0.758556
-0.758123 2.800471 -0.748428
-0.766182 2.800233 -0.738764
-0.750650 2.799781 -0.758731
-0.757263 2.804077 -0.748112
-0.749578 2.803383 -0.758589
-0.755601 2.807252 -0.747548
-0.765735 2.803931 -0.738351
-0.774366 2.802783 -0.728958
-0.764302 2.807345 -0.737577
-0.762035 2.810367 -0.736598
-0.773261 2.806502 -0.728054
-0.771264 2.809812 -0.726897
-0.782637 2.804681 -0.718741
-0.780836 2.808356 -0.717459
-0.778043 2.811460 -0.715974
-0.768346 2.812427 -0.725527
-0.774317 2.813844 -0.714328
-0.787983 2.810035 -0.706660
-0.783850 2.812912 -0.704919
-0.778780 2.814927 -0.703054
-0.769734 2.815494 -0.712537
-0.773234 2.816643 -0.701046
-0.764579 2.816864 -0.710596
-0.766239 2.817521 -0.698660
-0.756098 2.818007 -0.695334
-0.758121 2.817832 -0.708333
-0.748012 2.818484 -0.705139
-0.749549 2.818028 -0.718411
-0.739852 2.818765 -0.715469
-0.755546 2.817165 -0.720466
-0.740767 2.818105 -0.728915
-0.731727 2.818806 -0.726268
-0.732034 2.817656 -0.739837
-0.746405 2.817242 -0.730781
-0.737490 2.816890 -0.741524
-0.751214 2.816240 -0.732484
-0.760386 2.815915 -0.722304
-0.755434 2.814736 -0.734029
-0.742264 2.815782 -0.743064
-0.746442 2.814259 -0.744465
-0.733778 2.815207 -0.754154
-0.728941 2.816263 -0.752721
-0.738063 2.813765 -0.755458
-0.725589 2.814278 -0.765790
-0.720682 2.815240 -0.764400
-0.717310 2.812274 -0.777771
-0.729887 2.812690 -0.766987
-0.733724 2.810719 -0.768027
-0.721631 2.810607 -0.778873
-0.713423 2.807451 -0.790977
-0.725492 2.808686 -0.779774
-0.717330 2.805403 -0.791741
-0.729027 2.806063 -0.780435
-0.731687 2.803188 -0.780760
-0.737126 2.808314 -0.768724
-0.720717 2.802701 -0.792251
-0.723424 2.799632 -0.792484
-0.712676 2.798079 -0.804020
-0.715443 2.794966 -0.803978
-0.709358 2.800726 -0.803677
-0.705040 2.792570 -0.815661
-0.707592 2.789401 -0.815420
-0.697643 2.786607 -0.827135
-0.701592 2.794989 -0.815266
-0.697695 2.796896 -0.814496
-0.694342 2.789207 -0.826850
-0.690543 2.791219 -0.826198
-0.681609 2.779489 -0.833309
-0.684122 2.777119 -0.833367
-0.678610 2.781405 -0.832903
-0.675344 2.783029 -0.832282
-0.686489 2.792945 -0.825343
-0.671661 2.784112 -0.831317
-0.682052 2.794400 -0.824261
-0.667644 2.784856 -0.830128
-0.677121 2.795278 -0.822837
-0.663218 2.785298 -0.828759
-0.671645 2.795725 -0.821178
-0.658249 2.785292 -0.827194
-0.665430 2.795704 -0.819380
-0.652396 2.784480 -0.825341
-0.657813 2.794673 -0.817176
-0.645191 2.782727 -0.823232
-0.648376 2.792170 -0.814550
-0.637372 2.779598 -0.820995
-0.638226 2.788459 -0.812020
-0.629827 2.775608 -0.818976
-0.629152 2.783615 -0.809808
-0.623347 2.770962 -0.817199
-0.621552 2.778616 -0.807907
-0.618153 2.766110 -0.815431
-0.615631 2.773875 -0.805846
-0.614613 2.761297 -0.813480
-0.611705 2.769224 -0.803464
-0.612164 2.757266 -0.811349
-0.608951 2.765689 -0.801123
-0.610813 2.754270 -0.808984
-0.607433 2.762663 -0.798637
-0.610128 2.752164 -0.806531
-0.606789 2.760090 -0.796077
-0.610382 2.750105 -0.803502
-0.606958 2.757652 -0.793276
-0.611038 2.748478 -0.800514
-0.607675 2.755401 -0.790429
-0.612665 2.746966 -0.797446
-0.609182 2.753351 -0.787664
-0.614987 2.745678 -0.794472
-0.611767 2.751357 -0.784885
-0.617953 2.744534 -0.791932
-0.615262 2.749595 -0.782683
-0.621489 2.743464 -0.789874
-0.619337 2.748013 -0.781075
-0.625564 2.742486 -0.788618
-0.623933 2.746743 -0.780101
-0.629948 2.741797 -0.787972
-0.628722 2.745795 -0.779593
-0.634571 2.741315 -0.787722
-0.633950 2.745111 -0.779448
-0.639413 2.740999 -0.787874
-0.639554 2.744674 -0.779634
-0.644563 2.740912 -0.788542
-0.645588 2.744574 -0.780352
-0.650108 2.741097 -0.789835
-0.652324 2.744825 -0.781706
-0.656152 2.741662 -0.792032
-0.659857 2.745536 -0.784030
-0.662469 2.742636 -0.795079
-0.667806 2.746738 -0.787395
-0.668557 2.743872 -0.798772
-0.675701 2.748202 -0.791433
-0.674165 2.745346 -0.802999
-0.682916 2.750118 -0.796289
-0.678792 2.747078 -0.807537
-0.688922 2.752366 -0.801345
-0.682098 2.749093 -0.812122
-0.693351 2.754896 -0.806144
-0.684317 2.751644 -0.816328
-0.696563 2.757729 -0.810312
-0.686020 2.754396 -0.819865
-0.699054 2.760560 -0.813754
-0.687223 2.757107 -0.822985
-0.700884 2.763511 -0.816848
-0.688016 2.759937 -0.825929
-0.702296 2.766575 -0.819573
-0.688553 2.762693 -0.828171
-0.703206 2.769663 -0.821756
-0.688647 2.765578 -0.829920
-0.703530 2.772943 -0.823569
-0.688357 2.768475 -0.831273
-0.703044 2.776403 -0.824995
-0.687446 2.771412 -0.832279
-0.701794 2.779926 -0.826041
-0.686032 2.774297 -0.832984
-0.700050 2.783387 -0.826805
-0.709490 2.786040 -0.814855
-0.717485 2.791600 -0.803625
-0.710812 2.782527 -0.814000
-0.718901 2.788024 -0.802991
-0.711288 2.779095 -0.812814
-0.719312 2.784518 -0.802016
-0.710859 2.775811 -0.811271
-0.718679 2.781211 -0.800691
-0.709798 2.772774 -0.809445
-0.717604 2.778053 -0.799153
-0.708180 2.769931 -0.807299
-0.716034 2.775002 -0.797392
-0.706068 2.767204 -0.804758
-0.713671 2.772270 -0.795299
-0.703418 2.764577 -0.801871
-0.710752 2.769803 -0.792775
-0.699874 2.762149 -0.798525
-0.707083 2.767645 -0.789945
-0.695126 2.759653 -0.794463
-0.688797 2.757247 -0.789914
-0.702130 2.765304 -0.786507
-0.695644 2.762845 -0.782401
-0.709640 2.769495 -0.777910
-0.716970 2.772888 -0.768764
-0.714451 2.771810 -0.780861
-0.702921 2.766967 -0.774079
-0.710293 2.770332 -0.765312
-0.694533 2.764691 -0.769896
-0.687500 2.760889 -0.778046
-0.685461 2.762657 -0.766014
-0.701762 2.767816 -0.761288
-0.692363 2.765483 -0.757462
-0.708956 2.770537 -0.752453
-0.715969 2.772608 -0.743709
-0.717461 2.773050 -0.756292
-0.699471 2.768077 -0.748696
-0.706591 2.770223 -0.740091
-0.689573 2.765870 -0.745470
-0.682738 2.763541 -0.754364
-0.696643 2.768147 -0.736805
-0.680577 2.764193 -0.743363
-0.674085 2.762106 -0.752337
-0.673223 2.763138 -0.742255
-0.687372 2.766622 -0.734369
-0.679882 2.765713 -0.732973
-0.694493 2.768905 -0.726004
-0.703440 2.770143 -0.729072
-0.701167 2.770485 -0.718954
-0.686806 2.768218 -0.724023
-0.680526 2.767898 -0.722585
-0.693756 2.770193 -0.716089
-0.700389 2.770866 -0.709321
-0.687415 2.770161 -0.714069
-0.681812 2.770430 -0.712655
-0.694259 2.771099 -0.706637
-0.688544 2.771731 -0.704627
-0.700758 2.770757 -0.700052
-0.706645 2.770697 -0.703332
-0.695279 2.771512 -0.697107
-0.706611 2.769486 -0.694398
-0.712319 2.769218 -0.698160
-0.701281 2.769904 -0.690955
-0.696680 2.770967 -0.687891
-0.692664 2.772336 -0.685542
-0.690482 2.772701 -0.695024
-0.683759 2.772689 -0.703119
-0.686422 2.773993 -0.693574
-0.679630 2.773870 -0.702083
-0.682628 2.775281 -0.692395
-0.675887 2.775237 -0.701282
-0.679575 2.777212 -0.691581
-0.688688 2.773637 -0.683917
-0.685922 2.775654 -0.682573
-0.683086 2.777593 -0.681332
-0.681151 2.780217 -0.680345
-0.676746 2.779217 -0.690858
-0.674870 2.781955 -0.690419
-0.669536 2.779149 -0.700158
-0.667495 2.782079 -0.699909
-0.662188 2.777952 -0.709483
-0.672352 2.776789 -0.700583
-0.665103 2.775612 -0.709796
-0.668570 2.773624 -0.710254
-0.657766 2.773674 -0.719462
-0.661162 2.771432 -0.719744
-0.655247 2.776465 -0.719435
-0.650746 2.771550 -0.729800
-0.653969 2.769152 -0.729886
-0.648075 2.774369 -0.729831
-0.643452 2.769269 -0.740147
-0.640783 2.772264 -0.740204
-0.637425 2.767941 -0.750195
-0.646816 2.766792 -0.740191
-0.640807 2.765556 -0.750117
-0.650828 2.764733 -0.740309
-0.644786 2.763505 -0.750127
-0.658036 2.767265 -0.730204
-0.655570 2.763418 -0.740596
-0.649542 2.762339 -0.750233
-0.662727 2.766130 -0.730636
-0.660849 2.762805 -0.741042
-0.666687 2.762694 -0.741581
-0.667866 2.765524 -0.731190
-0.654710 2.761414 -0.750425
-0.649105 2.760081 -0.759226
-0.660511 2.761138 -0.750770
-0.654653 2.759624 -0.759486
-0.666972 2.761377 -0.751325
-0.660843 2.759583 -0.760038
-0.667868 2.759998 -0.761079
-0.655080 2.756857 -0.768186
-0.662019 2.757006 -0.769204
-0.649066 2.756982 -0.767635
-0.649904 2.751696 -0.775096
-0.656741 2.751869 -0.776230
-0.643901 2.751747 -0.774540
-0.638522 2.752215 -0.774324
-0.643713 2.757417 -0.767411
-0.633632 2.752994 -0.774357
-0.629068 2.754089 -0.774729
-0.638902 2.758290 -0.767448
-0.644073 2.760945 -0.759154
-0.634466 2.759561 -0.767705
-0.630358 2.760854 -0.768044
-0.639490 2.762116 -0.759194
-0.635497 2.763883 -0.759414
-0.632037 2.766084 -0.759785
-0.626901 2.762774 -0.768717
-0.629266 2.768754 -0.760406
-0.627079 2.771596 -0.761191
-0.634675 2.770777 -0.750393
-0.624099 2.765105 -0.769747
-0.621706 2.767647 -0.770922
-0.617908 2.759175 -0.777857
-0.621066 2.757133 -0.776384
-0.615300 2.761514 -0.779606
-0.613919 2.764110 -0.781831
-0.613314 2.766528 -0.784050
-0.620217 2.770352 -0.772340
-0.619634 2.773309 -0.774050
-0.625614 2.774640 -0.762198
-0.625053 2.777902 -0.763371
-0.631524 2.777373 -0.751468
-0.632821 2.774000 -0.750801
-0.631145 2.780923 -0.752393
-0.637946 2.779257 -0.740834
-0.638841 2.775620 -0.740397
-0.645309 2.781075 -0.730342
-0.637950 2.782887 -0.741497
-0.645188 2.784715 -0.730855
-0.638607 2.786495 -0.742316
-0.646010 2.788419 -0.731584
-0.631311 2.784450 -0.753379
-0.639981 2.790126 -0.743340
-0.647434 2.792209 -0.732496
-0.642031 2.793799 -0.744579
-0.632645 2.787878 -0.754567
-0.634627 2.791315 -0.755977
-0.626049 2.784339 -0.766125
-0.620346 2.778888 -0.777491
-0.627854 2.787501 -0.767738
-0.624990 2.781152 -0.764660
-0.619640 2.775982 -0.775692
-0.613268 2.769062 -0.786205
-0.613926 2.771731 -0.788333
-0.615386 2.774441 -0.790434
-0.621935 2.781827 -0.779376
-0.617816 2.777620 -0.792654
-0.621543 2.781091 -0.794796
-0.624154 2.784917 -0.781316
-0.627622 2.788336 -0.783357
-0.630513 2.790715 -0.769523
-0.637460 2.794679 -0.757606
-0.634191 2.793902 -0.771408
-0.639170 2.796972 -0.773299
-0.641183 2.797980 -0.759382
-0.646053 2.801172 -0.761296
-0.648593 2.800865 -0.747730
-0.644926 2.797366 -0.746046
-0.653374 2.804281 -0.749615
-0.655971 2.803495 -0.736421
-0.652413 2.799766 -0.734888
-0.660605 2.807030 -0.738127
-0.663422 2.805804 -0.725005
-0.659687 2.801941 -0.723793
-0.670860 2.807120 -0.713463
-0.668126 2.809295 -0.726368
-0.675619 2.810763 -0.714435
-0.673988 2.812501 -0.727808
-0.681151 2.815283 -0.729172
-0.666471 2.810394 -0.739828
-0.681674 2.813893 -0.715566
-0.689632 2.813736 -0.703558
-0.688875 2.816346 -0.716876
-0.696919 2.816054 -0.704844
-0.697240 2.817968 -0.718399
-0.689824 2.817149 -0.730566
-0.707501 2.818820 -0.720468
-0.705114 2.817634 -0.706563
-0.715109 2.818573 -0.708942
-0.712999 2.816488 -0.694959
-0.720492 2.814710 -0.683660
-0.704723 2.814795 -0.692963
-0.722914 2.817752 -0.697718
-0.730829 2.816509 -0.686992
-0.735435 2.818497 -0.701361
-0.727491 2.818984 -0.712082
-0.743436 2.817687 -0.691190
-0.719731 2.819060 -0.723249
-0.712324 2.818465 -0.734869
-0.723768 2.818308 -0.737533
-0.700323 2.818066 -0.732443
-0.705315 2.817358 -0.746861
-0.693578 2.816674 -0.744579
-0.716026 2.817390 -0.749255
-0.698415 2.816098 -0.759047
-0.691518 2.814086 -0.771365
-0.687057 2.814789 -0.756808
-0.708191 2.816602 -0.761247
-0.715250 2.816127 -0.762971
-0.700395 2.814394 -0.773397
-0.707128 2.814242 -0.775072
-0.692756 2.811373 -0.785635
-0.684629 2.811105 -0.783701
-0.685293 2.806939 -0.797729
-0.699113 2.811075 -0.787261
-0.704338 2.810395 -0.788696
-0.691156 2.806926 -0.799426
-0.683917 2.801048 -0.811137
-0.696365 2.806118 -0.800885
-0.688998 2.800152 -0.812526
-0.701115 2.804758 -0.802053
-0.705457 2.802981 -0.803013
-0.709041 2.809063 -0.789911
-0.693556 2.798712 -0.813628
-0.678273 2.801363 -0.809506
-0.671763 2.801216 -0.807716
-0.678132 2.806587 -0.795851
-0.663318 2.799975 -0.805458
-0.668807 2.805146 -0.793558
-0.653058 2.797427 -0.802958
-0.658016 2.802414 -0.791144
-0.642725 2.793591 -0.800570
-0.633728 2.789458 -0.798685
-0.647543 2.798982 -0.788983
-0.639079 2.795343 -0.787113
-0.653441 2.803336 -0.777047
-0.645472 2.800115 -0.775162
-0.663520 2.806598 -0.779119
-0.660005 2.807139 -0.765116
-0.669640 2.809871 -0.767003
-0.652310 2.804203 -0.763246
-0.667013 2.810254 -0.753255
-0.676209 2.812599 -0.754857
-0.673850 2.813343 -0.741340
-0.659432 2.807456 -0.751536
-0.682842 2.815249 -0.742733
-0.680738 2.812287 -0.769097
-0.674548 2.809425 -0.781409
-0.632669 2.791681 -0.785288
-0.626851 2.785104 -0.796865
-0.712548 2.813477 -0.776492
-0.723420 2.817020 -0.751155
-0.697466 2.812291 -0.691733
-0.711953 2.812692 -0.681313
-0.704402 2.809883 -0.679939
-0.698114 2.806834 -0.679082
-0.692919 2.803613 -0.678552
-0.691403 2.809195 -0.691007
-0.683443 2.810751 -0.702615
-0.686541 2.805824 -0.690552
-0.682574 2.802532 -0.690216
-0.678681 2.807154 -0.701978
-0.675000 2.803402 -0.701464
-0.672041 2.799721 -0.700990
-0.667126 2.803173 -0.712620
-0.664245 2.799347 -0.711868
-0.656733 2.798055 -0.722737
-0.661975 2.795585 -0.711166
-0.654597 2.794174 -0.721810
-0.660399 2.791892 -0.710561
-0.669722 2.796139 -0.700583
-0.668002 2.792597 -0.700252
-0.676744 2.795604 -0.689827
-0.674940 2.792041 -0.689801
-0.679356 2.799078 -0.689960
-0.682195 2.793652 -0.678457
-0.685130 2.797084 -0.678308
-0.680487 2.790082 -0.678686
-0.679712 2.786607 -0.679056
-0.673840 2.788524 -0.689868
-0.679777 2.783220 -0.679608
-0.673715 2.784993 -0.690107
-0.666513 2.785445 -0.699840
-0.659263 2.784693 -0.709674
-0.666875 2.788980 -0.699978
-0.659520 2.788203 -0.710071
-0.652332 2.786684 -0.720381
-0.652288 2.783037 -0.719876
-0.653108 2.790372 -0.721025
-0.653354 2.779579 -0.719571
-0.646187 2.777552 -0.729981
-0.660324 2.781154 -0.709490
-0.688674 2.800398 -0.678289
-0.649495 2.796006 -0.733587
-0.624809 2.755452 -0.775409
-0.664596 2.752517 -0.778301
-0.670143 2.757605 -0.771084
-0.672871 2.753725 -0.781411
-0.678793 2.759096 -0.774141
-0.681113 2.755299 -0.785378
-0.676270 2.760989 -0.762957
-0.674951 2.768180 -0.721494
-0.673516 2.765284 -0.731959
-0.669817 2.768879 -0.720693
-0.676816 2.771192 -0.711627
-0.665245 2.769775 -0.720175
-0.672473 2.772283 -0.710859
-0.718970 2.769206 -0.702142
-0.726559 2.770056 -0.705752
-0.713449 2.770609 -0.707101
-0.707445 2.770874 -0.712777
-0.721486 2.771830 -0.710685
-0.715691 2.772097 -0.716340
-0.729761 2.773128 -0.713889
-0.737962 2.774353 -0.716341
-0.724378 2.773545 -0.719722
-0.734394 2.771029 -0.708801
-0.742332 2.772335 -0.711011
-0.750225 2.773525 -0.712331
-0.746151 2.775984 -0.717837
-0.757740 2.774877 -0.712936
-0.764216 2.776128 -0.713465
-0.753849 2.777640 -0.718748
-0.760048 2.778980 -0.719574
-0.748956 2.778927 -0.725544
-0.741261 2.777118 -0.724220
-0.743481 2.779277 -0.732998
-0.754982 2.780551 -0.726691
-0.759598 2.782587 -0.727579
-0.749094 2.781391 -0.734489
-0.753383 2.783340 -0.735679
-0.742674 2.781091 -0.742940
-0.746637 2.783221 -0.744356
-0.737555 2.778784 -0.741142
-0.735870 2.779686 -0.752167
-0.731004 2.777455 -0.750110
-0.739765 2.781683 -0.753759
-0.728880 2.777725 -0.761742
-0.724058 2.775501 -0.759468
-0.721699 2.775173 -0.771423
-0.732737 2.779872 -0.763527
-0.725574 2.777502 -0.773609
-0.736086 2.782235 -0.765102
-0.743170 2.783917 -0.755145
-0.738830 2.784884 -0.766442
-0.728750 2.779930 -0.775294
-0.721309 2.776495 -0.785466
-0.731449 2.782634 -0.776780
-0.723895 2.779199 -0.787169
-0.733526 2.785547 -0.778117
-0.725653 2.782300 -0.788689
-0.741041 2.787849 -0.767608
-0.734987 2.788779 -0.779263
-0.742613 2.791023 -0.768542
-0.735393 2.792382 -0.780105
-0.726857 2.785546 -0.789987
-0.727406 2.789011 -0.791071
-0.727073 2.792660 -0.791910
-0.735223 2.796078 -0.780712
-0.725590 2.796205 -0.792338
-0.733769 2.799680 -0.780903
-0.741724 2.801929 -0.769563
-0.739793 2.805319 -0.769224
-0.743012 2.798336 -0.769532
-0.743233 2.794613 -0.769167
-0.747717 2.806630 -0.758156
-0.745003 2.809606 -0.757478
-0.753222 2.810163 -0.746738
-0.741804 2.811873 -0.756579
-0.750136 2.812489 -0.745697
-0.759074 2.812851 -0.735399
-0.748233 2.789411 -0.757311
-0.745980 2.786517 -0.756330
-0.752927 2.787542 -0.746648
-0.760021 2.787405 -0.737589
-0.750004 2.785188 -0.745603
-0.756910 2.785238 -0.736698
-0.763376 2.784417 -0.728339
-0.769174 2.782560 -0.720598
-0.766704 2.786477 -0.728999
-0.772874 2.784585 -0.720918
-0.778121 2.781411 -0.713773
-0.774036 2.779432 -0.713861
-0.769524 2.777733 -0.713745
-0.765054 2.780727 -0.720182
-0.718239 2.774028 -0.783380
-0.724323 2.775045 -0.747254
-0.730715 2.776421 -0.738676
-0.722223 2.774080 -0.735810
-0.736231 2.777090 -0.731114
-0.727726 2.774967 -0.728897
-0.732975 2.775169 -0.722417
-0.718784 2.773079 -0.725957
-0.712966 2.771913 -0.732608
-0.709627 2.771526 -0.722471
-0.764759 2.814554 -0.724008
-0.774456 2.799031 -0.729483
3 0 3 130
3 0 130 1
3 92 2 0
3 92 0 1
3 0 2 5
3 0 5 4
3 0 4 6
3 0 6 3
3 6 7 8
3 6 8 3
3 10 8 7
3 10 7 9
3 10 9 11
3 10 11 12
3 11 13 14
3 11 14 12
3 15 16 14
3 15 14 13
3 15 17 18
3 15 18 16
3 19 20 18
3 19 18 17
3 19 21 22
3 19 22 20
3 22 21 23
3 22 23 24
3 25 26 24
3 25 24 23
3 25 27 28
3 25 28 26
3 28 27 29
3 28 29 30
3 30 29 31
3 30 31 32
3 31 33 34
3 31 34 32
3 36 34 33
3 36 33 35
3 36 35 37
3 36 37 38
3 37 39 40
3 37 40 38
3 39 41 42
3 39 42 40
3 41 43 44
3 41 44 42
3 43 45 46
3 43 46 44
3 45 47 48
3 45 48 46
3 47 49 50
3 47 50 48
3 49 51 52
3 49 52 50
3 51 53 54
3 51 54 52
3 53 55 56
3 53 56 54
3 55 57 58
3 55 58 56
3 57 59 60
3 57 60 58
3 59 61 62
3 59 62 60
3 61 63 64
3 61 64 62
3 63 65 66
3 63 66 64
3 65 67 68
3 65 68 66
3 68 67 69
3 68 69 70
3 70 69 71
3 70 71 72
3 72 71 73
3 72 73 74
3 74 73 75
3 74 75 76
3 76 75 77
3 76 77 78
3 78 77 79
3 78 79 80
3 80 79 81
3 80 81 82
3 82 81 83
3 82 83 84
3 85 86 84
3 85 84 83
3 85 87 88
3 85 88 86
3 89 90 88
3 89 88 87
3 89 5 2
3 89 2 90
3 91 90 2
3 91 2 92
3 94 88 90
3 94 90 91
3 91 92 125
3 91 125 93
3 94 91 93
3 94 93 95
3 86 88 94
3 86 94 96
3 94 95 97
3 94 97 96
3 100 98 96
3 100 96 97
3 86 96 98
3 86 98 84
3 82 84 98
3 82 98 99
3 99 98 100
3 99 100 101
3 100 102 103
3 100 103 101
3 100 97 104
3 100 104 102
3 107 103 102
3 107 102 105
3 104 106 105
3 104 105 102
3 108 105 106
3 108 106 111
3 107 105 108
3 107 108 109
3 108 110 649
3 108 649 109
3 108 111 112
3 108 112 110
3 111 113 115
3 111 115 112
3 111 106 114
3 111 114 113
3 113 114 119
3 113 119 116
3 113 116 117
3 113 117 115
3 116 118 643
3 116 643 117
3 116 119 121
3 116 121 118
3 674 120 119
3 674 119 114
3 120 123 121
3 120 121 119
3 118 121 122
3 118 122 645
3 123 124 122
3 123 122 121
3 123 125 126
3 123 126 124
3 120 93 125
3 120 125 123
3 92 1 126
3 92 126 125
3 124 126 127
3 124 127 128
3 127 126 1
3 127 1 130
3 127 129 673
3 127 673 128
3 127 130 131
3 127 131 129
3 131 130 3
3 131 3 8
3 131 132 133
3 131 133 129
3 131 8 10
3 131 10 132
3 135 133 132
3 135 132 134
3 10 12 134
3 10 134 132
3 135 134 136
3 135 136 138
3 136 134 12
3 136 12 14
3 16 137 136
3 16 136 14
3 138 136 137
3 138 137 139
3 138 139 141
3 138 141 140
3 135 138 140
3 135 140 142
3 141 144 143
3 141 143 140
3 143 146 142
3 143 142 140
3 145 143 144
3 145 144 477
3 147 146 143
3 147 143 145
3 147 151 148
3 147 148 146
3 149 142 146
3 149 146 148
3 150 673 149
3 150 149 148
3 150 148 151
3 150 151 152
3 153 151 147
3 153 147 154
3 153 155 152
3 153 152 151
3 153 154 157
3 153 157 156
3 159 155 153
3 159 153 156
3 528 158 156
3 528 156 157
3 159 156 158
3 159 158 161
3 160 159 161
3 160 161 163
3 160 646 155
3 160 155 159
3 162 161 158
3 162 158 500
3 164 163 161
3 164 161 162
3 168 165 163
3 168 163 164
3 167 160 163
3 167 163 165
3 169 166 165
3 169 165 168
3 640 167 165
3 640 165 166
3 168 164 172
3 168 172 170
3 169 168 170
3 169 170 171
3 174 171 170
3 174 170 173
3 173 170 172
3 173 172 176
3 174 173 175
3 174 175 266
3 173 176 178
3 173 178 175
3 176 177 179
3 176 179 178
3 176 172 499
3 176 499 177
3 180 178 179
3 180 179 182
3 181 175 178
3 181 178 180
3 182 179 184
3 182 184 183
3 183 184 186
3 183 186 185
3 185 186 188
3 185 188 187
3 190 189 187
3 190 187 188
3 190 192 191
3 190 191 189
3 192 194 193
3 192 193 191
3 194 196 195
3 194 195 193
3 196 198 197
3 196 197 195
3 198 200 199
3 198 199 197
3 200 202 201
3 200 201 199
3 202 204 203
3 202 203 201
3 204 206 205
3 204 205 203
3 206 208 207
3 206 207 205
3 208 210 209
3 208 209 207
3 210 212 211
3 210 211 209
3 212 214 213
3 212 213 211
3 214 216 215
3 214 215 213
3 216 218 217
3 216 217 215
3 219 217 218
3 219 218 220
3 221 219 220
3 221 220 222
3 221 222 224
3 221 224 223
3 224 226 225
3 224 225 223
3 227 225 226
3 227 226 228
3 230 229 227
3 230 227 228
3 230 232 231
3 230 231 229
3 232 234 233
3 232 233 231
3 234 236 235
3 234 235 233
3 236 238 237
3 236 237 235
3 238 240 239
3 238 239 237
3 240 242 241
3 240 241 239
3 242 244 243
3 242 243 241
3 243 244 246
3 243 246 245
3 248 247 245
3 248 245 246
3 248 250 249
3 248 249 247
3 249 250 252
3 249 252 251
3 251 252 254
3 251 254 253
3 253 254 256
3 253 256 255
3 255 256 258
3 255 258 257
3 257 258 260
3 257 260 259
3 259 260 262
3 259 262 261
3 261 262 264
3 261 264 263
3 263 264 266
3 263 266 265
3 265 266 175
3 265 175 181
3 267 174 266
3 267 266 264
3 269 267 264
3 269 264 262
3 267 268 171
3 267 171 174
3 269 270 268
3 269 268 267
3 271 269 262
3 271 262 260
3 271 272 270
3 271 270 269
3 273 271 260
3 273 260 258
3 273 274 272
3 273 272 271
3 275 276 274
3 275 274 273
3 275 273 258
3 275 258 256
3 277 275 256
3 277 256 254
3 277 278 276
3 277 276 275
3 279 277 254
3 279 254 252
3 279 280 278
3 279 278 277
3 279 252 250
3 279 250 281
3 282 280 279
3 282 279 281
3 282 281 283
3 282 283 284
3 248 283 281
3 248 281 250
3 285 287 284
3 285 284 283
3 285 283 248
3 285 248 246
3 285 246 244
3 285 244 286
3 288 287 285
3 288 285 286
3 288 292 289
3 288 289 287
3 291 284 287
3 291 287 289
3 293 290 289
3 293 289 292
3 290 617 291
3 290 291 289
3 295 294 292
3 295 292 288
3 297 293 292
3 297 292 294
3 576 296 294
3 576 294 295
3 298 297 294
3 298 294 296
3 298 302 299
3 298 299 297
3 297 299 301
3 297 301 293
3 303 300 299
3 303 299 302
3 300 664 301
3 300 301 299
3 305 304 302
3 305 302 298
3 306 303 302
3 306 302 304
3 308 307 304
3 308 304 305
3 310 306 304
3 310 304 307
3 374 309 307
3 374 307 308
3 310 307 309
3 310 309 311
3 315 312 310
3 315 310 311
3 310 312 313
3 310 313 306
3 672 313 312
3 672 312 314
3 315 317 314
3 315 314 312
3 316 315 311
3 316 311 580
3 316 319 317
3 316 317 315
3 318 588 314
3 318 314 317
3 321 318 317
3 321 317 319
3 322 321 319
3 322 319 320
3 579 320 319
3 579 319 316
3 321 323 324
3 321 324 318
3 322 325 323
3 322 323 321
3 326 327 324
3 326 324 323
3 328 326 323
3 328 323 325
3 326 58 60
3 326 60 327
3 328 56 58
3 328 58 326
3 329 328 325
3 329 325 331
3 329 54 56
3 329 56 328
3 330 52 54
3 330 54 329
3 330 329 331
3 330 331 333
3 332 331 325
3 332 325 322
3 334 333 331
3 334 331 332
3 338 330 333
3 338 333 335
3 336 335 333
3 336 333 334
3 347 337 335
3 347 335 336
3 339 338 335
3 339 335 337
3 338 50 52
3 338 52 330
3 339 48 50
3 339 50 338
3 340 339 337
3 340 337 342
3 340 46 48
3 340 48 339
3 341 44 46
3 341 46 340
3 341 340 342
3 341 342 343
3 344 342 337
3 344 337 347
3 345 343 342
3 345 342 344
3 345 344 346
3 345 346 569
3 344 347 348
3 344 348 346
3 347 336 349
3 347 349 348
3 350 348 349
3 350 349 351
3 352 346 348
3 352 348 350
3 350 351 354
3 350 354 353
3 352 350 353
3 352 353 355
3 356 353 354
3 356 354 359
3 357 355 353
3 357 353 356
3 357 356 358
3 357 358 397
3 356 359 360
3 356 360 358
3 359 361 362
3 359 362 360
3 359 354 363
3 359 363 361
3 361 364 365
3 361 365 362
3 361 363 366
3 361 366 364
3 364 367 370
3 364 370 365
3 364 366 369
3 364 369 367
3 367 368 372
3 367 372 370
3 367 369 580
3 367 580 368
3 388 365 370
3 388 370 371
3 371 370 372
3 371 372 373
3 374 375 373
3 374 373 372
3 368 309 374
3 368 374 372
3 374 308 376
3 374 376 375
3 377 375 376
3 377 376 378
3 379 373 375
3 379 375 377
3 377 378 381
3 377 381 380
3 379 377 380
3 379 380 382
3 234 380 381
3 234 381 236
3 232 382 380
3 232 380 234
3 379 382 383
3 379 383 384
3 230 383 382
3 230 382 232
3 385 387 384
3 385 384 383
3 385 383 230
3 385 230 228
3 386 385 228
3 386 228 226
3 386 389 387
3 386 387 385
3 391 388 387
3 391 387 389
3 388 371 384
3 388 384 387
3 386 572 390
3 386 390 389
3 392 391 389
3 392 389 390
3 392 360 362
3 392 362 391
3 391 362 365
3 391 365 388
3 393 392 390
3 393 390 394
3 393 358 360
3 393 360 392
3 398 395 393
3 398 393 394
3 393 395 397
3 393 397 358
3 410 397 395
3 410 395 396
3 398 399 396
3 398 396 395
3 398 394 401
3 398 401 400
3 402 399 398
3 402 398 400
3 222 220 400
3 222 400 401
3 402 400 220
3 402 220 218
3 402 403 405
3 402 405 399
3 216 403 402
3 216 402 218
3 214 404 403
3 214 403 216
3 406 405 403
3 406 403 404
3 407 396 399
3 407 399 405
3 406 408 407
3 406 407 405
3 407 409 410
3 407 410 396
3 407 408 411
3 407 411 409
3 410 409 412
3 410 412 413
3 415 412 409
3 415 409 411
3 414 568 413
3 414 413 412
3 415 416 414
3 415 414 412
3 415 417 418
3 415 418 416
3 419 417 415
3 419 415 411
3 421 418 417
3 421 417 420
3 423 420 417
3 423 417 419
3 571 421 420
3 571 420 422
3 424 422 420
3 424 420 423
3 424 423 425
3 424 425 427
3 423 419 428
3 423 428 425
3 426 425 428
3 426 428 429
3 433 427 425
3 433 425 426
3 429 428 408
3 429 408 406
3 419 411 408
3 419 408 428
3 429 406 404
3 429 404 430
3 426 429 430
3 426 430 431
3 212 430 404
3 212 404 214
3 210 431 430
3 210 430 212
3 433 426 431
3 433 431 432
3 208 432 431
3 208 431 210
3 436 433 432
3 436 432 434
3 206 434 432
3 206 432 208
3 437 436 434
3 437 434 435
3 204 435 434
3 204 434 206
3 436 438 427
3 436 427 433
3 437 440 438
3 437 438 436
3 439 424 427
3 439 427 438
3 442 439 438
3 442 438 440
3 443 442 440
3 443 440 441
3 526 441 440
3 526 440 437
3 442 444 445
3 442 445 439
3 443 446 444
3 443 444 442
3 447 448 445
3 447 445 444
3 449 447 444
3 449 444 446
3 447 450 451
3 447 451 448
3 449 453 450
3 449 450 447
3 452 542 451
3 452 451 450
3 454 452 450
3 454 450 453
3 458 454 453
3 458 453 455
3 457 455 453
3 457 453 449
3 521 456 455
3 521 455 457
3 460 458 455
3 460 455 456
3 458 459 536
3 458 536 454
3 460 461 459
3 460 459 458
3 465 461 460
3 465 460 462
3 460 456 463
3 460 463 462
3 478 464 462
3 478 462 463
3 465 462 464
3 465 464 466
3 470 467 465
3 470 465 466
3 465 467 469
3 465 469 461
3 470 471 468
3 470 468 467
3 531 469 467
3 531 467 468
3 470 466 473
3 470 473 472
3 474 471 470
3 474 470 472
3 474 472 139
3 474 139 137
3 141 139 472
3 141 472 473
3 16 18 474
3 16 474 137
3 474 18 20
3 474 20 471
3 141 473 475
3 141 475 144
3 475 473 466
3 475 466 464
3 475 476 477
3 475 477 144
3 475 464 478
3 475 478 476
3 481 477 476
3 481 476 479
3 478 480 479
3 478 479 476
3 482 479 480
3 482 480 484
3 481 479 482
3 481 482 485
3 482 483 487
3 482 487 485
3 482 484 524
3 482 524 483
3 481 485 486
3 481 486 529
3 488 486 485
3 488 485 487
3 488 487 489
3 488 489 492
3 489 487 483
3 489 483 490
3 489 490 504
3 489 504 491
3 489 491 494
3 489 494 492
3 528 488 492
3 528 492 493
3 494 496 493
3 494 493 492
3 495 494 491
3 495 491 502
3 497 496 494
3 497 494 495
3 501 498 496
3 501 496 497
3 500 493 496
3 500 496 498
3 177 499 498
3 177 498 501
3 162 500 498
3 162 498 499
3 501 497 186
3 501 186 184
3 177 501 184
3 177 184 179
3 500 158 528
3 500 528 493
3 164 162 499
3 164 499 172
3 497 495 188
3 497 188 186
3 495 502 190
3 495 190 188
3 190 502 503
3 190 503 192
3 504 503 502
3 504 502 491
3 504 506 505
3 504 505 503
3 192 503 505
3 192 505 194
3 506 508 507
3 506 507 505
3 194 505 507
3 194 507 196
3 508 511 509
3 508 509 507
3 196 507 509
3 196 509 198
3 198 509 510
3 198 510 200
3 511 512 510
3 511 510 509
3 508 515 513
3 508 513 511
3 511 513 514
3 511 514 512
3 516 518 514
3 516 514 513
3 517 516 513
3 517 513 515
3 517 520 519
3 517 519 516
3 516 519 522
3 516 522 518
3 523 521 519
3 523 519 520
3 521 457 522
3 521 522 519
3 457 449 446
3 457 446 522
3 518 522 446
3 518 446 443
3 523 463 456
3 523 456 521
3 523 520 484
3 523 484 480
3 478 463 523
3 478 523 480
3 524 484 520
3 524 520 517
3 518 443 441
3 518 441 514
3 524 517 515
3 524 515 525
3 524 525 490
3 524 490 483
3 504 490 525
3 504 525 506
3 506 525 515
3 506 515 508
3 512 514 441
3 512 441 526
3 512 526 527
3 512 527 510
3 526 437 435
3 526 435 527
3 200 510 527
3 200 527 202
3 202 527 435
3 202 435 204
3 528 157 486
3 528 486 488
3 486 157 154
3 486 154 529
3 145 477 481
3 145 481 529
3 147 145 529
3 147 529 154
3 22 468 471
3 22 471 20
3 530 459 461
3 530 461 469
3 531 532 530
3 531 530 469
3 531 24 26
3 531 26 532
3 22 24 531
3 22 531 468
3 28 533 532
3 28 532 26
3 530 532 533
3 530 533 535
3 28 30 534
3 28 534 533
3 535 533 534
3 535 534 537
3 530 535 536
3 530 536 459
3 535 537 539
3 535 539 536
3 537 534 570
3 537 570 538
3 537 538 540
3 537 540 539
3 452 539 540
3 452 540 542
3 454 536 539
3 454 539 452
3 538 552 541
3 538 541 540
3 542 540 541
3 542 541 543
3 542 543 544
3 542 544 451
3 543 545 546
3 543 546 544
3 543 541 548
3 543 548 545
3 566 546 545
3 566 545 547
3 548 549 547
3 548 547 545
3 548 550 551
3 548 551 549
3 548 541 552
3 548 552 550
3 551 550 553
3 551 553 555
3 554 553 550
3 554 550 552
3 554 34 36
3 554 36 553
3 36 38 555
3 36 555 553
3 551 555 556
3 551 556 557
3 556 555 38
3 556 38 40
3 556 40 42
3 556 42 558
3 556 558 559
3 556 559 557
3 558 42 44
3 558 44 341
3 558 341 343
3 558 343 559
3 560 559 343
3 560 343 345
3 560 562 557
3 560 557 559
3 560 345 569
3 560 569 561
3 563 562 560
3 563 560 561
3 563 547 549
3 563 549 562
3 551 557 562
3 551 562 549
3 563 561 565
3 563 565 564
3 566 547 563
3 566 563 564
3 566 564 416
3 566 416 418
3 414 416 564
3 414 564 565
3 421 546 566
3 421 566 418
3 414 565 567
3 414 567 568
3 567 565 561
3 567 561 569
3 567 569 346
3 567 346 352
3 567 352 355
3 567 355 568
3 357 413 568
3 357 568 355
3 554 570 32
3 554 32 34
3 538 570 554
3 538 554 552
3 30 32 570
3 30 570 534
3 571 544 546
3 571 546 421
3 448 451 544
3 448 544 571
3 448 571 422
3 448 422 445
3 439 445 422
3 439 422 424
3 410 413 357
3 410 357 397
3 224 222 401
3 224 401 572
3 572 401 394
3 572 394 390
3 224 572 386
3 224 386 226
3 371 373 379
3 371 379 384
3 378 574 573
3 378 573 381
3 236 381 573
3 236 573 238
3 238 573 575
3 238 575 240
3 574 576 575
3 574 575 573
3 576 295 577
3 576 577 575
3 240 575 577
3 240 577 242
3 242 577 286
3 242 286 244
3 295 288 286
3 295 286 577
3 574 578 296
3 574 296 576
3 378 376 578
3 378 578 574
3 305 298 296
3 305 296 578
3 308 305 578
3 308 578 376
3 579 316 580
3 579 580 369
3 581 579 369
3 581 369 366
3 368 580 311
3 368 311 309
3 581 582 320
3 581 320 579
3 583 584 582
3 583 582 581
3 583 581 366
3 583 366 363
3 351 583 363
3 351 363 354
3 351 349 584
3 351 584 583
3 336 334 584
3 336 584 349
3 334 332 582
3 334 582 584
3 332 322 320
3 332 320 582
3 327 585 587
3 327 587 324
3 327 60 62
3 327 62 585
3 585 62 64
3 585 64 586
3 585 586 589
3 585 589 587
3 588 587 589
3 588 589 590
3 318 324 587
3 318 587 588
3 591 593 590
3 591 590 589
3 586 594 591
3 586 591 589
3 591 594 595
3 591 595 592
3 591 592 669
3 591 669 593
3 68 595 594
3 68 594 66
3 586 64 66
3 586 66 594
3 68 70 596
3 68 596 595
3 592 595 596
3 592 596 597
3 70 72 598
3 70 598 596
3 597 596 598
3 597 598 600
3 600 598 599
3 600 599 601
3 72 74 599
3 72 599 598
3 600 601 605
3 600 605 602
3 597 600 602
3 597 602 603
3 667 603 602
3 667 602 604
3 604 602 605
3 604 605 607
3 607 605 606
3 607 606 608
3 601 662 606
3 601 606 605
3 607 608 610
3 607 610 609
3 604 607 609
3 604 609 611
3 612 609 610
3 612 610 614
3 613 611 609
3 613 609 612
3 613 612 615
3 613 615 616
3 612 614 618
3 612 618 615
3 290 616 615
3 290 615 617
3 618 619 617
3 618 617 615
3 618 620 623
3 618 623 619
3 618 614 621
3 618 621 620
3 650 622 620
3 650 620 621
3 623 620 622
3 623 622 625
3 623 625 626
3 623 626 624
3 623 624 663
3 623 663 619
3 626 625 627
3 626 627 628
3 629 627 625
3 629 625 622
3 628 627 630
3 628 630 633
3 629 631 630
3 629 630 627
3 631 642 632
3 631 632 630
3 633 630 632
3 633 632 634
3 633 634 272
3 633 272 274
3 628 633 274
3 628 274 276
3 634 632 636
3 634 636 635
3 634 635 270
3 634 270 272
3 635 636 638
3 635 638 637
3 635 637 268
3 635 268 270
3 637 638 166
3 637 166 169
3 637 169 171
3 637 171 268
3 639 640 166
3 639 166 638
3 641 639 638
3 641 638 636
3 639 117 643
3 639 643 640
3 641 115 117
3 641 117 639
3 642 112 115
3 642 115 641
3 642 641 636
3 642 636 632
3 631 110 112
3 631 112 642
3 640 643 644
3 640 644 167
3 118 645 644
3 118 644 643
3 645 647 646
3 645 646 644
3 167 644 646
3 167 646 160
3 647 152 155
3 647 155 646
3 647 648 150
3 647 150 152
3 645 122 648
3 645 648 647
3 124 128 648
3 124 648 122
3 150 648 128
3 150 128 673
3 629 649 110
3 629 110 631
3 650 649 629
3 650 629 622
3 650 651 109
3 650 109 649
3 653 651 650
3 653 650 621
3 653 654 652
3 653 652 651
3 107 109 651
3 107 651 652
3 653 621 614
3 653 614 610
3 608 654 653
3 608 653 610
3 608 606 655
3 608 655 654
3 657 652 654
3 657 654 655
3 662 656 655
3 662 655 606
3 656 658 657
3 656 657 655
3 657 658 101
3 657 101 103
3 657 103 107
3 657 107 652
3 99 101 658
3 99 658 659
3 656 660 659
3 656 659 658
3 78 80 659
3 78 659 660
3 80 82 99
3 80 99 659
3 76 78 660
3 76 660 661
3 662 661 660
3 662 660 656
3 601 599 661
3 601 661 662
3 74 76 661
3 74 661 599
3 626 628 276
3 626 276 278
3 626 278 280
3 626 280 624
3 282 663 624
3 282 624 280
3 291 663 282
3 291 282 284
3 291 617 619
3 291 619 663
3 664 613 616
3 664 616 301
3 293 301 616
3 293 616 290
3 664 665 611
3 664 611 613
3 300 666 665
3 300 665 664
3 668 667 665
3 668 665 666
3 667 604 611
3 667 611 665
3 668 669 603
3 668 603 667
3 670 668 666
3 670 666 671
3 670 593 669
3 670 669 668
3 672 670 671
3 672 671 313
3 672 590 593
3 672 593 670
3 588 590 672
3 588 672 314
3 306 313 671
3 306 671 303
3 303 671 666
3 303 666 300
3 592 597 603
3 592 603 669
3 149 673 129
3 149 129 133
3 149 133 135
3 149 135 142
3 674 95 93
3 674 93 120
3 104 97 95
3 104 95 674
3 104 674 114
3 104 114 106
