ply
format ascii 1.0
element vertex 848
property float x
property float y
property float z
element face 1692
property list uchar int vertex_index
end_header
-0.813300 3.448640 0.302106
-0.819277 3.412455 0.236617
-0.765520 3.508780 0.282365
-0.841381 3.426703 0.361720
-0.805761 3.490891 0.353213
-0.854161 3.367745 0.270033
-0.792728 3.518678 0.477891
-0.871517 3.376676 0.393592
-0.884733 3.333378 0.283377
-0.796799 3.497223 0.507836
-0.888817 3.357457 0.413840
-0.910750 3.309204 0.291561
-0.796235 3.483419 0.532240
-0.901135 3.345386 0.430582
-0.909895 3.335619 0.444627
-0.932113 3.290647 0.302298
-0.794158 3.472278 0.554510
-0.792020 3.463543 0.573016
-0.687853 3.620502 0.639139
-0.597051 3.740740 0.687620
-0.695304 3.629310 0.612623
-0.682869 3.616024 0.659822
-0.599092 3.735170 0.708245
-0.684832 3.609958 0.674218
-0.605042 3.731133 0.722987
-0.695033 3.599531 0.683879
-0.792265 3.451967 0.588812
-0.796784 3.436763 0.602627
-0.916116 3.325875 0.456836
-0.958127 3.263422 0.321797
-0.920015 3.316297 0.467225
-0.923071 3.308270 0.476069
-0.966359 3.253281 0.327993
-0.973377 3.245016 0.333649
-0.976117 3.222420 0.227307
-0.950914 3.205701 0.150874
-0.965622 3.232271 0.221376
-0.986194 3.214823 0.233118
-0.967212 3.195612 0.162074
-0.999006 3.210023 0.236603
-0.981982 3.237620 0.336931
-0.982900 3.188707 0.168919
-1.015162 3.210708 0.236459
-1.031962 3.215480 0.233577
-1.002448 3.186190 0.170813
-0.995652 3.234353 0.337976
-1.015002 3.237853 0.332082
-0.947024 3.300531 0.483020
-0.874972 3.421648 0.597291
-0.929290 3.301797 0.484316
-0.968463 3.304384 0.469320
-0.896809 3.420545 0.582842
-0.985646 3.310209 0.452205
-1.033182 3.246476 0.323971
-1.000250 3.317901 0.435209
-0.914358 3.422083 0.568556
-0.928785 3.423835 0.554030
-0.791404 3.561491 0.672724
-0.706852 3.698617 0.723182
-0.772189 3.565264 0.682423
-0.809164 3.558906 0.660776
-0.728408 3.690296 0.711797
-0.827331 3.558033 0.645355
-0.847723 3.560766 0.624858
-0.751485 3.687618 0.698694
-0.943526 3.426409 0.536697
-0.957589 3.432991 0.516950
-1.014363 3.327565 0.418329
-1.067898 3.271419 0.302073
-1.029432 3.339273 0.399324
-1.087313 3.288049 0.286361
-1.045504 3.354737 0.378232
-1.107008 3.309709 0.268586
-1.063345 3.374348 0.354900
-0.971536 3.442990 0.494697
-0.869878 3.568186 0.600744
-0.986345 3.457284 0.470226
-0.895259 3.581276 0.572909
-1.002617 3.476728 0.444286
-0.924357 3.593632 0.540510
-1.023932 3.502444 0.413259
-1.081531 3.402144 0.331448
-1.140880 3.365227 0.230768
-1.104004 3.440584 0.298956
-1.159782 3.407838 0.192818
-1.132589 3.512789 0.236063
-1.189257 3.488978 0.127451
-1.161807 3.610386 0.196101
-1.067424 3.561058 0.357726
-1.024750 3.643961 0.426942
-1.115834 3.626112 0.290590
-1.111571 3.694639 0.312867
-1.171166 3.702547 0.195052
-1.102954 3.777650 0.335776
-1.090455 3.867469 0.352087
-1.000079 3.744880 0.467279
-1.164069 3.797644 0.214233
-1.182293 3.806952 0.090370
-1.146352 3.892120 0.240968
-1.164438 3.911629 0.129145
-1.122465 3.983121 0.274854
-1.087203 4.078321 0.335873
-1.146471 4.012081 0.178571
-1.076324 3.951618 0.365132
-1.044266 4.035997 0.410403
-0.997263 3.928379 0.486465
-0.993021 3.845904 0.485166
-1.005780 3.997097 0.476013
-0.919220 3.941435 0.606698
-0.963027 4.023550 0.561040
-0.872760 3.953478 0.673432
-0.894965 3.840505 0.598709
-0.842843 3.840424 0.649737
-0.919118 3.724714 0.556765
-0.875580 3.715032 0.600987
-0.958836 3.609000 0.501159
-0.838837 3.706769 0.633074
-0.801882 3.838853 0.681599
-0.805236 3.698227 0.659962
-0.777111 3.690773 0.681269
-0.766004 3.836143 0.704489
-0.733845 3.832610 0.721290
-0.790268 3.969774 0.746402
-0.746086 3.973742 0.768725
-0.832223 3.962561 0.715505
-0.862488 4.066533 0.680665
-0.821056 4.080429 0.701624
-0.950295 4.137828 0.576951
-0.900487 4.053884 0.650352
-0.932332 4.040420 0.612742
-0.979953 4.121683 0.552906
-1.000734 4.106012 0.524328
-1.028527 4.182663 0.456970
-1.049189 4.161948 0.434093
-1.051795 4.236035 0.356565
-1.001729 4.201504 0.476373
-0.967101 4.220155 0.492105
-1.024536 4.255630 0.378189
-0.986511 4.272178 0.397884
-1.035555 4.296252 0.276034
-1.064138 4.272211 0.255971
-1.001976 4.317550 0.293752
-1.042707 4.311617 0.155629
-1.017729 4.303580 0.068342
-1.065517 4.287007 0.139952
-1.008017 4.335176 0.171218
-0.969692 4.357849 0.185419
-0.987611 4.323287 0.083648
-0.959685 4.328407 0.023055
-0.947025 4.340607 0.096974
-0.930662 4.347234 0.036627
-0.904895 4.360127 0.107416
-0.898507 4.366521 0.048520
-0.869451 4.374062 0.117016
-0.925061 4.374580 0.198814
-0.923011 4.357758 0.318981
-0.884427 4.383764 0.212069
-0.848249 4.388729 0.227181
-0.880210 4.375952 0.333501
-0.853991 4.328389 0.424899
-0.839408 4.385773 0.346684
-0.804338 4.381549 0.353387
-0.826737 4.339636 0.435096
-0.831211 4.279270 0.539306
-0.802647 4.341798 0.446328
-0.782712 4.331585 0.453014
-0.810509 4.282325 0.549772
-0.789951 4.279613 0.558302
-0.769178 4.207222 0.651531
-0.789473 4.206022 0.642321
-0.750209 4.206193 0.658760
-0.674681 4.119363 0.758492
-0.604778 3.988942 0.808834
-0.657273 4.121003 0.763149
-0.693972 4.116412 0.752646
-0.623866 3.985261 0.805465
-0.715945 4.110147 0.745779
-0.744225 4.102454 0.734498
-0.643461 3.980563 0.800243
-0.811140 4.199840 0.633373
-0.855265 4.270617 0.527671
-0.837562 4.187315 0.623944
-0.885804 4.255968 0.517062
-0.871355 4.172020 0.611799
-0.924191 4.239133 0.505411
-0.912323 4.154196 0.596550
-0.779835 4.093927 0.718106
-0.705225 3.975558 0.783060
-0.670035 3.977096 0.792942
-0.702699 3.832088 0.737350
-0.675781 3.837863 0.752992
-0.651662 3.845253 0.766202
-0.631467 3.852344 0.775188
-0.612145 3.858222 0.780915
-0.688084 3.705895 0.732162
-0.668653 3.711746 0.740315
-0.647668 3.716774 0.744665
-0.750044 3.570385 0.688696
-0.730207 3.578267 0.690579
-0.846575 3.423625 0.609622
-0.712314 3.587642 0.689355
-0.627469 3.721516 0.741664
-0.817833 3.425379 0.612289
-0.613607 3.727539 0.734277
-0.573223 3.866448 0.782362
-0.570609 3.994115 0.804278
-0.555164 3.869913 0.776604
-0.592057 3.862603 0.783486
-0.585883 3.991641 0.808384
-0.556252 3.996728 0.797897
-0.547187 3.871127 0.764855
-0.543574 3.997563 0.789915
-0.545118 3.872812 0.749452
-0.535035 3.997391 0.775361
-0.546496 3.876143 0.730115
-0.533817 3.998760 0.756942
-0.552683 3.878364 0.703470
-0.537872 4.001728 0.733494
-0.565046 3.881042 0.669583
-0.605535 3.742674 0.659639
-0.616692 3.750124 0.627141
-0.631085 3.758289 0.588031
-0.703902 3.638214 0.581413
-0.711370 3.645734 0.544723
-0.715276 3.660423 0.479534
-0.651601 3.770499 0.520110
-0.683540 3.688572 0.365613
-0.776375 3.553461 0.417667
-0.723715 3.597787 0.327030
-0.655199 3.606214 0.240761
-0.591610 3.562665 0.128672
-0.693087 3.538916 0.231086
-0.592915 3.695789 0.263603
-0.495285 3.673143 0.166761
-0.545278 3.794343 0.281989
-0.510069 3.900011 0.299104
-0.448792 3.782855 0.181934
-0.634295 3.789305 0.397771
-0.584075 3.900375 0.419208
-0.605573 3.889813 0.545115
-0.586705 3.992551 0.434499
-0.508936 3.993890 0.320451
-0.604314 3.987139 0.563300
-0.603782 4.063641 0.447900
-0.607273 4.060048 0.571008
-0.605931 4.112301 0.455867
-0.508437 4.068799 0.344198
-0.507646 4.120009 0.356565
-0.418738 4.083723 0.257324
-0.411404 4.137311 0.275305
-0.322533 4.108830 0.175617
-0.416078 3.986256 0.223384
-0.449717 3.890944 0.230828
-0.379081 3.881170 0.158011
-0.308896 4.045230 0.132497
-0.292231 3.948629 0.076636
-0.253829 4.079534 0.075321
-0.258575 3.977756 0.016671
-0.275682 4.137468 0.128993
-0.230483 4.108832 0.038036
-0.244205 4.173511 0.097966
-0.221258 4.131466 0.013021
-0.242212 3.997486 -0.023429
-0.285053 3.868482 -0.062099
-0.231498 4.017313 -0.052388
-0.282757 3.884020 -0.086983
-0.223646 4.036142 -0.074882
-0.217867 4.150025 -0.007539
-0.292716 3.901546 -0.105902
-0.235164 4.053998 -0.093399
-0.317302 3.919085 -0.121829
-0.257680 4.070104 -0.109251
-0.222872 4.167865 -0.022074
-0.241203 4.233090 0.051777
-0.243868 4.184397 -0.032984
-0.257301 4.253933 0.039117
-0.278065 4.200642 -0.043025
-0.290234 4.276754 0.021223
-0.287512 4.080645 -0.127404
-0.322380 4.218616 -0.052684
-0.326222 4.298417 -0.000423
-0.323312 4.091639 -0.143111
-0.378370 4.235692 -0.061509
-0.453703 4.247552 -0.085662
-0.371119 4.314775 -0.019459
-0.363403 4.102058 -0.152997
-0.419047 4.105123 -0.158818
-0.433000 3.970253 -0.188737
-0.407006 3.959872 -0.175680
-0.465769 3.976341 -0.195634
-0.478660 3.831833 -0.232270
-0.501500 3.836162 -0.241726
-0.490038 3.698390 -0.237683
-0.454397 3.824467 -0.216926
-0.429735 3.812707 -0.199565
-0.462912 3.694274 -0.226650
-0.431322 3.689206 -0.210739
-0.523956 3.593862 -0.176529
-0.497402 3.595224 -0.171773
-0.523022 3.491021 -0.208615
-0.546469 3.593910 -0.178917
-0.538004 3.490512 -0.220103
-0.566437 3.594914 -0.182424
-0.558536 3.492680 -0.226026
-0.515697 3.701400 -0.244761
-0.589595 3.597835 -0.187404
-0.582893 3.497120 -0.225630
-0.542749 3.703823 -0.248670
-0.618047 3.602701 -0.200174
-0.617471 3.500196 -0.227015
-0.648207 3.602413 -0.230137
-0.575071 3.708037 -0.251171
-0.614320 3.714255 -0.251498
-0.565913 3.844601 -0.255733
-0.556371 3.974297 -0.217819
-0.602895 3.848598 -0.251670
-0.529812 3.837667 -0.250649
-0.508811 3.974312 -0.203657
-0.473849 4.096594 -0.164540
-0.537248 4.082813 -0.183032
-0.508147 4.219146 -0.128856
-0.562680 4.193501 -0.152846
-0.595889 4.281180 -0.080629
-0.579031 4.305459 -0.059770
-0.680805 4.329681 -0.076102
-0.630639 4.264902 -0.109485
-0.662348 4.253155 -0.123617
-0.696145 4.321247 -0.092712
-0.761905 4.353889 -0.086174
-0.714846 4.312400 -0.104348
-0.735959 4.304008 -0.111801
-0.774350 4.345493 -0.094407
-0.789298 4.333833 -0.100278
-0.824608 4.362113 -0.083305
-0.811656 4.371047 -0.075605
-0.873111 4.372943 -0.059427
-0.839497 4.349699 -0.089089
-0.855875 4.332115 -0.092506
-0.889650 4.358685 -0.067017
-0.932555 4.347016 -0.022631
-0.899685 4.337146 -0.071936
-0.908752 4.309961 -0.075722
-0.937659 4.328830 -0.036560
-0.938980 4.306029 -0.048740
-0.978048 4.309944 0.007512
-0.982156 4.291429 -0.006145
-1.030163 4.281728 0.054935
-0.985255 4.263139 -0.021913
-0.994531 4.215247 -0.040094
-1.036429 4.257160 0.040898
-0.947717 4.266144 -0.060633
-0.922208 4.265419 -0.083171
-0.962146 4.211933 -0.073083
-0.932019 4.207553 -0.093421
-0.977283 4.136370 -0.091352
-0.987920 4.022931 -0.122101
-1.009546 4.142494 -0.062699
-0.939034 4.128379 -0.110577
-0.942835 4.018958 -0.134360
-0.889751 4.119633 -0.127667
-0.838896 4.119288 -0.140832
-0.893266 4.012457 -0.141006
-0.892188 4.205927 -0.107902
-0.887540 4.265437 -0.096732
-0.847835 4.208318 -0.119581
-0.799694 4.216970 -0.130945
-0.847049 4.265031 -0.106205
-0.829999 4.299616 -0.105870
-0.812942 4.257310 -0.115990
-0.786934 4.279675 -0.117593
-0.754442 4.229424 -0.138474
-0.759360 4.293375 -0.116595
-0.807704 4.319960 -0.104024
-0.720462 4.237340 -0.138819
-0.689730 4.243620 -0.132353
-0.674871 4.146270 -0.169623
-0.655225 4.045613 -0.192240
-0.640677 4.157209 -0.170774
-0.715987 4.138368 -0.164519
-0.687033 4.035018 -0.166148
-0.776321 4.127139 -0.153805
-0.753885 4.021136 -0.144978
-0.830888 4.011074 -0.141157
-0.768378 3.920631 -0.139825
-0.850902 3.918046 -0.137539
-0.799862 3.828170 -0.144180
-0.691534 3.934394 -0.167493
-0.654297 3.955415 -0.197866
-0.729293 3.836685 -0.180407
-0.773234 3.717810 -0.223206
-0.678222 3.853046 -0.214661
-0.638414 3.851899 -0.238891
-0.707396 3.721961 -0.239069
-0.660485 3.719713 -0.247396
-0.733760 3.597078 -0.250108
-0.686602 3.601193 -0.247920
-0.787810 3.591070 -0.238966
-0.740583 3.502136 -0.247233
-0.778299 3.492381 -0.233846
-0.758381 3.422903 -0.230225
-0.705172 3.504579 -0.249057
-0.731321 3.423615 -0.236862
-0.663523 3.504833 -0.239751
-0.700751 3.423606 -0.236035
-0.727248 3.369061 -0.221513
-0.659384 3.424902 -0.228983
-0.697880 3.367837 -0.221357
-0.621756 3.424603 -0.223913
-0.592607 3.423045 -0.220992
-0.667542 3.364144 -0.218792
-0.638879 3.359012 -0.214277
-0.728133 3.316924 -0.202397
-0.809240 3.273450 -0.167661
-0.698170 3.311056 -0.198737
-0.754131 3.320399 -0.201902
-0.775638 3.322065 -0.198788
-0.830862 3.278290 -0.167251
-0.850259 3.284782 -0.166497
-0.866187 3.245863 -0.150755
-0.911630 3.234134 -0.112849
-0.886861 3.251248 -0.154923
-0.845890 3.242687 -0.146456
-0.825629 3.241435 -0.141480
-0.895762 3.229959 -0.106490
-0.933456 3.235886 -0.058655
-0.878376 3.227980 -0.100094
-0.923277 3.232108 -0.051765
-0.863059 3.228029 -0.094102
-0.914426 3.230466 -0.045567
-0.847686 3.230436 -0.088898
-0.807058 3.243131 -0.135255
-0.789442 3.247149 -0.126431
-0.765392 3.266593 -0.157685
-0.787824 3.269884 -0.165544
-0.691877 3.290806 -0.177109
-0.746855 3.264303 -0.143970
-0.694053 3.273674 -0.152324
-0.738540 3.261917 -0.129606
-0.706604 3.263441 -0.128051
-0.773355 3.252592 -0.114218
-0.746778 3.256917 -0.105378
-0.830692 3.237681 -0.079486
-0.812858 3.247429 -0.070363
-0.891967 3.231778 -0.030372
-0.905255 3.230267 -0.038441
-0.878843 3.235252 -0.021301
-0.932082 3.208071 0.026289
-0.940624 3.181927 0.093787
-0.916557 3.210927 0.034940
-0.949013 3.208539 0.017686
-0.965388 3.175737 0.093352
-0.965250 3.210556 0.010427
-0.980636 3.214460 0.003895
-0.995254 3.177438 0.089241
-1.020599 3.181158 0.082684
-1.023791 3.188671 0.169593
-1.044866 3.193558 0.165516
-1.050129 3.223684 0.228433
-1.065998 3.200992 0.159061
-1.068045 3.233625 0.221388
-1.087815 3.212254 0.150823
-1.045292 3.186929 0.074634
-1.069353 3.197312 0.066774
-0.995266 3.219509 -0.001795
-1.012530 3.225899 -0.006646
-0.944928 3.241576 -0.064322
-1.030598 3.236123 -0.012271
-1.049244 3.250912 -0.018896
-0.959614 3.250377 -0.069525
-1.090223 3.212888 0.058543
-1.109306 3.227256 0.138922
-1.108779 3.234252 0.048879
-1.126839 3.247919 0.122649
-1.123731 3.260635 0.038626
-1.137004 3.292105 0.025917
-1.140497 3.273943 0.105371
-1.068233 3.270071 -0.027061
-1.086476 3.293211 -0.036501
-0.996580 3.277850 -0.082357
-0.977023 3.262628 -0.075466
-0.961267 3.269596 -0.129342
-1.016943 3.299028 -0.092751
-1.035007 3.338719 -0.102440
-0.976815 3.298782 -0.126502
-0.947888 3.308659 -0.142504
-0.986910 3.351644 -0.131392
-0.996766 3.423209 -0.136194
-0.952365 3.363260 -0.146001
-0.954040 3.433745 -0.146328
-0.907604 3.380878 -0.164117
-0.903235 3.328275 -0.157849
-0.904801 3.448947 -0.165151
-0.842751 3.406760 -0.191260
-0.844995 3.354682 -0.187492
-0.835864 3.473883 -0.202208
-0.791660 3.420347 -0.217160
-0.808226 3.376731 -0.205368
-0.782494 3.369055 -0.209921
-0.827640 3.331337 -0.189042
-0.754176 3.369187 -0.216982
-0.802883 3.326211 -0.194333
-0.866493 3.291389 -0.166027
-0.908558 3.259367 -0.157987
-0.882197 3.300457 -0.161297
-0.927934 3.277117 -0.153409
-0.946715 3.251529 -0.124806
-0.928865 3.240322 -0.118399
-0.865902 3.577285 -0.207278
-0.942414 3.561291 -0.179772
-0.860884 3.704958 -0.197348
-0.941142 3.687727 -0.179524
-0.881987 3.814483 -0.140175
-0.998294 3.679825 -0.182659
-0.955314 3.799005 -0.160360
-0.989258 3.550179 -0.167263
-1.040029 3.673779 -0.166505
-1.070227 3.668649 -0.148194
-1.029035 3.541541 -0.154841
-1.003550 3.792754 -0.170414
-0.966854 3.909835 -0.148175
-1.041939 3.790168 -0.165980
-1.010005 3.912291 -0.145907
-1.078909 3.795440 -0.148708
-1.097406 3.666350 -0.133331
-1.116659 3.800239 -0.118492
-1.052737 3.913813 -0.129041
-1.086437 3.916892 -0.094046
-1.030058 4.027132 -0.099771
-1.068625 4.031113 -0.056878
-1.054278 4.145791 -0.012299
-1.100879 4.033095 0.003338
-1.129475 4.029174 0.082015
-1.097525 4.144878 0.061447
-1.113511 3.920724 -0.042620
-1.139565 3.920963 0.027190
-1.145282 3.806517 -0.072632
-1.165270 3.810111 -0.010339
-1.169881 3.679060 -0.062196
-1.193778 3.689253 -0.008654
-1.132833 3.670690 -0.104664
-1.181708 3.553553 -0.022455
-1.205497 3.570949 0.026598
-1.143846 3.538798 -0.071214
-1.191057 3.453124 0.020645
-1.174415 3.361196 0.062806
-1.152403 3.427924 -0.035364
-1.202522 3.471982 0.072411
-1.176307 3.382918 0.125153
-1.156845 3.335385 0.157079
-1.141795 3.305017 0.176521
-1.154523 3.307618 0.087294
-1.126577 3.281944 0.191648
-1.124058 3.334698 0.252332
-1.108520 3.262568 0.203047
-1.087860 3.245743 0.211575
-1.150765 3.340458 0.001146
-1.103113 3.413208 -0.076698
-1.105314 3.533168 -0.110077
-1.047889 3.412998 -0.112979
-1.100521 3.330419 -0.052018
-1.067818 3.535694 -0.137602
-1.205220 3.584892 0.084987
-1.199560 3.696124 0.070985
-1.120713 4.134825 0.152015
-1.092012 4.214297 0.100739
-1.043745 4.216259 0.019520
-1.079858 4.256945 0.123440
-1.107019 4.202243 0.203869
-1.088268 4.242142 0.233423
-1.094725 4.178381 0.301212
-1.066005 4.134360 0.400959
-1.074764 4.210878 0.332103
-1.118113 4.112346 0.244737
-1.016926 4.084507 0.484861
-0.917120 3.912957 -0.144552
-1.050022 3.257515 0.314142
-0.925302 3.192356 0.090928
-0.901773 3.217436 0.041341
-0.877750 3.231477 0.037133
-0.910252 3.206900 0.085092
-0.862727 3.240918 -0.012116
-0.790377 3.254726 -0.060960
-0.841547 3.248957 -0.003104
-0.763006 3.257365 -0.050750
-0.815315 3.259159 0.005836
-0.732839 3.260159 -0.040409
-0.788359 3.270987 0.012062
-0.872903 3.235792 0.068216
-0.851542 3.257644 0.071145
-0.931291 3.222244 0.142693
-0.910893 3.240186 0.136322
-0.891026 3.263740 0.131968
-0.950685 3.245027 0.213038
-0.947033 3.276232 0.313877
-0.929893 3.264886 0.205418
-0.907088 3.288749 0.197971
-0.883943 3.314947 0.190417
-0.872427 3.290418 0.128082
-0.851862 3.321013 0.127184
-0.820343 3.302313 0.075540
-0.734051 3.312307 0.024678
-0.794611 3.334918 0.081421
-0.837171 3.277327 0.072879
-0.762226 3.286737 0.017440
-0.670152 3.283164 -0.030382
-0.701609 3.268681 -0.033113
-0.604446 3.277910 -0.073056
-0.639141 3.303915 -0.032445
-0.618418 3.326590 -0.036471
-0.579528 3.294905 -0.074024
-0.549730 3.290745 -0.101716
-0.559180 3.317447 -0.078463
-0.528657 3.314065 -0.104384
-0.534376 3.355903 -0.089097
-0.589321 3.357632 -0.051392
-0.506707 3.355496 -0.113503
-0.492507 3.411097 -0.098288
-0.467565 3.412415 -0.122911
-0.434874 3.484804 -0.090993
-0.544468 3.412982 -0.063602
-0.591192 3.423413 -0.024735
-0.478593 3.486525 -0.055119
-0.398918 3.574014 -0.026084
-0.554381 3.481401 -0.003828
-0.632418 3.448299 0.054712
-0.481831 3.575427 0.042458
-0.403631 3.650163 0.071011
-0.339237 3.643849 -0.008438
-0.377529 3.714924 0.071138
-0.359425 3.797642 0.080217
-0.328864 3.716310 -0.003647
-0.306799 3.737545 -0.049728
-0.316041 3.823437 0.024289
-0.292235 3.848312 -0.025384
-0.314957 3.653173 -0.059299
-0.297249 3.756482 -0.081409
-0.298956 3.769699 -0.107424
-0.314102 3.662302 -0.093540
-0.377279 3.576783 -0.104507
-0.326044 3.670082 -0.119870
-0.385524 3.580728 -0.126599
-0.345630 3.675474 -0.142945
-0.370284 3.679538 -0.166807
-0.321024 3.781489 -0.131147
-0.401701 3.586531 -0.142101
-0.434467 3.496427 -0.155442
-0.433513 3.592514 -0.152895
-0.457811 3.498756 -0.169951
-0.466708 3.595495 -0.164169
-0.486225 3.497524 -0.183319
-0.398680 3.684190 -0.189948
-0.396487 3.799973 -0.176254
-0.350569 3.936156 -0.139082
-0.357396 3.793076 -0.152122
-0.382462 3.948565 -0.159085
-0.508250 3.493089 -0.195654
-0.515258 3.415048 -0.186056
-0.535942 3.418529 -0.195082
-0.535731 3.346015 -0.162671
-0.489912 3.412187 -0.173168
-0.470926 3.411781 -0.158862
-0.512388 3.346935 -0.152957
-0.499574 3.349926 -0.142624
-0.534263 3.302649 -0.141084
-0.521342 3.306334 -0.132123
-0.561700 3.279575 -0.127587
-0.553035 3.300399 -0.149540
-0.579763 3.300635 -0.160234
-0.579440 3.274724 -0.133206
-0.611934 3.263372 -0.110552
-0.605412 3.272342 -0.139938
-0.637743 3.260296 -0.115901
-0.644384 3.274801 -0.148817
-0.625543 3.304602 -0.178061
-0.671037 3.260980 -0.122505
-0.717388 3.255927 -0.095860
-0.688377 3.254594 -0.085743
-0.660795 3.257957 -0.078578
-0.631791 3.266047 -0.074648
-0.589893 3.269900 -0.106268
-0.571100 3.277926 -0.103563
-0.548772 3.285303 -0.122220
-0.538181 3.292183 -0.116346
-0.518067 3.310509 -0.121357
-0.497546 3.353076 -0.130615
-0.461716 3.412343 -0.142942
-0.420145 3.492632 -0.140333
-0.417875 3.487742 -0.120074
-0.645457 3.320672 -0.199764
-0.585438 3.349891 -0.191851
-0.552870 3.419278 -0.204765
-0.612787 3.354948 -0.206375
-0.560015 3.347251 -0.174594
-0.571170 3.420502 -0.214838
-0.375337 3.575025 -0.072924
-0.644972 3.383635 0.004367
-0.690477 3.409441 0.092303
-0.677575 3.481790 0.169674
-0.777045 3.380952 0.117519
-0.699537 3.350884 0.033752
-0.764766 3.445535 0.198914
-0.837079 3.358717 0.148400
-0.862732 3.344857 0.194758
-0.625498 3.964735 -0.213312
-0.597143 3.971076 -0.218746
-0.623577 4.058090 -0.199854
-0.589345 4.068583 -0.196147
-0.605792 4.170547 -0.165933
-0.872204 4.307412 -0.093772
-0.913817 4.363648 -0.009457
-0.889289 4.376693 -0.000233
-0.856404 4.380959 -0.051308
-0.864060 4.386269 0.004517
-0.838354 4.391689 0.005854
-0.841424 4.385342 -0.045130
-0.865799 4.379480 0.056706
-0.832838 4.383403 0.061356
-0.798525 4.379397 0.062436
-0.836303 4.379562 0.127019
-0.804454 4.379124 0.136471
-0.775217 4.374695 0.146636
-0.817887 4.388260 0.237836
-0.791353 4.379841 0.249633
-0.771569 4.360466 0.261258
-0.779405 4.367666 0.358371
-0.761509 4.347331 0.362974
-0.753178 4.314564 0.361062
-0.769211 4.314829 0.456550
-0.757888 4.295924 0.456221
-0.771047 4.269774 0.561839
-0.756070 4.257832 0.562774
-0.732527 4.203321 0.664293
-0.715059 4.199512 0.666476
-0.639409 4.122981 0.765561
-0.619410 4.122143 0.762251
-0.605831 4.117496 0.754789
-0.698034 4.194303 0.666130
-0.597005 4.113775 0.746115
-0.683783 4.188034 0.666028
-0.590255 4.110487 0.736099
-0.668680 4.180110 0.664997
-0.582351 4.105406 0.722542
-0.654095 4.171622 0.660523
-0.569983 4.092336 0.703372
-0.634209 4.156572 0.652795
-0.567688 4.068824 0.660961
-0.547685 3.998487 0.702507
-0.569621 3.990603 0.654104
-0.583723 3.887575 0.625388
-0.613795 4.131701 0.633404
-0.675868 4.180524 0.539843
-0.618244 4.115935 0.567719
-0.630018 4.138235 0.555905
-0.636314 4.149432 0.573955
-0.641900 4.155654 0.559508
-0.669075 4.179799 0.498417
-0.645328 4.163718 0.517106
-0.687912 4.203203 0.423099
-0.624659 4.196671 0.428477
-0.609268 4.173153 0.447811
-0.649004 4.217280 0.387160
-0.506318 4.210005 0.355010
-0.501662 4.187992 0.361403
-0.395279 4.237710 0.293142
-0.521153 4.226213 0.337230
-0.387955 4.258945 0.290208
-0.546821 4.236803 0.314181
-0.677399 4.225128 0.352862
-0.407296 4.276775 0.281923
-0.580649 4.242508 0.294368
-0.429350 4.285955 0.265583
-0.703084 4.222205 0.336082
-0.612594 4.247170 0.274770
-0.731418 4.226652 0.324318
-0.643175 4.252260 0.258676
-0.458107 4.291724 0.249219
-0.366792 4.337226 0.158964
-0.496434 4.292989 0.229467
-0.552838 4.297534 0.198984
-0.410785 4.344675 0.144809
-0.377018 4.360004 0.046570
-0.481922 4.344507 0.131976
-0.582250 4.348397 0.106019
-0.464563 4.358260 0.044448
-0.448750 4.327583 -0.028338
-0.577383 4.347496 0.025959
-0.663784 4.334315 0.002578
-0.574811 4.331473 -0.026366
-0.669403 4.337086 -0.034932
-0.730462 4.351522 -0.039418
-0.673370 4.334331 -0.058026
-0.739704 4.358282 -0.059023
-0.750537 4.358654 -0.074571
-0.791515 4.380915 -0.055573
-0.782438 4.380837 -0.037528
-0.827370 4.387751 -0.040177
-0.800928 4.377196 -0.066455
-0.811234 4.388951 -0.029261
-0.808424 4.390101 0.005397
-0.772351 4.375759 0.000834
-0.764971 4.368471 0.061324
-0.723597 4.349773 -0.005558
-0.720736 4.350496 0.065995
-0.745720 4.364550 0.157842
-0.661278 4.342442 0.082372
-0.700528 4.339617 0.171879
-0.745035 4.320614 0.265564
-0.626895 4.319454 0.182226
-0.708565 4.284402 0.252582
-0.678165 4.264735 0.248493
-0.750713 4.281487 0.343979
-0.752024 4.273325 0.442306
-0.747560 4.260281 0.331860
-0.752496 4.247973 0.428843
-0.743780 4.243089 0.325444
-0.752311 4.228705 0.419843
-0.719545 4.221438 0.547440
-0.745151 4.214090 0.416394
-0.709692 4.209161 0.543342
-0.730770 4.206531 0.416856
-0.710740 4.203693 0.419362
-0.697527 4.196002 0.543997
-0.730036 4.232930 0.554329
-0.742607 4.245730 0.559570
-0.327977 4.344203 0.055940
-0.294071 4.320511 0.071976
-0.263614 4.292810 0.090008
-0.332871 4.322090 0.172318
-0.312553 4.301744 0.186066
-0.303308 4.283217 0.195626
-0.246354 4.270258 0.107098
-0.303041 4.263073 0.204933
-0.241100 4.251212 0.120593
-0.310013 4.238909 0.211299
-0.247296 4.230211 0.132614
-0.404252 4.215851 0.293257
-0.316911 4.206722 0.212429
-0.263985 4.202868 0.146857
-0.325757 4.156894 0.203980
-0.407012 4.183769 0.287135
-0.505121 4.158934 0.362584
-0.604058 4.144647 0.456268
-0.289940 4.162640 0.162283
-0.231126 4.195102 0.077853
-0.232316 4.213469 0.063030
-0.939109 4.288976 0.408291
-0.965197 4.336751 0.306944
-0.891459 4.310168 0.414026
3 3 5 1
3 3 1 0
3 0 1 700
3 0 700 2
3 0 2 4
3 0 4 3
3 4 227 6
3 4 6 3
3 7 8 5
3 7 5 3
3 9 7 3
3 9 3 6
3 11 8 7
3 11 7 10
3 9 12 10
3 9 10 7
3 13 15 11
3 13 11 10
3 13 10 12
3 13 12 16
3 14 13 16
3 14 16 17
3 14 593 15
3 14 15 13
3 20 18 16
3 20 16 12
3 21 17 16
3 21 16 18
3 19 22 21
3 19 21 18
3 20 219 19
3 20 19 18
3 21 22 24
3 21 24 23
3 21 23 26
3 21 26 17
3 24 203 25
3 24 25 23
3 27 26 23
3 27 23 25
3 28 14 17
3 28 17 26
3 27 30 28
3 27 28 26
3 28 29 593
3 28 593 14
3 28 30 32
3 28 32 29
3 33 32 30
3 33 30 31
3 27 202 31
3 27 31 30
3 33 37 34
3 33 34 32
3 34 36 29
3 34 29 32
3 34 35 589
3 34 589 36
3 34 37 38
3 34 38 35
3 33 40 39
3 33 39 37
3 41 38 37
3 41 37 39
3 42 39 40
3 42 40 45
3 41 39 42
3 41 42 44
3 42 45 46
3 42 46 43
3 42 43 455
3 42 455 44
3 49 47 45
3 49 45 40
3 46 45 47
3 46 47 50
3 48 47 49
3 48 49 199
3 48 51 50
3 48 50 47
3 52 50 51
3 52 51 55
3 46 50 52
3 46 52 53
3 52 54 575
3 52 575 53
3 52 55 56
3 52 56 54
3 60 56 55
3 60 55 57
3 57 55 51
3 57 51 59
3 57 59 194
3 57 194 58
3 60 57 58
3 60 58 61
3 62 65 56
3 62 56 60
3 62 60 61
3 62 61 64
3 63 62 64
3 63 64 119
3 63 66 65
3 63 65 62
3 67 65 66
3 67 66 69
3 67 54 56
3 67 56 65
3 67 69 70
3 67 70 68
3 575 54 67
3 575 67 68
3 71 69 66
3 71 66 74
3 70 69 71
3 70 71 72
3 71 73 552
3 71 552 72
3 71 74 76
3 71 76 73
3 75 74 66
3 75 66 63
3 77 76 74
3 77 74 75
3 79 78 76
3 79 76 77
3 81 73 76
3 81 76 78
3 115 80 78
3 115 78 79
3 81 78 80
3 81 80 83
3 552 73 81
3 552 81 82
3 81 83 84
3 81 84 82
3 84 83 85
3 84 85 86
3 83 80 88
3 83 88 85
3 561 86 85
3 561 85 87
3 90 87 85
3 90 85 88
3 115 89 88
3 115 88 80
3 90 88 89
3 90 89 91
3 90 91 92
3 90 92 87
3 95 93 91
3 95 91 89
3 93 96 92
3 93 92 91
3 94 93 95
3 94 95 106
3 94 98 96
3 94 96 93
3 97 562 92
3 97 92 96
3 97 96 98
3 97 98 99
3 100 102 99
3 100 99 98
3 100 98 94
3 100 94 103
3 101 100 103
3 101 103 104
3 101 572 102
3 101 102 100
3 107 104 103
3 107 103 105
3 94 106 105
3 94 105 103
3 108 105 106
3 108 106 111
3 109 107 105
3 109 105 108
3 109 108 110
3 109 110 129
3 108 111 112
3 108 112 110
3 95 113 111
3 95 111 106
3 112 111 113
3 112 113 114
3 115 79 114
3 115 114 113
3 95 89 115
3 95 115 113
3 79 77 116
3 79 116 114
3 112 114 116
3 112 116 117
3 117 116 118
3 117 118 120
3 77 75 118
3 77 118 116
3 75 63 119
3 75 119 118
3 120 118 119
3 120 119 121
3 120 121 123
3 120 123 122
3 117 120 122
3 117 122 124
3 126 125 122
3 126 122 123
3 128 124 122
3 128 122 125
3 126 185 127
3 126 127 125
3 127 130 128
3 127 128 125
3 128 130 131
3 128 131 129
3 128 129 110
3 128 110 124
3 127 135 132
3 127 132 130
3 131 130 132
3 131 132 133
3 134 571 133
3 134 133 132
3 137 134 132
3 137 132 135
3 138 137 135
3 138 135 136
3 127 185 136
3 127 136 135
3 138 141 139
3 138 139 137
3 137 139 140
3 137 140 134
3 144 140 139
3 144 139 142
3 139 141 145
3 139 145 142
3 346 144 142
3 346 142 143
3 147 143 142
3 147 142 145
3 146 145 141
3 146 141 846
3 147 145 146
3 147 146 149
3 148 147 149
3 148 149 150
3 148 344 143
3 148 143 147
3 152 150 149
3 152 149 151
3 146 154 151
3 146 151 149
3 152 151 153
3 152 153 715
3 153 151 154
3 153 154 156
3 146 846 155
3 146 155 154
3 155 158 156
3 155 156 154
3 153 156 157
3 153 157 718
3 157 156 158
3 157 158 160
3 155 847 159
3 155 159 158
3 159 162 160
3 159 160 158
3 157 160 161
3 157 161 721
3 161 160 162
3 161 162 164
3 163 166 164
3 163 164 162
3 159 180 163
3 159 163 162
3 161 164 165
3 161 165 724
3 165 164 166
3 165 166 167
3 168 170 167
3 168 167 166
3 168 166 163
3 168 163 169
3 168 169 174
3 168 174 171
3 173 170 168
3 173 168 171
3 174 175 172
3 174 172 171
3 173 171 172
3 173 172 208
3 174 176 178
3 174 178 175
3 174 169 179
3 174 179 176
3 177 188 178
3 177 178 176
3 179 181 177
3 179 177 176
3 179 169 163
3 179 163 180
3 179 180 182
3 179 182 181
3 183 181 182
3 183 182 184
3 177 181 183
3 177 183 186
3 183 184 136
3 183 136 185
3 183 185 126
3 183 126 186
3 177 186 187
3 177 187 188
3 126 123 187
3 126 187 186
3 189 190 188
3 189 188 187
3 121 189 187
3 121 187 123
3 121 119 64
3 121 64 189
3 189 64 61
3 189 61 190
3 190 191 178
3 190 178 188
3 190 61 58
3 190 58 191
3 191 192 175
3 191 175 178
3 191 58 194
3 191 194 192
3 192 193 172
3 192 172 175
3 192 194 195
3 192 195 193
3 59 197 195
3 59 195 194
3 193 195 196
3 193 196 207
3 196 195 197
3 196 197 198
3 48 199 198
3 48 198 197
3 59 51 48
3 59 48 197
3 200 198 199
3 200 199 202
3 196 198 200
3 196 200 201
3 200 25 203
3 200 203 201
3 200 202 27
3 200 27 25
3 49 31 202
3 49 202 199
3 206 204 201
3 206 201 203
3 196 201 204
3 196 204 207
3 205 208 207
3 205 207 204
3 206 209 205
3 206 205 204
3 193 207 208
3 193 208 172
3 205 733 173
3 205 173 208
3 206 210 211
3 206 211 209
3 24 210 206
3 24 206 203
3 213 211 210
3 213 210 212
3 24 22 212
3 24 212 210
3 213 212 214
3 213 214 215
3 19 214 212
3 19 212 22
3 215 214 216
3 215 216 217
3 19 219 216
3 19 216 214
3 217 216 218
3 217 218 746
3 218 216 219
3 218 219 220
3 20 222 220
3 20 220 219
3 218 220 221
3 218 221 748
3 223 221 220
3 223 220 222
3 9 222 20
3 9 20 12
3 223 222 9
3 223 9 6
3 224 225 221
3 224 221 223
3 224 223 6
3 224 6 227
3 237 225 224
3 237 224 226
3 226 224 227
3 226 227 228
3 4 2 228
3 4 228 227
3 231 229 228
3 231 228 2
3 226 228 229
3 226 229 232
3 230 233 232
3 230 232 229
3 230 229 231
3 230 231 697
3 236 234 232
3 236 232 233
3 237 226 232
3 237 232 234
3 238 237 234
3 238 234 235
3 252 235 234
3 252 234 236
3 239 225 237
3 239 237 238
3 239 238 240
3 239 240 242
3 238 235 241
3 238 241 240
3 246 243 240
3 246 240 241
3 244 242 240
3 244 240 243
3 244 243 245
3 244 245 751
3 245 243 246
3 245 246 247
3 248 249 247
3 248 247 246
3 248 246 241
3 248 241 251
3 248 250 838
3 248 838 249
3 254 250 248
3 254 248 251
3 252 236 253
3 252 253 251
3 251 241 235
3 251 235 252
3 254 251 253
3 254 253 255
3 256 254 255
3 256 255 257
3 256 258 250
3 256 250 254
3 262 259 256
3 262 256 257
3 256 259 260
3 256 260 258
3 843 260 259
3 843 259 261
3 262 264 261
3 262 261 259
3 633 263 262
3 633 262 257
3 262 263 265
3 262 265 264
3 268 266 264
3 268 264 265
3 267 261 264
3 267 264 266
3 267 266 269
3 267 269 272
3 269 266 268
3 269 268 270
3 269 270 652
3 269 652 271
3 272 269 271
3 272 271 274
3 267 272 273
3 267 273 844
3 272 274 275
3 272 275 273
3 276 274 271
3 276 271 278
3 276 277 275
3 276 275 274
3 276 279 280
3 276 280 277
3 281 279 276
3 281 276 278
3 280 279 282
3 280 282 284
3 281 285 282
3 281 282 279
3 285 286 283
3 285 283 282
3 283 784 284
3 283 284 282
3 281 288 287
3 281 287 285
3 285 287 289
3 285 289 286
3 290 287 288
3 290 288 293
3 291 289 287
3 291 287 290
3 291 290 292
3 291 292 304
3 290 293 295
3 290 295 292
3 295 293 294
3 295 294 296
3 654 294 293
3 654 293 288
3 295 296 298
3 295 298 297
3 295 297 300
3 295 300 292
3 298 655 299
3 298 299 297
3 301 300 297
3 301 297 299
3 301 303 302
3 301 302 300
3 302 304 292
3 302 292 300
3 302 303 306
3 302 306 305
3 302 305 307
3 302 307 304
3 309 308 305
3 309 305 306
3 307 305 308
3 307 308 311
3 402 310 308
3 402 308 309
3 310 312 311
3 310 311 308
3 313 311 312
3 313 312 315
3 307 311 313
3 307 313 316
3 313 315 704
3 313 704 314
3 313 314 317
3 313 317 316
3 291 316 317
3 291 317 289
3 307 316 291
3 307 291 304
3 318 317 314
3 318 314 319
3 286 289 317
3 286 317 318
3 318 319 321
3 318 321 320
3 286 318 320
3 286 320 283
3 283 320 322
3 283 322 323
3 321 325 322
3 321 322 320
3 324 790 323
3 324 323 322
3 327 324 322
3 327 322 325
3 326 329 327
3 326 327 325
3 321 707 326
3 321 326 325
3 327 328 792
3 327 792 324
3 331 328 327
3 331 327 329
3 326 374 330
3 326 330 329
3 330 332 331
3 330 331 329
3 331 332 336
3 331 336 333
3 331 333 334
3 331 334 328
3 711 334 333
3 711 333 335
3 336 338 335
3 336 335 333
3 336 332 372
3 336 372 337
3 336 337 340
3 336 340 338
3 338 339 709
3 338 709 335
3 338 340 342
3 338 342 339
3 708 341 340
3 708 340 337
3 343 342 340
3 343 340 341
3 343 345 344
3 343 344 342
3 339 342 344
3 339 344 148
3 345 346 143
3 345 143 344
3 345 347 349
3 345 349 346
3 343 350 347
3 343 347 345
3 348 565 349
3 348 349 347
3 348 347 350
3 348 350 352
3 351 350 343
3 351 343 341
3 351 353 352
3 351 352 350
3 354 352 353
3 354 353 357
3 354 356 348
3 354 348 352
3 354 355 527
3 354 527 356
3 358 355 354
3 358 354 357
3 358 357 359
3 358 359 361
3 362 359 357
3 362 357 353
3 360 359 362
3 360 362 364
3 360 382 361
3 360 361 359
3 362 353 351
3 362 351 363
3 362 363 366
3 362 366 364
3 380 360 364
3 380 364 365
3 368 365 364
3 368 364 366
3 708 367 366
3 708 366 363
3 368 366 367
3 368 367 369
3 368 369 370
3 368 370 365
3 372 371 369
3 372 369 367
3 371 373 370
3 371 370 369
3 330 371 372
3 330 372 332
3 330 374 373
3 330 373 371
3 375 378 370
3 375 370 373
3 375 373 374
3 375 374 377
3 375 376 379
3 375 379 378
3 705 376 375
3 705 375 377
3 378 380 365
3 378 365 370
3 378 379 381
3 378 381 380
3 380 381 382
3 380 382 360
3 383 384 382
3 383 382 381
3 383 381 379
3 383 379 386
3 383 385 511
3 383 511 384
3 388 385 383
3 388 383 386
3 386 379 376
3 386 376 387
3 388 386 387
3 388 387 390
3 388 389 509
3 388 509 385
3 392 389 388
3 392 388 390
3 390 387 703
3 390 703 391
3 392 390 391
3 392 391 393
3 395 394 392
3 395 392 393
3 392 394 396
3 392 396 389
3 395 400 397
3 395 397 394
3 394 397 398
3 394 398 396
3 495 398 397
3 495 397 399
3 399 397 400
3 399 400 401
3 402 403 401
3 402 401 400
3 402 400 395
3 402 395 310
3 405 403 402
3 405 402 309
3 405 406 404
3 405 404 403
3 499 401 403
3 499 403 404
3 409 406 405
3 409 405 407
3 405 309 306
3 405 306 407
3 407 306 303
3 407 303 408
3 409 407 408
3 409 408 410
3 414 406 409
3 414 409 411
3 409 410 413
3 409 413 411
3 414 411 412
3 414 412 416
3 433 412 411
3 433 411 413
3 415 414 416
3 415 416 417
3 415 404 406
3 415 406 414
3 421 418 416
3 421 416 412
3 420 417 416
3 420 416 418
3 419 506 420
3 419 420 418
3 421 423 419
3 421 419 418
3 433 422 421
3 433 421 412
3 421 422 425
3 421 425 423
3 419 423 424
3 419 424 465
3 426 424 423
3 426 423 425
3 426 425 427
3 426 427 428
3 427 425 422
3 427 422 430
3 427 429 444
3 427 444 428
3 427 430 431
3 427 431 429
3 430 432 435
3 430 435 431
3 430 422 433
3 430 433 432
3 432 433 413
3 432 413 434
3 432 434 436
3 432 436 435
3 437 439 431
3 437 431 435
3 437 435 436
3 437 436 438
3 437 438 440
3 437 440 439
3 442 441 439
3 442 439 440
3 441 429 431
3 441 431 439
3 443 441 442
3 443 442 445
3 443 444 429
3 443 429 441
3 449 444 443
3 449 443 446
3 443 445 448
3 443 448 446
3 449 446 447
3 449 447 450
3 576 447 446
3 576 446 448
3 453 451 449
3 453 449 450
3 449 451 428
3 449 428 444
3 426 428 451
3 426 451 452
3 453 454 452
3 453 452 451
3 453 450 44
3 453 44 455
3 456 454 453
3 456 453 455
3 456 455 43
3 456 43 457
3 458 456 457
3 458 457 459
3 458 461 454
3 458 454 456
3 460 458 459
3 460 459 554
3 460 462 461
3 460 461 458
3 464 463 461
3 464 461 462
3 463 452 454
3 463 454 461
3 463 424 426
3 463 426 452
3 464 465 424
3 464 424 463
3 466 468 465
3 466 465 464
3 466 464 462
3 466 462 469
3 467 466 469
3 467 469 471
3 467 479 468
3 467 468 466
3 470 469 462
3 470 462 460
3 472 471 469
3 472 469 470
3 475 473 471
3 475 471 472
3 476 467 471
3 476 471 473
3 477 476 473
3 477 473 474
3 550 474 473
3 550 473 475
3 477 481 478
3 477 478 476
3 476 478 479
3 476 479 467
3 505 479 478
3 505 478 480
3 483 480 478
3 483 478 481
3 483 481 482
3 483 482 485
3 559 482 481
3 559 481 477
3 483 485 487
3 483 487 484
3 504 480 483
3 504 483 484
3 486 485 482
3 486 482 558
3 487 485 486
3 487 486 488
3 487 489 490
3 487 490 484
3 487 488 491
3 487 491 489
3 492 493 490
3 492 490 489
3 494 492 489
3 494 489 491
3 492 495 496
3 492 496 493
3 494 398 495
3 494 495 492
3 495 399 497
3 495 497 496
3 496 497 498
3 496 498 493
3 499 500 498
3 499 498 497
3 399 401 499
3 399 499 497
3 499 404 415
3 499 415 500
3 500 415 417
3 500 417 501
3 500 501 503
3 500 503 498
3 504 503 501
3 504 501 502
3 420 502 501
3 420 501 417
3 504 484 490
3 504 490 503
3 503 490 493
3 503 493 498
3 505 480 504
3 505 504 502
3 420 506 505
3 420 505 502
3 505 506 468
3 505 468 479
3 419 465 468
3 419 468 506
3 494 507 396
3 494 396 398
3 508 507 494
3 508 494 491
3 389 396 507
3 389 507 509
3 508 510 509
3 508 509 507
3 385 509 510
3 385 510 511
3 512 513 511
3 512 511 510
3 512 510 508
3 512 508 514
3 518 513 512
3 518 512 515
3 512 514 517
3 512 517 515
3 518 515 516
3 518 516 520
3 560 516 515
3 560 515 517
3 518 519 574
3 518 574 513
3 521 519 518
3 521 518 520
3 525 521 520
3 525 520 522
3 523 522 520
3 523 520 516
3 523 539 524
3 523 524 522
3 524 526 525
3 524 525 522
3 525 526 528
3 525 528 527
3 525 527 355
3 525 355 521
3 356 527 528
3 356 528 529
3 532 529 528
3 532 528 530
3 526 533 530
3 526 530 528
3 531 530 533
3 531 533 534
3 532 530 531
3 532 531 563
3 534 533 535
3 534 535 536
3 524 535 533
3 524 533 526
3 537 538 536
3 537 536 535
3 524 539 537
3 524 537 535
3 541 538 537
3 541 537 540
3 540 537 539
3 540 539 542
3 541 540 543
3 541 543 546
3 540 542 545
3 540 545 543
3 545 555 544
3 545 544 543
3 547 546 543
3 547 543 544
3 561 541 546
3 561 546 86
3 84 86 546
3 84 546 547
3 547 544 550
3 547 550 548
3 84 547 548
3 84 548 82
3 550 475 549
3 550 549 548
3 552 82 548
3 552 548 549
3 550 544 555
3 550 555 474
3 475 472 551
3 475 551 549
3 552 549 551
3 552 551 72
3 472 470 553
3 472 553 551
3 70 72 551
3 70 551 553
3 470 460 554
3 470 554 553
3 70 553 554
3 70 554 68
3 575 68 554
3 575 554 459
3 545 556 559
3 545 559 555
3 545 542 557
3 545 557 556
3 560 558 556
3 560 556 557
3 559 556 558
3 559 558 482
3 559 477 474
3 559 474 555
3 486 558 560
3 486 560 517
3 560 557 523
3 560 523 516
3 523 557 542
3 523 542 539
3 562 538 541
3 562 541 561
3 562 561 87
3 562 87 92
3 97 536 538
3 97 538 562
3 534 536 97
3 534 97 99
3 531 534 99
3 531 99 102
3 564 532 563
3 564 563 567
3 564 565 529
3 564 529 532
3 566 349 565
3 566 565 564
3 566 564 567
3 566 567 568
3 571 568 567
3 571 567 569
3 569 567 563
3 569 563 572
3 569 572 101
3 569 101 570
3 571 569 570
3 571 570 133
3 531 102 572
3 531 572 563
3 134 140 568
3 134 568 571
3 101 104 573
3 101 573 570
3 131 133 570
3 131 570 573
3 131 573 109
3 131 109 129
3 109 573 104
3 109 104 107
3 144 566 568
3 144 568 140
3 346 349 566
3 346 566 144
3 348 356 529
3 348 529 565
3 521 355 358
3 521 358 519
3 574 519 358
3 574 358 361
3 384 511 513
3 384 513 574
3 384 574 361
3 384 361 382
3 486 517 514
3 486 514 488
3 508 491 488
3 508 488 514
3 575 459 457
3 575 457 53
3 46 53 457
3 46 457 43
3 41 44 450
3 41 450 447
3 576 448 577
3 576 577 579
3 445 580 577
3 445 577 448
3 578 577 580
3 578 580 582
3 587 579 577
3 587 577 578
3 445 442 581
3 445 581 580
3 581 583 582
3 581 582 580
3 583 585 584
3 583 584 582
3 587 578 582
3 587 582 584
3 585 605 586
3 585 586 584
3 587 584 586
3 587 586 588
3 587 588 590
3 587 590 589
3 35 579 587
3 35 587 589
3 36 589 590
3 36 590 592
3 602 591 590
3 602 590 588
3 592 590 591
3 592 591 594
3 36 592 593
3 36 593 29
3 592 594 15
3 592 15 593
3 595 594 591
3 595 591 597
3 11 15 594
3 11 594 595
3 11 595 596
3 11 596 8
3 595 597 598
3 595 598 596
3 597 599 601
3 597 601 598
3 597 591 602
3 597 602 599
3 602 603 600
3 602 600 599
3 699 601 599
3 699 599 600
3 602 588 586
3 602 586 603
3 603 604 607
3 603 607 600
3 603 586 605
3 603 605 604
3 604 605 678
3 604 678 606
3 604 606 609
3 604 609 607
3 609 611 608
3 609 608 607
3 699 600 607
3 699 607 608
3 609 610 612
3 609 612 611
3 609 606 680
3 609 680 610
3 611 612 615
3 611 615 613
3 611 613 614
3 611 614 608
3 613 616 619
3 613 619 614
3 613 615 617
3 613 617 616
3 617 687 618
3 617 618 616
3 618 621 619
3 618 619 616
3 620 619 621
3 620 621 623
3 620 695 614
3 620 614 619
3 694 622 621
3 694 621 618
3 622 625 623
3 622 623 621
3 620 623 624
3 620 624 695
3 230 624 623
3 230 623 625
3 622 627 626
3 622 626 625
3 230 625 626
3 230 626 233
3 627 630 628
3 627 628 626
3 236 233 626
3 236 626 628
3 253 236 628
3 253 628 629
3 629 628 630
3 629 630 632
3 631 633 632
3 631 632 630
3 627 634 631
3 627 631 630
3 255 253 629
3 255 629 632
3 633 257 255
3 633 255 632
3 631 635 263
3 631 263 633
3 637 635 631
3 637 631 634
3 636 635 637
3 636 637 639
3 636 265 263
3 636 263 635
3 637 638 640
3 637 640 639
3 637 634 694
3 637 694 638
3 644 641 639
3 644 639 640
3 636 639 641
3 636 641 643
3 642 653 643
3 642 643 641
3 644 646 642
3 644 642 641
3 686 645 644
3 686 644 640
3 644 645 647
3 644 647 646
3 649 648 646
3 649 646 647
3 642 646 648
3 642 648 650
3 298 648 649
3 298 649 655
3 298 296 650
3 298 650 648
3 642 650 651
3 642 651 653
3 651 650 296
3 651 296 294
3 651 294 654
3 651 654 652
3 651 652 270
3 651 270 653
3 268 643 653
3 268 653 270
3 654 278 271
3 654 271 652
3 654 288 281
3 654 281 278
3 649 656 657
3 649 657 655
3 649 647 659
3 649 659 656
3 692 657 656
3 692 656 658
3 659 661 658
3 659 658 656
3 659 660 662
3 659 662 661
3 659 647 645
3 659 645 660
3 662 664 663
3 662 663 661
3 666 658 661
3 666 661 663
3 665 663 664
3 665 664 681
3 665 668 666
3 665 666 663
3 666 667 692
3 666 692 658
3 666 668 670
3 666 670 667
3 670 668 669
3 670 669 671
3 679 669 668
3 679 668 665
3 672 670 671
3 672 671 674
3 667 670 672
3 667 672 673
3 672 436 434
3 672 434 673
3 672 674 438
3 672 438 436
3 674 675 440
3 674 440 438
3 674 671 676
3 674 676 675
3 581 442 440
3 581 440 675
3 581 675 676
3 581 676 583
3 677 676 671
3 677 671 669
3 583 676 677
3 583 677 585
3 585 677 678
3 585 678 605
3 677 669 679
3 677 679 678
3 679 680 606
3 679 606 678
3 679 665 681
3 679 681 680
3 682 610 680
3 682 680 681
3 682 681 664
3 682 664 683
3 682 683 612
3 682 612 610
3 662 684 683
3 662 683 664
3 684 615 612
3 684 612 683
3 617 615 684
3 617 684 685
3 662 660 685
3 662 685 684
3 686 685 660
3 686 660 645
3 617 685 686
3 617 686 687
3 686 640 638
3 686 638 687
3 694 618 687
3 694 687 638
3 688 673 434
3 688 434 413
3 688 691 689
3 688 689 673
3 692 667 673
3 692 673 689
3 690 689 691
3 690 691 693
3 692 689 690
3 692 690 657
3 413 410 691
3 413 691 688
3 408 693 691
3 408 691 410
3 301 693 408
3 301 408 303
3 690 693 301
3 690 301 299
3 690 299 655
3 690 655 657
3 268 265 636
3 268 636 643
3 694 634 627
3 694 627 622
3 230 697 696
3 230 696 624
3 699 695 624
3 699 624 696
3 698 696 697
3 698 697 700
3 699 696 698
3 699 698 601
3 699 608 614
3 699 614 695
3 701 698 700
3 701 700 1
3 701 598 601
3 701 601 698
3 702 701 1
3 702 1 5
3 702 596 598
3 702 598 701
3 702 5 8
3 702 8 596
3 231 2 700
3 231 700 697
3 35 38 576
3 35 576 579
3 576 38 41
3 576 41 447
3 395 393 312
3 395 312 310
3 393 391 315
3 393 315 312
3 704 315 391
3 704 391 703
3 704 703 705
3 704 705 706
3 705 703 387
3 705 387 376
3 705 377 707
3 705 707 706
3 704 706 319
3 704 319 314
3 321 319 706
3 321 706 707
3 326 707 377
3 326 377 374
3 708 337 372
3 708 372 367
3 351 341 708
3 351 708 363
3 339 148 150
3 339 150 709
3 711 335 709
3 711 709 710
3 710 709 150
3 710 150 152
3 711 710 712
3 711 712 714
3 710 152 715
3 710 715 712
3 713 712 715
3 713 715 716
3 713 795 714
3 713 714 712
3 153 718 716
3 153 716 715
3 713 716 717
3 713 717 798
3 717 716 718
3 717 718 719
3 157 721 719
3 157 719 718
3 717 719 720
3 717 720 800
3 720 719 721
3 720 721 722
3 161 724 722
3 161 722 721
3 720 722 723
3 720 723 803
3 723 722 724
3 723 724 725
3 165 727 725
3 165 725 724
3 723 725 726
3 723 726 806
3 726 725 727
3 726 727 728
3 729 730 728
3 729 728 727
3 165 167 729
3 165 729 727
3 729 731 732
3 729 732 730
3 729 167 170
3 729 170 731
3 173 733 731
3 173 731 170
3 732 731 733
3 732 733 734
3 205 209 734
3 205 734 733
3 735 734 209
3 735 209 211
3 732 734 735
3 732 735 736
3 735 211 213
3 735 213 737
3 735 737 738
3 735 738 736
3 740 738 737
3 740 737 739
3 213 215 739
3 213 739 737
3 740 739 741
3 740 741 742
3 215 217 741
3 215 741 739
3 744 742 741
3 744 741 743
3 217 746 743
3 217 743 741
3 744 743 745
3 744 745 749
3 745 743 746
3 745 746 747
3 218 748 747
3 218 747 746
3 745 747 242
3 745 242 244
3 748 239 242
3 748 242 747
3 748 221 225
3 748 225 239
3 745 244 751
3 745 751 749
3 744 749 750
3 744 750 821
3 753 750 749
3 753 749 751
3 245 841 752
3 245 752 751
3 751 752 754
3 751 754 753
3 753 754 755
3 753 755 750
3 756 755 754
3 756 754 752
3 756 759 758
3 756 758 755
3 755 757 820
3 755 820 750
3 755 758 760
3 755 760 757
3 762 761 758
3 762 758 759
3 761 764 760
3 761 760 758
3 762 835 763
3 762 763 761
3 761 763 765
3 761 765 764
3 764 765 768
3 764 768 766
3 764 766 767
3 764 767 760
3 766 769 771
3 766 771 767
3 766 768 770
3 766 770 769
3 775 772 769
3 775 769 770
3 771 769 772
3 771 772 773
3 773 772 774
3 773 774 814
3 775 777 774
3 775 774 772
3 775 776 779
3 775 779 777
3 827 776 775
3 827 775 770
3 809 774 777
3 809 777 778
3 779 781 778
3 779 778 777
3 779 780 783
3 779 783 781
3 779 776 824
3 779 824 780
3 807 778 781
3 807 781 782
3 783 785 782
3 783 782 781
3 783 784 787
3 783 787 785
3 783 780 284
3 783 284 784
3 804 782 785
3 804 785 786
3 788 786 785
3 788 785 787
3 790 788 787
3 790 787 323
3 283 323 787
3 283 787 784
3 801 786 788
3 801 788 789
3 789 788 790
3 789 790 791
3 791 790 324
3 791 324 792
3 791 792 796
3 791 796 793
3 789 791 793
3 789 793 794
3 797 794 793
3 797 793 795
3 796 714 795
3 796 795 793
3 796 792 328
3 796 328 334
3 796 334 711
3 796 711 714
3 797 795 713
3 797 713 798
3 797 798 799
3 797 799 794
3 717 800 799
3 717 799 798
3 801 789 794
3 801 794 799
3 801 799 800
3 801 800 802
3 804 786 801
3 804 801 802
3 720 803 802
3 720 802 800
3 804 802 803
3 804 803 805
3 807 782 804
3 807 804 805
3 723 806 805
3 723 805 803
3 807 805 806
3 807 806 808
3 809 778 807
3 809 807 808
3 809 808 810
3 809 810 812
3 726 810 808
3 726 808 806
3 726 728 811
3 726 811 810
3 811 813 812
3 811 812 810
3 814 812 813
3 814 813 815
3 814 774 809
3 814 809 812
3 773 814 815
3 773 815 817
3 822 816 815
3 822 815 813
3 818 817 815
3 818 815 816
3 818 821 819
3 818 819 817
3 771 773 817
3 771 817 819
3 819 821 750
3 819 750 820
3 771 819 820
3 771 820 767
3 818 742 744
3 818 744 821
3 757 760 767
3 757 767 820
3 740 742 818
3 740 818 816
3 822 738 740
3 822 740 816
3 811 823 822
3 811 822 813
3 822 823 736
3 822 736 738
3 811 728 730
3 811 730 823
3 732 736 823
3 732 823 730
3 280 284 780
3 280 780 824
3 280 824 825
3 280 825 277
3 825 824 776
3 825 776 827
3 825 826 275
3 825 275 277
3 825 827 828
3 825 828 826
3 828 827 770
3 828 770 768
3 828 829 830
3 828 830 826
3 828 768 765
3 828 765 829
3 830 829 831
3 830 831 832
3 831 829 765
3 831 765 763
3 831 833 834
3 831 834 832
3 831 763 835
3 831 835 833
3 834 833 836
3 834 836 837
3 833 835 839
3 833 839 836
3 842 837 836
3 842 836 838
3 839 249 838
3 839 838 836
3 840 839 835
3 840 835 762
3 840 247 249
3 840 249 839
3 245 247 840
3 245 840 841
3 840 762 759
3 840 759 841
3 756 752 841
3 756 841 759
3 842 838 250
3 842 250 258
3 842 258 260
3 842 260 837
3 834 837 260
3 834 260 843
3 834 843 844
3 834 844 832
3 843 261 267
3 843 267 844
3 830 832 844
3 830 844 273
3 830 273 275
3 830 275 826
3 845 138 136
3 845 136 184
3 847 845 184
3 847 184 182
3 845 846 141
3 845 141 138
3 155 846 845
3 155 845 847
3 159 847 182
3 159 182 180
3 112 117 124
3 112 124 110
3 49 40 33
3 49 33 31
