ply
format ascii 1.0
element vertex 675
property float x
property float y
property float z
element face 1260
property list uchar int vertex_index
end_header
0.801367 2.802874 -0.698887
0.791490 2.805996 -0.708204
0.802217 2.796898 -0.699847
0.798533 2.808104 -0.697395
0.796129 2.796580 -0.687800
0.796343 2.790423 -0.688728
0.793645 2.801609 -0.686881
0.789670 2.805290 -0.685789
0.793951 2.811927 -0.695714
0.785042 2.807561 -0.684534
0.788324 2.814554 -0.693863
0.780001 2.808886 -0.683004
0.782197 2.816259 -0.691884
0.774095 2.809711 -0.681082
0.774781 2.817291 -0.689464
0.766438 2.809943 -0.678361
0.764616 2.817703 -0.686000
0.757095 2.809276 -0.674708
0.752120 2.817003 -0.681465
0.747402 2.807639 -0.670590
0.739607 2.815281 -0.676772
0.738532 2.805269 -0.666770
0.728713 2.812843 -0.672799
0.730859 2.802420 -0.663521
0.719218 2.809880 -0.669795
0.724108 2.799259 -0.660461
0.711280 2.806696 -0.667510
0.719006 2.795880 -0.657604
0.704541 2.803434 -0.665687
0.714342 2.792695 -0.656916
0.698941 2.799927 -0.664858
0.710265 2.789967 -0.657062
0.693929 2.796757 -0.664560
0.707462 2.786982 -0.657915
0.689938 2.793436 -0.664801
0.705321 2.784084 -0.659152
0.687268 2.789846 -0.665416
0.704233 2.781507 -0.660704
0.685510 2.786290 -0.666322
0.703635 2.779034 -0.662519
0.685207 2.782915 -0.667451
0.703941 2.776710 -0.664457
0.685621 2.779704 -0.668857
0.705029 2.774685 -0.666322
0.687076 2.776969 -0.670316
0.706544 2.772887 -0.668470
0.689114 2.774285 -0.672219
0.708564 2.771509 -0.670546
0.692042 2.772252 -0.674064
0.710846 2.770136 -0.672760
0.694982 2.770261 -0.676260
0.713180 2.769069 -0.675254
0.698552 2.768664 -0.678783
0.716242 2.768387 -0.678417
0.702654 2.767622 -0.681965
0.719489 2.767699 -0.681680
0.707361 2.766914 -0.685665
0.723574 2.767693 -0.684904
0.712747 2.766792 -0.689462
0.727824 2.767642 -0.688336
0.718019 2.766198 -0.693901
0.732754 2.768050 -0.691395
0.724548 2.766522 -0.697924
0.738091 2.768592 -0.694022
0.731709 2.767173 -0.701514
0.743637 2.769299 -0.696105
0.739295 2.768188 -0.704361
0.749232 2.770006 -0.697602
0.746806 2.769188 -0.706471
0.754694 2.770790 -0.698470
0.754341 2.770290 -0.707506
0.760002 2.771410 -0.698981
0.761537 2.771337 -0.708092
0.765381 2.772304 -0.698867
0.768384 2.772591 -0.708254
0.769789 2.773139 -0.698587
0.773877 2.773933 -0.708157
0.773714 2.774165 -0.698013
0.778738 2.775470 -0.707907
0.777370 2.775166 -0.697513
0.783174 2.777068 -0.707522
0.780691 2.776239 -0.696649
0.787324 2.779009 -0.706685
0.783888 2.777388 -0.695187
0.791193 2.781298 -0.705353
0.786966 2.778539 -0.693407
0.794828 2.783820 -0.703841
0.789448 2.779742 -0.691849
0.798128 2.786808 -0.702066
0.793730 2.782832 -0.689006
0.800870 2.790551 -0.700790
0.792983 2.796976 -0.710152
0.793103 2.801601 -0.709414
0.784201 2.800759 -0.719737
0.791586 2.793077 -0.711036
0.783669 2.796855 -0.720368
0.789161 2.789499 -0.712096
0.782123 2.793192 -0.720762
0.786265 2.786288 -0.712842
0.782725 2.783577 -0.713500
0.779908 2.789860 -0.721026
0.776982 2.786893 -0.721096
0.772855 2.791982 -0.729746
0.770454 2.789007 -0.729484
0.774522 2.795394 -0.729733
0.765439 2.793093 -0.738734
0.766638 2.796571 -0.738903
0.763391 2.790100 -0.738241
0.757939 2.793427 -0.748137
0.756121 2.790301 -0.747484
0.750757 2.792575 -0.758126
0.758789 2.796768 -0.748453
0.751546 2.796157 -0.758555
0.758969 2.800471 -0.748428
0.767027 2.800233 -0.738763
0.751496 2.799781 -0.758731
0.758109 2.804077 -0.748112
0.750424 2.803383 -0.758589
0.756447 2.807252 -0.747548
0.766581 2.803931 -0.738351
0.775212 2.802783 -0.728957
0.765148 2.807345 -0.737577
0.762881 2.810367 -0.736598
0.774107 2.806502 -0.728054
0.772110 2.809812 -0.726897
0.783483 2.804681 -0.718741
0.781682 2.808356 -0.717459
0.778889 2.811460 -0.715974
0.769192 2.812427 -0.725526
0.775163 2.813844 -0.714327
0.788829 2.810035 -0.706660
0.784696 2.812912 -0.704919
0.779626 2.814927 -0.703054
0.770580 2.815494 -0.712537
0.774080 2.816643 -0.701046
0.765425 2.816864 -0.710596
0.767085 2.817522 -0.698660
0.756944 2.818007 -0.695334
0.758967 2.817832 -0.708333
0.748858 2.818484 -0.705139
0.750395 2.818029 -0.718410
0.740698 2.818765 -0.715469
0.756392 2.817165 -0.720466
0.741613 2.818105 -0.728914
0.732573 2.818806 -0.726268
0.732880 2.817656 -0.739837
0.747251 2.817242 -0.730781
0.738336 2.816890 -0.741524
0.752060 2.816240 -0.732484
0.761232 2.815915 -0.722304
0.756280 2.814736 -0.734029
0.743110 2.815782 -0.743063
0.747288 2.814259 -0.744464
0.734624 2.815207 -0.754154
0.729787 2.816263 -0.752721
0.738909 2.813765 -0.755458
0.726435 2.814278 -0.765790
0.721528 2.815240 -0.764400
0.718156 2.812274 -0.777771
0.730733 2.812690 -0.766987
0.734570 2.810719 -0.768026
0.722477 2.810607 -0.778873
0.714269 2.807451 -0.790977
0.726338 2.808686 -0.779774
0.718176 2.805403 -0.791741
0.729873 2.806063 -0.780435
0.732533 2.803188 -0.780760
0.737972 2.808314 -0.768724
0.721563 2.802701 -0.792251
0.724270 2.799632 -0.792484
0.713522 2.798079 -0.804020
0.716289 2.794966 -0.803978
0.710204 2.800726 -0.803677
0.705886 2.792570 -0.815660
0.708438 2.789401 -0.815420
0.698489 2.786607 -0.827135
0.702438 2.794989 -0.815266
0.698541 2.796896 -0.814496
0.695188 2.789207 -0.826850
0.691388 2.791219 -0.826198
0.682455 2.779489 -0.833309
0.684968 2.777119 -0.833367
0.679455 2.781405 -0.832902
0.676190 2.783029 -0.832282
0.687335 2.792945 -0.825343
0.672507 2.784112 -0.831317
0.682898 2.794400 -0.824261
0.668490 2.784856 -0.830128
0.677967 2.795278 -0.822836
0.664064 2.785298 -0.828758
0.672491 2.795725 -0.821178
0.659095 2.785292 -0.827194
0.666276 2.795704 -0.819380
0.653242 2.784480 -0.825341
0.658659 2.794673 -0.817176
0.646037 2.782727 -0.823232
0.649221 2.792170 -0.814549
0.638218 2.779598 -0.820995
0.639072 2.788459 -0.812019
0.630673 2.775608 -0.818975
0.629998 2.783615 -0.809808
0.624193 2.770962 -0.817198
0.622398 2.778616 -0.807907
0.618999 2.766110 -0.815431
0.616477 2.773875 -0.805846
0.615459 2.761297 -0.813480
0.612551 2.769224 -0.803464
0.613010 2.757266 -0.811349
0.609797 2.765689 -0.801122
0.611659 2.754270 -0.808984
0.608279 2.762663 -0.798637
0.610973 2.752164 -0.806531
0.607635 2.760090 -0.796077
0.611228 2.750105 -0.803502
0.607804 2.757652 -0.793275
0.611884 2.748478 -0.800514
0.608521 2.755401 -0.790429
0.613511 2.746966 -0.797445
0.610027 2.753351 -0.787664
0.615833 2.745678 -0.794471
0.612613 2.751356 -0.784884
0.618799 2.744534 -0.791932
0.616108 2.749595 -0.782683
0.622335 2.743464 -0.789874
0.620183 2.748013 -0.781075
0.626410 2.742486 -0.788618
0.624779 2.746743 -0.780101
0.630794 2.741797 -0.787972
0.629568 2.745795 -0.779592
0.635417 2.741315 -0.787722
0.634796 2.745111 -0.779447
0.640259 2.740999 -0.787874
0.640400 2.744674 -0.779634
0.645409 2.740912 -0.788542
0.646434 2.744574 -0.780352
0.650954 2.741097 -0.789834
0.653170 2.744825 -0.781706
0.656998 2.741662 -0.792032
0.660703 2.745536 -0.784030
0.663315 2.742636 -0.795079
0.668652 2.746738 -0.787395
0.669403 2.743872 -0.798772
0.676547 2.748202 -0.791433
0.675011 2.745346 -0.802999
0.683762 2.750118 -0.796289
0.679637 2.747078 -0.807537
0.689768 2.752366 -0.801345
0.682944 2.749093 -0.812121
0.694196 2.754896 -0.806144
0.685162 2.751644 -0.816328
0.697409 2.757729 -0.810312
0.686866 2.754396 -0.819865
0.699900 2.760560 -0.813754
0.688069 2.757107 -0.822984
0.701730 2.763511 -0.816847
0.688861 2.759937 -0.825929
0.703142 2.766575 -0.819572
0.689399 2.762693 -0.828171
0.704052 2.769663 -0.821755
0.689493 2.765578 -0.829920
0.704376 2.772943 -0.823569
0.689203 2.768475 -0.831273
0.703890 2.776403 -0.824995
0.688291 2.771412 -0.832279
0.702640 2.779926 -0.826041
0.686878 2.774297 -0.832984
0.700896 2.783387 -0.826805
0.710336 2.786040 -0.814855
0.718331 2.791600 -0.803624
0.711658 2.782527 -0.813999
0.719747 2.788024 -0.802991
0.712134 2.779095 -0.812814
0.720158 2.784518 -0.802016
0.711705 2.775811 -0.811271
0.719525 2.781211 -0.800691
0.710644 2.772774 -0.809445
0.718450 2.778053 -0.799153
0.709026 2.769931 -0.807298
0.716880 2.775002 -0.797392
0.706914 2.767204 -0.804758
0.714517 2.772270 -0.795299
0.704264 2.764577 -0.801870
0.711598 2.769803 -0.792775
0.700720 2.762149 -0.798524
0.707929 2.767645 -0.789945
0.695972 2.759653 -0.794463
0.689643 2.757247 -0.789914
0.702976 2.765304 -0.786507
0.696490 2.762845 -0.782401
0.710486 2.769495 -0.777910
0.717815 2.772888 -0.768763
0.715297 2.771810 -0.780861
0.703767 2.766967 -0.774079
0.711139 2.770332 -0.765312
0.695378 2.764691 -0.769896
0.688346 2.760889 -0.778046
0.686307 2.762657 -0.766014
0.702608 2.767816 -0.761288
0.693209 2.765483 -0.757462
0.709802 2.770537 -0.752453
0.716815 2.772608 -0.743709
0.718306 2.773050 -0.756292
0.700316 2.768077 -0.748696
0.707437 2.770223 -0.740090
0.690419 2.765870 -0.745470
0.683584 2.763541 -0.754364
0.697488 2.768147 -0.736805
0.681422 2.764193 -0.743363
0.674931 2.762106 -0.752337
0.674069 2.763138 -0.742255
0.688218 2.766622 -0.734369
0.680728 2.765713 -0.732973
0.695339 2.768905 -0.726004
0.704286 2.770143 -0.729072
0.702013 2.770485 -0.718954
0.687651 2.768218 -0.724023
0.681372 2.767898 -0.722585
0.694602 2.770193 -0.716089
0.701235 2.770866 -0.709321
0.688261 2.770161 -0.714069
0.682658 2.770430 -0.712655
0.695104 2.771099 -0.706637
0.689390 2.771731 -0.704627
0.701604 2.770757 -0.700052
0.707491 2.770697 -0.703332
0.696125 2.771512 -0.697107
0.707456 2.769486 -0.694398
0.713165 2.769218 -0.698160
0.702127 2.769904 -0.690955
0.697526 2.770967 -0.687891
0.693509 2.772336 -0.685542
0.691328 2.772701 -0.695024
0.684605 2.772689 -0.703119
0.687268 2.773993 -0.693573
0.680476 2.773870 -0.702083
0.683474 2.775281 -0.692395
0.676733 2.775237 -0.701282
0.680421 2.777212 -0.691581
0.689534 2.773637 -0.683917
0.686767 2.775654 -0.682573
0.683932 2.777593 -0.681332
0.681997 2.780217 -0.680344
0.677592 2.779217 -0.690858
0.675716 2.781955 -0.690419
0.670382 2.779149 -0.700158
0.668341 2.782079 -0.699909
0.663034 2.777952 -0.709483
0.673198 2.776789 -0.700583
0.665949 2.775612 -0.709795
0.669416 2.773624 -0.710254
0.658612 2.773674 -0.719462
0.662008 2.771432 -0.719744
0.656093 2.776465 -0.719435
0.651592 2.771550 -0.729800
0.654815 2.769152 -0.729885
0.648920 2.774369 -0.729831
0.644298 2.769269 -0.740147
0.641629 2.772264 -0.740203
0.638271 2.767941 -0.750195
0.647662 2.766792 -0.740191
0.641653 2.765556 -0.750117
0.651674 2.764733 -0.740308
0.645632 2.763505 -0.750127
0.658882 2.767265 -0.730204
0.656416 2.763418 -0.740595
0.650388 2.762339 -0.750233
0.663572 2.766130 -0.730636
0.661694 2.762805 -0.741042
0.667533 2.762694 -0.741581
0.668712 2.765524 -0.731190
0.655555 2.761414 -0.750425
0.649951 2.760081 -0.759225
0.661357 2.761138 -0.750770
0.655499 2.759624 -0.759485
0.667817 2.761377 -0.751325
0.661689 2.759583 -0.760038
0.668714 2.759998 -0.761079
0.655926 2.756857 -0.768186
0.662865 2.757006 -0.769204
0.649912 2.756982 -0.767634
0.650750 2.751696 -0.775096
0.657587 2.751869 -0.776229
0.644747 2.751747 -0.774540
0.639367 2.752215 -0.774324
0.644559 2.757417 -0.767410
0.634478 2.752994 -0.774357
0.629914 2.754089 -0.774729
0.639748 2.758290 -0.767448
0.644919 2.760945 -0.759154
0.635312 2.759561 -0.767705
0.631204 2.760854 -0.768043
0.640336 2.762116 -0.759194
0.636343 2.763883 -0.759413
0.632883 2.766084 -0.759785
0.627747 2.762774 -0.768717
0.630112 2.768754 -0.760406
0.627925 2.771596 -0.761191
0.635521 2.770777 -0.750393
0.624945 2.765105 -0.769747
0.622552 2.767647 -0.770922
0.618754 2.759175 -0.777857
0.621912 2.757133 -0.776384
0.616146 2.761514 -0.779606
0.614765 2.764110 -0.781831
0.614160 2.766528 -0.784050
0.621063 2.770352 -0.772340
0.620480 2.773309 -0.774050
0.626460 2.774640 -0.762198
0.625898 2.777902 -0.763371
0.632370 2.777373 -0.751468
0.633667 2.774000 -0.750801
0.631991 2.780923 -0.752393
0.638791 2.779257 -0.740834
0.639687 2.775620 -0.740397
0.646155 2.781075 -0.730342
0.638796 2.782887 -0.741497
0.646034 2.784715 -0.730855
0.639452 2.786495 -0.742316
0.646855 2.788419 -0.731584
0.632157 2.784450 -0.753379
0.640827 2.790126 -0.743340
0.648280 2.792209 -0.732496
0.642877 2.793799 -0.744579
0.633491 2.787878 -0.754567
0.635473 2.791315 -0.755977
0.626895 2.784339 -0.766125
0.621192 2.778888 -0.777491
0.628700 2.787501 -0.767738
0.625836 2.781152 -0.764660
0.620486 2.775982 -0.775692
0.614114 2.769062 -0.786205
0.614772 2.771731 -0.788333
0.616232 2.774441 -0.790433
0.622781 2.781827 -0.779376
0.618662 2.777620 -0.792654
0.622389 2.781091 -0.794795
0.625000 2.784917 -0.781316
0.628468 2.788336 -0.783357
0.631359 2.790715 -0.769523
0.638306 2.794679 -0.757605
0.635037 2.793902 -0.771407
0.640016 2.796972 -0.773299
0.642029 2.797980 -0.759382
0.646899 2.801172 -0.761296
0.649439 2.800865 -0.747730
0.645771 2.797366 -0.746045
0.654220 2.804281 -0.749615
0.656816 2.803495 -0.736421
0.653259 2.799766 -0.734888
0.661451 2.807030 -0.738127
0.664268 2.805804 -0.725004
0.660533 2.801941 -0.723793
0.671706 2.807120 -0.713463
0.668972 2.809295 -0.726368
0.676465 2.810763 -0.714435
0.674834 2.812501 -0.727808
0.681997 2.815283 -0.729171
0.667317 2.810394 -0.739828
0.682520 2.813893 -0.715566
0.690478 2.813736 -0.703558
0.689721 2.816346 -0.716876
0.697765 2.816054 -0.704844
0.698086 2.817968 -0.718399
0.690670 2.817149 -0.730566
0.708347 2.818820 -0.720468
0.705960 2.817634 -0.706563
0.715955 2.818573 -0.708942
0.713845 2.816488 -0.694959
0.721338 2.814710 -0.683660
0.705569 2.814795 -0.692962
0.723760 2.817752 -0.697718
0.731675 2.816509 -0.686992
0.736281 2.818497 -0.701361
0.728337 2.818984 -0.712081
0.744282 2.817687 -0.691190
0.720577 2.819060 -0.723249
0.713170 2.818465 -0.734869
0.724614 2.818308 -0.737533
0.701168 2.818066 -0.732442
0.706161 2.817358 -0.746860
0.694423 2.816674 -0.744579
0.716872 2.817390 -0.749254
0.699261 2.816098 -0.759047
0.692364 2.814086 -0.771365
0.687903 2.814789 -0.756808
0.709037 2.816602 -0.761246
0.716096 2.816127 -0.762971
0.701241 2.814394 -0.773397
0.707974 2.814242 -0.775072
0.693602 2.811373 -0.785635
0.685475 2.811105 -0.783701
0.686139 2.806939 -0.797729
0.699959 2.811075 -0.787261
0.705184 2.810395 -0.788695
0.692002 2.806926 -0.799426
0.684763 2.801048 -0.811136
0.697210 2.806118 -0.800885
0.689844 2.800152 -0.812526
0.701961 2.804758 -0.802053
0.706303 2.802981 -0.803013
0.709886 2.809063 -0.789911
0.694402 2.798712 -0.813627
0.679119 2.801363 -0.809506
0.672609 2.801216 -0.807716
0.678978 2.806587 -0.795850
0.664164 2.799975 -0.805458
0.669653 2.805146 -0.793558
0.653904 2.797427 -0.802958
0.658862 2.802414 -0.791143
0.643571 2.793591 -0.800570
0.634574 2.789458 -0.798685
0.648389 2.798982 -0.788983
0.639925 2.795343 -0.787113
0.654287 2.803336 -0.777047
0.646318 2.800115 -0.775161
0.664366 2.806598 -0.779119
0.660851 2.807139 -0.765115
0.670486 2.809871 -0.767003
0.653156 2.804203 -0.763246
0.667859 2.810254 -0.753254
0.677055 2.812599 -0.754857
0.674696 2.813343 -0.741340
0.660278 2.807456 -0.751536
0.683688 2.815249 -0.742733
0.681584 2.812287 -0.769097
0.675394 2.809425 -0.781409
0.633515 2.791681 -0.785288
0.627697 2.785104 -0.796865
0.713394 2.813477 -0.776492
0.724266 2.817020 -0.751154
0.698312 2.812291 -0.691732
0.712799 2.812692 -0.681313
0.705248 2.809883 -0.679939
0.698960 2.806834 -0.679082
0.693765 2.803613 -0.678552
0.692249 2.809195 -0.691007
0.684289 2.810751 -0.702615
0.687387 2.805824 -0.690552
0.683420 2.802532 -0.690216
0.679527 2.807154 -0.701978
0.675846 2.803402 -0.701464
0.672886 2.799721 -0.700990
0.667972 2.803173 -0.712620
0.665091 2.799347 -0.711868
0.657579 2.798055 -0.722737
0.662821 2.795585 -0.711166
0.655443 2.794174 -0.721810
0.661245 2.791892 -0.710561
0.670568 2.796139 -0.700583
0.668848 2.792597 -0.700251
0.677590 2.795604 -0.689827
0.675786 2.792041 -0.689801
0.680202 2.799078 -0.689960
0.683041 2.793652 -0.678457
0.685975 2.797084 -0.678308
0.681332 2.790082 -0.678686
0.680558 2.786607 -0.679056
0.674686 2.788524 -0.689868
0.680623 2.783220 -0.679608
0.674561 2.784993 -0.690107
0.667359 2.785445 -0.699840
0.660109 2.784693 -0.709674
0.667721 2.788980 -0.699978
0.660366 2.788203 -0.710071
0.653178 2.786684 -0.720381
0.653134 2.783037 -0.719875
0.653954 2.790372 -0.721025
0.654200 2.779579 -0.719571
0.647033 2.777552 -0.729981
0.661169 2.781154 -0.709490
0.689520 2.800398 -0.678289
0.650341 2.796006 -0.733587
0.625655 2.755452 -0.775409
0.665442 2.752517 -0.778300
0.670989 2.757605 -0.771084
0.673717 2.753725 -0.781411
0.679639 2.759096 -0.774140
0.681959 2.755299 -0.785377
0.677116 2.760989 -0.762957
0.675797 2.768180 -0.721493
0.674362 2.765284 -0.731959
0.670663 2.768879 -0.720693
0.677662 2.771192 -0.711626
0.666091 2.769775 -0.720175
0.673319 2.772283 -0.710859
0.719816 2.769206 -0.702142
0.727404 2.770056 -0.705752
0.714295 2.770609 -0.707101
0.708291 2.770874 -0.712777
0.722332 2.771830 -0.710685
0.716537 2.772097 -0.716340
0.730606 2.773128 -0.713889
0.738808 2.774353 -0.716341
0.725224 2.773545 -0.719721
0.735240 2.771029 -0.708801
0.743178 2.772335 -0.711011
0.751071 2.773525 -0.712331
0.746997 2.775984 -0.717837
0.758586 2.774877 -0.712936
0.765062 2.776128 -0.713465
0.754695 2.777640 -0.718748
0.760894 2.778980 -0.719573
0.749802 2.778927 -0.725544
0.742107 2.777118 -0.724220
0.744327 2.779277 -0.732998
0.755828 2.780551 -0.726690
0.760444 2.782587 -0.727579
0.749940 2.781391 -0.734489
0.754228 2.783340 -0.735679
0.743520 2.781091 -0.742940
0.747483 2.783221 -0.744355
0.738401 2.778784 -0.741142
0.736716 2.779686 -0.752167
0.731849 2.777455 -0.750109
0.740611 2.781683 -0.753759
0.729726 2.777725 -0.761742
0.724904 2.775501 -0.759468
0.722545 2.775173 -0.771422
0.733583 2.779872 -0.763527
0.726420 2.777502 -0.773609
0.736931 2.782235 -0.765101
0.744016 2.783917 -0.755144
0.739676 2.784884 -0.766441
0.729596 2.779930 -0.775294
0.722154 2.776495 -0.785465
0.732294 2.782634 -0.776780
0.724741 2.779199 -0.787169
0.734371 2.785547 -0.778116
0.726499 2.782300 -0.788689
0.741887 2.787849 -0.767608
0.735833 2.788779 -0.779263
0.743459 2.791023 -0.768542
0.736239 2.792382 -0.780105
0.727703 2.785546 -0.789986
0.728251 2.789011 -0.791071
0.727919 2.792660 -0.791910
0.736069 2.796078 -0.780711
0.726436 2.796205 -0.792337
0.734615 2.799680 -0.780903
0.742570 2.801929 -0.769563
0.740639 2.805319 -0.769224
0.743858 2.798336 -0.769532
0.744079 2.794613 -0.769167
0.748562 2.806630 -0.758156
0.745848 2.809606 -0.757478
0.754068 2.810163 -0.746738
0.742650 2.811873 -0.756579
0.750982 2.812489 -0.745696
0.759920 2.812851 -0.735399
0.749078 2.789411 -0.757311
0.746826 2.786517 -0.756329
0.753773 2.787542 -0.746648
0.760867 2.787405 -0.737588
0.750850 2.785188 -0.745603
0.757756 2.785238 -0.736698
0.764221 2.784417 -0.728339
0.770020 2.782560 -0.720598
0.767550 2.786477 -0.728999
0.773720 2.784585 -0.720918
0.778966 2.781411 -0.713773
0.774882 2.779432 -0.713860
0.770369 2.777733 -0.713745
0.765900 2.780727 -0.720182
0.719085 2.774028 -0.783380
0.725169 2.775045 -0.747253
0.731561 2.776421 -0.738676
0.723069 2.774080 -0.735809
0.737077 2.777090 -0.731114
0.728572 2.774967 -0.728897
0.733821 2.775169 -0.722417
0.719629 2.773079 -0.725957
0.713812 2.771913 -0.732608
0.710472 2.771526 -0.722471
0.765605 2.814554 -0.724008
0.775301 2.799031 -0.729483
3 0 1 130
3 0 130 3
3 92 1 0
3 92 0 2
3 0 4 5
3 0 5 2
3 0 3 6
3 0 6 4
3 6 3 8
3 6 8 7
3 10 9 7
3 10 7 8
3 10 12 11
3 10 11 9
3 11 12 14
3 11 14 13
3 15 13 14
3 15 14 16
3 15 16 18
3 15 18 17
3 19 17 18
3 19 18 20
3 19 20 22
3 19 22 21
3 22 24 23
3 22 23 21
3 25 23 24
3 25 24 26
3 25 26 28
3 25 28 27
3 28 30 29
3 28 29 27
3 30 32 31
3 30 31 29
3 31 32 34
3 31 34 33
3 36 35 33
3 36 33 34
3 36 38 37
3 36 37 35
3 37 38 40
3 37 40 39
3 39 40 42
3 39 42 41
3 41 42 44
3 41 44 43
3 43 44 46
3 43 46 45
3 45 46 48
3 45 48 47
3 47 48 50
3 47 50 49
3 49 50 52
3 49 52 51
3 51 52 54
3 51 54 53
3 53 54 56
3 53 56 55
3 55 56 58
3 55 58 57
3 57 58 60
3 57 60 59
3 59 60 62
3 59 62 61
3 61 62 64
3 61 64 63
3 63 64 66
3 63 66 65
3 65 66 68
3 65 68 67
3 68 70 69
3 68 69 67
3 70 72 71
3 70 71 69
3 72 74 73
3 72 73 71
3 74 76 75
3 74 75 73
3 76 78 77
3 76 77 75
3 78 80 79
3 78 79 77
3 80 82 81
3 80 81 79
3 82 84 83
3 82 83 81
3 85 83 84
3 85 84 86
3 85 86 88
3 85 88 87
3 89 87 88
3 89 88 90
3 89 90 2
3 89 2 5
3 91 92 2
3 91 2 90
3 94 91 90
3 94 90 88
3 91 93 125
3 91 125 92
3 94 95 93
3 94 93 91
3 86 96 94
3 86 94 88
3 94 96 97
3 94 97 95
3 100 97 96
3 100 96 98
3 86 84 98
3 86 98 96
3 82 99 98
3 82 98 84
3 99 101 100
3 99 100 98
3 100 101 103
3 100 103 102
3 100 102 104
3 100 104 97
3 107 105 102
3 107 102 103
3 104 102 105
3 104 105 106
3 108 111 106
3 108 106 105
3 107 109 108
3 107 108 105
3 108 109 649
3 108 649 110
3 108 110 112
3 108 112 111
3 111 112 115
3 111 115 113
3 111 113 114
3 111 114 106
3 113 116 119
3 113 119 114
3 113 115 117
3 113 117 116
3 116 117 643
3 116 643 118
3 116 118 121
3 116 121 119
3 674 114 119
3 674 119 120
3 120 119 121
3 120 121 123
3 118 645 122
3 118 122 121
3 123 121 122
3 123 122 124
3 123 124 126
3 123 126 125
3 120 123 125
3 120 125 93
3 92 125 126
3 92 126 1
3 124 128 127
3 124 127 126
3 127 130 1
3 127 1 126
3 127 128 673
3 127 673 129
3 127 129 131
3 127 131 130
3 131 8 3
3 131 3 130
3 131 129 133
3 131 133 132
3 131 132 10
3 131 10 8
3 135 134 132
3 135 132 133
3 10 132 134
3 10 134 12
3 135 138 136
3 135 136 134
3 136 14 12
3 136 12 134
3 16 14 136
3 16 136 137
3 138 139 137
3 138 137 136
3 138 140 141
3 138 141 139
3 135 142 140
3 135 140 138
3 141 140 143
3 141 143 144
3 143 140 142
3 143 142 146
3 145 477 144
3 145 144 143
3 147 145 143
3 147 143 146
3 147 146 148
3 147 148 151
3 149 148 146
3 149 146 142
3 150 148 149
3 150 149 673
3 150 152 151
3 150 151 148
3 153 154 147
3 153 147 151
3 153 151 152
3 153 152 155
3 153 156 157
3 153 157 154
3 159 156 153
3 159 153 155
3 528 157 156
3 528 156 158
3 159 161 158
3 159 158 156
3 160 163 161
3 160 161 159
3 160 159 155
3 160 155 646
3 162 500 158
3 162 158 161
3 164 162 161
3 164 161 163
3 168 164 163
3 168 163 165
3 167 165 163
3 167 163 160
3 169 168 165
3 169 165 166
3 640 166 165
3 640 165 167
3 168 170 172
3 168 172 164
3 169 171 170
3 169 170 168
3 174 173 170
3 174 170 171
3 173 176 172
3 173 172 170
3 174 266 175
3 174 175 173
3 173 175 178
3 173 178 176
3 176 178 179
3 176 179 177
3 176 177 499
3 176 499 172
3 180 182 179
3 180 179 178
3 181 180 178
3 181 178 175
3 182 183 184
3 182 184 179
3 183 185 186
3 183 186 184
3 185 187 188
3 185 188 186
3 190 188 187
3 190 187 189
3 190 189 191
3 190 191 192
3 192 191 193
3 192 193 194
3 194 193 195
3 194 195 196
3 196 195 197
3 196 197 198
3 198 197 199
3 198 199 200
3 200 199 201
3 200 201 202
3 202 201 203
3 202 203 204
3 204 203 205
3 204 205 206
3 206 205 207
3 206 207 208
3 208 207 209
3 208 209 210
3 210 209 211
3 210 211 212
3 212 211 213
3 212 213 214
3 214 213 215
3 214 215 216
3 216 215 217
3 216 217 218
3 219 220 218
3 219 218 217
3 221 222 220
3 221 220 219
3 221 223 224
3 221 224 222
3 224 223 225
3 224 225 226
3 227 228 226
3 227 226 225
3 230 228 227
3 230 227 229
3 230 229 231
3 230 231 232
3 232 231 233
3 232 233 234
3 234 233 235
3 234 235 236
3 236 235 237
3 236 237 238
3 238 237 239
3 238 239 240
3 240 239 241
3 240 241 242
3 242 241 243
3 242 243 244
3 243 245 246
3 243 246 244
3 248 246 245
3 248 245 247
3 248 247 249
3 248 249 250
3 249 251 252
3 249 252 250
3 251 253 254
3 251 254 252
3 253 255 256
3 253 256 254
3 255 257 258
3 255 258 256
3 257 259 260
3 257 260 258
3 259 261 262
3 259 262 260
3 261 263 264
3 261 264 262
3 263 265 266
3 263 266 264
3 265 181 175
3 265 175 266
3 267 264 266
3 267 266 174
3 269 262 264
3 269 264 267
3 267 174 171
3 267 171 268
3 269 267 268
3 269 268 270
3 271 260 262
3 271 262 269
3 271 269 270
3 271 270 272
3 273 258 260
3 273 260 271
3 273 271 272
3 273 272 274
3 275 273 274
3 275 274 276
3 275 256 258
3 275 258 273
3 277 254 256
3 277 256 275
3 277 275 276
3 277 276 278
3 279 252 254
3 279 254 277
3 279 277 278
3 279 278 280
3 279 281 250
3 279 250 252
3 282 281 279
3 282 279 280
3 282 284 283
3 282 283 281
3 248 250 281
3 248 281 283
3 285 283 284
3 285 284 287
3 285 246 248
3 285 248 283
3 285 286 244
3 285 244 246
3 288 286 285
3 288 285 287
3 288 287 289
3 288 289 292
3 291 289 287
3 291 287 284
3 293 292 289
3 293 289 290
3 290 289 291
3 290 291 617
3 295 288 292
3 295 292 294
3 297 294 292
3 297 292 293
3 576 295 294
3 576 294 296
3 298 296 294
3 298 294 297
3 298 297 299
3 298 299 302
3 297 293 301
3 297 301 299
3 303 302 299
3 303 299 300
3 300 299 301
3 300 301 664
3 305 298 302
3 305 302 304
3 306 304 302
3 306 302 303
3 308 305 304
3 308 304 307
3 310 307 304
3 310 304 306
3 374 308 307
3 374 307 309
3 310 311 309
3 310 309 307
3 315 311 310
3 315 310 312
3 310 306 313
3 310 313 312
3 672 314 312
3 672 312 313
3 315 312 314
3 315 314 317
3 316 580 311
3 316 311 315
3 316 315 317
3 316 317 319
3 318 317 314
3 318 314 588
3 321 319 317
3 321 317 318
3 322 320 319
3 322 319 321
3 579 316 319
3 579 319 320
3 321 318 324
3 321 324 323
3 322 321 323
3 322 323 325
3 326 323 324
3 326 324 327
3 328 325 323
3 328 323 326
3 326 327 60
3 326 60 58
3 328 326 58
3 328 58 56
3 329 331 325
3 329 325 328
3 329 328 56
3 329 56 54
3 330 329 54
3 330 54 52
3 330 333 331
3 330 331 329
3 332 322 325
3 332 325 331
3 334 332 331
3 334 331 333
3 338 335 333
3 338 333 330
3 336 334 333
3 336 333 335
3 347 336 335
3 347 335 337
3 339 337 335
3 339 335 338
3 338 330 52
3 338 52 50
3 339 338 50
3 339 50 48
3 340 342 337
3 340 337 339
3 340 339 48
3 340 48 46
3 341 340 46
3 341 46 44
3 341 343 342
3 341 342 340
3 344 347 337
3 344 337 342
3 345 344 342
3 345 342 343
3 345 569 346
3 345 346 344
3 344 346 348
3 344 348 347
3 347 348 349
3 347 349 336
3 350 351 349
3 350 349 348
3 352 350 348
3 352 348 346
3 350 353 354
3 350 354 351
3 352 355 353
3 352 353 350
3 356 359 354
3 356 354 353
3 357 356 353
3 357 353 355
3 357 397 358
3 357 358 356
3 356 358 360
3 356 360 359
3 359 360 362
3 359 362 361
3 359 361 363
3 359 363 354
3 361 362 365
3 361 365 364
3 361 364 366
3 361 366 363
3 364 365 370
3 364 370 367
3 364 367 369
3 364 369 366
3 367 370 372
3 367 372 368
3 367 368 580
3 367 580 369
3 388 371 370
3 388 370 365
3 371 373 372
3 371 372 370
3 374 372 373
3 374 373 375
3 368 372 374
3 368 374 309
3 374 375 376
3 374 376 308
3 377 378 376
3 377 376 375
3 379 377 375
3 379 375 373
3 377 380 381
3 377 381 378
3 379 382 380
3 379 380 377
3 234 236 381
3 234 381 380
3 232 234 380
3 232 380 382
3 379 384 383
3 379 383 382
3 230 232 382
3 230 382 383
3 385 383 384
3 385 384 387
3 385 228 230
3 385 230 383
3 386 226 228
3 386 228 385
3 386 385 387
3 386 387 389
3 391 389 387
3 391 387 388
3 388 387 384
3 388 384 371
3 386 389 390
3 386 390 572
3 392 390 389
3 392 389 391
3 392 391 362
3 392 362 360
3 391 388 365
3 391 365 362
3 393 394 390
3 393 390 392
3 393 392 360
3 393 360 358
3 398 394 393
3 398 393 395
3 393 358 397
3 393 397 395
3 410 396 395
3 410 395 397
3 398 395 396
3 398 396 399
3 398 400 401
3 398 401 394
3 402 400 398
3 402 398 399
3 222 401 400
3 222 400 220
3 402 218 220
3 402 220 400
3 402 399 405
3 402 405 403
3 216 218 402
3 216 402 403
3 214 216 403
3 214 403 404
3 406 404 403
3 406 403 405
3 407 405 399
3 407 399 396
3 406 405 407
3 406 407 408
3 407 396 410
3 407 410 409
3 407 409 411
3 407 411 408
3 410 413 412
3 410 412 409
3 415 411 409
3 415 409 412
3 414 412 413
3 414 413 568
3 415 412 414
3 415 414 416
3 415 416 418
3 415 418 417
3 419 411 415
3 419 415 417
3 421 420 417
3 421 417 418
3 423 419 417
3 423 417 420
3 571 422 420
3 571 420 421
3 424 423 420
3 424 420 422
3 424 427 425
3 424 425 423
3 423 425 428
3 423 428 419
3 426 429 428
3 426 428 425
3 433 426 425
3 433 425 427
3 429 406 408
3 429 408 428
3 419 428 408
3 419 408 411
3 429 430 404
3 429 404 406
3 426 431 430
3 426 430 429
3 212 214 404
3 212 404 430
3 210 212 430
3 210 430 431
3 433 432 431
3 433 431 426
3 208 210 431
3 208 431 432
3 436 434 432
3 436 432 433
3 206 208 432
3 206 432 434
3 437 435 434
3 437 434 436
3 204 206 434
3 204 434 435
3 436 433 427
3 436 427 438
3 437 436 438
3 437 438 440
3 439 438 427
3 439 427 424
3 442 440 438
3 442 438 439
3 443 441 440
3 443 440 442
3 526 437 440
3 526 440 441
3 442 439 445
3 442 445 444
3 443 442 444
3 443 444 446
3 447 444 445
3 447 445 448
3 449 446 444
3 449 444 447
3 447 448 451
3 447 451 450
3 449 447 450
3 449 450 453
3 452 450 451
3 452 451 542
3 454 453 450
3 454 450 452
3 458 455 453
3 458 453 454
3 457 449 453
3 457 453 455
3 521 457 455
3 521 455 456
3 460 456 455
3 460 455 458
3 458 454 536
3 458 536 459
3 460 458 459
3 460 459 461
3 465 462 460
3 465 460 461
3 460 462 463
3 460 463 456
3 478 463 462
3 478 462 464
3 465 466 464
3 465 464 462
3 470 466 465
3 470 465 467
3 465 461 469
3 465 469 467
3 470 467 468
3 470 468 471
3 531 468 467
3 531 467 469
3 470 472 473
3 470 473 466
3 474 472 470
3 474 470 471
3 474 137 139
3 474 139 472
3 141 473 472
3 141 472 139
3 16 137 474
3 16 474 18
3 474 471 20
3 474 20 18
3 141 144 475
3 141 475 473
3 475 464 466
3 475 466 473
3 475 144 477
3 475 477 476
3 475 476 478
3 475 478 464
3 481 479 476
3 481 476 477
3 478 476 479
3 478 479 480
3 482 484 480
3 482 480 479
3 481 485 482
3 481 482 479
3 482 485 487
3 482 487 483
3 482 483 524
3 482 524 484
3 481 529 486
3 481 486 485
3 488 487 485
3 488 485 486
3 488 492 489
3 488 489 487
3 489 490 483
3 489 483 487
3 489 491 504
3 489 504 490
3 489 492 494
3 489 494 491
3 528 493 492
3 528 492 488
3 494 492 493
3 494 493 496
3 495 502 491
3 495 491 494
3 497 495 494
3 497 494 496
3 501 497 496
3 501 496 498
3 500 498 496
3 500 496 493
3 177 501 498
3 177 498 499
3 162 499 498
3 162 498 500
3 501 184 186
3 501 186 497
3 177 179 184
3 177 184 501
3 500 493 528
3 500 528 158
3 164 172 499
3 164 499 162
3 497 186 188
3 497 188 495
3 495 188 190
3 495 190 502
3 190 192 503
3 190 503 502
3 504 491 502
3 504 502 503
3 504 503 505
3 504 505 506
3 192 194 505
3 192 505 503
3 506 505 507
3 506 507 508
3 194 196 507
3 194 507 505
3 508 507 509
3 508 509 511
3 196 198 509
3 196 509 507
3 198 200 510
3 198 510 509
3 511 509 510
3 511 510 512
3 508 511 513
3 508 513 515
3 511 512 514
3 511 514 513
3 516 513 514
3 516 514 518
3 517 515 513
3 517 513 516
3 517 516 519
3 517 519 520
3 516 518 522
3 516 522 519
3 523 520 519
3 523 519 521
3 521 519 522
3 521 522 457
3 457 522 446
3 457 446 449
3 518 443 446
3 518 446 522
3 523 521 456
3 523 456 463
3 523 480 484
3 523 484 520
3 478 480 523
3 478 523 463
3 524 517 520
3 524 520 484
3 518 514 441
3 518 441 443
3 524 525 515
3 524 515 517
3 524 483 490
3 524 490 525
3 504 506 525
3 504 525 490
3 506 508 515
3 506 515 525
3 512 526 441
3 512 441 514
3 512 510 527
3 512 527 526
3 526 527 435
3 526 435 437
3 200 202 527
3 200 527 510
3 202 204 435
3 202 435 527
3 528 488 486
3 528 486 157
3 486 529 154
3 486 154 157
3 145 529 481
3 145 481 477
3 147 154 529
3 147 529 145
3 22 20 471
3 22 471 468
3 530 469 461
3 530 461 459
3 531 469 530
3 531 530 532
3 531 532 26
3 531 26 24
3 22 468 531
3 22 531 24
3 28 26 532
3 28 532 533
3 530 535 533
3 530 533 532
3 28 533 534
3 28 534 30
3 535 537 534
3 535 534 533
3 530 459 536
3 530 536 535
3 535 536 539
3 535 539 537
3 537 538 570
3 537 570 534
3 537 539 540
3 537 540 538
3 452 542 540
3 452 540 539
3 454 452 539
3 454 539 536
3 538 540 541
3 538 541 552
3 542 543 541
3 542 541 540
3 542 451 544
3 542 544 543
3 543 544 546
3 543 546 545
3 543 545 548
3 543 548 541
3 566 547 545
3 566 545 546
3 548 545 547
3 548 547 549
3 548 549 551
3 548 551 550
3 548 550 552
3 548 552 541
3 551 555 553
3 551 553 550
3 554 552 550
3 554 550 553
3 554 553 36
3 554 36 34
3 36 553 555
3 36 555 38
3 551 557 556
3 551 556 555
3 556 40 38
3 556 38 555
3 556 558 42
3 556 42 40
3 556 557 559
3 556 559 558
3 558 341 44
3 558 44 42
3 558 559 343
3 558 343 341
3 560 345 343
3 560 343 559
3 560 559 557
3 560 557 562
3 560 561 569
3 560 569 345
3 563 561 560
3 563 560 562
3 563 562 549
3 563 549 547
3 551 549 562
3 551 562 557
3 563 564 565
3 563 565 561
3 566 564 563
3 566 563 547
3 566 418 416
3 566 416 564
3 414 565 564
3 414 564 416
3 421 418 566
3 421 566 546
3 414 568 567
3 414 567 565
3 567 569 561
3 567 561 565
3 567 352 346
3 567 346 569
3 567 568 355
3 567 355 352
3 357 355 568
3 357 568 413
3 554 34 32
3 554 32 570
3 538 552 554
3 538 554 570
3 30 534 570
3 30 570 32
3 571 421 546
3 571 546 544
3 448 571 544
3 448 544 451
3 448 445 422
3 448 422 571
3 439 424 422
3 439 422 445
3 410 397 357
3 410 357 413
3 224 572 401
3 224 401 222
3 572 390 394
3 572 394 401
3 224 226 386
3 224 386 572
3 371 384 379
3 371 379 373
3 378 381 573
3 378 573 574
3 236 238 573
3 236 573 381
3 238 240 575
3 238 575 573
3 574 573 575
3 574 575 576
3 576 575 577
3 576 577 295
3 240 242 577
3 240 577 575
3 242 244 286
3 242 286 577
3 295 577 286
3 295 286 288
3 574 576 296
3 574 296 578
3 378 574 578
3 378 578 376
3 305 578 296
3 305 296 298
3 308 376 578
3 308 578 305
3 579 369 580
3 579 580 316
3 581 366 369
3 581 369 579
3 368 309 311
3 368 311 580
3 581 579 320
3 581 320 582
3 583 581 582
3 583 582 584
3 583 363 366
3 583 366 581
3 351 354 363
3 351 363 583
3 351 583 584
3 351 584 349
3 336 349 584
3 336 584 334
3 334 584 582
3 334 582 332
3 332 582 320
3 332 320 322
3 327 324 587
3 327 587 585
3 327 585 62
3 327 62 60
3 585 586 64
3 585 64 62
3 585 587 589
3 585 589 586
3 588 590 589
3 588 589 587
3 318 588 587
3 318 587 324
3 591 589 590
3 591 590 593
3 586 589 591
3 586 591 594
3 591 592 595
3 591 595 594
3 591 593 669
3 591 669 592
3 68 66 594
3 68 594 595
3 586 594 66
3 586 66 64
3 68 595 596
3 68 596 70
3 592 597 596
3 592 596 595
3 70 596 598
3 70 598 72
3 597 600 598
3 597 598 596
3 600 601 599
3 600 599 598
3 72 598 599
3 72 599 74
3 600 602 605
3 600 605 601
3 597 603 602
3 597 602 600
3 667 604 602
3 667 602 603
3 604 607 605
3 604 605 602
3 607 608 606
3 607 606 605
3 601 605 606
3 601 606 662
3 607 609 610
3 607 610 608
3 604 611 609
3 604 609 607
3 612 614 610
3 612 610 609
3 613 612 609
3 613 609 611
3 613 616 615
3 613 615 612
3 612 615 618
3 612 618 614
3 290 617 615
3 290 615 616
3 618 615 617
3 618 617 619
3 618 619 623
3 618 623 620
3 618 620 621
3 618 621 614
3 650 621 620
3 650 620 622
3 623 625 622
3 623 622 620
3 623 624 626
3 623 626 625
3 623 619 663
3 623 663 624
3 626 628 627
3 626 627 625
3 629 622 625
3 629 625 627
3 628 633 630
3 628 630 627
3 629 627 630
3 629 630 631
3 631 630 632
3 631 632 642
3 633 634 632
3 633 632 630
3 633 274 272
3 633 272 634
3 628 276 274
3 628 274 633
3 634 635 636
3 634 636 632
3 634 272 270
3 634 270 635
3 635 637 638
3 635 638 636
3 635 270 268
3 635 268 637
3 637 169 166
3 637 166 638
3 637 268 171
3 637 171 169
3 639 638 166
3 639 166 640
3 641 636 638
3 641 638 639
3 639 640 643
3 639 643 117
3 641 639 117
3 641 117 115
3 642 641 115
3 642 115 112
3 642 632 636
3 642 636 641
3 631 642 112
3 631 112 110
3 640 167 644
3 640 644 643
3 118 643 644
3 118 644 645
3 645 644 646
3 645 646 647
3 167 160 646
3 167 646 644
3 647 646 155
3 647 155 152
3 647 152 150
3 647 150 648
3 645 647 648
3 645 648 122
3 124 122 648
3 124 648 128
3 150 673 128
3 150 128 648
3 629 631 110
3 629 110 649
3 650 622 629
3 650 629 649
3 650 649 109
3 650 109 651
3 653 621 650
3 653 650 651
3 653 651 652
3 653 652 654
3 107 652 651
3 107 651 109
3 653 610 614
3 653 614 621
3 608 610 653
3 608 653 654
3 608 654 655
3 608 655 606
3 657 655 654
3 657 654 652
3 662 606 655
3 662 655 656
3 656 655 657
3 656 657 658
3 657 103 101
3 657 101 658
3 657 652 107
3 657 107 103
3 99 659 658
3 99 658 101
3 656 658 659
3 656 659 660
3 78 660 659
3 78 659 80
3 80 659 99
3 80 99 82
3 76 661 660
3 76 660 78
3 662 656 660
3 662 660 661
3 601 662 661
3 601 661 599
3 74 599 661
3 74 661 76
3 626 278 276
3 626 276 628
3 626 624 280
3 626 280 278
3 282 280 624
3 282 624 663
3 291 284 282
3 291 282 663
3 291 663 619
3 291 619 617
3 664 301 616
3 664 616 613
3 293 290 616
3 293 616 301
3 664 613 611
3 664 611 665
3 300 664 665
3 300 665 666
3 668 666 665
3 668 665 667
3 667 665 611
3 667 611 604
3 668 667 603
3 668 603 669
3 670 671 666
3 670 666 668
3 670 668 669
3 670 669 593
3 672 313 671
3 672 671 670
3 672 670 593
3 672 593 590
3 588 314 672
3 588 672 590
3 306 303 671
3 306 671 313
3 303 300 666
3 303 666 671
3 592 669 603
3 592 603 597
3 149 133 129
3 149 129 673
3 149 142 135
3 149 135 133
3 674 120 93
3 674 93 95
3 104 674 95
3 104 95 97
3 104 106 114
3 104 114 674
