ply
format ascii 1.0
element vertex 513
property float x
property float y
property float z
element face 1022
property list uchar int vertex_index
end_header
-1.525156 1.994547 -0.039826
-1.528347 2.006284 -0.043677
-1.521940 1.982382 -0.038003
-1.512101 2.019117 0.046558
-1.489396 2.046696 0.127069
-1.519928 2.048029 0.037057
-1.504230 1.989098 0.051044
-1.476869 1.997445 0.134281
-1.496647 1.959152 0.050295
-1.464963 1.948410 0.132604
-1.489669 1.930417 0.044471
-1.518873 1.970431 -0.038265
-1.516126 1.959319 -0.040494
-1.513831 1.949600 -0.044404
-1.512062 1.941671 -0.049568
-1.483579 1.903982 0.033758
-1.444689 1.858373 0.105132
-1.478580 1.880840 0.018590
-1.437037 1.820578 0.080358
-1.474839 1.861790 -0.000394
-1.431373 1.789310 0.049516
-1.472557 1.847587 -0.022512
-1.510838 1.935713 -0.055502
-1.510144 1.931652 -0.061808
-1.509935 1.929265 -0.068341
-1.510182 1.928394 -0.075234
-1.471842 1.838689 -0.046885
-1.427072 1.751601 -0.026279
-1.472731 1.835424 -0.072593
-1.428506 1.746227 -0.068191
-1.475180 1.837922 -0.098676
-1.432306 1.750298 -0.110719
-1.479075 1.846177 -0.124138
-1.510914 1.929119 -0.082676
-1.512177 1.931705 -0.090636
-1.513983 1.936399 -0.098796
-1.516311 1.943266 -0.106642
-1.484209 1.859832 -0.148039
-1.446415 1.786213 -0.191252
-1.490411 1.878466 -0.169448
-1.456127 1.816443 -0.226347
-1.497472 1.901394 -0.187532
-1.467227 1.853768 -0.256126
-1.505108 1.927731 -0.201640
-1.519084 1.952144 -0.113615
-1.522167 1.962674 -0.119211
-1.525388 1.974350 -0.123046
-1.528574 1.986577 -0.124882
-1.512995 1.956538 -0.211116
-1.491857 1.943860 -0.295313
-1.520804 1.986662 -0.215627
-1.504408 1.993261 -0.302560
-1.528238 2.016896 -0.214946
-1.516382 2.042707 -0.300980
-1.535052 2.046054 -0.209224
-1.531562 1.998698 -0.124644
-1.534212 2.010057 -0.122430
-1.536400 2.020049 -0.118518
-1.538037 2.028214 -0.113343
-1.540987 2.072978 -0.198628
-1.536915 2.134073 -0.273833
-1.545789 2.096616 -0.183579
-1.544669 2.172462 -0.249166
-1.549273 2.116058 -0.164671
-1.550344 2.204038 -0.218281
-1.551370 2.130617 -0.142656
-1.539105 2.034325 -0.107427
-1.539674 2.038434 -0.101204
-1.539838 2.040802 -0.094812
-1.539637 2.041626 -0.088054
-1.552011 2.139622 -0.118309
-1.554839 2.242701 -0.142865
-1.551196 2.142780 -0.092575
-1.553357 2.247818 -0.100931
-1.548932 2.139918 -0.066425
-1.549412 2.242979 -0.058338
-1.545294 2.131279 -0.040851
-1.539030 2.040820 -0.080664
-1.537923 2.038090 -0.072649
-1.536248 2.033189 -0.064373
-1.534027 2.026081 -0.056401
-1.540356 2.117129 -0.016832
-1.535189 2.206232 0.022552
-1.534310 2.098006 0.004695
-1.525337 2.175299 0.057819
-1.527413 2.074654 0.022881
-1.514118 2.137350 0.087750
-1.531352 2.016976 -0.049331
-1.490268 2.202734 0.151644
-1.501997 2.094034 0.111352
-1.473526 2.143045 0.184936
-1.436738 2.188618 0.248119
-1.456079 2.077457 0.207023
-1.415017 2.106874 0.275281
-1.438750 2.009036 0.216750
-1.393424 2.021708 0.287744
-1.422346 1.940998 0.213781
-1.372900 1.936826 0.284930
-1.407422 1.876033 0.199649
-1.454093 1.901455 0.122829
-1.354244 1.855690 0.267569
-1.394545 1.816554 0.174717
-1.338146 1.781332 0.236372
-1.383945 1.763959 0.140649
-1.324865 1.715504 0.193949
-1.376073 1.720309 0.098247
-1.315106 1.661260 0.140895
-1.371455 1.688016 0.048460
-1.428030 1.766107 0.013464
-1.309361 1.621047 0.078807
-1.370151 1.667906 -0.006545
-1.307724 1.595959 0.010353
-1.372141 1.660491 -0.064565
-1.310216 1.586786 -0.061878
-1.377419 1.666331 -0.123403
-1.316783 1.594019 -0.135217
-1.385896 1.685688 -0.180748
-1.438391 1.763951 -0.152225
-1.327299 1.617914 -0.206780
-1.397031 1.716854 -0.234672
-1.341246 1.657028 -0.274049
-1.410357 1.758360 -0.283549
-1.357904 1.708910 -0.335147
-1.425620 1.809721 -0.325276
-1.376981 1.773195 -0.386978
-1.442243 1.868957 -0.358453
-1.479280 1.896671 -0.279630
-1.397768 1.847509 -0.427562
-1.459647 1.934378 -0.380499
-1.419450 1.929106 -0.454683
-1.477019 2.002965 -0.390267
-1.441082 2.014419 -0.467188
-1.493541 2.071457 -0.387412
-1.461707 2.099683 -0.464488
-1.508639 2.137087 -0.373460
-1.527370 2.090286 -0.291356
-1.480487 2.181281 -0.447289
-1.521685 2.197213 -0.348691
-1.496686 2.256013 -0.416251
-1.532370 2.250163 -0.314601
-1.510036 2.322102 -0.373918
-1.540233 2.293831 -0.271987
-1.519778 2.376298 -0.320779
-1.545134 2.327155 -0.222679
-1.553832 2.227955 -0.182513
-1.525649 2.416965 -0.258927
-1.546561 2.347702 -0.167931
-1.527328 2.442203 -0.190548
-1.544449 2.354609 -0.109945
-1.524795 2.451208 -0.118314
-1.538891 2.347632 -0.051067
-1.518103 2.443469 -0.044958
-1.530420 2.328362 0.006504
-1.543315 2.229071 -0.016655
-1.507603 2.419674 0.026737
-1.519199 2.296902 0.060661
-1.493586 2.380316 0.094171
-1.505704 2.254760 0.109739
-1.476826 2.328061 0.155427
-1.438181 2.391550 0.192173
-1.457626 2.263314 0.207420
-1.415788 2.315803 0.251938
-1.366481 2.359422 0.284871
-1.391519 2.228807 0.298451
-1.339657 2.263174 0.335928
-1.366349 2.134024 0.329703
-1.311855 2.158444 0.370325
-1.341297 2.035278 0.344395
-1.284153 2.049291 0.386704
-1.317364 1.936526 0.341980
-1.257622 1.939934 0.384457
-1.295475 1.841634 0.322725
-1.233274 1.834561 0.363709
-1.276467 1.754239 0.287403
-1.212054 1.737260 0.325266
-1.260878 1.677122 0.238174
-1.194749 1.651700 0.270771
-1.249452 1.613664 0.176251
-1.182065 1.581292 0.202171
-1.242642 1.566347 0.103970
-1.174485 1.528733 0.122114
-1.240679 1.536880 0.024172
-1.172300 1.496031 0.033654
-1.243638 1.526385 -0.060127
-1.175590 1.484429 -0.059811
-1.251407 1.535253 -0.145725
-1.184232 1.494386 -0.154684
-1.263717 1.563277 -0.229302
-1.197896 1.525531 -0.247314
-1.280082 1.609321 -0.307667
-1.216058 1.576676 -0.334134
-1.299733 1.670926 -0.378249
-1.237984 1.645673 -0.411912
-1.322101 1.746598 -0.437913
-1.262857 1.730000 -0.477585
-1.346331 1.833453 -0.484350
-1.289713 1.826383 -0.528619
-1.371483 1.928173 -0.515576
-1.317523 1.931150 -0.563010
-1.396552 2.026982 -0.530295
-1.345216 2.040265 -0.579395
-1.420525 2.125875 -0.527955
-1.371716 2.149488 -0.577172
-1.442438 2.220842 -0.508801
-1.395995 2.254565 -0.556463
-1.461427 2.308135 -0.473567
-1.417109 2.351423 -0.518059
-1.476978 2.385076 -0.424399
-1.434305 2.436530 -0.463585
-1.488335 2.448255 -0.362454
-1.446902 2.506582 -0.394979
-1.495118 2.495461 -0.290187
-1.454433 2.558947 -0.314902
-1.497068 2.524874 -0.210379
-1.456604 2.591595 -0.226432
-1.494122 2.535423 -0.126090
-1.453328 2.603252 -0.132976
-1.486379 2.526658 -0.040515
-1.444734 2.593486 -0.038123
-1.474139 2.498921 0.043077
-1.431158 2.562700 0.054500
-1.457813 2.453053 0.121503
-1.413104 2.512007 0.141341
-1.365945 2.555586 0.153312
-1.391284 2.443452 0.219159
-1.342680 2.482455 0.236137
-1.316246 2.392874 0.306079
-1.329479 2.477540 0.226843
-1.383547 2.435773 0.208377
-1.303475 2.389469 0.295845
-1.352227 2.548950 0.145502
-1.404805 2.502528 0.132444
-1.370861 2.601133 0.055347
-1.422200 2.551244 0.048305
-1.384842 2.632740 -0.040404
-1.385163 2.609542 0.060848
-1.399625 2.642363 -0.037725
-1.408788 2.652819 -0.138698
-1.412283 2.640429 -0.238226
-1.393740 2.642829 -0.138696
-1.443464 2.589837 -0.132645
-1.397152 2.630708 -0.235960
-1.446625 2.578449 -0.223332
-1.394890 2.596720 -0.328032
-1.444537 2.546836 -0.309216
-1.387093 2.542479 -0.411037
-1.409965 2.605638 -0.332434
-1.401933 2.549838 -0.417656
-1.388512 2.475237 -0.490642
-1.370208 2.384640 -0.548640
-1.374125 2.470259 -0.482054
-1.425245 2.429168 -0.452973
-1.356383 2.382305 -0.538788
-1.408682 2.347066 -0.505924
-1.334373 2.281290 -0.579011
-1.388113 2.252680 -0.543450
-1.308921 2.171106 -0.600812
-1.347694 2.281405 -0.589423
-1.321818 2.169442 -0.611389
-1.293589 2.053118 -0.613674
-1.264104 1.936949 -0.596190
-1.281157 2.056668 -0.603161
-1.338373 2.042718 -0.566074
-1.252205 1.942597 -0.586024
-1.311313 1.936087 -0.550091
-1.223122 1.833031 -0.550069
-1.284140 1.833731 -0.516460
-1.194972 1.732007 -0.496570
-1.234486 1.825365 -0.559605
-1.205869 1.722634 -0.505317
-1.179354 1.632709 -0.435424
-1.155988 1.559142 -0.352668
-1.168887 1.643589 -0.427621
-1.233484 1.656814 -0.401991
-1.146034 1.571726 -0.346357
-1.212113 1.589588 -0.326098
-1.127306 1.519145 -0.256261
-1.194592 1.540350 -0.241967
-1.113273 1.487314 -0.160542
-1.136682 1.504811 -0.260264
-1.122168 1.471767 -0.161723
-1.112988 1.461242 -0.060756
-1.109491 1.473622 0.038772
-1.104365 1.477183 -0.062256
-1.173168 1.501119 -0.060963
-1.100953 1.489305 0.035008
-1.169991 1.512443 0.029738
-1.103215 1.523293 0.127080
-1.172096 1.544119 0.115608
-1.111022 1.577575 0.210091
-1.111812 1.508423 0.132980
-1.119860 1.564291 0.218208
-1.133333 1.639115 0.291226
-1.151725 1.730089 0.349284
-1.124042 1.650018 0.281141
-1.191548 1.662427 0.259310
-1.141878 1.738371 0.337933
-1.208236 1.745050 0.312269
-1.163993 1.839839 0.378233
-1.228917 1.839907 0.349836
-1.189527 1.950370 0.400086
-1.174340 1.833759 0.390136
-1.200297 1.946066 0.412151
-1.228571 2.062578 0.414453
-1.258072 2.178813 0.396971
-1.217337 2.064999 0.402447
-1.278741 2.050230 0.372538
-1.246306 2.179145 0.385310
-1.305806 2.156885 0.356564
-1.275371 2.288636 0.349357
-1.332974 2.259216 0.322925
-1.287674 2.290331 0.360385
-1.383262 2.226294 0.287047
-1.359245 2.353461 0.272854
-1.407163 2.311963 0.241221
-1.446603 2.262841 0.199616
-1.429267 2.386757 0.182314
-1.465847 2.327955 0.148319
-1.448568 2.447331 0.113238
-1.482639 2.380665 0.088263
-1.464320 2.491447 0.037041
-1.496311 2.418966 0.022161
-1.476077 2.517996 -0.043592
-1.506471 2.441874 -0.047637
-1.435215 2.580619 -0.041008
-1.483517 2.526287 -0.126310
-1.512879 2.448941 -0.119164
-1.486368 2.515968 -0.208291
-1.515334 2.439975 -0.190052
-1.484486 2.487412 -0.285940
-1.513717 2.415321 -0.257216
-1.477974 2.441945 -0.355879
-1.508111 2.376095 -0.317744
-1.437314 2.496438 -0.386680
-1.467070 2.381185 -0.415723
-1.498691 2.323562 -0.369595
-1.452072 2.306831 -0.463691
-1.485672 2.259027 -0.411219
-1.433398 2.221101 -0.497917
-1.469426 2.184443 -0.440983
-1.411766 2.127378 -0.516734
-1.450593 2.102839 -0.457397
-1.364326 2.149704 -0.563828
-1.388158 2.029982 -0.519060
-1.430056 2.018095 -0.459486
-1.363555 1.932996 -0.504667
-1.408678 1.933810 -0.447025
-1.338875 1.840073 -0.473975
-1.387259 1.853177 -0.420334
-1.315036 1.754631 -0.428242
-1.366595 1.779153 -0.380553
-1.257850 1.739398 -0.466421
-1.292985 1.680019 -0.369463
-1.347517 1.714668 -0.329457
-1.273692 1.619445 -0.300504
-1.330872 1.662505 -0.269603
-1.257906 1.575173 -0.224374
-1.317306 1.624597 -0.203657
-1.246095 1.548402 -0.143750
-1.307212 1.601930 -0.133954
-1.181474 1.510558 -0.152632
-1.238618 1.539960 -0.061014
-1.300848 1.595033 -0.062476
-1.235754 1.550231 0.020977
-1.298410 1.604061 0.008397
-1.237648 1.578835 0.098617
-1.300010 1.628653 0.075575
-1.244199 1.624454 0.168536
-1.305571 1.667709 0.136152
-1.179374 1.594740 0.193039
-1.255156 1.685434 0.228390
-1.314927 1.720001 0.188097
-1.270188 1.759945 0.276425
-1.327839 1.784144 0.229880
-1.288854 1.845676 0.310768
-1.343938 1.858181 0.259845
-1.310433 1.939216 0.329712
-1.362605 1.939156 0.276460
-1.252768 1.943156 0.370261
-1.333980 2.036384 0.332132
-1.383013 2.023410 0.278689
-1.358560 2.133285 0.317770
-1.404346 2.107520 0.266275
-1.443465 2.079156 0.200483
-1.425810 2.188328 0.239536
-1.460797 2.144423 0.178966
-1.490407 2.093332 0.103700
-1.477619 2.204767 0.146888
-1.502237 2.135936 0.081230
-1.493242 2.257739 0.105646
-1.513227 2.173481 0.052320
-1.506932 2.300859 0.057228
-1.522901 2.204257 0.018231
-1.518121 2.332365 0.003750
-1.530863 2.226943 -0.019639
-1.526446 2.351287 -0.052889
-1.536831 2.240719 -0.059959
-1.531697 2.357216 -0.110989
-1.540610 2.245165 -0.101369
-1.533703 2.349999 -0.168512
-1.542044 2.240111 -0.142282
-1.532377 2.329941 -0.222989
-1.541076 2.225778 -0.180993
-1.527777 2.297907 -0.272077
-1.537745 2.202755 -0.215886
-1.520051 2.254977 -0.314024
-1.532187 2.171923 -0.245620
-1.509390 2.202297 -0.347494
-1.524585 2.134282 -0.269171
-1.496139 2.141603 -0.371241
-1.515208 2.091176 -0.285721
-1.480844 2.075436 -0.384180
-1.504439 2.044425 -0.294621
-1.464226 2.006919 -0.385661
-1.492746 1.996133 -0.295515
-1.446963 1.938879 -0.375531
-1.480582 1.948198 -0.288315
-1.429686 1.873822 -0.354063
-1.468369 1.902359 -0.273253
-1.413019 1.814073 -0.322132
-1.456552 1.860229 -0.250893
-1.397621 1.761964 -0.281113
-1.445593 1.823411 -0.222154
-1.384167 1.719748 -0.232936
-1.435974 1.793470 -0.188264
-1.373184 1.689031 -0.179666
-1.428091 1.771586 -0.150582
-1.365016 1.670710 -0.123179
-1.422212 1.758470 -0.110415
-1.359873 1.665197 -0.065176
-1.418508 1.754465 -0.069105
-1.357904 1.672559 -0.007685
-1.417100 1.759665 -0.028226
-1.359193 1.692473 0.046823
-1.418041 1.773852 0.010519
-1.363685 1.724089 0.096010
-1.421298 1.796435 0.045513
-1.371254 1.766418 0.138107
-1.426767 1.826607 0.075399
-1.381709 1.818311 0.171786
-1.434290 1.863445 0.099139
-1.394724 1.878101 0.195773
-1.443612 1.905716 0.115886
-1.409794 1.943404 0.208936
-1.454350 1.951740 0.124957
-1.426257 2.011326 0.210563
-1.466029 1.999557 0.125962
-1.497126 1.989956 0.026126
-1.478196 2.047320 0.118802
-1.503609 2.014478 0.022444
-1.509881 2.038106 0.014698
-1.509637 1.987384 -0.082183
-1.479835 1.884033 -0.136216
-1.515761 2.059964 0.003175
-1.521077 2.079214 -0.011668
-1.525700 2.095024 -0.029216
-1.529525 2.106723 -0.048769
-1.532434 2.113866 -0.069634
-1.534289 2.116196 -0.091053
-1.534970 2.113611 -0.112168
-1.534438 2.106216 -0.132141
-1.532724 2.094302 -0.150179
-1.529945 2.078354 -0.165564
-1.526235 2.058950 -0.177732
-1.521705 2.036805 -0.186269
-1.516460 2.012837 -0.190852
-1.510623 1.988070 -0.191307
-1.504366 1.963459 -0.187603
-1.497868 1.939919 -0.179878
-1.491407 1.918299 -0.168413
-1.485283 1.899414 -0.153659
-1.475358 1.872753 -0.116764
-1.472044 1.865955 -0.095981
-1.469995 1.863848 -0.074615
-1.469258 1.866506 -0.053518
-1.469847 1.873827 -0.033527
-1.471754 1.885519 -0.015437
-1.474937 1.901121 0.000031
-1.479300 1.920107 0.012300
-1.484654 1.941823 0.020941
-1.490708 1.965426 0.025613
-1.527367 2.016237 -0.018546
-1.523218 2.001003 -0.013547
-1.519041 1.985179 -0.011175
-1.515006 1.969374 -0.011520
-1.511281 1.954190 -0.014563
-1.508017 1.940203 -0.020184
-1.505332 1.927940 -0.028161
-1.503328 1.917859 -0.038182
-1.502100 1.910324 -0.049854
-1.501710 1.905612 -0.062730
-1.502174 1.903902 -0.076318
-1.503473 1.905259 -0.090101
-1.505543 1.909644 -0.103554
-1.508286 1.916910 -0.116165
-1.511597 1.926794 -0.127450
-1.515356 1.938927 -0.136976
-1.519414 1.952853 -0.144377
-1.523597 1.968041 -0.149365
-1.527740 1.983911 -0.151748
-1.531686 1.999841 -0.151433
-1.535299 2.015211 -0.148434
-1.538447 2.029417 -0.142866
-1.541000 2.041903 -0.134943
-1.543984 2.059854 -0.113331
-1.542862 2.052184 -0.124971
-1.544337 2.064613 -0.100466
-1.543910 2.066277 -0.086866
-1.542717 2.064784 -0.073051
-1.540789 2.060200 -0.059551
-1.538178 2.052710 -0.046885
-1.534984 2.042607 -0.035547
-1.531335 2.030288 -0.025977
3 482 3 5
3 482 5 481
3 12 11 2
3 2 0 1
3 1 87 80
3 80 79 78
3 78 77 69
3 69 68 67
3 67 66 58
3 58 57 56
3 56 55 47
3 47 46 45
3 45 44 36
3 36 35 34
3 34 33 25
3 25 24 23
3 23 22 14
3 14 13 12
3 12 2 1
3 1 80 78
3 78 69 67
3 67 58 56
3 56 47 45
3 45 36 34
3 34 25 23
3 23 14 12
3 12 1 78
3 78 67 56
3 56 45 34
3 34 23 12
3 12 78 56
3 56 34 12
3 483 6 3
3 483 3 482
3 7 4 3
3 7 3 6
3 4 89 5
3 4 5 3
3 9 7 6
3 9 6 8
3 484 8 6
3 484 6 483
3 99 9 8
3 99 8 10
3 485 10 8
3 485 8 484
3 486 15 10
3 486 10 485
3 487 17 15
3 487 15 486
3 16 99 10
3 16 10 15
3 18 16 15
3 18 15 17
3 20 18 17
3 20 17 19
3 488 19 17
3 488 17 487
3 108 20 19
3 108 19 21
3 489 21 19
3 489 19 488
3 490 26 21
3 490 21 489
3 491 28 26
3 491 26 490
3 27 108 21
3 27 21 26
3 29 27 26
3 29 26 28
3 31 29 28
3 31 28 30
3 492 30 28
3 492 28 491
3 117 31 30
3 117 30 32
3 493 32 30
3 493 30 492
3 494 37 32
3 494 32 493
3 495 39 37
3 495 37 494
3 38 117 32
3 38 32 37
3 40 38 37
3 40 37 39
3 42 40 39
3 42 39 41
3 496 41 39
3 496 39 495
3 126 42 41
3 126 41 43
3 497 43 41
3 497 41 496
3 498 48 43
3 498 43 497
3 499 50 48
3 499 48 498
3 49 126 43
3 49 43 48
3 51 49 48
3 51 48 50
3 53 51 50
3 53 50 52
3 500 52 50
3 500 50 499
3 135 53 52
3 135 52 54
3 501 54 52
3 501 52 500
3 502 59 54
3 502 54 501
3 503 61 59
3 503 59 502
3 60 135 54
3 60 54 59
3 62 60 59
3 62 59 61
3 64 62 61
3 64 61 63
3 505 63 61
3 505 61 503
3 144 64 63
3 144 63 65
3 504 65 63
3 504 63 505
3 506 70 65
3 506 65 504
3 507 72 70
3 507 70 506
3 71 144 65
3 71 65 70
3 73 71 70
3 73 70 72
3 75 73 72
3 75 72 74
3 508 74 72
3 508 72 507
3 153 75 74
3 153 74 76
3 509 76 74
3 509 74 508
3 510 81 76
3 510 76 509
3 511 83 81
3 511 81 510
3 82 153 76
3 82 76 81
3 84 82 81
3 84 81 83
3 86 84 83
3 86 83 85
3 512 85 83
3 512 83 511
3 89 86 85
3 89 85 5
3 481 5 85
3 481 85 512
3 88 157 84
3 88 84 86
3 90 88 86
3 90 86 89
3 92 90 89
3 92 89 4
3 91 160 88
3 91 88 90
3 93 91 90
3 93 90 92
3 94 92 4
3 94 4 7
3 95 93 92
3 95 92 94
3 96 94 7
3 96 7 9
3 97 95 94
3 97 94 96
3 98 96 9
3 98 9 99
3 100 97 96
3 100 96 98
3 101 98 99
3 101 99 16
3 102 100 98
3 102 98 101
3 103 101 16
3 103 16 18
3 104 102 101
3 104 101 103
3 105 103 18
3 105 18 20
3 106 104 103
3 106 103 105
3 107 105 20
3 107 20 108
3 109 106 105
3 109 105 107
3 110 107 108
3 110 108 27
3 111 109 107
3 111 107 110
3 112 110 27
3 112 27 29
3 113 111 110
3 113 110 112
3 114 112 29
3 114 29 31
3 115 113 112
3 115 112 114
3 116 114 31
3 116 31 117
3 118 115 114
3 118 114 116
3 119 116 117
3 119 117 38
3 120 118 116
3 120 116 119
3 121 119 38
3 121 38 40
3 122 120 119
3 122 119 121
3 123 121 40
3 123 40 42
3 124 122 121
3 124 121 123
3 125 123 42
3 125 42 126
3 127 124 123
3 127 123 125
3 128 125 126
3 128 126 49
3 129 127 125
3 129 125 128
3 130 128 49
3 130 49 51
3 131 129 128
3 131 128 130
3 132 130 51
3 132 51 53
3 133 131 130
3 133 130 132
3 134 132 53
3 134 53 135
3 136 133 132
3 136 132 134
3 137 134 135
3 137 135 60
3 138 136 134
3 138 134 137
3 139 137 60
3 139 60 62
3 140 138 137
3 140 137 139
3 141 139 62
3 141 62 64
3 142 140 139
3 142 139 141
3 143 141 64
3 143 64 144
3 145 142 141
3 145 141 143
3 146 143 144
3 146 144 71
3 147 145 143
3 147 143 146
3 148 146 71
3 148 71 73
3 149 147 146
3 149 146 148
3 150 148 73
3 150 73 75
3 151 149 148
3 151 148 150
3 152 150 75
3 152 75 153
3 154 151 150
3 154 150 152
3 155 152 153
3 155 153 82
3 156 154 152
3 156 152 155
3 157 155 82
3 157 82 84
3 158 156 155
3 158 155 157
3 160 158 157
3 160 157 88
3 159 221 156
3 159 156 158
3 161 159 158
3 161 158 160
3 163 161 160
3 163 160 91
3 162 224 159
3 162 159 161
3 164 162 161
3 164 161 163
3 165 163 91
3 165 91 93
3 166 164 163
3 166 163 165
3 167 165 93
3 167 93 95
3 168 166 165
3 168 165 167
3 169 167 95
3 169 95 97
3 170 168 167
3 170 167 169
3 171 169 97
3 171 97 100
3 172 170 169
3 172 169 171
3 173 171 100
3 173 100 102
3 174 172 171
3 174 171 173
3 175 173 102
3 175 102 104
3 176 174 173
3 176 173 175
3 177 175 104
3 177 104 106
3 178 176 175
3 178 175 177
3 179 177 106
3 179 106 109
3 180 178 177
3 180 177 179
3 181 179 109
3 181 109 111
3 182 180 179
3 182 179 181
3 183 181 111
3 183 111 113
3 184 182 181
3 184 181 183
3 185 183 113
3 185 113 115
3 186 184 183
3 186 183 185
3 187 185 115
3 187 115 118
3 188 186 185
3 188 185 187
3 189 187 118
3 189 118 120
3 190 188 187
3 190 187 189
3 191 189 120
3 191 120 122
3 192 190 189
3 192 189 191
3 193 191 122
3 193 122 124
3 194 192 191
3 194 191 193
3 195 193 124
3 195 124 127
3 196 194 193
3 196 193 195
3 197 195 127
3 197 127 129
3 198 196 195
3 198 195 197
3 199 197 129
3 199 129 131
3 200 198 197
3 200 197 199
3 201 199 131
3 201 131 133
3 202 200 199
3 202 199 201
3 203 201 133
3 203 133 136
3 204 202 201
3 204 201 203
3 205 203 136
3 205 136 138
3 206 204 203
3 206 203 205
3 207 205 138
3 207 138 140
3 208 206 205
3 208 205 207
3 209 207 140
3 209 140 142
3 210 208 207
3 210 207 209
3 211 209 142
3 211 142 145
3 212 210 209
3 212 209 211
3 213 211 145
3 213 145 147
3 214 212 211
3 214 211 213
3 215 213 147
3 215 147 149
3 216 214 213
3 216 213 215
3 217 215 149
3 217 149 151
3 218 216 215
3 218 215 217
3 219 217 151
3 219 151 154
3 220 218 217
3 220 217 219
3 221 219 154
3 221 154 156
3 222 220 219
3 222 219 221
3 224 222 221
3 224 221 159
3 223 235 220
3 223 220 222
3 225 223 222
3 225 222 224
3 226 225 224
3 226 224 162
3 226 229 227
3 226 227 225
3 225 227 230
3 225 230 223
3 227 228 231
3 227 231 230
3 229 313 228
3 229 228 227
3 230 231 233
3 230 233 232
3 223 230 232
3 223 232 235
3 232 233 324
3 232 324 234
3 235 232 234
3 235 234 236
3 235 236 218
3 235 218 220
3 236 237 216
3 236 216 218
3 236 234 239
3 236 239 237
3 237 238 214
3 237 214 216
3 237 239 241
3 237 241 238
3 239 240 242
3 239 242 241
3 234 324 240
3 234 240 239
3 241 242 244
3 241 244 243
3 238 241 243
3 238 243 246
3 243 244 333
3 243 333 245
3 246 243 245
3 246 245 247
3 246 247 210
3 246 210 212
3 238 246 212
3 238 212 214
3 247 248 208
3 247 208 210
3 247 245 250
3 247 250 248
3 248 249 206
3 248 206 208
3 248 250 252
3 248 252 249
3 250 251 253
3 250 253 252
3 245 333 251
3 245 251 250
3 252 253 255
3 252 255 254
3 249 252 254
3 249 254 257
3 254 255 342
3 254 342 256
3 257 254 256
3 257 256 258
3 257 258 202
3 257 202 204
3 249 257 204
3 249 204 206
3 258 259 200
3 258 200 202
3 258 256 261
3 258 261 259
3 259 260 198
3 259 198 200
3 259 261 263
3 259 263 260
3 261 262 264
3 261 264 263
3 256 342 262
3 256 262 261
3 263 264 266
3 263 266 265
3 260 263 265
3 260 265 268
3 265 266 351
3 265 351 267
3 268 265 267
3 268 267 269
3 268 269 194
3 268 194 196
3 260 268 196
3 260 196 198
3 269 270 192
3 269 192 194
3 269 267 272
3 269 272 270
3 270 271 190
3 270 190 192
3 270 272 274
3 270 274 271
3 272 273 275
3 272 275 274
3 267 351 273
3 267 273 272
3 274 275 277
3 274 277 276
3 271 274 276
3 271 276 279
3 276 277 360
3 276 360 278
3 279 276 278
3 279 278 280
3 279 280 186
3 279 186 188
3 271 279 188
3 271 188 190
3 280 281 184
3 280 184 186
3 280 278 283
3 280 283 281
3 281 282 182
3 281 182 184
3 281 283 285
3 281 285 282
3 283 284 286
3 283 286 285
3 278 360 284
3 278 284 283
3 285 286 288
3 285 288 287
3 282 285 287
3 282 287 290
3 287 288 369
3 287 369 289
3 290 287 289
3 290 289 291
3 290 291 178
3 290 178 180
3 282 290 180
3 282 180 182
3 291 292 176
3 291 176 178
3 291 289 294
3 291 294 292
3 292 293 174
3 292 174 176
3 292 294 296
3 292 296 293
3 294 295 297
3 294 297 296
3 289 369 295
3 289 295 294
3 296 297 299
3 296 299 298
3 293 296 298
3 293 298 301
3 298 299 378
3 298 378 300
3 301 298 300
3 301 300 302
3 301 302 170
3 301 170 172
3 293 301 172
3 293 172 174
3 302 303 168
3 302 168 170
3 302 300 305
3 302 305 303
3 303 304 166
3 303 166 168
3 303 305 307
3 303 307 304
3 305 306 308
3 305 308 307
3 300 378 306
3 300 306 305
3 307 308 310
3 307 310 309
3 304 307 309
3 304 309 311
3 309 310 313
3 309 313 229
3 311 309 229
3 311 229 226
3 311 226 162
3 311 162 164
3 304 311 164
3 304 164 166
3 310 312 314
3 310 314 313
3 308 381 312
3 308 312 310
3 313 314 316
3 313 316 228
3 314 315 317
3 314 317 316
3 312 384 315
3 312 315 314
3 316 317 319
3 316 319 318
3 228 316 318
3 228 318 231
3 318 319 321
3 318 321 320
3 231 318 320
3 231 320 233
3 320 321 323
3 320 323 322
3 233 320 322
3 233 322 324
3 322 323 326
3 322 326 325
3 324 322 325
3 324 325 240
3 325 326 328
3 325 328 327
3 240 325 327
3 240 327 242
3 327 328 330
3 327 330 329
3 242 327 329
3 242 329 244
3 329 330 332
3 329 332 331
3 244 329 331
3 244 331 333
3 331 332 335
3 331 335 334
3 333 331 334
3 333 334 251
3 334 335 337
3 334 337 336
3 251 334 336
3 251 336 253
3 336 337 339
3 336 339 338
3 253 336 338
3 253 338 255
3 338 339 341
3 338 341 340
3 255 338 340
3 255 340 342
3 340 341 344
3 340 344 343
3 342 340 343
3 342 343 262
3 343 344 346
3 343 346 345
3 262 343 345
3 262 345 264
3 345 346 348
3 345 348 347
3 264 345 347
3 264 347 266
3 347 348 350
3 347 350 349
3 266 347 349
3 266 349 351
3 349 350 353
3 349 353 352
3 351 349 352
3 351 352 273
3 352 353 355
3 352 355 354
3 273 352 354
3 273 354 275
3 354 355 357
3 354 357 356
3 275 354 356
3 275 356 277
3 356 357 359
3 356 359 358
3 277 356 358
3 277 358 360
3 358 359 362
3 358 362 361
3 360 358 361
3 360 361 284
3 361 362 364
3 361 364 363
3 284 361 363
3 284 363 286
3 363 364 366
3 363 366 365
3 286 363 365
3 286 365 288
3 365 366 368
3 365 368 367
3 288 365 367
3 288 367 369
3 367 368 371
3 367 371 370
3 369 367 370
3 369 370 295
3 370 371 373
3 370 373 372
3 295 370 372
3 295 372 297
3 372 373 375
3 372 375 374
3 297 372 374
3 297 374 299
3 374 375 377
3 374 377 376
3 299 374 376
3 299 376 378
3 376 377 380
3 376 380 379
3 378 376 379
3 378 379 306
3 379 380 382
3 379 382 381
3 306 379 381
3 306 381 308
3 381 382 384
3 381 384 312
3 380 445 383
3 380 383 382
3 382 383 385
3 382 385 384
3 384 385 387
3 384 387 315
3 385 386 388
3 385 388 387
3 383 448 386
3 383 386 385
3 387 388 390
3 387 390 389
3 315 387 389
3 315 389 317
3 389 390 392
3 389 392 391
3 317 389 391
3 317 391 319
3 391 392 394
3 391 394 393
3 319 391 393
3 319 393 321
3 393 394 396
3 393 396 395
3 321 393 395
3 321 395 323
3 395 396 398
3 395 398 397
3 323 395 397
3 323 397 326
3 397 398 400
3 397 400 399
3 326 397 399
3 326 399 328
3 399 400 402
3 399 402 401
3 328 399 401
3 328 401 330
3 401 402 404
3 401 404 403
3 330 401 403
3 330 403 332
3 403 404 406
3 403 406 405
3 332 403 405
3 332 405 335
3 405 406 408
3 405 408 407
3 335 405 407
3 335 407 337
3 407 408 410
3 407 410 409
3 337 407 409
3 337 409 339
3 409 410 412
3 409 412 411
3 339 409 411
3 339 411 341
3 411 412 414
3 411 414 413
3 341 411 413
3 341 413 344
3 413 414 416
3 413 416 415
3 344 413 415
3 344 415 346
3 415 416 418
3 415 418 417
3 346 415 417
3 346 417 348
3 417 418 420
3 417 420 419
3 348 417 419
3 348 419 350
3 419 420 422
3 419 422 421
3 350 419 421
3 350 421 353
3 421 422 424
3 421 424 423
3 353 421 423
3 353 423 355
3 423 424 426
3 423 426 425
3 355 423 425
3 355 425 357
3 425 426 428
3 425 428 427
3 357 425 427
3 357 427 359
3 427 428 430
3 427 430 429
3 359 427 429
3 359 429 362
3 429 430 432
3 429 432 431
3 362 429 431
3 362 431 364
3 431 432 434
3 431 434 433
3 364 431 433
3 364 433 366
3 433 434 436
3 433 436 435
3 366 433 435
3 366 435 368
3 435 436 438
3 435 438 437
3 368 435 437
3 368 437 371
3 437 438 440
3 437 440 439
3 371 437 439
3 371 439 373
3 439 440 442
3 439 442 441
3 373 439 441
3 373 441 375
3 441 442 444
3 441 444 443
3 375 441 443
3 375 443 377
3 443 444 446
3 443 446 445
3 377 443 445
3 377 445 380
3 445 446 448
3 445 448 383
3 446 447 449
3 446 449 448
3 444 480 447
3 444 447 446
3 448 449 450
3 448 450 386
3 449 451 450
3 447 451 449
3 452 451 471
3 470 451 452
3 450 451 453
3 453 451 454
3 454 451 455
3 455 451 456
3 456 451 457
3 457 451 458
3 458 451 459
3 459 451 460
3 460 451 461
3 461 451 462
3 462 451 463
3 463 451 464
3 464 451 465
3 465 451 466
3 466 451 467
3 467 451 468
3 468 451 469
3 469 451 470
3 471 451 472
3 472 451 473
3 473 451 474
3 474 451 475
3 475 451 476
3 476 451 477
3 477 451 478
3 478 451 479
3 479 451 480
3 480 451 447
3 442 479 480
3 442 480 444
3 440 478 479
3 440 479 442
3 438 477 478
3 438 478 440
3 436 476 477
3 436 477 438
3 434 475 476
3 434 476 436
3 432 474 475
3 432 475 434
3 430 473 474
3 430 474 432
3 428 472 473
3 428 473 430
3 426 471 472
3 426 472 428
3 424 452 471
3 424 471 426
3 422 470 452
3 422 452 424
3 420 469 470
3 420 470 422
3 418 468 469
3 418 469 420
3 416 467 468
3 416 468 418
3 414 466 467
3 414 467 416
3 412 465 466
3 412 466 414
3 410 464 465
3 410 465 412
3 408 463 464
3 408 464 410
3 406 462 463
3 406 463 408
3 404 461 462
3 404 462 406
3 402 460 461
3 402 461 404
3 400 459 460
3 400 460 402
3 398 458 459
3 398 459 400
3 396 457 458
3 396 458 398
3 394 456 457
3 394 457 396
3 392 455 456
3 392 456 394
3 390 454 455
3 390 455 392
3 388 453 454
3 388 454 390
3 386 450 453
3 386 453 388
3 0 482 481
3 0 481 1
3 2 483 482
3 2 482 0
3 12 485 484
3 12 484 11
3 11 484 483
3 11 483 2
3 13 486 485
3 13 485 12
3 14 487 486
3 14 486 13
3 23 489 488
3 23 488 22
3 22 488 487
3 22 487 14
3 24 490 489
3 24 489 23
3 25 491 490
3 25 490 24
3 34 493 492
3 34 492 33
3 33 492 491
3 33 491 25
3 35 494 493
3 35 493 34
3 36 495 494
3 36 494 35
3 45 497 496
3 45 496 44
3 44 496 495
3 44 495 36
3 46 498 497
3 46 497 45
3 47 499 498
3 47 498 46
3 56 501 500
3 56 500 55
3 55 500 499
3 55 499 47
3 57 502 501
3 57 501 56
3 58 503 502
3 58 502 57
3 67 504 505
3 67 505 66
3 66 505 503
3 66 503 58
3 68 506 504
3 68 504 67
3 69 507 506
3 69 506 68
3 78 509 508
3 78 508 77
3 77 508 507
3 77 507 69
3 79 510 509
3 79 509 78
3 80 511 510
3 80 510 79
3 1 481 512
3 1 512 87
3 87 512 511
3 87 511 80
