ply
format ascii 1.0
element vertex 1120
property float x
property float y
property float z
element face 2236
property list uchar int vertex_index
end_header
-0.020347 1.352801 -0.009741
-0.020249 1.350958 -0.010242
-0.020583 1.352706 -0.008658
-0.021110 1.362949 -0.011814
-0.020908 1.360892 -0.012369
-0.021466 1.362784 -0.010561
-0.022967 1.380423 -0.015608
-0.022570 1.378151 -0.016427
-0.023546 1.380079 -0.014036
-0.026988 1.400754 -0.018357
-0.026225 1.397821 -0.020196
-0.027807 1.400247 -0.016530
-0.036502 1.424794 -0.014216
-0.035336 1.420879 -0.017212
-0.037438 1.424082 -0.011999
-0.054746 1.445928 -0.018046
-0.053153 1.441421 -0.020551
-0.084559 1.462093 -0.034025
-0.055859 1.445264 -0.015278
-0.056250 1.439384 -0.012506
-0.085925 1.461599 -0.030948
-0.123602 1.477858 -0.054984
-0.086443 1.455662 -0.027267
-0.124226 1.472299 -0.050360
-0.085961 1.444723 -0.023278
-0.055944 1.428860 -0.010107
-0.123768 1.461374 -0.045204
-0.084065 1.429840 -0.018477
-0.055301 1.414648 -0.008488
-0.122049 1.446118 -0.038975
-0.080699 1.411712 -0.012241
-0.055276 1.397622 -0.006691
-0.118850 1.427584 -0.030459
-0.077631 1.390533 -0.006012
-0.055478 1.377495 -0.002475
-0.114097 1.406080 -0.019204
-0.076130 1.366292 -0.000380
-0.054773 1.353392 0.002842
-0.109045 1.382108 -0.007498
-0.074381 1.339512 0.005291
-0.053504 1.327384 0.008068
-0.108153 1.358087 0.000362
-0.074122 1.314524 0.009874
-0.053614 1.303522 0.012320
-0.110555 1.336335 0.005986
-0.075816 1.293347 0.012775
-0.055213 1.282632 0.014926
-0.115086 1.318442 0.009658
-0.079277 1.276413 0.014504
-0.058087 1.264689 0.016147
-0.120866 1.304688 0.012320
-0.084869 1.265303 0.016062
-0.063169 1.252067 0.017077
-0.127389 1.295378 0.014252
-0.090916 1.259466 0.017461
-0.068910 1.245313 0.018269
-0.133365 1.289775 0.015183
-0.095288 1.256571 0.017756
-0.073061 1.242050 0.018699
-0.137518 1.286531 0.014839
-0.097221 1.254994 0.016522
-0.074950 1.240306 0.017643
-0.139349 1.284674 0.013231
-0.096780 1.254120 0.013851
-0.074789 1.239350 0.015165
-0.138854 1.283765 0.010508
-0.094286 1.253945 0.009997
-0.072919 1.239220 0.011669
-0.136201 1.283742 0.006824
-0.090135 1.254863 0.005243
-0.069539 1.240406 0.007459
-0.131633 1.284805 0.002318
-0.084838 1.257652 0.000045
-0.064892 1.243809 0.002998
-0.125509 1.287378 -0.002829
-0.079078 1.263444 -0.005016
-0.059514 1.250591 -0.001115
-0.118372 1.292108 -0.008349
-0.073755 1.273345 -0.009533
-0.054371 1.261489 -0.004631
-0.111052 1.299826 -0.013914
-0.069581 1.287542 -0.013744
-0.050272 1.276014 -0.008203
-0.104454 1.311248 -0.019283
-0.066627 1.305381 -0.018281
-0.047198 1.293124 -0.012612
-0.099605 1.326949 -0.024560
-0.065406 1.327263 -0.023172
-0.045473 1.313522 -0.017554
-0.097838 1.347097 -0.030484
-0.066552 1.352811 -0.027778
-0.045961 1.338562 -0.021805
-0.098846 1.369487 -0.037385
-0.068099 1.377253 -0.031611
-0.047221 1.363788 -0.025348
-0.101784 1.391980 -0.044930
-0.070210 1.398842 -0.034331
-0.047723 1.385127 -0.027927
-0.106254 1.413329 -0.053104
-0.073926 1.417877 -0.036912
-0.048271 1.403272 -0.027915
-0.110225 1.432488 -0.059030
-0.077728 1.434234 -0.038349
-0.049708 1.419282 -0.025429
-0.113936 1.449282 -0.061823
-0.080866 1.447438 -0.038242
-0.051670 1.432130 -0.023028
-0.117285 1.462978 -0.062274
-0.082956 1.457058 -0.036592
-0.120157 1.472693 -0.061239
-0.167170 1.489264 -0.092769
-0.122231 1.477825 -0.058755
-0.169762 1.494172 -0.089626
-0.217504 1.511035 -0.118187
-0.171195 1.494236 -0.085610
-0.219050 1.511276 -0.114192
-0.171329 1.489132 -0.080810
-0.219564 1.506588 -0.109366
-0.170090 1.479032 -0.075223
-0.219247 1.497328 -0.103732
-0.167554 1.464587 -0.068169
-0.218511 1.484254 -0.097039
-0.164202 1.446646 -0.058005
-0.218192 1.468550 -0.088913
-0.160832 1.426026 -0.044129
-0.219080 1.451392 -0.080041
-0.157355 1.403873 -0.027373
-0.221263 1.433221 -0.070466
-0.155828 1.382295 -0.011675
-0.222632 1.413736 -0.055764
-0.160137 1.363901 -0.005072
-0.225799 1.395984 -0.042790
-0.167045 1.348880 -0.002101
-0.230328 1.380583 -0.034866
-0.173798 1.336867 0.000646
-0.235177 1.367789 -0.031059
-0.179962 1.328050 0.003093
-0.239864 1.357752 -0.029666
-0.185122 1.322138 0.004448
-0.243788 1.350287 -0.029945
-0.188698 1.318382 0.004197
-0.246447 1.345057 -0.031550
-0.190328 1.316148 0.002453
-0.247566 1.341772 -0.034124
-0.189932 1.315136 -0.000464
-0.247080 1.340281 -0.037345
-0.187612 1.315299 -0.004373
-0.245054 1.340554 -0.041025
-0.183581 1.316767 -0.009210
-0.241644 1.342662 -0.045138
-0.178137 1.319842 -0.014821
-0.237102 1.346742 -0.049777
-0.171647 1.324966 -0.020815
-0.231795 1.352978 -0.055111
-0.164541 1.332598 -0.026670
-0.226199 1.361550 -0.061397
-0.157350 1.343044 -0.031990
-0.220868 1.372566 -0.069041
-0.151191 1.356479 -0.037344
-0.216283 1.385964 -0.078539
-0.148546 1.373061 -0.047043
-0.212735 1.401473 -0.089891
-0.148627 1.391846 -0.060254
-0.210531 1.418704 -0.101736
-0.149744 1.411417 -0.073509
-0.209282 1.436767 -0.110982
-0.151137 1.430559 -0.085147
-0.208274 1.453930 -0.116540
-0.153778 1.448927 -0.093350
-0.208296 1.470005 -0.120825
-0.158615 1.465928 -0.095671
-0.209974 1.484835 -0.122917
-0.163376 1.479643 -0.094831
-0.212567 1.497256 -0.122800
-0.259792 1.514974 -0.150519
-0.215282 1.506266 -0.121117
-0.260767 1.522957 -0.149324
-0.295515 1.532225 -0.179841
-0.262198 1.527315 -0.146569
-0.296485 1.536299 -0.177085
-0.264053 1.527890 -0.142353
-0.298651 1.537282 -0.172736
-0.265982 1.524355 -0.137131
-0.301875 1.534917 -0.167104
-0.267569 1.516504 -0.131378
-0.305835 1.529113 -0.160742
-0.268703 1.504777 -0.125389
-0.309878 1.519812 -0.154455
-0.269861 1.490243 -0.119125
-0.313334 1.507212 -0.148835
-0.271301 1.473748 -0.112426
-0.315698 1.491795 -0.143878
-0.273113 1.456036 -0.104489
-0.317039 1.474560 -0.138864
-0.275178 1.438016 -0.095811
-0.318683 1.457241 -0.133420
-0.278001 1.420961 -0.087748
-0.321837 1.441167 -0.128297
-0.282325 1.405956 -0.081870
-0.326550 1.426883 -0.124315
-0.287384 1.393172 -0.078365
-0.332204 1.414564 -0.121876
-0.292366 1.382647 -0.076914
-0.337724 1.404206 -0.121034
-0.296450 1.374332 -0.077294
-0.341735 1.395738 -0.121667
-0.299041 1.368181 -0.079194
-0.343685 1.389218 -0.123555
-0.299999 1.364146 -0.082154
-0.343977 1.384755 -0.126412
-0.299442 1.362179 -0.085761
-0.343049 1.382400 -0.129968
-0.297515 1.362273 -0.089750
-0.341087 1.382182 -0.133984
-0.294325 1.364475 -0.094006
-0.338168 1.384154 -0.138316
-0.289991 1.368863 -0.098553
-0.334295 1.388371 -0.142914
-0.284747 1.375486 -0.103531
-0.329455 1.394852 -0.147755
-0.279051 1.384350 -0.109154
-0.323868 1.403532 -0.152818
-0.273570 1.395440 -0.115582
-0.318102 1.414284 -0.158069
-0.268953 1.408706 -0.122766
-0.312826 1.426945 -0.163384
-0.265616 1.423973 -0.130294
-0.308451 1.441246 -0.168405
-0.263643 1.440846 -0.137193
-0.305081 1.456734 -0.172643
-0.261755 1.457986 -0.142528
-0.302504 1.472702 -0.175772
-0.259956 1.474404 -0.146466
-0.300397 1.488282 -0.177932
-0.258989 1.489748 -0.149025
-0.298529 1.502635 -0.179461
-0.259115 1.503610 -0.150347
-0.296926 1.515062 -0.180483
-0.327179 1.522182 -0.209509
-0.295774 1.525069 -0.180823
-0.325538 1.531494 -0.209586
-0.352810 1.537264 -0.236553
-0.324951 1.538224 -0.208461
-0.352040 1.543686 -0.235282
-0.325747 1.542184 -0.205704
-0.352761 1.547552 -0.232449
-0.327951 1.543235 -0.201349
-0.354971 1.548708 -0.228100
-0.331366 1.541255 -0.195809
-0.358561 1.546981 -0.222488
-0.335573 1.536044 -0.189751
-0.363178 1.542343 -0.216259
-0.339989 1.527612 -0.183938
-0.368196 1.534775 -0.210318
-0.344149 1.516286 -0.178880
-0.373138 1.524540 -0.205240
-0.347860 1.502688 -0.174683
-0.377784 1.512194 -0.201194
-0.351210 1.487643 -0.171050
-0.382183 1.498495 -0.198012
-0.354681 1.472208 -0.167680
-0.386535 1.484258 -0.195408
-0.358837 1.457372 -0.164679
-0.391018 1.470230 -0.193200
-0.363665 1.443723 -0.162169
-0.395576 1.456984 -0.191360
-0.368534 1.431550 -0.160338
-0.399882 1.444919 -0.190058
-0.372651 1.421036 -0.159432
-0.403515 1.434323 -0.189586
-0.375538 1.412350 -0.159690
-0.406143 1.425419 -0.190158
-0.377118 1.405627 -0.161193
-0.407610 1.418394 -0.191804
-0.377441 1.400942 -0.163759
-0.407898 1.413404 -0.194358
-0.376594 1.398344 -0.167080
-0.407075 1.410588 -0.197571
-0.374687 1.397895 -0.170886
-0.405246 1.410055 -0.201196
-0.371816 1.399657 -0.174994
-0.402514 1.411865 -0.205049
-0.368069 1.403682 -0.179324
-0.398975 1.416004 -0.209018
-0.363562 1.409964 -0.183855
-0.394738 1.422369 -0.213046
-0.358474 1.418399 -0.188509
-0.389960 1.430766 -0.217076
-0.353097 1.428783 -0.193091
-0.384861 1.440930 -0.220983
-0.347814 1.440839 -0.197317
-0.379696 1.452546 -0.224582
-0.342979 1.454223 -0.200926
-0.374701 1.465257 -0.227706
-0.338788 1.468491 -0.203787
-0.370026 1.478643 -0.230277
-0.335232 1.483076 -0.205927
-0.365713 1.492211 -0.232334
-0.332181 1.497313 -0.207487
-0.361734 1.505415 -0.234000
-0.329492 1.510579 -0.208687
-0.358117 1.517671 -0.235357
-0.384552 1.524111 -0.261329
-0.354991 1.528462 -0.236379
-0.380997 1.534400 -0.262249
-0.406290 1.540308 -0.287362
-0.378607 1.542897 -0.262165
-0.403665 1.548642 -0.287078
-0.377679 1.549185 -0.260738
-0.402548 1.554875 -0.285510
-0.378351 1.553003 -0.257782
-0.403119 1.558697 -0.282458
-0.380615 1.554183 -0.253341
-0.405361 1.559932 -0.277967
-0.384268 1.552660 -0.247734
-0.409115 1.558464 -0.272330
-0.389075 1.548363 -0.241496
-0.414070 1.554317 -0.266122
-0.394676 1.541412 -0.235213
-0.419867 1.547616 -0.259934
-0.400623 1.532078 -0.229470
-0.426130 1.538668 -0.254245
-0.406377 1.520751 -0.224833
-0.432521 1.527931 -0.249347
-0.411828 1.508066 -0.221268
-0.438763 1.515940 -0.245367
-0.416998 1.494702 -0.218565
-0.444642 1.503234 -0.242345
-0.421902 1.481288 -0.216541
-0.449986 1.490322 -0.240287
-0.426455 1.468358 -0.215152
-0.454652 1.477677 -0.239191
-0.430457 1.456339 -0.214501
-0.458512 1.465741 -0.239050
-0.433660 1.445581 -0.214734
-0.461460 1.454927 -0.239834
-0.435862 1.436382 -0.215934
-0.463426 1.445611 -0.241475
-0.436968 1.429012 -0.218054
-0.464384 1.438123 -0.243862
-0.436992 1.423714 -0.220926
-0.464356 1.432738 -0.246846
-0.436018 1.420696 -0.224315
-0.463392 1.429670 -0.250259
-0.434155 1.420104 -0.227986
-0.461552 1.429058 -0.253938
-0.431505 1.421991 -0.231750
-0.458903 1.430951 -0.257736
-0.428146 1.426292 -0.235492
-0.455516 1.435271 -0.261529
-0.424154 1.432815 -0.239163
-0.451479 1.441795 -0.265223
-0.419628 1.441272 -0.242735
-0.446898 1.450191 -0.268762
-0.414704 1.451325 -0.246174
-0.441895 1.460080 -0.272117
-0.409537 1.462619 -0.249417
-0.436591 1.471079 -0.275272
-0.404276 1.474789 -0.252404
-0.431105 1.482827 -0.278205
-0.399037 1.487442 -0.255106
-0.425564 1.494977 -0.280878
-0.393907 1.500148 -0.257536
-0.420101 1.507176 -0.283236
-0.388979 1.512512 -0.259678
-0.414900 1.519070 -0.285195
-0.440741 1.525584 -0.310245
-0.410173 1.530273 -0.286640
-0.435828 1.536430 -0.311581
-0.461932 1.542673 -0.336249
-0.431745 1.546188 -0.312177
-0.457798 1.552091 -0.336826
-0.428870 1.554380 -0.311789
-0.454844 1.560033 -0.336410
-0.427542 1.560558 -0.310143
-0.453432 1.566051 -0.334739
-0.427983 1.564363 -0.307047
-0.453802 1.569769 -0.331639
-0.430232 1.565559 -0.302527
-0.455974 1.570969 -0.327159
-0.434010 1.564143 -0.296925
-0.459828 1.569519 -0.321617
-0.439094 1.560072 -0.290766
-0.464971 1.565537 -0.315539
-0.445069 1.553538 -0.284647
-0.471014 1.559217 -0.309487
-0.451534 1.544869 -0.279041
-0.477558 1.550889 -0.303910
-0.458138 1.534511 -0.274227
-0.484263 1.540967 -0.299083
-0.464602 1.522954 -0.270325
-0.490856 1.529899 -0.295136
-0.470708 1.510690 -0.267366
-0.497124 1.518125 -0.292118
-0.476284 1.498183 -0.265353
-0.502892 1.506069 -0.290041
-0.481181 1.485874 -0.264279
-0.508007 1.494147 -0.288906
-0.485266 1.474191 -0.264132
-0.512326 1.482767 -0.288704
-0.488425 1.463554 -0.264884
-0.515715 1.472348 -0.289412
-0.490572 1.454356 -0.266480
-0.518067 1.463295 -0.290978
-0.491670 1.446950 -0.268823
-0.519316 1.455977 -0.293312
-0.491731 1.441618 -0.271781
-0.519460 1.450700 -0.296283
-0.490803 1.438575 -0.275200
-0.518546 1.447695 -0.299729
-0.488951 1.437968 -0.278920
-0.516643 1.447114 -0.303477
-0.486242 1.439851 -0.282784
-0.513829 1.449000 -0.307355
-0.482754 1.444140 -0.286652
-0.510196 1.453248 -0.311215
-0.478586 1.450597 -0.290408
-0.505856 1.459603 -0.314948
-0.473857 1.458866 -0.293984
-0.500946 1.467695 -0.318497
-0.468695 1.468544 -0.297349
-0.495607 1.477124 -0.321844
-0.463227 1.479245 -0.300492
-0.489971 1.487509 -0.324985
-0.457575 1.490619 -0.303397
-0.484163 1.498511 -0.327908
-0.451874 1.502340 -0.306027
-0.478304 1.509816 -0.330583
-0.446199 1.514088 -0.308344
-0.472538 1.521139 -0.332932
-0.498999 1.528442 -0.356997
-0.466983 1.532200 -0.334877
-0.493404 1.539125 -0.359067
-0.519864 1.546380 -0.382732
-0.488374 1.549201 -0.360550
-0.514812 1.556134 -0.384429
-0.484235 1.558275 -0.361238
-0.510692 1.564913 -0.385312
-0.481318 1.565924 -0.360888
-0.507835 1.572305 -0.385107
-0.479952 1.571716 -0.359249
-0.506549 1.577902 -0.383547
-0.480363 1.575288 -0.356163
-0.507023 1.581363 -0.380487
-0.482583 1.576405 -0.351690
-0.509255 1.582484 -0.376012
-0.486412 1.575022 -0.346196
-0.513143 1.581128 -0.370442
-0.491543 1.571190 -0.340150
-0.518285 1.577443 -0.364309
-0.497574 1.565132 -0.334095
-0.524314 1.571633 -0.358142
-0.504122 1.557173 -0.328466
-0.530876 1.564007 -0.352370
-0.510864 1.547701 -0.323542
-0.537666 1.554929 -0.347274
-0.517539 1.537123 -0.319470
-0.544432 1.544780 -0.343017
-0.523936 1.525840 -0.316320
-0.550963 1.533933 -0.339684
-0.529877 1.514242 -0.314125
-0.557075 1.522752 -0.337328
-0.535200 1.502716 -0.312900
-0.562593 1.511598 -0.335981
-0.539746 1.491655 -0.312647
-0.567347 1.500846 -0.335658
-0.543364 1.481465 -0.313347
-0.571168 1.490885 -0.336342
-0.545919 1.472554 -0.314941
-0.573900 1.482120 -0.337963
-0.547320 1.465309 -0.317325
-0.575432 1.474943 -0.340389
-0.547546 1.460063 -0.320341
-0.575729 1.469709 -0.343431
-0.546637 1.457073 -0.323802
-0.574820 1.466697 -0.346879
-0.544667 1.456496 -0.327517
-0.572782 1.466077 -0.350534
-0.541725 1.458362 -0.331317
-0.569713 1.467876 -0.354237
-0.537917 1.462545 -0.335072
-0.565739 1.471957 -0.357886
-0.533378 1.468769 -0.338706
-0.561014 1.478036 -0.361433
-0.528265 1.476667 -0.342187
-0.555706 1.485737 -0.364875
-0.522729 1.485841 -0.345510
-0.549975 1.494670 -0.368223
-0.516910 1.495921 -0.348677
-0.543963 1.504470 -0.371482
-0.510942 1.506578 -0.351666
-0.537801 1.514811 -0.374643
-0.504923 1.517495 -0.354474
-0.531621 1.525416 -0.377639
-0.558109 1.533403 -0.400141
-0.525566 1.536026 -0.380394
-0.551905 1.543774 -0.403157
-0.577656 1.551431 -0.425206
-0.546095 1.553881 -0.405755
-0.571732 1.561430 -0.427993
-0.540964 1.563401 -0.407734
-0.566493 1.570849 -0.430160
-0.536825 1.571964 -0.408858
-0.562282 1.579308 -0.431440
-0.534005 1.579168 -0.408827
-0.559443 1.586405 -0.431513
-0.532789 1.584623 -0.407355
-0.558247 1.591774 -0.430081
-0.533340 1.588007 -0.404294
-0.558836 1.595128 -0.427006
-0.535659 1.589109 -0.399726
-0.561179 1.596283 -0.422428
-0.539562 1.587860 -0.394064
-0.565134 1.595102 -0.416634
-0.544730 1.584328 -0.387782
-0.570352 1.591688 -0.410244
-0.550792 1.578725 -0.381442
-0.576478 1.586220 -0.403799
-0.557404 1.571358 -0.375483
-0.583171 1.579002 -0.397732
-0.564272 1.562585 -0.370187
-0.590133 1.570398 -0.392309
-0.571146 1.552773 -0.365716
-0.597104 1.560780 -0.387678
-0.577810 1.542275 -0.362166
-0.603853 1.550499 -0.383931
-0.584064 1.531437 -0.359603
-0.610168 1.539883 -0.381142
-0.589724 1.520599 -0.358076
-0.615853 1.529257 -0.379373
-0.594606 1.510113 -0.357612
-0.620720 1.518951 -0.378660
-0.598531 1.500353 -0.358193
-0.624597 1.509327 -0.378999
-0.601336 1.491713 -0.359743
-0.627338 1.500767 -0.380322
-0.602912 1.484589 -0.362112
-0.628855 1.493673 -0.382497
-0.603222 1.479349 -0.365101
-0.629128 1.488431 -0.385340
-0.602303 1.476296 -0.368497
-0.628202 1.485350 -0.388649
-0.600232 1.475610 -0.372107
-0.626156 1.484617 -0.392241
-0.597111 1.477320 -0.375780
-0.623086 1.486251 -0.395969
-0.593066 1.481280 -0.379422
-0.619103 1.490100 -0.399738
-0.588250 1.487202 -0.382998
-0.614344 1.495876 -0.403498
-0.582832 1.494714 -0.386512
-0.608956 1.503218 -0.407235
-0.576969 1.503430 -0.389983
-0.603089 1.511748 -0.410955
-0.570806 1.512991 -0.393412
-0.596878 1.521113 -0.414667
-0.564475 1.523062 -0.396832
-0.590464 1.531020 -0.418330
-0.615509 1.538403 -0.439233
-0.583992 1.541200 -0.421906
-0.609054 1.548593 -0.442924
-0.633525 1.555654 -0.463285
-0.602713 1.558867 -0.446263
-0.627401 1.566037 -0.466455
-0.596718 1.568939 -0.449072
-0.621540 1.576297 -0.469033
-0.591360 1.578458 -0.451179
-0.616199 1.586091 -0.470828
-0.586999 1.587007 -0.452359
-0.611745 1.594948 -0.471611
-0.584022 1.594149 -0.452336
-0.608591 1.602375 -0.471194
-0.582731 1.599524 -0.450840
-0.607102 1.607948 -0.469444
-0.583266 1.602882 -0.447742
-0.607476 1.611386 -0.466301
-0.585611 1.604034 -0.443169
-0.609703 1.612525 -0.461888
-0.589564 1.602909 -0.437475
-0.613629 1.611271 -0.456531
-0.594844 1.599507 -0.431209
-0.618938 1.607652 -0.450741
-0.601071 1.594011 -0.424916
-0.625230 1.601872 -0.444967
-0.607875 1.586740 -0.418997
-0.632078 1.594311 -0.439493
-0.614928 1.578092 -0.413666
-0.639110 1.585422 -0.434477
-0.621950 1.568462 -0.409038
-0.646031 1.575642 -0.430034
-0.628705 1.558207 -0.405194
-0.652628 1.565317 -0.426242
-0.634982 1.547647 -0.402216
-0.658722 1.554746 -0.423182
-0.640590 1.537092 -0.400182
-0.664147 1.544217 -0.420947
-0.645354 1.526860 -0.399151
-0.668743 1.534031 -0.419628
-0.649117 1.517305 -0.399149
-0.672368 1.524529 -0.419292
-0.651754 1.508807 -0.400142
-0.674909 1.516089 -0.419952
-0.653198 1.501765 -0.402033
-0.676297 1.509107 -0.421556
-0.653440 1.496556 -0.404667
-0.676521 1.503952 -0.423983
-0.652526 1.493484 -0.407867
-0.675624 1.500915 -0.427073
-0.650533 1.492724 -0.411458
-0.673675 1.500162 -0.430657
-0.647551 1.494291 -0.415294
-0.670763 1.501705 -0.434585
-0.643682 1.498039 -0.419260
-0.666994 1.505402 -0.438729
-0.639048 1.503690 -0.423279
-0.662489 1.510984 -0.442983
-0.633786 1.510900 -0.427304
-0.657382 1.518111 -0.447265
-0.628028 1.519307 -0.431307
-0.651810 1.526426 -0.451510
-0.621893 1.528561 -0.435310
-0.645898 1.535623 -0.455650
-0.669180 1.542622 -0.475728
-0.639754 1.545433 -0.459626
-0.663361 1.552509 -0.479715
-0.686514 1.559543 -0.499058
-0.657523 1.562800 -0.483276
-0.681122 1.569946 -0.502616
-0.651818 1.573248 -0.486284
-0.675913 1.580487 -0.505556
-0.646407 1.583560 -0.488633
-0.671024 1.590876 -0.507796
-0.641519 1.593353 -0.490200
-0.666647 1.600711 -0.509266
-0.637468 1.602133 -0.490862
-0.663052 1.609488 -0.509875
-0.634624 1.609392 -0.490478
-0.660534 1.616719 -0.509478
-0.633306 1.614767 -0.488875
-0.659372 1.622055 -0.507912
-0.633696 1.618063 -0.485929
-0.659752 1.625324 -0.505084
-0.635798 1.619154 -0.481707
-0.661683 1.626417 -0.501086
-0.639441 1.617974 -0.476560
-0.665041 1.625233 -0.496211
-0.644348 1.614498 -0.470954
-0.669535 1.621760 -0.490896
-0.650164 1.608853 -0.465376
-0.674842 1.616100 -0.485588
-0.656521 1.601364 -0.460143
-0.680648 1.608569 -0.480592
-0.663088 1.592485 -0.455378
-0.686686 1.599616 -0.476015
-0.669600 1.582668 -0.451109
-0.692720 1.589705 -0.471839
-0.675852 1.572290 -0.447360
-0.698569 1.579225 -0.468035
-0.681668 1.561665 -0.444190
-0.704076 1.568494 -0.464645
-0.686882 1.551084 -0.441708
-0.709079 1.557804 -0.461793
-0.691330 1.540852 -0.440046
-0.713406 1.547465 -0.459668
-0.694862 1.531313 -0.439332
-0.716886 1.537829 -0.458469
-0.697351 1.522853 -0.439641
-0.719370 1.529295 -0.458345
-0.698722 1.515871 -0.440962
-0.720762 1.522273 -0.459330
-0.698955 1.510738 -0.443190
-0.721025 1.517137 -0.461333
-0.698080 1.507740 -0.446163
-0.720179 1.514169 -0.464180
-0.696167 1.507031 -0.449710
-0.718291 1.513516 -0.467693
-0.693307 1.508615 -0.453685
-0.715455 1.515174 -0.471726
-0.689610 1.512346 -0.457962
-0.711792 1.518988 -0.476155
-0.685207 1.517954 -0.462418
-0.707450 1.524677 -0.480849
-0.680245 1.525108 -0.466925
-0.702593 1.531890 -0.485652
-0.674857 1.533414 -0.471407
-0.697388 1.540303 -0.490391
-0.718671 1.547032 -0.507916
-0.691981 1.549584 -0.494926
-0.713470 1.556456 -0.512756
-0.733749 1.563305 -0.529328
-0.708328 1.566544 -0.517092
-0.728779 1.573536 -0.533959
-0.703366 1.577052 -0.520772
-0.724091 1.584182 -0.537798
-0.698679 1.587717 -0.523722
-0.719750 1.594990 -0.540762
-0.694360 1.598235 -0.525910
-0.715801 1.605649 -0.542851
-0.690531 1.608202 -0.527301
-0.712309 1.615719 -0.544088
-0.687377 1.617103 -0.527834
-0.709412 1.624651 -0.544478
-0.685160 1.624434 -0.527372
-0.707370 1.631973 -0.543914
-0.684145 1.629835 -0.525782
-0.706450 1.637368 -0.542274
-0.684521 1.633134 -0.523008
-0.706822 1.640672 -0.539527
-0.686316 1.634229 -0.519186
-0.708504 1.641775 -0.535857
-0.689389 1.633017 -0.514609
-0.711371 1.640570 -0.531560
-0.693478 1.629468 -0.509653
-0.715190 1.637031 -0.526960
-0.698279 1.623679 -0.504702
-0.719656 1.631223 -0.522450
-0.703513 1.615989 -0.500016
-0.724494 1.623453 -0.518232
-0.708964 1.606873 -0.495659
-0.729526 1.614195 -0.514273
-0.714472 1.596806 -0.491559
-0.734661 1.603964 -0.510385
-0.719909 1.586180 -0.487640
-0.739828 1.593180 -0.506411
-0.725139 1.575313 -0.483932
-0.744926 1.582162 -0.502374
-0.730002 1.564492 -0.480588
-0.749800 1.571201 -0.498473
-0.734305 1.554031 -0.477865
-0.754232 1.560618 -0.495065
-0.737839 1.544286 -0.476056
-0.757967 1.550772 -0.492559
-0.740416 1.535666 -0.475396
-0.760759 1.542075 -0.491286
-0.741901 1.528591 -0.475970
-0.762432 1.534953 -0.491384
-0.742237 1.523441 -0.477697
-0.762898 1.529784 -0.492778
-0.741433 1.520494 -0.480396
-0.762152 1.526847 -0.495272
-0.739550 1.519891 -0.483875
-0.760253 1.526282 -0.498666
-0.736690 1.521621 -0.487986
-0.757312 1.528069 -0.502817
-0.732988 1.525522 -0.492611
-0.753487 1.532042 -0.507620
-0.728617 1.531312 -0.497602
-0.748985 1.537881 -0.512917
-0.723780 1.538574 -0.502779
-0.744038 1.545250 -0.518500
-0.763055 1.552133 -0.533257
-0.738890 1.553797 -0.524077
-0.757848 1.560888 -0.539373
-0.774933 1.568442 -0.554255
-0.752793 1.570593 -0.545126
-0.770153 1.578530 -0.560655
-0.748054 1.580973 -0.550137
-0.765876 1.589269 -0.566176
-0.743678 1.591761 -0.554153
-0.762092 1.600353 -0.570520
-0.739678 1.602696 -0.557064
-0.758731 1.611483 -0.573532
-0.736089 1.613482 -0.558901
-0.755731 1.622344 -0.575215
-0.732985 1.623696 -0.559701
-0.753090 1.632529 -0.575654
-0.730521 1.632808 -0.559548
-0.750964 1.641591 -0.575102
-0.728883 1.640345 -0.558484
-0.749536 1.649096 -0.573722
-0.728232 1.645910 -0.556526
-0.748970 1.654642 -0.571606
-0.728692 1.649287 -0.553716
-0.749409 1.657979 -0.568891
-0.730276 1.650347 -0.550266
-0.750863 1.658970 -0.565818
-0.732870 1.649012 -0.546476
-0.753246 1.657546 -0.562671
-0.736266 1.645257 -0.542663
-0.756368 1.653742 -0.559747
-0.740214 1.639206 -0.539096
-0.759975 1.647728 -0.557167
-0.744523 1.631228 -0.535829
-0.763841 1.639831 -0.554860
-0.749085 1.621808 -0.532647
-0.767762 1.630445 -0.552386
-0.753795 1.611451 -0.529205
-0.771707 1.619983 -0.549244
-0.758564 1.600527 -0.525264
-0.775735 1.608796 -0.545140
-0.763371 1.589334 -0.520859
-0.779960 1.597180 -0.540117
-0.768163 1.578172 -0.516286
-0.784444 1.585542 -0.534563
-0.772723 1.567404 -0.512042
-0.789033 1.574362 -0.529141
-0.776730 1.557418 -0.508690
-0.793346 1.564095 -0.524578
-0.779845 1.548630 -0.506679
-0.796887 1.555159 -0.521484
-0.781810 1.541458 -0.506198
-0.799236 1.547950 -0.520147
-0.782482 1.536271 -0.507171
-0.800173 1.542789 -0.520521
-0.781833 1.533348 -0.509379
-0.799642 1.539922 -0.522368
-0.779917 1.532827 -0.512609
-0.797701 1.539470 -0.525450
-0.776860 1.534691 -0.516727
-0.794499 1.541415 -0.529626
-0.772851 1.538784 -0.521658
-0.790269 1.545599 -0.534794
-0.768158 1.544677 -0.527231
-0.785339 1.551728 -0.540842
-0.802219 1.558204 -0.554944
-0.780097 1.559414 -0.547468
-0.796964 1.566529 -0.562511
-0.816157 1.573960 -0.579175
-0.792078 1.576390 -0.570117
-0.811568 1.585390 -0.586978
-0.787802 1.587388 -0.577154
-0.807653 1.597685 -0.594189
-0.784133 1.598981 -0.583194
-0.804384 1.610252 -0.600616
-0.780931 1.610697 -0.587997
-0.801558 1.622591 -0.606037
-0.778061 1.622202 -0.591392
-0.799006 1.634424 -0.610194
-0.775441 1.633197 -0.593315
-0.796643 1.645564 -0.612839
-0.773077 1.643343 -0.593816
-0.794525 1.655808 -0.613873
-0.771107 1.652268 -0.593113
-0.792763 1.664837 -0.613398
-0.769735 1.659612 -0.591443
-0.791556 1.672290 -0.611658
-0.769189 1.665030 -0.589111
-0.791074 1.677805 -0.609170
-0.769594 1.668278 -0.586454
-0.791473 1.681097 -0.606516
-0.770946 1.669215 -0.583774
-0.792760 1.681987 -0.604164
-0.773177 1.667805 -0.581394
-0.795072 1.680448 -0.602596
-0.776141 1.664093 -0.579562
-0.797992 1.676454 -0.601786
-0.779574 1.658242 -0.578198
-0.801202 1.670169 -0.601171
-0.783186 1.650464 -0.576858
-0.804439 1.661926 -0.599795
-0.786756 1.641050 -0.574854
-0.807593 1.652070 -0.597085
-0.790190 1.630271 -0.571622
-0.810569 1.640750 -0.592859
-0.793552 1.618400 -0.566992
-0.813405 1.628098 -0.587321
-0.797028 1.605787 -0.561167
-0.816315 1.614473 -0.580848
-0.800883 1.593045 -0.554510
-0.819685 1.600587 -0.573812
-0.805210 1.580902 -0.547633
-0.823703 1.587228 -0.566587
-0.809708 1.569982 -0.541390
-0.828261 1.575137 -0.559582
-0.813721 1.560705 -0.536678
-0.832739 1.564937 -0.553394
-0.816568 1.553402 -0.534069
-0.836223 1.557131 -0.549122
-0.817848 1.548289 -0.533590
-0.837982 1.551841 -0.547420
-0.817428 1.545532 -0.535008
-0.837697 1.549109 -0.548322
-0.815385 1.545207 -0.538042
-0.835453 1.548973 -0.551519
-0.811921 1.547319 -0.542532
-0.831615 1.551435 -0.556648
-0.807382 1.551722 -0.548176
-0.826728 1.556584 -0.563337
-0.848740 1.563126 -0.578771
-0.821362 1.564219 -0.571050
-0.842440 1.572718 -0.586649
-0.860138 1.586157 -0.596940
-0.836838 1.583937 -0.594453
-0.854651 1.596110 -0.604507
-0.832214 1.596305 -0.602163
-0.850342 1.608011 -0.612288
-0.828511 1.609333 -0.609593
-0.846802 1.620759 -0.619941
-0.825538 1.622447 -0.616416
-0.843921 1.633608 -0.626973
-0.822924 1.634997 -0.622303
-0.841180 1.645664 -0.633013
-0.820565 1.646783 -0.626898
-0.838892 1.656994 -0.637776
-0.818413 1.657711 -0.629915
-0.836688 1.667248 -0.640685
-0.816656 1.667729 -0.631231
-0.835158 1.676597 -0.641726
-0.815319 1.676488 -0.630859
-0.833844 1.684355 -0.640824
-0.814684 1.683711 -0.629024
-0.833480 1.690605 -0.638406
-0.814611 1.688873 -0.626371
-0.833284 1.694709 -0.635386
-0.815183 1.691707 -0.623507
-0.834058 1.697055 -0.632181
-0.816083 1.691984 -0.621073
-0.834829 1.697297 -0.629714
-0.818271 1.689958 -0.619885
-0.836683 1.695357 -0.627944
-0.820595 1.685658 -0.619129
-0.838538 1.691391 -0.626884
-0.823165 1.679389 -0.618104
-0.841019 1.685700 -0.625524
-0.825815 1.671275 -0.616142
-0.843448 1.678049 -0.623471
-0.828521 1.661505 -0.612796
-0.845900 1.668589 -0.620014
-0.831142 1.650105 -0.608075
-0.848306 1.657356 -0.615157
-0.833670 1.637130 -0.602141
-0.850605 1.644410 -0.609012
-0.836237 1.622955 -0.595409
-0.852840 1.630236 -0.602056
-0.839338 1.608455 -0.588179
-0.855656 1.615978 -0.594595
-0.843303 1.594528 -0.581044
-0.859180 1.602683 -0.587624
-0.848524 1.581950 -0.574301
-0.864609 1.591721 -0.581140
-0.854288 1.570972 -0.568060
-0.869942 1.582937 -0.575713
-0.859506 1.562245 -0.562754
-0.874860 1.577214 -0.571815
-0.862612 1.556118 -0.559724
-0.877472 1.573620 -0.570700
-0.862733 1.552932 -0.560323
-0.877520 1.571758 -0.572506
-0.859844 1.553073 -0.564508
-0.875113 1.571548 -0.576725
-0.854807 1.556411 -0.571053
-0.870476 1.573253 -0.582591
-0.865488 1.578317 -0.589462
-0.876826 1.582688 -0.584583
-0.872535 1.586878 -0.591401
-0.880316 1.581026 -0.578807
-0.882341 1.581042 -0.574700
-0.882523 1.582322 -0.572650
-0.880220 1.584799 -0.573327
-0.875479 1.589142 -0.577045
-0.871357 1.597242 -0.581822
-0.866003 1.607143 -0.588400
-0.863037 1.619913 -0.595043
-0.860495 1.633749 -0.602511
-0.858710 1.647736 -0.609480
-0.857053 1.660755 -0.615766
-0.854568 1.671707 -0.620529
-0.852583 1.681150 -0.623964
-0.849981 1.688385 -0.625950
-0.847211 1.693595 -0.627581
-0.845859 1.697452 -0.628836
-0.843619 1.698967 -0.631027
-0.843326 1.699083 -0.633611
-0.842088 1.696890 -0.637132
-0.842721 1.693502 -0.640543
-0.842683 1.687613 -0.643312
-0.844450 1.680710 -0.644890
-0.845529 1.671583 -0.643951
-0.848258 1.662102 -0.641526
-0.850020 1.650793 -0.636450
-0.853213 1.639436 -0.630491
-0.855550 1.626674 -0.622982
-0.859106 1.614485 -0.615146
-0.862342 1.602646 -0.606875
-0.867683 1.593727 -0.598909
-0.034537 1.412338 -0.021252
-0.033787 1.400655 -0.024792
-0.026068 1.391750 -0.021292
-0.026025 1.383245 -0.020997
-0.022625 1.373268 -0.016401
-0.022626 1.366077 -0.015679
-0.021013 1.356960 -0.012355
-0.021107 1.351001 -0.011798
-0.020327 1.347238 -0.010213
-0.020529 1.342257 -0.009861
-0.020827 1.335418 -0.009190
-0.021345 1.326755 -0.008302
-0.021208 1.342971 -0.010800
-0.021587 1.332957 -0.009611
-0.022584 1.356520 -0.014330
-0.022790 1.344227 -0.012530
-0.026064 1.372021 -0.019466
-0.026250 1.357499 -0.017078
-0.033747 1.387249 -0.025035
-0.034009 1.371115 -0.022721
-0.033798 1.350969 -0.019560
-0.033273 1.327812 -0.016201
-0.026478 1.339770 -0.014372
-0.026918 1.320415 -0.011723
-0.023370 1.329759 -0.010676
-0.024430 1.314830 -0.008867
-0.022410 1.321844 -0.008445
-0.023674 1.310801 -0.007205
-0.022242 1.317571 -0.007401
-0.023537 1.308733 -0.006442
-0.025147 1.300357 -0.005245
-0.027009 1.293044 -0.003933
-0.025412 1.300621 -0.005720
-0.027605 1.291886 -0.004076
-0.026297 1.301234 -0.006795
-0.029007 1.289896 -0.004458
-0.028570 1.302612 -0.008827
-0.031597 1.288173 -0.005512
-0.034162 1.306014 -0.012469
-0.036855 1.288481 -0.008114
-0.040547 1.273767 -0.004212
-0.044856 1.261113 -0.001195
-0.035340 1.276273 -0.002495
-0.039189 1.265966 -0.000049
-0.032100 1.280546 -0.002222
-0.035138 1.272521 -0.000281
-0.029985 1.284556 -0.002442
-0.032269 1.278327 -0.000945
-0.028952 1.286817 -0.002615
-0.030807 1.281555 -0.001386
-0.032463 1.277195 -0.000311
-0.033846 1.273763 0.000599
-0.034320 1.273114 0.000335
-0.036046 1.269050 0.001386
-0.037956 1.265692 0.001334
-0.040376 1.260465 0.002639
-0.042953 1.257316 0.001984
-0.046420 1.250875 0.003783
-0.049571 1.251060 0.001451
-0.054194 1.244021 0.004252
-0.058102 1.239794 0.007194
-0.060815 1.237780 0.010036
-0.049243 1.246621 0.005452
-0.051198 1.244098 0.007142
-0.042228 1.256897 0.003750
-0.043503 1.254564 0.004857
-0.037368 1.266150 0.002284
-0.038242 1.264258 0.003134
-0.034899 1.271262 0.001386
-0.035590 1.269644 0.002124
-0.035902 1.268919 0.002907
-0.035815 1.269181 0.003802
-0.038643 1.263361 0.004055
-0.038545 1.263644 0.005137
-0.044161 1.253377 0.006109
-0.044038 1.253713 0.007515
-0.052175 1.243024 0.008943
-0.052056 1.243444 0.010736
-0.062168 1.237313 0.012625
-0.062133 1.237973 0.014815
-0.060444 1.239863 0.016222
-0.056865 1.243857 0.016767
-0.050681 1.245609 0.012258
-0.048072 1.249940 0.013552
-0.043065 1.255794 0.008904
-0.041367 1.259536 0.010203
-0.037917 1.265254 0.006270
-0.036758 1.268172 0.007285
-0.035308 1.270527 0.004734
-0.034383 1.272998 0.005561
-0.033063 1.276666 0.006163
-0.031409 1.281636 0.006437
-0.035103 1.272505 0.008058
-0.033054 1.278484 0.008432
-0.039034 1.265186 0.011292
-0.036225 1.273197 0.011843
-0.044538 1.257099 0.014639
-0.040713 1.267554 0.015218
-0.051940 1.251512 0.016896
-0.047208 1.263779 0.016926
-0.043685 1.279748 0.016116
-0.041233 1.298196 0.013770
-0.037250 1.280736 0.014720
-0.034223 1.295852 0.013032
-0.033298 1.283300 0.011519
-0.030467 1.295021 0.010406
-0.030793 1.286069 0.008240
-0.028465 1.295015 0.007498
-0.029532 1.287908 0.006299
-0.027568 1.295373 0.005729
-0.025693 1.303921 0.004757
-0.024131 1.313310 0.003378
-0.026286 1.305258 0.006278
-0.024656 1.316631 0.004522
-0.028012 1.308490 0.008639
-0.026504 1.323521 0.006094
-0.031949 1.313161 0.010342
-0.031049 1.332483 0.006663
-0.040020 1.319263 0.010024
-0.040220 1.342430 0.005287
-0.040546 1.364355 -0.000075
-0.040138 1.382718 -0.005431
-0.031111 1.351265 0.001988
-0.030826 1.367432 -0.003037
-0.025988 1.338628 0.002684
-0.025629 1.352208 -0.001182
-0.023715 1.328344 0.002216
-0.023094 1.339300 -0.000465
-0.022991 1.322974 0.001620
-0.022186 1.332185 -0.000434
-0.021602 1.340182 -0.002685
-0.021201 1.346405 -0.004966
-0.022547 1.348597 -0.003326
-0.022189 1.355656 -0.006165
-0.025086 1.363431 -0.005146
-0.024636 1.371642 -0.008780
-0.030102 1.380290 -0.007887
-0.029381 1.389798 -0.011790
-0.039429 1.397317 -0.009418
-0.038885 1.409391 -0.010646
-0.038139 1.418738 -0.010857
-0.028733 1.396380 -0.014552
-0.024270 1.377033 -0.011687
-0.021952 1.360465 -0.008659
-0.020905 1.350615 -0.007035
3 983 1 0
3 0 2 1119
3 1119 1106 1105
3 1105 1104 1103
3 1103 1086 1085
3 1085 1084 1083
3 1083 1066 1065
3 1065 1064 1063
3 1063 1046 1045
3 1045 1044 1043
3 1043 1026 1025
3 1025 1024 1023
3 1023 1006 1005
3 1005 1004 1003
3 986 985 984
3 1005 1003 986
3 1025 1023 1005
3 1045 1043 1025
3 1065 1063 1045
3 1085 1083 1065
3 1105 1103 1085
3 0 1119 1105
3 984 983 0
3 1005 986 984
3 1045 1025 1005
3 1085 1065 1045
3 0 1105 1085
3 1005 984 0
3 1085 1045 1005
3 0 1085 1005
3 0 1 4
3 0 4 3
3 2 0 3
3 2 3 5
3 3 4 7
3 3 7 6
3 5 3 6
3 5 6 8
3 6 7 10
3 6 10 9
3 8 6 9
3 8 9 11
3 9 10 13
3 9 13 12
3 11 9 12
3 11 12 14
3 12 13 16
3 12 16 15
3 14 12 15
3 14 15 18
3 17 15 16
3 17 16 108
3 20 18 15
3 20 15 17
3 22 19 18
3 22 18 20
3 1115 14 18
3 1115 18 19
3 21 20 17
3 21 17 111
3 23 22 20
3 23 20 21
3 24 25 19
3 24 19 22
3 26 24 22
3 26 22 23
3 27 28 25
3 27 25 24
3 29 27 24
3 29 24 26
3 30 31 28
3 30 28 27
3 32 30 27
3 32 27 29
3 33 34 31
3 33 31 30
3 35 33 30
3 35 30 32
3 36 37 34
3 36 34 33
3 38 36 33
3 38 33 35
3 39 40 37
3 39 37 36
3 41 39 36
3 41 36 38
3 42 43 40
3 42 40 39
3 44 42 39
3 44 39 41
3 45 46 43
3 45 43 42
3 47 45 42
3 47 42 44
3 48 49 46
3 48 46 45
3 50 48 45
3 50 45 47
3 51 52 49
3 51 49 48
3 53 51 48
3 53 48 50
3 54 55 52
3 54 52 51
3 56 54 51
3 56 51 53
3 57 58 55
3 57 55 54
3 59 57 54
3 59 54 56
3 60 61 58
3 60 58 57
3 62 60 57
3 62 57 59
3 63 64 61
3 63 61 60
3 65 63 60
3 65 60 62
3 66 67 64
3 66 64 63
3 68 66 63
3 68 63 65
3 69 70 67
3 69 67 66
3 71 69 66
3 71 66 68
3 72 73 70
3 72 70 69
3 74 72 69
3 74 69 71
3 75 76 73
3 75 73 72
3 77 75 72
3 77 72 74
3 78 79 76
3 78 76 75
3 80 78 75
3 80 75 77
3 81 82 79
3 81 79 78
3 83 81 78
3 83 78 80
3 84 85 82
3 84 82 81
3 86 84 81
3 86 81 83
3 87 88 85
3 87 85 84
3 89 87 84
3 89 84 86
3 90 91 88
3 90 88 87
3 92 90 87
3 92 87 89
3 93 94 91
3 93 91 90
3 95 93 90
3 95 90 92
3 96 97 94
3 96 94 93
3 98 96 93
3 98 93 95
3 99 100 97
3 99 97 96
3 101 99 96
3 101 96 98
3 102 103 100
3 102 100 99
3 104 102 99
3 104 99 101
3 105 106 103
3 105 103 102
3 107 105 102
3 107 102 104
3 108 16 106
3 108 106 105
3 109 108 105
3 109 105 107
3 111 17 108
3 111 108 109
3 110 109 107
3 110 107 172
3 112 111 109
3 112 109 110
3 114 21 111
3 114 111 112
3 115 114 112
3 115 112 113
3 113 112 110
3 113 110 175
3 116 23 21
3 116 21 114
3 117 116 114
3 117 114 115
3 118 26 23
3 118 23 116
3 119 118 116
3 119 116 117
3 120 29 26
3 120 26 118
3 121 120 118
3 121 118 119
3 122 32 29
3 122 29 120
3 123 122 120
3 123 120 121
3 124 35 32
3 124 32 122
3 125 124 122
3 125 122 123
3 126 38 35
3 126 35 124
3 127 126 124
3 127 124 125
3 128 41 38
3 128 38 126
3 129 128 126
3 129 126 127
3 130 44 41
3 130 41 128
3 131 130 128
3 131 128 129
3 132 47 44
3 132 44 130
3 133 132 130
3 133 130 131
3 134 50 47
3 134 47 132
3 135 134 132
3 135 132 133
3 136 53 50
3 136 50 134
3 137 136 134
3 137 134 135
3 138 56 53
3 138 53 136
3 139 138 136
3 139 136 137
3 140 59 56
3 140 56 138
3 141 140 138
3 141 138 139
3 142 62 59
3 142 59 140
3 143 142 140
3 143 140 141
3 144 65 62
3 144 62 142
3 145 144 142
3 145 142 143
3 146 68 65
3 146 65 144
3 147 146 144
3 147 144 145
3 148 71 68
3 148 68 146
3 149 148 146
3 149 146 147
3 150 74 71
3 150 71 148
3 151 150 148
3 151 148 149
3 152 77 74
3 152 74 150
3 153 152 150
3 153 150 151
3 154 80 77
3 154 77 152
3 155 154 152
3 155 152 153
3 156 83 80
3 156 80 154
3 157 156 154
3 157 154 155
3 158 86 83
3 158 83 156
3 159 158 156
3 159 156 157
3 160 89 86
3 160 86 158
3 161 160 158
3 161 158 159
3 162 92 89
3 162 89 160
3 163 162 160
3 163 160 161
3 164 95 92
3 164 92 162
3 165 164 162
3 165 162 163
3 166 98 95
3 166 95 164
3 167 166 164
3 167 164 165
3 168 101 98
3 168 98 166
3 169 168 166
3 169 166 167
3 170 104 101
3 170 101 168
3 171 170 168
3 171 168 169
3 172 107 104
3 172 104 170
3 173 172 170
3 173 170 171
3 175 110 172
3 175 172 173
3 174 173 171
3 174 171 236
3 176 175 173
3 176 173 174
3 178 113 175
3 178 175 176
3 177 176 174
3 177 174 239
3 179 178 176
3 179 176 177
3 181 180 178
3 181 178 179
3 180 115 113
3 180 113 178
3 182 117 115
3 182 115 180
3 183 182 180
3 183 180 181
3 184 119 117
3 184 117 182
3 185 184 182
3 185 182 183
3 186 121 119
3 186 119 184
3 187 186 184
3 187 184 185
3 188 123 121
3 188 121 186
3 189 188 186
3 189 186 187
3 190 125 123
3 190 123 188
3 191 190 188
3 191 188 189
3 192 127 125
3 192 125 190
3 193 192 190
3 193 190 191
3 194 129 127
3 194 127 192
3 195 194 192
3 195 192 193
3 196 131 129
3 196 129 194
3 197 196 194
3 197 194 195
3 198 133 131
3 198 131 196
3 199 198 196
3 199 196 197
3 200 135 133
3 200 133 198
3 201 200 198
3 201 198 199
3 202 137 135
3 202 135 200
3 203 202 200
3 203 200 201
3 204 139 137
3 204 137 202
3 205 204 202
3 205 202 203
3 206 141 139
3 206 139 204
3 207 206 204
3 207 204 205
3 208 143 141
3 208 141 206
3 209 208 206
3 209 206 207
3 210 145 143
3 210 143 208
3 211 210 208
3 211 208 209
3 212 147 145
3 212 145 210
3 213 212 210
3 213 210 211
3 214 149 147
3 214 147 212
3 215 214 212
3 215 212 213
3 216 151 149
3 216 149 214
3 217 216 214
3 217 214 215
3 218 153 151
3 218 151 216
3 219 218 216
3 219 216 217
3 220 155 153
3 220 153 218
3 221 220 218
3 221 218 219
3 222 157 155
3 222 155 220
3 223 222 220
3 223 220 221
3 224 159 157
3 224 157 222
3 225 224 222
3 225 222 223
3 226 161 159
3 226 159 224
3 227 226 224
3 227 224 225
3 228 163 161
3 228 161 226
3 229 228 226
3 229 226 227
3 230 165 163
3 230 163 228
3 231 230 228
3 231 228 229
3 232 167 165
3 232 165 230
3 233 232 230
3 233 230 231
3 234 169 167
3 234 167 232
3 235 234 232
3 235 232 233
3 236 171 169
3 236 169 234
3 237 236 234
3 237 234 235
3 239 174 236
3 239 236 237
3 238 237 235
3 238 235 300
3 240 239 237
3 240 237 238
3 242 177 239
3 242 239 240
3 241 240 238
3 241 238 303
3 243 242 240
3 243 240 241
3 244 179 177
3 244 177 242
3 245 244 242
3 245 242 243
3 247 246 244
3 247 244 245
3 246 181 179
3 246 179 244
3 248 183 181
3 248 181 246
3 249 248 246
3 249 246 247
3 250 185 183
3 250 183 248
3 251 250 248
3 251 248 249
3 252 187 185
3 252 185 250
3 253 252 250
3 253 250 251
3 254 189 187
3 254 187 252
3 255 254 252
3 255 252 253
3 256 191 189
3 256 189 254
3 257 256 254
3 257 254 255
3 258 193 191
3 258 191 256
3 259 258 256
3 259 256 257
3 260 195 193
3 260 193 258
3 261 260 258
3 261 258 259
3 262 197 195
3 262 195 260
3 263 262 260
3 263 260 261
3 264 199 197
3 264 197 262
3 265 264 262
3 265 262 263
3 266 201 199
3 266 199 264
3 267 266 264
3 267 264 265
3 268 203 201
3 268 201 266
3 269 268 266
3 269 266 267
3 270 205 203
3 270 203 268
3 271 270 268
3 271 268 269
3 272 207 205
3 272 205 270
3 273 272 270
3 273 270 271
3 274 209 207
3 274 207 272
3 275 274 272
3 275 272 273
3 276 211 209
3 276 209 274
3 277 276 274
3 277 274 275
3 278 213 211
3 278 211 276
3 279 278 276
3 279 276 277
3 280 215 213
3 280 213 278
3 281 280 278
3 281 278 279
3 282 217 215
3 282 215 280
3 283 282 280
3 283 280 281
3 284 219 217
3 284 217 282
3 285 284 282
3 285 282 283
3 286 221 219
3 286 219 284
3 287 286 284
3 287 284 285
3 288 223 221
3 288 221 286
3 289 288 286
3 289 286 287
3 290 225 223
3 290 223 288
3 291 290 288
3 291 288 289
3 292 227 225
3 292 225 290
3 293 292 290
3 293 290 291
3 294 229 227
3 294 227 292
3 295 294 292
3 295 292 293
3 296 231 229
3 296 229 294
3 297 296 294
3 297 294 295
3 298 233 231
3 298 231 296
3 299 298 296
3 299 296 297
3 300 235 233
3 300 233 298
3 301 300 298
3 301 298 299
3 303 238 300
3 303 300 301
3 302 301 299
3 302 299 364
3 304 303 301
3 304 301 302
3 306 241 303
3 306 303 304
3 305 304 302
3 305 302 367
3 307 306 304
3 307 304 305
3 308 243 241
3 308 241 306
3 309 308 306
3 309 306 307
3 310 245 243
3 310 243 308
3 311 310 308
3 311 308 309
3 313 312 310
3 313 310 311
3 312 247 245
3 312 245 310
3 314 249 247
3 314 247 312
3 315 314 312
3 315 312 313
3 316 251 249
3 316 249 314
3 317 316 314
3 317 314 315
3 318 253 251
3 318 251 316
3 319 318 316
3 319 316 317
3 320 255 253
3 320 253 318
3 321 320 318
3 321 318 319
3 322 257 255
3 322 255 320
3 323 322 320
3 323 320 321
3 324 259 257
3 324 257 322
3 325 324 322
3 325 322 323
3 326 261 259
3 326 259 324
3 327 326 324
3 327 324 325
3 328 263 261
3 328 261 326
3 329 328 326
3 329 326 327
3 330 265 263
3 330 263 328
3 331 330 328
3 331 328 329
3 332 267 265
3 332 265 330
3 333 332 330
3 333 330 331
3 334 269 267
3 334 267 332
3 335 334 332
3 335 332 333
3 336 271 269
3 336 269 334
3 337 336 334
3 337 334 335
3 338 273 271
3 338 271 336
3 339 338 336
3 339 336 337
3 340 275 273
3 340 273 338
3 341 340 338
3 341 338 339
3 342 277 275
3 342 275 340
3 343 342 340
3 343 340 341
3 344 279 277
3 344 277 342
3 345 344 342
3 345 342 343
3 346 281 279
3 346 279 344
3 347 346 344
3 347 344 345
3 348 283 281
3 348 281 346
3 349 348 346
3 349 346 347
3 350 285 283
3 350 283 348
3 351 350 348
3 351 348 349
3 352 287 285
3 352 285 350
3 353 352 350
3 353 350 351
3 354 289 287
3 354 287 352
3 355 354 352
3 355 352 353
3 356 291 289
3 356 289 354
3 357 356 354
3 357 354 355
3 358 293 291
3 358 291 356
3 359 358 356
3 359 356 357
3 360 295 293
3 360 293 358
3 361 360 358
3 361 358 359
3 362 297 295
3 362 295 360
3 363 362 360
3 363 360 361
3 364 299 297
3 364 297 362
3 365 364 362
3 365 362 363
3 367 302 364
3 367 364 365
3 366 365 363
3 366 363 428
3 368 367 365
3 368 365 366
3 370 305 367
3 370 367 368
3 369 368 366
3 369 366 431
3 371 370 368
3 371 368 369
3 372 307 305
3 372 305 370
3 373 372 370
3 373 370 371
3 374 309 307
3 374 307 372
3 375 374 372
3 375 372 373
3 376 311 309
3 376 309 374
3 377 376 374
3 377 374 375
3 379 378 376
3 379 376 377
3 378 313 311
3 378 311 376
3 380 315 313
3 380 313 378
3 381 380 378
3 381 378 379
3 382 317 315
3 382 315 380
3 383 382 380
3 383 380 381
3 384 319 317
3 384 317 382
3 385 384 382
3 385 382 383
3 386 321 319
3 386 319 384
3 387 386 384
3 387 384 385
3 388 323 321
3 388 321 386
3 389 388 386
3 389 386 387
3 390 325 323
3 390 323 388
3 391 390 388
3 391 388 389
3 392 327 325
3 392 325 390
3 393 392 390
3 393 390 391
3 394 329 327
3 394 327 392
3 395 394 392
3 395 392 393
3 396 331 329
3 396 329 394
3 397 396 394
3 397 394 395
3 398 333 331
3 398 331 396
3 399 398 396
3 399 396 397
3 400 335 333
3 400 333 398
3 401 400 398
3 401 398 399
3 402 337 335
3 402 335 400
3 403 402 400
3 403 400 401
3 404 339 337
3 404 337 402
3 405 404 402
3 405 402 403
3 406 341 339
3 406 339 404
3 407 406 404
3 407 404 405
3 408 343 341
3 408 341 406
3 409 408 406
3 409 406 407
3 410 345 343
3 410 343 408
3 411 410 408
3 411 408 409
3 412 347 345
3 412 345 410
3 413 412 410
3 413 410 411
3 414 349 347
3 414 347 412
3 415 414 412
3 415 412 413
3 416 351 349
3 416 349 414
3 417 416 414
3 417 414 415
3 418 353 351
3 418 351 416
3 419 418 416
3 419 416 417
3 420 355 353
3 420 353 418
3 421 420 418
3 421 418 419
3 422 357 355
3 422 355 420
3 423 422 420
3 423 420 421
3 424 359 357
3 424 357 422
3 425 424 422
3 425 422 423
3 426 361 359
3 426 359 424
3 427 426 424
3 427 424 425
3 428 363 361
3 428 361 426
3 429 428 426
3 429 426 427
3 431 366 428
3 431 428 429
3 430 429 427
3 430 427 492
3 432 431 429
3 432 429 430
3 434 369 431
3 434 431 432
3 433 432 430
3 433 430 495
3 435 434 432
3 435 432 433
3 436 371 369
3 436 369 434
3 437 436 434
3 437 434 435
3 438 373 371
3 438 371 436
3 439 438 436
3 439 436 437
3 440 375 373
3 440 373 438
3 441 440 438
3 441 438 439
3 442 377 375
3 442 375 440
3 443 442 440
3 443 440 441
3 445 444 442
3 445 442 443
3 444 379 377
3 444 377 442
3 446 381 379
3 446 379 444
3 447 446 444
3 447 444 445
3 448 383 381
3 448 381 446
3 449 448 446
3 449 446 447
3 450 385 383
3 450 383 448
3 451 450 448
3 451 448 449
3 452 387 385
3 452 385 450
3 453 452 450
3 453 450 451
3 454 389 387
3 454 387 452
3 455 454 452
3 455 452 453
3 456 391 389
3 456 389 454
3 457 456 454
3 457 454 455
3 458 393 391
3 458 391 456
3 459 458 456
3 459 456 457
3 460 395 393
3 460 393 458
3 461 460 458
3 461 458 459
3 462 397 395
3 462 395 460
3 463 462 460
3 463 460 461
3 464 399 397
3 464 397 462
3 465 464 462
3 465 462 463
3 466 401 399
3 466 399 464
3 467 466 464
3 467 464 465
3 468 403 401
3 468 401 466
3 469 468 466
3 469 466 467
3 470 405 403
3 470 403 468
3 471 470 468
3 471 468 469
3 472 407 405
3 472 405 470
3 473 472 470
3 473 470 471
3 474 409 407
3 474 407 472
3 475 474 472
3 475 472 473
3 476 411 409
3 476 409 474
3 477 476 474
3 477 474 475
3 478 413 411
3 478 411 476
3 479 478 476
3 479 476 477
3 480 415 413
3 480 413 478
3 481 480 478
3 481 478 479
3 482 417 415
3 482 415 480
3 483 482 480
3 483 480 481
3 484 419 417
3 484 417 482
3 485 484 482
3 485 482 483
3 486 421 419
3 486 419 484
3 487 486 484
3 487 484 485
3 488 423 421
3 488 421 486
3 489 488 486
3 489 486 487
3 490 425 423
3 490 423 488
3 491 490 488
3 491 488 489
3 492 427 425
3 492 425 490
3 493 492 490
3 493 490 491
3 495 430 492
3 495 492 493
3 494 493 491
3 494 491 556
3 496 495 493
3 496 493 494
3 498 433 495
3 498 495 496
3 497 496 494
3 497 494 559
3 499 498 496
3 499 496 497
3 500 435 433
3 500 433 498
3 501 500 498
3 501 498 499
3 502 437 435
3 502 435 500
3 503 502 500
3 503 500 501
3 504 439 437
3 504 437 502
3 505 504 502
3 505 502 503
3 506 441 439
3 506 439 504
3 507 506 504
3 507 504 505
3 508 443 441
3 508 441 506
3 509 508 506
3 509 506 507
3 511 510 508
3 511 508 509
3 510 445 443
3 510 443 508
3 512 447 445
3 512 445 510
3 513 512 510
3 513 510 511
3 514 449 447
3 514 447 512
3 515 514 512
3 515 512 513
3 516 451 449
3 516 449 514
3 517 516 514
3 517 514 515
3 518 453 451
3 518 451 516
3 519 518 516
3 519 516 517
3 520 455 453
3 520 453 518
3 521 520 518
3 521 518 519
3 522 457 455
3 522 455 520
3 523 522 520
3 523 520 521
3 524 459 457
3 524 457 522
3 525 524 522
3 525 522 523
3 526 461 459
3 526 459 524
3 527 526 524
3 527 524 525
3 528 463 461
3 528 461 526
3 529 528 526
3 529 526 527
3 530 465 463
3 530 463 528
3 531 530 528
3 531 528 529
3 532 467 465
3 532 465 530
3 533 532 530
3 533 530 531
3 534 469 467
3 534 467 532
3 535 534 532
3 535 532 533
3 536 471 469
3 536 469 534
3 537 536 534
3 537 534 535
3 538 473 471
3 538 471 536
3 539 538 536
3 539 536 537
3 540 475 473
3 540 473 538
3 541 540 538
3 541 538 539
3 542 477 475
3 542 475 540
3 543 542 540
3 543 540 541
3 544 479 477
3 544 477 542
3 545 544 542
3 545 542 543
3 546 481 479
3 546 479 544
3 547 546 544
3 547 544 545
3 548 483 481
3 548 481 546
3 549 548 546
3 549 546 547
3 550 485 483
3 550 483 548
3 551 550 548
3 551 548 549
3 552 487 485
3 552 485 550
3 553 552 550
3 553 550 551
3 554 489 487
3 554 487 552
3 555 554 552
3 555 552 553
3 556 491 489
3 556 489 554
3 557 556 554
3 557 554 555
3 559 494 556
3 559 556 557
3 558 557 555
3 558 555 620
3 560 559 557
3 560 557 558
3 562 497 559
3 562 559 560
3 561 560 558
3 561 558 623
3 563 562 560
3 563 560 561
3 564 499 497
3 564 497 562
3 565 564 562
3 565 562 563
3 566 501 499
3 566 499 564
3 567 566 564
3 567 564 565
3 568 503 501
3 568 501 566
3 569 568 566
3 569 566 567
3 570 505 503
3 570 503 568
3 571 570 568
3 571 568 569
3 572 507 505
3 572 505 570
3 573 572 570
3 573 570 571
3 574 509 507
3 574 507 572
3 575 574 572
3 575 572 573
3 577 576 574
3 577 574 575
3 576 511 509
3 576 509 574
3 578 513 511
3 578 511 576
3 579 578 576
3 579 576 577
3 580 515 513
3 580 513 578
3 581 580 578
3 581 578 579
3 582 517 515
3 582 515 580
3 583 582 580
3 583 580 581
3 584 519 517
3 584 517 582
3 585 584 582
3 585 582 583
3 586 521 519
3 586 519 584
3 587 586 584
3 587 584 585
3 588 523 521
3 588 521 586
3 589 588 586
3 589 586 587
3 590 525 523
3 590 523 588
3 591 590 588
3 591 588 589
3 592 527 525
3 592 525 590
3 593 592 590
3 593 590 591
3 594 529 527
3 594 527 592
3 595 594 592
3 595 592 593
3 596 531 529
3 596 529 594
3 597 596 594
3 597 594 595
3 598 533 531
3 598 531 596
3 599 598 596
3 599 596 597
3 600 535 533
3 600 533 598
3 601 600 598
3 601 598 599
3 602 537 535
3 602 535 600
3 603 602 600
3 603 600 601
3 604 539 537
3 604 537 602
3 605 604 602
3 605 602 603
3 606 541 539
3 606 539 604
3 607 606 604
3 607 604 605
3 608 543 541
3 608 541 606
3 609 608 606
3 609 606 607
3 610 545 543
3 610 543 608
3 611 610 608
3 611 608 609
3 612 547 545
3 612 545 610
3 613 612 610
3 613 610 611
3 614 549 547
3 614 547 612
3 615 614 612
3 615 612 613
3 616 551 549
3 616 549 614
3 617 616 614
3 617 614 615
3 618 553 551
3 618 551 616
3 619 618 616
3 619 616 617
3 620 555 553
3 620 553 618
3 621 620 618
3 621 618 619
3 623 558 620
3 623 620 621
3 622 621 619
3 622 619 684
3 624 623 621
3 624 621 622
3 626 561 623
3 626 623 624
3 625 624 622
3 625 622 687
3 627 626 624
3 627 624 625
3 628 563 561
3 628 561 626
3 629 628 626
3 629 626 627
3 630 565 563
3 630 563 628
3 631 630 628
3 631 628 629
3 632 567 565
3 632 565 630
3 633 632 630
3 633 630 631
3 634 569 567
3 634 567 632
3 635 634 632
3 635 632 633
3 636 571 569
3 636 569 634
3 637 636 634
3 637 634 635
3 638 573 571
3 638 571 636
3 639 638 636
3 639 636 637
3 640 575 573
3 640 573 638
3 641 640 638
3 641 638 639
3 643 642 640
3 643 640 641
3 642 577 575
3 642 575 640
3 644 579 577
3 644 577 642
3 645 644 642
3 645 642 643
3 646 581 579
3 646 579 644
3 647 646 644
3 647 644 645
3 648 583 581
3 648 581 646
3 649 648 646
3 649 646 647
3 650 585 583
3 650 583 648
3 651 650 648
3 651 648 649
3 652 587 585
3 652 585 650
3 653 652 650
3 653 650 651
3 654 589 587
3 654 587 652
3 655 654 652
3 655 652 653
3 656 591 589
3 656 589 654
3 657 656 654
3 657 654 655
3 658 593 591
3 658 591 656
3 659 658 656
3 659 656 657
3 660 595 593
3 660 593 658
3 661 660 658
3 661 658 659
3 662 597 595
3 662 595 660
3 663 662 660
3 663 660 661
3 664 599 597
3 664 597 662
3 665 664 662
3 665 662 663
3 666 601 599
3 666 599 664
3 667 666 664
3 667 664 665
3 668 603 601
3 668 601 666
3 669 668 666
3 669 666 667
3 670 605 603
3 670 603 668
3 671 670 668
3 671 668 669
3 672 607 605
3 672 605 670
3 673 672 670
3 673 670 671
3 674 609 607
3 674 607 672
3 675 674 672
3 675 672 673
3 676 611 609
3 676 609 674
3 677 676 674
3 677 674 675
3 678 613 611
3 678 611 676
3 679 678 676
3 679 676 677
3 680 615 613
3 680 613 678
3 681 680 678
3 681 678 679
3 682 617 615
3 682 615 680
3 683 682 680
3 683 680 681
3 684 619 617
3 684 617 682
3 685 684 682
3 685 682 683
3 687 622 684
3 687 684 685
3 686 685 683
3 686 683 748
3 688 687 685
3 688 685 686
3 690 625 687
3 690 687 688
3 689 688 686
3 689 686 751
3 691 690 688
3 691 688 689
3 692 627 625
3 692 625 690
3 693 692 690
3 693 690 691
3 694 629 627
3 694 627 692
3 695 694 692
3 695 692 693
3 696 631 629
3 696 629 694
3 697 696 694
3 697 694 695
3 698 633 631
3 698 631 696
3 699 698 696
3 699 696 697
3 700 635 633
3 700 633 698
3 701 700 698
3 701 698 699
3 702 637 635
3 702 635 700
3 703 702 700
3 703 700 701
3 704 639 637
3 704 637 702
3 705 704 702
3 705 702 703
3 706 641 639
3 706 639 704
3 707 706 704
3 707 704 705
3 709 708 706
3 709 706 707
3 708 643 641
3 708 641 706
3 710 645 643
3 710 643 708
3 711 710 708
3 711 708 709
3 712 647 645
3 712 645 710
3 713 712 710
3 713 710 711
3 714 649 647
3 714 647 712
3 715 714 712
3 715 712 713
3 716 651 649
3 716 649 714
3 717 716 714
3 717 714 715
3 718 653 651
3 718 651 716
3 719 718 716
3 719 716 717
3 720 655 653
3 720 653 718
3 721 720 718
3 721 718 719
3 722 657 655
3 722 655 720
3 723 722 720
3 723 720 721
3 724 659 657
3 724 657 722
3 725 724 722
3 725 722 723
3 726 661 659
3 726 659 724
3 727 726 724
3 727 724 725
3 728 663 661
3 728 661 726
3 729 728 726
3 729 726 727
3 730 665 663
3 730 663 728
3 731 730 728
3 731 728 729
3 732 667 665
3 732 665 730
3 733 732 730
3 733 730 731
3 734 669 667
3 734 667 732
3 735 734 732
3 735 732 733
3 736 671 669
3 736 669 734
3 737 736 734
3 737 734 735
3 738 673 671
3 738 671 736
3 739 738 736
3 739 736 737
3 740 675 673
3 740 673 738
3 741 740 738
3 741 738 739
3 742 677 675
3 742 675 740
3 743 742 740
3 743 740 741
3 744 679 677
3 744 677 742
3 745 744 742
3 745 742 743
3 746 681 679
3 746 679 744
3 747 746 744
3 747 744 745
3 748 683 681
3 748 681 746
3 749 748 746
3 749 746 747
3 751 686 748
3 751 748 749
3 750 749 747
3 750 747 812
3 752 751 749
3 752 749 750
3 754 689 751
3 754 751 752
3 753 752 750
3 753 750 815
3 755 754 752
3 755 752 753
3 756 691 689
3 756 689 754
3 757 756 754
3 757 754 755
3 758 693 691
3 758 691 756
3 759 758 756
3 759 756 757
3 760 695 693
3 760 693 758
3 761 760 758
3 761 758 759
3 762 697 695
3 762 695 760
3 763 762 760
3 763 760 761
3 764 699 697
3 764 697 762
3 765 764 762
3 765 762 763
3 766 701 699
3 766 699 764
3 767 766 764
3 767 764 765
3 768 703 701
3 768 701 766
3 769 768 766
3 769 766 767
3 770 705 703
3 770 703 768
3 771 770 768
3 771 768 769
3 772 707 705
3 772 705 770
3 773 772 770
3 773 770 771
3 775 774 772
3 775 772 773
3 774 709 707
3 774 707 772
3 776 711 709
3 776 709 774
3 777 776 774
3 777 774 775
3 778 713 711
3 778 711 776
3 779 778 776
3 779 776 777
3 780 715 713
3 780 713 778
3 781 780 778
3 781 778 779
3 782 717 715
3 782 715 780
3 783 782 780
3 783 780 781
3 784 719 717
3 784 717 782
3 785 784 782
3 785 782 783
3 786 721 719
3 786 719 784
3 787 786 784
3 787 784 785
3 788 723 721
3 788 721 786
3 789 788 786
3 789 786 787
3 790 725 723
3 790 723 788
3 791 790 788
3 791 788 789
3 792 727 725
3 792 725 790
3 793 792 790
3 793 790 791
3 794 729 727
3 794 727 792
3 795 794 792
3 795 792 793
3 796 731 729
3 796 729 794
3 797 796 794
3 797 794 795
3 798 733 731
3 798 731 796
3 799 798 796
3 799 796 797
3 800 735 733
3 800 733 798
3 801 800 798
3 801 798 799
3 802 737 735
3 802 735 800
3 803 802 800
3 803 800 801
3 804 739 737
3 804 737 802
3 805 804 802
3 805 802 803
3 806 741 739
3 806 739 804
3 807 806 804
3 807 804 805
3 808 743 741
3 808 741 806
3 809 808 806
3 809 806 807
3 810 745 743
3 810 743 808
3 811 810 808
3 811 808 809
3 812 747 745
3 812 745 810
3 813 812 810
3 813 810 811
3 815 750 812
3 815 812 813
3 814 813 811
3 814 811 876
3 816 815 813
3 816 813 814
3 818 753 815
3 818 815 816
3 817 816 814
3 817 814 879
3 819 818 816
3 819 816 817
3 820 755 753
3 820 753 818
3 821 820 818
3 821 818 819
3 822 757 755
3 822 755 820
3 823 822 820
3 823 820 821
3 824 759 757
3 824 757 822
3 825 824 822
3 825 822 823
3 826 761 759
3 826 759 824
3 827 826 824
3 827 824 825
3 828 763 761
3 828 761 826
3 829 828 826
3 829 826 827
3 830 765 763
3 830 763 828
3 831 830 828
3 831 828 829
3 832 767 765
3 832 765 830
3 833 832 830
3 833 830 831
3 834 769 767
3 834 767 832
3 835 834 832
3 835 832 833
3 836 771 769
3 836 769 834
3 837 836 834
3 837 834 835
3 838 773 771
3 838 771 836
3 839 838 836
3 839 836 837
3 841 840 838
3 841 838 839
3 840 775 773
3 840 773 838
3 842 777 775
3 842 775 840
3 843 842 840
3 843 840 841
3 844 779 777
3 844 777 842
3 845 844 842
3 845 842 843
3 846 781 779
3 846 779 844
3 847 846 844
3 847 844 845
3 848 783 781
3 848 781 846
3 849 848 846
3 849 846 847
3 850 785 783
3 850 783 848
3 851 850 848
3 851 848 849
3 852 787 785
3 852 785 850
3 853 852 850
3 853 850 851
3 854 789 787
3 854 787 852
3 855 854 852
3 855 852 853
3 856 791 789
3 856 789 854
3 857 856 854
3 857 854 855
3 858 793 791
3 858 791 856
3 859 858 856
3 859 856 857
3 860 795 793
3 860 793 858
3 861 860 858
3 861 858 859
3 862 797 795
3 862 795 860
3 863 862 860
3 863 860 861
3 864 799 797
3 864 797 862
3 865 864 862
3 865 862 863
3 866 801 799
3 866 799 864
3 867 866 864
3 867 864 865
3 868 803 801
3 868 801 866
3 869 868 866
3 869 866 867
3 870 805 803
3 870 803 868
3 871 870 868
3 871 868 869
3 872 807 805
3 872 805 870
3 873 872 870
3 873 870 871
3 874 809 807
3 874 807 872
3 875 874 872
3 875 872 873
3 876 811 809
3 876 809 874
3 877 876 874
3 877 874 875
3 879 814 876
3 879 876 877
3 878 877 875
3 878 875 940
3 880 879 877
3 880 877 878
3 882 817 879
3 882 879 880
3 881 880 878
3 881 878 942
3 883 882 880
3 883 880 881
3 884 819 817
3 884 817 882
3 885 884 882
3 885 882 883
3 886 821 819
3 886 819 884
3 887 886 884
3 887 884 885
3 888 823 821
3 888 821 886
3 889 888 886
3 889 886 887
3 890 825 823
3 890 823 888
3 891 890 888
3 891 888 889
3 892 827 825
3 892 825 890
3 893 892 890
3 893 890 891
3 894 829 827
3 894 827 892
3 895 894 892
3 895 892 893
3 896 831 829
3 896 829 894
3 897 896 894
3 897 894 895
3 898 833 831
3 898 831 896
3 899 898 896
3 899 896 897
3 900 835 833
3 900 833 898
3 901 900 898
3 901 898 899
3 902 837 835
3 902 835 900
3 903 902 900
3 903 900 901
3 904 839 837
3 904 837 902
3 905 904 902
3 905 902 903
3 907 906 904
3 907 904 905
3 906 841 839
3 906 839 904
3 908 843 841
3 908 841 906
3 909 908 906
3 909 906 907
3 910 845 843
3 910 843 908
3 911 910 908
3 911 908 909
3 912 847 845
3 912 845 910
3 913 912 910
3 913 910 911
3 914 849 847
3 914 847 912
3 915 914 912
3 915 912 913
3 916 851 849
3 916 849 914
3 917 916 914
3 917 914 915
3 918 853 851
3 918 851 916
3 919 918 916
3 919 916 917
3 920 855 853
3 920 853 918
3 921 920 918
3 921 918 919
3 922 857 855
3 922 855 920
3 923 922 920
3 923 920 921
3 924 859 857
3 924 857 922
3 925 924 922
3 925 922 923
3 926 861 859
3 926 859 924
3 927 926 924
3 927 924 925
3 928 863 861
3 928 861 926
3 929 928 926
3 929 926 927
3 930 865 863
3 930 863 928
3 931 930 928
3 931 928 929
3 932 867 865
3 932 865 930
3 933 932 930
3 933 930 931
3 934 869 867
3 934 867 932
3 935 934 932
3 935 932 933
3 936 871 869
3 936 869 934
3 937 936 934
3 937 934 935
3 938 873 871
3 938 871 936
3 939 938 936
3 939 936 937
3 940 875 873
3 940 873 938
3 941 940 938
3 941 938 939
3 942 878 940
3 942 940 941
3 943 944 942
3 943 942 941
3 945 943 941
3 945 941 939
3 974 944 943
3 943 945 946
3 946 947 948
3 949 950 951
3 946 948 949
3 974 943 946
3 972 973 974
3 970 971 972
3 968 969 970
3 966 967 968
3 964 965 966
3 962 963 964
3 960 961 962
3 957 958 959
3 959 960 962
3 962 964 966
3 966 968 970
3 970 972 974
3 974 946 949
3 951 952 953
3 974 949 951
3 966 970 974
3 959 962 966
3 957 959 966
3 966 974 951
3 966 951 953
3 956 957 966
3 955 956 966
3 966 953 954
3 954 955 966
3 946 945 939
3 946 939 937
3 947 946 937
3 947 937 935
3 948 947 935
3 948 935 933
3 949 948 933
3 949 933 931
3 950 949 931
3 950 931 929
3 951 950 929
3 951 929 927
3 952 951 927
3 952 927 925
3 953 952 925
3 953 925 923
3 954 953 923
3 954 923 921
3 955 954 921
3 955 921 919
3 956 955 919
3 956 919 917
3 957 956 917
3 957 917 915
3 958 957 915
3 958 915 913
3 959 958 913
3 959 913 911
3 960 959 911
3 960 911 909
3 961 960 909
3 961 909 907
3 962 961 907
3 962 907 905
3 963 962 905
3 963 905 903
3 964 963 903
3 964 903 901
3 965 964 901
3 965 901 899
3 966 965 899
3 966 899 897
3 967 966 897
3 967 897 895
3 968 967 895
3 968 895 893
3 969 968 893
3 969 893 891
3 970 969 891
3 970 891 889
3 971 970 889
3 971 889 887
3 972 971 887
3 972 887 885
3 973 972 885
3 973 885 883
3 974 973 883
3 974 883 881
3 944 974 881
3 944 881 942
3 13 975 106
3 13 106 16
3 975 976 103
3 975 103 106
3 10 977 975
3 10 975 13
3 977 978 976
3 977 976 975
3 7 979 977
3 7 977 10
3 979 980 978
3 979 978 977
3 4 981 979
3 4 979 7
3 981 982 980
3 981 980 979
3 1 983 981
3 1 981 4
3 983 984 982
3 983 982 981
3 984 985 987
3 984 987 982
3 985 986 988
3 985 988 987
3 982 987 989
3 982 989 980
3 987 988 990
3 987 990 989
3 980 989 991
3 980 991 978
3 989 990 992
3 989 992 991
3 978 991 993
3 978 993 976
3 991 992 994
3 991 994 993
3 976 993 100
3 976 100 103
3 993 994 97
3 993 97 100
3 994 995 94
3 994 94 97
3 992 997 995
3 992 995 994
3 995 996 91
3 995 91 94
3 997 998 996
3 997 996 995
3 990 999 997
3 990 997 992
3 999 1000 998
3 999 998 997
3 988 1001 999
3 988 999 990
3 1001 1002 1000
3 1001 1000 999
3 986 1003 1001
3 986 1001 988
3 1003 1004 1002
3 1003 1002 1001
3 1004 1005 1007
3 1004 1007 1002
3 1005 1006 1008
3 1005 1008 1007
3 1002 1007 1009
3 1002 1009 1000
3 1007 1008 1010
3 1007 1010 1009
3 1000 1009 1011
3 1000 1011 998
3 1009 1010 1012
3 1009 1012 1011
3 998 1011 1013
3 998 1013 996
3 1011 1012 1014
3 1011 1014 1013
3 996 1013 88
3 996 88 91
3 1013 1014 85
3 1013 85 88
3 1014 1015 82
3 1014 82 85
3 1012 1017 1015
3 1012 1015 1014
3 1015 1016 79
3 1015 79 82
3 1017 1018 1016
3 1017 1016 1015
3 1010 1019 1017
3 1010 1017 1012
3 1019 1020 1018
3 1019 1018 1017
3 1008 1021 1019
3 1008 1019 1010
3 1021 1022 1020
3 1021 1020 1019
3 1006 1023 1021
3 1006 1021 1008
3 1023 1024 1022
3 1023 1022 1021
3 1024 1025 1027
3 1024 1027 1022
3 1025 1026 1028
3 1025 1028 1027
3 1022 1027 1029
3 1022 1029 1020
3 1027 1028 1030
3 1027 1030 1029
3 1020 1029 1031
3 1020 1031 1018
3 1029 1030 1032
3 1029 1032 1031
3 1018 1031 1033
3 1018 1033 1016
3 1031 1032 1034
3 1031 1034 1033
3 1016 1033 76
3 1016 76 79
3 1033 1034 73
3 1033 73 76
3 1034 1035 70
3 1034 70 73
3 1032 1037 1035
3 1032 1035 1034
3 1035 1036 67
3 1035 67 70
3 1037 1038 1036
3 1037 1036 1035
3 1030 1039 1037
3 1030 1037 1032
3 1039 1040 1038
3 1039 1038 1037
3 1028 1041 1039
3 1028 1039 1030
3 1041 1042 1040
3 1041 1040 1039
3 1026 1043 1041
3 1026 1041 1028
3 1043 1044 1042
3 1043 1042 1041
3 1044 1045 1047
3 1044 1047 1042
3 1045 1046 1048
3 1045 1048 1047
3 1042 1047 1049
3 1042 1049 1040
3 1047 1048 1050
3 1047 1050 1049
3 1040 1049 1051
3 1040 1051 1038
3 1049 1050 1052
3 1049 1052 1051
3 1038 1051 1053
3 1038 1053 1036
3 1051 1052 1054
3 1051 1054 1053
3 1036 1053 64
3 1036 64 67
3 1053 1054 61
3 1053 61 64
3 1054 1055 58
3 1054 58 61
3 1052 1057 1055
3 1052 1055 1054
3 1055 1056 55
3 1055 55 58
3 1057 1058 1056
3 1057 1056 1055
3 1050 1059 1057
3 1050 1057 1052
3 1059 1060 1058
3 1059 1058 1057
3 1048 1061 1059
3 1048 1059 1050
3 1061 1062 1060
3 1061 1060 1059
3 1046 1063 1061
3 1046 1061 1048
3 1063 1064 1062
3 1063 1062 1061
3 1064 1065 1067
3 1064 1067 1062
3 1065 1066 1068
3 1065 1068 1067
3 1062 1067 1069
3 1062 1069 1060
3 1067 1068 1070
3 1067 1070 1069
3 1060 1069 1071
3 1060 1071 1058
3 1069 1070 1072
3 1069 1072 1071
3 1058 1071 1073
3 1058 1073 1056
3 1071 1072 1074
3 1071 1074 1073
3 1056 1073 52
3 1056 52 55
3 1073 1074 49
3 1073 49 52
3 1074 1075 46
3 1074 46 49
3 1072 1077 1075
3 1072 1075 1074
3 1075 1076 43
3 1075 43 46
3 1077 1078 1076
3 1077 1076 1075
3 1070 1079 1077
3 1070 1077 1072
3 1079 1080 1078
3 1079 1078 1077
3 1068 1081 1079
3 1068 1079 1070
3 1081 1082 1080
3 1081 1080 1079
3 1066 1083 1081
3 1066 1081 1068
3 1083 1084 1082
3 1083 1082 1081
3 1084 1085 1087
3 1084 1087 1082
3 1085 1086 1088
3 1085 1088 1087
3 1082 1087 1089
3 1082 1089 1080
3 1087 1088 1090
3 1087 1090 1089
3 1080 1089 1091
3 1080 1091 1078
3 1089 1090 1092
3 1089 1092 1091
3 1078 1091 1093
3 1078 1093 1076
3 1091 1092 1094
3 1091 1094 1093
3 1076 1093 40
3 1076 40 43
3 1093 1094 37
3 1093 37 40
3 1094 1095 34
3 1094 34 37
3 1092 1097 1095
3 1092 1095 1094
3 1095 1096 31
3 1095 31 34
3 1097 1098 1096
3 1097 1096 1095
3 1090 1099 1097
3 1090 1097 1092
3 1099 1100 1098
3 1099 1098 1097
3 1088 1101 1099
3 1088 1099 1090
3 1101 1102 1100
3 1101 1100 1099
3 1086 1103 1101
3 1086 1101 1088
3 1103 1104 1102
3 1103 1102 1101
3 1104 1105 1107
3 1104 1107 1102
3 1105 1106 1108
3 1105 1108 1107
3 1102 1107 1109
3 1102 1109 1100
3 1107 1108 1110
3 1107 1110 1109
3 1100 1109 1111
3 1100 1111 1098
3 1109 1110 1112
3 1109 1112 1111
3 1098 1111 1113
3 1098 1113 1096
3 1111 1112 1114
3 1111 1114 1113
3 1096 1113 28
3 1096 28 31
3 1113 1114 25
3 1113 25 28
3 1114 1115 19
3 1114 19 25
3 1112 1116 1115
3 1112 1115 1114
3 1116 11 14
3 1116 14 1115
3 1110 1117 1116
3 1110 1116 1112
3 1117 8 11
3 1117 11 1116
3 1108 1118 1117
3 1108 1117 1110
3 1118 5 8
3 1118 8 1117
3 1106 1119 1118
3 1106 1118 1108
3 1119 2 5
3 1119 5 1118
