ply
format ascii 1.0
element vertex 1088
property float x
property float y
property float z
element face 2172
property list uchar int vertex_index
end_header
-0.311919 2.644866 -0.231474
-0.311730 2.644704 -0.231588
-0.312314 2.644953 -0.230408
-0.317449 2.651433 -0.234544
-0.317041 2.651101 -0.234815
-0.318222 2.651592 -0.232461
-0.323972 2.658827 -0.237597
-0.323311 2.658309 -0.238045
-0.325169 2.659055 -0.234407
-0.332209 2.667799 -0.240821
-0.331321 2.667091 -0.241315
-0.334008 2.668118 -0.236177
-0.340093 2.675710 -0.242008
-0.338504 2.674654 -0.243496
-0.341906 2.675898 -0.237116
-0.349997 2.684556 -0.240335
-0.347254 2.683018 -0.243589
-0.365474 2.658729 -0.268421
-0.351427 2.684447 -0.235935
-0.351480 2.682699 -0.230555
-0.366847 2.658716 -0.264038
-0.383680 2.632161 -0.291289
-0.366850 2.657060 -0.258689
-0.383874 2.630477 -0.286003
-0.365440 2.653835 -0.252600
-0.350131 2.679375 -0.224414
-0.382649 2.627181 -0.280064
-0.362623 2.649163 -0.246049
-0.347405 2.674599 -0.217776
-0.379981 2.622397 -0.273771
-0.358471 2.643206 -0.239351
-0.343383 2.668532 -0.210952
-0.375908 2.616295 -0.267451
-0.353124 2.636151 -0.232867
-0.338211 2.661364 -0.204294
-0.370554 2.609081 -0.261436
-0.346795 2.628203 -0.226982
-0.332101 2.653317 -0.198182
-0.364131 2.600972 -0.256037
-0.339770 2.619599 -0.222060
-0.325330 2.644639 -0.192974
-0.356939 2.592232 -0.251504
-0.332377 2.610612 -0.218362
-0.318204 2.635620 -0.188936
-0.349325 2.583145 -0.247991
-0.324949 2.601581 -0.215971
-0.311029 2.626600 -0.186186
-0.341644 2.574055 -0.245538
-0.317786 2.592876 -0.214804
-0.304079 2.617955 -0.184693
-0.334220 2.565328 -0.244105
-0.311149 2.584903 -0.214702
-0.297593 2.610080 -0.184353
-0.327331 2.557353 -0.243636
-0.305252 2.578039 -0.215548
-0.291778 2.603350 -0.185072
-0.321203 2.550490 -0.244113
-0.300279 2.572617 -0.217298
-0.286817 2.598084 -0.186800
-0.316031 2.545061 -0.245549
-0.296383 2.568895 -0.219951
-0.282873 2.594532 -0.189504
-0.311971 2.541313 -0.247965
-0.293692 2.567041 -0.223482
-0.280088 2.592857 -0.193126
-0.309157 2.539403 -0.251335
-0.292310 2.567126 -0.227808
-0.278573 2.593129 -0.197553
-0.307693 2.539408 -0.255571
-0.292315 2.569130 -0.232767
-0.278406 2.595325 -0.202606
-0.307643 2.541316 -0.260525
-0.293736 2.572941 -0.238143
-0.279622 2.599326 -0.208049
-0.309035 2.545021 -0.265976
-0.296559 2.578365 -0.243678
-0.282212 2.604927 -0.213624
-0.311845 2.550355 -0.271679
-0.300708 2.585139 -0.249130
-0.286110 2.611850 -0.219098
-0.315996 2.557069 -0.277365
-0.306041 2.592955 -0.254297
-0.291185 2.619769 -0.224310
-0.321355 2.564878 -0.282795
-0.312352 2.601473 -0.259050
-0.297238 2.628331 -0.229184
-0.327724 2.573450 -0.287757
-0.319369 2.610352 -0.263318
-0.304017 2.637189 -0.233687
-0.334842 2.582443 -0.292106
-0.326777 2.619253 -0.267052
-0.311224 2.646013 -0.237755
-0.342392 2.591514 -0.295756
-0.334240 2.627865 -0.270175
-0.318547 2.654501 -0.241250
-0.350035 2.600334 -0.298646
-0.341437 2.635887 -0.272562
-0.325675 2.662375 -0.243973
-0.357411 2.608577 -0.300724
-0.348094 2.643050 -0.274047
-0.332329 2.669384 -0.245709
-0.364219 2.615954 -0.301905
-0.353983 2.649105 -0.274468
-0.338271 2.675291 -0.246283
-0.370246 2.622199 -0.302071
-0.358930 2.653840 -0.273697
-0.343301 2.679891 -0.245586
-0.375311 2.627089 -0.301120
-0.362803 2.657086 -0.271673
-0.379311 2.630446 -0.298982
-0.393029 2.604173 -0.327323
-0.382131 2.632155 -0.295674
-0.396195 2.605899 -0.323835
-0.407093 2.580807 -0.353205
-0.398130 2.605871 -0.319292
-0.409220 2.580724 -0.348643
-0.398726 2.604098 -0.313890
-0.410061 2.578845 -0.343182
-0.397886 2.600657 -0.307903
-0.409517 2.575247 -0.337092
-0.395545 2.595687 -0.301659
-0.407538 2.570073 -0.330680
-0.391718 2.589358 -0.295482
-0.404103 2.563512 -0.324281
-0.386509 2.581902 -0.289674
-0.399321 2.555803 -0.318170
-0.380148 2.573560 -0.284460
-0.393380 2.547216 -0.312578
-0.372963 2.564622 -0.279983
-0.386581 2.538067 -0.307650
-0.365315 2.555398 -0.276333
-0.379261 2.528677 -0.303489
-0.357566 2.546238 -0.273556
-0.371761 2.519407 -0.300185
-0.350039 2.537506 -0.271689
-0.364400 2.510618 -0.297820
-0.343015 2.529570 -0.270776
-0.357464 2.502663 -0.296479
-0.336728 2.522770 -0.270873
-0.351201 2.495869 -0.296235
-0.331385 2.517408 -0.272026
-0.345827 2.490517 -0.297137
-0.327153 2.513706 -0.274251
-0.341520 2.486819 -0.299191
-0.324170 2.511822 -0.277515
-0.338422 2.484931 -0.302353
-0.322535 2.511829 -0.281724
-0.336640 2.484931 -0.306525
-0.322313 2.513719 -0.286722
-0.336237 2.486817 -0.311556
-0.323523 2.517401 -0.292301
-0.337233 2.490515 -0.317248
-0.326132 2.522719 -0.298227
-0.339598 2.495869 -0.323367
-0.330065 2.529444 -0.304225
-0.343253 2.502671 -0.329655
-0.335189 2.537297 -0.310043
-0.348063 2.510642 -0.335858
-0.341314 2.545962 -0.315439
-0.353840 2.519472 -0.341726
-0.348196 2.555092 -0.320216
-0.360344 2.528802 -0.347041
-0.355552 2.564336 -0.324226
-0.367314 2.538273 -0.351619
-0.363058 2.573349 -0.327363
-0.374445 2.547519 -0.355306
-0.370383 2.581789 -0.329551
-0.381463 2.556184 -0.357974
-0.377259 2.589347 -0.330708
-0.388106 2.563936 -0.359516
-0.383428 2.595744 -0.330764
-0.394156 2.570491 -0.359842
-0.388737 2.600748 -0.329643
-0.399429 2.575600 -0.358897
-0.410857 2.551747 -0.386279
-0.403790 2.579080 -0.356665
-0.415119 2.555318 -0.384314
-0.428418 2.532701 -0.409526
-0.418381 2.557077 -0.381053
-0.431646 2.534522 -0.406449
-0.420510 2.556967 -0.376626
-0.433781 2.534408 -0.402137
-0.421401 2.554999 -0.371225
-0.434717 2.532370 -0.396775
-0.420983 2.551252 -0.365097
-0.434367 2.528490 -0.390612
-0.419193 2.545871 -0.358542
-0.432681 2.522911 -0.383941
-0.416043 2.539062 -0.351865
-0.429681 2.515849 -0.377054
-0.411620 2.531073 -0.345352
-0.425431 2.507563 -0.370256
-0.406089 2.522194 -0.339253
-0.420100 2.498363 -0.363802
-0.399693 2.512765 -0.333766
-0.413902 2.488602 -0.357925
-0.392732 2.503123 -0.329042
-0.407118 2.478640 -0.352807
-0.385523 2.493636 -0.325210
-0.400056 2.468858 -0.348600
-0.378377 2.484678 -0.322385
-0.393021 2.459643 -0.345440
-0.371581 2.476584 -0.320661
-0.386298 2.451330 -0.343427
-0.365399 2.469690 -0.320114
-0.380155 2.444256 -0.342646
-0.360049 2.464255 -0.320788
-0.374810 2.438679 -0.343133
-0.355719 2.460502 -0.322680
-0.370459 2.434832 -0.344892
-0.352561 2.458583 -0.325743
-0.367250 2.432857 -0.347871
-0.350682 2.458575 -0.329876
-0.365298 2.432839 -0.351968
-0.350151 2.460483 -0.334928
-0.364675 2.434784 -0.357031
-0.350994 2.464241 -0.340705
-0.365413 2.438627 -0.362869
-0.353185 2.469703 -0.346974
-0.367496 2.444229 -0.369246
-0.356645 2.476650 -0.353482
-0.370846 2.451367 -0.375907
-0.361245 2.484821 -0.359972
-0.375343 2.459780 -0.382590
-0.366793 2.493887 -0.366194
-0.380794 2.469129 -0.389040
-0.373054 2.503490 -0.371917
-0.386965 2.479047 -0.395024
-0.379768 2.513251 -0.376943
-0.393590 2.489144 -0.400338
-0.386637 2.522788 -0.381097
-0.400367 2.499015 -0.404806
-0.393417 2.531732 -0.384223
-0.407050 2.508279 -0.408260
-0.399835 2.539731 -0.386197
-0.413366 2.516566 -0.410566
-0.405715 2.546488 -0.386901
-0.419147 2.523559 -0.411589
-0.433973 2.501642 -0.434587
-0.424211 2.529004 -0.411253
-0.439012 2.507298 -0.434484
-0.454412 2.486300 -0.456642
-0.443222 2.511145 -0.432943
-0.458631 2.490315 -0.455278
-0.446488 2.513055 -0.429988
-0.461962 2.492331 -0.452421
-0.448696 2.512964 -0.425727
-0.464285 2.492288 -0.448182
-0.449733 2.510880 -0.420348
-0.465480 2.490191 -0.442752
-0.449500 2.506885 -0.414104
-0.465429 2.486114 -0.436398
-0.447932 2.501124 -0.407297
-0.464047 2.480216 -0.429437
-0.445046 2.493814 -0.400229
-0.461326 2.472702 -0.422196
-0.440884 2.485226 -0.393222
-0.457298 2.463856 -0.415008
-0.435626 2.475687 -0.386535
-0.452129 2.454019 -0.408138
-0.429479 2.465569 -0.380412
-0.446033 2.443561 -0.401830
-0.422731 2.455252 -0.375044
-0.439303 2.432886 -0.396271
-0.415694 2.445132 -0.370591
-0.432260 2.422409 -0.391626
-0.408671 2.435607 -0.367201
-0.425219 2.412544 -0.388044
-0.401953 2.427032 -0.364980
-0.418482 2.403682 -0.385647
-0.395797 2.419730 -0.364018
-0.412298 2.396139 -0.384526
-0.390430 2.413988 -0.364359
-0.406897 2.390212 -0.384743
-0.386039 2.410019 -0.366010
-0.402456 2.386104 -0.386297
-0.382772 2.407970 -0.368917
-0.399129 2.383982 -0.389147
-0.380748 2.407934 -0.372984
-0.397031 2.383925 -0.393197
-0.380045 2.409922 -0.378062
-0.396244 2.385942 -0.398297
-0.380697 2.413862 -0.383951
-0.396807 2.389963 -0.404247
-0.382692 2.419605 -0.390418
-0.398713 2.395853 -0.410809
-0.385967 2.426950 -0.397201
-0.401913 2.403397 -0.417715
-0.390398 2.435613 -0.404034
-0.406280 2.412306 -0.424682
-0.395803 2.445256 -0.410651
-0.411634 2.422240 -0.431439
-0.401944 2.455505 -0.416818
-0.417726 2.432804 -0.437752
-0.408550 2.465954 -0.422334
-0.424280 2.443579 -0.443421
-0.415307 2.476182 -0.427026
-0.430978 2.454130 -0.448285
-0.421957 2.485782 -0.430729
-0.437550 2.464037 -0.452192
-0.428236 2.494382 -0.433300
-0.443749 2.472915 -0.454987
-0.459624 2.452133 -0.476056
-0.449412 2.480432 -0.456523
-0.465141 2.459886 -0.477842
-0.481285 2.440202 -0.498736
-0.470058 2.465951 -0.478146
-0.486060 2.446487 -0.499291
-0.474249 2.470119 -0.476926
-0.490199 2.450805 -0.498187
-0.477619 2.472247 -0.474161
-0.493579 2.453038 -0.495503
-0.480051 2.472250 -0.469914
-0.496088 2.453110 -0.491311
-0.481413 2.470187 -0.464463
-0.497597 2.451027 -0.485761
-0.481578 2.466085 -0.458008
-0.497962 2.446869 -0.479188
-0.480444 2.460109 -0.450904
-0.497071 2.440792 -0.471934
-0.477973 2.452475 -0.443505
-0.494869 2.433025 -0.464368
-0.474190 2.443471 -0.436152
-0.491375 2.423864 -0.456842
-0.469231 2.433427 -0.429121
-0.486700 2.413645 -0.449641
-0.463300 2.422715 -0.422644
-0.481036 2.402739 -0.442992
-0.456685 2.411741 -0.416906
-0.474646 2.391547 -0.437073
-0.449704 2.400939 -0.412073
-0.467835 2.380502 -0.432051
-0.442680 2.390734 -0.408298
-0.460926 2.370047 -0.428083
-0.435925 2.381542 -0.405719
-0.454231 2.360601 -0.425318
-0.429706 2.373717 -0.404438
-0.448031 2.352546 -0.423876
-0.424255 2.367555 -0.404526
-0.442562 2.346186 -0.423829
-0.419759 2.363288 -0.405989
-0.438023 2.341753 -0.425202
-0.416368 2.361066 -0.408790
-0.434575 2.339427 -0.427951
-0.414197 2.360965 -0.412831
-0.432336 2.339271 -0.431980
-0.413328 2.363000 -0.417959
-0.431391 2.341293 -0.437136
-0.413808 2.367098 -0.423977
-0.431782 2.345412 -0.443218
-0.415634 2.373114 -0.430637
-0.433502 2.351482 -0.449972
-0.418752 2.380829 -0.437658
-0.436499 2.359330 -0.457111
-0.423027 2.389957 -0.444752
-0.440640 2.368659 -0.464338
-0.428285 2.400149 -0.451638
-0.445738 2.379081 -0.471370
-0.434267 2.410993 -0.458081
-0.451524 2.390165 -0.477973
-0.440682 2.422045 -0.463891
-0.457717 2.401456 -0.483955
-0.447228 2.432861 -0.468898
-0.464011 2.412505 -0.489171
-0.453601 2.443012 -0.473021
-0.470168 2.422888 -0.493456
-0.487285 2.403579 -0.513565
-0.475948 2.432236 -0.496745
-0.492845 2.413197 -0.517063
-0.510162 2.394063 -0.536869
-0.498005 2.421384 -0.519215
-0.515106 2.402568 -0.539258
-0.502644 2.427842 -0.519904
-0.519607 2.409206 -0.540059
-0.506696 2.432320 -0.518956
-0.523579 2.413862 -0.539219
-0.510067 2.434642 -0.516331
-0.526940 2.416311 -0.536649
-0.512636 2.434697 -0.512090
-0.529571 2.416458 -0.532427
-0.514265 2.432614 -0.506503
-0.531319 2.414257 -0.526699
-0.514801 2.428354 -0.499813
-0.532021 2.409844 -0.519866
-0.514121 2.422111 -0.492412
-0.531538 2.403395 -0.512317
-0.512157 2.414140 -0.484691
-0.529794 2.395173 -0.504454
-0.508920 2.404754 -0.477008
-0.526790 2.385509 -0.496637
-0.504513 2.394311 -0.469651
-0.522627 2.374785 -0.489149
-0.499116 2.383192 -0.462842
-0.517480 2.363411 -0.482208
-0.492975 2.371800 -0.456759
-0.511590 2.351818 -0.475999
-0.486378 2.360560 -0.451570
-0.505232 2.340452 -0.470697
-0.479640 2.349915 -0.447436
-0.498711 2.329744 -0.466470
-0.473071 2.340297 -0.444516
-0.492322 2.320112 -0.463474
-0.466953 2.332087 -0.442934
-0.486342 2.311913 -0.461823
-0.461532 2.325607 -0.442771
-0.481019 2.305441 -0.461601
-0.457012 2.321100 -0.444056
-0.476565 2.300930 -0.462835
-0.453551 2.318707 -0.446749
-0.473147 2.298534 -0.465491
-0.451278 2.318519 -0.450758
-0.470898 2.298337 -0.469472
-0.450275 2.320525 -0.455929
-0.469902 2.300349 -0.474625
-0.450593 2.324687 -0.462057
-0.470193 2.304495 -0.480742
-0.452217 2.330852 -0.468882
-0.471749 2.310645 -0.487569
-0.455075 2.338809 -0.476121
-0.474477 2.318594 -0.494834
-0.459036 2.348263 -0.483483
-0.478228 2.328056 -0.502254
-0.463921 2.358850 -0.490676
-0.482816 2.338686 -0.509559
-0.469465 2.370132 -0.497454
-0.488012 2.350075 -0.516502
-0.475402 2.381645 -0.503601
-0.493578 2.361762 -0.522870
-0.481404 2.392929 -0.509034
-0.499270 2.373242 -0.528463
-0.517319 2.352151 -0.547472
-0.504845 2.384176 -0.533210
-0.522548 2.363348 -0.552429
-0.540875 2.342678 -0.570865
-0.527601 2.373469 -0.556205
-0.545585 2.352822 -0.574777
-0.532334 2.382136 -0.558670
-0.550086 2.361537 -0.577279
-0.536677 2.388997 -0.559595
-0.554250 2.368475 -0.578259
-0.540562 2.393814 -0.558824
-0.558016 2.373365 -0.577533
-0.543902 2.396389 -0.556278
-0.561291 2.376011 -0.575031
-0.546579 2.396596 -0.552000
-0.563952 2.376303 -0.570837
-0.548421 2.394451 -0.546277
-0.565841 2.374150 -0.565113
-0.549275 2.389997 -0.539380
-0.566798 2.369669 -0.558259
-0.548990 2.383423 -0.531747
-0.566678 2.363024 -0.550674
-0.547475 2.374984 -0.523793
-0.565387 2.354467 -0.542768
-0.544719 2.365009 -0.515882
-0.562904 2.344347 -0.534912
-0.540810 2.353900 -0.508310
-0.559299 2.333097 -0.527414
-0.535918 2.342118 -0.501311
-0.554729 2.321206 -0.520512
-0.530282 2.330151 -0.495079
-0.549410 2.309175 -0.514387
-0.524169 2.318481 -0.489786
-0.543597 2.297473 -0.509195
-0.517870 2.307551 -0.485582
-0.537557 2.286522 -0.505068
-0.511666 2.297760 -0.482605
-0.531558 2.276696 -0.502129
-0.505826 2.289443 -0.480959
-0.525863 2.268333 -0.500483
-0.500603 2.282905 -0.480721
-0.520735 2.261750 -0.500218
-0.496219 2.278375 -0.481926
-0.516416 2.257205 -0.501382
-0.492859 2.276016 -0.484544
-0.513110 2.254886 -0.503956
-0.490661 2.275914 -0.488485
-0.510968 2.254891 -0.507845
-0.489715 2.278081 -0.493593
-0.510073 2.257217 -0.512882
-0.490039 2.282429 -0.499652
-0.510423 2.261749 -0.518842
-0.491575 2.288774 -0.506401
-0.511934 2.268268 -0.525467
-0.494196 2.296866 -0.513574
-0.514462 2.276500 -0.532496
-0.497742 2.306421 -0.520921
-0.517830 2.286125 -0.539685
-0.502027 2.317115 -0.528202
-0.521854 2.296817 -0.546811
-0.506865 2.328593 -0.535177
-0.526343 2.308211 -0.553674
-0.512022 2.340417 -0.541673
-0.531133 2.319942 -0.560077
-0.551303 2.301002 -0.578160
-0.536011 2.331558 -0.565889
-0.555810 2.312386 -0.583805
-0.576788 2.294278 -0.601627
-0.560334 2.323289 -0.588639
-0.581025 2.305012 -0.606207
-0.564744 2.333248 -0.592451
-0.585205 2.314839 -0.609777
-0.568971 2.341849 -0.594962
-0.589223 2.323354 -0.612125
-0.572940 2.348734 -0.595948
-0.593026 2.330195 -0.613005
-0.576569 2.353611 -0.595239
-0.596530 2.335061 -0.612254
-0.579754 2.356262 -0.592779
-0.599620 2.337724 -0.609832
-0.582368 2.356552 -0.588641
-0.602157 2.338047 -0.605832
-0.584240 2.354460 -0.583085
-0.604006 2.335996 -0.600442
-0.585241 2.350024 -0.576408
-0.605023 2.331621 -0.594012
-0.585232 2.343423 -0.569023
-0.605089 2.325097 -0.586923
-0.584122 2.334923 -0.561342
-0.604122 2.316695 -0.579568
-0.581888 2.324886 -0.553733
-0.602092 2.306774 -0.572304
-0.578585 2.313743 -0.546494
-0.599043 2.295753 -0.565413
-0.574346 2.301959 -0.539842
-0.595088 2.284079 -0.559087
-0.569362 2.290002 -0.533937
-0.590398 2.272203 -0.553463
-0.563856 2.278314 -0.528909
-0.585177 2.260560 -0.548656
-0.558072 2.267317 -0.524883
-0.579649 2.249565 -0.544786
-0.552271 2.257408 -0.521986
-0.574061 2.239627 -0.541979
-0.546720 2.248958 -0.520338
-0.568680 2.231140 -0.540364
-0.541693 2.242313 -0.520041
-0.563784 2.224471 -0.540054
-0.537446 2.237751 -0.521152
-0.559633 2.219913 -0.541117
-0.534197 2.235472 -0.523657
-0.556446 2.217666 -0.543548
-0.532105 2.235577 -0.527465
-0.554383 2.217823 -0.547266
-0.531251 2.238053 -0.532404
-0.553530 2.220367 -0.552105
-0.531629 2.242770 -0.538245
-0.553877 2.225157 -0.557829
-0.533137 2.249484 -0.544718
-0.555319 2.231924 -0.564160
-0.535607 2.257873 -0.551557
-0.557679 2.240323 -0.570816
-0.538848 2.267579 -0.558513
-0.560763 2.249987 -0.577548
-0.542678 2.278255 -0.565370
-0.564382 2.260560 -0.584143
-0.546875 2.289500 -0.571970
-0.568371 2.271700 -0.590433
-0.590556 2.253990 -0.609463
-0.572533 2.283049 -0.596311
-0.594523 2.265287 -0.615055
-0.617300 2.247246 -0.634470
-0.598615 2.276469 -0.620039
-0.621243 2.258425 -0.639170
-0.602710 2.287154 -0.624257
-0.625239 2.269101 -0.643052
-0.606733 2.296957 -0.627508
-0.629176 2.278916 -0.645956
-0.610624 2.305490 -0.629571
-0.633000 2.287488 -0.647689
-0.614326 2.312382 -0.630233
-0.636649 2.294445 -0.648078
-0.617750 2.317310 -0.629353
-0.640024 2.299446 -0.647018
-0.620773 2.320023 -0.626905
-0.642995 2.302228 -0.644511
-0.623260 2.320354 -0.622978
-0.645423 2.302628 -0.640661
-0.625064 2.318364 -0.617799
-0.647188 2.300603 -0.635657
-0.626074 2.314016 -0.611647
-0.648174 2.296227 -0.629786
-0.626181 2.307510 -0.604887
-0.648295 2.289689 -0.623370
-0.625310 2.299127 -0.597889
-0.647492 2.281276 -0.616737
-0.623432 2.289231 -0.590990
-0.645741 2.271354 -0.610184
-0.620583 2.278239 -0.584447
-0.643070 2.260339 -0.603947
-0.616863 2.266597 -0.578431
-0.639561 2.248672 -0.598189
-0.612425 2.254751 -0.573066
-0.635346 2.236798 -0.593033
-0.607458 2.243135 -0.568459
-0.630597 2.225153 -0.588589
-0.602173 2.232171 -0.564728
-0.625521 2.214171 -0.584981
-0.596810 2.222270 -0.562011
-0.620355 2.204276 -0.582355
-0.591628 2.213829 -0.560447
-0.615351 2.195864 -0.580855
-0.586892 2.207205 -0.560155
-0.610758 2.189281 -0.580603
-0.582850 2.202683 -0.561203
-0.606805 2.184793 -0.581668
-0.579709 2.200450 -0.563597
-0.603687 2.182570 -0.584064
-0.577628 2.200593 -0.567264
-0.601554 2.182688 -0.587723
-0.576695 2.203092 -0.572044
-0.600508 2.185139 -0.592480
-0.576918 2.207812 -0.577700
-0.600583 2.189812 -0.598090
-0.578215 2.214507 -0.583944
-0.601726 2.196478 -0.604259
-0.580426 2.222839 -0.590478
-0.603796 2.204803 -0.610686
-0.583356 2.232437 -0.597039
-0.606567 2.214395 -0.617101
-0.586784 2.242927 -0.603418
-0.609856 2.224892 -0.623301
-0.633826 2.206368 -0.643528
-0.613464 2.235953 -0.629135
-0.637306 2.217529 -0.649117
-0.662201 2.198890 -0.669042
-0.641056 2.228900 -0.654167
-0.665813 2.210461 -0.673765
-0.644936 2.240124 -0.658535
-0.669661 2.221862 -0.677746
-0.648858 2.250842 -0.662067
-0.673564 2.232734 -0.680880
-0.652750 2.260688 -0.664602
-0.677466 2.242706 -0.683001
-0.656548 2.269284 -0.665979
-0.681293 2.251384 -0.683978
-0.660174 2.276253 -0.666070
-0.684949 2.258389 -0.683728
-0.663518 2.281255 -0.664813
-0.688302 2.263389 -0.682228
-0.666446 2.284026 -0.662227
-0.691212 2.266140 -0.679532
-0.668827 2.284387 -0.658419
-0.693548 2.266497 -0.675775
-0.670538 2.282366 -0.653614
-0.695214 2.264369 -0.671129
-0.671490 2.277961 -0.648037
-0.696121 2.259861 -0.665857
-0.671612 2.271374 -0.641985
-0.696216 2.253135 -0.660206
-0.670859 2.262893 -0.635746
-0.695476 2.244469 -0.654417
-0.669211 2.252887 -0.629575
-0.693891 2.234237 -0.648713
-0.666689 2.241775 -0.623688
-0.691478 2.222877 -0.643294
-0.663354 2.230003 -0.618243
-0.688283 2.210852 -0.638307
-0.659314 2.218011 -0.613367
-0.684402 2.198616 -0.633881
-0.654726 2.206242 -0.609169
-0.679982 2.186626 -0.630122
-0.649791 2.195130 -0.605773
-0.675222 2.175335 -0.627150
-0.644747 2.185107 -0.603331
-0.670360 2.165197 -0.625100
-0.639848 2.176589 -0.601995
-0.665641 2.156632 -0.624082
-0.635342 2.169938 -0.601878
-0.661289 2.149994 -0.624182
-0.631441 2.165428 -0.603019
-0.657501 2.145537 -0.625432
-0.628333 2.163239 -0.605424
-0.654443 2.143417 -0.627827
-0.626167 2.163437 -0.609028
-0.652249 2.143694 -0.631296
-0.625042 2.165998 -0.613677
-0.651021 2.146339 -0.635702
-0.625015 2.170799 -0.619143
-0.650822 2.151245 -0.640839
-0.626061 2.177604 -0.625142
-0.651655 2.158189 -0.646458
-0.628043 2.186062 -0.631373
-0.653394 2.166813 -0.652317
-0.630684 2.195767 -0.637560
-0.655874 2.176730 -0.658158
-0.682366 2.157600 -0.678606
-0.658836 2.187526 -0.663797
-0.684930 2.168607 -0.683923
-0.712711 2.149884 -0.703352
-0.688047 2.180263 -0.688811
-0.715328 2.161817 -0.708003
-0.691510 2.192137 -0.693147
-0.718409 2.174032 -0.712070
-0.695228 2.203842 -0.696763
-0.721833 2.186102 -0.715416
-0.699107 2.214999 -0.699496
-0.725557 2.197610 -0.717843
-0.703055 2.225208 -0.701172
-0.729459 2.208100 -0.719125
-0.706955 2.234043 -0.701702
-0.733359 2.217105 -0.719225
-0.710680 2.241127 -0.701061
-0.737097 2.224265 -0.718204
-0.714069 2.246139 -0.699275
-0.740469 2.229277 -0.716136
-0.716975 2.248852 -0.696428
-0.743330 2.231930 -0.713131
-0.719276 2.249113 -0.692672
-0.745567 2.232093 -0.709405
-0.720872 2.246886 -0.688228
-0.747090 2.229674 -0.705170
-0.721703 2.242213 -0.683292
-0.747852 2.224759 -0.700590
-0.721729 2.235247 -0.678095
-0.747834 2.217471 -0.695894
-0.720955 2.226268 -0.672830
-0.747093 2.208099 -0.691202
-0.719398 2.215658 -0.667686
-0.745684 2.197014 -0.686663
-0.717094 2.203887 -0.662853
-0.743676 2.184741 -0.682456
-0.714095 2.191473 -0.658447
-0.741103 2.171869 -0.678647
-0.710492 2.178913 -0.654586
-0.738010 2.158948 -0.675306
-0.706421 2.166714 -0.651346
-0.734457 2.146498 -0.672436
-0.702054 2.155356 -0.648812
-0.730538 2.135000 -0.670076
-0.697580 2.145271 -0.647081
-0.726400 2.124854 -0.668339
-0.693191 2.136827 -0.646252
-0.722238 2.116415 -0.667388
-0.689088 2.130328 -0.646428
-0.718277 2.109971 -0.667399
-0.685466 2.126002 -0.647674
-0.714737 2.105744 -0.668490
-0.682499 2.124003 -0.649992
-0.711808 2.103879 -0.670680
-0.680322 2.124384 -0.653311
-0.709630 2.104425 -0.673892
-0.679020 2.127105 -0.657489
-0.708288 2.107335 -0.677960
-0.678631 2.132041 -0.662327
-0.707799 2.112472 -0.682664
-0.679149 2.138991 -0.667585
-0.708086 2.119601 -0.687766
-0.680393 2.147599 -0.673095
-0.709064 2.128433 -0.693036
-0.739932 2.108855 -0.712102
-0.710594 2.138629 -0.698309
-0.741167 2.119496 -0.717188
-0.775306 2.099563 -0.736903
-0.742944 2.131209 -0.721924
-0.776574 2.111870 -0.741374
-0.745090 2.143566 -0.726210
-0.778258 2.124809 -0.745245
-0.747590 2.156170 -0.729913
-0.780183 2.137957 -0.748335
-0.750459 2.168584 -0.732909
-0.782429 2.150832 -0.750575
-0.753718 2.180365 -0.735015
-0.785052 2.162972 -0.751895
-0.757263 2.191046 -0.735960
-0.787969 2.173928 -0.752146
-0.760900 2.200169 -0.735709
-0.791076 2.183269 -0.751353
-0.764464 2.207407 -0.734358
-0.794264 2.190663 -0.749591
-0.767707 2.212440 -0.731988
-0.797302 2.195751 -0.746993
-0.770478 2.215041 -0.728766
-0.800026 2.198237 -0.743921
-0.772655 2.215043 -0.724981
-0.802297 2.197923 -0.740847
-0.774163 2.212393 -0.720895
-0.804078 2.194714 -0.738083
-0.774985 2.207107 -0.716803
-0.805405 2.188670 -0.735803
-0.775149 2.199332 -0.712928
-0.806323 2.180048 -0.733873
-0.774787 2.189403 -0.709352
-0.806880 2.169308 -0.732033
-0.773976 2.177726 -0.706089
-0.807003 2.156936 -0.730075
-0.772732 2.164871 -0.703057
-0.806586 2.143475 -0.727924
-0.770951 2.151467 -0.700159
-0.805492 2.129529 -0.725540
-0.768549 2.138108 -0.697330
-0.803613 2.115702 -0.722802
-0.765514 2.125320 -0.694557
-0.800947 2.102524 -0.719739
-0.761922 2.113595 -0.691924
-0.797562 2.090510 -0.716495
-0.757941 2.103330 -0.689655
-0.793649 2.080106 -0.713335
-0.753814 2.094872 -0.688051
-0.789497 2.071667 -0.710645
-0.749816 2.088496 -0.687427
-0.785402 2.065440 -0.708871
-0.746207 2.084397 -0.688016
-0.781642 2.061580 -0.708449
-0.743203 2.082715 -0.689887
-0.778463 2.060192 -0.709603
-0.740958 2.083493 -0.692954
-0.776048 2.061296 -0.712312
-0.739560 2.086682 -0.697001
-0.774492 2.064840 -0.716323
-0.739037 2.092147 -0.701746
-0.773792 2.070684 -0.721224
-0.739176 2.099623 -0.706885
-0.773851 2.078617 -0.726577
-0.811673 2.056412 -0.747516
-0.774349 2.088354 -0.731875
-0.811988 2.066848 -0.752858
-0.850202 2.046127 -0.772217
-0.812792 2.078812 -0.757871
-0.851035 2.059105 -0.777040
-0.813832 2.091868 -0.762175
-0.852024 2.073091 -0.781044
-0.815140 2.105524 -0.765653
-0.853395 2.087375 -0.784192
-0.816758 2.119322 -0.768195
-0.855456 2.101535 -0.786370
-0.818716 2.132812 -0.769661
-0.858235 2.115376 -0.787335
-0.821078 2.145518 -0.770054
-0.861342 2.128664 -0.786983
-0.823774 2.156971 -0.769395
-0.864314 2.140796 -0.785472
-0.826696 2.166710 -0.767792
-0.867153 2.151075 -0.783024
-0.829732 2.174381 -0.765331
-0.870019 2.159112 -0.779777
-0.832758 2.179582 -0.762346
-0.872959 2.164510 -0.776252
-0.835661 2.181952 -0.759426
-0.875835 2.166847 -0.773144
-0.838304 2.181264 -0.757011
-0.878557 2.165840 -0.771115
-0.840629 2.177406 -0.755447
-0.881196 2.161385 -0.770507
-0.842609 2.170501 -0.754772
-0.883724 2.153771 -0.771170
-0.844193 2.160975 -0.754687
-0.885891 2.143710 -0.772610
-0.845253 2.149359 -0.754670
-0.887066 2.131772 -0.773505
-0.845641 2.136167 -0.754197
-0.886543 2.118062 -0.773262
-0.845145 2.121987 -0.753025
-0.884231 2.103150 -0.772135
-0.843812 2.107426 -0.751057
-0.881602 2.087615 -0.770117
-0.841862 2.092888 -0.748339
-0.879209 2.071642 -0.767538
-0.839222 2.078975 -0.745080
-0.876422 2.056338 -0.764607
-0.835836 2.066330 -0.741487
-0.873095 2.042709 -0.761224
-0.831936 2.055504 -0.737766
-0.869480 2.031200 -0.757321
-0.827881 2.046905 -0.734258
-0.865777 2.022155 -0.753202
-0.823938 2.040751 -0.731509
-0.862191 2.015778 -0.749535
-0.820286 2.037115 -0.730200
-0.858809 2.012089 -0.747496
-0.817103 2.036034 -0.730757
-0.855713 2.011114 -0.748014
-0.814565 2.037511 -0.733196
-0.853086 2.012906 -0.751027
-0.812819 2.041511 -0.737206
-0.851157 2.017419 -0.755777
-0.811863 2.047867 -0.742145
-0.850036 2.024758 -0.761343
-0.886446 2.006337 -0.777260
-0.849856 2.034398 -0.766967
-0.886304 2.017306 -0.782375
-0.886317 2.030524 -0.786872
-0.886412 2.044462 -0.790967
-0.887349 2.058719 -0.794319
-0.888894 2.073009 -0.796962
-0.891315 2.086666 -0.798860
-0.895099 2.099988 -0.799759
-0.900050 2.113306 -0.799656
-0.904988 2.126010 -0.798658
-0.908617 2.136942 -0.796430
-0.911648 2.145630 -0.792818
-0.914570 2.151522 -0.788135
-0.917354 2.154330 -0.783149
-0.920052 2.153830 -0.779407
-0.922936 2.149486 -0.778745
-0.925513 2.141914 -0.780603
-0.926671 2.132035 -0.782632
-0.925630 2.119923 -0.784012
-0.922972 2.104575 -0.783506
-0.919259 2.087771 -0.781377
-0.915500 2.071457 -0.779072
-0.913046 2.054281 -0.777287
-0.911125 2.037772 -0.774960
-0.908585 2.023540 -0.771463
-0.905029 2.011925 -0.767421
-0.901392 2.002568 -0.763598
-0.897237 1.995674 -0.760074
-0.893206 1.991393 -0.758238
-0.889944 1.990082 -0.760335
-0.887849 1.992342 -0.765699
-0.886839 1.997635 -0.771759
-0.335857 2.672284 -0.244038
-0.332098 2.668625 -0.243929
-0.329268 2.665211 -0.241681
-0.326457 2.662354 -0.241296
-0.321856 2.656972 -0.238394
-0.320151 2.655064 -0.237677
-0.316162 2.650255 -0.234966
-0.314977 2.648981 -0.234733
-0.311328 2.644293 -0.231607
-0.310719 2.643643 -0.231552
-0.309913 2.642772 -0.231452
-0.308995 2.641735 -0.231210
-0.313625 2.647364 -0.233947
-0.311900 2.645353 -0.233162
-0.317762 2.652448 -0.236923
-0.314704 2.649179 -0.236344
-0.322692 2.658500 -0.240779
-0.318796 2.654057 -0.238867
-0.327160 2.663723 -0.243601
-0.321296 2.657765 -0.243013
-0.315878 2.651438 -0.239982
-0.310232 2.644588 -0.236421
-0.313941 2.648769 -0.237606
-0.309297 2.643233 -0.235140
-0.311893 2.645710 -0.234388
-0.308237 2.641650 -0.233569
-0.309787 2.642982 -0.232587
-0.307775 2.640515 -0.231434
-0.308163 2.640642 -0.230505
-0.307237 2.639442 -0.229795
-0.306241 2.638175 -0.229132
-0.305209 2.636888 -0.228552
-0.305844 2.638003 -0.229943
-0.303695 2.635374 -0.228935
-0.305406 2.637810 -0.230838
-0.301859 2.633604 -0.229665
-0.304890 2.637581 -0.231896
-0.300144 2.631678 -0.229538
-0.304460 2.637389 -0.232778
-0.298721 2.630048 -0.229373
-0.293345 2.622885 -0.226091
-0.288677 2.616250 -0.222700
-0.296008 2.626090 -0.226581
-0.292800 2.621108 -0.222773
-0.299385 2.629926 -0.226712
-0.296563 2.626250 -0.225179
-0.301787 2.632894 -0.227683
-0.300288 2.630707 -0.226032
-0.304186 2.635631 -0.228067
-0.303222 2.634460 -0.227671
-0.302566 2.633512 -0.226944
-0.302079 2.632755 -0.226248
-0.298851 2.628720 -0.224861
-0.297614 2.627053 -0.224039
-0.294693 2.623254 -0.222662
-0.293050 2.620719 -0.220859
-0.289679 2.616516 -0.220180
-0.287712 2.612942 -0.216923
-0.285764 2.610813 -0.217489
-0.283576 2.606318 -0.212924
-0.282098 2.602960 -0.209306
-0.281540 2.600998 -0.206412
-0.286296 2.610261 -0.214455
-0.285754 2.608727 -0.212296
-0.291771 2.618791 -0.219663
-0.291390 2.617769 -0.218110
-0.296875 2.625887 -0.223067
-0.296570 2.625230 -0.222167
-0.301729 2.632195 -0.225711
-0.301540 2.631861 -0.225326
-0.301529 2.631771 -0.225088
-0.302122 2.632111 -0.224136
-0.296577 2.625055 -0.221640
-0.297745 2.625731 -0.219772
-0.291431 2.617494 -0.217246
-0.293240 2.618536 -0.214376
-0.285768 2.608283 -0.211181
-0.288450 2.609779 -0.206972
-0.282061 2.600593 -0.204070
-0.284994 2.602255 -0.199753
-0.288873 2.605399 -0.196233
-0.293389 2.609839 -0.193928
-0.291592 2.612303 -0.204001
-0.295405 2.615880 -0.201735
-0.295402 2.620283 -0.212339
-0.298331 2.622859 -0.210231
-0.299180 2.626863 -0.218371
-0.300962 2.628462 -0.217227
-0.302871 2.632684 -0.223378
-0.303739 2.633463 -0.222863
-0.304678 2.634414 -0.222638
-0.305707 2.635519 -0.222610
-0.303117 2.630497 -0.216202
-0.305307 2.632786 -0.215863
-0.301416 2.625960 -0.209145
-0.304460 2.629434 -0.209296
-0.299439 2.620259 -0.200855
-0.304263 2.625472 -0.200084
-0.298193 2.615322 -0.193289
-0.303198 2.621630 -0.194224
-0.309450 2.628820 -0.194542
-0.315798 2.636305 -0.196062
-0.308704 2.630970 -0.201406
-0.313609 2.636845 -0.202915
-0.308165 2.633430 -0.209114
-0.311164 2.637348 -0.211013
-0.307363 2.635206 -0.216398
-0.309616 2.637818 -0.216978
-0.306947 2.636802 -0.222450
-0.308142 2.638127 -0.222596
-0.309232 2.639436 -0.223066
-0.310171 2.640678 -0.223851
-0.311884 2.640482 -0.217783
-0.313699 2.642951 -0.219528
-0.314905 2.641585 -0.211914
-0.317543 2.645380 -0.215051
-0.318625 2.642806 -0.204914
-0.322759 2.648380 -0.208799
-0.321856 2.643745 -0.199049
-0.327280 2.650833 -0.203563
-0.331933 2.657345 -0.209214
-0.335751 2.663102 -0.215463
-0.326628 2.653612 -0.212931
-0.330232 2.658379 -0.216806
-0.320670 2.649190 -0.217040
-0.322602 2.652326 -0.220767
-0.315370 2.645278 -0.221395
-0.316927 2.647412 -0.223113
-0.310927 2.641809 -0.224910
-0.311484 2.642788 -0.226176
-0.312030 2.643667 -0.227174
-0.312382 2.644346 -0.228192
-0.317901 2.649119 -0.225413
-0.318338 2.650367 -0.228030
-0.324485 2.655114 -0.223723
-0.325435 2.657165 -0.227323
-0.332418 2.662194 -0.222079
-0.334095 2.665253 -0.226662
-0.339478 2.668206 -0.220341
-0.341787 2.672130 -0.225734
-0.342532 2.674707 -0.231527
-0.334535 2.667217 -0.231607
-0.325497 2.658429 -0.231260
-0.318477 2.651214 -0.230350
-0.312474 2.644778 -0.229293
-0.911653 2.015756 -0.790737
-0.912738 2.025949 -0.794649
-0.913833 2.037536 -0.797775
-0.915276 2.050366 -0.800439
-0.917261 2.063667 -0.802569
-0.920591 2.075852 -0.804179
-0.923551 2.087151 -0.805001
-0.926243 2.097794 -0.804836
-0.928619 2.107383 -0.803777
-0.930918 2.115232 -0.801838
-0.933504 2.120968 -0.799149
-0.935826 2.124520 -0.795891
-0.937750 2.125833 -0.792258
-0.939167 2.124939 -0.788536
-0.939886 2.121681 -0.785296
-0.939857 2.116337 -0.782896
-0.939049 2.109184 -0.781484
-0.937530 2.100423 -0.781089
-0.935407 2.089815 -0.780878
-0.932546 2.077913 -0.779820
-0.930187 2.064885 -0.778196
-0.928633 2.051170 -0.776897
-0.927663 2.037866 -0.775316
-0.926631 2.025992 -0.773230
-0.924825 2.016348 -0.771210
-0.922587 2.008965 -0.769944
-0.920192 2.003575 -0.769783
-0.917736 2.000031 -0.771150
-0.915444 1.998481 -0.774120
-0.913542 1.999156 -0.778145
-0.911927 2.002147 -0.782360
-0.911412 2.007750 -0.786698
3 0 1 4
3 0 4 3
3 919 1 0
3 0 2 1055
3 1055 1042 1041
3 1040 1039 1022
3 1055 1041 1040
3 919 0 1055
3 921 920 919
3 939 922 921
3 940 939 921
3 921 919 1055
3 1055 1040 1022
3 1022 1021 1020
3 1020 1019 1002
3 1002 1001 1000
3 1000 999 982
3 982 981 980
3 980 979 962
3 962 961 960
3 962 960 959
3 982 980 962
3 1002 1000 982
3 1022 1020 1002
3 921 1055 1022
3 941 940 921
3 962 959 942
3 941 921 1022
3 962 942 941
3 1002 982 962
3 941 1022 1002
3 1002 962 941
3 2 0 3
3 2 3 5
3 3 4 7
3 3 7 6
3 5 3 6
3 5 6 8
3 6 7 10
3 6 10 9
3 8 6 9
3 8 9 11
3 9 10 13
3 9 13 12
3 11 9 12
3 11 12 14
3 12 13 16
3 12 16 15
3 14 12 15
3 14 15 18
3 17 15 16
3 17 16 108
3 20 18 15
3 20 15 17
3 1051 14 18
3 1051 18 19
3 22 19 18
3 22 18 20
3 23 22 20
3 23 20 21
3 21 20 17
3 21 17 111
3 24 25 19
3 24 19 22
3 26 24 22
3 26 22 23
3 27 28 25
3 27 25 24
3 29 27 24
3 29 24 26
3 30 31 28
3 30 28 27
3 32 30 27
3 32 27 29
3 33 34 31
3 33 31 30
3 35 33 30
3 35 30 32
3 36 37 34
3 36 34 33
3 38 36 33
3 38 33 35
3 39 40 37
3 39 37 36
3 41 39 36
3 41 36 38
3 42 43 40
3 42 40 39
3 44 42 39
3 44 39 41
3 45 46 43
3 45 43 42
3 47 45 42
3 47 42 44
3 48 49 46
3 48 46 45
3 50 48 45
3 50 45 47
3 51 52 49
3 51 49 48
3 53 51 48
3 53 48 50
3 54 55 52
3 54 52 51
3 56 54 51
3 56 51 53
3 57 58 55
3 57 55 54
3 59 57 54
3 59 54 56
3 60 61 58
3 60 58 57
3 62 60 57
3 62 57 59
3 63 64 61
3 63 61 60
3 65 63 60
3 65 60 62
3 66 67 64
3 66 64 63
3 68 66 63
3 68 63 65
3 69 70 67
3 69 67 66
3 71 69 66
3 71 66 68
3 72 73 70
3 72 70 69
3 74 72 69
3 74 69 71
3 75 76 73
3 75 73 72
3 77 75 72
3 77 72 74
3 78 79 76
3 78 76 75
3 80 78 75
3 80 75 77
3 81 82 79
3 81 79 78
3 83 81 78
3 83 78 80
3 84 85 82
3 84 82 81
3 86 84 81
3 86 81 83
3 87 88 85
3 87 85 84
3 89 87 84
3 89 84 86
3 90 91 88
3 90 88 87
3 92 90 87
3 92 87 89
3 93 94 91
3 93 91 90
3 95 93 90
3 95 90 92
3 96 97 94
3 96 94 93
3 98 96 93
3 98 93 95
3 99 100 97
3 99 97 96
3 101 99 96
3 101 96 98
3 102 103 100
3 102 100 99
3 104 102 99
3 104 99 101
3 105 106 103
3 105 103 102
3 107 105 102
3 107 102 104
3 108 16 106
3 108 106 105
3 109 108 105
3 109 105 107
3 111 17 108
3 111 108 109
3 112 111 109
3 112 109 110
3 110 109 107
3 110 107 172
3 114 21 111
3 114 111 112
3 113 112 110
3 113 110 175
3 115 114 112
3 115 112 113
3 116 23 21
3 116 21 114
3 117 116 114
3 117 114 115
3 118 26 23
3 118 23 116
3 119 118 116
3 119 116 117
3 120 29 26
3 120 26 118
3 121 120 118
3 121 118 119
3 122 32 29
3 122 29 120
3 123 122 120
3 123 120 121
3 124 35 32
3 124 32 122
3 125 124 122
3 125 122 123
3 126 38 35
3 126 35 124
3 127 126 124
3 127 124 125
3 128 41 38
3 128 38 126
3 129 128 126
3 129 126 127
3 130 44 41
3 130 41 128
3 131 130 128
3 131 128 129
3 132 47 44
3 132 44 130
3 133 132 130
3 133 130 131
3 134 50 47
3 134 47 132
3 135 134 132
3 135 132 133
3 136 53 50
3 136 50 134
3 137 136 134
3 137 134 135
3 138 56 53
3 138 53 136
3 139 138 136
3 139 136 137
3 140 59 56
3 140 56 138
3 141 140 138
3 141 138 139
3 142 62 59
3 142 59 140
3 143 142 140
3 143 140 141
3 144 65 62
3 144 62 142
3 145 144 142
3 145 142 143
3 146 68 65
3 146 65 144
3 147 146 144
3 147 144 145
3 148 71 68
3 148 68 146
3 149 148 146
3 149 146 147
3 150 74 71
3 150 71 148
3 151 150 148
3 151 148 149
3 152 77 74
3 152 74 150
3 153 152 150
3 153 150 151
3 154 80 77
3 154 77 152
3 155 154 152
3 155 152 153
3 156 83 80
3 156 80 154
3 157 156 154
3 157 154 155
3 158 86 83
3 158 83 156
3 159 158 156
3 159 156 157
3 160 89 86
3 160 86 158
3 161 160 158
3 161 158 159
3 162 92 89
3 162 89 160
3 163 162 160
3 163 160 161
3 164 95 92
3 164 92 162
3 165 164 162
3 165 162 163
3 166 98 95
3 166 95 164
3 167 166 164
3 167 164 165
3 168 101 98
3 168 98 166
3 169 168 166
3 169 166 167
3 170 104 101
3 170 101 168
3 171 170 168
3 171 168 169
3 172 107 104
3 172 104 170
3 173 172 170
3 173 170 171
3 175 110 172
3 175 172 173
3 176 175 173
3 176 173 174
3 174 173 171
3 174 171 236
3 178 113 175
3 178 175 176
3 179 178 176
3 179 176 177
3 177 176 174
3 177 174 239
3 181 180 178
3 181 178 179
3 180 115 113
3 180 113 178
3 182 117 115
3 182 115 180
3 183 182 180
3 183 180 181
3 184 119 117
3 184 117 182
3 185 184 182
3 185 182 183
3 186 121 119
3 186 119 184
3 187 186 184
3 187 184 185
3 188 123 121
3 188 121 186
3 189 188 186
3 189 186 187
3 190 125 123
3 190 123 188
3 191 190 188
3 191 188 189
3 192 127 125
3 192 125 190
3 193 192 190
3 193 190 191
3 194 129 127
3 194 127 192
3 195 194 192
3 195 192 193
3 196 131 129
3 196 129 194
3 197 196 194
3 197 194 195
3 198 133 131
3 198 131 196
3 199 198 196
3 199 196 197
3 200 135 133
3 200 133 198
3 201 200 198
3 201 198 199
3 202 137 135
3 202 135 200
3 203 202 200
3 203 200 201
3 204 139 137
3 204 137 202
3 205 204 202
3 205 202 203
3 206 141 139
3 206 139 204
3 207 206 204
3 207 204 205
3 208 143 141
3 208 141 206
3 209 208 206
3 209 206 207
3 210 145 143
3 210 143 208
3 211 210 208
3 211 208 209
3 212 147 145
3 212 145 210
3 213 212 210
3 213 210 211
3 214 149 147
3 214 147 212
3 215 214 212
3 215 212 213
3 216 151 149
3 216 149 214
3 217 216 214
3 217 214 215
3 218 153 151
3 218 151 216
3 219 218 216
3 219 216 217
3 220 155 153
3 220 153 218
3 221 220 218
3 221 218 219
3 222 157 155
3 222 155 220
3 223 222 220
3 223 220 221
3 224 159 157
3 224 157 222
3 225 224 222
3 225 222 223
3 226 161 159
3 226 159 224
3 227 226 224
3 227 224 225
3 228 163 161
3 228 161 226
3 229 228 226
3 229 226 227
3 230 165 163
3 230 163 228
3 231 230 228
3 231 228 229
3 232 167 165
3 232 165 230
3 233 232 230
3 233 230 231
3 234 169 167
3 234 167 232
3 235 234 232
3 235 232 233
3 236 171 169
3 236 169 234
3 237 236 234
3 237 234 235
3 239 174 236
3 239 236 237
3 240 239 237
3 240 237 238
3 238 237 235
3 238 235 300
3 242 177 239
3 242 239 240
3 243 242 240
3 243 240 241
3 241 240 238
3 241 238 303
3 244 179 177
3 244 177 242
3 245 244 242
3 245 242 243
3 247 246 244
3 247 244 245
3 246 181 179
3 246 179 244
3 248 183 181
3 248 181 246
3 249 248 246
3 249 246 247
3 250 185 183
3 250 183 248
3 251 250 248
3 251 248 249
3 252 187 185
3 252 185 250
3 253 252 250
3 253 250 251
3 254 189 187
3 254 187 252
3 255 254 252
3 255 252 253
3 256 191 189
3 256 189 254
3 257 256 254
3 257 254 255
3 258 193 191
3 258 191 256
3 259 258 256
3 259 256 257
3 260 195 193
3 260 193 258
3 261 260 258
3 261 258 259
3 262 197 195
3 262 195 260
3 263 262 260
3 263 260 261
3 264 199 197
3 264 197 262
3 265 264 262
3 265 262 263
3 266 201 199
3 266 199 264
3 267 266 264
3 267 264 265
3 268 203 201
3 268 201 266
3 269 268 266
3 269 266 267
3 270 205 203
3 270 203 268
3 271 270 268
3 271 268 269
3 272 207 205
3 272 205 270
3 273 272 270
3 273 270 271
3 274 209 207
3 274 207 272
3 275 274 272
3 275 272 273
3 276 211 209
3 276 209 274
3 277 276 274
3 277 274 275
3 278 213 211
3 278 211 276
3 279 278 276
3 279 276 277
3 280 215 213
3 280 213 278
3 281 280 278
3 281 278 279
3 282 217 215
3 282 215 280
3 283 282 280
3 283 280 281
3 284 219 217
3 284 217 282
3 285 284 282
3 285 282 283
3 286 221 219
3 286 219 284
3 287 286 284
3 287 284 285
3 288 223 221
3 288 221 286
3 289 288 286
3 289 286 287
3 290 225 223
3 290 223 288
3 291 290 288
3 291 288 289
3 292 227 225
3 292 225 290
3 293 292 290
3 293 290 291
3 294 229 227
3 294 227 292
3 295 294 292
3 295 292 293
3 296 231 229
3 296 229 294
3 297 296 294
3 297 294 295
3 298 233 231
3 298 231 296
3 299 298 296
3 299 296 297
3 300 235 233
3 300 233 298
3 301 300 298
3 301 298 299
3 303 238 300
3 303 300 301
3 304 303 301
3 304 301 302
3 302 301 299
3 302 299 364
3 306 241 303
3 306 303 304
3 307 306 304
3 307 304 305
3 305 304 302
3 305 302 367
3 308 243 241
3 308 241 306
3 309 308 306
3 309 306 307
3 310 245 243
3 310 243 308
3 311 310 308
3 311 308 309
3 313 312 310
3 313 310 311
3 312 247 245
3 312 245 310
3 314 249 247
3 314 247 312
3 315 314 312
3 315 312 313
3 316 251 249
3 316 249 314
3 317 316 314
3 317 314 315
3 318 253 251
3 318 251 316
3 319 318 316
3 319 316 317
3 320 255 253
3 320 253 318
3 321 320 318
3 321 318 319
3 322 257 255
3 322 255 320
3 323 322 320
3 323 320 321
3 324 259 257
3 324 257 322
3 325 324 322
3 325 322 323
3 326 261 259
3 326 259 324
3 327 326 324
3 327 324 325
3 328 263 261
3 328 261 326
3 329 328 326
3 329 326 327
3 330 265 263
3 330 263 328
3 331 330 328
3 331 328 329
3 332 267 265
3 332 265 330
3 333 332 330
3 333 330 331
3 334 269 267
3 334 267 332
3 335 334 332
3 335 332 333
3 336 271 269
3 336 269 334
3 337 336 334
3 337 334 335
3 338 273 271
3 338 271 336
3 339 338 336
3 339 336 337
3 340 275 273
3 340 273 338
3 341 340 338
3 341 338 339
3 342 277 275
3 342 275 340
3 343 342 340
3 343 340 341
3 344 279 277
3 344 277 342
3 345 344 342
3 345 342 343
3 346 281 279
3 346 279 344
3 347 346 344
3 347 344 345
3 348 283 281
3 348 281 346
3 349 348 346
3 349 346 347
3 350 285 283
3 350 283 348
3 351 350 348
3 351 348 349
3 352 287 285
3 352 285 350
3 353 352 350
3 353 350 351
3 354 289 287
3 354 287 352
3 355 354 352
3 355 352 353
3 356 291 289
3 356 289 354
3 357 356 354
3 357 354 355
3 358 293 291
3 358 291 356
3 359 358 356
3 359 356 357
3 360 295 293
3 360 293 358
3 361 360 358
3 361 358 359
3 362 297 295
3 362 295 360
3 363 362 360
3 363 360 361
3 364 299 297
3 364 297 362
3 365 364 362
3 365 362 363
3 367 302 364
3 367 364 365
3 368 367 365
3 368 365 366
3 366 365 363
3 366 363 428
3 370 305 367
3 370 367 368
3 371 370 368
3 371 368 369
3 369 368 366
3 369 366 431
3 372 307 305
3 372 305 370
3 373 372 370
3 373 370 371
3 374 309 307
3 374 307 372
3 375 374 372
3 375 372 373
3 376 311 309
3 376 309 374
3 377 376 374
3 377 374 375
3 379 378 376
3 379 376 377
3 378 313 311
3 378 311 376
3 380 315 313
3 380 313 378
3 381 380 378
3 381 378 379
3 382 317 315
3 382 315 380
3 383 382 380
3 383 380 381
3 384 319 317
3 384 317 382
3 385 384 382
3 385 382 383
3 386 321 319
3 386 319 384
3 387 386 384
3 387 384 385
3 388 323 321
3 388 321 386
3 389 388 386
3 389 386 387
3 390 325 323
3 390 323 388
3 391 390 388
3 391 388 389
3 392 327 325
3 392 325 390
3 393 392 390
3 393 390 391
3 394 329 327
3 394 327 392
3 395 394 392
3 395 392 393
3 396 331 329
3 396 329 394
3 397 396 394
3 397 394 395
3 398 333 331
3 398 331 396
3 399 398 396
3 399 396 397
3 400 335 333
3 400 333 398
3 401 400 398
3 401 398 399
3 402 337 335
3 402 335 400
3 403 402 400
3 403 400 401
3 404 339 337
3 404 337 402
3 405 404 402
3 405 402 403
3 406 341 339
3 406 339 404
3 407 406 404
3 407 404 405
3 408 343 341
3 408 341 406
3 409 408 406
3 409 406 407
3 410 345 343
3 410 343 408
3 411 410 408
3 411 408 409
3 412 347 345
3 412 345 410
3 413 412 410
3 413 410 411
3 414 349 347
3 414 347 412
3 415 414 412
3 415 412 413
3 416 351 349
3 416 349 414
3 417 416 414
3 417 414 415
3 418 353 351
3 418 351 416
3 419 418 416
3 419 416 417
3 420 355 353
3 420 353 418
3 421 420 418
3 421 418 419
3 422 357 355
3 422 355 420
3 423 422 420
3 423 420 421
3 424 359 357
3 424 357 422
3 425 424 422
3 425 422 423
3 426 361 359
3 426 359 424
3 427 426 424
3 427 424 425
3 428 363 361
3 428 361 426
3 429 428 426
3 429 426 427
3 431 366 428
3 431 428 429
3 432 431 429
3 432 429 430
3 430 429 427
3 430 427 492
3 434 369 431
3 434 431 432
3 435 434 432
3 435 432 433
3 433 432 430
3 433 430 495
3 436 371 369
3 436 369 434
3 437 436 434
3 437 434 435
3 438 373 371
3 438 371 436
3 439 438 436
3 439 436 437
3 440 375 373
3 440 373 438
3 441 440 438
3 441 438 439
3 442 377 375
3 442 375 440
3 443 442 440
3 443 440 441
3 445 444 442
3 445 442 443
3 444 379 377
3 444 377 442
3 446 381 379
3 446 379 444
3 447 446 444
3 447 444 445
3 448 383 381
3 448 381 446
3 449 448 446
3 449 446 447
3 450 385 383
3 450 383 448
3 451 450 448
3 451 448 449
3 452 387 385
3 452 385 450
3 453 452 450
3 453 450 451
3 454 389 387
3 454 387 452
3 455 454 452
3 455 452 453
3 456 391 389
3 456 389 454
3 457 456 454
3 457 454 455
3 458 393 391
3 458 391 456
3 459 458 456
3 459 456 457
3 460 395 393
3 460 393 458
3 461 460 458
3 461 458 459
3 462 397 395
3 462 395 460
3 463 462 460
3 463 460 461
3 464 399 397
3 464 397 462
3 465 464 462
3 465 462 463
3 466 401 399
3 466 399 464
3 467 466 464
3 467 464 465
3 468 403 401
3 468 401 466
3 469 468 466
3 469 466 467
3 470 405 403
3 470 403 468
3 471 470 468
3 471 468 469
3 472 407 405
3 472 405 470
3 473 472 470
3 473 470 471
3 474 409 407
3 474 407 472
3 475 474 472
3 475 472 473
3 476 411 409
3 476 409 474
3 477 476 474
3 477 474 475
3 478 413 411
3 478 411 476
3 479 478 476
3 479 476 477
3 480 415 413
3 480 413 478
3 481 480 478
3 481 478 479
3 482 417 415
3 482 415 480
3 483 482 480
3 483 480 481
3 484 419 417
3 484 417 482
3 485 484 482
3 485 482 483
3 486 421 419
3 486 419 484
3 487 486 484
3 487 484 485
3 488 423 421
3 488 421 486
3 489 488 486
3 489 486 487
3 490 425 423
3 490 423 488
3 491 490 488
3 491 488 489
3 492 427 425
3 492 425 490
3 493 492 490
3 493 490 491
3 495 430 492
3 495 492 493
3 496 495 493
3 496 493 494
3 494 493 491
3 494 491 556
3 498 433 495
3 498 495 496
3 499 498 496
3 499 496 497
3 497 496 494
3 497 494 559
3 500 435 433
3 500 433 498
3 501 500 498
3 501 498 499
3 502 437 435
3 502 435 500
3 503 502 500
3 503 500 501
3 504 439 437
3 504 437 502
3 505 504 502
3 505 502 503
3 506 441 439
3 506 439 504
3 507 506 504
3 507 504 505
3 508 443 441
3 508 441 506
3 509 508 506
3 509 506 507
3 511 510 508
3 511 508 509
3 510 445 443
3 510 443 508
3 512 447 445
3 512 445 510
3 513 512 510
3 513 510 511
3 514 449 447
3 514 447 512
3 515 514 512
3 515 512 513
3 516 451 449
3 516 449 514
3 517 516 514
3 517 514 515
3 518 453 451
3 518 451 516
3 519 518 516
3 519 516 517
3 520 455 453
3 520 453 518
3 521 520 518
3 521 518 519
3 522 457 455
3 522 455 520
3 523 522 520
3 523 520 521
3 524 459 457
3 524 457 522
3 525 524 522
3 525 522 523
3 526 461 459
3 526 459 524
3 527 526 524
3 527 524 525
3 528 463 461
3 528 461 526
3 529 528 526
3 529 526 527
3 530 465 463
3 530 463 528
3 531 530 528
3 531 528 529
3 532 467 465
3 532 465 530
3 533 532 530
3 533 530 531
3 534 469 467
3 534 467 532
3 535 534 532
3 535 532 533
3 536 471 469
3 536 469 534
3 537 536 534
3 537 534 535
3 538 473 471
3 538 471 536
3 539 538 536
3 539 536 537
3 540 475 473
3 540 473 538
3 541 540 538
3 541 538 539
3 542 477 475
3 542 475 540
3 543 542 540
3 543 540 541
3 544 479 477
3 544 477 542
3 545 544 542
3 545 542 543
3 546 481 479
3 546 479 544
3 547 546 544
3 547 544 545
3 548 483 481
3 548 481 546
3 549 548 546
3 549 546 547
3 550 485 483
3 550 483 548
3 551 550 548
3 551 548 549
3 552 487 485
3 552 485 550
3 553 552 550
3 553 550 551
3 554 489 487
3 554 487 552
3 555 554 552
3 555 552 553
3 556 491 489
3 556 489 554
3 557 556 554
3 557 554 555
3 559 494 556
3 559 556 557
3 560 559 557
3 560 557 558
3 558 557 555
3 558 555 620
3 562 497 559
3 562 559 560
3 563 562 560
3 563 560 561
3 561 560 558
3 561 558 623
3 564 499 497
3 564 497 562
3 565 564 562
3 565 562 563
3 566 501 499
3 566 499 564
3 567 566 564
3 567 564 565
3 568 503 501
3 568 501 566
3 569 568 566
3 569 566 567
3 570 505 503
3 570 503 568
3 571 570 568
3 571 568 569
3 572 507 505
3 572 505 570
3 573 572 570
3 573 570 571
3 574 509 507
3 574 507 572
3 575 574 572
3 575 572 573
3 577 576 574
3 577 574 575
3 576 511 509
3 576 509 574
3 578 513 511
3 578 511 576
3 579 578 576
3 579 576 577
3 580 515 513
3 580 513 578
3 581 580 578
3 581 578 579
3 582 517 515
3 582 515 580
3 583 582 580
3 583 580 581
3 584 519 517
3 584 517 582
3 585 584 582
3 585 582 583
3 586 521 519
3 586 519 584
3 587 586 584
3 587 584 585
3 588 523 521
3 588 521 586
3 589 588 586
3 589 586 587
3 590 525 523
3 590 523 588
3 591 590 588
3 591 588 589
3 592 527 525
3 592 525 590
3 593 592 590
3 593 590 591
3 594 529 527
3 594 527 592
3 595 594 592
3 595 592 593
3 596 531 529
3 596 529 594
3 597 596 594
3 597 594 595
3 598 533 531
3 598 531 596
3 599 598 596
3 599 596 597
3 600 535 533
3 600 533 598
3 601 600 598
3 601 598 599
3 602 537 535
3 602 535 600
3 603 602 600
3 603 600 601
3 604 539 537
3 604 537 602
3 605 604 602
3 605 602 603
3 606 541 539
3 606 539 604
3 607 606 604
3 607 604 605
3 608 543 541
3 608 541 606
3 609 608 606
3 609 606 607
3 610 545 543
3 610 543 608
3 611 610 608
3 611 608 609
3 612 547 545
3 612 545 610
3 613 612 610
3 613 610 611
3 614 549 547
3 614 547 612
3 615 614 612
3 615 612 613
3 616 551 549
3 616 549 614
3 617 616 614
3 617 614 615
3 618 553 551
3 618 551 616
3 619 618 616
3 619 616 617
3 620 555 553
3 620 553 618
3 621 620 618
3 621 618 619
3 623 558 620
3 623 620 621
3 624 623 621
3 624 621 622
3 622 621 619
3 622 619 684
3 626 561 623
3 626 623 624
3 627 626 624
3 627 624 625
3 625 624 622
3 625 622 687
3 628 563 561
3 628 561 626
3 629 628 626
3 629 626 627
3 630 565 563
3 630 563 628
3 631 630 628
3 631 628 629
3 632 567 565
3 632 565 630
3 633 632 630
3 633 630 631
3 634 569 567
3 634 567 632
3 635 634 632
3 635 632 633
3 636 571 569
3 636 569 634
3 637 636 634
3 637 634 635
3 638 573 571
3 638 571 636
3 639 638 636
3 639 636 637
3 640 575 573
3 640 573 638
3 641 640 638
3 641 638 639
3 643 642 640
3 643 640 641
3 642 577 575
3 642 575 640
3 644 579 577
3 644 577 642
3 645 644 642
3 645 642 643
3 646 581 579
3 646 579 644
3 647 646 644
3 647 644 645
3 648 583 581
3 648 581 646
3 649 648 646
3 649 646 647
3 650 585 583
3 650 583 648
3 651 650 648
3 651 648 649
3 652 587 585
3 652 585 650
3 653 652 650
3 653 650 651
3 654 589 587
3 654 587 652
3 655 654 652
3 655 652 653
3 656 591 589
3 656 589 654
3 657 656 654
3 657 654 655
3 658 593 591
3 658 591 656
3 659 658 656
3 659 656 657
3 660 595 593
3 660 593 658
3 661 660 658
3 661 658 659
3 662 597 595
3 662 595 660
3 663 662 660
3 663 660 661
3 664 599 597
3 664 597 662
3 665 664 662
3 665 662 663
3 666 601 599
3 666 599 664
3 667 666 664
3 667 664 665
3 668 603 601
3 668 601 666
3 669 668 666
3 669 666 667
3 670 605 603
3 670 603 668
3 671 670 668
3 671 668 669
3 672 607 605
3 672 605 670
3 673 672 670
3 673 670 671
3 674 609 607
3 674 607 672
3 675 674 672
3 675 672 673
3 676 611 609
3 676 609 674
3 677 676 674
3 677 674 675
3 678 613 611
3 678 611 676
3 679 678 676
3 679 676 677
3 680 615 613
3 680 613 678
3 681 680 678
3 681 678 679
3 682 617 615
3 682 615 680
3 683 682 680
3 683 680 681
3 684 619 617
3 684 617 682
3 685 684 682
3 685 682 683
3 687 622 684
3 687 684 685
3 688 687 685
3 688 685 686
3 686 685 683
3 686 683 748
3 690 625 687
3 690 687 688
3 691 690 688
3 691 688 689
3 689 688 686
3 689 686 751
3 692 627 625
3 692 625 690
3 693 692 690
3 693 690 691
3 694 629 627
3 694 627 692
3 695 694 692
3 695 692 693
3 696 631 629
3 696 629 694
3 697 696 694
3 697 694 695
3 698 633 631
3 698 631 696
3 699 698 696
3 699 696 697
3 700 635 633
3 700 633 698
3 701 700 698
3 701 698 699
3 702 637 635
3 702 635 700
3 703 702 700
3 703 700 701
3 704 639 637
3 704 637 702
3 705 704 702
3 705 702 703
3 706 641 639
3 706 639 704
3 707 706 704
3 707 704 705
3 709 708 706
3 709 706 707
3 708 643 641
3 708 641 706
3 710 645 643
3 710 643 708
3 711 710 708
3 711 708 709
3 712 647 645
3 712 645 710
3 713 712 710
3 713 710 711
3 714 649 647
3 714 647 712
3 715 714 712
3 715 712 713
3 716 651 649
3 716 649 714
3 717 716 714
3 717 714 715
3 718 653 651
3 718 651 716
3 719 718 716
3 719 716 717
3 720 655 653
3 720 653 718
3 721 720 718
3 721 718 719
3 722 657 655
3 722 655 720
3 723 722 720
3 723 720 721
3 724 659 657
3 724 657 722
3 725 724 722
3 725 722 723
3 726 661 659
3 726 659 724
3 727 726 724
3 727 724 725
3 728 663 661
3 728 661 726
3 729 728 726
3 729 726 727
3 730 665 663
3 730 663 728
3 731 730 728
3 731 728 729
3 732 667 665
3 732 665 730
3 733 732 730
3 733 730 731
3 734 669 667
3 734 667 732
3 735 734 732
3 735 732 733
3 736 671 669
3 736 669 734
3 737 736 734
3 737 734 735
3 738 673 671
3 738 671 736
3 739 738 736
3 739 736 737
3 740 675 673
3 740 673 738
3 741 740 738
3 741 738 739
3 742 677 675
3 742 675 740
3 743 742 740
3 743 740 741
3 744 679 677
3 744 677 742
3 745 744 742
3 745 742 743
3 746 681 679
3 746 679 744
3 747 746 744
3 747 744 745
3 748 683 681
3 748 681 746
3 749 748 746
3 749 746 747
3 751 686 748
3 751 748 749
3 752 751 749
3 752 749 750
3 750 749 747
3 750 747 812
3 754 689 751
3 754 751 752
3 755 754 752
3 755 752 753
3 753 752 750
3 753 750 815
3 756 691 689
3 756 689 754
3 757 756 754
3 757 754 755
3 758 693 691
3 758 691 756
3 759 758 756
3 759 756 757
3 760 695 693
3 760 693 758
3 761 760 758
3 761 758 759
3 762 697 695
3 762 695 760
3 763 762 760
3 763 760 761
3 764 699 697
3 764 697 762
3 765 764 762
3 765 762 763
3 766 701 699
3 766 699 764
3 767 766 764
3 767 764 765
3 768 703 701
3 768 701 766
3 769 768 766
3 769 766 767
3 770 705 703
3 770 703 768
3 771 770 768
3 771 768 769
3 772 707 705
3 772 705 770
3 773 772 770
3 773 770 771
3 775 774 772
3 775 772 773
3 774 709 707
3 774 707 772
3 776 711 709
3 776 709 774
3 777 776 774
3 777 774 775
3 778 713 711
3 778 711 776
3 779 778 776
3 779 776 777
3 780 715 713
3 780 713 778
3 781 780 778
3 781 778 779
3 782 717 715
3 782 715 780
3 783 782 780
3 783 780 781
3 784 719 717
3 784 717 782
3 785 784 782
3 785 782 783
3 786 721 719
3 786 719 784
3 787 786 784
3 787 784 785
3 788 723 721
3 788 721 786
3 789 788 786
3 789 786 787
3 790 725 723
3 790 723 788
3 791 790 788
3 791 788 789
3 792 727 725
3 792 725 790
3 793 792 790
3 793 790 791
3 794 729 727
3 794 727 792
3 795 794 792
3 795 792 793
3 796 731 729
3 796 729 794
3 797 796 794
3 797 794 795
3 798 733 731
3 798 731 796
3 799 798 796
3 799 796 797
3 800 735 733
3 800 733 798
3 801 800 798
3 801 798 799
3 802 737 735
3 802 735 800
3 803 802 800
3 803 800 801
3 804 739 737
3 804 737 802
3 805 804 802
3 805 802 803
3 806 741 739
3 806 739 804
3 807 806 804
3 807 804 805
3 808 743 741
3 808 741 806
3 809 808 806
3 809 806 807
3 810 745 743
3 810 743 808
3 811 810 808
3 811 808 809
3 812 747 745
3 812 745 810
3 813 812 810
3 813 810 811
3 815 750 812
3 815 812 813
3 816 815 813
3 816 813 814
3 814 813 811
3 814 811 876
3 818 753 815
3 818 815 816
3 819 818 816
3 819 816 817
3 817 816 814
3 817 814 879
3 820 755 753
3 820 753 818
3 821 820 818
3 821 818 819
3 822 757 755
3 822 755 820
3 823 822 820
3 823 820 821
3 824 759 757
3 824 757 822
3 825 824 822
3 825 822 823
3 826 761 759
3 826 759 824
3 827 826 824
3 827 824 825
3 828 763 761
3 828 761 826
3 829 828 826
3 829 826 827
3 830 765 763
3 830 763 828
3 831 830 828
3 831 828 829
3 832 767 765
3 832 765 830
3 833 832 830
3 833 830 831
3 834 769 767
3 834 767 832
3 835 834 832
3 835 832 833
3 836 771 769
3 836 769 834
3 837 836 834
3 837 834 835
3 838 773 771
3 838 771 836
3 839 838 836
3 839 836 837
3 841 840 838
3 841 838 839
3 840 775 773
3 840 773 838
3 842 777 775
3 842 775 840
3 843 842 840
3 843 840 841
3 844 779 777
3 844 777 842
3 845 844 842
3 845 842 843
3 846 781 779
3 846 779 844
3 847 846 844
3 847 844 845
3 848 783 781
3 848 781 846
3 849 848 846
3 849 846 847
3 850 785 783
3 850 783 848
3 851 850 848
3 851 848 849
3 852 787 785
3 852 785 850
3 853 852 850
3 853 850 851
3 854 789 787
3 854 787 852
3 855 854 852
3 855 852 853
3 856 791 789
3 856 789 854
3 857 856 854
3 857 854 855
3 858 793 791
3 858 791 856
3 859 858 856
3 859 856 857
3 860 795 793
3 860 793 858
3 861 860 858
3 861 858 859
3 862 797 795
3 862 795 860
3 863 862 860
3 863 860 861
3 864 799 797
3 864 797 862
3 865 864 862
3 865 862 863
3 866 801 799
3 866 799 864
3 867 866 864
3 867 864 865
3 868 803 801
3 868 801 866
3 869 868 866
3 869 866 867
3 870 805 803
3 870 803 868
3 871 870 868
3 871 868 869
3 872 807 805
3 872 805 870
3 873 872 870
3 873 870 871
3 874 809 807
3 874 807 872
3 875 874 872
3 875 872 873
3 876 811 809
3 876 809 874
3 877 876 874
3 877 874 875
3 879 814 876
3 879 876 877
3 880 879 877
3 880 877 878
3 878 877 875
3 878 875 910
3 881 817 879
3 881 879 880
3 1057 881 880
3 1057 880 1056
3 1056 880 878
3 1056 878 1087
3 882 819 817
3 882 817 881
3 1058 882 881
3 1058 881 1057
3 883 821 819
3 883 819 882
3 1059 883 882
3 1059 882 1058
3 884 823 821
3 884 821 883
3 1060 884 883
3 1060 883 1059
3 885 825 823
3 885 823 884
3 1061 885 884
3 1061 884 1060
3 886 827 825
3 886 825 885
3 1062 886 885
3 1062 885 1061
3 887 829 827
3 887 827 886
3 1063 887 886
3 1063 886 1062
3 888 831 829
3 888 829 887
3 1064 888 887
3 1064 887 1063
3 889 833 831
3 889 831 888
3 1065 889 888
3 1065 888 1064
3 890 835 833
3 890 833 889
3 1066 890 889
3 1066 889 1065
3 891 837 835
3 891 835 890
3 1067 891 890
3 1067 890 1066
3 892 839 837
3 892 837 891
3 1068 892 891
3 1068 891 1067
3 1069 893 892
3 1069 892 1068
3 893 841 839
3 893 839 892
3 894 843 841
3 894 841 893
3 1070 894 893
3 1070 893 1069
3 895 845 843
3 895 843 894
3 1071 895 1070
3 895 894 1070
3 896 847 845
3 896 845 895
3 1072 896 895
3 1072 895 1071
3 897 849 847
3 897 847 896
3 1073 897 896
3 1073 896 1072
3 898 851 849
3 898 849 897
3 1074 898 897
3 1074 897 1073
3 899 853 851
3 899 851 898
3 1075 899 898
3 1075 898 1074
3 900 855 853
3 900 853 899
3 1076 900 899
3 1076 899 1075
3 901 857 855
3 901 855 900
3 1077 901 900
3 1077 900 1076
3 902 859 857
3 902 857 901
3 1078 902 901
3 1078 901 1077
3 903 861 859
3 903 859 902
3 1079 903 902
3 1079 902 1078
3 904 863 861
3 904 861 903
3 1080 904 903
3 1080 903 1079
3 905 865 863
3 905 863 904
3 1081 905 904
3 1081 904 1080
3 906 867 865
3 906 865 905
3 1082 906 905
3 1082 905 1081
3 907 869 867
3 907 867 906
3 1083 907 906
3 1083 906 1082
3 908 871 869
3 908 869 907
3 1084 908 907
3 1084 907 1083
3 909 873 871
3 909 871 908
3 1085 909 908
3 1085 908 1084
3 910 875 873
3 910 873 909
3 1086 910 909
3 1086 909 1085
3 1087 878 910
3 1087 910 1086
3 13 911 106
3 13 106 16
3 911 912 103
3 911 103 106
3 10 913 911
3 10 911 13
3 913 914 912
3 913 912 911
3 7 915 913
3 7 913 10
3 915 916 914
3 915 914 913
3 4 917 915
3 4 915 7
3 917 918 916
3 917 916 915
3 1 919 917
3 1 917 4
3 919 920 918
3 919 918 917
3 920 921 923
3 920 923 918
3 921 922 924
3 921 924 923
3 918 923 925
3 918 925 916
3 923 924 926
3 923 926 925
3 916 925 927
3 916 927 914
3 925 926 928
3 925 928 927
3 914 927 929
3 914 929 912
3 927 928 930
3 927 930 929
3 912 929 100
3 912 100 103
3 929 930 97
3 929 97 100
3 928 933 931
3 928 931 930
3 930 931 94
3 930 94 97
3 933 934 932
3 933 932 931
3 931 932 94
3 932 91 94
3 926 935 933
3 926 933 928
3 935 936 934
3 935 934 933
3 924 937 935
3 924 935 926
3 937 938 936
3 937 936 935
3 922 939 937
3 922 937 924
3 939 940 938
3 939 938 937
3 940 941 943
3 940 943 938
3 941 942 944
3 941 944 943
3 938 943 945
3 938 945 936
3 943 944 946
3 943 946 945
3 936 945 947
3 936 947 934
3 945 946 948
3 945 948 947
3 934 947 949
3 934 949 932
3 947 948 950
3 947 950 949
3 932 949 88
3 932 88 91
3 949 950 85
3 949 85 88
3 948 953 951
3 948 951 950
3 950 951 85
3 951 82 85
3 953 954 952
3 953 952 951
3 951 952 82
3 952 79 82
3 946 955 953
3 946 953 948
3 955 956 953
3 956 954 953
3 944 957 955
3 944 955 946
3 957 958 956
3 957 956 955
3 942 959 957
3 942 957 944
3 959 960 957
3 960 958 957
3 960 961 963
3 960 963 958
3 961 962 964
3 961 964 963
3 958 963 965
3 958 965 956
3 963 964 965
3 964 966 965
3 956 965 967
3 956 967 954
3 965 966 968
3 965 968 967
3 954 967 969
3 954 969 952
3 967 968 970
3 967 970 969
3 952 969 79
3 969 76 79
3 969 970 73
3 969 73 76
3 968 973 971
3 968 971 970
3 970 971 70
3 970 70 73
3 973 974 972
3 973 972 971
3 971 972 67
3 971 67 70
3 966 975 968
3 975 973 968
3 975 976 974
3 975 974 973
3 964 977 975
3 964 975 966
3 977 978 976
3 977 976 975
3 962 979 977
3 962 977 964
3 979 980 978
3 979 978 977
3 980 981 983
3 980 983 978
3 981 982 984
3 981 984 983
3 978 983 985
3 978 985 976
3 983 984 986
3 983 986 985
3 976 985 987
3 976 987 974
3 985 986 988
3 985 988 987
3 974 987 989
3 974 989 972
3 987 988 990
3 987 990 989
3 972 989 64
3 972 64 67
3 989 990 61
3 989 61 64
3 988 993 991
3 988 991 990
3 990 991 58
3 990 58 61
3 993 994 992
3 993 992 991
3 991 992 55
3 991 55 58
3 986 995 993
3 986 993 988
3 995 996 994
3 995 994 993
3 984 997 995
3 984 995 986
3 997 998 996
3 997 996 995
3 982 999 997
3 982 997 984
3 999 1000 998
3 999 998 997
3 1000 1001 1003
3 1000 1003 998
3 1001 1002 1004
3 1001 1004 1003
3 998 1003 1005
3 998 1005 996
3 1003 1004 1006
3 1003 1006 1005
3 996 1005 1007
3 996 1007 994
3 1005 1006 1008
3 1005 1008 1007
3 994 1007 1009
3 994 1009 992
3 1007 1008 1010
3 1007 1010 1009
3 992 1009 52
3 992 52 55
3 1009 1010 49
3 1009 49 52
3 1008 1013 1011
3 1008 1011 1010
3 1010 1011 46
3 1010 46 49
3 1013 1014 1012
3 1013 1012 1011
3 1011 1012 43
3 1011 43 46
3 1006 1015 1013
3 1006 1013 1008
3 1015 1016 1014
3 1015 1014 1013
3 1004 1017 1015
3 1004 1015 1006
3 1017 1018 1016
3 1017 1016 1015
3 1002 1019 1017
3 1002 1017 1004
3 1019 1020 1018
3 1019 1018 1017
3 1020 1021 1023
3 1020 1023 1018
3 1021 1022 1024
3 1021 1024 1023
3 1018 1023 1025
3 1018 1025 1016
3 1023 1024 1026
3 1023 1026 1025
3 1016 1025 1027
3 1016 1027 1014
3 1025 1026 1028
3 1025 1028 1027
3 1014 1027 1029
3 1014 1029 1012
3 1027 1028 1030
3 1027 1030 1029
3 1012 1029 40
3 1012 40 43
3 1029 1030 37
3 1029 37 40
3 1028 1033 1031
3 1028 1031 1030
3 1030 1031 34
3 1030 34 37
3 1033 1034 1032
3 1033 1032 1031
3 1031 1032 31
3 1031 31 34
3 1026 1035 1033
3 1026 1033 1028
3 1035 1036 1034
3 1035 1034 1033
3 1024 1037 1035
3 1024 1035 1026
3 1037 1038 1036
3 1037 1036 1035
3 1022 1039 1037
3 1022 1037 1024
3 1039 1040 1038
3 1039 1038 1037
3 1040 1041 1043
3 1040 1043 1038
3 1041 1042 1044
3 1041 1044 1043
3 1038 1043 1045
3 1038 1045 1036
3 1043 1044 1046
3 1043 1046 1045
3 1036 1045 1047
3 1036 1047 1034
3 1045 1046 1048
3 1045 1048 1047
3 1034 1047 1049
3 1034 1049 1032
3 1047 1048 1050
3 1047 1050 1049
3 1032 1049 28
3 1032 28 31
3 1049 1050 25
3 1049 25 28
3 1048 1052 1051
3 1048 1051 1050
3 1050 1051 19
3 1050 19 25
3 1052 11 14
3 1052 14 1051
3 1046 1053 1052
3 1046 1052 1048
3 1053 8 11
3 1053 11 1052
3 1044 1054 1053
3 1044 1053 1046
3 1054 5 8
3 1054 8 1053
3 1042 1055 1054
3 1042 1054 1044
3 1055 2 5
3 1055 5 1054
3 1056 1087 1086
3 1086 1085 1084
3 1084 1083 1082
3 1082 1081 1080
3 1080 1079 1078
3 1082 1080 1078
3 1086 1084 1082
3 1057 1056 1086
3 1059 1058 1057
3 1061 1060 1059
3 1063 1062 1061
3 1065 1064 1063
3 1067 1066 1065
3 1069 1068 1067
3 1071 1070 1069
3 1073 1072 1071
3 1074 1073 1071
3 1071 1069 1067
3 1067 1065 1063
3 1063 1061 1059
3 1059 1057 1086
3 1086 1082 1078
3 1086 1078 1077
3 1063 1059 1086
3 1071 1067 1063
3 1075 1074 1071
3 1086 1077 1076
3 1075 1071 1063
3 1086 1076 1075
3 1086 1075 1063
