ply
format ascii 1.0
element vertex 482
property float x
property float y
property float z
element face 960
property list uchar int vertex_index
end_header
-1.476037 1.972955 -0.044174
-1.462178 1.989363 0.000773
-1.478796 1.981656 -0.047510
-1.480717 1.958687 -0.091671
-1.473279 1.963757 -0.042677
-1.456767 1.971322 0.003709
-1.470627 1.954416 -0.043076
-1.451564 1.952999 0.002925
-1.468182 1.945292 -0.045358
-1.446770 1.935100 -0.001550
-1.466040 1.936733 -0.049433
-1.442567 1.918311 -0.009543
-1.464282 1.929070 -0.055145
-1.439118 1.903279 -0.020748
-1.462975 1.922596 -0.062274
-1.436555 1.890581 -0.034734
-1.462171 1.917561 -0.070548
-1.434977 1.880704 -0.050962
-1.461899 1.914158 -0.079647
-1.434444 1.874030 -0.068811
-1.462171 1.912519 -0.089222
-1.434977 1.870813 -0.087593
-1.462975 1.912704 -0.098905
-1.436555 1.871178 -0.106587
-1.464282 1.914709 -0.108324
-1.439118 1.875110 -0.125064
-1.466040 1.918456 -0.117117
-1.442567 1.882459 -0.142312
-1.468182 1.923800 -0.124947
-1.446770 1.892942 -0.157669
-1.470627 1.930536 -0.131511
-1.451564 1.906157 -0.170546
-1.473279 1.938406 -0.136558
-1.456767 1.921594 -0.180446
-1.476037 1.947108 -0.139894
-1.462178 1.938661 -0.186990
-1.478796 1.956305 -0.141391
-1.467588 1.956703 -0.189927
-1.481448 1.965646 -0.140991
-1.472790 1.975026 -0.189143
-1.483892 1.974771 -0.138710
-1.477585 1.992926 -0.184668
-1.486035 1.983330 -0.134636
-1.481788 2.009714 -0.176675
-1.487793 1.990993 -0.128923
-1.485237 2.024746 -0.165470
-1.489099 1.997466 -0.121794
-1.487800 2.037444 -0.151485
-1.489904 2.002501 -0.113520
-1.489378 2.047320 -0.135256
-1.490176 2.005904 -0.104421
-1.489911 2.053996 -0.117407
-1.489904 2.007544 -0.094846
-1.489378 2.057212 -0.098625
-1.489099 2.007358 -0.085163
-1.487800 2.056847 -0.079631
-1.487793 2.005353 -0.075744
-1.485237 2.052914 -0.061154
-1.486035 2.001607 -0.066951
-1.481788 2.045565 -0.043906
-1.483892 1.996263 -0.059121
-1.477585 2.035083 -0.028549
-1.481448 1.989526 -0.052557
-1.472790 2.021869 -0.015672
-1.455078 2.054472 0.017566
-1.467588 2.006431 -0.005772
-1.447525 2.032061 0.031939
-1.419378 2.057559 0.064174
-1.439670 2.007282 0.041440
-1.409381 2.026022 0.076266
-1.431815 1.981089 0.045703
-1.399383 1.992685 0.081692
-1.424263 1.954489 0.044564
-1.389770 1.958829 0.080243
-1.417302 1.928503 0.038068
-1.380911 1.925755 0.071974
-1.411200 1.904130 0.026463
-1.373145 1.894734 0.057205
-1.406193 1.882307 0.010197
-1.366773 1.866958 0.036501
-1.402473 1.863872 -0.010107
-1.362037 1.843495 0.010659
-1.400182 1.849533 -0.033667
-1.359121 1.825246 -0.019328
-1.399408 1.839843 -0.059579
-1.358136 1.812913 -0.052307
-1.400181 1.835173 -0.086847
-1.359121 1.806969 -0.087012
-1.402473 1.835703 -0.114422
-1.362037 1.807643 -0.122109
-1.406193 1.841412 -0.141246
-1.366773 1.814909 -0.156249
-1.411200 1.852081 -0.166286
-1.373145 1.828488 -0.188119
-1.417302 1.867300 -0.188582
-1.380911 1.847858 -0.216496
-1.424263 1.886484 -0.207276
-1.389770 1.872275 -0.240289
-1.431815 1.908895 -0.221649
-1.399383 1.900800 -0.258583
-1.439670 1.933674 -0.231150
-1.409381 1.932337 -0.270675
-1.447525 1.959867 -0.235413
-1.419378 1.965674 -0.276101
-1.455078 1.986467 -0.234274
-1.428991 1.999529 -0.274652
-1.462039 2.012453 -0.227778
-1.437851 2.032604 -0.266383
-1.468140 2.036826 -0.216173
-1.445616 2.063624 -0.251614
-1.473147 2.058649 -0.199907
-1.451989 2.091400 -0.230910
-1.476868 2.077084 -0.179603
-1.456724 2.114863 -0.205068
-1.479159 2.091423 -0.156043
-1.459641 2.133112 -0.175081
-1.479933 2.101113 -0.130131
-1.460625 2.145445 -0.142102
-1.479159 2.105783 -0.102863
-1.459641 2.151389 -0.107397
-1.476868 2.105253 -0.075287
-1.456724 2.150715 -0.072300
-1.473147 2.099544 -0.048464
-1.451989 2.143448 -0.038160
-1.468140 2.088875 -0.023423
-1.445616 2.129870 -0.006290
-1.462039 2.073656 -0.001128
-1.437851 2.110500 0.022087
-1.405950 2.144198 0.040205
-1.428991 2.086083 0.045880
-1.395532 2.115487 0.068182
-1.355987 2.141554 0.083615
-1.384228 2.081945 0.089693
-1.343427 2.104285 0.107517
-1.372473 2.044862 0.103912
-1.330365 2.063080 0.123316
-1.360717 2.005662 0.110292
-1.317303 2.019523 0.130405
-1.349413 1.965851 0.108588
-1.304743 1.975288 0.128512
-1.338996 1.926961 0.098866
-1.293167 1.932075 0.117709
-1.329865 1.890484 0.081498
-1.283021 1.891544 0.098412
-1.322371 1.857823 0.057154
-1.274695 1.855253 0.071361
-1.316803 1.830234 0.026767
-1.268507 1.824598 0.037597
-1.313374 1.808775 -0.008494
-1.264697 1.800755 -0.001583
-1.312216 1.794273 -0.047274
-1.263411 1.784640 -0.044673
-1.313374 1.787283 -0.088083
-1.264697 1.776874 -0.090017
-1.316803 1.788077 -0.129352
-1.268507 1.777755 -0.135873
-1.322371 1.796621 -0.169496
-1.274695 1.787248 -0.180479
-1.329865 1.812588 -0.206972
-1.283021 1.804990 -0.222120
-1.338996 1.835365 -0.240340
-1.293167 1.830298 -0.259196
-1.349413 1.864075 -0.268317
-1.304743 1.862201 -0.290282
-1.360717 1.897616 -0.289828
-1.317303 1.899470 -0.314184
-1.372473 1.934700 -0.304047
-1.330365 1.940674 -0.329984
-1.384228 1.973900 -0.310427
-1.343427 1.984231 -0.337073
-1.395532 2.013710 -0.308723
-1.355987 2.028467 -0.335180
-1.405950 2.052602 -0.299001
-1.367563 2.071680 -0.324377
-1.415081 2.089079 -0.281633
-1.377709 2.112210 -0.305079
-1.422575 2.121739 -0.257289
-1.386035 2.148501 -0.278029
-1.428143 2.149329 -0.226902
-1.392222 2.179157 -0.244264
-1.431572 2.170787 -0.191641
-1.396033 2.203001 -0.205085
-1.432730 2.185289 -0.152861
-1.397319 2.219114 -0.161995
-1.431572 2.192278 -0.112052
-1.396033 2.226881 -0.116651
-1.428143 2.191486 -0.070783
-1.392222 2.225999 -0.070794
-1.422575 2.182942 -0.030639
-1.386035 2.216506 -0.026189
-1.415081 2.166975 0.006837
-1.377709 2.198764 0.015452
-1.334935 2.224016 0.019225
-1.367563 2.173456 0.052528
-1.324164 2.197149 0.058585
-1.277422 2.214367 0.058140
-1.311876 2.163282 0.091586
-1.264893 2.179837 0.091788
-1.298542 2.123718 0.116960
-1.251298 2.139496 0.117660
-1.284675 2.079974 0.133732
-1.237159 2.094897 0.134760
-1.270809 2.033735 0.141258
-1.223021 2.047751 0.142434
-1.257475 1.986775 0.139248
-1.209426 1.999872 0.140384
-1.245186 1.940900 0.127780
-1.196897 1.953098 0.128691
-1.234415 1.897873 0.107294
-1.185915 1.909228 0.107804
-1.225576 1.859347 0.078577
-1.176902 1.869947 0.078525
-1.219008 1.826803 0.042733
-1.170205 1.836765 0.041979
-1.214963 1.801491 0.001140
-1.166081 1.810958 -0.000429
-1.213597 1.784384 -0.044604
-1.164689 1.793516 -0.047069
-1.214963 1.776140 -0.092741
-1.166081 1.785110 -0.096150
-1.219007 1.777075 -0.141422
-1.170205 1.786064 -0.145784
-1.225576 1.787154 -0.188775
-1.176902 1.796339 -0.194065
-1.234415 1.805988 -0.232980
-1.185915 1.815543 -0.239137
-1.245186 1.832855 -0.272340
-1.196897 1.842936 -0.279268
-1.257475 1.866722 -0.305341
-1.209426 1.877466 -0.312915
-1.270809 1.906287 -0.330716
-1.223021 1.917806 -0.338787
-1.284675 1.950029 -0.347488
-1.237159 1.962406 -0.355888
-1.298542 1.996270 -0.355014
-1.251298 2.009551 -0.363561
-1.311876 2.043229 -0.353004
-1.264893 2.057431 -0.361512
-1.324164 2.089104 -0.341536
-1.277422 2.104205 -0.349819
-1.334935 2.132131 -0.321049
-1.288404 2.148075 -0.328931
-1.343774 2.170657 -0.292333
-1.297417 2.187356 -0.299652
-1.350343 2.203202 -0.256489
-1.304114 2.220538 -0.263106
-1.354388 2.228513 -0.214896
-1.308237 2.246345 -0.220698
-1.355753 2.245620 -0.169152
-1.309630 2.263788 -0.174058
-1.354388 2.253865 -0.121015
-1.308237 2.272193 -0.124978
-1.350343 2.252929 -0.072334
-1.304114 2.271240 -0.075343
-1.343774 2.242850 -0.024981
-1.297417 2.260964 -0.027062
-1.248743 2.270150 -0.032353
-1.288404 2.241760 0.018009
-1.239903 2.251315 0.011853
-1.191298 2.252313 0.000993
-1.229133 2.224448 0.051213
-1.181152 2.227004 0.038069
-1.216844 2.190581 0.084214
-1.169576 2.195103 0.069155
-1.203510 2.151016 0.109589
-1.157016 2.157834 0.093057
-1.189644 2.107274 0.126361
-1.143954 2.116629 0.108856
-1.175777 2.061033 0.133887
-1.130892 2.073071 0.115946
-1.162443 2.014074 0.131877
-1.118332 2.028836 0.114052
-1.150155 1.968199 0.120408
-1.106756 1.985623 0.103249
-1.139384 1.925172 0.099922
-1.096610 1.945093 0.083952
-1.130544 1.886646 0.071205
-1.088284 1.908802 0.056901
-1.123976 1.854102 0.035362
-1.082096 1.878146 0.023137
-1.119931 1.828790 -0.006231
-1.078286 1.854303 -0.016042
-1.118566 1.811684 -0.051975
-1.077000 1.838189 -0.059133
-1.119931 1.803439 -0.100112
-1.078286 1.830422 -0.104477
-1.123976 1.804374 -0.148793
-1.082096 1.831303 -0.150333
-1.130544 1.814453 -0.196146
-1.088284 1.840797 -0.194939
-1.139384 1.833287 -0.240352
-1.096610 1.858539 -0.236580
-1.150155 1.860154 -0.279712
-1.106756 1.883847 -0.273656
-1.162443 1.894021 -0.312713
-1.118332 1.915749 -0.304742
-1.175777 1.933585 -0.338087
-1.130892 1.953018 -0.328644
-1.189644 1.977329 -0.354860
-1.143954 1.994223 -0.344444
-1.203510 2.023568 -0.362385
-1.157016 2.037780 -0.351533
-1.216844 2.070527 -0.360375
-1.169576 2.082015 -0.349639
-1.229133 2.116403 -0.348907
-1.181152 2.125228 -0.338836
-1.239903 2.159429 -0.328421
-1.191298 2.165759 -0.319539
-1.248743 2.197956 -0.299705
-1.199624 2.202049 -0.292488
-1.255311 2.230500 -0.263861
-1.205811 2.232705 -0.258724
-1.259356 2.255812 -0.222268
-1.209622 2.256549 -0.219545
-1.260722 2.272919 -0.176524
-1.210908 2.272663 -0.176455
-1.259356 2.281163 -0.128386
-1.209622 2.280429 -0.131110
-1.255311 2.280228 -0.079706
-1.205811 2.279548 -0.085254
-1.157516 2.269226 -0.091775
-1.199624 2.270054 -0.040648
-1.151948 2.260683 -0.051631
-1.107546 2.242393 -0.064878
-1.144454 2.244715 -0.014155
-1.101173 2.228815 -0.033008
-1.135323 2.221939 0.019212
-1.093408 2.209445 -0.004631
-1.124905 2.193227 0.047190
-1.084548 2.185028 0.019162
-1.113601 2.159686 0.068701
-1.074935 2.156504 0.037455
-1.101846 2.122602 0.082920
-1.064938 2.124967 0.049547
-1.090090 2.083402 0.089300
-1.054941 2.091630 0.054973
-1.078787 2.043592 0.087596
-1.045328 2.057774 0.053524
-1.068369 2.004701 0.077873
-1.036468 2.024699 0.045256
-1.059238 1.968225 0.060506
-1.028703 1.993679 0.030486
-1.051744 1.935564 0.036161
-1.022330 1.965903 0.009783
-1.046176 1.907974 0.005775
-1.017594 1.942440 -0.016059
-1.042747 1.886515 -0.029486
-1.014678 1.924191 -0.046046
-1.041589 1.872014 -0.068266
-1.013693 1.911858 -0.079026
-1.042747 1.865024 -0.109075
-1.014678 1.905914 -0.113731
-1.046176 1.865817 -0.150345
-1.017594 1.906588 -0.148827
-1.051744 1.874361 -0.190489
-1.022330 1.913854 -0.182967
-1.059238 1.890328 -0.227964
-1.028703 1.927433 -0.214838
-1.068369 1.913105 -0.261332
-1.036468 1.946803 -0.243214
-1.078786 1.941815 -0.289309
-1.045328 1.971220 -0.267007
-1.090090 1.975357 -0.310820
-1.054941 1.999745 -0.285301
-1.101846 2.012440 -0.325039
-1.064938 2.031281 -0.297393
-1.113601 2.051641 -0.331419
-1.074935 2.064619 -0.302819
-1.124905 2.091451 -0.329715
-1.084548 2.098475 -0.301370
-1.135323 2.130342 -0.319993
-1.093408 2.131549 -0.293102
-1.144454 2.166819 -0.302626
-1.101173 2.162569 -0.278332
-1.151948 2.199480 -0.278281
-1.107546 2.190345 -0.257628
-1.157516 2.227069 -0.247894
-1.112282 2.213808 -0.231787
-1.160945 2.248527 -0.212633
-1.115198 2.232057 -0.201800
-1.162103 2.263030 -0.173853
-1.116182 2.244390 -0.168820
-1.160945 2.270019 -0.133044
-1.115198 2.250334 -0.134115
-1.074137 2.222129 -0.134280
-1.112282 2.249660 -0.099018
-1.071846 2.221600 -0.106705
-1.037764 2.186125 -0.114540
-1.068125 2.215891 -0.079882
-1.035201 2.182192 -0.096064
-1.063118 2.205222 -0.054841
-1.031752 2.174843 -0.078815
-1.057017 2.190003 -0.032545
-1.027549 2.164361 -0.063458
-1.050056 2.170819 -0.013852
-1.022754 2.151147 -0.050582
-1.042503 2.148407 0.000522
-1.017552 2.135709 -0.040681
-1.034648 2.123629 0.010023
-1.012141 2.118641 -0.034137
-1.026793 2.097436 0.014285
-1.006731 2.100600 -0.031200
-1.019241 2.070836 0.013147
-1.001528 2.082277 -0.031985
-1.012280 2.044850 0.006651
-0.996733 2.064377 -0.036459
-1.006178 2.020477 -0.004954
-0.992531 2.047589 -0.044453
-1.001171 1.998654 -0.021221
-0.989082 2.032557 -0.055657
-0.997451 1.980219 -0.041524
-0.986519 2.019859 -0.069643
-0.995159 1.965881 -0.065085
-0.984941 2.009983 -0.085872
-0.994386 1.956190 -0.090997
-0.984408 2.003308 -0.103720
-0.995159 1.951520 -0.118264
-0.984941 2.000091 -0.122502
-0.997451 1.952051 -0.145840
-0.986519 2.000456 -0.141497
-1.001171 1.957759 -0.172663
-0.989082 2.004388 -0.159973
-1.006178 1.968428 -0.197704
-0.992531 2.011737 -0.177221
-1.012280 1.983647 -0.219999
-0.996733 2.022220 -0.192578
-1.019241 2.002831 -0.238693
-1.001528 2.035434 -0.205455
-1.026793 2.025243 -0.253066
-1.006731 2.050872 -0.215355
-1.034648 2.050021 -0.262567
-1.012141 2.067939 -0.221900
-1.042503 2.076213 -0.266830
-1.017552 2.085981 -0.224836
-1.050056 2.102814 -0.265692
-1.022754 2.104304 -0.224052
-1.057017 2.128800 -0.259195
-1.027549 2.122204 -0.219577
-1.063118 2.153173 -0.247591
-1.031752 2.138992 -0.211584
-1.068125 2.174997 -0.231324
-1.035201 2.154024 -0.200379
-1.071846 2.193431 -0.211020
-1.037764 2.166722 -0.186394
-1.074137 2.207769 -0.187460
-1.039342 2.176598 -0.170165
-1.074911 2.217459 -0.161548
-1.039874 2.183273 -0.152316
-1.012420 2.143145 -0.141481
-1.039342 2.186489 -0.133534
-1.012148 2.144785 -0.131905
-1.011343 2.144598 -0.122222
-0.993601 2.098616 -0.129456
-1.006136 2.112011 -0.175770
-0.998281 2.110195 -0.081233
-1.001040 2.118896 -0.084569
-1.003692 2.126767 -0.089616
-1.006136 2.133503 -0.096181
-1.008279 2.138847 -0.104010
-1.010037 2.142594 -0.112803
-1.012148 2.139742 -0.150580
-1.011343 2.134707 -0.158853
-1.010037 2.128233 -0.165983
-1.008279 2.120570 -0.171695
-1.003692 2.102887 -0.178051
-1.001040 2.093545 -0.178451
-0.998281 2.084348 -0.176954
-0.995523 2.075647 -0.173617
-0.992871 2.067777 -0.168570
-0.990427 2.061040 -0.162006
-0.988284 2.055696 -0.154177
-0.986526 2.051950 -0.145384
-0.985219 2.049945 -0.135964
-0.984415 2.049760 -0.126281
-0.984143 2.051399 -0.116706
-0.984415 2.054802 -0.107607
-0.985219 2.059837 -0.099334
-0.986526 2.066310 -0.092204
-0.988284 2.073973 -0.086492
-0.990427 2.082532 -0.082417
-0.992871 2.091657 -0.080136
-0.995523 2.100998 -0.079736
3 1 65 2
3 1 2 0
3 5 1 0
3 5 0 4
3 0 2 3
3 4 0 3
3 7 5 4
3 7 4 6
3 6 4 3
3 9 7 6
3 9 6 8
3 8 6 3
3 11 9 8
3 11 8 10
3 10 8 3
3 13 11 10
3 13 10 12
3 12 10 3
3 15 13 12
3 15 12 14
3 14 12 3
3 17 15 14
3 17 14 16
3 16 14 3
3 19 17 16
3 19 16 18
3 18 16 3
3 21 19 18
3 21 18 20
3 20 18 3
3 23 21 20
3 23 20 22
3 22 20 3
3 25 23 22
3 25 22 24
3 24 22 3
3 27 25 24
3 27 24 26
3 26 24 3
3 28 26 3
3 29 27 26
3 29 26 28
3 31 29 28
3 31 28 30
3 30 28 3
3 33 31 30
3 33 30 32
3 32 30 3
3 35 33 32
3 35 32 34
3 34 32 3
3 37 35 34
3 37 34 36
3 36 34 3
3 39 37 36
3 39 36 38
3 38 36 3
3 41 39 38
3 41 38 40
3 40 38 3
3 43 41 40
3 43 40 42
3 42 40 3
3 45 43 42
3 45 42 44
3 44 42 3
3 47 45 44
3 47 44 46
3 46 44 3
3 49 47 46
3 49 46 48
3 48 46 3
3 51 49 48
3 51 48 50
3 50 48 3
3 53 51 50
3 53 50 52
3 52 50 3
3 55 53 52
3 55 52 54
3 54 52 3
3 57 55 54
3 57 54 56
3 56 54 3
3 59 57 56
3 59 56 58
3 58 56 3
3 61 59 58
3 61 58 60
3 60 58 3
3 63 61 60
3 63 60 62
3 62 60 3
3 65 63 62
3 65 62 2
3 2 62 3
3 66 64 63
3 66 63 65
3 64 126 61
3 64 61 63
3 68 66 65
3 68 65 1
3 69 67 66
3 69 66 68
3 67 129 64
3 67 64 66
3 70 68 1
3 70 1 5
3 71 69 68
3 71 68 70
3 72 70 5
3 72 5 7
3 73 71 70
3 73 70 72
3 74 72 7
3 74 7 9
3 75 73 72
3 75 72 74
3 76 74 9
3 76 9 11
3 77 75 74
3 77 74 76
3 78 76 11
3 78 11 13
3 79 77 76
3 79 76 78
3 80 78 13
3 80 13 15
3 81 79 78
3 81 78 80
3 82 80 15
3 82 15 17
3 83 81 80
3 83 80 82
3 84 82 17
3 84 17 19
3 85 83 82
3 85 82 84
3 86 84 19
3 86 19 21
3 87 85 84
3 87 84 86
3 88 86 21
3 88 21 23
3 89 87 86
3 89 86 88
3 90 88 23
3 90 23 25
3 91 89 88
3 91 88 90
3 92 90 25
3 92 25 27
3 93 91 90
3 93 90 92
3 94 92 27
3 94 27 29
3 95 93 92
3 95 92 94
3 96 94 29
3 96 29 31
3 97 95 94
3 97 94 96
3 98 96 31
3 98 31 33
3 99 97 96
3 99 96 98
3 100 98 33
3 100 33 35
3 101 99 98
3 101 98 100
3 102 100 35
3 102 35 37
3 103 101 100
3 103 100 102
3 104 102 37
3 104 37 39
3 105 103 102
3 105 102 104
3 106 104 39
3 106 39 41
3 107 105 104
3 107 104 106
3 108 106 41
3 108 41 43
3 109 107 106
3 109 106 108
3 110 108 43
3 110 43 45
3 111 109 108
3 111 108 110
3 112 110 45
3 112 45 47
3 113 111 110
3 113 110 112
3 114 112 47
3 114 47 49
3 115 113 112
3 115 112 114
3 116 114 49
3 116 49 51
3 117 115 114
3 117 114 116
3 118 116 51
3 118 51 53
3 119 117 116
3 119 116 118
3 120 118 53
3 120 53 55
3 121 119 118
3 121 118 120
3 122 120 55
3 122 55 57
3 123 121 120
3 123 120 122
3 124 122 57
3 124 57 59
3 125 123 122
3 125 122 124
3 126 124 59
3 126 59 61
3 127 125 124
3 127 124 126
3 129 127 126
3 129 126 64
3 130 128 127
3 130 127 129
3 128 190 125
3 128 125 127
3 132 130 129
3 132 129 67
3 133 131 130
3 133 130 132
3 131 193 128
3 131 128 130
3 134 132 67
3 134 67 69
3 135 133 132
3 135 132 134
3 136 134 69
3 136 69 71
3 137 135 134
3 137 134 136
3 138 136 71
3 138 71 73
3 139 137 136
3 139 136 138
3 140 138 73
3 140 73 75
3 141 139 138
3 141 138 140
3 142 140 75
3 142 75 77
3 143 141 140
3 143 140 142
3 144 142 77
3 144 77 79
3 145 143 142
3 145 142 144
3 146 144 79
3 146 79 81
3 147 145 144
3 147 144 146
3 148 146 81
3 148 81 83
3 149 147 146
3 149 146 148
3 150 148 83
3 150 83 85
3 151 149 148
3 151 148 150
3 152 150 85
3 152 85 87
3 153 151 150
3 153 150 152
3 154 152 87
3 154 87 89
3 155 153 152
3 155 152 154
3 156 154 89
3 156 89 91
3 157 155 154
3 157 154 156
3 158 156 91
3 158 91 93
3 159 157 156
3 159 156 158
3 160 158 93
3 160 93 95
3 161 159 158
3 161 158 160
3 162 160 95
3 162 95 97
3 163 161 160
3 163 160 162
3 164 162 97
3 164 97 99
3 165 163 162
3 165 162 164
3 166 164 99
3 166 99 101
3 167 165 164
3 167 164 166
3 168 166 101
3 168 101 103
3 169 167 166
3 169 166 168
3 170 168 103
3 170 103 105
3 171 169 168
3 171 168 170
3 172 170 105
3 172 105 107
3 173 171 170
3 173 170 172
3 174 172 107
3 174 107 109
3 175 173 172
3 175 172 174
3 176 174 109
3 176 109 111
3 177 175 174
3 177 174 176
3 178 176 111
3 178 111 113
3 179 177 176
3 179 176 178
3 180 178 113
3 180 113 115
3 181 179 178
3 181 178 180
3 182 180 115
3 182 115 117
3 183 181 180
3 183 180 182
3 184 182 117
3 184 117 119
3 185 183 182
3 185 182 184
3 186 184 119
3 186 119 121
3 187 185 184
3 187 184 186
3 188 186 121
3 188 121 123
3 189 187 186
3 189 186 188
3 190 188 123
3 190 123 125
3 191 189 188
3 191 188 190
3 193 191 190
3 193 190 128
3 194 192 191
3 194 191 193
3 192 254 189
3 192 189 191
3 196 194 193
3 196 193 131
3 197 195 194
3 197 194 196
3 195 257 192
3 195 192 194
3 198 196 131
3 198 131 133
3 199 197 196
3 199 196 198
3 200 198 133
3 200 133 135
3 201 199 198
3 201 198 200
3 202 200 135
3 202 135 137
3 203 201 200
3 203 200 202
3 204 202 137
3 204 137 139
3 205 203 202
3 205 202 204
3 206 204 139
3 206 139 141
3 207 205 204
3 207 204 206
3 208 206 141
3 208 141 143
3 209 207 206
3 209 206 208
3 210 208 143
3 210 143 145
3 211 209 208
3 211 208 210
3 212 210 145
3 212 145 147
3 213 211 210
3 213 210 212
3 214 212 147
3 214 147 149
3 215 213 212
3 215 212 214
3 216 214 149
3 216 149 151
3 217 215 214
3 217 214 216
3 218 216 151
3 218 151 153
3 219 217 216
3 219 216 218
3 220 218 153
3 220 153 155
3 221 219 218
3 221 218 220
3 222 220 155
3 222 155 157
3 223 221 220
3 223 220 222
3 224 222 157
3 224 157 159
3 225 223 222
3 225 222 224
3 226 224 159
3 226 159 161
3 227 225 224
3 227 224 226
3 228 226 161
3 228 161 163
3 229 227 226
3 229 226 228
3 230 228 163
3 230 163 165
3 231 229 228
3 231 228 230
3 232 230 165
3 232 165 167
3 233 231 230
3 233 230 232
3 234 232 167
3 234 167 169
3 235 233 232
3 235 232 234
3 236 234 169
3 236 169 171
3 237 235 234
3 237 234 236
3 238 236 171
3 238 171 173
3 239 237 236
3 239 236 238
3 240 238 173
3 240 173 175
3 241 239 238
3 241 238 240
3 242 240 175
3 242 175 177
3 243 241 240
3 243 240 242
3 244 242 177
3 244 177 179
3 245 243 242
3 245 242 244
3 246 244 179
3 246 179 181
3 247 245 244
3 247 244 246
3 248 246 181
3 248 181 183
3 249 247 246
3 249 246 248
3 250 248 183
3 250 183 185
3 251 249 248
3 251 248 250
3 252 250 185
3 252 185 187
3 253 251 250
3 253 250 252
3 254 252 187
3 254 187 189
3 255 253 252
3 255 252 254
3 257 255 254
3 257 254 192
3 258 256 255
3 258 255 257
3 256 318 253
3 256 253 255
3 260 258 257
3 260 257 195
3 261 259 258
3 261 258 260
3 259 321 256
3 259 256 258
3 262 260 195
3 262 195 197
3 263 261 260
3 263 260 262
3 264 262 197
3 264 197 199
3 265 263 262
3 265 262 264
3 266 264 199
3 266 199 201
3 267 265 264
3 267 264 266
3 268 266 201
3 268 201 203
3 269 267 266
3 269 266 268
3 270 268 203
3 270 203 205
3 271 269 268
3 271 268 270
3 272 270 205
3 272 205 207
3 273 271 270
3 273 270 272
3 274 272 207
3 274 207 209
3 275 273 272
3 275 272 274
3 276 274 209
3 276 209 211
3 277 275 274
3 277 274 276
3 278 276 211
3 278 211 213
3 279 277 276
3 279 276 278
3 280 278 213
3 280 213 215
3 281 279 278
3 281 278 280
3 282 280 215
3 282 215 217
3 283 281 280
3 283 280 282
3 284 282 217
3 284 217 219
3 285 283 282
3 285 282 284
3 286 284 219
3 286 219 221
3 287 285 284
3 287 284 286
3 288 286 221
3 288 221 223
3 289 287 286
3 289 286 288
3 290 288 223
3 290 223 225
3 291 289 288
3 291 288 290
3 292 290 225
3 292 225 227
3 293 291 290
3 293 290 292
3 294 292 227
3 294 227 229
3 295 293 292
3 295 292 294
3 296 294 229
3 296 229 231
3 297 295 294
3 297 294 296
3 298 296 231
3 298 231 233
3 299 297 296
3 299 296 298
3 300 298 233
3 300 233 235
3 301 299 298
3 301 298 300
3 302 300 235
3 302 235 237
3 303 301 300
3 303 300 302
3 304 302 237
3 304 237 239
3 305 303 302
3 305 302 304
3 306 304 239
3 306 239 241
3 307 305 304
3 307 304 306
3 308 306 241
3 308 241 243
3 309 307 306
3 309 306 308
3 310 308 243
3 310 243 245
3 311 309 308
3 311 308 310
3 312 310 245
3 312 245 247
3 313 311 310
3 313 310 312
3 314 312 247
3 314 247 249
3 315 313 312
3 315 312 314
3 316 314 249
3 316 249 251
3 317 315 314
3 317 314 316
3 318 316 251
3 318 251 253
3 319 317 316
3 319 316 318
3 321 319 318
3 321 318 256
3 322 320 319
3 322 319 321
3 320 382 317
3 320 317 319
3 324 322 321
3 324 321 259
3 325 323 322
3 325 322 324
3 323 385 320
3 323 320 322
3 326 324 259
3 326 259 261
3 327 325 324
3 327 324 326
3 328 326 261
3 328 261 263
3 329 327 326
3 329 326 328
3 330 328 263
3 330 263 265
3 331 329 328
3 331 328 330
3 332 330 265
3 332 265 267
3 333 331 330
3 333 330 332
3 334 332 267
3 334 267 269
3 335 333 332
3 335 332 334
3 336 334 269
3 336 269 271
3 337 335 334
3 337 334 336
3 338 336 271
3 338 271 273
3 339 337 336
3 339 336 338
3 340 338 273
3 340 273 275
3 341 339 338
3 341 338 340
3 342 340 275
3 342 275 277
3 343 341 340
3 343 340 342
3 344 342 277
3 344 277 279
3 345 343 342
3 345 342 344
3 346 344 279
3 346 279 281
3 347 345 344
3 347 344 346
3 348 346 281
3 348 281 283
3 349 347 346
3 349 346 348
3 350 348 283
3 350 283 285
3 351 349 348
3 351 348 350
3 352 350 285
3 352 285 287
3 353 351 350
3 353 350 352
3 354 352 287
3 354 287 289
3 355 353 352
3 355 352 354
3 356 354 289
3 356 289 291
3 357 355 354
3 357 354 356
3 358 356 291
3 358 291 293
3 359 357 356
3 359 356 358
3 360 358 293
3 360 293 295
3 361 359 358
3 361 358 360
3 362 360 295
3 362 295 297
3 363 361 360
3 363 360 362
3 364 362 297
3 364 297 299
3 365 363 362
3 365 362 364
3 366 364 299
3 366 299 301
3 367 365 364
3 367 364 366
3 368 366 301
3 368 301 303
3 369 367 366
3 369 366 368
3 370 368 303
3 370 303 305
3 371 369 368
3 371 368 370
3 372 370 305
3 372 305 307
3 373 371 370
3 373 370 372
3 374 372 307
3 374 307 309
3 375 373 372
3 375 372 374
3 376 374 309
3 376 309 311
3 377 375 374
3 377 374 376
3 378 376 311
3 378 311 313
3 379 377 376
3 379 376 378
3 380 378 313
3 380 313 315
3 381 379 378
3 381 378 380
3 382 380 315
3 382 315 317
3 383 381 380
3 383 380 382
3 385 383 382
3 385 382 320
3 386 384 383
3 386 383 385
3 384 446 381
3 384 381 383
3 388 386 385
3 388 385 323
3 389 387 386
3 389 386 388
3 387 449 384
3 387 384 386
3 390 388 323
3 390 323 325
3 391 389 388
3 391 388 390
3 392 390 325
3 392 325 327
3 393 391 390
3 393 390 392
3 394 392 327
3 394 327 329
3 395 393 392
3 395 392 394
3 396 394 329
3 396 329 331
3 397 395 394
3 397 394 396
3 398 396 331
3 398 331 333
3 399 397 396
3 399 396 398
3 400 398 333
3 400 333 335
3 401 399 398
3 401 398 400
3 402 400 335
3 402 335 337
3 403 401 400
3 403 400 402
3 404 402 337
3 404 337 339
3 405 403 402
3 405 402 404
3 406 404 339
3 406 339 341
3 407 405 404
3 407 404 406
3 408 406 341
3 408 341 343
3 409 407 406
3 409 406 408
3 410 408 343
3 410 343 345
3 411 409 408
3 411 408 410
3 412 410 345
3 412 345 347
3 413 411 410
3 413 410 412
3 414 412 347
3 414 347 349
3 415 413 412
3 415 412 414
3 416 414 349
3 416 349 351
3 417 415 414
3 417 414 416
3 418 416 351
3 418 351 353
3 419 417 416
3 419 416 418
3 420 418 353
3 420 353 355
3 421 419 418
3 421 418 420
3 422 420 355
3 422 355 357
3 423 421 420
3 423 420 422
3 424 422 357
3 424 357 359
3 425 423 422
3 425 422 424
3 426 424 359
3 426 359 361
3 427 425 424
3 427 424 426
3 428 426 361
3 428 361 363
3 429 427 426
3 429 426 428
3 430 428 363
3 430 363 365
3 431 429 428
3 431 428 430
3 432 430 365
3 432 365 367
3 433 431 430
3 433 430 432
3 434 432 367
3 434 367 369
3 435 433 432
3 435 432 434
3 436 434 369
3 436 369 371
3 437 435 434
3 437 434 436
3 438 436 371
3 438 371 373
3 439 437 436
3 439 436 438
3 440 438 373
3 440 373 375
3 441 439 438
3 441 438 440
3 442 440 375
3 442 375 377
3 443 441 440
3 443 440 442
3 444 442 377
3 444 377 379
3 445 443 442
3 445 442 444
3 446 444 379
3 446 379 381
3 447 445 444
3 447 444 446
3 449 447 446
3 449 446 384
3 450 448 447
3 450 447 449
3 448 460 445
3 448 445 447
3 451 450 449
3 451 449 387
3 452 450 451
3 452 448 450
3 452 453 463
3 452 464 453
3 452 455 454
3 452 454 481
3 452 456 455
3 452 457 456
3 452 458 457
3 452 459 458
3 452 451 459
3 452 460 448
3 452 461 460
3 452 462 461
3 452 463 462
3 452 465 464
3 452 466 465
3 452 467 466
3 452 468 467
3 452 469 468
3 452 470 469
3 452 471 470
3 452 472 471
3 452 473 472
3 452 474 473
3 452 475 474
3 452 476 475
3 452 477 476
3 452 478 477
3 452 479 478
3 452 480 479
3 452 481 480
3 480 481 401
3 480 401 403
3 481 454 399
3 481 399 401
3 479 480 403
3 479 403 405
3 478 479 405
3 478 405 407
3 477 478 407
3 477 407 409
3 476 477 409
3 476 409 411
3 475 476 411
3 475 411 413
3 474 475 413
3 474 413 415
3 473 474 415
3 473 415 417
3 472 473 417
3 472 417 419
3 471 472 419
3 471 419 421
3 470 471 421
3 470 421 423
3 469 470 423
3 469 423 425
3 468 469 425
3 468 425 427
3 467 468 427
3 467 427 429
3 466 467 429
3 466 429 431
3 465 466 431
3 465 431 433
3 464 465 433
3 464 433 435
3 453 464 435
3 453 435 437
3 462 463 439
3 462 439 441
3 463 453 437
3 463 437 439
3 461 462 441
3 461 441 443
3 460 461 443
3 460 443 445
3 458 459 389
3 458 389 391
3 459 451 387
3 459 387 389
3 457 458 391
3 457 391 393
3 456 457 393
3 456 393 395
3 455 456 395
3 455 395 397
3 454 455 397
3 454 397 399
