ply
format ascii 1.0
element vertex 1376
property float x
property float y
property float z
element face 2748
property list uchar int vertex_index
end_header
-0.322570 2.658158 -0.195083
-0.322529 2.658326 -0.194988
-0.322670 2.657669 -0.194995
-0.322787 2.657704 -0.197951
-0.322732 2.657944 -0.197793
-0.322954 2.656870 -0.197843
-0.322956 2.657392 -0.201514
-0.322886 2.657715 -0.201278
-0.323207 2.656117 -0.201372
-0.323277 2.656201 -0.207154
-0.323177 2.656713 -0.206806
-0.323626 2.654310 -0.206920
-0.323591 2.654485 -0.213414
-0.323458 2.655248 -0.212932
-0.324032 2.651923 -0.213100
-0.323929 2.651928 -0.220272
-0.323769 2.652980 -0.219639
-0.324446 2.648616 -0.219870
-0.324287 2.648526 -0.226986
-0.324106 2.649911 -0.226202
-0.324850 2.644475 -0.226515
-0.324816 2.643038 -0.233684
-0.324493 2.645850 -0.232684
-0.325262 2.639293 -0.233084
-0.325445 2.637530 -0.239275
-0.325060 2.641541 -0.238081
-0.325841 2.634010 -0.238557
-0.349113 2.661956 -0.230919
-0.370883 2.679860 -0.224031
-0.349662 2.658867 -0.230132
-0.348493 2.665476 -0.229828
-0.370163 2.683100 -0.223067
-0.347801 2.669245 -0.226910
-0.324690 2.645865 -0.235025
-0.369310 2.686527 -0.220302
-0.347043 2.673035 -0.222302
-0.324366 2.650301 -0.230222
-0.368337 2.689929 -0.215873
-0.346225 2.676590 -0.216209
-0.324116 2.654581 -0.223872
-0.367263 2.693081 -0.209991
-0.345357 2.679631 -0.208911
-0.323944 2.658390 -0.216261
-0.366113 2.695762 -0.202928
-0.344455 2.681918 -0.200731
-0.323820 2.661427 -0.207742
-0.364920 2.697774 -0.194998
-0.343536 2.683271 -0.192020
-0.323688 2.663442 -0.198712
-0.363712 2.698965 -0.186533
-0.342613 2.683586 -0.183130
-0.323473 2.664288 -0.189565
-0.362521 2.699247 -0.177868
-0.341691 2.682839 -0.174397
-0.323101 2.663928 -0.180667
-0.361372 2.698594 -0.169320
-0.340774 2.681077 -0.166133
-0.322530 2.662407 -0.172339
-0.360296 2.697044 -0.161185
-0.339886 2.678420 -0.158623
-0.321774 2.659831 -0.164854
-0.359330 2.694695 -0.153734
-0.339081 2.675053 -0.152123
-0.320909 2.656404 -0.158440
-0.358529 2.691702 -0.147221
-0.338450 2.671222 -0.146853
-0.320080 2.652371 -0.153290
-0.357963 2.688270 -0.141874
-0.338101 2.667208 -0.142981
-0.319462 2.648078 -0.149553
-0.357713 2.684637 -0.137891
-0.338142 2.663285 -0.140638
-0.319222 2.643953 -0.147334
-0.357853 2.681049 -0.135422
-0.338652 2.659690 -0.139901
-0.319520 2.640249 -0.146697
-0.358431 2.677727 -0.134560
-0.339652 2.656605 -0.140791
-0.320450 2.637043 -0.147659
-0.359456 2.674850 -0.135333
-0.341102 2.654160 -0.143276
-0.321948 2.634636 -0.150172
-0.360882 2.672534 -0.137710
-0.342886 2.652402 -0.147270
-0.323866 2.633083 -0.154144
-0.362613 2.670824 -0.141604
-0.344829 2.651283 -0.152641
-0.325961 2.632142 -0.159457
-0.364506 2.669694 -0.146875
-0.346718 2.650683 -0.159220
-0.327914 2.631545 -0.165969
-0.366392 2.669063 -0.153341
-0.348356 2.650460 -0.166804
-0.329415 2.631040 -0.173514
-0.368118 2.668816 -0.160786
-0.349611 2.650477 -0.175156
-0.330267 2.630420 -0.181904
-0.369572 2.668841 -0.168961
-0.350444 2.650652 -0.183999
-0.330426 2.629651 -0.190895
-0.370701 2.669043 -0.177588
-0.350904 2.650954 -0.193003
-0.330011 2.628821 -0.200160
-0.371507 2.669365 -0.186360
-0.351074 2.651394 -0.201795
-0.329237 2.628104 -0.209295
-0.372018 2.669807 -0.194941
-0.351034 2.652036 -0.209983
-0.328340 2.627748 -0.217845
-0.372277 2.670428 -0.202975
-0.350843 2.652991 -0.217200
-0.327503 2.628035 -0.225365
-0.372322 2.671349 -0.210110
-0.350537 2.654386 -0.223123
-0.326818 2.629152 -0.231484
-0.372190 2.672700 -0.216019
-0.350138 2.656330 -0.227497
-0.326281 2.631166 -0.235935
-0.371900 2.674570 -0.220430
-0.392976 2.689092 -0.215049
-0.371464 2.676976 -0.223140
-0.392645 2.691589 -0.217782
-0.413910 2.705624 -0.213333
-0.392103 2.694493 -0.218719
-0.413419 2.708649 -0.214239
-0.391361 2.697677 -0.217826
-0.412675 2.711881 -0.213315
-0.390435 2.700973 -0.215170
-0.411700 2.715107 -0.210711
-0.389339 2.704190 -0.210861
-0.410514 2.718212 -0.206425
-0.388104 2.707116 -0.205109
-0.409161 2.720962 -0.200688
-0.386768 2.709549 -0.198177
-0.407691 2.723155 -0.193765
-0.385375 2.711315 -0.190370
-0.406156 2.724644 -0.185965
-0.383968 2.712292 -0.182013
-0.404607 2.725336 -0.177614
-0.382589 2.712412 -0.173432
-0.403086 2.725196 -0.169038
-0.381277 2.711670 -0.164942
-0.401636 2.724235 -0.160543
-0.380074 2.710115 -0.156840
-0.400304 2.722508 -0.152415
-0.379028 2.707842 -0.149406
-0.399144 2.720108 -0.144925
-0.378191 2.704993 -0.142900
-0.398217 2.717170 -0.138339
-0.377623 2.701752 -0.137557
-0.397585 2.713871 -0.132911
-0.377386 2.698327 -0.133580
-0.397303 2.710415 -0.128868
-0.377533 2.694932 -0.131123
-0.397415 2.707011 -0.126385
-0.378096 2.691765 -0.130282
-0.397942 2.703848 -0.125566
-0.379073 2.688987 -0.131087
-0.398872 2.701078 -0.126440
-0.380420 2.686703 -0.133501
-0.400162 2.698806 -0.128958
-0.382051 2.684958 -0.137420
-0.401734 2.697080 -0.133001
-0.383849 2.683738 -0.142690
-0.403484 2.695895 -0.138391
-0.385679 2.682984 -0.149112
-0.405299 2.695200 -0.144907
-0.387420 2.682611 -0.156463
-0.407071 2.694919 -0.152308
-0.388975 2.682534 -0.164496
-0.408716 2.694973 -0.160348
-0.390290 2.682685 -0.172948
-0.410178 2.695292 -0.168769
-0.391344 2.683027 -0.181529
-0.411427 2.695838 -0.177298
-0.392139 2.683569 -0.189924
-0.412450 2.696611 -0.185633
-0.392688 2.684366 -0.197801
-0.413241 2.697652 -0.193450
-0.393003 2.685502 -0.204819
-0.413791 2.699026 -0.200416
-0.393097 2.687061 -0.210660
-0.414090 2.700803 -0.206217
-0.435370 2.714841 -0.201889
-0.414131 2.703014 -0.210584
-0.435554 2.717189 -0.206285
-0.457432 2.731039 -0.201748
-0.435434 2.719901 -0.209066
-0.457392 2.733819 -0.204560
-0.435003 2.722960 -0.209892
-0.457034 2.736844 -0.205327
-0.434279 2.726154 -0.208871
-0.456353 2.739965 -0.204218
-0.433278 2.729318 -0.206255
-0.455345 2.743070 -0.201504
-0.432039 2.732277 -0.201904
-0.454085 2.745887 -0.197001
-0.430615 2.734804 -0.196068
-0.452626 2.748187 -0.190962
-0.429066 2.736706 -0.189031
-0.451031 2.749791 -0.183693
-0.427449 2.737863 -0.181122
-0.449360 2.750602 -0.175556
-0.425813 2.738223 -0.172687
-0.447663 2.750611 -0.166933
-0.424201 2.737787 -0.164068
-0.445981 2.749865 -0.158188
-0.422653 2.736596 -0.155572
-0.444357 2.748431 -0.149640
-0.421215 2.734713 -0.147477
-0.442837 2.746390 -0.141563
-0.419946 2.732221 -0.140040
-0.441479 2.743826 -0.134200
-0.418911 2.729237 -0.133504
-0.440350 2.740838 -0.127775
-0.418178 2.725910 -0.128109
-0.439523 2.737553 -0.122506
-0.417810 2.722427 -0.124080
-0.439063 2.734129 -0.118595
-0.417849 2.718996 -0.121604
-0.439019 2.730756 -0.116215
-0.418313 2.715814 -0.120804
-0.439413 2.727620 -0.115482
-0.419188 2.713047 -0.121716
-0.440235 2.724884 -0.116431
-0.420433 2.710806 -0.124291
-0.441443 2.722663 -0.119009
-0.421974 2.709139 -0.128391
-0.442964 2.721012 -0.123080
-0.423715 2.708038 -0.133818
-0.444703 2.719931 -0.128453
-0.425546 2.707450 -0.140343
-0.446552 2.719386 -0.134916
-0.427364 2.707305 -0.147730
-0.448410 2.719325 -0.142255
-0.429086 2.707531 -0.155749
-0.450194 2.719696 -0.150261
-0.430653 2.708072 -0.164165
-0.451843 2.720446 -0.158717
-0.432033 2.708882 -0.172720
-0.453320 2.721530 -0.167375
-0.433209 2.709941 -0.181114
-0.454608 2.722905 -0.175934
-0.434171 2.711259 -0.189007
-0.455690 2.724538 -0.184030
-0.434900 2.712875 -0.196042
-0.456546 2.726422 -0.191263
-0.478903 2.739274 -0.185926
-0.457139 2.728577 -0.197263
-0.479614 2.741607 -0.192136
-0.503007 2.753671 -0.186226
-0.480009 2.744158 -0.196746
-0.503535 2.756283 -0.190950
-0.480052 2.746966 -0.199576
-0.503689 2.759098 -0.193797
-0.479768 2.749946 -0.200312
-0.503480 2.762024 -0.194491
-0.479135 2.753008 -0.199122
-0.502892 2.764998 -0.193178
-0.478146 2.756033 -0.196216
-0.501925 2.767905 -0.190057
-0.476884 2.758705 -0.191482
-0.500646 2.770411 -0.185072
-0.475399 2.760787 -0.185160
-0.499107 2.772289 -0.178480
-0.473758 2.762107 -0.177587
-0.497377 2.773384 -0.170642
-0.472022 2.762597 -0.169160
-0.495527 2.773651 -0.161981
-0.470247 2.762286 -0.160297
-0.493624 2.773136 -0.152926
-0.468480 2.761257 -0.151381
-0.491724 2.771935 -0.143869
-0.466767 2.759603 -0.142738
-0.489880 2.770152 -0.135136
-0.465157 2.757417 -0.134641
-0.488147 2.767878 -0.126996
-0.463708 2.754783 -0.127321
-0.486586 2.765199 -0.119675
-0.462491 2.751790 -0.120985
-0.485266 2.762199 -0.113373
-0.461575 2.748548 -0.115830
-0.484259 2.758977 -0.108276
-0.461030 2.745193 -0.112038
-0.483630 2.755661 -0.104553
-0.460908 2.741889 -0.109763
-0.483433 2.752401 -0.102348
-0.461234 2.738811 -0.109106
-0.483694 2.749363 -0.101753
-0.462001 2.736112 -0.110096
-0.484407 2.746693 -0.102786
-0.463169 2.733907 -0.112676
-0.485535 2.744506 -0.105392
-0.464664 2.732259 -0.116720
-0.487007 2.742869 -0.109447
-0.466395 2.731184 -0.122053
-0.488733 2.741812 -0.114789
-0.468257 2.730669 -0.128485
-0.490616 2.741335 -0.121242
-0.470151 2.730682 -0.135823
-0.492561 2.741424 -0.128630
-0.471997 2.731188 -0.143875
-0.494489 2.742053 -0.136771
-0.473731 2.732143 -0.152438
-0.496336 2.743184 -0.145469
-0.475313 2.733497 -0.161269
-0.498059 2.744758 -0.154480
-0.476719 2.735183 -0.170060
-0.499623 2.746691 -0.163493
-0.477924 2.737129 -0.178428
-0.501000 2.748869 -0.172088
-0.524911 2.759688 -0.165141
-0.502141 2.751215 -0.179833
-0.526264 2.762078 -0.172956
-0.550888 2.772064 -0.165909
-0.527309 2.764564 -0.179418
-0.552073 2.774459 -0.172289
-0.527980 2.767165 -0.184138
-0.552845 2.777001 -0.176989
-0.528243 2.769935 -0.186939
-0.553170 2.779690 -0.179718
-0.528086 2.772792 -0.187591
-0.553034 2.782479 -0.180338
-0.527517 2.775682 -0.186222
-0.552455 2.785289 -0.178909
-0.526540 2.778431 -0.182904
-0.551454 2.788007 -0.175625
-0.525210 2.780798 -0.177774
-0.550071 2.790357 -0.170529
-0.523581 2.782555 -0.171063
-0.548360 2.792137 -0.163875
-0.521728 2.783565 -0.163135
-0.546396 2.793211 -0.156009
-0.519730 2.783785 -0.154407
-0.544264 2.793529 -0.147324
-0.517663 2.783255 -0.145295
-0.542048 2.793113 -0.138218
-0.515595 2.782056 -0.136181
-0.539825 2.792025 -0.129063
-0.513589 2.780282 -0.127389
-0.537667 2.790339 -0.120184
-0.511707 2.778016 -0.119190
-0.535645 2.788131 -0.111862
-0.510014 2.775339 -0.111815
-0.533830 2.785474 -0.104342
-0.508580 2.772338 -0.105471
-0.532292 2.782456 -0.097850
-0.507475 2.769114 -0.100346
-0.531102 2.779187 -0.092594
-0.506763 2.765795 -0.096616
-0.530320 2.775816 -0.088763
-0.506495 2.762539 -0.094422
-0.529991 2.772511 -0.086510
-0.506694 2.759507 -0.093855
-0.530139 2.769451 -0.085931
-0.507359 2.756850 -0.094931
-0.530760 2.766792 -0.087042
-0.508452 2.754683 -0.097588
-0.531823 2.764649 -0.089777
-0.509910 2.753073 -0.101703
-0.533270 2.763085 -0.094004
-0.511648 2.752052 -0.107112
-0.535025 2.762123 -0.099551
-0.513572 2.751624 -0.113642
-0.537002 2.761757 -0.106231
-0.515595 2.751777 -0.121117
-0.539116 2.761965 -0.113857
-0.517639 2.752487 -0.129358
-0.541292 2.762714 -0.122236
-0.519641 2.753713 -0.138164
-0.543463 2.763954 -0.131153
-0.521554 2.755380 -0.147276
-0.545569 2.765619 -0.140351
-0.523315 2.757432 -0.156438
-0.547561 2.767572 -0.149459
-0.572095 2.777255 -0.143110
-0.549354 2.769777 -0.158177
-0.574025 2.779283 -0.151699
-0.598796 2.788204 -0.145817
-0.575659 2.781427 -0.159306
-0.600475 2.790241 -0.153336
-0.576907 2.783683 -0.165520
-0.601759 2.792428 -0.159503
-0.577722 2.786108 -0.170076
-0.602588 2.794788 -0.163993
-0.578066 2.788713 -0.172726
-0.602936 2.797347 -0.166611
-0.577935 2.791458 -0.173356
-0.602804 2.800076 -0.167258
-0.577353 2.794263 -0.172021
-0.602213 2.802871 -0.165955
-0.576334 2.796949 -0.168770
-0.601199 2.805588 -0.162822
-0.574925 2.799316 -0.163784
-0.599785 2.807996 -0.157947
-0.573176 2.801156 -0.157270
-0.598018 2.809899 -0.151539
-0.571157 2.802334 -0.149540
-0.595968 2.811162 -0.143888
-0.568952 2.802788 -0.140955
-0.593716 2.811721 -0.135333
-0.566646 2.802525 -0.131888
-0.591352 2.811572 -0.126231
-0.564324 2.801586 -0.122699
-0.588964 2.810742 -0.116932
-0.562066 2.800026 -0.113715
-0.586640 2.809267 -0.107768
-0.559949 2.797901 -0.105227
-0.584464 2.807186 -0.099050
-0.558049 2.795278 -0.097507
-0.582517 2.804557 -0.091071
-0.556442 2.792243 -0.090803
-0.580878 2.801467 -0.084111
-0.555196 2.788924 -0.085350
-0.579612 2.798057 -0.078431
-0.554367 2.785482 -0.081358
-0.578773 2.794511 -0.074260
-0.553996 2.782114 -0.078995
-0.578391 2.791052 -0.071774
-0.554102 2.779014 -0.078365
-0.578477 2.787898 -0.071080
-0.554682 2.776357 -0.079492
-0.579027 2.785235 -0.072205
-0.555710 2.774255 -0.082309
-0.580022 2.783181 -0.075093
-0.557140 2.772765 -0.086678
-0.581426 2.781783 -0.079608
-0.558904 2.771888 -0.092410
-0.583184 2.781018 -0.085555
-0.560922 2.771597 -0.099297
-0.585224 2.780827 -0.092700
-0.563114 2.771852 -0.107127
-0.587465 2.781146 -0.100796
-0.565400 2.772604 -0.115677
-0.589825 2.781912 -0.109585
-0.567707 2.773797 -0.124707
-0.592222 2.783076 -0.118799
-0.569954 2.775409 -0.133991
-0.594575 2.784550 -0.128135
-0.619335 2.792898 -0.122438
-0.596798 2.786308 -0.137295
-0.621605 2.794586 -0.131672
-0.646445 2.802152 -0.125972
-0.623640 2.796452 -0.140233
-0.648534 2.804080 -0.134711
-0.625340 2.798467 -0.147735
-0.650294 2.806192 -0.142379
-0.626637 2.800648 -0.153871
-0.651636 2.808466 -0.148621
-0.627475 2.803014 -0.158348
-0.652507 2.810914 -0.153176
-0.627830 2.805582 -0.160980
-0.652884 2.813543 -0.155869
-0.627705 2.808316 -0.161675
-0.652769 2.816306 -0.156606
-0.627124 2.811118 -0.160457
-0.652183 2.819101 -0.155396
-0.626104 2.813807 -0.157352
-0.651150 2.821763 -0.152317
-0.624681 2.816188 -0.152522
-0.649695 2.824090 -0.147459
-0.622898 2.818073 -0.146148
-0.647864 2.825906 -0.141008
-0.620822 2.819334 -0.138498
-0.645727 2.827103 -0.133229
-0.618535 2.819913 -0.129897
-0.643376 2.827635 -0.124448
-0.616130 2.819803 -0.120693
-0.640910 2.827499 -0.115018
-0.613702 2.819021 -0.111237
-0.638431 2.826706 -0.105302
-0.611343 2.817588 -0.101866
-0.636037 2.825265 -0.095657
-0.609140 2.815529 -0.092910
-0.633818 2.823194 -0.086427
-0.607179 2.812891 -0.084683
-0.631855 2.820526 -0.077949
-0.605535 2.809762 -0.077491
-0.630221 2.817353 -0.070544
-0.604274 2.806286 -0.071615
-0.628974 2.813826 -0.064502
-0.603443 2.802669 -0.067294
-0.628156 2.810160 -0.060061
-0.603066 2.799145 -0.064703
-0.627788 2.806593 -0.057387
-0.603150 2.795947 -0.063944
-0.627874 2.803358 -0.056570
-0.603686 2.793272 -0.065045
-0.628405 2.800654 -0.057637
-0.604658 2.791247 -0.067964
-0.629369 2.798616 -0.060559
-0.606040 2.789916 -0.072583
-0.630740 2.797299 -0.065241
-0.607787 2.789239 -0.078711
-0.632478 2.796665 -0.071508
-0.609831 2.789133 -0.086095
-0.634520 2.796612 -0.079107
-0.612093 2.789504 -0.094453
-0.636788 2.797027 -0.087730
-0.614487 2.790281 -0.103491
-0.639201 2.797832 -0.097051
-0.616928 2.791456 -0.112929
-0.641674 2.798974 -0.106759
-0.666335 2.805925 -0.100189
-0.644124 2.800444 -0.116528
-0.668836 2.807425 -0.110308
-0.693350 2.814191 -0.103811
-0.671233 2.809212 -0.120097
-0.695864 2.816062 -0.114084
-0.673405 2.811248 -0.129131
-0.698181 2.818222 -0.123594
-0.675253 2.813498 -0.137044
-0.700166 2.820607 -0.131885
-0.676677 2.815923 -0.143477
-0.701704 2.823168 -0.138593
-0.677611 2.818508 -0.148170
-0.702722 2.825872 -0.143463
-0.678030 2.821232 -0.150952
-0.703187 2.828682 -0.146343
-0.677931 2.824038 -0.151743
-0.703098 2.831532 -0.147160
-0.677343 2.826833 -0.150566
-0.702475 2.834318 -0.145924
-0.676260 2.829414 -0.147405
-0.701347 2.836897 -0.142699
-0.674738 2.831638 -0.142431
-0.699736 2.839074 -0.137554
-0.672822 2.833337 -0.135807
-0.697702 2.840703 -0.130662
-0.670590 2.834421 -0.127795
-0.695335 2.841709 -0.122294
-0.668144 2.834858 -0.118730
-0.692753 2.842071 -0.112808
-0.665596 2.834652 -0.108986
-0.690089 2.841798 -0.102617
-0.663060 2.833812 -0.098952
-0.687468 2.840901 -0.092156
-0.660639 2.832342 -0.089011
-0.685007 2.839383 -0.081850
-0.658425 2.830250 -0.079530
-0.682800 2.837250 -0.072097
-0.656493 2.827573 -0.070859
-0.680919 2.834539 -0.063260
-0.654903 2.824398 -0.063318
-0.679410 2.831342 -0.055650
-0.653701 2.820880 -0.057187
-0.678299 2.827815 -0.049519
-0.652918 2.817224 -0.052687
-0.677596 2.824161 -0.045050
-0.652570 2.813663 -0.049967
-0.677304 2.820601 -0.042354
-0.652660 2.810421 -0.049106
-0.677418 2.817349 -0.041488
-0.653184 2.807689 -0.050130
-0.677931 2.814586 -0.042467
-0.654128 2.805609 -0.053018
-0.678831 2.812452 -0.045277
-0.655471 2.804246 -0.057696
-0.680105 2.811023 -0.049870
-0.657176 2.803577 -0.064014
-0.681727 2.810296 -0.056142
-0.659184 2.803507 -0.071737
-0.683657 2.810192 -0.063907
-0.661427 2.803921 -0.080564
-0.685846 2.810604 -0.072893
-0.663834 2.804753 -0.090142
-0.688239 2.811430 -0.082790
-0.712302 2.818117 -0.075033
-0.690772 2.812644 -0.093224
-0.714893 2.819361 -0.085913
-0.738815 2.826082 -0.078229
-0.717580 2.820957 -0.097035
-0.741641 2.827741 -0.089924
-0.720245 2.822873 -0.107854
-0.744466 2.829725 -0.101425
-0.722718 2.825091 -0.117881
-0.747121 2.831965 -0.112071
-0.724851 2.827536 -0.126595
-0.749427 2.834400 -0.121271
-0.726514 2.830149 -0.133595
-0.751227 2.836983 -0.128586
-0.727619 2.832891 -0.138636
-0.752425 2.839691 -0.133793
-0.728134 2.835731 -0.141595
-0.752991 2.842516 -0.136816
-0.728059 2.838609 -0.142433
-0.752930 2.845413 -0.137642
-0.727416 2.841430 -0.141195
-0.752258 2.848269 -0.136267
-0.726225 2.844017 -0.137793
-0.751025 2.850975 -0.132808
-0.724520 2.846203 -0.132422
-0.749231 2.853271 -0.127218
-0.722362 2.847831 -0.125210
-0.746946 2.854994 -0.119654
-0.719855 2.848818 -0.116428
-0.744286 2.856039 -0.110397
-0.717133 2.849144 -0.106465
-0.741404 2.856375 -0.099881
-0.714345 2.848823 -0.095790
-0.738464 2.856017 -0.088638
-0.711629 2.847872 -0.084889
-0.735619 2.854990 -0.077226
-0.709110 2.846301 -0.074231
-0.733002 2.853311 -0.066162
-0.706891 2.844118 -0.064243
-0.730720 2.850999 -0.055902
-0.705042 2.841364 -0.055293
-0.728847 2.848106 -0.046813
-0.703601 2.838134 -0.047674
-0.727410 2.844746 -0.039161
-0.702575 2.834589 -0.041600
-0.726405 2.841093 -0.033114
-0.701953 2.830928 -0.037207
-0.725808 2.837356 -0.028769
-0.701721 2.827367 -0.034572
-0.725593 2.833752 -0.026172
-0.701864 2.824112 -0.033726
-0.725740 2.830481 -0.025345
-0.702368 2.821338 -0.034675
-0.726232 2.827711 -0.026288
-0.703223 2.819179 -0.037404
-0.727058 2.825574 -0.028981
-0.704417 2.817714 -0.041883
-0.728212 2.824142 -0.033399
-0.705941 2.816952 -0.048051
-0.729697 2.823423 -0.039506
-0.707785 2.816824 -0.055796
-0.731517 2.823357 -0.047237
-0.709910 2.817260 -0.064847
-0.733685 2.823825 -0.056472
-0.757644 2.830161 -0.047791
-0.736114 2.824778 -0.066900
-0.760203 2.831221 -0.058510
-0.785197 2.837444 -0.049973
-0.763013 2.832657 -0.070215
-0.788117 2.839051 -0.062079
-0.765987 2.834416 -0.082405
-0.791156 2.840974 -0.074722
-0.768953 2.836458 -0.094440
-0.794240 2.843129 -0.087261
-0.771759 2.838724 -0.105618
-0.797187 2.845463 -0.098945
-0.774216 2.841157 -0.115273
-0.799788 2.847937 -0.109056
-0.776148 2.843725 -0.122924
-0.801848 2.850541 -0.117076
-0.777446 2.846424 -0.128341
-0.803242 2.853280 -0.122756
-0.778075 2.849255 -0.131469
-0.803929 2.856155 -0.126033
-0.778042 2.852180 -0.132316
-0.803920 2.859120 -0.126914
-0.777361 2.855094 -0.130911
-0.803236 2.862058 -0.125391
-0.776078 2.857828 -0.127241
-0.801893 2.864811 -0.121577
-0.774204 2.860171 -0.121379
-0.799938 2.867158 -0.115434
-0.771817 2.861934 -0.113450
-0.797451 2.868908 -0.107135
-0.769042 2.862987 -0.103751
-0.794564 2.869921 -0.097001
-0.766044 2.863284 -0.092756
-0.791451 2.870133 -0.085533
-0.762988 2.862837 -0.081045
-0.788282 2.869551 -0.073339
-0.760028 2.861680 -0.069213
-0.785212 2.868214 -0.061045
-0.757298 2.859843 -0.057804
-0.782375 2.866172 -0.049227
-0.754910 2.857363 -0.047285
-0.779886 2.863489 -0.038368
-0.752942 2.854313 -0.038020
-0.777828 2.860261 -0.028837
-0.751429 2.850821 -0.030258
-0.776242 2.856625 -0.020881
-0.750367 2.847068 -0.024148
-0.775128 2.852769 -0.014638
-0.749731 2.843264 -0.019767
-0.774457 2.848901 -0.010175
-0.749488 2.839627 -0.017153
-0.774188 2.845233 -0.007518
-0.749611 2.836353 -0.016323
-0.774289 2.841960 -0.006677
-0.750080 2.833612 -0.017274
-0.774738 2.839247 -0.007644
-0.750887 2.831528 -0.019988
-0.775532 2.837212 -0.010404
-0.752037 2.830167 -0.024441
-0.776685 2.835920 -0.014939
-0.753560 2.829531 -0.030613
-0.778225 2.835370 -0.021231
-0.755393 2.829567 -0.038401
-0.780197 2.835505 -0.029272
-0.805915 2.841291 -0.019492
-0.782514 2.836231 -0.038907
-0.808368 2.842162 -0.029604
-0.834892 2.848024 -0.019579
-0.811196 2.843552 -0.041246
-0.837935 2.849631 -0.032153
-0.814296 2.845344 -0.054008
-0.841278 2.851615 -0.045955
-0.817528 2.847425 -0.067301
-0.844790 2.853840 -0.060337
-0.820775 2.849713 -0.080454
-0.848298 2.856217 -0.074508
-0.823867 2.852156 -0.092706
-0.851604 2.858716 -0.087636
-0.826594 2.854732 -0.103330
-0.854485 2.861353 -0.098956
-0.828755 2.857442 -0.111779
-0.856737 2.864148 -0.107915
-0.830217 2.860284 -0.117772
-0.858240 2.867089 -0.114235
-0.830939 2.863240 -0.121225
-0.858969 2.870126 -0.117844
-0.830931 2.866243 -0.122140
-0.858947 2.873169 -0.118751
-0.830220 2.869179 -0.120540
-0.858204 2.876091 -0.116978
-0.828829 2.871870 -0.116444
-0.856753 2.878751 -0.112582
-0.826799 2.874134 -0.109931
-0.854639 2.880969 -0.105611
-0.824218 2.875788 -0.101176
-0.851938 2.882586 -0.096248
-0.821225 2.876694 -0.090523
-0.848788 2.883464 -0.084844
-0.817994 2.876784 -0.078494
-0.845367 2.883506 -0.071947
-0.814695 2.876054 -0.065713
-0.841859 2.882684 -0.058228
-0.811488 2.874542 -0.052830
-0.838438 2.881024 -0.044397
-0.808511 2.872311 -0.040448
-0.835264 2.878597 -0.031126
-0.805892 2.869449 -0.029084
-0.832479 2.875515 -0.018996
-0.803724 2.866066 -0.019138
-0.830193 2.871918 -0.008448
-0.802056 2.862311 -0.010870
-0.828456 2.867980 0.000243
-0.800890 2.858368 -0.004418
-0.827255 2.863898 0.006964
-0.800185 2.854445 0.000172
-0.826539 2.859876 0.011705
-0.799895 2.850749 0.002893
-0.826244 2.856119 0.014497
-0.799979 2.847469 0.003755
-0.826323 2.852809 0.015379
-0.800412 2.844768 0.002774
-0.826746 2.850103 0.014382
-0.801193 2.842766 -0.000039
-0.827510 2.848122 0.011514
-0.802353 2.841529 -0.004685
-0.828647 2.846937 0.006759
-0.803896 2.841047 -0.011150
-0.830238 2.846568 -0.000002
-0.857113 2.851428 0.011946
-0.832290 2.846952 -0.008756
-0.859280 2.852123 0.002590
-0.886942 2.856238 0.013543
-0.862056 2.853562 -0.009111
-0.889941 2.858389 0.001019
-0.865387 2.855528 -0.022937
-0.893542 2.860984 -0.013946
-0.869081 2.857782 -0.038187
-0.897606 2.863667 -0.030786
-0.872948 2.860143 -0.054055
-0.901863 2.866204 -0.048412
-0.876764 2.862535 -0.069581
-0.906026 2.868554 -0.065576
-0.880294 2.864983 -0.083802
-0.909804 2.870842 -0.081093
-0.883306 2.867573 -0.095914
-0.912946 2.873281 -0.094078
-0.885613 2.870370 -0.105394
-0.915295 2.876021 -0.104068
-0.887129 2.873359 -0.112015
-0.916806 2.879034 -0.110934
-0.887848 2.876454 -0.115738
-0.917502 2.882185 -0.114704
-0.887801 2.879530 -0.116591
-0.917421 2.885307 -0.115439
-0.887022 2.882460 -0.114620
-0.916592 2.888255 -0.113172
-0.885514 2.885106 -0.109827
-0.915033 2.890943 -0.107969
-0.883319 2.887342 -0.102307
-0.912754 2.893272 -0.099831
-0.880497 2.889023 -0.092205
-0.909794 2.895128 -0.088873
-0.877172 2.889989 -0.079858
-0.906258 2.896310 -0.075380
-0.873525 2.890087 -0.065830
-0.902324 2.896553 -0.059941
-0.869756 2.889229 -0.050862
-0.898221 2.895663 -0.043420
-0.866064 2.887411 -0.035774
-0.894193 2.893591 -0.026815
-0.862639 2.884712 -0.021351
-0.890464 2.890421 -0.011080
-0.859647 2.881280 -0.008259
-0.887230 2.886360 0.003013
-0.857209 2.877315 0.003019
-0.884615 2.881707 0.014959
-0.855372 2.873045 0.012217
-0.882656 2.876800 0.024543
-0.854113 2.868705 0.019255
-0.881314 2.871955 0.031774
-0.853364 2.864503 0.024172
-0.880508 2.867407 0.036764
-0.853055 2.860636 0.027041
-0.880170 2.863334 0.039621
-0.853131 2.857279 0.027932
-0.880249 2.859888 0.040432
-0.853562 2.854578 0.026890
-0.880718 2.857207 0.039247
-0.854348 2.852654 0.023902
-0.881574 2.855414 0.036074
-0.855494 2.851601 0.019023
-0.882852 2.854626 0.030816
-0.910480 2.856130 0.041787
-0.884598 2.854912 0.023442
-0.912514 2.857077 0.033808
-0.940257 2.859285 0.044091
-0.915172 2.859317 0.023292
-0.943275 2.862274 0.032818
-0.918494 2.862489 0.009969
-0.946992 2.866348 0.018589
-0.922444 2.865986 -0.006147
-0.951335 2.870743 0.001293
-0.926868 2.869273 -0.024482
-0.956127 2.874707 -0.018542
-0.931482 2.872050 -0.043817
-0.961065 2.877768 -0.039618
-0.935947 2.874310 -0.062597
-0.965753 2.879864 -0.060051
-0.939919 2.876310 -0.079363
-0.969786 2.881355 -0.078008
-0.943141 2.878459 -0.093139
-0.972932 2.882945 -0.092403
-0.945497 2.881034 -0.103543
-0.975173 2.885142 -0.103027
-0.946980 2.884012 -0.110553
-0.976562 2.887972 -0.110022
-0.947639 2.887200 -0.114280
-0.977174 2.891154 -0.113623
-0.947521 2.890373 -0.114827
-0.977048 2.894387 -0.113953
-0.946665 2.893381 -0.112251
-0.976201 2.897507 -0.111066
-0.945050 2.896154 -0.106555
-0.974649 2.900511 -0.104982
-0.942701 2.898660 -0.097750
-0.972356 2.903419 -0.095619
-0.939625 2.900790 -0.085880
-0.969293 2.906082 -0.082929
-0.935897 2.902275 -0.071184
-0.965490 2.908071 -0.067063
-0.931686 2.902689 -0.054268
-0.961072 2.908727 -0.048631
-0.927247 2.901712 -0.036144
-0.956321 2.907597 -0.028847
-0.922866 2.899239 -0.018023
-0.951588 2.904583 -0.009207
-0.918810 2.895369 -0.001043
-0.947188 2.899868 0.008961
-0.915293 2.890404 0.013941
-0.943359 2.893921 0.024771
-0.912438 2.884790 0.026453
-0.940226 2.887384 0.037828
-0.910273 2.879027 0.036378
-0.937823 2.880912 0.048100
-0.908762 2.873545 0.043805
-0.936132 2.874988 0.055721
-0.907833 2.868587 0.048882
-0.935083 2.869808 0.060858
-0.907425 2.864293 0.051723
-0.934612 2.865435 0.063656
-0.907494 2.860770 0.052409
-0.934667 2.861918 0.064211
-0.908018 2.858137 0.050982
-0.935220 2.859354 0.062588
-0.909000 2.856521 0.047475
-0.936293 2.857934 0.058741
-0.962713 2.860383 0.069393
-0.937951 2.857814 0.052665
-0.964495 2.860399 0.062973
-0.991281 2.862465 0.072117
-0.967005 2.862038 0.053965
-0.994037 2.864276 0.062538
-0.970345 2.865347 0.041987
-0.997598 2.867813 0.050027
-0.974414 2.869925 0.026881
-1.001928 2.872807 0.034137
-0.979078 2.874976 0.008521
-1.006777 2.878461 0.014840
-0.984076 2.879604 -0.012601
-1.011765 2.883781 -0.007404
-0.989031 2.883065 -0.035187
-1.016423 2.887751 -0.031360
-0.993500 2.885052 -0.057101
-1.020283 2.889699 -0.054720
-0.997118 2.885937 -0.076106
-1.023094 2.889983 -0.074812
-0.999807 2.886874 -0.091011
-1.025035 2.890345 -0.090292
-1.001698 2.888702 -0.101814
-1.026403 2.891909 -0.101356
-1.002889 2.891435 -0.108826
-1.027322 2.894617 -0.108452
-1.003436 2.894650 -0.112330
-1.027785 2.897924 -0.111873
-1.003349 2.897959 -0.112473
-1.027734 2.901368 -0.111793
-1.002631 2.901194 -0.109314
-1.027156 2.904777 -0.108273
-1.001285 2.904417 -0.102830
-1.026081 2.908260 -0.101272
-0.999291 2.907772 -0.092933
-1.024513 2.912044 -0.090694
-0.996570 2.911083 -0.079480
-1.022341 2.915944 -0.076344
-0.993082 2.913660 -0.062528
-1.019429 2.919028 -0.058213
-0.988857 2.914495 -0.042711
-1.015684 2.919918 -0.037003
-0.984124 2.913052 -0.021480
-1.011253 2.918025 -0.014448
-0.979259 2.909379 -0.000597
-1.006495 2.913643 0.007493
-0.974645 2.903877 0.018489
-1.001847 2.907418 0.027349
-0.970568 2.897228 0.034937
-0.997644 2.900187 0.044358
-0.967186 2.890199 0.048434
-0.994089 2.892754 0.058279
-0.964562 2.883450 0.059000
-0.991279 2.885740 0.069155
-0.962699 2.877389 0.066785
-0.989248 2.879496 0.077142
-0.961528 2.872151 0.071977
-0.987949 2.874120 0.082432
-0.960987 2.867763 0.074738
-0.987336 2.869638 0.085182
-0.961021 2.864272 0.075159
-0.987355 2.866098 0.085503
-0.961567 2.861741 0.073471
-0.988033 2.863603 0.083370
-1.015121 2.863766 0.092776
-0.989277 2.862324 0.079049
-1.016643 2.862580 0.087839
-1.044487 2.860855 0.096999
-1.018969 2.862949 0.080261
-1.047245 2.861468 0.088640
-1.022167 2.865112 0.069833
-1.051033 2.864112 0.077325
-1.026227 2.869149 0.056330
-1.055929 2.868923 0.062676
-1.031027 2.874746 0.039465
-1.061709 2.875500 0.044640
-1.036199 2.881133 0.019185
-1.067821 2.883005 0.023159
-1.041180 2.887251 -0.004128
-1.073274 2.890206 -0.001396
-1.045354 2.891796 -0.029330
-1.077109 2.895477 -0.027744
-1.048227 2.893616 -0.053977
-1.078722 2.897452 -0.053742
-1.049788 2.893067 -0.075091
-1.078539 2.895992 -0.076649
-1.050588 2.892696 -0.091389
-1.077926 2.894739 -0.094569
-1.051181 2.894017 -0.103042
-1.077707 2.896046 -0.107280
-1.051730 2.896855 -0.110404
-1.077971 2.899334 -0.115016
-1.052074 2.900400 -0.113788
-1.078271 2.903291 -0.118328
-1.052062 2.904063 -0.113419
-1.078208 2.907187 -0.117661
-1.051657 2.907667 -0.109381
-1.077779 2.910862 -0.113099
-1.050959 2.911411 -0.101607
-1.077353 2.914597 -0.104401
-1.050047 2.915661 -0.089972
-1.077236 2.919049 -0.091228
-1.048720 2.920242 -0.074413
-1.077075 2.924271 -0.073779
-1.046680 2.923876 -0.054981
-1.076171 2.928384 -0.052599
-1.043646 2.924784 -0.032420
-1.074008 2.929182 -0.028612
-1.039659 2.922346 -0.008655
-1.070443 2.926121 -0.003617
-1.035073 2.917175 0.014237
-1.065766 2.920093 0.020446
-1.030362 2.910166 0.034834
-1.060563 2.912127 0.042114
-1.025928 2.902272 0.052473
-1.055457 2.903309 0.060688
-1.022056 2.894300 0.066951
-1.050922 2.894522 0.075925
-1.018920 2.886847 0.078303
-1.047229 2.886422 0.087879
-1.016595 2.880242 0.086656
-1.044476 2.879328 0.096675
-1.015085 2.874584 0.092160
-1.042678 2.873315 0.102440
-1.014366 2.869899 0.094932
-1.041792 2.868380 0.105296
-1.014335 2.866280 0.095199
-1.041819 2.864551 0.105272
-1.069645 2.860409 0.115175
-1.042686 2.861992 0.102554
-1.070607 2.857681 0.111989
-1.099485 2.849604 0.117173
-1.072646 2.856604 0.105779
-1.101729 2.849469 0.109640
-1.075827 2.857671 0.096469
-1.104378 2.853112 0.098435
-1.080329 2.861151 0.083942
-1.107584 2.858899 0.084486
-1.086407 2.867191 0.067786
-1.112821 2.865980 0.067923
-1.093803 2.874988 0.048605
-1.120007 2.874105 0.048826
-1.101666 2.883660 0.026377
-1.126749 2.882797 0.027031
-1.107900 2.891804 0.001578
-1.132650 2.891024 0.003409
-1.111421 2.898332 -0.024541
-1.137485 2.898504 -0.021166
-1.112558 2.902191 -0.051177
-1.140133 2.904228 -0.046083
-1.110124 2.901148 -0.077024
-1.139344 2.905638 -0.070842
-1.108060 2.899110 -0.097180
-1.138604 2.903012 -0.093802
-1.107639 2.900100 -0.110672
-1.137225 2.902635 -0.108992
-1.108050 2.903436 -0.118527
-1.137179 2.905837 -0.117615
-1.108428 2.907546 -0.121718
-1.137458 2.910219 -0.121143
-1.108324 2.911483 -0.120790
-1.137388 2.914406 -0.120260
-1.107742 2.915109 -0.115892
-1.136945 2.918243 -0.115050
-1.107118 2.918933 -0.106633
-1.136782 2.922435 -0.104979
-1.107163 2.923751 -0.092365
-1.137897 2.927922 -0.089216
-1.108035 2.929263 -0.072875
-1.140386 2.933277 -0.068021
-1.108588 2.932831 -0.049394
-1.142444 2.935114 -0.043576
-1.107455 2.932447 -0.024154
-1.141353 2.932541 -0.018684
-1.104279 2.928565 0.001474
-1.138432 2.927345 0.006264
-1.099181 2.921670 0.026411
-1.134383 2.920180 0.031026
-1.092984 2.912527 0.048987
-1.127436 2.910494 0.054002
-1.086634 2.902541 0.068439
-1.119350 2.899312 0.073757
-1.080924 2.892717 0.084455
-1.111960 2.888186 0.089928
-1.076304 2.883794 0.097099
-1.106075 2.877953 0.103033
-1.072931 2.876105 0.106411
-1.102048 2.869233 0.112761
-1.070765 2.869678 0.112438
-1.099609 2.862209 0.118927
-1.069685 2.864467 0.115379
-1.098451 2.856620 0.121659
-1.128200 2.847843 0.121500
-1.098413 2.852337 0.121078
-1.128234 2.843875 0.120748
-1.128425 2.842135 0.116564
-1.133177 2.847095 0.112541
-1.133385 2.846387 0.110974
-1.133317 2.848731 0.112519
-1.133933 2.852741 0.110985
-1.135943 2.859572 0.106214
-1.128544 2.853709 0.118608
-1.129384 2.861787 0.111968
-1.132084 2.871766 0.102105
-1.138749 2.882513 0.089648
-1.139714 2.868916 0.097945
-1.146286 2.879138 0.085997
-1.154279 2.890107 0.070625
-1.161436 2.901193 0.052064
-1.148338 2.893809 0.074300
-1.155168 2.905148 0.054653
-1.157852 2.914882 0.031894
-1.159837 2.922367 0.007979
-1.164888 2.911189 0.030810
-1.167600 2.918700 0.007840
-1.171430 2.923650 -0.015635
-1.170755 2.926944 -0.038346
-1.164719 2.927783 -0.015697
-1.164507 2.930781 -0.039367
-1.162785 2.930401 -0.061817
-1.163477 2.926350 -0.081490
-1.169077 2.926854 -0.059674
-1.168492 2.922695 -0.078337
-1.168497 2.916609 -0.092058
-1.168456 2.913286 -0.098462
-1.165708 2.921177 -0.096757
-1.167784 2.916865 -0.106753
-1.169004 2.912828 -0.111871
-1.169279 2.908777 -0.112598
-1.168544 2.912473 -0.099781
-1.168600 2.912206 -0.099533
-1.168791 2.910582 -0.097656
-1.168888 2.908259 -0.091079
-1.168672 2.905025 -0.108880
-1.167077 2.902831 -0.099974
-1.162075 2.904555 -0.084791
-1.157132 2.906038 -0.064584
-1.166604 2.907082 -0.078680
-1.163247 2.906163 -0.060841
-1.161561 2.902396 -0.039864
-1.159903 2.895700 -0.017544
-1.155409 2.903310 -0.042030
-1.153359 2.896928 -0.018751
-1.148397 2.889237 0.004630
-1.143302 2.881045 0.027458
-1.155297 2.887960 0.005173
-1.150835 2.879806 0.027606
-1.146416 2.871165 0.048883
-1.141398 2.862967 0.067797
-1.137884 2.872328 0.048856
-1.131962 2.864017 0.067800
-1.127910 2.856456 0.084210
-1.127009 2.849447 0.098158
-1.137328 2.855821 0.083918
-1.135638 2.850014 0.097187
-1.134307 2.846916 0.106232
-1.128035 2.843860 0.109079
-0.325643 2.636186 -0.230822
-0.325932 2.634235 -0.226950
-0.325263 2.641459 -0.224608
-0.325630 2.638731 -0.221390
-0.324844 2.645998 -0.218307
-0.325227 2.643312 -0.215688
-0.324397 2.649689 -0.211902
-0.324703 2.647690 -0.209874
-0.323937 2.652518 -0.206050
-0.324170 2.651043 -0.204568
-0.323442 2.654821 -0.200797
-0.323633 2.653658 -0.199827
-0.323110 2.656025 -0.197452
-0.323231 2.655281 -0.196782
-0.322773 2.657129 -0.194807
-0.322859 2.656609 -0.194354
-0.322939 2.656090 -0.193838
-0.322977 2.655710 -0.193103
-0.323308 2.654691 -0.195870
-0.323337 2.654274 -0.194738
-0.323763 2.652719 -0.198488
-0.323824 2.652045 -0.196831
-0.324331 2.649863 -0.202538
-0.324466 2.648658 -0.200060
-0.324943 2.645952 -0.207102
-0.325043 2.644966 -0.203670
-0.325438 2.641831 -0.212051
-0.325629 2.640111 -0.207637
-0.325904 2.636661 -0.216972
-0.326048 2.635596 -0.211517
-0.326212 2.632514 -0.221690
-0.326470 2.631012 -0.215265
-0.326657 2.630005 -0.207935
-0.326725 2.629368 -0.200040
-0.326082 2.634975 -0.205297
-0.326029 2.633934 -0.198637
-0.325660 2.639304 -0.202562
-0.325560 2.638781 -0.197082
-0.325116 2.643795 -0.199776
-0.325004 2.643549 -0.195516
-0.324488 2.647944 -0.197207
-0.324415 2.647594 -0.194101
-0.323814 2.651653 -0.194921
-0.323807 2.651113 -0.192855
-0.323369 2.653773 -0.193453
-0.323368 2.653366 -0.192050
-0.323011 2.655319 -0.192329
-0.322998 2.655110 -0.191427
-0.322966 2.654971 -0.190506
-0.322882 2.655073 -0.189573
-0.323309 2.653194 -0.190583
-0.323185 2.653316 -0.189105
-0.323728 2.650835 -0.190694
-0.323546 2.651022 -0.188515
-0.324300 2.647193 -0.190890
-0.324033 2.647482 -0.187660
-0.324850 2.642985 -0.191136
-0.324489 2.643385 -0.186734
-0.325344 2.638214 -0.191442
-0.324896 2.638605 -0.185804
-0.325775 2.633417 -0.191758
-0.325254 2.633793 -0.184912
-0.326571 2.629259 -0.191920
-0.326084 2.629685 -0.183914
-0.325203 2.630439 -0.176334
-0.323963 2.631261 -0.169450
-0.324481 2.634581 -0.178390
-0.323514 2.635233 -0.172460
-0.324304 2.639037 -0.180440
-0.323552 2.639784 -0.175527
-0.324067 2.643587 -0.182548
-0.323485 2.644500 -0.178682
-0.323717 2.647779 -0.184573
-0.323325 2.648384 -0.181728
-0.323294 2.651484 -0.186414
-0.323051 2.651846 -0.184487
-0.323008 2.653668 -0.187675
-0.322807 2.654127 -0.186360
-0.322779 2.655242 -0.188646
-0.322641 2.655609 -0.187836
-0.322503 2.655954 -0.187054
-0.322347 2.656461 -0.186497
-0.322621 2.654526 -0.185204
-0.322412 2.655092 -0.184258
-0.322762 2.652455 -0.182793
-0.322433 2.653341 -0.181395
-0.322844 2.649446 -0.179225
-0.322356 2.650612 -0.177170
-0.322851 2.645536 -0.175308
-0.322152 2.647068 -0.172525
-0.322669 2.641127 -0.171218
-0.321755 2.642731 -0.167682
-0.322387 2.636301 -0.167285
-0.321197 2.638026 -0.163020
-0.322471 2.632379 -0.163459
-0.320913 2.633873 -0.158548
-0.319493 2.635820 -0.154871
-0.318337 2.638612 -0.152527
-0.320043 2.640487 -0.159807
-0.319058 2.643400 -0.157768
-0.320821 2.645082 -0.165010
-0.319994 2.647700 -0.163320
-0.321445 2.648993 -0.170434
-0.320786 2.651179 -0.169112
-0.321855 2.652050 -0.175627
-0.321357 2.653780 -0.174650
-0.322080 2.654461 -0.180347
-0.321731 2.655728 -0.179689
-0.322186 2.655817 -0.183538
-0.321960 2.656648 -0.183093
-0.322193 2.656960 -0.185983
-0.322053 2.657509 -0.185763
-0.321931 2.657986 -0.185596
-0.321901 2.658187 -0.185748
-0.321764 2.657456 -0.182919
-0.321719 2.657733 -0.183059
-0.321435 2.656949 -0.179446
-0.321374 2.657347 -0.179644
-0.320929 2.655543 -0.174279
-0.320837 2.656206 -0.174562
-0.320227 2.653517 -0.168606
-0.320104 2.654533 -0.168980
-0.319312 2.650641 -0.162659
-0.319171 2.652085 -0.163122
-0.318290 2.646878 -0.156961
-0.318146 2.648851 -0.157501
-0.317552 2.642070 -0.151605
-0.317352 2.645017 -0.152189
-0.317550 2.648304 -0.154208
-0.318005 2.651969 -0.157591
-0.318289 2.651125 -0.159275
-0.318689 2.653470 -0.162232
-0.319245 2.653678 -0.164611
-0.319538 2.655181 -0.167086
-0.320141 2.655551 -0.170167
-0.320298 2.656630 -0.172122
-0.320863 2.656780 -0.175450
-0.320938 2.657496 -0.176903
-0.321396 2.657624 -0.180256
-0.321454 2.657939 -0.181255
-0.321719 2.657939 -0.183471
-0.321741 2.658175 -0.184157
-0.321893 2.658312 -0.185956
-0.321920 2.658398 -0.186449
-0.321956 2.658459 -0.186991
-0.322010 2.658512 -0.187749
-0.321772 2.658458 -0.185070
-0.321812 2.658766 -0.186195
-0.321534 2.658312 -0.182602
-0.321623 2.658727 -0.184248
-0.321058 2.658264 -0.178872
-0.321272 2.658746 -0.181298
-0.320546 2.657682 -0.174780
-0.320787 2.658891 -0.178044
-0.319858 2.657078 -0.170445
-0.320328 2.658466 -0.174606
-0.319222 2.655877 -0.166274
-0.319771 2.658271 -0.171271
-0.318678 2.655364 -0.162253
-0.319469 2.658173 -0.168052
-0.320257 2.660278 -0.174799
-0.320990 2.661481 -0.182274
-0.320303 2.660316 -0.177066
-0.320969 2.661095 -0.183485
-0.320750 2.659842 -0.179408
-0.321173 2.660760 -0.184697
-0.321153 2.659506 -0.181820
-0.321398 2.660382 -0.185946
-0.321473 2.659280 -0.184082
-0.321666 2.659743 -0.187125
-0.321712 2.659165 -0.186131
-0.321894 2.659176 -0.188194
-0.321914 2.658834 -0.187484
-0.322040 2.658794 -0.188891
-0.322076 2.658514 -0.188546
-0.322148 2.658504 -0.189434
-0.322214 2.658512 -0.190365
-0.322274 2.658529 -0.191293
-0.322152 2.658783 -0.190357
-0.322240 2.658833 -0.191823
-0.322071 2.659132 -0.190346
-0.322192 2.659229 -0.192499
-0.321944 2.659668 -0.190326
-0.322112 2.659845 -0.193539
-0.321802 2.660252 -0.190308
-0.322012 2.660544 -0.194691
-0.321669 2.660784 -0.190291
-0.321979 2.660949 -0.195945
-0.321553 2.661295 -0.190274
-0.321959 2.661296 -0.197165
-0.321590 2.661914 -0.190211
-0.322057 2.661631 -0.198309
-0.322448 2.660584 -0.206244
-0.322831 2.658706 -0.213682
-0.322274 2.660845 -0.203889
-0.322755 2.658906 -0.210210
-0.322356 2.660203 -0.201472
-0.322738 2.658878 -0.206637
-0.322384 2.659732 -0.198979
-0.322580 2.659350 -0.202943
-0.322355 2.659464 -0.196665
-0.322568 2.658993 -0.199565
-0.322293 2.659303 -0.194572
-0.322473 2.658906 -0.196506
-0.322308 2.658914 -0.193233
-0.322382 2.658900 -0.194539
-0.322323 2.658562 -0.192177
-0.322367 2.658583 -0.192988
-0.322414 2.658551 -0.193699
-0.322453 2.658512 -0.194283
-0.322499 2.658621 -0.195695
-0.322598 2.658356 -0.196647
-0.322621 2.658529 -0.198205
-0.322737 2.658207 -0.199601
-0.322709 2.658658 -0.202116
-0.322902 2.657931 -0.204235
-0.322894 2.658120 -0.206475
-0.323089 2.657234 -0.209381
-0.322971 2.657837 -0.211194
-0.323332 2.655843 -0.215006
-0.323203 2.656487 -0.215832
-0.323526 2.654312 -0.220486
-0.323218 2.656168 -0.220302
-0.323658 2.652873 -0.225831
-0.324128 2.649063 -0.230034
-0.323811 2.652162 -0.223988
-0.323522 2.654596 -0.217843
-0.323281 2.656233 -0.211565
-0.323063 2.657239 -0.205822
-0.322822 2.657944 -0.200640
-0.322673 2.658138 -0.197355
-0.322488 2.658455 -0.194716
3 1 0 3
3 1 3 4
3 2 0 1
3 1 1375 1353
3 1353 1352 1351
3 1351 1350 1321
3 1353 1351 1321
3 2 1 1353
3 1159 1158 2
3 1161 1160 1159
3 1191 1190 1161
3 1193 1192 1191
3 1223 1222 1193
3 1225 1224 1223
3 1255 1254 1225
3 1257 1256 1255
3 1287 1286 1257
3 1289 1288 1287
3 1319 1318 1289
3 1353 1321 1320
3 1319 1289 1287
3 1353 1320 1319
3 1159 2 1353
3 1191 1161 1159
3 1223 1193 1191
3 1255 1225 1223
3 1287 1257 1255
3 1353 1319 1287
3 1191 1159 1353
3 1255 1223 1191
3 1353 1287 1255
3 1353 1255 1191
3 0 2 5
3 0 5 3
3 4 3 6
3 4 6 7
3 3 5 8
3 3 8 6
3 7 6 9
3 7 9 10
3 6 8 11
3 6 11 9
3 10 9 12
3 10 12 13
3 9 11 14
3 9 14 12
3 13 12 15
3 13 15 16
3 12 14 17
3 12 17 15
3 16 15 18
3 16 18 19
3 15 17 20
3 15 20 18
3 19 18 21
3 19 21 22
3 18 20 23
3 18 23 21
3 22 21 24
3 22 24 25
3 21 23 26
3 21 26 24
3 24 27 30
3 24 30 25
3 26 29 27
3 26 27 24
3 27 28 31
3 27 31 30
3 29 120 28
3 29 28 27
3 25 30 32
3 25 32 33
3 30 31 34
3 30 34 32
3 33 32 35
3 33 35 36
3 32 34 37
3 32 37 35
3 36 35 38
3 36 38 39
3 35 37 40
3 35 40 38
3 39 38 41
3 39 41 42
3 38 40 43
3 38 43 41
3 42 41 44
3 42 44 45
3 41 43 46
3 41 46 44
3 45 44 47
3 45 47 48
3 44 46 49
3 44 49 47
3 48 47 50
3 48 50 51
3 47 49 52
3 47 52 50
3 51 50 53
3 51 53 54
3 50 52 55
3 50 55 53
3 54 53 56
3 54 56 57
3 53 55 58
3 53 58 56
3 57 56 59
3 57 59 60
3 56 58 61
3 56 61 59
3 60 59 62
3 60 62 63
3 59 61 64
3 59 64 62
3 63 62 65
3 63 65 66
3 62 64 67
3 62 67 65
3 66 65 68
3 66 68 69
3 65 67 70
3 65 70 68
3 69 68 71
3 69 71 72
3 68 70 73
3 68 73 71
3 72 71 74
3 72 74 75
3 71 73 76
3 71 76 74
3 75 74 77
3 75 77 78
3 74 76 79
3 74 79 77
3 78 77 80
3 78 80 81
3 77 79 82
3 77 82 80
3 81 80 83
3 81 83 84
3 80 82 85
3 80 85 83
3 84 83 86
3 84 86 87
3 83 85 88
3 83 88 86
3 87 86 89
3 87 89 90
3 86 88 91
3 86 91 89
3 90 89 92
3 90 92 93
3 89 91 94
3 89 94 92
3 93 92 95
3 93 95 96
3 92 94 97
3 92 97 95
3 96 95 98
3 96 98 99
3 95 97 100
3 95 100 98
3 99 98 101
3 99 101 102
3 98 100 103
3 98 103 101
3 102 101 104
3 102 104 105
3 101 103 106
3 101 106 104
3 105 104 107
3 105 107 108
3 104 106 109
3 104 109 107
3 108 107 110
3 108 110 111
3 107 109 112
3 107 112 110
3 111 110 113
3 111 113 114
3 110 112 115
3 110 115 113
3 114 113 116
3 114 116 117
3 113 115 118
3 113 118 116
3 117 116 29
3 117 29 26
3 116 118 120
3 116 120 29
3 115 181 119
3 115 119 118
3 118 119 121
3 118 121 120
3 120 121 123
3 120 123 28
3 119 184 122
3 119 122 121
3 121 122 124
3 121 124 123
3 28 123 125
3 28 125 31
3 123 124 126
3 123 126 125
3 125 126 128
3 125 128 127
3 31 125 127
3 31 127 34
3 127 128 130
3 127 130 129
3 34 127 129
3 34 129 37
3 129 130 132
3 129 132 131
3 37 129 131
3 37 131 40
3 131 132 134
3 131 134 133
3 40 131 133
3 40 133 43
3 133 134 136
3 133 136 135
3 43 133 135
3 43 135 46
3 135 136 138
3 135 138 137
3 46 135 137
3 46 137 49
3 137 138 140
3 137 140 139
3 49 137 139
3 49 139 52
3 139 140 142
3 139 142 141
3 52 139 141
3 52 141 55
3 141 142 144
3 141 144 143
3 55 141 143
3 55 143 58
3 143 144 146
3 143 146 145
3 58 143 145
3 58 145 61
3 145 146 148
3 145 148 147
3 61 145 147
3 61 147 64
3 147 148 150
3 147 150 149
3 64 147 149
3 64 149 67
3 149 150 152
3 149 152 151
3 67 149 151
3 67 151 70
3 151 152 154
3 151 154 153
3 70 151 153
3 70 153 73
3 153 154 156
3 153 156 155
3 73 153 155
3 73 155 76
3 155 156 158
3 155 158 157
3 76 155 157
3 76 157 79
3 157 158 160
3 157 160 159
3 79 157 159
3 79 159 82
3 159 160 162
3 159 162 161
3 82 159 161
3 82 161 85
3 161 162 164
3 161 164 163
3 85 161 163
3 85 163 88
3 163 164 166
3 163 166 165
3 88 163 165
3 88 165 91
3 165 166 168
3 165 168 167
3 91 165 167
3 91 167 94
3 167 168 170
3 167 170 169
3 94 167 169
3 94 169 97
3 169 170 172
3 169 172 171
3 97 169 171
3 97 171 100
3 171 172 174
3 171 174 173
3 100 171 173
3 100 173 103
3 173 174 176
3 173 176 175
3 103 173 175
3 103 175 106
3 175 176 178
3 175 178 177
3 106 175 177
3 106 177 109
3 177 178 180
3 177 180 179
3 109 177 179
3 109 179 112
3 179 180 182
3 179 182 181
3 112 179 181
3 112 181 115
3 181 182 184
3 181 184 119
3 180 245 183
3 180 183 182
3 182 183 185
3 182 185 184
3 184 185 187
3 184 187 122
3 183 248 186
3 183 186 185
3 185 186 188
3 185 188 187
3 187 188 190
3 187 190 189
3 122 187 189
3 122 189 124
3 124 189 191
3 124 191 126
3 189 190 192
3 189 192 191
3 191 192 194
3 191 194 193
3 126 191 193
3 126 193 128
3 193 194 196
3 193 196 195
3 128 193 195
3 128 195 130
3 195 196 198
3 195 198 197
3 130 195 197
3 130 197 132
3 197 198 200
3 197 200 199
3 132 197 199
3 132 199 134
3 199 200 202
3 199 202 201
3 134 199 201
3 134 201 136
3 201 202 204
3 201 204 203
3 136 201 203
3 136 203 138
3 203 204 206
3 203 206 205
3 138 203 205
3 138 205 140
3 205 206 208
3 205 208 207
3 140 205 207
3 140 207 142
3 207 208 210
3 207 210 209
3 142 207 209
3 142 209 144
3 209 210 212
3 209 212 211
3 144 209 211
3 144 211 146
3 211 212 214
3 211 214 213
3 146 211 213
3 146 213 148
3 213 214 216
3 213 216 215
3 148 213 215
3 148 215 150
3 215 216 218
3 215 218 217
3 150 215 217
3 150 217 152
3 217 218 220
3 217 220 219
3 152 217 219
3 152 219 154
3 219 220 222
3 219 222 221
3 154 219 221
3 154 221 156
3 221 222 224
3 221 224 223
3 156 221 223
3 156 223 158
3 223 224 226
3 223 226 225
3 158 223 225
3 158 225 160
3 225 226 228
3 225 228 227
3 160 225 227
3 160 227 162
3 227 228 230
3 227 230 229
3 162 227 229
3 162 229 164
3 229 230 232
3 229 232 231
3 164 229 231
3 164 231 166
3 231 232 234
3 231 234 233
3 166 231 233
3 166 233 168
3 233 234 236
3 233 236 235
3 168 233 235
3 168 235 170
3 235 236 238
3 235 238 237
3 170 235 237
3 170 237 172
3 237 238 240
3 237 240 239
3 172 237 239
3 172 239 174
3 239 240 242
3 239 242 241
3 174 239 241
3 174 241 176
3 241 242 244
3 241 244 243
3 176 241 243
3 176 243 178
3 243 244 246
3 243 246 245
3 178 243 245
3 178 245 180
3 245 246 248
3 245 248 183
3 244 309 247
3 244 247 246
3 246 247 249
3 246 249 248
3 248 249 251
3 248 251 186
3 247 312 250
3 247 250 249
3 249 250 252
3 249 252 251
3 251 252 254
3 251 254 253
3 186 251 253
3 186 253 188
3 253 254 256
3 253 256 255
3 188 253 255
3 188 255 190
3 190 255 257
3 190 257 192
3 255 256 258
3 255 258 257
3 257 258 260
3 257 260 259
3 192 257 259
3 192 259 194
3 259 260 262
3 259 262 261
3 194 259 261
3 194 261 196
3 261 262 264
3 261 264 263
3 196 261 263
3 196 263 198
3 263 264 266
3 263 266 265
3 198 263 265
3 198 265 200
3 265 266 268
3 265 268 267
3 200 265 267
3 200 267 202
3 267 268 270
3 267 270 269
3 202 267 269
3 202 269 204
3 269 270 272
3 269 272 271
3 204 269 271
3 204 271 206
3 271 272 274
3 271 274 273
3 206 271 273
3 206 273 208
3 273 274 276
3 273 276 275
3 208 273 275
3 208 275 210
3 275 276 278
3 275 278 277
3 210 275 277
3 210 277 212
3 277 278 280
3 277 280 279
3 212 277 279
3 212 279 214
3 279 280 282
3 279 282 281
3 214 279 281
3 214 281 216
3 281 282 284
3 281 284 283
3 216 281 283
3 216 283 218
3 283 284 286
3 283 286 285
3 218 283 285
3 218 285 220
3 285 286 288
3 285 288 287
3 220 285 287
3 220 287 222
3 287 288 290
3 287 290 289
3 222 287 289
3 222 289 224
3 289 290 292
3 289 292 291
3 224 289 291
3 224 291 226
3 291 292 294
3 291 294 293
3 226 291 293
3 226 293 228
3 293 294 296
3 293 296 295
3 228 293 295
3 228 295 230
3 295 296 298
3 295 298 297
3 230 295 297
3 230 297 232
3 297 298 300
3 297 300 299
3 232 297 299
3 232 299 234
3 299 300 302
3 299 302 301
3 234 299 301
3 234 301 236
3 301 302 304
3 301 304 303
3 236 301 303
3 236 303 238
3 303 304 306
3 303 306 305
3 238 303 305
3 238 305 240
3 305 306 308
3 305 308 307
3 240 305 307
3 240 307 242
3 307 308 310
3 307 310 309
3 242 307 309
3 242 309 244
3 309 310 312
3 309 312 247
3 308 373 311
3 308 311 310
3 310 311 313
3 310 313 312
3 312 313 315
3 312 315 250
3 311 376 314
3 311 314 313
3 313 314 316
3 313 316 315
3 315 316 318
3 315 318 317
3 250 315 317
3 250 317 252
3 317 318 320
3 317 320 319
3 252 317 319
3 252 319 254
3 319 320 322
3 319 322 321
3 254 319 321
3 254 321 256
3 256 321 323
3 256 323 258
3 321 322 324
3 321 324 323
3 323 324 326
3 323 326 325
3 258 323 325
3 258 325 260
3 325 326 328
3 325 328 327
3 260 325 327
3 260 327 262
3 327 328 330
3 327 330 329
3 262 327 329
3 262 329 264
3 329 330 332
3 329 332 331
3 264 329 331
3 264 331 266
3 331 332 334
3 331 334 333
3 266 331 333
3 266 333 268
3 333 334 336
3 333 336 335
3 268 333 335
3 268 335 270
3 335 336 338
3 335 338 337
3 270 335 337
3 270 337 272
3 337 338 340
3 337 340 339
3 272 337 339
3 272 339 274
3 339 340 342
3 339 342 341
3 274 339 341
3 274 341 276
3 341 342 344
3 341 344 343
3 276 341 343
3 276 343 278
3 343 344 346
3 343 346 345
3 278 343 345
3 278 345 280
3 345 346 348
3 345 348 347
3 280 345 347
3 280 347 282
3 347 348 350
3 347 350 349
3 282 347 349
3 282 349 284
3 349 350 352
3 349 352 351
3 284 349 351
3 284 351 286
3 351 352 354
3 351 354 353
3 286 351 353
3 286 353 288
3 353 354 356
3 353 356 355
3 288 353 355
3 288 355 290
3 355 356 358
3 355 358 357
3 290 355 357
3 290 357 292
3 357 358 360
3 357 360 359
3 292 357 359
3 292 359 294
3 359 360 362
3 359 362 361
3 294 359 361
3 294 361 296
3 361 362 364
3 361 364 363
3 296 361 363
3 296 363 298
3 363 364 366
3 363 366 365
3 298 363 365
3 298 365 300
3 365 366 368
3 365 368 367
3 300 365 367
3 300 367 302
3 367 368 370
3 367 370 369
3 302 367 369
3 302 369 304
3 369 370 372
3 369 372 371
3 304 369 371
3 304 371 306
3 371 372 374
3 371 374 373
3 306 371 373
3 306 373 308
3 373 374 376
3 373 376 311
3 372 437 375
3 372 375 374
3 374 375 377
3 374 377 376
3 376 377 379
3 376 379 314
3 375 440 378
3 375 378 377
3 377 378 380
3 377 380 379
3 379 380 382
3 379 382 381
3 314 379 381
3 314 381 316
3 381 382 384
3 381 384 383
3 316 381 383
3 316 383 318
3 383 384 386
3 383 386 385
3 318 383 385
3 318 385 320
3 385 386 388
3 385 388 387
3 320 385 387
3 320 387 322
3 322 387 389
3 322 389 324
3 387 388 390
3 387 390 389
3 389 390 392
3 389 392 391
3 324 389 391
3 324 391 326
3 391 392 394
3 391 394 393
3 326 391 393
3 326 393 328
3 393 394 396
3 393 396 395
3 328 393 395
3 328 395 330
3 395 396 398
3 395 398 397
3 330 395 397
3 330 397 332
3 397 398 400
3 397 400 399
3 332 397 399
3 332 399 334
3 399 400 402
3 399 402 401
3 334 399 401
3 334 401 336
3 401 402 404
3 401 404 403
3 336 401 403
3 336 403 338
3 403 404 406
3 403 406 405
3 338 403 405
3 338 405 340
3 405 406 408
3 405 408 407
3 340 405 407
3 340 407 342
3 407 408 410
3 407 410 409
3 342 407 409
3 342 409 344
3 409 410 412
3 409 412 411
3 344 409 411
3 344 411 346
3 411 412 414
3 411 414 413
3 346 411 413
3 346 413 348
3 413 414 416
3 413 416 415
3 348 413 415
3 348 415 350
3 415 416 418
3 415 418 417
3 350 415 417
3 350 417 352
3 417 418 420
3 417 420 419
3 352 417 419
3 352 419 354
3 419 420 422
3 419 422 421
3 354 419 421
3 354 421 356
3 421 422 424
3 421 424 423
3 356 421 423
3 356 423 358
3 423 424 426
3 423 426 425
3 358 423 425
3 358 425 360
3 425 426 428
3 425 428 427
3 360 425 427
3 360 427 362
3 427 428 430
3 427 430 429
3 362 427 429
3 362 429 364
3 429 430 432
3 429 432 431
3 364 429 431
3 364 431 366
3 431 432 434
3 431 434 433
3 366 431 433
3 366 433 368
3 433 434 436
3 433 436 435
3 368 433 435
3 368 435 370
3 435 436 438
3 435 438 437
3 370 435 437
3 370 437 372
3 437 438 440
3 437 440 375
3 436 501 439
3 436 439 438
3 438 439 441
3 438 441 440
3 440 441 443
3 440 443 378
3 439 504 442
3 439 442 441
3 441 442 444
3 441 444 443
3 443 444 446
3 443 446 445
3 378 443 445
3 378 445 380
3 445 446 448
3 445 448 447
3 380 445 447
3 380 447 382
3 447 448 450
3 447 450 449
3 382 447 449
3 382 449 384
3 449 450 452
3 449 452 451
3 384 449 451
3 384 451 386
3 451 452 454
3 451 454 453
3 386 451 453
3 386 453 388
3 388 453 455
3 388 455 390
3 453 454 456
3 453 456 455
3 455 456 458
3 455 458 457
3 390 455 457
3 390 457 392
3 457 458 460
3 457 460 459
3 392 457 459
3 392 459 394
3 459 460 462
3 459 462 461
3 394 459 461
3 394 461 396
3 461 462 464
3 461 464 463
3 396 461 463
3 396 463 398
3 463 464 466
3 463 466 465
3 398 463 465
3 398 465 400
3 465 466 468
3 465 468 467
3 400 465 467
3 400 467 402
3 467 468 470
3 467 470 469
3 402 467 469
3 402 469 404
3 469 470 472
3 469 472 471
3 404 469 471
3 404 471 406
3 471 472 474
3 471 474 473
3 406 471 473
3 406 473 408
3 473 474 476
3 473 476 475
3 408 473 475
3 408 475 410
3 475 476 478
3 475 478 477
3 410 475 477
3 410 477 412
3 477 478 480
3 477 480 479
3 412 477 479
3 412 479 414
3 479 480 482
3 479 482 481
3 414 479 481
3 414 481 416
3 481 482 484
3 481 484 483
3 416 481 483
3 416 483 418
3 483 484 486
3 483 486 485
3 418 483 485
3 418 485 420
3 485 486 488
3 485 488 487
3 420 485 487
3 420 487 422
3 487 488 490
3 487 490 489
3 422 487 489
3 422 489 424
3 489 490 492
3 489 492 491
3 424 489 491
3 424 491 426
3 491 492 494
3 491 494 493
3 426 491 493
3 426 493 428
3 493 494 496
3 493 496 495
3 428 493 495
3 428 495 430
3 495 496 498
3 495 498 497
3 430 495 497
3 430 497 432
3 497 498 500
3 497 500 499
3 432 497 499
3 432 499 434
3 499 500 502
3 499 502 501
3 434 499 501
3 434 501 436
3 501 502 504
3 501 504 439
3 500 565 503
3 500 503 502
3 502 503 505
3 502 505 504
3 504 505 507
3 504 507 442
3 503 568 506
3 503 506 505
3 505 506 508
3 505 508 507
3 507 508 510
3 507 510 509
3 442 507 509
3 442 509 444
3 509 510 512
3 509 512 511
3 444 509 511
3 444 511 446
3 511 512 514
3 511 514 513
3 446 511 513
3 446 513 448
3 513 514 516
3 513 516 515
3 448 513 515
3 448 515 450
3 515 516 518
3 515 518 517
3 450 515 517
3 450 517 452
3 517 518 520
3 517 520 519
3 452 517 519
3 452 519 454
3 454 519 521
3 454 521 456
3 519 520 522
3 519 522 521
3 521 522 524
3 521 524 523
3 456 521 523
3 456 523 458
3 523 524 526
3 523 526 525
3 458 523 525
3 458 525 460
3 525 526 528
3 525 528 527
3 460 525 527
3 460 527 462
3 527 528 530
3 527 530 529
3 462 527 529
3 462 529 464
3 529 530 532
3 529 532 531
3 464 529 531
3 464 531 466
3 531 532 534
3 531 534 533
3 466 531 533
3 466 533 468
3 533 534 536
3 533 536 535
3 468 533 535
3 468 535 470
3 535 536 538
3 535 538 537
3 470 535 537
3 470 537 472
3 537 538 540
3 537 540 539
3 472 537 539
3 472 539 474
3 539 540 542
3 539 542 541
3 474 539 541
3 474 541 476
3 541 542 544
3 541 544 543
3 476 541 543
3 476 543 478
3 543 544 546
3 543 546 545
3 478 543 545
3 478 545 480
3 545 546 548
3 545 548 547
3 480 545 547
3 480 547 482
3 547 548 550
3 547 550 549
3 482 547 549
3 482 549 484
3 549 550 552
3 549 552 551
3 484 549 551
3 484 551 486
3 551 552 554
3 551 554 553
3 486 551 553
3 486 553 488
3 553 554 556
3 553 556 555
3 488 553 555
3 488 555 490
3 555 556 558
3 555 558 557
3 490 555 557
3 490 557 492
3 557 558 560
3 557 560 559
3 492 557 559
3 492 559 494
3 559 560 562
3 559 562 561
3 494 559 561
3 494 561 496
3 561 562 564
3 561 564 563
3 496 561 563
3 496 563 498
3 563 564 566
3 563 566 565
3 498 563 565
3 498 565 500
3 565 566 568
3 565 568 503
3 564 629 567
3 564 567 566
3 566 567 569
3 566 569 568
3 568 569 571
3 568 571 506
3 567 632 570
3 567 570 569
3 569 570 572
3 569 572 571
3 571 572 574
3 571 574 573
3 506 571 573
3 506 573 508
3 573 574 576
3 573 576 575
3 508 573 575
3 508 575 510
3 575 576 578
3 575 578 577
3 510 575 577
3 510 577 512
3 577 578 580
3 577 580 579
3 512 577 579
3 512 579 514
3 579 580 582
3 579 582 581
3 514 579 581
3 514 581 516
3 581 582 584
3 581 584 583
3 516 581 583
3 516 583 518
3 583 584 586
3 583 586 585
3 518 583 585
3 518 585 520
3 520 585 587
3 520 587 522
3 585 586 588
3 585 588 587
3 587 588 590
3 587 590 589
3 522 587 589
3 522 589 524
3 589 590 592
3 589 592 591
3 524 589 591
3 524 591 526
3 591 592 594
3 591 594 593
3 526 591 593
3 526 593 528
3 593 594 596
3 593 596 595
3 528 593 595
3 528 595 530
3 595 596 598
3 595 598 597
3 530 595 597
3 530 597 532
3 597 598 600
3 597 600 599
3 532 597 599
3 532 599 534
3 599 600 602
3 599 602 601
3 534 599 601
3 534 601 536
3 601 602 604
3 601 604 603
3 536 601 603
3 536 603 538
3 603 604 606
3 603 606 605
3 538 603 605
3 538 605 540
3 605 606 608
3 605 608 607
3 540 605 607
3 540 607 542
3 607 608 610
3 607 610 609
3 542 607 609
3 542 609 544
3 609 610 612
3 609 612 611
3 544 609 611
3 544 611 546
3 611 612 614
3 611 614 613
3 546 611 613
3 546 613 548
3 613 614 616
3 613 616 615
3 548 613 615
3 548 615 550
3 615 616 618
3 615 618 617
3 550 615 617
3 550 617 552
3 617 618 620
3 617 620 619
3 552 617 619
3 552 619 554
3 619 620 622
3 619 622 621
3 554 619 621
3 554 621 556
3 621 622 624
3 621 624 623
3 556 621 623
3 556 623 558
3 623 624 626
3 623 626 625
3 558 623 625
3 558 625 560
3 625 626 628
3 625 628 627
3 560 625 627
3 560 627 562
3 627 628 630
3 627 630 629
3 562 627 629
3 562 629 564
3 629 630 632
3 629 632 567
3 628 693 631
3 628 631 630
3 630 631 633
3 630 633 632
3 632 633 635
3 632 635 570
3 631 696 634
3 631 634 633
3 633 634 636
3 633 636 635
3 635 636 638
3 635 638 637
3 570 635 637
3 570 637 572
3 637 638 640
3 637 640 639
3 572 637 639
3 572 639 574
3 639 640 642
3 639 642 641
3 574 639 641
3 574 641 576
3 641 642 644
3 641 644 643
3 576 641 643
3 576 643 578
3 643 644 646
3 643 646 645
3 578 643 645
3 578 645 580
3 645 646 648
3 645 648 647
3 580 645 647
3 580 647 582
3 647 648 650
3 647 650 649
3 582 647 649
3 582 649 584
3 649 650 652
3 649 652 651
3 584 649 651
3 584 651 586
3 586 651 653
3 586 653 588
3 651 652 654
3 651 654 653
3 653 654 656
3 653 656 655
3 588 653 655
3 588 655 590
3 655 656 658
3 655 658 657
3 590 655 657
3 590 657 592
3 657 658 660
3 657 660 659
3 592 657 659
3 592 659 594
3 659 660 662
3 659 662 661
3 594 659 661
3 594 661 596
3 661 662 664
3 661 664 663
3 596 661 663
3 596 663 598
3 663 664 666
3 663 666 665
3 598 663 665
3 598 665 600
3 665 666 668
3 665 668 667
3 600 665 667
3 600 667 602
3 667 668 670
3 667 670 669
3 602 667 669
3 602 669 604
3 669 670 672
3 669 672 671
3 604 669 671
3 604 671 606
3 671 672 674
3 671 674 673
3 606 671 673
3 606 673 608
3 673 674 676
3 673 676 675
3 608 673 675
3 608 675 610
3 675 676 678
3 675 678 677
3 610 675 677
3 610 677 612
3 677 678 680
3 677 680 679
3 612 677 679
3 612 679 614
3 679 680 682
3 679 682 681
3 614 679 681
3 614 681 616
3 681 682 684
3 681 684 683
3 616 681 683
3 616 683 618
3 683 684 686
3 683 686 685
3 618 683 685
3 618 685 620
3 685 686 688
3 685 688 687
3 620 685 687
3 620 687 622
3 687 688 690
3 687 690 689
3 622 687 689
3 622 689 624
3 689 690 692
3 689 692 691
3 624 689 691
3 624 691 626
3 691 692 694
3 691 694 693
3 626 691 693
3 626 693 628
3 693 694 696
3 693 696 631
3 692 757 695
3 692 695 694
3 694 695 697
3 694 697 696
3 696 697 699
3 696 699 634
3 695 760 698
3 695 698 697
3 697 698 700
3 697 700 699
3 699 700 702
3 699 702 701
3 634 699 701
3 634 701 636
3 701 702 704
3 701 704 703
3 636 701 703
3 636 703 638
3 703 704 706
3 703 706 705
3 638 703 705
3 638 705 640
3 705 706 708
3 705 708 707
3 640 705 707
3 640 707 642
3 707 708 710
3 707 710 709
3 642 707 709
3 642 709 644
3 709 710 712
3 709 712 711
3 644 709 711
3 644 711 646
3 711 712 714
3 711 714 713
3 646 711 713
3 646 713 648
3 713 714 716
3 713 716 715
3 648 713 715
3 648 715 650
3 715 716 718
3 715 718 717
3 650 715 717
3 650 717 652
3 652 717 719
3 652 719 654
3 717 718 720
3 717 720 719
3 719 720 722
3 719 722 721
3 654 719 721
3 654 721 656
3 721 722 724
3 721 724 723
3 656 721 723
3 656 723 658
3 723 724 726
3 723 726 725
3 658 723 725
3 658 725 660
3 725 726 728
3 725 728 727
3 660 725 727
3 660 727 662
3 727 728 730
3 727 730 729
3 662 727 729
3 662 729 664
3 729 730 732
3 729 732 731
3 664 729 731
3 664 731 666
3 731 732 734
3 731 734 733
3 666 731 733
3 666 733 668
3 733 734 736
3 733 736 735
3 668 733 735
3 668 735 670
3 735 736 738
3 735 738 737
3 670 735 737
3 670 737 672
3 737 738 740
3 737 740 739
3 672 737 739
3 672 739 674
3 739 740 742
3 739 742 741
3 674 739 741
3 674 741 676
3 741 742 744
3 741 744 743
3 676 741 743
3 676 743 678
3 743 744 746
3 743 746 745
3 678 743 745
3 678 745 680
3 745 746 748
3 745 748 747
3 680 745 747
3 680 747 682
3 747 748 750
3 747 750 749
3 682 747 749
3 682 749 684
3 749 750 752
3 749 752 751
3 684 749 751
3 684 751 686
3 751 752 754
3 751 754 753
3 686 751 753
3 686 753 688
3 753 754 756
3 753 756 755
3 688 753 755
3 688 755 690
3 755 756 758
3 755 758 757
3 690 755 757
3 690 757 692
3 757 758 760
3 757 760 695
3 756 821 759
3 756 759 758
3 758 759 761
3 758 761 760
3 760 761 763
3 760 763 698
3 759 824 762
3 759 762 761
3 761 762 764
3 761 764 763
3 763 764 766
3 763 766 765
3 698 763 765
3 698 765 700
3 765 766 768
3 765 768 767
3 700 765 767
3 700 767 702
3 767 768 770
3 767 770 769
3 702 767 769
3 702 769 704
3 769 770 772
3 769 772 771
3 704 769 771
3 704 771 706
3 771 772 774
3 771 774 773
3 706 771 773
3 706 773 708
3 773 774 776
3 773 776 775
3 708 773 775
3 708 775 710
3 775 776 778
3 775 778 777
3 710 775 777
3 710 777 712
3 777 778 780
3 777 780 779
3 712 777 779
3 712 779 714
3 779 780 782
3 779 782 781
3 714 779 781
3 714 781 716
3 781 782 784
3 781 784 783
3 716 781 783
3 716 783 718
3 718 783 785
3 718 785 720
3 783 784 786
3 783 786 785
3 785 786 788
3 785 788 787
3 720 785 787
3 720 787 722
3 787 788 790
3 787 790 789
3 722 787 789
3 722 789 724
3 789 790 792
3 789 792 791
3 724 789 791
3 724 791 726
3 791 792 794
3 791 794 793
3 726 791 793
3 726 793 728
3 793 794 796
3 793 796 795
3 728 793 795
3 728 795 730
3 795 796 798
3 795 798 797
3 730 795 797
3 730 797 732
3 797 798 800
3 797 800 799
3 732 797 799
3 732 799 734
3 799 800 802
3 799 802 801
3 734 799 801
3 734 801 736
3 801 802 804
3 801 804 803
3 736 801 803
3 736 803 738
3 803 804 806
3 803 806 805
3 738 803 805
3 738 805 740
3 805 806 808
3 805 808 807
3 740 805 807
3 740 807 742
3 807 808 810
3 807 810 809
3 742 807 809
3 742 809 744
3 809 810 812
3 809 812 811
3 744 809 811
3 744 811 746
3 811 812 814
3 811 814 813
3 746 811 813
3 746 813 748
3 813 814 816
3 813 816 815
3 748 813 815
3 748 815 750
3 815 816 818
3 815 818 817
3 750 815 817
3 750 817 752
3 817 818 820
3 817 820 819
3 752 817 819
3 752 819 754
3 819 820 822
3 819 822 821
3 754 819 821
3 754 821 756
3 821 822 824
3 821 824 759
3 820 885 823
3 820 823 822
3 822 823 825
3 822 825 824
3 824 825 827
3 824 827 762
3 823 888 826
3 823 826 825
3 825 826 828
3 825 828 827
3 827 828 830
3 827 830 829
3 762 827 829
3 762 829 764
3 829 830 832
3 829 832 831
3 764 829 831
3 764 831 766
3 831 832 834
3 831 834 833
3 766 831 833
3 766 833 768
3 833 834 836
3 833 836 835
3 768 833 835
3 768 835 770
3 835 836 838
3 835 838 837
3 770 835 837
3 770 837 772
3 837 838 840
3 837 840 839
3 772 837 839
3 772 839 774
3 839 840 842
3 839 842 841
3 774 839 841
3 774 841 776
3 841 842 844
3 841 844 843
3 776 841 843
3 776 843 778
3 843 844 846
3 843 846 845
3 778 843 845
3 778 845 780
3 845 846 848
3 845 848 847
3 780 845 847
3 780 847 782
3 847 848 850
3 847 850 849
3 782 847 849
3 782 849 784
3 784 849 851
3 784 851 786
3 849 850 852
3 849 852 851
3 851 852 854
3 851 854 853
3 786 851 853
3 786 853 788
3 853 854 856
3 853 856 855
3 788 853 855
3 788 855 790
3 855 856 858
3 855 858 857
3 790 855 857
3 790 857 792
3 857 858 860
3 857 860 859
3 792 857 859
3 792 859 794
3 859 860 862
3 859 862 861
3 794 859 861
3 794 861 796
3 861 862 864
3 861 864 863
3 796 861 863
3 796 863 798
3 863 864 866
3 863 866 865
3 798 863 865
3 798 865 800
3 865 866 868
3 865 868 867
3 800 865 867
3 800 867 802
3 867 868 870
3 867 870 869
3 802 867 869
3 802 869 804
3 869 870 872
3 869 872 871
3 804 869 871
3 804 871 806
3 871 872 874
3 871 874 873
3 806 871 873
3 806 873 808
3 873 874 876
3 873 876 875
3 808 873 875
3 808 875 810
3 875 876 878
3 875 878 877
3 810 875 877
3 810 877 812
3 877 878 880
3 877 880 879
3 812 877 879
3 812 879 814
3 879 880 882
3 879 882 881
3 814 879 881
3 814 881 816
3 881 882 884
3 881 884 883
3 816 881 883
3 816 883 818
3 883 884 886
3 883 886 885
3 818 883 885
3 818 885 820
3 885 886 888
3 885 888 823
3 884 949 887
3 884 887 886
3 886 887 889
3 886 889 888
3 888 889 891
3 888 891 826
3 887 952 890
3 887 890 889
3 889 890 892
3 889 892 891
3 891 892 894
3 891 894 893
3 826 891 893
3 826 893 828
3 893 894 896
3 893 896 895
3 828 893 895
3 828 895 830
3 895 896 898
3 895 898 897
3 830 895 897
3 830 897 832
3 897 898 900
3 897 900 899
3 832 897 899
3 832 899 834
3 899 900 902
3 899 902 901
3 834 899 901
3 834 901 836
3 901 902 904
3 901 904 903
3 836 901 903
3 836 903 838
3 903 904 906
3 903 906 905
3 838 903 905
3 838 905 840
3 905 906 908
3 905 908 907
3 840 905 907
3 840 907 842
3 907 908 910
3 907 910 909
3 842 907 909
3 842 909 844
3 909 910 912
3 909 912 911
3 844 909 911
3 844 911 846
3 911 912 914
3 911 914 913
3 846 911 913
3 846 913 848
3 913 914 916
3 913 916 915
3 848 913 915
3 848 915 850
3 850 915 917
3 850 917 852
3 915 916 918
3 915 918 917
3 917 918 920
3 917 920 919
3 852 917 919
3 852 919 854
3 919 920 922
3 919 922 921
3 854 919 921
3 854 921 856
3 921 922 924
3 921 924 923
3 856 921 923
3 856 923 858
3 923 924 926
3 923 926 925
3 858 923 925
3 858 925 860
3 925 926 928
3 925 928 927
3 860 925 927
3 860 927 862
3 927 928 930
3 927 930 929
3 862 927 929
3 862 929 864
3 929 930 932
3 929 932 931
3 864 929 931
3 864 931 866
3 931 932 934
3 931 934 933
3 866 931 933
3 866 933 868
3 933 934 936
3 933 936 935
3 868 933 935
3 868 935 870
3 935 936 938
3 935 938 937
3 870 935 937
3 870 937 872
3 937 938 940
3 937 940 939
3 872 937 939
3 872 939 874
3 939 940 942
3 939 942 941
3 874 939 941
3 874 941 876
3 941 942 944
3 941 944 943
3 876 941 943
3 876 943 878
3 943 944 946
3 943 946 945
3 878 943 945
3 878 945 880
3 945 946 948
3 945 948 947
3 880 945 947
3 880 947 882
3 947 948 950
3 947 950 949
3 882 947 949
3 882 949 884
3 949 950 952
3 949 952 887
3 948 1013 951
3 948 951 950
3 950 951 953
3 950 953 952
3 952 953 955
3 952 955 890
3 951 1016 954
3 951 954 953
3 953 954 956
3 953 956 955
3 955 956 958
3 955 958 957
3 890 955 957
3 890 957 892
3 957 958 960
3 957 960 959
3 892 957 959
3 892 959 894
3 959 960 962
3 959 962 961
3 894 959 961
3 894 961 896
3 961 962 964
3 961 964 963
3 896 961 963
3 896 963 898
3 963 964 966
3 963 966 965
3 898 963 965
3 898 965 900
3 965 966 968
3 965 968 967
3 900 965 967
3 900 967 902
3 967 968 970
3 967 970 969
3 902 967 969
3 902 969 904
3 969 970 972
3 969 972 971
3 904 969 971
3 904 971 906
3 971 972 974
3 971 974 973
3 906 971 973
3 906 973 908
3 973 974 976
3 973 976 975
3 908 973 975
3 908 975 910
3 975 976 978
3 975 978 977
3 910 975 977
3 910 977 912
3 977 978 980
3 977 980 979
3 912 977 979
3 912 979 914
3 979 980 982
3 979 982 981
3 914 979 981
3 914 981 916
3 916 981 983
3 916 983 918
3 981 982 984
3 981 984 983
3 983 984 986
3 983 986 985
3 918 983 985
3 918 985 920
3 985 986 988
3 985 988 987
3 920 985 987
3 920 987 922
3 987 988 990
3 987 990 989
3 922 987 989
3 922 989 924
3 989 990 992
3 989 992 991
3 924 989 991
3 924 991 926
3 991 992 994
3 991 994 993
3 926 991 993
3 926 993 928
3 993 994 996
3 993 996 995
3 928 993 995
3 928 995 930
3 995 996 998
3 995 998 997
3 930 995 997
3 930 997 932
3 997 998 1000
3 997 1000 999
3 932 997 999
3 932 999 934
3 999 1000 1002
3 999 1002 1001
3 934 999 1001
3 934 1001 936
3 1001 1002 1004
3 1001 1004 1003
3 936 1001 1003
3 936 1003 938
3 1003 1004 1006
3 1003 1006 1005
3 938 1003 1005
3 938 1005 940
3 1005 1006 1008
3 1005 1008 1007
3 940 1005 1007
3 940 1007 942
3 1007 1008 1010
3 1007 1010 1009
3 942 1007 1009
3 942 1009 944
3 1009 1010 1012
3 1009 1012 1011
3 944 1009 1011
3 944 1011 946
3 1011 1012 1014
3 1011 1014 1013
3 946 1011 1013
3 946 1013 948
3 1013 1014 1016
3 1013 1016 951
3 1012 1077 1015
3 1012 1015 1014
3 1014 1015 1017
3 1014 1017 1016
3 1016 1017 1019
3 1016 1019 954
3 1015 1080 1018
3 1015 1018 1017
3 1017 1018 1020
3 1017 1020 1019
3 1019 1020 1022
3 1019 1022 1021
3 954 1019 1021
3 954 1021 956
3 1021 1022 1024
3 1021 1024 1023
3 956 1021 1023
3 956 1023 958
3 1023 1024 1026
3 1023 1026 1025
3 958 1023 1025
3 958 1025 960
3 1025 1026 1028
3 1025 1028 1027
3 960 1025 1027
3 960 1027 962
3 1027 1028 1030
3 1027 1030 1029
3 962 1027 1029
3 962 1029 964
3 1029 1030 1032
3 1029 1032 1031
3 964 1029 1031
3 964 1031 966
3 1031 1032 1034
3 1031 1034 1033
3 966 1031 1033
3 966 1033 968
3 1033 1034 1036
3 1033 1036 1035
3 968 1033 1035
3 968 1035 970
3 1035 1036 1038
3 1035 1038 1037
3 970 1035 1037
3 970 1037 972
3 1037 1038 1040
3 1037 1040 1039
3 972 1037 1039
3 972 1039 974
3 1039 1040 1042
3 1039 1042 1041
3 974 1039 1041
3 974 1041 976
3 1041 1042 1044
3 1041 1044 1043
3 976 1041 1043
3 976 1043 978
3 1043 1044 1046
3 1043 1046 1045
3 978 1043 1045
3 978 1045 980
3 1045 1046 1048
3 1045 1048 1047
3 980 1045 1047
3 980 1047 982
3 982 1047 1049
3 982 1049 984
3 1047 1048 1050
3 1047 1050 1049
3 1049 1050 1052
3 1049 1052 1051
3 984 1049 1051
3 984 1051 986
3 1051 1052 1054
3 1051 1054 1053
3 986 1051 1053
3 986 1053 988
3 1053 1054 1056
3 1053 1056 1055
3 988 1053 1055
3 988 1055 990
3 1055 1056 1058
3 1055 1058 1057
3 990 1055 1057
3 990 1057 992
3 1057 1058 1060
3 1057 1060 1059
3 992 1057 1059
3 992 1059 994
3 1059 1060 1062
3 1059 1062 1061
3 994 1059 1061
3 994 1061 996
3 1061 1062 1064
3 1061 1064 1063
3 996 1061 1063
3 996 1063 998
3 1063 1064 1066
3 1063 1066 1065
3 998 1063 1065
3 998 1065 1000
3 1065 1066 1068
3 1065 1068 1067
3 1000 1065 1067
3 1000 1067 1002
3 1067 1068 1070
3 1067 1070 1069
3 1002 1067 1069
3 1002 1069 1004
3 1069 1070 1072
3 1069 1072 1071
3 1004 1069 1071
3 1004 1071 1006
3 1071 1072 1074
3 1071 1074 1073
3 1006 1071 1073
3 1006 1073 1008
3 1073 1074 1076
3 1073 1076 1075
3 1008 1073 1075
3 1008 1075 1010
3 1075 1076 1078
3 1075 1078 1077
3 1010 1075 1077
3 1010 1077 1012
3 1077 1078 1080
3 1077 1080 1015
3 1076 1088 1079
3 1076 1079 1078
3 1078 1079 1081
3 1078 1081 1080
3 1080 1081 1082
3 1080 1082 1018
3 1083 1084 1082
3 1083 1082 1081
3 1085 1083 1081
3 1085 1081 1079
3 1116 1117 1118
3 1118 1119 1124
3 1118 1124 1125
3 1111 1116 1118
3 1109 1110 1111
3 1103 1108 1109
3 1101 1102 1103
3 1095 1100 1101
3 1093 1094 1095
3 1087 1092 1093
3 1085 1086 1087
3 1084 1083 1085
3 1141 1142 1084
3 1135 1140 1141
3 1134 1135 1141
3 1141 1084 1085
3 1085 1087 1093
3 1093 1095 1101
3 1101 1103 1109
3 1109 1111 1118
3 1109 1118 1125
3 1093 1101 1109
3 1141 1085 1093
3 1134 1141 1093
3 1109 1125 1126
3 1109 1126 1127
3 1133 1134 1093
3 1109 1127 1132
3 1132 1133 1093
3 1132 1093 1109
3 1086 1085 1079
3 1086 1079 1088
3 1087 1086 1088
3 1087 1088 1089
3 1074 1089 1088
3 1074 1088 1076
3 1072 1090 1089
3 1072 1089 1074
3 1092 1087 1089
3 1092 1089 1090
3 1070 1091 1090
3 1070 1090 1072
3 1093 1092 1090
3 1093 1090 1091
3 1094 1093 1091
3 1094 1091 1096
3 1095 1094 1096
3 1095 1096 1097
3 1066 1097 1096
3 1066 1096 1068
3 1068 1096 1091
3 1068 1091 1070
3 1064 1098 1097
3 1064 1097 1066
3 1100 1095 1097
3 1100 1097 1098
3 1062 1099 1098
3 1062 1098 1064
3 1101 1100 1098
3 1101 1098 1099
3 1102 1101 1099
3 1102 1099 1104
3 1103 1102 1104
3 1103 1104 1105
3 1058 1105 1104
3 1058 1104 1060
3 1060 1104 1099
3 1060 1099 1062
3 1056 1106 1105
3 1056 1105 1058
3 1108 1103 1105
3 1108 1105 1106
3 1054 1107 1106
3 1054 1106 1056
3 1109 1108 1106
3 1109 1106 1107
3 1110 1109 1107
3 1110 1107 1112
3 1111 1110 1112
3 1111 1112 1113
3 1050 1113 1112
3 1050 1112 1052
3 1052 1112 1107
3 1052 1107 1054
3 1048 1114 1113
3 1048 1113 1050
3 1116 1111 1113
3 1116 1113 1114
3 1046 1115 1114
3 1046 1114 1048
3 1117 1116 1114
3 1117 1114 1115
3 1118 1117 1115
3 1118 1115 1120
3 1119 1118 1120
3 1119 1120 1121
3 1042 1121 1120
3 1042 1120 1044
3 1044 1120 1115
3 1044 1115 1046
3 1040 1122 1121
3 1040 1121 1042
3 1124 1119 1121
3 1124 1121 1122
3 1038 1123 1122
3 1038 1122 1040
3 1125 1124 1122
3 1125 1122 1123
3 1126 1125 1123
3 1126 1123 1128
3 1127 1126 1128
3 1127 1128 1129
3 1034 1129 1128
3 1034 1128 1036
3 1036 1128 1123
3 1036 1123 1038
3 1032 1130 1129
3 1032 1129 1034
3 1132 1127 1129
3 1132 1129 1130
3 1030 1131 1130
3 1030 1130 1032
3 1133 1132 1130
3 1133 1130 1131
3 1134 1133 1131
3 1134 1131 1136
3 1135 1134 1136
3 1135 1136 1137
3 1026 1137 1136
3 1026 1136 1028
3 1028 1136 1131
3 1028 1131 1030
3 1024 1138 1137
3 1024 1137 1026
3 1140 1135 1137
3 1140 1137 1138
3 1022 1139 1138
3 1022 1138 1024
3 1141 1140 1138
3 1141 1138 1139
3 1142 1141 1139
3 1142 1139 1143
3 1084 1142 1143
3 1084 1143 1082
3 1018 1082 1143
3 1018 1143 1020
3 1020 1143 1139
3 1020 1139 1022
3 1144 1145 114
3 1144 114 117
3 23 1144 117
3 23 117 26
3 1146 1147 1145
3 1146 1145 1144
3 20 1146 1144
3 20 1144 23
3 1148 1149 1147
3 1148 1147 1146
3 17 1148 1146
3 17 1146 20
3 1150 1151 1149
3 1150 1149 1148
3 14 1150 1148
3 14 1148 17
3 1152 1153 1151
3 1152 1151 1150
3 11 1152 1150
3 11 1150 14
3 1154 1155 1153
3 1154 1153 1152
3 8 1154 1152
3 8 1152 11
3 1156 1157 1155
3 1156 1155 1154
3 5 1156 1154
3 5 1154 8
3 1158 1159 1157
3 1158 1157 1156
3 2 1158 1156
3 2 1156 5
3 1159 1160 1162
3 1159 1162 1157
3 1160 1161 1163
3 1160 1163 1162
3 1162 1163 1165
3 1162 1165 1164
3 1157 1162 1164
3 1157 1164 1155
3 1164 1165 1167
3 1164 1167 1166
3 1155 1164 1166
3 1155 1166 1153
3 1166 1167 1169
3 1166 1169 1168
3 1153 1166 1168
3 1153 1168 1151
3 1168 1169 1171
3 1168 1171 1170
3 1151 1168 1170
3 1151 1170 1149
3 1170 1171 1173
3 1170 1173 1172
3 1149 1170 1172
3 1149 1172 1147
3 1172 1173 1175
3 1172 1175 1174
3 1147 1172 1174
3 1147 1174 1145
3 1174 1175 108
3 1174 108 111
3 1145 1174 111
3 1145 111 114
3 1173 1178 1176
3 1173 1176 1175
3 1175 1176 105
3 1175 105 108
3 1178 1179 1177
3 1178 1177 1176
3 1176 1177 102
3 1176 102 105
3 1180 1181 1179
3 1180 1179 1178
3 1171 1180 1178
3 1171 1178 1173
3 1182 1183 1181
3 1182 1181 1180
3 1169 1182 1180
3 1169 1180 1171
3 1184 1185 1183
3 1184 1183 1182
3 1167 1184 1182
3 1167 1182 1169
3 1186 1187 1185
3 1186 1185 1184
3 1165 1186 1184
3 1165 1184 1167
3 1188 1189 1187
3 1188 1187 1186
3 1163 1188 1186
3 1163 1186 1165
3 1190 1191 1189
3 1190 1189 1188
3 1161 1190 1188
3 1161 1188 1163
3 1191 1192 1194
3 1191 1194 1189
3 1192 1193 1195
3 1192 1195 1194
3 1194 1195 1197
3 1194 1197 1196
3 1189 1194 1196
3 1189 1196 1187
3 1196 1197 1199
3 1196 1199 1198
3 1187 1196 1198
3 1187 1198 1185
3 1198 1199 1201
3 1198 1201 1200
3 1185 1198 1200
3 1185 1200 1183
3 1200 1201 1203
3 1200 1203 1202
3 1183 1200 1202
3 1183 1202 1181
3 1202 1203 1205
3 1202 1205 1204
3 1181 1202 1204
3 1181 1204 1179
3 1204 1205 1207
3 1204 1207 1206
3 1179 1204 1206
3 1179 1206 1177
3 1206 1207 96
3 1206 96 99
3 1177 1206 99
3 1177 99 102
3 1205 1210 1208
3 1205 1208 1207
3 1207 1208 93
3 1207 93 96
3 1210 1211 1209
3 1210 1209 1208
3 1208 1209 90
3 1208 90 93
3 1212 1213 1211
3 1212 1211 1210
3 1203 1212 1210
3 1203 1210 1205
3 1214 1215 1213
3 1214 1213 1212
3 1201 1214 1212
3 1201 1212 1203
3 1216 1217 1215
3 1216 1215 1214
3 1199 1216 1214
3 1199 1214 1201
3 1218 1219 1217
3 1218 1217 1216
3 1197 1218 1216
3 1197 1216 1199
3 1220 1221 1219
3 1220 1219 1218
3 1195 1220 1218
3 1195 1218 1197
3 1222 1223 1221
3 1222 1221 1220
3 1193 1222 1220
3 1193 1220 1195
3 1223 1224 1226
3 1223 1226 1221
3 1224 1225 1227
3 1224 1227 1226
3 1226 1227 1229
3 1226 1229 1228
3 1221 1226 1228
3 1221 1228 1219
3 1228 1229 1231
3 1228 1231 1230
3 1219 1228 1230
3 1219 1230 1217
3 1230 1231 1233
3 1230 1233 1232
3 1217 1230 1232
3 1217 1232 1215
3 1232 1233 1235
3 1232 1235 1234
3 1215 1232 1234
3 1215 1234 1213
3 1234 1235 1237
3 1234 1237 1236
3 1213 1234 1236
3 1213 1236 1211
3 1236 1237 1239
3 1236 1239 1238
3 1211 1236 1238
3 1211 1238 1209
3 1238 1239 84
3 1238 84 87
3 1209 1238 87
3 1209 87 90
3 1237 1242 1240
3 1237 1240 1239
3 1239 1240 81
3 1239 81 84
3 1242 1243 1241
3 1242 1241 1240
3 1240 1241 78
3 1240 78 81
3 1244 1245 1243
3 1244 1243 1242
3 1235 1244 1242
3 1235 1242 1237
3 1246 1247 1245
3 1246 1245 1244
3 1233 1246 1244
3 1233 1244 1235
3 1248 1249 1247
3 1248 1247 1246
3 1231 1248 1246
3 1231 1246 1233
3 1250 1251 1249
3 1250 1249 1248
3 1229 1250 1248
3 1229 1248 1231
3 1252 1253 1251
3 1252 1251 1250
3 1227 1252 1250
3 1227 1250 1229
3 1254 1255 1253
3 1254 1253 1252
3 1225 1254 1252
3 1225 1252 1227
3 1255 1256 1258
3 1255 1258 1253
3 1256 1257 1259
3 1256 1259 1258
3 1258 1259 1261
3 1258 1261 1260
3 1253 1258 1260
3 1253 1260 1251
3 1260 1261 1263
3 1260 1263 1262
3 1251 1260 1262
3 1251 1262 1249
3 1262 1263 1265
3 1262 1265 1264
3 1249 1262 1264
3 1249 1264 1247
3 1264 1265 1267
3 1264 1267 1266
3 1247 1264 1266
3 1247 1266 1245
3 1266 1267 1269
3 1266 1269 1268
3 1245 1266 1268
3 1245 1268 1243
3 1268 1269 1271
3 1268 1271 1270
3 1243 1268 1270
3 1243 1270 1241
3 1270 1271 72
3 1270 72 75
3 1241 1270 75
3 1241 75 78
3 1269 1274 1272
3 1269 1272 1271
3 1271 1272 69
3 1271 69 72
3 1274 1275 1273
3 1274 1273 1272
3 1272 1273 66
3 1272 66 69
3 1276 1277 1275
3 1276 1275 1274
3 1267 1276 1274
3 1267 1274 1269
3 1278 1279 1277
3 1278 1277 1276
3 1265 1278 1276
3 1265 1276 1267
3 1280 1281 1279
3 1280 1279 1278
3 1263 1280 1278
3 1263 1278 1265
3 1282 1283 1281
3 1282 1281 1280
3 1261 1282 1280
3 1261 1280 1263
3 1284 1285 1283
3 1284 1283 1282
3 1259 1284 1282
3 1259 1282 1261
3 1286 1287 1285
3 1286 1285 1284
3 1257 1286 1284
3 1257 1284 1259
3 1287 1288 1290
3 1287 1290 1285
3 1288 1289 1291
3 1288 1291 1290
3 1290 1291 1293
3 1290 1293 1292
3 1285 1290 1292
3 1285 1292 1283
3 1292 1293 1295
3 1292 1295 1294
3 1283 1292 1294
3 1283 1294 1281
3 1294 1295 1297
3 1294 1297 1296
3 1281 1294 1296
3 1281 1296 1279
3 1296 1297 1299
3 1296 1299 1298
3 1279 1296 1298
3 1279 1298 1277
3 1298 1299 1301
3 1298 1301 1300
3 1277 1298 1300
3 1277 1300 1275
3 1300 1301 1303
3 1300 1303 1302
3 1275 1300 1302
3 1275 1302 1273
3 1302 1303 60
3 1302 60 63
3 1273 1302 63
3 1273 63 66
3 1301 1306 1304
3 1301 1304 1303
3 1303 1304 57
3 1303 57 60
3 1306 1307 1305
3 1306 1305 1304
3 1304 1305 54
3 1304 54 57
3 1308 1309 1307
3 1308 1307 1306
3 1299 1308 1306
3 1299 1306 1301
3 1310 1311 1309
3 1310 1309 1308
3 1297 1310 1308
3 1297 1308 1299
3 1312 1313 1311
3 1312 1311 1310
3 1295 1312 1310
3 1295 1310 1297
3 1314 1315 1313
3 1314 1313 1312
3 1293 1314 1312
3 1293 1312 1295
3 1316 1317 1315
3 1316 1315 1314
3 1291 1316 1314
3 1291 1314 1293
3 1318 1319 1317
3 1318 1317 1316
3 1289 1318 1316
3 1289 1316 1291
3 1319 1320 1322
3 1319 1322 1317
3 1320 1321 1323
3 1320 1323 1322
3 1322 1323 1325
3 1322 1325 1324
3 1317 1322 1324
3 1317 1324 1315
3 1324 1325 1327
3 1324 1327 1326
3 1315 1324 1326
3 1315 1326 1313
3 1326 1327 1329
3 1326 1329 1328
3 1313 1326 1328
3 1313 1328 1311
3 1328 1329 1331
3 1328 1331 1330
3 1311 1328 1330
3 1311 1330 1309
3 1330 1331 1333
3 1330 1333 1332
3 1309 1330 1332
3 1309 1332 1307
3 1332 1333 1335
3 1332 1335 1334
3 1307 1332 1334
3 1307 1334 1305
3 1334 1335 48
3 1334 48 51
3 1305 1334 51
3 1305 51 54
3 1333 1338 1335
3 1338 1336 1335
3 1335 1336 45
3 1335 45 48
3 1338 1339 1337
3 1338 1337 1336
3 1336 1337 42
3 1336 42 45
3 1340 1341 1339
3 1340 1339 1338
3 1331 1340 1338
3 1331 1338 1333
3 1342 1343 1340
3 1343 1341 1340
3 1329 1342 1340
3 1329 1340 1331
3 1344 1345 1343
3 1344 1343 1342
3 1327 1344 1342
3 1327 1342 1329
3 1346 1347 1345
3 1346 1345 1344
3 1325 1346 1344
3 1325 1344 1327
3 1348 1349 1347
3 1348 1347 1346
3 1323 1348 1346
3 1323 1346 1325
3 1350 1351 1349
3 1350 1349 1348
3 1321 1350 1348
3 1321 1348 1323
3 1351 1352 1354
3 1351 1354 1349
3 1352 1353 1355
3 1352 1355 1354
3 1354 1355 1357
3 1354 1357 1356
3 1349 1354 1356
3 1349 1356 1347
3 1356 1357 1359
3 1356 1359 1358
3 1347 1356 1358
3 1347 1358 1345
3 1358 1359 1361
3 1358 1361 1360
3 1345 1358 1360
3 1345 1360 1343
3 1360 1361 1363
3 1360 1363 1362
3 1343 1360 1362
3 1343 1362 1341
3 1362 1363 1365
3 1362 1365 1364
3 1341 1362 1339
3 1362 1364 1339
3 1364 1365 1367
3 1364 1367 1366
3 1339 1364 1366
3 1339 1366 1337
3 1366 1367 36
3 1366 36 39
3 1337 1366 39
3 1337 39 42
3 1365 1369 1368
3 1365 1368 1367
3 1367 1368 33
3 1367 33 36
3 1369 19 22
3 1369 22 1368
3 1368 22 25
3 1368 25 33
3 1370 16 19
3 1370 19 1369
3 1363 1370 1369
3 1363 1369 1365
3 1371 13 16
3 1371 16 1370
3 1361 1371 1370
3 1361 1370 1363
3 1372 10 13
3 1372 13 1371
3 1359 1372 1371
3 1359 1371 1361
3 1373 7 10
3 1373 10 1372
3 1357 1373 1372
3 1357 1372 1359
3 1374 4 7
3 1374 7 1373
3 1355 1374 1373
3 1355 1373 1357
3 1375 1 4
3 1375 4 1374
3 1353 1375 1374
3 1353 1374 1355
