ply
format ascii 1.0
element vertex 514
property float x
property float y
property float z
element face 1024
property list uchar int vertex_index
end_header
-0.588554 2.266891 0.006613
-0.641452 2.274587 0.145028
-0.597854 2.301804 -0.002897
-0.587991 2.238362 -0.151670
-0.580577 2.230364 0.010136
-0.626127 2.207257 0.151418
-0.574325 2.193638 0.007545
-0.613810 2.139656 0.146466
-0.569512 2.158305 -0.001093
-0.603834 2.074728 0.130294
-0.565985 2.125867 -0.015462
-0.596049 2.015213 0.103494
-0.563787 2.097650 -0.035003
-0.590761 1.963500 0.067118
-0.562859 2.074811 -0.058952
-0.587998 1.921689 0.022604
-0.563152 2.058259 -0.086362
-0.587797 1.891411 -0.028246
-0.564672 2.048627 -0.116149
-0.590377 1.873764 -0.083344
-0.567302 2.046296 -0.147151
-0.595711 1.869401 -0.140424
-0.570896 2.051368 -0.178184
-0.603553 1.878561 -0.197175
-0.575195 2.063666 -0.208099
-0.613497 1.901041 -0.251392
-0.580068 2.082658 -0.235811
-0.625255 1.935985 -0.301154
-0.585414 2.107503 -0.260330
-0.638134 1.981809 -0.345034
-0.591263 2.137086 -0.280757
-0.650833 2.036266 -0.382023
-0.597649 2.170135 -0.296297
-0.662442 2.096811 -0.410906
-0.604865 2.205252 -0.306272
-0.674296 2.160931 -0.429954
-0.612721 2.241126 -0.310232
-0.687483 2.226535 -0.437845
-0.621158 2.276417 -0.307961
-0.701962 2.291518 -0.434301
-0.629318 2.309970 -0.299545
-0.715979 2.353730 -0.419586
-0.636592 2.340623 -0.285305
-0.728601 2.410768 -0.394031
-0.642615 2.367249 -0.265778
-0.739338 2.460361 -0.358418
-0.646975 2.388879 -0.241725
-0.747352 2.500649 -0.314169
-0.649367 2.404710 -0.214093
-0.751969 2.530119 -0.263133
-0.649653 2.414132 -0.183970
-0.752962 2.547600 -0.207402
-0.647696 2.416792 -0.152546
-0.750087 2.552425 -0.149229
-0.643460 2.412599 -0.121060
-0.743050 2.544477 -0.090936
-0.636941 2.401734 -0.090752
-0.731627 2.524159 -0.034836
-0.628464 2.384568 -0.062794
-0.716291 2.492217 0.016889
-0.618640 2.361654 -0.038247
-0.698177 2.449705 0.062275
-0.608196 2.333749 -0.018031
-0.678695 2.398036 0.099623
-0.799369 2.423692 0.182651
-0.659214 2.338998 0.127542
-0.776427 2.345642 0.219347
-0.946044 2.327970 0.283351
-0.753650 2.261256 0.242225
-0.919932 2.230901 0.309656
-0.731871 2.173786 0.250406
-0.894248 2.130528 0.318988
-0.712036 2.086574 0.243594
-0.870014 2.030628 0.311023
-0.694439 2.003077 0.222045
-0.848099 1.934994 0.286098
-0.679675 1.926595 0.186592
-0.829396 1.847365 0.245176
-0.668443 1.860137 0.138630
-0.814701 1.771194 0.189846
-0.661189 1.806346 0.080052
-0.804652 1.709472 0.122272
-0.658285 1.767339 0.013207
-0.799717 1.664607 0.045118
-0.660063 1.744592 -0.059185
-0.800189 1.638313 -0.038558
-0.666563 1.738923 -0.134130
-0.806150 1.631596 -0.125411
-0.677713 1.750561 -0.208487
-0.817593 1.644750 -0.211921
-0.693538 1.779276 -0.279183
-0.834503 1.677401 -0.294563
-0.713931 1.824194 -0.343505
-0.856503 1.728415 -0.370136
-0.737358 1.883383 -0.399652
-0.881764 1.795556 -0.436332
-0.759925 1.953526 -0.447023
-0.907031 1.875436 -0.491741
-0.778267 2.030985 -0.484690
-0.930268 1.964521 -0.534622
-0.794397 2.113290 -0.509782
-0.952390 2.059959 -0.562394
-0.811249 2.198553 -0.519866
-0.974527 2.158962 -0.573163
-0.828187 2.284140 -0.515276
-0.995939 2.257957 -0.566758
-0.843403 2.366608 -0.496623
-1.015371 2.352929 -0.543609
-0.856890 2.442317 -0.463700
-1.032278 2.440043 -0.504251
-0.868388 2.508159 -0.417332
-1.046090 2.515876 -0.450000
-0.876933 2.561627 -0.359515
-1.056061 2.577504 -0.383029
-0.881691 2.600696 -0.292780
-1.061557 2.622551 -0.306056
-0.882269 2.623861 -0.219906
-1.062204 2.649267 -0.222154
-0.878449 2.630225 -0.143823
-1.057865 2.656614 -0.134624
-0.870162 2.619550 -0.067532
-1.048630 2.644300 -0.046871
-0.857487 2.592266 0.005986
-1.034793 2.612775 0.037709
-0.840894 2.549389 0.073878
-1.016860 2.563212 0.115842
-0.821187 2.492491 0.133529
-0.995514 2.497454 0.184518
-1.166777 2.488574 0.222691
-0.971594 2.417994 0.241089
-1.140812 2.402052 0.284312
-1.211986 2.361175 0.258442
-1.113008 2.303926 0.330370
-1.186295 2.270554 0.300987
-1.084496 2.198172 0.359025
-1.159901 2.172727 0.327485
-1.056387 2.088877 0.369157
-1.133866 2.071606 0.336864
-1.029715 1.980033 0.360452
-1.109140 1.970872 0.328837
-1.005493 1.875738 0.333288
-1.086664 1.874333 0.303739
-0.984716 1.780167 0.288675
-1.067356 1.785864 0.262503
-0.968238 1.697116 0.228326
-1.052002 1.708979 0.206711
-0.956735 1.629824 0.154582
-1.041227 1.646700 0.138508
-0.950684 1.580872 0.070342
-1.035456 1.601387 0.060548
-0.950331 1.552021 -0.021091
-1.034896 1.574627 -0.024110
-0.955769 1.544441 -0.116164
-1.039612 1.567488 -0.112196
-0.966915 1.558510 -0.211163
-1.049499 1.580380 -0.200329
-0.983470 1.593704 -0.302355
-1.064208 1.612827 -0.285110
-1.004779 1.648652 -0.386294
-1.083108 1.663520 -0.363309
-1.029538 1.721073 -0.460025
-1.105249 1.730353 -0.432011
-1.055990 1.807774 -0.521069
-1.129487 1.810524 -0.488679
-1.082903 1.905342 -0.567174
-1.154829 1.900974 -0.531192
-1.109830 2.010390 -0.596351
-1.180516 1.998466 -0.557889
-1.136364 2.119184 -0.607249
-1.205790 2.099372 -0.567675
-1.161615 2.227470 -0.599363
-1.229746 2.199676 -0.560068
-1.184564 2.330978 -0.572977
-1.251474 2.295460 -0.535321
-1.204383 2.425821 -0.529074
-1.270189 2.383188 -0.494399
-1.220326 2.508413 -0.469307
-1.285190 2.459571 -0.438870
-1.231715 2.575586 -0.395987
-1.295883 2.521722 -0.370881
-1.238018 2.624727 -0.311943
-1.301808 2.567199 -0.293048
-1.238885 2.653813 -0.220426
-1.302658 2.594092 -0.208339
-1.234244 2.661759 -0.125001
-1.298375 2.601375 -0.120032
-1.224256 2.648319 -0.029370
-1.289137 2.588880 -0.031562
-1.209282 2.613999 0.062789
-1.275292 2.557113 0.053653
-1.189885 2.560092 0.147898
-1.257356 2.507257 0.132340
-1.434463 2.495390 0.161478
-1.235992 2.441142 0.201483
-1.411564 2.424519 0.235551
-1.385869 2.338969 0.296525
-1.357500 2.530560 0.310359
-1.219439 2.652296 0.374758
-1.325816 2.425074 0.385511
-1.385719 2.617897 0.219076
-1.252658 2.755113 0.267294
-1.409410 2.683807 0.115160
-1.280543 2.832693 0.144956
-1.453695 2.548889 0.077155
-1.427697 2.725877 0.002577
-1.302062 2.882198 0.012413
-1.468548 2.583055 -0.014195
-1.439884 2.742508 -0.114346
-1.316403 2.901759 -0.125250
-1.478453 2.596571 -0.109053
-1.445466 2.732888 -0.231065
-1.322971 2.890424 -0.262685
-1.482999 2.588776 -0.203730
-1.444232 2.697362 -0.343083
-1.321522 2.848593 -0.394588
-1.482018 2.559954 -0.294577
-1.436249 2.637293 -0.446077
-1.312145 2.777873 -0.515867
-1.475561 2.511215 -0.378094
-1.421858 2.555024 -0.536082
-1.295262 2.681017 -0.621826
-1.463902 2.444463 -0.451067
-1.401709 2.453960 -0.609683
-1.271673 2.562026 -0.708413
-1.447566 2.362470 -0.510742
-1.376612 2.338028 -0.664059
-1.242380 2.425534 -0.772273
-1.427201 2.268418 -0.554836
-1.347487 2.211487 -0.697080
-1.208478 2.276592 -0.810925
-1.403547 2.165750 -0.581619
-1.315367 2.078908 -0.707422
-1.171151 2.120617 -0.822870
-1.377442 2.058176 -0.590017
-1.281477 1.945433 -0.694717
-1.131912 1.963707 -0.807652
-1.349873 1.949866 -0.579738
-1.247100 1.816431 -0.659572
-1.092239 1.812111 -0.765929
-1.321898 1.845194 -0.551275
-1.213307 1.696589 -0.603360
-1.052873 1.671104 -0.699530
-1.294458 1.747996 -0.505713
-1.181279 1.590535 -0.528322
-1.014705 1.546053 -0.611392
-1.268553 1.662009 -0.444832
-1.152303 1.502243 -0.437252
-0.979590 1.441798 -0.504674
-1.245188 1.590446 -0.370918
-1.127787 1.435400 -0.333582
-0.949933 1.362880 -0.383018
-1.225413 1.536274 -0.286795
-1.108858 1.392751 -0.221245
-0.927224 1.312555 -0.250957
-1.210107 1.501709 -0.195673
-1.096268 1.375981 -0.104559
-0.912187 1.292754 -0.113655
-1.199898 1.488118 -0.101039
-1.090414 1.385538 0.012018
-0.905168 1.303974 0.023574
-1.195130 1.495871 -0.006493
-1.091466 1.420989 0.123996
-0.906323 1.345698 0.155406
-1.195955 1.524615 0.084331
-1.099358 1.480963 0.227055
-0.915561 1.416314 0.276737
-1.202324 1.573241 0.167933
-1.113774 1.563179 0.317215
-0.932505 1.513135 0.382877
-1.213985 1.639904 0.241083
-1.134210 1.664713 0.390936
-0.956549 1.632703 0.469663
-1.230532 1.722241 0.300901
-1.159876 1.781688 0.445368
-0.986759 1.770454 0.533738
-1.251325 1.817106 0.345072
-1.189720 1.909394 0.478462
-1.021895 1.920847 0.572686
-1.275509 1.920670 0.371935
-1.222503 2.042606 0.489020
-1.060493 2.077719 0.585107
-1.302083 2.028708 0.380510
-1.256975 2.176254 0.476616
-1.101080 2.235097 0.570498
-1.330033 2.137113 0.370451
-1.291888 2.305498 0.441635
-1.142185 2.387280 0.529313
-1.358347 2.241957 0.342068
-1.000624 2.415804 0.507520
-1.182129 2.528068 0.463240
-1.039823 2.553873 0.442761
-1.076462 2.675632 0.356074
-0.885506 2.565844 0.400199
-0.745710 2.559610 0.339610
-0.848111 2.435914 0.461161
-0.920734 2.680393 0.318599
-0.779353 2.662582 0.266075
-0.951731 2.775289 0.219466
-1.109035 2.776404 0.250795
-0.977450 2.846950 0.106600
-0.808406 2.748055 0.176658
-0.831867 2.812767 0.074798
-0.687030 2.688429 0.120402
-0.577401 2.594364 0.047554
-0.662173 2.616244 0.195923
-0.707191 2.743083 0.034376
-0.722701 2.777942 -0.058791
-0.592538 2.635449 -0.017028
-0.604340 2.661633 -0.086947
-0.501447 2.525277 -0.066011
-0.431684 2.407704 -0.114698
-0.491383 2.497504 -0.022425
-0.509276 2.543002 -0.113189
-0.514563 2.549997 -0.162126
-0.435853 2.416640 -0.138619
-0.438719 2.420154 -0.163435
-0.395641 2.277366 -0.162439
-0.427314 2.334468 -0.279343
-0.399220 2.299684 -0.037695
-0.406179 2.327223 -0.045191
-0.413295 2.352677 -0.057166
-0.420153 2.375105 -0.073170
-0.426384 2.393678 -0.092596
-0.440182 2.418111 -0.188180
-0.440208 2.410595 -0.211894
-0.438823 2.397895 -0.233654
-0.436109 2.380503 -0.252614
-0.432211 2.359086 -0.268042
-0.421647 2.307581 -0.286090
-0.415502 2.279424 -0.288029
-0.409207 2.251030 -0.285098
-0.402980 2.223471 -0.277430
-0.396996 2.197806 -0.265347
-0.391340 2.175060 -0.249335
-0.386150 2.156143 -0.230010
-0.381601 2.141808 -0.208096
-0.377893 2.132607 -0.184403
-0.375151 2.128901 -0.159813
-0.373465 2.130834 -0.135256
-0.372893 2.138333 -0.111668
-0.373473 2.151110 -0.089961
-0.375216 2.168679 -0.070977
-0.378101 2.190366 -0.055460
-0.382056 2.215336 -0.044017
-0.386972 2.242612 -0.037096
-0.392732 2.271108 -0.034962
-0.424632 2.255890 0.091000
-0.476644 2.236460 0.215489
-0.412841 2.199872 0.086704
-0.437802 2.312111 0.085688
-0.496576 2.319746 0.207665
-0.451765 2.366348 0.070969
-0.517599 2.400115 0.185885
-0.465923 2.416517 0.047403
-0.538933 2.474453 0.150988
-0.479368 2.460783 0.015872
-0.559281 2.540007 0.104288
-0.633681 2.529259 0.258039
-0.604119 2.430483 0.304447
-0.710623 2.442687 0.394542
-0.575476 2.323522 0.333413
-0.676380 2.316103 0.428810
-0.548824 2.212500 0.343822
-0.644275 2.184729 0.441098
-0.524731 2.101821 0.335249
-0.614708 2.053804 0.430889
-0.458628 2.153492 0.209057
-0.502670 1.996112 0.307938
-0.587288 1.928725 0.398493
-0.442562 2.074244 0.188579
-0.484179 1.899348 0.262991
-0.563970 1.814182 0.345209
-0.429474 2.001742 0.154875
-0.471075 1.815079 0.202225
-0.547072 1.714360 0.273178
-0.420407 1.938715 0.109300
-0.463741 1.746666 0.128015
-0.537330 1.633187 0.185201
-0.415453 1.887658 0.053652
-0.461141 1.697142 0.043220
-0.533450 1.574263 0.084619
-0.414024 1.850658 -0.009866
-0.463408 1.668460 -0.048733
-0.535184 1.540027 -0.024606
-0.416004 1.829048 -0.078651
-0.470653 1.661457 -0.143975
-0.542636 1.531601 -0.138008
-0.421368 1.823530 -0.149840
-0.483003 1.675972 -0.238309
-0.556138 1.548841 -0.250716
-0.430437 1.834252 -0.220450
-0.501919 1.711580 -0.327506
-0.577539 1.591259 -0.357647
-0.443964 1.860854 -0.287544
-0.528521 1.767627 -0.407661
-0.608761 1.658484 -0.453710
-0.462271 1.902464 -0.348508
-0.562377 1.842709 -0.475624
-0.650095 1.749493 -0.534460
-0.483920 1.957689 -0.401654
-0.596296 1.933286 -0.532568
-0.692379 1.858811 -0.600856
-0.504912 2.024212 -0.446647
-0.616572 2.031883 -0.581586
-0.715501 1.974051 -0.659091
-0.521354 2.098656 -0.482768
-0.629058 2.135297 -0.616190
-0.730368 2.094498 -0.700437
-0.534949 2.177954 -0.507179
-0.648578 2.242320 -0.628545
-0.756231 2.221143 -0.713862
-0.549240 2.259770 -0.517365
-0.668343 2.351344 -0.623697
-0.781444 2.350218 -0.707317
-0.564157 2.341665 -0.513314
-0.684054 2.457329 -0.602671
-0.801008 2.475070 -0.681945
-0.577829 2.420634 -0.495514
-0.699911 2.554070 -0.561917
-0.820793 2.589227 -0.632800
-0.590327 2.493093 -0.464028
-0.715627 2.637652 -0.503040
-0.840099 2.688041 -0.562390
-0.601556 2.555946 -0.419791
-0.728839 2.705154 -0.429380
-0.856395 2.767868 -0.474748
-0.610365 2.606832 -0.364707
-0.736651 2.754420 -0.344495
-0.866304 2.826096 -0.373991
-0.615335 2.643975 -0.301187
-0.738150 2.783623 -0.251965
-0.868412 2.860632 -0.264304
-0.733323 2.791595 -0.155479
-0.616027 2.665956 -0.231859
-0.517141 2.545990 -0.210915
-0.612321 2.671922 -0.159497
-0.516981 2.531134 -0.257640
-0.514165 2.506005 -0.300456
-0.508866 2.471584 -0.337667
-0.501495 2.429199 -0.367795
-0.492496 2.380514 -0.389670
-0.482195 2.327472 -0.402492
-0.471056 2.272116 -0.405810
-0.459781 2.216437 -0.399520
-0.448409 2.162455 -0.383996
-0.436775 2.112129 -0.360087
-0.424753 2.067467 -0.328906
-0.413063 2.030344 -0.291562
-0.402760 2.002291 -0.249212
-0.394662 1.984362 -0.203231
-0.388935 1.977201 -0.155269
-0.385452 1.981029 -0.107150
-0.384129 1.995681 -0.060761
-0.385067 2.020627 -0.017953
-0.388411 2.054973 0.019553
-0.394295 2.097420 0.050259
-0.402589 2.146345 0.072944
-0.862678 2.870109 -0.150011
-1.010848 2.910553 -0.142580
-0.850039 2.854005 -0.035517
-0.997355 2.892623 -0.015652
-1.157432 2.900912 0.001099
-1.171505 2.920004 -0.133744
-1.136350 2.852433 0.130942
-1.177972 2.908880 -0.268369
-1.176578 2.867901 -0.397564
-1.017060 2.900063 -0.269292
-1.015540 2.861553 -0.390881
-1.006390 2.796517 -0.502599
-1.167429 2.798643 -0.516321
-0.990390 2.707464 -0.599987
-1.151012 2.703838 -0.620010
-0.969348 2.597749 -0.678929
-1.128276 2.587265 -0.704544
-0.944840 2.471597 -0.735793
-1.100335 2.453444 -0.766516
-0.917685 2.334002 -0.768336
-1.068253 2.307456 -0.803567
-0.886693 2.190783 -0.777456
-1.032913 2.154912 -0.814643
-0.855190 2.048287 -0.762188
-0.996198 2.001944 -0.799153
-0.828397 1.911872 -0.719760
-0.959961 1.854368 -0.757168
-0.798572 1.783436 -0.655822
-0.923145 1.716742 -0.691320
-0.758304 1.665762 -0.577616
-0.884466 1.593700 -0.605666
-0.715672 1.566759 -0.485189
-0.846860 1.490782 -0.502915
-0.682641 1.492743 -0.376602
-0.815677 1.413041 -0.384991
-0.659441 1.445902 -0.256549
-0.792439 1.363560 -0.256237
-0.644539 1.427222 -0.130760
-0.777179 1.343996 -0.122016
-0.637087 1.437158 -0.004625
-0.769912 1.354864 0.012273
-0.636950 1.475374 0.116720
-0.770707 1.395651 0.141343
-0.644032 1.540466 0.228454
-0.779464 1.464791 0.260158
-0.658140 1.629931 0.326202
-0.795816 1.559687 0.364091
-0.679329 1.740227 0.406180
-0.819205 1.676805 0.449089
-0.706649 1.867069 0.465291
-0.848673 1.811634 0.511867
-0.738518 2.005550 0.501248
-0.882978 1.958820 0.550043
-0.773301 2.150283 0.512671
-0.920674 2.112489 0.562199
-0.810218 2.295594 0.499138
-0.960382 2.266746 0.547856
3 1 65 2
3 1 2 0
3 5 1 0
3 5 0 4
3 0 2 3
3 4 0 3
3 7 5 4
3 7 4 6
3 6 4 3
3 9 7 6
3 9 6 8
3 8 6 3
3 11 9 8
3 11 8 10
3 10 8 3
3 13 11 10
3 13 10 12
3 12 10 3
3 15 13 12
3 15 12 14
3 14 12 3
3 17 15 14
3 17 14 16
3 16 14 3
3 19 17 16
3 19 16 18
3 18 16 3
3 21 19 18
3 21 18 20
3 20 18 3
3 23 21 20
3 23 20 22
3 22 20 3
3 25 23 22
3 25 22 24
3 24 22 3
3 27 25 24
3 27 24 26
3 26 24 3
3 28 26 3
3 29 27 26
3 29 26 28
3 31 29 28
3 31 28 30
3 30 28 3
3 33 31 30
3 33 30 32
3 32 30 3
3 35 33 32
3 35 32 34
3 34 32 3
3 37 35 34
3 37 34 36
3 36 34 3
3 39 37 36
3 39 36 38
3 38 36 3
3 41 39 38
3 41 38 40
3 40 38 3
3 43 41 40
3 43 40 42
3 42 40 3
3 45 43 42
3 45 42 44
3 44 42 3
3 47 45 44
3 47 44 46
3 46 44 3
3 49 47 46
3 49 46 48
3 48 46 3
3 51 49 48
3 51 48 50
3 50 48 3
3 53 51 50
3 53 50 52
3 52 50 3
3 55 53 52
3 55 52 54
3 54 52 3
3 57 55 54
3 57 54 56
3 56 54 3
3 59 57 56
3 59 56 58
3 58 56 3
3 61 59 58
3 61 58 60
3 60 58 3
3 63 61 60
3 63 60 62
3 62 60 3
3 65 63 62
3 65 62 2
3 2 62 3
3 66 64 63
3 66 63 65
3 64 126 61
3 64 61 63
3 68 66 65
3 68 65 1
3 69 67 66
3 69 66 68
3 67 129 64
3 67 64 66
3 70 68 1
3 70 1 5
3 71 69 68
3 71 68 70
3 72 70 5
3 72 5 7
3 73 71 70
3 73 70 72
3 74 72 7
3 74 7 9
3 75 73 72
3 75 72 74
3 76 74 9
3 76 9 11
3 77 75 74
3 77 74 76
3 78 76 11
3 78 11 13
3 79 77 76
3 79 76 78
3 80 78 13
3 80 13 15
3 81 79 78
3 81 78 80
3 82 80 15
3 82 15 17
3 83 81 80
3 83 80 82
3 84 82 17
3 84 17 19
3 85 83 82
3 85 82 84
3 86 84 19
3 86 19 21
3 87 85 84
3 87 84 86
3 88 86 21
3 88 21 23
3 89 87 86
3 89 86 88
3 90 88 23
3 90 23 25
3 91 89 88
3 91 88 90
3 92 90 25
3 92 25 27
3 93 91 90
3 93 90 92
3 94 92 27
3 94 27 29
3 95 93 92
3 95 92 94
3 96 94 29
3 96 29 31
3 97 95 94
3 97 94 96
3 98 96 31
3 98 31 33
3 99 97 96
3 99 96 98
3 100 98 33
3 100 33 35
3 101 99 98
3 101 98 100
3 102 100 35
3 102 35 37
3 103 101 100
3 103 100 102
3 104 102 37
3 104 37 39
3 105 103 102
3 105 102 104
3 106 104 39
3 106 39 41
3 107 105 104
3 107 104 106
3 108 106 41
3 108 41 43
3 109 107 106
3 109 106 108
3 110 108 43
3 110 43 45
3 111 109 108
3 111 108 110
3 112 110 45
3 112 45 47
3 113 111 110
3 113 110 112
3 114 112 47
3 114 47 49
3 115 113 112
3 115 112 114
3 116 114 49
3 116 49 51
3 117 115 114
3 117 114 116
3 118 116 51
3 118 51 53
3 119 117 116
3 119 116 118
3 120 118 53
3 120 53 55
3 121 119 118
3 121 118 120
3 122 120 55
3 122 55 57
3 123 121 120
3 123 120 122
3 124 122 57
3 124 57 59
3 125 123 122
3 125 122 124
3 126 124 59
3 126 59 61
3 127 125 124
3 127 124 126
3 129 127 126
3 129 126 64
3 130 128 127
3 130 127 129
3 128 190 125
3 128 125 127
3 132 130 129
3 132 129 67
3 133 131 130
3 133 130 132
3 131 193 128
3 131 128 130
3 134 132 67
3 134 67 69
3 135 133 132
3 135 132 134
3 136 134 69
3 136 69 71
3 137 135 134
3 137 134 136
3 138 136 71
3 138 71 73
3 139 137 136
3 139 136 138
3 140 138 73
3 140 73 75
3 141 139 138
3 141 138 140
3 142 140 75
3 142 75 77
3 143 141 140
3 143 140 142
3 144 142 77
3 144 77 79
3 145 143 142
3 145 142 144
3 146 144 79
3 146 79 81
3 147 145 144
3 147 144 146
3 148 146 81
3 148 81 83
3 149 147 146
3 149 146 148
3 150 148 83
3 150 83 85
3 151 149 148
3 151 148 150
3 152 150 85
3 152 85 87
3 153 151 150
3 153 150 152
3 154 152 87
3 154 87 89
3 155 153 152
3 155 152 154
3 156 154 89
3 156 89 91
3 157 155 154
3 157 154 156
3 158 156 91
3 158 91 93
3 159 157 156
3 159 156 158
3 160 158 93
3 160 93 95
3 161 159 158
3 161 158 160
3 162 160 95
3 162 95 97
3 163 161 160
3 163 160 162
3 164 162 97
3 164 97 99
3 165 163 162
3 165 162 164
3 166 164 99
3 166 99 101
3 167 165 164
3 167 164 166
3 168 166 101
3 168 101 103
3 169 167 166
3 169 166 168
3 170 168 103
3 170 103 105
3 171 169 168
3 171 168 170
3 172 170 105
3 172 105 107
3 173 171 170
3 173 170 172
3 174 172 107
3 174 107 109
3 175 173 172
3 175 172 174
3 176 174 109
3 176 109 111
3 177 175 174
3 177 174 176
3 178 176 111
3 178 111 113
3 179 177 176
3 179 176 178
3 180 178 113
3 180 113 115
3 181 179 178
3 181 178 180
3 182 180 115
3 182 115 117
3 183 181 180
3 183 180 182
3 184 182 117
3 184 117 119
3 185 183 182
3 185 182 184
3 186 184 119
3 186 119 121
3 187 185 184
3 187 184 186
3 188 186 121
3 188 121 123
3 189 187 186
3 189 186 188
3 190 188 123
3 190 123 125
3 191 189 188
3 191 188 190
3 193 191 190
3 193 190 128
3 194 192 191
3 194 191 193
3 192 203 189
3 192 189 191
3 195 194 193
3 195 193 131
3 198 196 194
3 198 194 195
3 196 199 192
3 196 192 194
3 197 200 199
3 197 199 196
3 289 197 196
3 289 196 198
3 200 202 201
3 200 201 199
3 199 201 203
3 199 203 192
3 202 205 204
3 202 204 201
3 201 204 206
3 201 206 203
3 205 208 207
3 205 207 204
3 204 207 209
3 204 209 206
3 208 211 210
3 208 210 207
3 207 210 212
3 207 212 209
3 211 214 213
3 211 213 210
3 210 213 215
3 210 215 212
3 214 217 216
3 214 216 213
3 213 216 218
3 213 218 215
3 217 220 219
3 217 219 216
3 216 219 221
3 216 221 218
3 220 223 222
3 220 222 219
3 219 222 224
3 219 224 221
3 223 226 225
3 223 225 222
3 222 225 227
3 222 227 224
3 226 229 228
3 226 228 225
3 225 228 230
3 225 230 227
3 229 232 231
3 229 231 228
3 228 231 233
3 228 233 230
3 232 235 234
3 232 234 231
3 231 234 236
3 231 236 233
3 235 238 237
3 235 237 234
3 234 237 239
3 234 239 236
3 238 241 240
3 238 240 237
3 237 240 242
3 237 242 239
3 241 244 243
3 241 243 240
3 240 243 245
3 240 245 242
3 244 247 246
3 244 246 243
3 243 246 248
3 243 248 245
3 247 250 249
3 247 249 246
3 246 249 251
3 246 251 248
3 250 253 252
3 250 252 249
3 249 252 254
3 249 254 251
3 253 256 255
3 253 255 252
3 252 255 257
3 252 257 254
3 256 259 258
3 256 258 255
3 255 258 260
3 255 260 257
3 259 262 261
3 259 261 258
3 258 261 263
3 258 263 260
3 262 265 264
3 262 264 261
3 261 264 266
3 261 266 263
3 265 268 267
3 265 267 264
3 264 267 269
3 264 269 266
3 268 271 270
3 268 270 267
3 267 270 272
3 267 272 269
3 271 274 273
3 271 273 270
3 270 273 275
3 270 275 272
3 274 277 276
3 274 276 273
3 273 276 278
3 273 278 275
3 277 280 279
3 277 279 276
3 276 279 281
3 276 281 278
3 280 283 282
3 280 282 279
3 279 282 284
3 279 284 281
3 283 286 285
3 283 285 282
3 282 285 287
3 282 287 284
3 286 289 198
3 286 198 285
3 285 198 195
3 285 195 287
3 287 195 131
3 287 131 133
3 284 287 133
3 284 133 135
3 513 288 286
3 513 286 283
3 288 290 289
3 288 289 286
3 290 291 197
3 290 197 289
3 292 295 291
3 292 291 290
3 294 292 290
3 294 290 288
3 359 293 292
3 359 292 294
3 293 296 295
3 293 295 292
3 295 297 298
3 295 298 291
3 296 300 297
3 296 297 295
3 297 299 463
3 297 463 298
3 300 301 299
3 300 299 297
3 302 305 301
3 302 301 300
3 304 302 300
3 304 300 296
3 356 303 302
3 356 302 304
3 303 307 305
3 303 305 302
3 305 306 459
3 305 459 301
3 307 308 306
3 307 306 305
3 309 312 308
3 309 308 307
3 311 309 307
3 311 307 303
3 322 310 309
3 322 309 311
3 310 314 312
3 310 312 309
3 312 313 435
3 312 435 308
3 314 315 313
3 314 313 312
3 316 315 314
3 316 314 310
3 316 323 315
3 316 317 327
3 316 328 317
3 316 319 318
3 316 318 345
3 316 320 319
3 316 321 320
3 316 322 321
3 316 310 322
3 316 324 323
3 316 325 324
3 316 326 325
3 316 327 326
3 316 329 328
3 316 330 329
3 316 331 330
3 316 332 331
3 316 333 332
3 316 334 333
3 316 335 334
3 316 336 335
3 316 337 336
3 316 338 337
3 316 339 338
3 316 340 339
3 316 341 340
3 316 342 341
3 316 343 342
3 316 344 343
3 316 345 344
3 344 345 346
3 344 346 348
3 345 318 349
3 345 349 346
3 348 346 347
3 348 347 366
3 346 349 350
3 346 350 347
3 349 351 352
3 349 352 350
3 318 319 351
3 318 351 349
3 351 353 354
3 351 354 352
3 319 320 353
3 319 353 351
3 353 355 356
3 353 356 354
3 320 321 355
3 320 355 353
3 355 311 303
3 355 303 356
3 321 322 311
3 321 311 355
3 354 356 304
3 354 304 357
3 352 354 357
3 352 357 358
3 358 357 293
3 358 293 359
3 357 304 296
3 357 296 293
3 360 358 359
3 360 359 361
3 350 352 358
3 350 358 360
3 362 360 361
3 362 361 363
3 347 350 360
3 347 360 362
3 364 362 363
3 364 363 365
3 366 347 362
3 366 362 364
3 367 364 365
3 367 365 368
3 369 366 364
3 369 364 367
3 370 367 368
3 370 368 371
3 372 369 367
3 372 367 370
3 373 370 371
3 373 371 374
3 375 372 370
3 375 370 373
3 376 373 374
3 376 374 377
3 378 375 373
3 378 373 376
3 379 376 377
3 379 377 380
3 381 378 376
3 381 376 379
3 382 379 380
3 382 380 383
3 384 381 379
3 384 379 382
3 385 382 383
3 385 383 386
3 387 384 382
3 387 382 385
3 388 385 386
3 388 386 389
3 390 387 385
3 390 385 388
3 391 388 389
3 391 389 392
3 393 390 388
3 393 388 391
3 394 391 392
3 394 392 395
3 396 393 391
3 396 391 394
3 397 394 395
3 397 395 398
3 399 396 394
3 399 394 397
3 400 397 398
3 400 398 401
3 402 399 397
3 402 397 400
3 403 400 401
3 403 401 404
3 405 402 400
3 405 400 403
3 406 403 404
3 406 404 407
3 408 405 403
3 408 403 406
3 409 406 407
3 409 407 410
3 411 408 406
3 411 406 409
3 412 409 410
3 412 410 413
3 414 411 409
3 414 409 412
3 415 412 413
3 415 413 416
3 417 414 412
3 417 412 415
3 418 415 416
3 418 416 419
3 420 417 415
3 420 415 418
3 421 418 419
3 421 419 422
3 423 420 418
3 423 418 421
3 424 421 422
3 424 422 425
3 426 423 421
3 426 421 424
3 427 424 425
3 427 425 428
3 429 426 424
3 429 424 427
3 430 427 428
3 430 428 431
3 433 429 427
3 433 427 430
3 432 430 431
3 432 431 457
3 435 433 430
3 435 430 432
3 434 436 429
3 434 429 433
3 313 434 433
3 313 433 435
3 308 435 432
3 308 432 306
3 315 323 434
3 315 434 313
3 323 324 436
3 323 436 434
3 436 437 426
3 436 426 429
3 324 325 437
3 324 437 436
3 437 438 423
3 437 423 426
3 325 326 438
3 325 438 437
3 438 439 420
3 438 420 423
3 326 327 439
3 326 439 438
3 439 440 417
3 439 417 420
3 327 317 440
3 327 440 439
3 440 441 414
3 440 414 417
3 317 328 441
3 317 441 440
3 441 442 411
3 441 411 414
3 328 329 442
3 328 442 441
3 442 443 408
3 442 408 411
3 329 330 443
3 329 443 442
3 443 444 405
3 443 405 408
3 330 331 444
3 330 444 443
3 444 445 402
3 444 402 405
3 331 332 445
3 331 445 444
3 445 446 399
3 445 399 402
3 332 333 446
3 332 446 445
3 446 447 396
3 446 396 399
3 333 334 447
3 333 447 446
3 447 448 393
3 447 393 396
3 334 335 448
3 334 448 447
3 448 449 390
3 448 390 393
3 335 336 449
3 335 449 448
3 449 450 387
3 449 387 390
3 336 337 450
3 336 450 449
3 450 451 384
3 450 384 387
3 337 338 451
3 337 451 450
3 451 452 381
3 451 381 384
3 338 339 452
3 338 452 451
3 452 453 378
3 452 378 381
3 339 340 453
3 339 453 452
3 453 454 375
3 453 375 378
3 340 341 454
3 340 454 453
3 454 455 372
3 454 372 375
3 341 342 455
3 341 455 454
3 455 456 369
3 455 369 372
3 342 343 456
3 342 456 455
3 456 348 366
3 456 366 369
3 343 344 348
3 343 348 456
3 306 432 457
3 306 457 459
3 457 431 466
3 457 466 458
3 459 457 458
3 459 458 460
3 301 459 460
3 301 460 299
3 299 460 461
3 299 461 463
3 460 458 462
3 460 462 461
3 461 462 208
3 461 208 205
3 463 461 205
3 463 205 202
3 298 463 202
3 298 202 200
3 458 466 464
3 458 464 462
3 462 464 211
3 462 211 208
3 466 467 465
3 466 465 464
3 464 465 214
3 464 214 211
3 431 428 467
3 431 467 466
3 467 468 469
3 467 469 465
3 428 425 468
3 428 468 467
3 468 470 471
3 468 471 469
3 425 422 470
3 425 470 468
3 470 472 473
3 470 473 471
3 422 419 472
3 422 472 470
3 472 474 475
3 472 475 473
3 419 416 474
3 419 474 472
3 474 476 477
3 474 477 475
3 416 413 476
3 416 476 474
3 476 478 479
3 476 479 477
3 413 410 478
3 413 478 476
3 478 480 481
3 478 481 479
3 410 407 480
3 410 480 478
3 480 482 483
3 480 483 481
3 407 404 482
3 407 482 480
3 482 484 485
3 482 485 483
3 404 401 484
3 404 484 482
3 484 486 487
3 484 487 485
3 401 398 486
3 401 486 484
3 486 488 489
3 486 489 487
3 398 395 488
3 398 488 486
3 488 490 491
3 488 491 489
3 395 392 490
3 395 490 488
3 490 492 493
3 490 493 491
3 392 389 492
3 392 492 490
3 492 494 495
3 492 495 493
3 389 386 494
3 389 494 492
3 494 496 497
3 494 497 495
3 386 383 496
3 386 496 494
3 496 498 499
3 496 499 497
3 383 380 498
3 383 498 496
3 498 500 501
3 498 501 499
3 380 377 500
3 380 500 498
3 500 502 503
3 500 503 501
3 377 374 502
3 377 502 500
3 502 504 505
3 502 505 503
3 374 371 504
3 374 504 502
3 504 506 507
3 504 507 505
3 371 368 506
3 371 506 504
3 506 508 509
3 506 509 507
3 368 365 508
3 368 508 506
3 508 510 511
3 508 511 509
3 365 363 510
3 365 510 508
3 510 512 513
3 510 513 511
3 363 361 512
3 363 512 510
3 512 294 288
3 512 288 513
3 361 359 294
3 361 294 512
3 511 513 283
3 511 283 280
3 509 511 280
3 509 280 277
3 507 509 277
3 507 277 274
3 505 507 274
3 505 274 271
3 503 505 271
3 503 271 268
3 501 503 268
3 501 268 265
3 499 501 265
3 499 265 262
3 497 499 262
3 497 262 259
3 495 497 259
3 495 259 256
3 493 495 256
3 493 256 253
3 491 493 253
3 491 253 250
3 489 491 250
3 489 250 247
3 487 489 247
3 487 247 244
3 485 487 244
3 485 244 241
3 483 485 241
3 483 241 238
3 481 483 238
3 481 238 235
3 479 481 235
3 479 235 232
3 477 479 232
3 477 232 229
3 475 477 229
3 475 229 226
3 473 475 226
3 473 226 223
3 471 473 223
3 471 223 220
3 469 471 220
3 469 220 217
3 465 469 217
3 465 217 214
3 291 298 200
3 291 200 197
3 281 284 135
3 281 135 137
3 278 281 137
3 278 137 139
3 275 278 139
3 275 139 141
3 272 275 141
3 272 141 143
3 269 272 143
3 269 143 145
3 266 269 145
3 266 145 147
3 263 266 147
3 263 147 149
3 260 263 149
3 260 149 151
3 257 260 151
3 257 151 153
3 254 257 153
3 254 153 155
3 251 254 155
3 251 155 157
3 248 251 157
3 248 157 159
3 245 248 159
3 245 159 161
3 242 245 161
3 242 161 163
3 239 242 163
3 239 163 165
3 236 239 165
3 236 165 167
3 233 236 167
3 233 167 169
3 230 233 169
3 230 169 171
3 227 230 171
3 227 171 173
3 224 227 173
3 224 173 175
3 221 224 175
3 221 175 177
3 218 221 177
3 218 177 179
3 215 218 179
3 215 179 181
3 212 215 181
3 212 181 183
3 209 212 183
3 209 183 185
3 206 209 185
3 206 185 187
3 203 206 187
3 203 187 189
