ply
format ascii 1.0
element vertex 513
property float x
property float y
property float z
element face 1022
property list uchar int vertex_index
end_header
1.521095 1.994547 -0.039826
1.524287 2.006284 -0.043677
1.517879 1.982382 -0.038003
1.519157 2.001003 -0.013547
1.523307 2.016237 -0.018546
1.514981 1.985179 -0.011175
1.508040 2.019117 0.046558
1.485336 2.046696 0.127069
1.515867 2.048030 0.037057
1.500170 1.989098 0.051044
1.472808 1.997445 0.134281
1.492586 1.959152 0.050295
1.460903 1.948410 0.132604
1.485609 1.930417 0.044471
1.510945 1.969374 -0.011520
1.507220 1.954190 -0.014563
1.514813 1.970431 -0.038265
1.512065 1.959319 -0.040494
1.509771 1.949600 -0.044404
1.508001 1.941671 -0.049568
1.503957 1.940203 -0.020184
1.501271 1.927940 -0.028161
1.479518 1.903982 0.033758
1.440628 1.858373 0.105132
1.474520 1.880840 0.018590
1.432976 1.820578 0.080358
1.470779 1.861791 -0.000394
1.427313 1.789310 0.049516
1.468497 1.847587 -0.022512
1.499267 1.917859 -0.038182
1.498039 1.910324 -0.049854
1.506778 1.935713 -0.055502
1.506084 1.931652 -0.061808
1.505874 1.929265 -0.068341
1.506121 1.928394 -0.075234
1.497649 1.905612 -0.062730
1.498114 1.903902 -0.076318
1.467782 1.838689 -0.046885
1.423011 1.751601 -0.026279
1.468670 1.835424 -0.072593
1.424445 1.746227 -0.068191
1.471120 1.837922 -0.098676
1.428246 1.750298 -0.110719
1.475014 1.846177 -0.124138
1.499412 1.905259 -0.090101
1.501482 1.909644 -0.103554
1.506854 1.929119 -0.082676
1.508116 1.931705 -0.090636
1.509923 1.936399 -0.098796
1.512251 1.943266 -0.106642
1.504225 1.916910 -0.116165
1.507536 1.926794 -0.127450
1.480149 1.859832 -0.148039
1.442354 1.786213 -0.191252
1.486351 1.878466 -0.169448
1.452066 1.816443 -0.226347
1.493412 1.901394 -0.187532
1.463167 1.853768 -0.256126
1.501047 1.927731 -0.201640
1.511296 1.938928 -0.136976
1.515353 1.952853 -0.144377
1.515023 1.952144 -0.113615
1.518106 1.962674 -0.119211
1.521328 1.974351 -0.123046
1.524514 1.986577 -0.124882
1.519537 1.968041 -0.149365
1.523679 1.983911 -0.151748
1.508935 1.956539 -0.211116
1.487797 1.943860 -0.295313
1.516744 1.986662 -0.215627
1.500348 1.993261 -0.302560
1.524177 2.016896 -0.214946
1.512322 2.042707 -0.300980
1.530992 2.046054 -0.209224
1.527626 1.999841 -0.151433
1.531239 2.015211 -0.148434
1.527502 1.998698 -0.124644
1.530152 2.010057 -0.122430
1.532340 2.020049 -0.118518
1.533977 2.028214 -0.113343
1.534386 2.029417 -0.142866
1.536940 2.041903 -0.134943
1.536926 2.072978 -0.198628
1.532855 2.134073 -0.273833
1.541729 2.096616 -0.183579
1.540608 2.172462 -0.249166
1.545213 2.116058 -0.164671
1.546283 2.204038 -0.218281
1.547309 2.130617 -0.142656
1.538802 2.052184 -0.124971
1.539923 2.059854 -0.113331
1.535045 2.034325 -0.107427
1.535614 2.038435 -0.101204
1.535777 2.040802 -0.094812
1.535577 2.041626 -0.088054
1.540276 2.064613 -0.100466
1.539849 2.066277 -0.086866
1.547950 2.139622 -0.118309
1.550779 2.242702 -0.142865
1.547136 2.142780 -0.092575
1.549297 2.247818 -0.100931
1.544872 2.139918 -0.066425
1.545352 2.242979 -0.058338
1.541234 2.131279 -0.040851
1.538657 2.064784 -0.073051
1.536729 2.060200 -0.059551
1.534970 2.040820 -0.080664
1.533863 2.038090 -0.072649
1.532188 2.033189 -0.064373
1.529967 2.026081 -0.056401
1.534118 2.052710 -0.046885
1.530923 2.042607 -0.035547
1.536296 2.117129 -0.016832
1.531129 2.206233 0.022552
1.530250 2.098006 0.004695
1.521276 2.175299 0.057819
1.523352 2.074654 0.022881
1.510057 2.137350 0.087750
1.527275 2.030288 -0.025977
1.527291 2.016976 -0.049331
1.486207 2.202734 0.151644
1.497937 2.094034 0.111352
1.469465 2.143045 0.184936
1.432678 2.188618 0.248119
1.452019 2.077458 0.207023
1.410957 2.106874 0.275281
1.434690 2.009036 0.216750
1.389363 2.021708 0.287744
1.418285 1.940998 0.213781
1.368840 1.936826 0.284930
1.403362 1.876033 0.199649
1.450033 1.901455 0.122829
1.350183 1.855690 0.267569
1.390484 1.816554 0.174717
1.334086 1.781332 0.236372
1.379884 1.763959 0.140649
1.320805 1.715504 0.193949
1.372012 1.720309 0.098247
1.311046 1.661260 0.140895
1.367394 1.688016 0.048460
1.423970 1.766107 0.013464
1.305301 1.621047 0.078807
1.366090 1.667907 -0.006545
1.303663 1.595959 0.010353
1.368081 1.660491 -0.064565
1.306155 1.586786 -0.061878
1.373358 1.666331 -0.123403
1.312722 1.594019 -0.135217
1.381836 1.685688 -0.180748
1.434331 1.763951 -0.152225
1.323238 1.617914 -0.206780
1.392970 1.716854 -0.234672
1.337186 1.657028 -0.274049
1.406297 1.758360 -0.283549
1.353844 1.708910 -0.335147
1.421559 1.809722 -0.325276
1.372921 1.773195 -0.386978
1.438183 1.868957 -0.358453
1.475219 1.896671 -0.279630
1.393708 1.847509 -0.427562
1.455587 1.934378 -0.380499
1.415390 1.929106 -0.454683
1.472959 2.002965 -0.390267
1.437022 2.014419 -0.467188
1.489481 2.071457 -0.387412
1.457646 2.099684 -0.464488
1.504578 2.137087 -0.373460
1.523310 2.090287 -0.291356
1.476426 2.181281 -0.447289
1.517625 2.197213 -0.348691
1.492625 2.256013 -0.416251
1.528310 2.250163 -0.314601
1.505976 2.322103 -0.373918
1.536173 2.293831 -0.271987
1.515718 2.376298 -0.320779
1.541073 2.327155 -0.222679
1.549772 2.227955 -0.182513
1.521588 2.416965 -0.258927
1.542501 2.347702 -0.167931
1.523268 2.442203 -0.190548
1.540389 2.354609 -0.109945
1.520735 2.451208 -0.118314
1.534831 2.347632 -0.051067
1.514043 2.443469 -0.044958
1.526360 2.328362 0.006504
1.539254 2.229071 -0.016655
1.503543 2.419675 0.026737
1.515139 2.296902 0.060661
1.489525 2.380316 0.094171
1.501644 2.254760 0.109739
1.472766 2.328061 0.155427
1.434121 2.391550 0.192173
1.453565 2.263314 0.207420
1.411728 2.315803 0.251938
1.362420 2.359422 0.284871
1.387458 2.228807 0.298451
1.335596 2.263174 0.335928
1.362289 2.134024 0.329703
1.307794 2.158445 0.370325
1.337237 2.035278 0.344395
1.280093 2.049291 0.386704
1.313304 1.936526 0.341980
1.253561 1.939934 0.384457
1.291415 1.841634 0.322725
1.229213 1.834561 0.363709
1.272407 1.754239 0.287403
1.207993 1.737260 0.325266
1.256817 1.677122 0.238174
1.190689 1.651700 0.270771
1.245391 1.613665 0.176251
1.178004 1.581292 0.202171
1.238581 1.566347 0.103970
1.170425 1.528733 0.122114
1.236618 1.536881 0.024172
1.168240 1.496031 0.033654
1.239578 1.526385 -0.060127
1.171530 1.484429 -0.059811
1.247347 1.535253 -0.145725
1.180172 1.494387 -0.154684
1.259657 1.563277 -0.229302
1.193835 1.525531 -0.247314
1.276021 1.609321 -0.307667
1.211998 1.576676 -0.334134
1.295672 1.670926 -0.378249
1.233924 1.645673 -0.411912
1.318040 1.746598 -0.437913
1.258797 1.730000 -0.477585
1.342270 1.833453 -0.484350
1.285652 1.826383 -0.528619
1.367423 1.928173 -0.515576
1.313463 1.931150 -0.563010
1.392492 2.026982 -0.530295
1.341156 2.040265 -0.579395
1.416465 2.125875 -0.527955
1.367656 2.149489 -0.577172
1.438378 2.220842 -0.508801
1.391934 2.254565 -0.556463
1.457367 2.308135 -0.473567
1.413049 2.351423 -0.518059
1.472917 2.385076 -0.424399
1.430244 2.436531 -0.463585
1.484274 2.448255 -0.362454
1.442841 2.506582 -0.394979
1.491058 2.495461 -0.290187
1.450372 2.558948 -0.314902
1.493007 2.524874 -0.210379
1.452544 2.591596 -0.226432
1.490061 2.535424 -0.126090
1.449268 2.603252 -0.132976
1.482319 2.526658 -0.040515
1.440674 2.593487 -0.038123
1.470078 2.498922 0.043077
1.427098 2.562700 0.054500
1.453753 2.453053 0.121503
1.409044 2.512007 0.141341
1.361885 2.555587 0.153312
1.387223 2.443452 0.219159
1.338620 2.482455 0.236137
1.312186 2.392874 0.306079
1.325419 2.477540 0.226843
1.379487 2.435773 0.208377
1.299415 2.389469 0.295845
1.348166 2.548951 0.145502
1.400745 2.502528 0.132444
1.366801 2.601133 0.055347
1.418140 2.551244 0.048305
1.380782 2.632740 -0.040404
1.381102 2.609542 0.060848
1.395565 2.642363 -0.037725
1.404728 2.652819 -0.138698
1.408223 2.640430 -0.238226
1.389680 2.642829 -0.138696
1.439404 2.589837 -0.132645
1.393092 2.630708 -0.235960
1.442564 2.578449 -0.223332
1.390829 2.596720 -0.328032
1.440476 2.546836 -0.309216
1.383033 2.542479 -0.411037
1.405904 2.605638 -0.332434
1.397872 2.549839 -0.417656
1.384452 2.475237 -0.490642
1.366148 2.384640 -0.548640
1.370064 2.470259 -0.482054
1.421184 2.429168 -0.452973
1.352322 2.382305 -0.538788
1.404622 2.347066 -0.505924
1.330313 2.281291 -0.579011
1.384053 2.252680 -0.543450
1.304860 2.171106 -0.600812
1.343634 2.281405 -0.589423
1.317758 2.169442 -0.611389
1.289529 2.053118 -0.613674
1.260044 1.936949 -0.596190
1.277096 2.056668 -0.603161
1.334313 2.042718 -0.566074
1.248145 1.942597 -0.586024
1.307252 1.936087 -0.550091
1.219061 1.833031 -0.550069
1.280079 1.833731 -0.516460
1.190912 1.732007 -0.496570
1.230426 1.825365 -0.559605
1.201809 1.722634 -0.505317
1.175294 1.632710 -0.435424
1.151927 1.559142 -0.352668
1.164827 1.643589 -0.427621
1.229423 1.656814 -0.401991
1.141973 1.571726 -0.346357
1.208053 1.589588 -0.326098
1.123246 1.519145 -0.256261
1.190532 1.540350 -0.241967
1.109212 1.487314 -0.160542
1.132622 1.504811 -0.260264
1.118107 1.471767 -0.161723
1.108928 1.461242 -0.060756
1.105430 1.473622 0.038772
1.100305 1.477184 -0.062256
1.169108 1.501119 -0.060963
1.096892 1.489305 0.035008
1.165931 1.512443 0.029738
1.099155 1.523293 0.127080
1.168035 1.544120 0.115608
1.106961 1.577575 0.210091
1.107751 1.508423 0.132980
1.115800 1.564291 0.218208
1.129272 1.639115 0.291226
1.147664 1.730089 0.349284
1.119982 1.650018 0.281141
1.187487 1.662427 0.259310
1.137817 1.738371 0.337933
1.204176 1.745050 0.312269
1.159932 1.839839 0.378233
1.224857 1.839907 0.349836
1.185466 1.950370 0.400086
1.170280 1.833759 0.390136
1.196237 1.946066 0.412151
1.224510 2.062578 0.414453
1.254012 2.178813 0.396971
1.213276 2.064999 0.402447
1.274680 2.050230 0.372538
1.242246 2.179146 0.385310
1.301746 2.156885 0.356564
1.271311 2.288636 0.349357
1.328913 2.259216 0.322925
1.283613 2.290331 0.360385
1.379202 2.226294 0.287047
1.355184 2.353462 0.272854
1.403102 2.311963 0.241221
1.442542 2.262841 0.199616
1.425207 2.386757 0.182314
1.461787 2.327955 0.148319
1.444507 2.447331 0.113238
1.478579 2.380665 0.088263
1.460260 2.491447 0.037041
1.492251 2.418966 0.022161
1.472017 2.517996 -0.043592
1.502410 2.441874 -0.047637
1.431154 2.580619 -0.041008
1.479456 2.526287 -0.126310
1.508818 2.448941 -0.119164
1.482307 2.515968 -0.208291
1.511273 2.439975 -0.190052
1.480426 2.487412 -0.285940
1.509657 2.415322 -0.257216
1.473913 2.441945 -0.355879
1.504051 2.376095 -0.317744
1.433254 2.496438 -0.386680
1.463009 2.381185 -0.415723
1.494630 2.323562 -0.369595
1.448011 2.306831 -0.463691
1.481612 2.259027 -0.411219
1.429338 2.221101 -0.497917
1.465366 2.184443 -0.440983
1.407706 2.127378 -0.516734
1.446533 2.102839 -0.457397
1.360266 2.149704 -0.563828
1.384097 2.029982 -0.519060
1.425995 2.018095 -0.459486
1.359494 1.932996 -0.504667
1.404617 1.933810 -0.447025
1.334815 1.840073 -0.473975
1.383198 1.853177 -0.420334
1.310976 1.754631 -0.428242
1.362535 1.779153 -0.380553
1.253789 1.739398 -0.466421
1.288924 1.680019 -0.369463
1.343457 1.714668 -0.329457
1.269631 1.619445 -0.300504
1.326812 1.662506 -0.269603
1.253845 1.575173 -0.224374
1.313246 1.624597 -0.203657
1.242035 1.548402 -0.143750
1.303151 1.601930 -0.133954
1.177413 1.510558 -0.152632
1.234557 1.539960 -0.061014
1.296788 1.595033 -0.062476
1.231694 1.550231 0.020977
1.294349 1.604061 0.008397
1.233588 1.578835 0.098617
1.295949 1.628653 0.075575
1.240138 1.624454 0.168536
1.301511 1.667710 0.136152
1.175314 1.594740 0.193039
1.251095 1.685435 0.228390
1.310866 1.720002 0.188097
1.266127 1.759945 0.276425
1.323778 1.784144 0.229880
1.284793 1.845676 0.310768
1.339878 1.858181 0.259845
1.306373 1.939216 0.329712
1.358545 1.939157 0.276460
1.248708 1.943156 0.370261
1.329919 2.036385 0.332132
1.378953 2.023410 0.278689
1.354499 2.133285 0.317770
1.400285 2.107520 0.266275
1.439405 2.079156 0.200483
1.421750 2.188328 0.239536
1.456736 2.144423 0.178966
1.486347 2.093332 0.103700
1.473558 2.204767 0.146888
1.498177 2.135936 0.081230
1.489182 2.257739 0.105646
1.509167 2.173481 0.052320
1.502872 2.300859 0.057228
1.518840 2.204258 0.018231
1.514060 2.332365 0.003750
1.526802 2.226944 -0.019639
1.522385 2.351287 -0.052889
1.532771 2.240720 -0.059959
1.527636 2.357216 -0.110989
1.536549 2.245165 -0.101369
1.529643 2.349999 -0.168512
1.537984 2.240111 -0.142282
1.528317 2.329941 -0.222989
1.537016 2.225779 -0.180993
1.523716 2.297907 -0.272077
1.533684 2.202756 -0.215887
1.515990 2.254977 -0.314024
1.528126 2.171923 -0.245620
1.505330 2.202297 -0.347494
1.520524 2.134282 -0.269171
1.492078 2.141603 -0.371241
1.511147 2.091177 -0.285721
1.476784 2.075436 -0.384180
1.500379 2.044426 -0.294621
1.460165 2.006919 -0.385661
1.488686 1.996133 -0.295515
1.442903 1.938879 -0.375531
1.476521 1.948198 -0.288315
1.425626 1.873822 -0.354063
1.464308 1.902359 -0.273253
1.408959 1.814073 -0.322132
1.452492 1.860229 -0.250893
1.393560 1.761964 -0.281113
1.441533 1.823411 -0.222154
1.380106 1.719748 -0.232936
1.431913 1.793470 -0.188264
1.369124 1.689031 -0.179666
1.424030 1.771586 -0.150582
1.360956 1.670710 -0.123179
1.418151 1.758470 -0.110415
1.355812 1.665197 -0.065176
1.414447 1.754465 -0.069105
1.353844 1.672559 -0.007685
1.413039 1.759666 -0.028226
1.355132 1.692473 0.046823
1.413981 1.773852 0.010519
1.359625 1.724089 0.096010
1.417238 1.796435 0.045513
1.367194 1.766418 0.138107
1.422706 1.826607 0.075399
1.377648 1.818311 0.171786
1.430230 1.863445 0.099139
1.390664 1.878101 0.195773
1.439552 1.905716 0.115886
1.405733 1.943404 0.208936
1.450290 1.951740 0.124957
1.422197 2.011326 0.210563
1.461969 1.999557 0.125962
1.493066 1.989957 0.026126
1.474136 2.047321 0.118802
1.499549 2.014478 0.022444
1.505820 2.038106 0.014698
1.505577 1.987384 -0.082183
1.475774 1.884033 -0.136216
1.511701 2.059964 0.003175
1.517016 2.079214 -0.011668
1.521640 2.095025 -0.029216
1.525464 2.106723 -0.048769
1.528373 2.113866 -0.069634
1.530229 2.116196 -0.091053
1.530909 2.113611 -0.112168
1.530377 2.106217 -0.132141
1.528664 2.094302 -0.150179
1.525885 2.078354 -0.165564
1.522174 2.058951 -0.177732
1.517645 2.036805 -0.186269
1.512399 2.012837 -0.190852
1.506562 1.988070 -0.191307
1.500305 1.963459 -0.187603
1.493808 1.939919 -0.179878
1.487347 1.918299 -0.168413
1.481223 1.899414 -0.153659
1.471298 1.872753 -0.116764
1.467984 1.865955 -0.095981
1.465934 1.863848 -0.074615
1.465198 1.866506 -0.053518
1.465786 1.873827 -0.033527
1.467694 1.885519 -0.015437
1.470877 1.901121 0.000031
1.475240 1.920107 0.012300
1.480594 1.941823 0.020941
1.486648 1.965426 0.025613
3 0 1 4
3 0 4 3
3 2 16 17
3 17 18 19
3 19 31 32
3 32 33 34
3 34 46 47
3 47 48 49
3 49 61 62
3 62 63 64
3 64 76 77
3 77 78 79
3 79 91 92
3 92 93 94
3 94 106 107
3 107 108 109
3 109 119 1
3 1 0 2
3 2 17 19
3 19 32 34
3 34 47 49
3 49 62 64
3 64 77 79
3 79 92 94
3 94 107 109
3 109 1 2
3 2 19 34
3 34 49 64
3 64 79 94
3 94 109 2
3 2 34 64
3 64 94 2
3 2 0 3
3 2 3 5
3 3 4 8
3 3 8 6
3 5 3 6
3 5 6 9
3 7 6 8
3 7 8 121
3 10 9 6
3 10 6 7
3 12 11 9
3 12 9 10
3 14 5 9
3 14 9 11
3 131 13 11
3 131 11 12
3 15 14 11
3 15 11 13
3 17 16 14
3 17 14 15
3 16 2 5
3 16 5 14
3 18 17 15
3 18 15 20
3 19 18 20
3 19 20 21
3 20 15 13
3 20 13 22
3 21 20 22
3 21 22 24
3 25 24 22
3 25 22 23
3 23 22 13
3 23 13 131
3 27 26 24
3 27 24 25
3 29 21 24
3 29 24 26
3 140 28 26
3 140 26 27
3 30 29 26
3 30 26 28
3 32 31 29
3 32 29 30
3 31 19 21
3 31 21 29
3 33 32 30
3 33 30 35
3 34 33 35
3 34 35 36
3 35 30 28
3 35 28 37
3 36 35 37
3 36 37 39
3 40 39 37
3 40 37 38
3 38 37 28
3 38 28 140
3 42 41 39
3 42 39 40
3 44 36 39
3 44 39 41
3 149 43 41
3 149 41 42
3 45 44 41
3 45 41 43
3 47 46 44
3 47 44 45
3 46 34 36
3 46 36 44
3 48 47 45
3 48 45 50
3 49 48 50
3 49 50 51
3 50 45 43
3 50 43 52
3 51 50 52
3 51 52 54
3 55 54 52
3 55 52 53
3 53 52 43
3 53 43 149
3 57 56 54
3 57 54 55
3 59 51 54
3 59 54 56
3 158 58 56
3 158 56 57
3 60 59 56
3 60 56 58
3 62 61 59
3 62 59 60
3 61 49 51
3 61 51 59
3 63 62 60
3 63 60 65
3 64 63 65
3 64 65 66
3 65 60 58
3 65 58 67
3 66 65 67
3 66 67 69
3 70 69 67
3 70 67 68
3 68 67 58
3 68 58 158
3 72 71 69
3 72 69 70
3 74 66 69
3 74 69 71
3 167 73 71
3 167 71 72
3 75 74 71
3 75 71 73
3 77 76 74
3 77 74 75
3 76 64 66
3 76 66 74
3 78 77 75
3 78 75 80
3 79 78 80
3 79 80 81
3 80 75 73
3 80 73 82
3 81 80 82
3 81 82 84
3 85 84 82
3 85 82 83
3 83 82 73
3 83 73 167
3 87 86 84
3 87 84 85
3 89 81 84
3 89 84 86
3 176 88 86
3 176 86 87
3 90 89 86
3 90 86 88
3 92 91 89
3 92 89 90
3 91 79 81
3 91 81 89
3 93 92 90
3 93 90 95
3 94 93 95
3 94 95 96
3 95 90 88
3 95 88 97
3 96 95 97
3 96 97 99
3 100 99 97
3 100 97 98
3 98 97 88
3 98 88 176
3 102 101 99
3 102 99 100
3 104 96 99
3 104 99 101
3 185 103 101
3 185 101 102
3 105 104 101
3 105 101 103
3 107 106 104
3 107 104 105
3 106 94 96
3 106 96 104
3 108 107 105
3 108 105 110
3 109 108 110
3 109 110 111
3 110 105 103
3 110 103 112
3 111 110 112
3 111 112 114
3 115 114 112
3 115 112 113
3 113 112 103
3 113 103 185
3 117 116 114
3 117 114 115
3 118 111 114
3 118 114 116
3 121 8 116
3 121 116 117
3 4 118 116
3 4 116 8
3 1 119 118
3 1 118 4
3 119 109 111
3 119 111 118
3 122 121 117
3 122 117 120
3 120 117 115
3 120 115 189
3 124 7 121
3 124 121 122
3 125 124 122
3 125 122 123
3 123 122 120
3 123 120 192
3 126 10 7
3 126 7 124
3 127 126 124
3 127 124 125
3 128 12 10
3 128 10 126
3 129 128 126
3 129 126 127
3 130 131 12
3 130 12 128
3 132 130 128
3 132 128 129
3 133 23 131
3 133 131 130
3 134 133 130
3 134 130 132
3 135 25 23
3 135 23 133
3 136 135 133
3 136 133 134
3 137 27 25
3 137 25 135
3 138 137 135
3 138 135 136
3 139 140 27
3 139 27 137
3 141 139 137
3 141 137 138
3 142 38 140
3 142 140 139
3 143 142 139
3 143 139 141
3 144 40 38
3 144 38 142
3 145 144 142
3 145 142 143
3 146 42 40
3 146 40 144
3 147 146 144
3 147 144 145
3 148 149 42
3 148 42 146
3 150 148 146
3 150 146 147
3 151 53 149
3 151 149 148
3 152 151 148
3 152 148 150
3 153 55 53
3 153 53 151
3 154 153 151
3 154 151 152
3 155 57 55
3 155 55 153
3 156 155 153
3 156 153 154
3 157 158 57
3 157 57 155
3 159 157 155
3 159 155 156
3 160 68 158
3 160 158 157
3 161 160 157
3 161 157 159
3 162 70 68
3 162 68 160
3 163 162 160
3 163 160 161
3 164 72 70
3 164 70 162
3 165 164 162
3 165 162 163
3 166 167 72
3 166 72 164
3 168 166 164
3 168 164 165
3 169 83 167
3 169 167 166
3 170 169 166
3 170 166 168
3 171 85 83
3 171 83 169
3 172 171 169
3 172 169 170
3 173 87 85
3 173 85 171
3 174 173 171
3 174 171 172
3 175 176 87
3 175 87 173
3 177 175 173
3 177 173 174
3 178 98 176
3 178 176 175
3 179 178 175
3 179 175 177
3 180 100 98
3 180 98 178
3 181 180 178
3 181 178 179
3 182 102 100
3 182 100 180
3 183 182 180
3 183 180 181
3 184 185 102
3 184 102 182
3 186 184 182
3 186 182 183
3 187 113 185
3 187 185 184
3 188 187 184
3 188 184 186
3 189 115 113
3 189 113 187
3 190 189 187
3 190 187 188
3 192 120 189
3 192 189 190
3 193 192 190
3 193 190 191
3 191 190 188
3 191 188 253
3 195 123 192
3 195 192 193
3 196 195 193
3 196 193 194
3 194 193 191
3 194 191 256
3 197 125 123
3 197 123 195
3 198 197 195
3 198 195 196
3 199 127 125
3 199 125 197
3 200 199 197
3 200 197 198
3 201 129 127
3 201 127 199
3 202 201 199
3 202 199 200
3 203 132 129
3 203 129 201
3 204 203 201
3 204 201 202
3 205 134 132
3 205 132 203
3 206 205 203
3 206 203 204
3 207 136 134
3 207 134 205
3 208 207 205
3 208 205 206
3 209 138 136
3 209 136 207
3 210 209 207
3 210 207 208
3 211 141 138
3 211 138 209
3 212 211 209
3 212 209 210
3 213 143 141
3 213 141 211
3 214 213 211
3 214 211 212
3 215 145 143
3 215 143 213
3 216 215 213
3 216 213 214
3 217 147 145
3 217 145 215
3 218 217 215
3 218 215 216
3 219 150 147
3 219 147 217
3 220 219 217
3 220 217 218
3 221 152 150
3 221 150 219
3 222 221 219
3 222 219 220
3 223 154 152
3 223 152 221
3 224 223 221
3 224 221 222
3 225 156 154
3 225 154 223
3 226 225 223
3 226 223 224
3 227 159 156
3 227 156 225
3 228 227 225
3 228 225 226
3 229 161 159
3 229 159 227
3 230 229 227
3 230 227 228
3 231 163 161
3 231 161 229
3 232 231 229
3 232 229 230
3 233 165 163
3 233 163 231
3 234 233 231
3 234 231 232
3 235 168 165
3 235 165 233
3 236 235 233
3 236 233 234
3 237 170 168
3 237 168 235
3 238 237 235
3 238 235 236
3 239 172 170
3 239 170 237
3 240 239 237
3 240 237 238
3 241 174 172
3 241 172 239
3 242 241 239
3 242 239 240
3 243 177 174
3 243 174 241
3 244 243 241
3 244 241 242
3 245 179 177
3 245 177 243
3 246 245 243
3 246 243 244
3 247 181 179
3 247 179 245
3 248 247 245
3 248 245 246
3 249 183 181
3 249 181 247
3 250 249 247
3 250 247 248
3 251 186 183
3 251 183 249
3 252 251 249
3 252 249 250
3 253 188 186
3 253 186 251
3 254 253 251
3 254 251 252
3 256 191 253
3 256 253 254
3 257 256 254
3 257 254 255
3 255 254 252
3 255 252 267
3 258 194 256
3 258 256 257
3 258 257 259
3 258 259 261
3 257 255 262
3 257 262 259
3 261 259 260
3 261 260 345
3 259 262 263
3 259 263 260
3 262 264 265
3 262 265 263
3 255 267 264
3 255 264 262
3 264 266 356
3 264 356 265
3 267 268 266
3 267 266 264
3 267 252 250
3 267 250 268
3 268 250 248
3 268 248 269
3 268 269 271
3 268 271 266
3 269 248 246
3 269 246 270
3 269 270 273
3 269 273 271
3 266 271 272
3 266 272 356
3 271 273 274
3 271 274 272
3 273 275 276
3 273 276 274
3 270 278 275
3 270 275 273
3 275 277 365
3 275 365 276
3 278 279 277
3 278 277 275
3 270 246 244
3 270 244 278
3 278 244 242
3 278 242 279
3 279 242 240
3 279 240 280
3 279 280 282
3 279 282 277
3 280 240 238
3 280 238 281
3 280 281 284
3 280 284 282
3 277 282 283
3 277 283 365
3 282 284 285
3 282 285 283
3 284 286 287
3 284 287 285
3 281 289 286
3 281 286 284
3 286 288 374
3 286 374 287
3 289 290 288
3 289 288 286
3 281 238 236
3 281 236 289
3 289 236 234
3 289 234 290
3 290 234 232
3 290 232 291
3 290 291 293
3 290 293 288
3 291 232 230
3 291 230 292
3 291 292 295
3 291 295 293
3 288 293 294
3 288 294 374
3 293 295 296
3 293 296 294
3 295 297 298
3 295 298 296
3 292 300 297
3 292 297 295
3 297 299 383
3 297 383 298
3 300 301 299
3 300 299 297
3 292 230 228
3 292 228 300
3 300 228 226
3 300 226 301
3 301 226 224
3 301 224 302
3 301 302 304
3 301 304 299
3 302 224 222
3 302 222 303
3 302 303 306
3 302 306 304
3 299 304 305
3 299 305 383
3 304 306 307
3 304 307 305
3 306 308 309
3 306 309 307
3 303 311 308
3 303 308 306
3 308 310 392
3 308 392 309
3 311 312 310
3 311 310 308
3 303 222 220
3 303 220 311
3 311 220 218
3 311 218 312
3 312 218 216
3 312 216 313
3 312 313 315
3 312 315 310
3 313 216 214
3 313 214 314
3 313 314 317
3 313 317 315
3 310 315 316
3 310 316 392
3 315 317 318
3 315 318 316
3 317 319 320
3 317 320 318
3 314 322 319
3 314 319 317
3 319 321 401
3 319 401 320
3 322 323 321
3 322 321 319
3 314 214 212
3 314 212 322
3 322 212 210
3 322 210 323
3 323 210 208
3 323 208 324
3 323 324 326
3 323 326 321
3 324 208 206
3 324 206 325
3 324 325 328
3 324 328 326
3 321 326 327
3 321 327 401
3 326 328 329
3 326 329 327
3 328 330 331
3 328 331 329
3 325 333 330
3 325 330 328
3 330 332 410
3 330 410 331
3 333 334 332
3 333 332 330
3 325 206 204
3 325 204 333
3 333 204 202
3 333 202 334
3 334 202 200
3 334 200 335
3 334 335 337
3 334 337 332
3 335 200 198
3 335 198 336
3 335 336 339
3 335 339 337
3 332 337 338
3 332 338 410
3 337 339 340
3 337 340 338
3 339 341 342
3 339 342 340
3 336 343 341
3 336 341 339
3 341 261 345
3 341 345 342
3 343 258 261
3 343 261 341
3 336 198 196
3 336 196 343
3 343 196 194
3 343 194 258
3 340 342 344
3 340 344 413
3 342 345 346
3 342 346 344
3 345 260 348
3 345 348 346
3 344 346 347
3 344 347 416
3 346 348 349
3 346 349 347
3 348 350 351
3 348 351 349
3 260 263 350
3 260 350 348
3 350 352 353
3 350 353 351
3 263 265 352
3 263 352 350
3 352 354 355
3 352 355 353
3 265 356 354
3 265 354 352
3 354 357 358
3 354 358 355
3 356 272 357
3 356 357 354
3 357 359 360
3 357 360 358
3 272 274 359
3 272 359 357
3 359 361 362
3 359 362 360
3 274 276 361
3 274 361 359
3 361 363 364
3 361 364 362
3 276 365 363
3 276 363 361
3 363 366 367
3 363 367 364
3 365 283 366
3 365 366 363
3 366 368 369
3 366 369 367
3 283 285 368
3 283 368 366
3 368 370 371
3 368 371 369
3 285 287 370
3 285 370 368
3 370 372 373
3 370 373 371
3 287 374 372
3 287 372 370
3 372 375 376
3 372 376 373
3 374 294 375
3 374 375 372
3 375 377 378
3 375 378 376
3 294 296 377
3 294 377 375
3 377 379 380
3 377 380 378
3 296 298 379
3 296 379 377
3 379 381 382
3 379 382 380
3 298 383 381
3 298 381 379
3 381 384 385
3 381 385 382
3 383 305 384
3 383 384 381
3 384 386 387
3 384 387 385
3 305 307 386
3 305 386 384
3 386 388 389
3 386 389 387
3 307 309 388
3 307 388 386
3 388 390 391
3 388 391 389
3 309 392 390
3 309 390 388
3 390 393 394
3 390 394 391
3 392 316 393
3 392 393 390
3 393 395 396
3 393 396 394
3 316 318 395
3 316 395 393
3 395 397 398
3 395 398 396
3 318 320 397
3 318 397 395
3 397 399 400
3 397 400 398
3 320 401 399
3 320 399 397
3 399 402 403
3 399 403 400
3 401 327 402
3 401 402 399
3 402 404 405
3 402 405 403
3 327 329 404
3 327 404 402
3 404 406 407
3 404 407 405
3 329 331 406
3 329 406 404
3 406 408 409
3 406 409 407
3 331 410 408
3 331 408 406
3 408 411 412
3 408 412 409
3 410 338 411
3 410 411 408
3 411 413 414
3 411 414 412
3 338 340 413
3 338 413 411
3 413 344 416
3 413 416 414
3 414 416 417
3 414 417 415
3 412 414 415
3 412 415 477
3 416 347 419
3 416 419 417
3 415 417 418
3 415 418 480
3 417 419 420
3 417 420 418
3 419 421 422
3 419 422 420
3 347 349 421
3 347 421 419
3 421 423 424
3 421 424 422
3 349 351 423
3 349 423 421
3 423 425 426
3 423 426 424
3 351 353 425
3 351 425 423
3 425 427 428
3 425 428 426
3 353 355 427
3 353 427 425
3 427 429 430
3 427 430 428
3 355 358 429
3 355 429 427
3 429 431 432
3 429 432 430
3 358 360 431
3 358 431 429
3 431 433 434
3 431 434 432
3 360 362 433
3 360 433 431
3 433 435 436
3 433 436 434
3 362 364 435
3 362 435 433
3 435 437 438
3 435 438 436
3 364 367 437
3 364 437 435
3 437 439 440
3 437 440 438
3 367 369 439
3 367 439 437
3 439 441 442
3 439 442 440
3 369 371 441
3 369 441 439
3 441 443 444
3 441 444 442
3 371 373 443
3 371 443 441
3 443 445 446
3 443 446 444
3 373 376 445
3 373 445 443
3 445 447 448
3 445 448 446
3 376 378 447
3 376 447 445
3 447 449 450
3 447 450 448
3 378 380 449
3 378 449 447
3 449 451 452
3 449 452 450
3 380 382 451
3 380 451 449
3 451 453 454
3 451 454 452
3 382 385 453
3 382 453 451
3 453 455 456
3 453 456 454
3 385 387 455
3 385 455 453
3 455 457 458
3 455 458 456
3 387 389 457
3 387 457 455
3 457 459 460
3 457 460 458
3 389 391 459
3 389 459 457
3 459 461 462
3 459 462 460
3 391 394 461
3 391 461 459
3 461 463 464
3 461 464 462
3 394 396 463
3 394 463 461
3 463 465 466
3 463 466 464
3 396 398 465
3 396 465 463
3 465 467 468
3 465 468 466
3 398 400 467
3 398 467 465
3 467 469 470
3 467 470 468
3 400 403 469
3 400 469 467
3 469 471 472
3 469 472 470
3 403 405 471
3 403 471 469
3 471 473 474
3 471 474 472
3 405 407 473
3 405 473 471
3 473 475 476
3 473 476 474
3 407 409 475
3 407 475 473
3 475 477 478
3 475 478 476
3 409 412 477
3 409 477 475
3 477 415 480
3 477 480 478
3 476 478 479
3 476 479 512
3 478 480 481
3 478 481 479
3 480 418 482
3 480 482 481
3 481 482 483
3 479 481 483
3 502 484 483
3 484 503 483
3 482 485 483
3 485 486 483
3 486 487 483
3 487 488 483
3 488 489 483
3 489 490 483
3 490 491 483
3 491 492 483
3 492 493 483
3 493 494 483
3 494 495 483
3 495 496 483
3 496 497 483
3 497 498 483
3 498 499 483
3 499 500 483
3 500 501 483
3 501 502 483
3 503 504 483
3 504 505 483
3 505 506 483
3 506 507 483
3 507 508 483
3 508 509 483
3 509 510 483
3 510 511 483
3 511 512 483
3 512 479 483
3 474 476 512
3 474 512 511
3 472 474 511
3 472 511 510
3 470 472 510
3 470 510 509
3 468 470 509
3 468 509 508
3 466 468 508
3 466 508 507
3 464 466 507
3 464 507 506
3 462 464 506
3 462 506 505
3 460 462 505
3 460 505 504
3 458 460 504
3 458 504 503
3 456 458 503
3 456 503 484
3 452 454 502
3 452 502 501
3 454 456 484
3 454 484 502
3 450 452 501
3 450 501 500
3 448 450 500
3 448 500 499
3 446 448 499
3 446 499 498
3 444 446 498
3 444 498 497
3 442 444 497
3 442 497 496
3 440 442 496
3 440 496 495
3 438 440 495
3 438 495 494
3 436 438 494
3 436 494 493
3 434 436 493
3 434 493 492
3 432 434 492
3 432 492 491
3 430 432 491
3 430 491 490
3 428 430 490
3 428 490 489
3 426 428 489
3 426 489 488
3 424 426 488
3 424 488 487
3 422 424 487
3 422 487 486
3 420 422 486
3 420 486 485
3 418 420 485
3 418 485 482
