ply
format ascii 1.0
element vertex 1088
property float x
property float y
property float z
element face 2172
property list uchar int vertex_index
end_header
0.311919 2.644866 -0.231474
0.311730 2.644704 -0.231588
0.312314 2.644953 -0.230408
0.317449 2.651433 -0.234544
0.317041 2.651101 -0.234815
0.318222 2.651592 -0.232461
0.323972 2.658827 -0.237597
0.323311 2.658309 -0.238045
0.325169 2.659055 -0.234407
0.332209 2.667799 -0.240821
0.331321 2.667091 -0.241315
0.334008 2.668118 -0.236177
0.340093 2.675710 -0.242008
0.338504 2.674654 -0.243496
0.341906 2.675898 -0.237116
0.349997 2.684556 -0.240335
0.347254 2.683018 -0.243589
0.365474 2.658729 -0.268421
0.351427 2.684447 -0.235935
0.351480 2.682699 -0.230555
0.366847 2.658716 -0.264038
0.383680 2.632161 -0.291289
0.366850 2.657060 -0.258689
0.383874 2.630477 -0.286003
0.365440 2.653835 -0.252600
0.350131 2.679375 -0.224414
0.382649 2.627181 -0.280064
0.362623 2.649163 -0.246049
0.347405 2.674599 -0.217776
0.379981 2.622397 -0.273771
0.358471 2.643206 -0.239351
0.343383 2.668532 -0.210952
0.375908 2.616295 -0.267451
0.353124 2.636151 -0.232867
0.338211 2.661364 -0.204294
0.370554 2.609081 -0.261436
0.346795 2.628203 -0.226982
0.332101 2.653317 -0.198182
0.364131 2.600972 -0.256037
0.339770 2.619599 -0.222060
0.325330 2.644639 -0.192974
0.356939 2.592232 -0.251504
0.332377 2.610612 -0.218362
0.318204 2.635620 -0.188936
0.349325 2.583145 -0.247991
0.324949 2.601581 -0.215971
0.311029 2.626600 -0.186186
0.341644 2.574055 -0.245538
0.317786 2.592876 -0.214804
0.304079 2.617955 -0.184693
0.334220 2.565328 -0.244105
0.311149 2.584903 -0.214702
0.297593 2.610080 -0.184353
0.327331 2.557353 -0.243636
0.305252 2.578039 -0.215548
0.291778 2.603350 -0.185072
0.321203 2.550490 -0.244113
0.300279 2.572617 -0.217298
0.286817 2.598084 -0.186800
0.316031 2.545061 -0.245549
0.296383 2.568895 -0.219951
0.282873 2.594532 -0.189504
0.311971 2.541313 -0.247965
0.293692 2.567041 -0.223482
0.280088 2.592857 -0.193126
0.309157 2.539403 -0.251335
0.292310 2.567126 -0.227808
0.278573 2.593129 -0.197553
0.307693 2.539408 -0.255571
0.292315 2.569130 -0.232767
0.278406 2.595325 -0.202606
0.307643 2.541316 -0.260525
0.293736 2.572941 -0.238143
0.279622 2.599326 -0.208049
0.309035 2.545021 -0.265976
0.296559 2.578365 -0.243678
0.282212 2.604927 -0.213624
0.311845 2.550355 -0.271679
0.300708 2.585139 -0.249130
0.286110 2.611850 -0.219098
0.315996 2.557069 -0.277365
0.306041 2.592955 -0.254297
0.291185 2.619769 -0.224310
0.321355 2.564878 -0.282795
0.312352 2.601473 -0.259050
0.297238 2.628331 -0.229184
0.327724 2.573450 -0.287757
0.319369 2.610352 -0.263318
0.304017 2.637189 -0.233687
0.334842 2.582443 -0.292106
0.326777 2.619253 -0.267052
0.311224 2.646013 -0.237755
0.342392 2.591514 -0.295756
0.334240 2.627865 -0.270175
0.318547 2.654501 -0.241250
0.350035 2.600334 -0.298646
0.341437 2.635887 -0.272562
0.325675 2.662375 -0.243973
0.357411 2.608577 -0.300724
0.348094 2.643050 -0.274047
0.332329 2.669384 -0.245709
0.364219 2.615954 -0.301905
0.353983 2.649105 -0.274468
0.338271 2.675291 -0.246283
0.370246 2.622199 -0.302071
0.358930 2.653840 -0.273697
0.343301 2.679891 -0.245586
0.375311 2.627089 -0.301120
0.362803 2.657086 -0.271673
0.379311 2.630446 -0.298982
0.393029 2.604173 -0.327323
0.382131 2.632155 -0.295674
0.396195 2.605899 -0.323835
0.407093 2.580807 -0.353205
0.398130 2.605871 -0.319292
0.409220 2.580724 -0.348643
0.398726 2.604098 -0.313890
0.410061 2.578845 -0.343182
0.397886 2.600657 -0.307903
0.409517 2.575247 -0.337092
0.395545 2.595687 -0.301659
0.407538 2.570073 -0.330680
0.391718 2.589358 -0.295482
0.404103 2.563512 -0.324281
0.386509 2.581902 -0.289674
0.399321 2.555803 -0.318170
0.380148 2.573560 -0.284460
0.393380 2.547216 -0.312578
0.372963 2.564622 -0.279983
0.386581 2.538067 -0.307650
0.365315 2.555398 -0.276333
0.379261 2.528677 -0.303489
0.357566 2.546238 -0.273556
0.371761 2.519407 -0.300185
0.350039 2.537506 -0.271689
0.364400 2.510618 -0.297820
0.343015 2.529570 -0.270776
0.357464 2.502663 -0.296479
0.336728 2.522770 -0.270873
0.351201 2.495869 -0.296235
0.331385 2.517408 -0.272026
0.345827 2.490517 -0.297137
0.327153 2.513706 -0.274251
0.341520 2.486819 -0.299191
0.324170 2.511822 -0.277515
0.338422 2.484931 -0.302353
0.322535 2.511829 -0.281724
0.336640 2.484931 -0.306525
0.322313 2.513719 -0.286722
0.336237 2.486817 -0.311556
0.323523 2.517401 -0.292301
0.337233 2.490515 -0.317248
0.326132 2.522719 -0.298227
0.339598 2.495869 -0.323367
0.330065 2.529444 -0.304225
0.343253 2.502671 -0.329655
0.335189 2.537297 -0.310043
0.348063 2.510642 -0.335858
0.341314 2.545962 -0.315439
0.353840 2.519472 -0.341726
0.348196 2.555092 -0.320216
0.360344 2.528802 -0.347041
0.355552 2.564336 -0.324226
0.367314 2.538273 -0.351619
0.363058 2.573349 -0.327363
0.374445 2.547519 -0.355306
0.370383 2.581789 -0.329551
0.381463 2.556184 -0.357974
0.377259 2.589347 -0.330708
0.388106 2.563936 -0.359516
0.383428 2.595744 -0.330764
0.394156 2.570491 -0.359842
0.388737 2.600748 -0.329643
0.399429 2.575600 -0.358897
0.410857 2.551747 -0.386279
0.403790 2.579080 -0.356665
0.415119 2.555318 -0.384314
0.428418 2.532701 -0.409526
0.418381 2.557077 -0.381053
0.431646 2.534522 -0.406449
0.420510 2.556967 -0.376626
0.433781 2.534408 -0.402137
0.421401 2.554999 -0.371225
0.434717 2.532370 -0.396775
0.420983 2.551252 -0.365097
0.434367 2.528490 -0.390612
0.419193 2.545871 -0.358542
0.432681 2.522911 -0.383941
0.416043 2.539062 -0.351865
0.429681 2.515849 -0.377054
0.411620 2.531073 -0.345352
0.425431 2.507563 -0.370256
0.406089 2.522194 -0.339253
0.420100 2.498363 -0.363802
0.399693 2.512765 -0.333766
0.413902 2.488602 -0.357925
0.392732 2.503123 -0.329042
0.407118 2.478640 -0.352807
0.385523 2.493636 -0.325210
0.400056 2.468858 -0.348600
0.378377 2.484678 -0.322385
0.393021 2.459643 -0.345440
0.371581 2.476584 -0.320661
0.386298 2.451330 -0.343427
0.365399 2.469690 -0.320114
0.380155 2.444256 -0.342646
0.360049 2.464255 -0.320788
0.374810 2.438679 -0.343133
0.355719 2.460502 -0.322680
0.370459 2.434832 -0.344892
0.352561 2.458583 -0.325743
0.367250 2.432857 -0.347871
0.350682 2.458575 -0.329876
0.365298 2.432839 -0.351968
0.350151 2.460483 -0.334928
0.364675 2.434784 -0.357031
0.350994 2.464241 -0.340705
0.365413 2.438627 -0.362869
0.353185 2.469703 -0.346974
0.367496 2.444229 -0.369246
0.356645 2.476650 -0.353482
0.370846 2.451367 -0.375907
0.361245 2.484821 -0.359972
0.375343 2.459780 -0.382590
0.366793 2.493887 -0.366194
0.380794 2.469129 -0.389040
0.373054 2.503490 -0.371917
0.386965 2.479047 -0.395024
0.379768 2.513251 -0.376943
0.393590 2.489144 -0.400338
0.386637 2.522788 -0.381097
0.400367 2.499015 -0.404806
0.393417 2.531732 -0.384223
0.407050 2.508279 -0.408260
0.399835 2.539731 -0.386197
0.413366 2.516566 -0.410566
0.405715 2.546488 -0.386901
0.419147 2.523559 -0.411589
0.433973 2.501642 -0.434587
0.424211 2.529004 -0.411253
0.439012 2.507298 -0.434484
0.454412 2.486300 -0.456642
0.443222 2.511145 -0.432943
0.458631 2.490315 -0.455278
0.446488 2.513055 -0.429988
0.461962 2.492331 -0.452421
0.448696 2.512964 -0.425727
0.464285 2.492288 -0.448182
0.449733 2.510880 -0.420348
0.465480 2.490191 -0.442752
0.449500 2.506885 -0.414104
0.465429 2.486114 -0.436398
0.447932 2.501124 -0.407297
0.464047 2.480216 -0.429437
0.445046 2.493814 -0.400229
0.461326 2.472702 -0.422196
0.440884 2.485226 -0.393222
0.457298 2.463856 -0.415008
0.435626 2.475687 -0.386535
0.452129 2.454019 -0.408138
0.429479 2.465569 -0.380412
0.446033 2.443561 -0.401830
0.422731 2.455252 -0.375044
0.439303 2.432886 -0.396271
0.415694 2.445132 -0.370591
0.432260 2.422409 -0.391626
0.408671 2.435607 -0.367201
0.425219 2.412544 -0.388044
0.401953 2.427032 -0.364980
0.418482 2.403682 -0.385647
0.395797 2.419730 -0.364018
0.412298 2.396139 -0.384526
0.390430 2.413988 -0.364359
0.406897 2.390212 -0.384743
0.386039 2.410019 -0.366010
0.402456 2.386104 -0.386297
0.382772 2.407970 -0.368917
0.399129 2.383982 -0.389147
0.380748 2.407934 -0.372984
0.397031 2.383925 -0.393197
0.380045 2.409922 -0.378062
0.396244 2.385942 -0.398297
0.380697 2.413862 -0.383951
0.396807 2.389963 -0.404247
0.382692 2.419605 -0.390418
0.398713 2.395853 -0.410809
0.385967 2.426950 -0.397201
0.401913 2.403397 -0.417715
0.390398 2.435613 -0.404034
0.406280 2.412306 -0.424682
0.395803 2.445256 -0.410651
0.411634 2.422240 -0.431439
0.401944 2.455505 -0.416818
0.417726 2.432804 -0.437752
0.408550 2.465954 -0.422334
0.424280 2.443579 -0.443421
0.415307 2.476182 -0.427026
0.430978 2.454130 -0.448285
0.421957 2.485782 -0.430729
0.437550 2.464037 -0.452192
0.428236 2.494382 -0.433300
0.443749 2.472915 -0.454987
0.459624 2.452133 -0.476056
0.449412 2.480432 -0.456523
0.465141 2.459886 -0.477842
0.481285 2.440202 -0.498736
0.470058 2.465951 -0.478146
0.486060 2.446487 -0.499291
0.474249 2.470119 -0.476926
0.490199 2.450805 -0.498187
0.477619 2.472247 -0.474161
0.493579 2.453038 -0.495503
0.480051 2.472250 -0.469914
0.496088 2.453110 -0.491311
0.481413 2.470187 -0.464463
0.497597 2.451027 -0.485761
0.481578 2.466085 -0.458008
0.497962 2.446869 -0.479188
0.480444 2.460109 -0.450904
0.497071 2.440792 -0.471934
0.477973 2.452475 -0.443505
0.494869 2.433025 -0.464368
0.474190 2.443471 -0.436152
0.491375 2.423864 -0.456842
0.469231 2.433427 -0.429121
0.486700 2.413645 -0.449641
0.463300 2.422715 -0.422644
0.481036 2.402739 -0.442992
0.456685 2.411741 -0.416906
0.474646 2.391547 -0.437073
0.449704 2.400939 -0.412073
0.467835 2.380502 -0.432051
0.442680 2.390734 -0.408298
0.460926 2.370047 -0.428083
0.435925 2.381542 -0.405719
0.454231 2.360601 -0.425318
0.429706 2.373717 -0.404438
0.448031 2.352546 -0.423876
0.424255 2.367555 -0.404526
0.442562 2.346186 -0.423829
0.419759 2.363288 -0.405989
0.438023 2.341753 -0.425202
0.416368 2.361066 -0.408790
0.434575 2.339427 -0.427951
0.414197 2.360965 -0.412831
0.432336 2.339271 -0.431980
0.413328 2.363000 -0.417959
0.431391 2.341293 -0.437136
0.413808 2.367098 -0.423977
0.431782 2.345412 -0.443218
0.415634 2.373114 -0.430637
0.433502 2.351482 -0.449972
0.418752 2.380829 -0.437658
0.436499 2.359330 -0.457111
0.423027 2.389957 -0.444752
0.440640 2.368659 -0.464338
0.428285 2.400149 -0.451638
0.445738 2.379081 -0.471370
0.434267 2.410993 -0.458081
0.451524 2.390165 -0.477973
0.440682 2.422045 -0.463891
0.457717 2.401456 -0.483955
0.447228 2.432861 -0.468898
0.464011 2.412505 -0.489171
0.453601 2.443012 -0.473021
0.470168 2.422888 -0.493456
0.487285 2.403579 -0.513565
0.475948 2.432236 -0.496745
0.492845 2.413197 -0.517063
0.510162 2.394063 -0.536869
0.498005 2.421384 -0.519215
0.515106 2.402568 -0.539258
0.502644 2.427842 -0.519904
0.519607 2.409206 -0.540059
0.506696 2.432320 -0.518956
0.523579 2.413862 -0.539219
0.510067 2.434642 -0.516331
0.526940 2.416311 -0.536649
0.512636 2.434697 -0.512090
0.529571 2.416458 -0.532427
0.514265 2.432614 -0.506503
0.531319 2.414257 -0.526699
0.514801 2.428354 -0.499813
0.532021 2.409844 -0.519866
0.514121 2.422111 -0.492412
0.531538 2.403395 -0.512317
0.512157 2.414140 -0.484691
0.529794 2.395173 -0.504454
0.508920 2.404754 -0.477008
0.526790 2.385509 -0.496637
0.504513 2.394311 -0.469651
0.522627 2.374785 -0.489149
0.499116 2.383192 -0.462842
0.517480 2.363411 -0.482208
0.492975 2.371800 -0.456759
0.511590 2.351818 -0.475999
0.486378 2.360560 -0.451570
0.505232 2.340452 -0.470697
0.479640 2.349915 -0.447436
0.498711 2.329744 -0.466470
0.473071 2.340297 -0.444516
0.492322 2.320112 -0.463474
0.466953 2.332087 -0.442934
0.486342 2.311913 -0.461823
0.461532 2.325607 -0.442771
0.481019 2.305441 -0.461601
0.457012 2.321100 -0.444056
0.476565 2.300930 -0.462835
0.453551 2.318707 -0.446749
0.473147 2.298534 -0.465491
0.451278 2.318519 -0.450758
0.470898 2.298337 -0.469472
0.450275 2.320525 -0.455929
0.469902 2.300349 -0.474625
0.450593 2.324687 -0.462057
0.470193 2.304495 -0.480742
0.452217 2.330852 -0.468882
0.471749 2.310645 -0.487569
0.455075 2.338809 -0.476121
0.474477 2.318594 -0.494834
0.459036 2.348263 -0.483483
0.478228 2.328056 -0.502254
0.463921 2.358850 -0.490676
0.482816 2.338686 -0.509559
0.469465 2.370132 -0.497454
0.488012 2.350075 -0.516502
0.475402 2.381645 -0.503601
0.493578 2.361762 -0.522870
0.481404 2.392929 -0.509034
0.499270 2.373242 -0.528463
0.517319 2.352151 -0.547472
0.504845 2.384176 -0.533210
0.522548 2.363348 -0.552429
0.540875 2.342678 -0.570865
0.527601 2.373469 -0.556205
0.545585 2.352822 -0.574777
0.532334 2.382136 -0.558670
0.550086 2.361537 -0.577279
0.536677 2.388997 -0.559595
0.554250 2.368475 -0.578259
0.540562 2.393814 -0.558824
0.558016 2.373365 -0.577533
0.543902 2.396389 -0.556278
0.561291 2.376011 -0.575031
0.546579 2.396596 -0.552000
0.563952 2.376303 -0.570837
0.548421 2.394451 -0.546277
0.565841 2.374150 -0.565113
0.549275 2.389997 -0.539380
0.566798 2.369669 -0.558259
0.548990 2.383423 -0.531747
0.566678 2.363024 -0.550674
0.547475 2.374984 -0.523793
0.565387 2.354467 -0.542768
0.544719 2.365009 -0.515882
0.562904 2.344347 -0.534912
0.540810 2.353900 -0.508310
0.559299 2.333097 -0.527414
0.535918 2.342118 -0.501311
0.554729 2.321206 -0.520512
0.530282 2.330151 -0.495079
0.549410 2.309175 -0.514387
0.524169 2.318481 -0.489786
0.543597 2.297473 -0.509195
0.517870 2.307551 -0.485582
0.537557 2.286522 -0.505068
0.511666 2.297760 -0.482605
0.531558 2.276696 -0.502129
0.505826 2.289443 -0.480959
0.525863 2.268333 -0.500483
0.500603 2.282905 -0.480721
0.520735 2.261750 -0.500218
0.496219 2.278375 -0.481926
0.516416 2.257205 -0.501382
0.492859 2.276016 -0.484544
0.513110 2.254886 -0.503956
0.490661 2.275914 -0.488485
0.510968 2.254891 -0.507845
0.489715 2.278081 -0.493593
0.510073 2.257217 -0.512882
0.490039 2.282429 -0.499652
0.510423 2.261749 -0.518842
0.491575 2.288774 -0.506401
0.511934 2.268268 -0.525467
0.494196 2.296866 -0.513574
0.514462 2.276500 -0.532496
0.497742 2.306421 -0.520921
0.517830 2.286125 -0.539685
0.502027 2.317115 -0.528202
0.521854 2.296817 -0.546811
0.506865 2.328593 -0.535177
0.526343 2.308211 -0.553674
0.512022 2.340417 -0.541673
0.531133 2.319942 -0.560077
0.551303 2.301002 -0.578160
0.536011 2.331558 -0.565889
0.555810 2.312386 -0.583805
0.576788 2.294278 -0.601627
0.560334 2.323289 -0.588639
0.581025 2.305012 -0.606207
0.564744 2.333248 -0.592451
0.585205 2.314839 -0.609777
0.568971 2.341849 -0.594962
0.589223 2.323354 -0.612125
0.572940 2.348734 -0.595948
0.593026 2.330195 -0.613005
0.576569 2.353611 -0.595239
0.596530 2.335061 -0.612254
0.579754 2.356262 -0.592779
0.599620 2.337724 -0.609832
0.582368 2.356552 -0.588641
0.602157 2.338047 -0.605832
0.584240 2.354460 -0.583085
0.604006 2.335996 -0.600442
0.585241 2.350024 -0.576408
0.605023 2.331621 -0.594012
0.585232 2.343423 -0.569023
0.605089 2.325097 -0.586923
0.584122 2.334923 -0.561342
0.604122 2.316695 -0.579568
0.581888 2.324886 -0.553733
0.602092 2.306774 -0.572304
0.578585 2.313743 -0.546494
0.599043 2.295753 -0.565413
0.574346 2.301959 -0.539842
0.595088 2.284079 -0.559087
0.569362 2.290002 -0.533937
0.590398 2.272203 -0.553463
0.563856 2.278314 -0.528909
0.585177 2.260560 -0.548656
0.558072 2.267317 -0.524883
0.579649 2.249565 -0.544786
0.552271 2.257408 -0.521986
0.574061 2.239627 -0.541979
0.546720 2.248958 -0.520338
0.568680 2.231140 -0.540364
0.541693 2.242313 -0.520041
0.563784 2.224471 -0.540054
0.537446 2.237751 -0.521152
0.559633 2.219913 -0.541117
0.534197 2.235472 -0.523657
0.556446 2.217666 -0.543548
0.532105 2.235577 -0.527465
0.554383 2.217823 -0.547266
0.531251 2.238053 -0.532404
0.553530 2.220367 -0.552105
0.531629 2.242770 -0.538245
0.553877 2.225157 -0.557829
0.533137 2.249484 -0.544718
0.555319 2.231924 -0.564160
0.535607 2.257873 -0.551557
0.557679 2.240323 -0.570816
0.538848 2.267579 -0.558513
0.560763 2.249987 -0.577548
0.542678 2.278255 -0.565370
0.564382 2.260560 -0.584143
0.546875 2.289500 -0.571970
0.568371 2.271700 -0.590433
0.590556 2.253990 -0.609463
0.572533 2.283049 -0.596311
0.594523 2.265287 -0.615055
0.617300 2.247246 -0.634470
0.598615 2.276469 -0.620039
0.621243 2.258425 -0.639170
0.602710 2.287154 -0.624257
0.625239 2.269101 -0.643052
0.606733 2.296957 -0.627508
0.629176 2.278916 -0.645956
0.610624 2.305490 -0.629571
0.633000 2.287488 -0.647689
0.614326 2.312382 -0.630233
0.636649 2.294445 -0.648078
0.617750 2.317310 -0.629353
0.640024 2.299446 -0.647018
0.620773 2.320023 -0.626905
0.642995 2.302228 -0.644511
0.623260 2.320354 -0.622978
0.645423 2.302628 -0.640661
0.625064 2.318364 -0.617799
0.647188 2.300603 -0.635657
0.626074 2.314016 -0.611647
0.648174 2.296227 -0.629786
0.626181 2.307510 -0.604887
0.648295 2.289689 -0.623370
0.625310 2.299127 -0.597889
0.647492 2.281276 -0.616737
0.623432 2.289231 -0.590990
0.645741 2.271354 -0.610184
0.620583 2.278239 -0.584447
0.643070 2.260339 -0.603947
0.616863 2.266597 -0.578431
0.639561 2.248672 -0.598189
0.612425 2.254751 -0.573066
0.635346 2.236798 -0.593033
0.607458 2.243135 -0.568459
0.630597 2.225153 -0.588589
0.602173 2.232171 -0.564728
0.625521 2.214171 -0.584981
0.596810 2.222270 -0.562011
0.620355 2.204276 -0.582355
0.591628 2.213829 -0.560447
0.615351 2.195864 -0.580855
0.586892 2.207205 -0.560155
0.610758 2.189281 -0.580603
0.582850 2.202683 -0.561203
0.606805 2.184793 -0.581668
0.579709 2.200450 -0.563597
0.603687 2.182570 -0.584064
0.577628 2.200593 -0.567264
0.601554 2.182688 -0.587723
0.576695 2.203092 -0.572044
0.600508 2.185139 -0.592480
0.576918 2.207812 -0.577700
0.600583 2.189812 -0.598090
0.578215 2.214507 -0.583944
0.601726 2.196478 -0.604259
0.580426 2.222839 -0.590478
0.603796 2.204803 -0.610686
0.583356 2.232437 -0.597039
0.606567 2.214395 -0.617101
0.586784 2.242927 -0.603418
0.609856 2.224892 -0.623301
0.633826 2.206368 -0.643528
0.613464 2.235953 -0.629135
0.637306 2.217529 -0.649117
0.662201 2.198890 -0.669042
0.641056 2.228900 -0.654167
0.665813 2.210461 -0.673765
0.644936 2.240124 -0.658535
0.669661 2.221862 -0.677746
0.648858 2.250842 -0.662067
0.673564 2.232734 -0.680880
0.652750 2.260688 -0.664602
0.677466 2.242706 -0.683001
0.656548 2.269284 -0.665979
0.681293 2.251384 -0.683978
0.660174 2.276253 -0.666070
0.684949 2.258389 -0.683728
0.663518 2.281255 -0.664813
0.688302 2.263389 -0.682228
0.666446 2.284026 -0.662227
0.691212 2.266140 -0.679532
0.668827 2.284387 -0.658419
0.693548 2.266497 -0.675775
0.670538 2.282366 -0.653614
0.695214 2.264369 -0.671129
0.671490 2.277961 -0.648037
0.696121 2.259861 -0.665857
0.671612 2.271374 -0.641985
0.696216 2.253135 -0.660206
0.670859 2.262893 -0.635746
0.695476 2.244469 -0.654417
0.669211 2.252887 -0.629575
0.693891 2.234237 -0.648713
0.666689 2.241775 -0.623688
0.691478 2.222877 -0.643294
0.663354 2.230003 -0.618243
0.688283 2.210852 -0.638307
0.659314 2.218011 -0.613367
0.684402 2.198616 -0.633881
0.654726 2.206242 -0.609169
0.679982 2.186626 -0.630122
0.649791 2.195130 -0.605773
0.675222 2.175335 -0.627150
0.644747 2.185107 -0.603331
0.670360 2.165197 -0.625100
0.639848 2.176589 -0.601995
0.665641 2.156632 -0.624082
0.635342 2.169938 -0.601878
0.661289 2.149994 -0.624182
0.631441 2.165428 -0.603019
0.657501 2.145537 -0.625432
0.628333 2.163239 -0.605424
0.654443 2.143417 -0.627827
0.626167 2.163437 -0.609028
0.652249 2.143694 -0.631296
0.625042 2.165998 -0.613677
0.651021 2.146339 -0.635702
0.625015 2.170799 -0.619143
0.650822 2.151245 -0.640839
0.626061 2.177604 -0.625142
0.651655 2.158189 -0.646458
0.628043 2.186062 -0.631373
0.653394 2.166813 -0.652317
0.630684 2.195767 -0.637560
0.655874 2.176730 -0.658158
0.682366 2.157600 -0.678606
0.658836 2.187526 -0.663797
0.684930 2.168607 -0.683923
0.712711 2.149884 -0.703352
0.688047 2.180263 -0.688811
0.715328 2.161817 -0.708003
0.691510 2.192137 -0.693147
0.718409 2.174032 -0.712070
0.695228 2.203842 -0.696763
0.721833 2.186102 -0.715416
0.699107 2.214999 -0.699496
0.725557 2.197610 -0.717843
0.703055 2.225208 -0.701172
0.729459 2.208100 -0.719125
0.706955 2.234043 -0.701702
0.733359 2.217105 -0.719225
0.710680 2.241127 -0.701061
0.737097 2.224265 -0.718204
0.714069 2.246139 -0.699275
0.740469 2.229277 -0.716136
0.716975 2.248852 -0.696428
0.743330 2.231930 -0.713131
0.719276 2.249113 -0.692672
0.745567 2.232093 -0.709405
0.720872 2.246886 -0.688228
0.747090 2.229674 -0.705170
0.721703 2.242213 -0.683292
0.747852 2.224759 -0.700590
0.721729 2.235247 -0.678095
0.747834 2.217471 -0.695894
0.720955 2.226268 -0.672830
0.747093 2.208099 -0.691202
0.719398 2.215658 -0.667686
0.745684 2.197014 -0.686663
0.717094 2.203887 -0.662853
0.743676 2.184741 -0.682456
0.714095 2.191473 -0.658447
0.741103 2.171869 -0.678647
0.710492 2.178913 -0.654586
0.738010 2.158948 -0.675306
0.706421 2.166714 -0.651346
0.734457 2.146498 -0.672436
0.702054 2.155356 -0.648812
0.730538 2.135000 -0.670076
0.697580 2.145271 -0.647081
0.726400 2.124854 -0.668339
0.693191 2.136827 -0.646252
0.722238 2.116415 -0.667388
0.689088 2.130328 -0.646428
0.718277 2.109971 -0.667399
0.685466 2.126002 -0.647674
0.714737 2.105744 -0.668490
0.682499 2.124003 -0.649992
0.711808 2.103879 -0.670680
0.680322 2.124384 -0.653311
0.709630 2.104425 -0.673892
0.679020 2.127105 -0.657489
0.708288 2.107335 -0.677960
0.678631 2.132041 -0.662327
0.707799 2.112472 -0.682664
0.679149 2.138991 -0.667585
0.708086 2.119601 -0.687766
0.680393 2.147599 -0.673095
0.709064 2.128433 -0.693036
0.739932 2.108855 -0.712102
0.710594 2.138629 -0.698309
0.741167 2.119496 -0.717188
0.775306 2.099563 -0.736903
0.742944 2.131209 -0.721924
0.776574 2.111870 -0.741374
0.745090 2.143566 -0.726210
0.778258 2.124809 -0.745245
0.747590 2.156170 -0.729913
0.780183 2.137957 -0.748335
0.750459 2.168584 -0.732909
0.782429 2.150832 -0.750575
0.753718 2.180365 -0.735015
0.785052 2.162972 -0.751895
0.757263 2.191046 -0.735960
0.787969 2.173928 -0.752146
0.760900 2.200169 -0.735709
0.791076 2.183269 -0.751353
0.764464 2.207407 -0.734358
0.794264 2.190663 -0.749591
0.767707 2.212440 -0.731988
0.797302 2.195751 -0.746993
0.770478 2.215041 -0.728766
0.800026 2.198237 -0.743921
0.772655 2.215043 -0.724981
0.802297 2.197923 -0.740847
0.774163 2.212393 -0.720895
0.804078 2.194714 -0.738083
0.774985 2.207107 -0.716803
0.805405 2.188670 -0.735803
0.775149 2.199332 -0.712928
0.806323 2.180048 -0.733873
0.774787 2.189403 -0.709352
0.806880 2.169308 -0.732033
0.773976 2.177726 -0.706089
0.807003 2.156936 -0.730075
0.772732 2.164871 -0.703057
0.806586 2.143475 -0.727924
0.770951 2.151467 -0.700159
0.805492 2.129529 -0.725540
0.768549 2.138108 -0.697330
0.803613 2.115702 -0.722802
0.765514 2.125320 -0.694557
0.800947 2.102524 -0.719739
0.761922 2.113595 -0.691924
0.797562 2.090510 -0.716495
0.757941 2.103330 -0.689655
0.793649 2.080106 -0.713335
0.753814 2.094872 -0.688051
0.789497 2.071667 -0.710645
0.749816 2.088496 -0.687427
0.785402 2.065440 -0.708871
0.746207 2.084397 -0.688016
0.781642 2.061580 -0.708449
0.743203 2.082715 -0.689887
0.778463 2.060192 -0.709603
0.740958 2.083493 -0.692954
0.776048 2.061296 -0.712312
0.739560 2.086682 -0.697001
0.774492 2.064840 -0.716323
0.739037 2.092147 -0.701746
0.773792 2.070684 -0.721224
0.739176 2.099623 -0.706885
0.773851 2.078617 -0.726577
0.811673 2.056412 -0.747516
0.774349 2.088354 -0.731875
0.811988 2.066848 -0.752858
0.850202 2.046127 -0.772217
0.812792 2.078812 -0.757871
0.851035 2.059105 -0.777040
0.813832 2.091868 -0.762175
0.852024 2.073091 -0.781044
0.815140 2.105524 -0.765653
0.853395 2.087375 -0.784192
0.816758 2.119322 -0.768195
0.855456 2.101535 -0.786370
0.818716 2.132812 -0.769661
0.858235 2.115376 -0.787335
0.821078 2.145518 -0.770054
0.861342 2.128664 -0.786983
0.823774 2.156971 -0.769395
0.864314 2.140796 -0.785472
0.826696 2.166710 -0.767792
0.867153 2.151075 -0.783024
0.829732 2.174381 -0.765331
0.870019 2.159112 -0.779777
0.832758 2.179582 -0.762346
0.872959 2.164510 -0.776252
0.835661 2.181952 -0.759426
0.875835 2.166847 -0.773144
0.838304 2.181264 -0.757011
0.878557 2.165840 -0.771115
0.840629 2.177406 -0.755447
0.881196 2.161385 -0.770507
0.842609 2.170501 -0.754772
0.883724 2.153771 -0.771170
0.844193 2.160975 -0.754687
0.885891 2.143710 -0.772610
0.845253 2.149359 -0.754670
0.887066 2.131772 -0.773505
0.845641 2.136167 -0.754197
0.886543 2.118062 -0.773262
0.845145 2.121987 -0.753025
0.884231 2.103150 -0.772135
0.843812 2.107426 -0.751057
0.881602 2.087615 -0.770117
0.841862 2.092888 -0.748339
0.879209 2.071642 -0.767538
0.839222 2.078975 -0.745080
0.876422 2.056338 -0.764607
0.835836 2.066330 -0.741487
0.873095 2.042709 -0.761224
0.831936 2.055504 -0.737766
0.869480 2.031200 -0.757321
0.827881 2.046905 -0.734258
0.865777 2.022155 -0.753202
0.823938 2.040751 -0.731509
0.862191 2.015778 -0.749535
0.820286 2.037115 -0.730200
0.858809 2.012089 -0.747496
0.817103 2.036034 -0.730757
0.855713 2.011114 -0.748014
0.814565 2.037511 -0.733196
0.853086 2.012906 -0.751027
0.812819 2.041511 -0.737206
0.851157 2.017419 -0.755777
0.811863 2.047867 -0.742145
0.850036 2.024758 -0.761343
0.886446 2.006337 -0.777260
0.849856 2.034398 -0.766967
0.886304 2.017306 -0.782375
0.886317 2.030524 -0.786872
0.886412 2.044462 -0.790967
0.887349 2.058719 -0.794319
0.888894 2.073009 -0.796962
0.891315 2.086666 -0.798860
0.895099 2.099988 -0.799759
0.900050 2.113306 -0.799656
0.904988 2.126010 -0.798658
0.908617 2.136942 -0.796430
0.911648 2.145630 -0.792818
0.914570 2.151522 -0.788135
0.917354 2.154330 -0.783149
0.920052 2.153830 -0.779407
0.922936 2.149486 -0.778745
0.925513 2.141914 -0.780603
0.926671 2.132035 -0.782632
0.925630 2.119923 -0.784012
0.922972 2.104575 -0.783506
0.919259 2.087771 -0.781377
0.915500 2.071457 -0.779072
0.913046 2.054281 -0.777287
0.911125 2.037772 -0.774960
0.908585 2.023540 -0.771463
0.905029 2.011925 -0.767421
0.901392 2.002568 -0.763598
0.897237 1.995674 -0.760074
0.893206 1.991393 -0.758238
0.889944 1.990082 -0.760335
0.887849 1.992342 -0.765699
0.886839 1.997635 -0.771759
0.335857 2.672284 -0.244038
0.332098 2.668625 -0.243929
0.329268 2.665211 -0.241681
0.326457 2.662354 -0.241296
0.321856 2.656972 -0.238394
0.320151 2.655064 -0.237677
0.316162 2.650255 -0.234966
0.314977 2.648981 -0.234733
0.311328 2.644293 -0.231607
0.310719 2.643643 -0.231552
0.309913 2.642772 -0.231452
0.308995 2.641735 -0.231210
0.313625 2.647364 -0.233947
0.311900 2.645353 -0.233162
0.317762 2.652448 -0.236923
0.314704 2.649179 -0.236344
0.322692 2.658500 -0.240779
0.318796 2.654057 -0.238867
0.327160 2.663723 -0.243601
0.321296 2.657765 -0.243013
0.315878 2.651438 -0.239982
0.310232 2.644588 -0.236421
0.313941 2.648769 -0.237606
0.309297 2.643233 -0.235140
0.311893 2.645710 -0.234388
0.308237 2.641650 -0.233569
0.309787 2.642982 -0.232587
0.307775 2.640515 -0.231434
0.308163 2.640642 -0.230505
0.307237 2.639442 -0.229795
0.306241 2.638175 -0.229132
0.305209 2.636888 -0.228552
0.305844 2.638003 -0.229943
0.303695 2.635374 -0.228935
0.305406 2.637810 -0.230838
0.301859 2.633604 -0.229665
0.304890 2.637581 -0.231896
0.300144 2.631678 -0.229538
0.304460 2.637389 -0.232778
0.298721 2.630048 -0.229373
0.293345 2.622885 -0.226091
0.288677 2.616250 -0.222700
0.296008 2.626090 -0.226581
0.292800 2.621108 -0.222773
0.299385 2.629926 -0.226712
0.296563 2.626250 -0.225179
0.301787 2.632894 -0.227683
0.300288 2.630707 -0.226032
0.304186 2.635631 -0.228067
0.303222 2.634460 -0.227671
0.302566 2.633512 -0.226944
0.302079 2.632755 -0.226248
0.298851 2.628720 -0.224861
0.297614 2.627053 -0.224039
0.294693 2.623254 -0.222662
0.293050 2.620719 -0.220859
0.289679 2.616516 -0.220180
0.287712 2.612942 -0.216923
0.285764 2.610813 -0.217489
0.283576 2.606318 -0.212924
0.282098 2.602960 -0.209306
0.281540 2.600998 -0.206412
0.286296 2.610261 -0.214455
0.285754 2.608727 -0.212296
0.291771 2.618791 -0.219663
0.291390 2.617769 -0.218110
0.296875 2.625887 -0.223067
0.296570 2.625230 -0.222167
0.301729 2.632195 -0.225711
0.301540 2.631861 -0.225326
0.301529 2.631771 -0.225088
0.302122 2.632111 -0.224136
0.296577 2.625055 -0.221640
0.297745 2.625731 -0.219772
0.291431 2.617494 -0.217246
0.293240 2.618536 -0.214376
0.285768 2.608283 -0.211181
0.288450 2.609779 -0.206972
0.282061 2.600593 -0.204070
0.284994 2.602255 -0.199753
0.288873 2.605399 -0.196233
0.293389 2.609839 -0.193928
0.291592 2.612303 -0.204001
0.295405 2.615880 -0.201735
0.295402 2.620283 -0.212339
0.298331 2.622859 -0.210231
0.299180 2.626863 -0.218371
0.300962 2.628462 -0.217227
0.302871 2.632684 -0.223378
0.303739 2.633463 -0.222863
0.304678 2.634414 -0.222638
0.305707 2.635519 -0.222610
0.303117 2.630497 -0.216202
0.305307 2.632786 -0.215863
0.301416 2.625960 -0.209145
0.304460 2.629434 -0.209296
0.299439 2.620259 -0.200855
0.304263 2.625472 -0.200084
0.298193 2.615322 -0.193289
0.303198 2.621630 -0.194224
0.309450 2.628820 -0.194542
0.315798 2.636305 -0.196062
0.308704 2.630970 -0.201406
0.313609 2.636845 -0.202915
0.308165 2.633430 -0.209114
0.311164 2.637348 -0.211013
0.307363 2.635206 -0.216398
0.309616 2.637818 -0.216978
0.306947 2.636802 -0.222450
0.308142 2.638127 -0.222596
0.309232 2.639436 -0.223066
0.310171 2.640678 -0.223851
0.311884 2.640482 -0.217783
0.313699 2.642951 -0.219528
0.314905 2.641585 -0.211914
0.317543 2.645380 -0.215051
0.318625 2.642806 -0.204914
0.322759 2.648380 -0.208799
0.321856 2.643745 -0.199049
0.327280 2.650833 -0.203563
0.331933 2.657345 -0.209214
0.335751 2.663102 -0.215463
0.326628 2.653612 -0.212931
0.330232 2.658379 -0.216806
0.320670 2.649190 -0.217040
0.322602 2.652326 -0.220767
0.315370 2.645278 -0.221395
0.316927 2.647412 -0.223113
0.310927 2.641809 -0.224910
0.311484 2.642788 -0.226176
0.312030 2.643667 -0.227174
0.312382 2.644346 -0.228192
0.317901 2.649119 -0.225413
0.318338 2.650367 -0.228030
0.324485 2.655114 -0.223723
0.325435 2.657165 -0.227323
0.332418 2.662194 -0.222079
0.334095 2.665253 -0.226662
0.339478 2.668206 -0.220341
0.341787 2.672130 -0.225734
0.342532 2.674707 -0.231527
0.334535 2.667217 -0.231607
0.325497 2.658429 -0.231260
0.318477 2.651214 -0.230350
0.312474 2.644778 -0.229293
0.911653 2.015756 -0.790737
0.912738 2.025949 -0.794649
0.913833 2.037536 -0.797775
0.915276 2.050366 -0.800439
0.917261 2.063667 -0.802569
0.920591 2.075852 -0.804179
0.923551 2.087151 -0.805001
0.926243 2.097794 -0.804836
0.928619 2.107383 -0.803777
0.930918 2.115232 -0.801838
0.933504 2.120968 -0.799149
0.935826 2.124520 -0.795891
0.937750 2.125833 -0.792258
0.939167 2.124939 -0.788536
0.939886 2.121681 -0.785296
0.939857 2.116337 -0.782896
0.939049 2.109184 -0.781484
0.937530 2.100423 -0.781089
0.935407 2.089815 -0.780878
0.932546 2.077913 -0.779820
0.930187 2.064885 -0.778196
0.928633 2.051170 -0.776897
0.927663 2.037866 -0.775316
0.926631 2.025992 -0.773230
0.924825 2.016348 -0.771210
0.922587 2.008965 -0.769944
0.920192 2.003575 -0.769783
0.917736 2.000031 -0.771150
0.915444 1.998481 -0.774120
0.913542 1.999156 -0.778145
0.911927 2.002147 -0.782360
0.911412 2.007750 -0.786698
3 0 3 4
3 0 4 1
3 0 1 919
3 919 920 921
3 921 922 939
3 921 939 940
3 0 919 921
3 1055 2 0
3 1041 1042 1055
3 1022 1039 1040
3 1040 1041 1055
3 1055 0 921
3 921 940 941
3 1055 921 941
3 1022 1040 1055
3 1020 1021 1022
3 1002 1019 1020
3 1000 1001 1002
3 982 999 1000
3 980 981 982
3 962 979 980
3 960 961 962
3 959 960 962
3 962 980 982
3 982 1000 1002
3 1002 1020 1022
3 1022 1055 941
3 942 959 962
3 1022 941 942
3 982 1002 1022
3 942 962 982
3 942 982 1022
3 2 5 3
3 2 3 0
3 3 6 7
3 3 7 4
3 5 8 6
3 5 6 3
3 6 9 10
3 6 10 7
3 8 11 9
3 8 9 6
3 9 12 13
3 9 13 10
3 11 14 12
3 11 12 9
3 12 15 16
3 12 16 13
3 14 18 15
3 14 15 12
3 17 108 16
3 17 16 15
3 20 17 15
3 20 15 18
3 1051 19 18
3 1051 18 14
3 22 20 18
3 22 18 19
3 23 21 20
3 23 20 22
3 21 111 17
3 21 17 20
3 24 22 19
3 24 19 25
3 26 23 22
3 26 22 24
3 27 24 25
3 27 25 28
3 29 26 24
3 29 24 27
3 30 27 28
3 30 28 31
3 32 29 27
3 32 27 30
3 33 30 31
3 33 31 34
3 35 32 30
3 35 30 33
3 36 33 34
3 36 34 37
3 38 35 33
3 38 33 36
3 39 36 37
3 39 37 40
3 41 38 36
3 41 36 39
3 42 39 40
3 42 40 43
3 44 41 39
3 44 39 42
3 45 42 43
3 45 43 46
3 47 44 42
3 47 42 45
3 48 45 46
3 48 46 49
3 50 47 45
3 50 45 48
3 51 48 49
3 51 49 52
3 53 50 48
3 53 48 51
3 54 51 52
3 54 52 55
3 56 53 51
3 56 51 54
3 57 54 55
3 57 55 58
3 59 56 54
3 59 54 57
3 60 57 58
3 60 58 61
3 62 59 57
3 62 57 60
3 63 60 61
3 63 61 64
3 65 62 60
3 65 60 63
3 66 63 64
3 66 64 67
3 68 65 63
3 68 63 66
3 69 66 67
3 69 67 70
3 71 68 66
3 71 66 69
3 72 69 70
3 72 70 73
3 74 71 69
3 74 69 72
3 75 72 73
3 75 73 76
3 77 74 72
3 77 72 75
3 78 75 76
3 78 76 79
3 80 77 75
3 80 75 78
3 81 78 79
3 81 79 82
3 83 80 78
3 83 78 81
3 84 81 82
3 84 82 85
3 86 83 81
3 86 81 84
3 87 84 85
3 87 85 88
3 89 86 84
3 89 84 87
3 90 87 88
3 90 88 91
3 92 89 87
3 92 87 90
3 93 90 91
3 93 91 94
3 95 92 90
3 95 90 93
3 96 93 94
3 96 94 97
3 98 95 93
3 98 93 96
3 99 96 97
3 99 97 100
3 101 98 96
3 101 96 99
3 102 99 100
3 102 100 103
3 104 101 99
3 104 99 102
3 105 102 103
3 105 103 106
3 107 104 102
3 107 102 105
3 108 105 106
3 108 106 16
3 109 107 105
3 109 105 108
3 111 109 108
3 111 108 17
3 112 110 109
3 112 109 111
3 110 172 107
3 110 107 109
3 114 112 111
3 114 111 21
3 113 175 110
3 113 110 112
3 115 113 112
3 115 112 114
3 116 114 21
3 116 21 23
3 117 115 114
3 117 114 116
3 118 116 23
3 118 23 26
3 119 117 116
3 119 116 118
3 120 118 26
3 120 26 29
3 121 119 118
3 121 118 120
3 122 120 29
3 122 29 32
3 123 121 120
3 123 120 122
3 124 122 32
3 124 32 35
3 125 123 122
3 125 122 124
3 126 124 35
3 126 35 38
3 127 125 124
3 127 124 126
3 128 126 38
3 128 38 41
3 129 127 126
3 129 126 128
3 130 128 41
3 130 41 44
3 131 129 128
3 131 128 130
3 132 130 44
3 132 44 47
3 133 131 130
3 133 130 132
3 134 132 47
3 134 47 50
3 135 133 132
3 135 132 134
3 136 134 50
3 136 50 53
3 137 135 134
3 137 134 136
3 138 136 53
3 138 53 56
3 139 137 136
3 139 136 138
3 140 138 56
3 140 56 59
3 141 139 138
3 141 138 140
3 142 140 59
3 142 59 62
3 143 141 140
3 143 140 142
3 144 142 62
3 144 62 65
3 145 143 142
3 145 142 144
3 146 144 65
3 146 65 68
3 147 145 144
3 147 144 146
3 148 146 68
3 148 68 71
3 149 147 146
3 149 146 148
3 150 148 71
3 150 71 74
3 151 149 148
3 151 148 150
3 152 150 74
3 152 74 77
3 153 151 150
3 153 150 152
3 154 152 77
3 154 77 80
3 155 153 152
3 155 152 154
3 156 154 80
3 156 80 83
3 157 155 154
3 157 154 156
3 158 156 83
3 158 83 86
3 159 157 156
3 159 156 158
3 160 158 86
3 160 86 89
3 161 159 158
3 161 158 160
3 162 160 89
3 162 89 92
3 163 161 160
3 163 160 162
3 164 162 92
3 164 92 95
3 165 163 162
3 165 162 164
3 166 164 95
3 166 95 98
3 167 165 164
3 167 164 166
3 168 166 98
3 168 98 101
3 169 167 166
3 169 166 168
3 170 168 101
3 170 101 104
3 171 169 168
3 171 168 170
3 172 170 104
3 172 104 107
3 173 171 170
3 173 170 172
3 175 173 172
3 175 172 110
3 176 174 173
3 176 173 175
3 174 236 171
3 174 171 173
3 178 176 175
3 178 175 113
3 179 177 176
3 179 176 178
3 177 239 174
3 177 174 176
3 181 179 178
3 181 178 180
3 180 178 113
3 180 113 115
3 182 180 115
3 182 115 117
3 183 181 180
3 183 180 182
3 184 182 117
3 184 117 119
3 185 183 182
3 185 182 184
3 186 184 119
3 186 119 121
3 187 185 184
3 187 184 186
3 188 186 121
3 188 121 123
3 189 187 186
3 189 186 188
3 190 188 123
3 190 123 125
3 191 189 188
3 191 188 190
3 192 190 125
3 192 125 127
3 193 191 190
3 193 190 192
3 194 192 127
3 194 127 129
3 195 193 192
3 195 192 194
3 196 194 129
3 196 129 131
3 197 195 194
3 197 194 196
3 198 196 131
3 198 131 133
3 199 197 196
3 199 196 198
3 200 198 133
3 200 133 135
3 201 199 198
3 201 198 200
3 202 200 135
3 202 135 137
3 203 201 200
3 203 200 202
3 204 202 137
3 204 137 139
3 205 203 202
3 205 202 204
3 206 204 139
3 206 139 141
3 207 205 204
3 207 204 206
3 208 206 141
3 208 141 143
3 209 207 206
3 209 206 208
3 210 208 143
3 210 143 145
3 211 209 208
3 211 208 210
3 212 210 145
3 212 145 147
3 213 211 210
3 213 210 212
3 214 212 147
3 214 147 149
3 215 213 212
3 215 212 214
3 216 214 149
3 216 149 151
3 217 215 214
3 217 214 216
3 218 216 151
3 218 151 153
3 219 217 216
3 219 216 218
3 220 218 153
3 220 153 155
3 221 219 218
3 221 218 220
3 222 220 155
3 222 155 157
3 223 221 220
3 223 220 222
3 224 222 157
3 224 157 159
3 225 223 222
3 225 222 224
3 226 224 159
3 226 159 161
3 227 225 224
3 227 224 226
3 228 226 161
3 228 161 163
3 229 227 226
3 229 226 228
3 230 228 163
3 230 163 165
3 231 229 228
3 231 228 230
3 232 230 165
3 232 165 167
3 233 231 230
3 233 230 232
3 234 232 167
3 234 167 169
3 235 233 232
3 235 232 234
3 236 234 169
3 236 169 171
3 237 235 234
3 237 234 236
3 239 237 236
3 239 236 174
3 240 238 237
3 240 237 239
3 238 300 235
3 238 235 237
3 242 240 239
3 242 239 177
3 243 241 240
3 243 240 242
3 241 303 238
3 241 238 240
3 244 242 177
3 244 177 179
3 245 243 242
3 245 242 244
3 247 245 244
3 247 244 246
3 246 244 179
3 246 179 181
3 248 246 181
3 248 181 183
3 249 247 246
3 249 246 248
3 250 248 183
3 250 183 185
3 251 249 248
3 251 248 250
3 252 250 185
3 252 185 187
3 253 251 250
3 253 250 252
3 254 252 187
3 254 187 189
3 255 253 252
3 255 252 254
3 256 254 189
3 256 189 191
3 257 255 254
3 257 254 256
3 258 256 191
3 258 191 193
3 259 257 256
3 259 256 258
3 260 258 193
3 260 193 195
3 261 259 258
3 261 258 260
3 262 260 195
3 262 195 197
3 263 261 260
3 263 260 262
3 264 262 197
3 264 197 199
3 265 263 262
3 265 262 264
3 266 264 199
3 266 199 201
3 267 265 264
3 267 264 266
3 268 266 201
3 268 201 203
3 269 267 266
3 269 266 268
3 270 268 203
3 270 203 205
3 271 269 268
3 271 268 270
3 272 270 205
3 272 205 207
3 273 271 270
3 273 270 272
3 274 272 207
3 274 207 209
3 275 273 272
3 275 272 274
3 276 274 209
3 276 209 211
3 277 275 274
3 277 274 276
3 278 276 211
3 278 211 213
3 279 277 276
3 279 276 278
3 280 278 213
3 280 213 215
3 281 279 278
3 281 278 280
3 282 280 215
3 282 215 217
3 283 281 280
3 283 280 282
3 284 282 217
3 284 217 219
3 285 283 282
3 285 282 284
3 286 284 219
3 286 219 221
3 287 285 284
3 287 284 286
3 288 286 221
3 288 221 223
3 289 287 286
3 289 286 288
3 290 288 223
3 290 223 225
3 291 289 288
3 291 288 290
3 292 290 225
3 292 225 227
3 293 291 290
3 293 290 292
3 294 292 227
3 294 227 229
3 295 293 292
3 295 292 294
3 296 294 229
3 296 229 231
3 297 295 294
3 297 294 296
3 298 296 231
3 298 231 233
3 299 297 296
3 299 296 298
3 300 298 233
3 300 233 235
3 301 299 298
3 301 298 300
3 303 301 300
3 303 300 238
3 304 302 301
3 304 301 303
3 302 364 299
3 302 299 301
3 306 304 303
3 306 303 241
3 307 305 304
3 307 304 306
3 305 367 302
3 305 302 304
3 308 306 241
3 308 241 243
3 309 307 306
3 309 306 308
3 310 308 243
3 310 243 245
3 311 309 308
3 311 308 310
3 313 311 310
3 313 310 312
3 312 310 245
3 312 245 247
3 314 312 247
3 314 247 249
3 315 313 312
3 315 312 314
3 316 314 249
3 316 249 251
3 317 315 314
3 317 314 316
3 318 316 251
3 318 251 253
3 319 317 316
3 319 316 318
3 320 318 253
3 320 253 255
3 321 319 318
3 321 318 320
3 322 320 255
3 322 255 257
3 323 321 320
3 323 320 322
3 324 322 257
3 324 257 259
3 325 323 322
3 325 322 324
3 326 324 259
3 326 259 261
3 327 325 324
3 327 324 326
3 328 326 261
3 328 261 263
3 329 327 326
3 329 326 328
3 330 328 263
3 330 263 265
3 331 329 328
3 331 328 330
3 332 330 265
3 332 265 267
3 333 331 330
3 333 330 332
3 334 332 267
3 334 267 269
3 335 333 332
3 335 332 334
3 336 334 269
3 336 269 271
3 337 335 334
3 337 334 336
3 338 336 271
3 338 271 273
3 339 337 336
3 339 336 338
3 340 338 273
3 340 273 275
3 341 339 338
3 341 338 340
3 342 340 275
3 342 275 277
3 343 341 340
3 343 340 342
3 344 342 277
3 344 277 279
3 345 343 342
3 345 342 344
3 346 344 279
3 346 279 281
3 347 345 344
3 347 344 346
3 348 346 281
3 348 281 283
3 349 347 346
3 349 346 348
3 350 348 283
3 350 283 285
3 351 349 348
3 351 348 350
3 352 350 285
3 352 285 287
3 353 351 350
3 353 350 352
3 354 352 287
3 354 287 289
3 355 353 352
3 355 352 354
3 356 354 289
3 356 289 291
3 357 355 354
3 357 354 356
3 358 356 291
3 358 291 293
3 359 357 356
3 359 356 358
3 360 358 293
3 360 293 295
3 361 359 358
3 361 358 360
3 362 360 295
3 362 295 297
3 363 361 360
3 363 360 362
3 364 362 297
3 364 297 299
3 365 363 362
3 365 362 364
3 367 365 364
3 367 364 302
3 368 366 365
3 368 365 367
3 366 428 363
3 366 363 365
3 370 368 367
3 370 367 305
3 371 369 368
3 371 368 370
3 369 431 366
3 369 366 368
3 372 370 305
3 372 305 307
3 373 371 370
3 373 370 372
3 374 372 307
3 374 307 309
3 375 373 372
3 375 372 374
3 376 374 309
3 376 309 311
3 377 375 374
3 377 374 376
3 379 377 376
3 379 376 378
3 378 376 311
3 378 311 313
3 380 378 313
3 380 313 315
3 381 379 378
3 381 378 380
3 382 380 315
3 382 315 317
3 383 381 380
3 383 380 382
3 384 382 317
3 384 317 319
3 385 383 382
3 385 382 384
3 386 384 319
3 386 319 321
3 387 385 384
3 387 384 386
3 388 386 321
3 388 321 323
3 389 387 386
3 389 386 388
3 390 388 323
3 390 323 325
3 391 389 388
3 391 388 390
3 392 390 325
3 392 325 327
3 393 391 390
3 393 390 392
3 394 392 327
3 394 327 329
3 395 393 392
3 395 392 394
3 396 394 329
3 396 329 331
3 397 395 394
3 397 394 396
3 398 396 331
3 398 331 333
3 399 397 396
3 399 396 398
3 400 398 333
3 400 333 335
3 401 399 398
3 401 398 400
3 402 400 335
3 402 335 337
3 403 401 400
3 403 400 402
3 404 402 337
3 404 337 339
3 405 403 402
3 405 402 404
3 406 404 339
3 406 339 341
3 407 405 404
3 407 404 406
3 408 406 341
3 408 341 343
3 409 407 406
3 409 406 408
3 410 408 343
3 410 343 345
3 411 409 408
3 411 408 410
3 412 410 345
3 412 345 347
3 413 411 410
3 413 410 412
3 414 412 347
3 414 347 349
3 415 413 412
3 415 412 414
3 416 414 349
3 416 349 351
3 417 415 414
3 417 414 416
3 418 416 351
3 418 351 353
3 419 417 416
3 419 416 418
3 420 418 353
3 420 353 355
3 421 419 418
3 421 418 420
3 422 420 355
3 422 355 357
3 423 421 420
3 423 420 422
3 424 422 357
3 424 357 359
3 425 423 422
3 425 422 424
3 426 424 359
3 426 359 361
3 427 425 424
3 427 424 426
3 428 426 361
3 428 361 363
3 429 427 426
3 429 426 428
3 431 429 428
3 431 428 366
3 432 430 429
3 432 429 431
3 430 492 427
3 430 427 429
3 434 432 431
3 434 431 369
3 435 433 432
3 435 432 434
3 433 495 430
3 433 430 432
3 436 434 369
3 436 369 371
3 437 435 434
3 437 434 436
3 438 436 371
3 438 371 373
3 439 437 436
3 439 436 438
3 440 438 373
3 440 373 375
3 441 439 438
3 441 438 440
3 442 440 375
3 442 375 377
3 443 441 440
3 443 440 442
3 445 443 442
3 445 442 444
3 444 442 377
3 444 377 379
3 446 444 379
3 446 379 381
3 447 445 444
3 447 444 446
3 448 446 381
3 448 381 383
3 449 447 446
3 449 446 448
3 450 448 383
3 450 383 385
3 451 449 448
3 451 448 450
3 452 450 385
3 452 385 387
3 453 451 450
3 453 450 452
3 454 452 387
3 454 387 389
3 455 453 452
3 455 452 454
3 456 454 389
3 456 389 391
3 457 455 454
3 457 454 456
3 458 456 391
3 458 391 393
3 459 457 456
3 459 456 458
3 460 458 393
3 460 393 395
3 461 459 458
3 461 458 460
3 462 460 395
3 462 395 397
3 463 461 460
3 463 460 462
3 464 462 397
3 464 397 399
3 465 463 462
3 465 462 464
3 466 464 399
3 466 399 401
3 467 465 464
3 467 464 466
3 468 466 401
3 468 401 403
3 469 467 466
3 469 466 468
3 470 468 403
3 470 403 405
3 471 469 468
3 471 468 470
3 472 470 405
3 472 405 407
3 473 471 470
3 473 470 472
3 474 472 407
3 474 407 409
3 475 473 472
3 475 472 474
3 476 474 409
3 476 409 411
3 477 475 474
3 477 474 476
3 478 476 411
3 478 411 413
3 479 477 476
3 479 476 478
3 480 478 413
3 480 413 415
3 481 479 478
3 481 478 480
3 482 480 415
3 482 415 417
3 483 481 480
3 483 480 482
3 484 482 417
3 484 417 419
3 485 483 482
3 485 482 484
3 486 484 419
3 486 419 421
3 487 485 484
3 487 484 486
3 488 486 421
3 488 421 423
3 489 487 486
3 489 486 488
3 490 488 423
3 490 423 425
3 491 489 488
3 491 488 490
3 492 490 425
3 492 425 427
3 493 491 490
3 493 490 492
3 495 493 492
3 495 492 430
3 496 494 493
3 496 493 495
3 494 556 491
3 494 491 493
3 498 496 495
3 498 495 433
3 499 497 496
3 499 496 498
3 497 559 494
3 497 494 496
3 500 498 433
3 500 433 435
3 501 499 498
3 501 498 500
3 502 500 435
3 502 435 437
3 503 501 500
3 503 500 502
3 504 502 437
3 504 437 439
3 505 503 502
3 505 502 504
3 506 504 439
3 506 439 441
3 507 505 504
3 507 504 506
3 508 506 441
3 508 441 443
3 509 507 506
3 509 506 508
3 511 509 508
3 511 508 510
3 510 508 443
3 510 443 445
3 512 510 445
3 512 445 447
3 513 511 510
3 513 510 512
3 514 512 447
3 514 447 449
3 515 513 512
3 515 512 514
3 516 514 449
3 516 449 451
3 517 515 514
3 517 514 516
3 518 516 451
3 518 451 453
3 519 517 516
3 519 516 518
3 520 518 453
3 520 453 455
3 521 519 518
3 521 518 520
3 522 520 455
3 522 455 457
3 523 521 520
3 523 520 522
3 524 522 457
3 524 457 459
3 525 523 522
3 525 522 524
3 526 524 459
3 526 459 461
3 527 525 524
3 527 524 526
3 528 526 461
3 528 461 463
3 529 527 526
3 529 526 528
3 530 528 463
3 530 463 465
3 531 529 528
3 531 528 530
3 532 530 465
3 532 465 467
3 533 531 530
3 533 530 532
3 534 532 467
3 534 467 469
3 535 533 532
3 535 532 534
3 536 534 469
3 536 469 471
3 537 535 534
3 537 534 536
3 538 536 471
3 538 471 473
3 539 537 536
3 539 536 538
3 540 538 473
3 540 473 475
3 541 539 538
3 541 538 540
3 542 540 475
3 542 475 477
3 543 541 540
3 543 540 542
3 544 542 477
3 544 477 479
3 545 543 542
3 545 542 544
3 546 544 479
3 546 479 481
3 547 545 544
3 547 544 546
3 548 546 481
3 548 481 483
3 549 547 546
3 549 546 548
3 550 548 483
3 550 483 485
3 551 549 548
3 551 548 550
3 552 550 485
3 552 485 487
3 553 551 550
3 553 550 552
3 554 552 487
3 554 487 489
3 555 553 552
3 555 552 554
3 556 554 489
3 556 489 491
3 557 555 554
3 557 554 556
3 559 557 556
3 559 556 494
3 560 558 557
3 560 557 559
3 558 620 555
3 558 555 557
3 562 560 559
3 562 559 497
3 563 561 560
3 563 560 562
3 561 623 558
3 561 558 560
3 564 562 497
3 564 497 499
3 565 563 562
3 565 562 564
3 566 564 499
3 566 499 501
3 567 565 564
3 567 564 566
3 568 566 501
3 568 501 503
3 569 567 566
3 569 566 568
3 570 568 503
3 570 503 505
3 571 569 568
3 571 568 570
3 572 570 505
3 572 505 507
3 573 571 570
3 573 570 572
3 574 572 507
3 574 507 509
3 575 573 572
3 575 572 574
3 577 575 574
3 577 574 576
3 576 574 509
3 576 509 511
3 578 576 511
3 578 511 513
3 579 577 576
3 579 576 578
3 580 578 513
3 580 513 515
3 581 579 578
3 581 578 580
3 582 580 515
3 582 515 517
3 583 581 580
3 583 580 582
3 584 582 517
3 584 517 519
3 585 583 582
3 585 582 584
3 586 584 519
3 586 519 521
3 587 585 584
3 587 584 586
3 588 586 521
3 588 521 523
3 589 587 586
3 589 586 588
3 590 588 523
3 590 523 525
3 591 589 588
3 591 588 590
3 592 590 525
3 592 525 527
3 593 591 590
3 593 590 592
3 594 592 527
3 594 527 529
3 595 593 592
3 595 592 594
3 596 594 529
3 596 529 531
3 597 595 594
3 597 594 596
3 598 596 531
3 598 531 533
3 599 597 596
3 599 596 598
3 600 598 533
3 600 533 535
3 601 599 598
3 601 598 600
3 602 600 535
3 602 535 537
3 603 601 600
3 603 600 602
3 604 602 537
3 604 537 539
3 605 603 602
3 605 602 604
3 606 604 539
3 606 539 541
3 607 605 604
3 607 604 606
3 608 606 541
3 608 541 543
3 609 607 606
3 609 606 608
3 610 608 543
3 610 543 545
3 611 609 608
3 611 608 610
3 612 610 545
3 612 545 547
3 613 611 610
3 613 610 612
3 614 612 547
3 614 547 549
3 615 613 612
3 615 612 614
3 616 614 549
3 616 549 551
3 617 615 614
3 617 614 616
3 618 616 551
3 618 551 553
3 619 617 616
3 619 616 618
3 620 618 553
3 620 553 555
3 621 619 618
3 621 618 620
3 623 621 620
3 623 620 558
3 624 622 621
3 624 621 623
3 622 684 619
3 622 619 621
3 626 624 623
3 626 623 561
3 627 625 624
3 627 624 626
3 625 687 622
3 625 622 624
3 628 626 561
3 628 561 563
3 629 627 626
3 629 626 628
3 630 628 563
3 630 563 565
3 631 629 628
3 631 628 630
3 632 630 565
3 632 565 567
3 633 631 630
3 633 630 632
3 634 632 567
3 634 567 569
3 635 633 632
3 635 632 634
3 636 634 569
3 636 569 571
3 637 635 634
3 637 634 636
3 638 636 571
3 638 571 573
3 639 637 636
3 639 636 638
3 640 638 573
3 640 573 575
3 641 639 638
3 641 638 640
3 643 641 640
3 643 640 642
3 642 640 575
3 642 575 577
3 644 642 577
3 644 577 579
3 645 643 642
3 645 642 644
3 646 644 579
3 646 579 581
3 647 645 644
3 647 644 646
3 648 646 581
3 648 581 583
3 649 647 646
3 649 646 648
3 650 648 583
3 650 583 585
3 651 649 648
3 651 648 650
3 652 650 585
3 652 585 587
3 653 651 650
3 653 650 652
3 654 652 587
3 654 587 589
3 655 653 652
3 655 652 654
3 656 654 589
3 656 589 591
3 657 655 654
3 657 654 656
3 658 656 591
3 658 591 593
3 659 657 656
3 659 656 658
3 660 658 593
3 660 593 595
3 661 659 658
3 661 658 660
3 662 660 595
3 662 595 597
3 663 661 660
3 663 660 662
3 664 662 597
3 664 597 599
3 665 663 662
3 665 662 664
3 666 664 599
3 666 599 601
3 667 665 664
3 667 664 666
3 668 666 601
3 668 601 603
3 669 667 666
3 669 666 668
3 670 668 603
3 670 603 605
3 671 669 668
3 671 668 670
3 672 670 605
3 672 605 607
3 673 671 670
3 673 670 672
3 674 672 607
3 674 607 609
3 675 673 672
3 675 672 674
3 676 674 609
3 676 609 611
3 677 675 674
3 677 674 676
3 678 676 611
3 678 611 613
3 679 677 676
3 679 676 678
3 680 678 613
3 680 613 615
3 681 679 678
3 681 678 680
3 682 680 615
3 682 615 617
3 683 681 680
3 683 680 682
3 684 682 617
3 684 617 619
3 685 683 682
3 685 682 684
3 687 685 684
3 687 684 622
3 688 686 685
3 688 685 687
3 686 748 683
3 686 683 685
3 690 688 687
3 690 687 625
3 691 689 688
3 691 688 690
3 689 751 686
3 689 686 688
3 692 690 625
3 692 625 627
3 693 691 690
3 693 690 692
3 694 692 627
3 694 627 629
3 695 693 692
3 695 692 694
3 696 694 629
3 696 629 631
3 697 695 694
3 697 694 696
3 698 696 631
3 698 631 633
3 699 697 696
3 699 696 698
3 700 698 633
3 700 633 635
3 701 699 698
3 701 698 700
3 702 700 635
3 702 635 637
3 703 701 700
3 703 700 702
3 704 702 637
3 704 637 639
3 705 703 702
3 705 702 704
3 706 704 639
3 706 639 641
3 707 705 704
3 707 704 706
3 709 707 706
3 709 706 708
3 708 706 641
3 708 641 643
3 710 708 643
3 710 643 645
3 711 709 708
3 711 708 710
3 712 710 645
3 712 645 647
3 713 711 710
3 713 710 712
3 714 712 647
3 714 647 649
3 715 713 712
3 715 712 714
3 716 714 649
3 716 649 651
3 717 715 714
3 717 714 716
3 718 716 651
3 718 651 653
3 719 717 716
3 719 716 718
3 720 718 653
3 720 653 655
3 721 719 718
3 721 718 720
3 722 720 655
3 722 655 657
3 723 721 720
3 723 720 722
3 724 722 657
3 724 657 659
3 725 723 722
3 725 722 724
3 726 724 659
3 726 659 661
3 727 725 724
3 727 724 726
3 728 726 661
3 728 661 663
3 729 727 726
3 729 726 728
3 730 728 663
3 730 663 665
3 731 729 728
3 731 728 730
3 732 730 665
3 732 665 667
3 733 731 730
3 733 730 732
3 734 732 667
3 734 667 669
3 735 733 732
3 735 732 734
3 736 734 669
3 736 669 671
3 737 735 734
3 737 734 736
3 738 736 671
3 738 671 673
3 739 737 736
3 739 736 738
3 740 738 673
3 740 673 675
3 741 739 738
3 741 738 740
3 742 740 675
3 742 675 677
3 743 741 740
3 743 740 742
3 744 742 677
3 744 677 679
3 745 743 742
3 745 742 744
3 746 744 679
3 746 679 681
3 747 745 744
3 747 744 746
3 748 746 681
3 748 681 683
3 749 747 746
3 749 746 748
3 751 749 748
3 751 748 686
3 752 750 749
3 752 749 751
3 750 812 747
3 750 747 749
3 754 752 751
3 754 751 689
3 755 753 752
3 755 752 754
3 753 815 750
3 753 750 752
3 756 754 689
3 756 689 691
3 757 755 754
3 757 754 756
3 758 756 691
3 758 691 693
3 759 757 756
3 759 756 758
3 760 758 693
3 760 693 695
3 761 759 758
3 761 758 760
3 762 760 695
3 762 695 697
3 763 761 760
3 763 760 762
3 764 762 697
3 764 697 699
3 765 763 762
3 765 762 764
3 766 764 699
3 766 699 701
3 767 765 764
3 767 764 766
3 768 766 701
3 768 701 703
3 769 767 766
3 769 766 768
3 770 768 703
3 770 703 705
3 771 769 768
3 771 768 770
3 772 770 705
3 772 705 707
3 773 771 770
3 773 770 772
3 775 773 772
3 775 772 774
3 774 772 707
3 774 707 709
3 776 774 709
3 776 709 711
3 777 775 774
3 777 774 776
3 778 776 711
3 778 711 713
3 779 777 776
3 779 776 778
3 780 778 713
3 780 713 715
3 781 779 778
3 781 778 780
3 782 780 715
3 782 715 717
3 783 781 780
3 783 780 782
3 784 782 717
3 784 717 719
3 785 783 782
3 785 782 784
3 786 784 719
3 786 719 721
3 787 785 784
3 787 784 786
3 788 786 721
3 788 721 723
3 789 787 786
3 789 786 788
3 790 788 723
3 790 723 725
3 791 789 788
3 791 788 790
3 792 790 725
3 792 725 727
3 793 791 790
3 793 790 792
3 794 792 727
3 794 727 729
3 795 793 792
3 795 792 794
3 796 794 729
3 796 729 731
3 797 795 794
3 797 794 796
3 798 796 731
3 798 731 733
3 799 797 796
3 799 796 798
3 800 798 733
3 800 733 735
3 801 799 798
3 801 798 800
3 802 800 735
3 802 735 737
3 803 801 800
3 803 800 802
3 804 802 737
3 804 737 739
3 805 803 802
3 805 802 804
3 806 804 739
3 806 739 741
3 807 805 804
3 807 804 806
3 808 806 741
3 808 741 743
3 809 807 806
3 809 806 808
3 810 808 743
3 810 743 745
3 811 809 808
3 811 808 810
3 812 810 745
3 812 745 747
3 813 811 810
3 813 810 812
3 815 813 812
3 815 812 750
3 816 814 813
3 816 813 815
3 814 876 811
3 814 811 813
3 818 816 815
3 818 815 753
3 819 817 816
3 819 816 818
3 817 879 814
3 817 814 816
3 820 818 753
3 820 753 755
3 821 819 818
3 821 818 820
3 822 820 755
3 822 755 757
3 823 821 820
3 823 820 822
3 824 822 757
3 824 757 759
3 825 823 822
3 825 822 824
3 826 824 759
3 826 759 761
3 827 825 824
3 827 824 826
3 828 826 761
3 828 761 763
3 829 827 826
3 829 826 828
3 830 828 763
3 830 763 765
3 831 829 828
3 831 828 830
3 832 830 765
3 832 765 767
3 833 831 830
3 833 830 832
3 834 832 767
3 834 767 769
3 835 833 832
3 835 832 834
3 836 834 769
3 836 769 771
3 837 835 834
3 837 834 836
3 838 836 771
3 838 771 773
3 839 837 836
3 839 836 838
3 841 839 838
3 841 838 840
3 840 838 773
3 840 773 775
3 842 840 775
3 842 775 777
3 843 841 840
3 843 840 842
3 844 842 777
3 844 777 779
3 845 843 842
3 845 842 844
3 846 844 779
3 846 779 781
3 847 845 844
3 847 844 846
3 848 846 781
3 848 781 783
3 849 847 846
3 849 846 848
3 850 848 783
3 850 783 785
3 851 849 848
3 851 848 850
3 852 850 785
3 852 785 787
3 853 851 850
3 853 850 852
3 854 852 787
3 854 787 789
3 855 853 852
3 855 852 854
3 856 854 789
3 856 789 791
3 857 855 854
3 857 854 856
3 858 856 791
3 858 791 793
3 859 857 856
3 859 856 858
3 860 858 793
3 860 793 795
3 861 859 858
3 861 858 860
3 862 860 795
3 862 795 797
3 863 861 860
3 863 860 862
3 864 862 797
3 864 797 799
3 865 863 862
3 865 862 864
3 866 864 799
3 866 799 801
3 867 865 864
3 867 864 866
3 868 866 801
3 868 801 803
3 869 867 866
3 869 866 868
3 870 868 803
3 870 803 805
3 871 869 868
3 871 868 870
3 872 870 805
3 872 805 807
3 873 871 870
3 873 870 872
3 874 872 807
3 874 807 809
3 875 873 872
3 875 872 874
3 876 874 809
3 876 809 811
3 877 875 874
3 877 874 876
3 879 877 876
3 879 876 814
3 880 878 877
3 880 877 879
3 878 910 875
3 878 875 877
3 881 880 879
3 881 879 817
3 1057 1056 880
3 1057 880 881
3 1056 1087 878
3 1056 878 880
3 882 881 817
3 882 817 819
3 1058 1057 881
3 1058 881 882
3 883 882 819
3 883 819 821
3 1059 1058 882
3 1059 882 883
3 884 883 821
3 884 821 823
3 1060 1059 883
3 1060 883 884
3 885 884 823
3 885 823 825
3 1061 1060 884
3 1061 884 885
3 886 885 825
3 886 825 827
3 1062 1061 885
3 1062 885 886
3 887 886 827
3 887 827 829
3 1063 1062 886
3 1063 886 887
3 888 887 829
3 888 829 831
3 1064 1063 887
3 1064 887 888
3 889 888 831
3 889 831 833
3 1065 1064 888
3 1065 888 889
3 890 889 833
3 890 833 835
3 1066 1065 889
3 1066 889 890
3 891 890 835
3 891 835 837
3 1067 1066 890
3 1067 890 891
3 892 891 837
3 892 837 839
3 1068 1067 891
3 1068 891 892
3 1069 1068 892
3 1069 892 893
3 893 892 839
3 893 839 841
3 894 893 841
3 894 841 843
3 1070 1069 893
3 1070 893 894
3 895 894 843
3 895 843 845
3 1071 1070 895
3 1070 894 895
3 896 895 845
3 896 845 847
3 1072 1071 895
3 1072 895 896
3 897 896 847
3 897 847 849
3 1073 1072 896
3 1073 896 897
3 898 897 849
3 898 849 851
3 1074 1073 897
3 1074 897 898
3 899 898 851
3 899 851 853
3 1075 1074 898
3 1075 898 899
3 900 899 853
3 900 853 855
3 1076 1075 899
3 1076 899 900
3 901 900 855
3 901 855 857
3 1077 1076 900
3 1077 900 901
3 902 901 857
3 902 857 859
3 1078 1077 901
3 1078 901 902
3 903 902 859
3 903 859 861
3 1079 1078 902
3 1079 902 903
3 904 903 861
3 904 861 863
3 1080 1079 903
3 1080 903 904
3 905 904 863
3 905 863 865
3 1081 1080 904
3 1081 904 905
3 906 905 865
3 906 865 867
3 1082 1081 905
3 1082 905 906
3 907 906 867
3 907 867 869
3 1083 1082 906
3 1083 906 907
3 908 907 869
3 908 869 871
3 1084 1083 907
3 1084 907 908
3 909 908 871
3 909 871 873
3 1085 1084 908
3 1085 908 909
3 910 909 873
3 910 873 875
3 1086 1085 909
3 1086 909 910
3 1087 1086 910
3 1087 910 878
3 13 16 106
3 13 106 911
3 911 106 103
3 911 103 912
3 10 13 911
3 10 911 913
3 913 911 912
3 913 912 914
3 7 10 913
3 7 913 915
3 915 913 914
3 915 914 916
3 4 7 915
3 4 915 917
3 917 915 916
3 917 916 918
3 1 4 917
3 1 917 919
3 919 917 918
3 919 918 920
3 920 918 923
3 920 923 921
3 921 923 924
3 921 924 922
3 918 916 925
3 918 925 923
3 923 925 926
3 923 926 924
3 916 914 927
3 916 927 925
3 925 927 928
3 925 928 926
3 914 912 929
3 914 929 927
3 927 929 930
3 927 930 928
3 912 103 100
3 912 100 929
3 929 100 97
3 929 97 930
3 928 930 931
3 928 931 933
3 930 97 94
3 930 94 931
3 933 931 932
3 933 932 934
3 931 94 932
3 94 91 932
3 926 928 933
3 926 933 935
3 935 933 934
3 935 934 936
3 924 926 935
3 924 935 937
3 937 935 936
3 937 936 938
3 922 924 937
3 922 937 939
3 939 937 938
3 939 938 940
3 940 938 943
3 940 943 941
3 941 943 944
3 941 944 942
3 938 936 945
3 938 945 943
3 943 945 946
3 943 946 944
3 936 934 947
3 936 947 945
3 945 947 948
3 945 948 946
3 934 932 949
3 934 949 947
3 947 949 950
3 947 950 948
3 932 91 88
3 932 88 949
3 949 88 85
3 949 85 950
3 948 950 951
3 948 951 953
3 950 85 951
3 85 82 951
3 953 951 952
3 953 952 954
3 951 82 952
3 82 79 952
3 946 948 953
3 946 953 955
3 955 953 956
3 953 954 956
3 944 946 955
3 944 955 957
3 957 955 956
3 957 956 958
3 942 944 957
3 942 957 959
3 959 957 960
3 957 958 960
3 960 958 963
3 960 963 961
3 961 963 964
3 961 964 962
3 958 956 965
3 958 965 963
3 963 965 964
3 965 966 964
3 956 954 967
3 956 967 965
3 965 967 968
3 965 968 966
3 954 952 969
3 954 969 967
3 967 969 970
3 967 970 968
3 952 79 969
3 79 76 969
3 969 76 73
3 969 73 970
3 968 970 971
3 968 971 973
3 970 73 70
3 970 70 971
3 973 971 972
3 973 972 974
3 971 70 67
3 971 67 972
3 966 968 975
3 968 973 975
3 975 973 974
3 975 974 976
3 964 966 975
3 964 975 977
3 977 975 976
3 977 976 978
3 962 964 977
3 962 977 979
3 979 977 978
3 979 978 980
3 980 978 983
3 980 983 981
3 981 983 984
3 981 984 982
3 978 976 985
3 978 985 983
3 983 985 986
3 983 986 984
3 976 974 987
3 976 987 985
3 985 987 988
3 985 988 986
3 974 972 989
3 974 989 987
3 987 989 990
3 987 990 988
3 972 67 64
3 972 64 989
3 989 64 61
3 989 61 990
3 988 990 991
3 988 991 993
3 990 61 58
3 990 58 991
3 993 991 992
3 993 992 994
3 991 58 55
3 991 55 992
3 986 988 993
3 986 993 995
3 995 993 994
3 995 994 996
3 984 986 995
3 984 995 997
3 997 995 996
3 997 996 998
3 982 984 997
3 982 997 999
3 999 997 998
3 999 998 1000
3 1000 998 1003
3 1000 1003 1001
3 1001 1003 1004
3 1001 1004 1002
3 998 996 1005
3 998 1005 1003
3 1003 1005 1006
3 1003 1006 1004
3 996 994 1007
3 996 1007 1005
3 1005 1007 1008
3 1005 1008 1006
3 994 992 1009
3 994 1009 1007
3 1007 1009 1010
3 1007 1010 1008
3 992 55 52
3 992 52 1009
3 1009 52 49
3 1009 49 1010
3 1008 1010 1011
3 1008 1011 1013
3 1010 49 46
3 1010 46 1011
3 1013 1011 1012
3 1013 1012 1014
3 1011 46 43
3 1011 43 1012
3 1006 1008 1013
3 1006 1013 1015
3 1015 1013 1014
3 1015 1014 1016
3 1004 1006 1015
3 1004 1015 1017
3 1017 1015 1016
3 1017 1016 1018
3 1002 1004 1017
3 1002 1017 1019
3 1019 1017 1018
3 1019 1018 1020
3 1020 1018 1023
3 1020 1023 1021
3 1021 1023 1024
3 1021 1024 1022
3 1018 1016 1025
3 1018 1025 1023
3 1023 1025 1026
3 1023 1026 1024
3 1016 1014 1027
3 1016 1027 1025
3 1025 1027 1028
3 1025 1028 1026
3 1014 1012 1029
3 1014 1029 1027
3 1027 1029 1030
3 1027 1030 1028
3 1012 43 40
3 1012 40 1029
3 1029 40 37
3 1029 37 1030
3 1028 1030 1031
3 1028 1031 1033
3 1030 37 34
3 1030 34 1031
3 1033 1031 1032
3 1033 1032 1034
3 1031 34 31
3 1031 31 1032
3 1026 1028 1033
3 1026 1033 1035
3 1035 1033 1034
3 1035 1034 1036
3 1024 1026 1035
3 1024 1035 1037
3 1037 1035 1036
3 1037 1036 1038
3 1022 1024 1037
3 1022 1037 1039
3 1039 1037 1038
3 1039 1038 1040
3 1040 1038 1043
3 1040 1043 1041
3 1041 1043 1044
3 1041 1044 1042
3 1038 1036 1045
3 1038 1045 1043
3 1043 1045 1046
3 1043 1046 1044
3 1036 1034 1047
3 1036 1047 1045
3 1045 1047 1048
3 1045 1048 1046
3 1034 1032 1049
3 1034 1049 1047
3 1047 1049 1050
3 1047 1050 1048
3 1032 31 28
3 1032 28 1049
3 1049 28 25
3 1049 25 1050
3 1048 1050 1051
3 1048 1051 1052
3 1050 25 19
3 1050 19 1051
3 1052 1051 14
3 1052 14 11
3 1046 1048 1052
3 1046 1052 1053
3 1053 1052 11
3 1053 11 8
3 1044 1046 1053
3 1044 1053 1054
3 1054 1053 8
3 1054 8 5
3 1042 1044 1054
3 1042 1054 1055
3 1055 1054 5
3 1055 5 2
3 1086 1087 1056
3 1056 1057 1058
3 1058 1059 1060
3 1060 1061 1062
3 1062 1063 1064
3 1064 1065 1066
3 1066 1067 1068
3 1068 1069 1070
3 1070 1071 1072
3 1072 1073 1074
3 1070 1072 1074
3 1066 1068 1070
3 1062 1064 1066
3 1058 1060 1062
3 1086 1056 1058
3 1084 1085 1086
3 1082 1083 1084
3 1080 1081 1082
3 1078 1079 1080
3 1078 1080 1082
3 1082 1084 1086
3 1086 1058 1062
3 1062 1066 1070
3 1070 1074 1075
3 1070 1075 1076
3 1086 1062 1070
3 1078 1082 1086
3 1077 1078 1086
3 1086 1070 1076
3 1076 1077 1086
