ply
format ascii 1.0
element vertex 482
property float x
property float y
property float z
element face 960
property list uchar int vertex_index
end_header
1.471977 1.972955 -0.044174
1.458117 1.989363 0.000773
1.474735 1.981656 -0.047510
1.476657 1.958687 -0.091671
1.469218 1.963757 -0.042677
1.452706 1.971322 0.003709
1.466566 1.954417 -0.043076
1.447504 1.952999 0.002925
1.464122 1.945292 -0.045358
1.442709 1.935100 -0.001550
1.461980 1.936733 -0.049433
1.438506 1.918311 -0.009543
1.460221 1.929070 -0.055145
1.435058 1.903279 -0.020748
1.458915 1.922596 -0.062274
1.432495 1.890581 -0.034734
1.458110 1.917561 -0.070548
1.430917 1.880704 -0.050962
1.457839 1.914158 -0.079647
1.430384 1.874030 -0.068811
1.458110 1.912519 -0.089222
1.430917 1.870813 -0.087593
1.458915 1.912704 -0.098905
1.432495 1.871178 -0.106587
1.460221 1.914710 -0.108324
1.435058 1.875110 -0.125064
1.461980 1.918456 -0.117117
1.438506 1.882459 -0.142312
1.464122 1.923800 -0.124947
1.442709 1.892942 -0.157669
1.466566 1.930536 -0.131511
1.447504 1.906157 -0.170546
1.469218 1.938406 -0.136558
1.452706 1.921594 -0.180446
1.471977 1.947108 -0.139894
1.458117 1.938661 -0.186990
1.474735 1.956305 -0.141391
1.463527 1.956703 -0.189927
1.477387 1.965646 -0.140992
1.468730 1.975026 -0.189143
1.479832 1.974771 -0.138710
1.473525 1.992926 -0.184668
1.481974 1.983330 -0.134636
1.477727 2.009714 -0.176675
1.483732 1.990993 -0.128923
1.481176 2.024746 -0.165470
1.485039 1.997467 -0.121794
1.483739 2.037444 -0.151485
1.485843 2.002501 -0.113520
1.485317 2.047320 -0.135256
1.486115 2.005904 -0.104421
1.485850 2.053996 -0.117407
1.485843 2.007544 -0.094846
1.485317 2.057212 -0.098625
1.485039 2.007358 -0.085163
1.483739 2.056847 -0.079631
1.483732 2.005353 -0.075744
1.481176 2.052914 -0.061154
1.481974 2.001607 -0.066951
1.477727 2.045565 -0.043906
1.479832 1.996263 -0.059121
1.473525 2.035083 -0.028549
1.477387 1.989526 -0.052557
1.468730 2.021869 -0.015672
1.451018 2.054472 0.017566
1.463527 2.006431 -0.005772
1.443465 2.032061 0.031939
1.415317 2.057559 0.064174
1.435610 2.007282 0.041440
1.405320 2.026022 0.076266
1.427755 1.981089 0.045703
1.395323 1.992685 0.081692
1.420202 1.954489 0.044564
1.385710 1.958829 0.080243
1.413241 1.928503 0.038068
1.376850 1.925755 0.071974
1.407140 1.904130 0.026463
1.369085 1.894734 0.057205
1.402133 1.882307 0.010197
1.362712 1.866958 0.036501
1.398412 1.863872 -0.010107
1.357976 1.843495 0.010659
1.396121 1.849533 -0.033667
1.355060 1.825246 -0.019328
1.395347 1.839843 -0.059579
1.354076 1.812913 -0.052307
1.396121 1.835173 -0.086847
1.355060 1.806969 -0.087012
1.398412 1.835703 -0.114422
1.357976 1.807644 -0.122109
1.402133 1.841412 -0.141246
1.362712 1.814909 -0.156249
1.407140 1.852081 -0.166286
1.369085 1.828488 -0.188119
1.413241 1.867300 -0.188582
1.376850 1.847858 -0.216496
1.420202 1.886484 -0.207276
1.385710 1.872275 -0.240289
1.427755 1.908895 -0.221649
1.395323 1.900800 -0.258583
1.435610 1.933674 -0.231150
1.405320 1.932337 -0.270675
1.443465 1.959867 -0.235413
1.415317 1.965674 -0.276101
1.451018 1.986467 -0.234274
1.424931 1.999529 -0.274652
1.457978 2.012454 -0.227778
1.433790 2.032604 -0.266383
1.464080 2.036826 -0.216173
1.441556 2.063624 -0.251614
1.469087 2.058649 -0.199907
1.447928 2.091400 -0.230910
1.472807 2.077084 -0.179603
1.452664 2.114863 -0.205068
1.475099 2.091423 -0.156043
1.455580 2.133112 -0.175081
1.475872 2.101113 -0.130131
1.456565 2.145445 -0.142102
1.475099 2.105783 -0.102863
1.455580 2.151389 -0.107397
1.472807 2.105253 -0.075287
1.452664 2.150715 -0.072300
1.469087 2.099544 -0.048464
1.447929 2.143448 -0.038160
1.464080 2.088875 -0.023423
1.441556 2.129870 -0.006290
1.457978 2.073656 -0.001128
1.433790 2.110500 0.022087
1.401889 2.144198 0.040205
1.424931 2.086083 0.045880
1.391472 2.115487 0.068182
1.351927 2.141555 0.083615
1.380168 2.081945 0.089693
1.339366 2.104285 0.107517
1.368412 2.044862 0.103912
1.326304 2.063080 0.123316
1.356657 2.005662 0.110292
1.313242 2.019523 0.130405
1.345353 1.965851 0.108588
1.300682 1.975289 0.128512
1.334935 1.926961 0.098866
1.289107 1.932075 0.117709
1.325804 1.890484 0.081498
1.278961 1.891544 0.098412
1.318310 1.857823 0.057154
1.270634 1.855253 0.071361
1.312742 1.830234 0.026767
1.264447 1.824598 0.037597
1.309313 1.808775 -0.008494
1.260637 1.800755 -0.001583
1.308155 1.794273 -0.047274
1.259350 1.784640 -0.044673
1.309313 1.787284 -0.088083
1.260637 1.776874 -0.090017
1.312742 1.788077 -0.129352
1.264447 1.777755 -0.135873
1.318310 1.796621 -0.169496
1.270634 1.787248 -0.180479
1.325804 1.812588 -0.206972
1.278961 1.804991 -0.222120
1.334935 1.835365 -0.240340
1.289107 1.830298 -0.259196
1.345353 1.864075 -0.268317
1.300682 1.862201 -0.290282
1.356657 1.897616 -0.289828
1.313242 1.899470 -0.314184
1.368412 1.934700 -0.304047
1.326304 1.940675 -0.329984
1.380168 1.973900 -0.310427
1.339366 1.984231 -0.337073
1.391472 2.013710 -0.308723
1.351927 2.028467 -0.335180
1.401889 2.052602 -0.299001
1.363502 2.071680 -0.324377
1.411021 2.089079 -0.281633
1.373648 2.112210 -0.305079
1.418514 2.121739 -0.257289
1.381975 2.148501 -0.278029
1.424083 2.149329 -0.226902
1.388162 2.179157 -0.244264
1.427511 2.170787 -0.191641
1.391972 2.203001 -0.205085
1.428669 2.185289 -0.152861
1.393258 2.219114 -0.161995
1.427511 2.192278 -0.112052
1.391972 2.226881 -0.116651
1.424083 2.191486 -0.070783
1.388162 2.225999 -0.070794
1.418514 2.182942 -0.030639
1.381975 2.216506 -0.026189
1.411021 2.166975 0.006837
1.373648 2.198764 0.015452
1.330874 2.224016 0.019225
1.363502 2.173456 0.052528
1.320103 2.197149 0.058585
1.273361 2.214367 0.058140
1.307815 2.163282 0.091586
1.260832 2.179837 0.091788
1.294481 2.123718 0.116960
1.247237 2.139496 0.117660
1.280615 2.079974 0.133732
1.233099 2.094897 0.134760
1.266748 2.033735 0.141258
1.218961 2.047751 0.142434
1.253414 1.986775 0.139248
1.205366 1.999872 0.140384
1.241126 1.940900 0.127780
1.192836 1.953098 0.128691
1.230355 1.897873 0.107294
1.181854 1.909228 0.107804
1.221515 1.859347 0.078577
1.172842 1.869947 0.078525
1.214947 1.826803 0.042733
1.166145 1.836766 0.041979
1.210902 1.801491 0.001140
1.162021 1.810958 -0.000429
1.209537 1.784384 -0.044604
1.160628 1.793516 -0.047069
1.210902 1.776140 -0.092741
1.162021 1.785110 -0.096150
1.214947 1.777076 -0.141422
1.166145 1.786064 -0.145784
1.221515 1.787154 -0.188775
1.172842 1.796339 -0.194065
1.230355 1.805988 -0.232980
1.181854 1.815543 -0.239137
1.241126 1.832855 -0.272340
1.192836 1.842936 -0.279268
1.253414 1.866722 -0.305341
1.205366 1.877466 -0.312915
1.266748 1.906287 -0.330716
1.218961 1.917806 -0.338787
1.280615 1.950029 -0.347488
1.233099 1.962406 -0.355888
1.294481 1.996270 -0.355014
1.247237 2.009551 -0.363561
1.307815 2.043229 -0.353004
1.260832 2.057431 -0.361512
1.320103 2.089104 -0.341536
1.273361 2.104205 -0.349819
1.330874 2.132131 -0.321049
1.284343 2.148075 -0.328931
1.339714 2.170657 -0.292333
1.293356 2.187356 -0.299652
1.346282 2.203202 -0.256489
1.300053 2.220538 -0.263106
1.350327 2.228513 -0.214896
1.304177 2.246346 -0.220698
1.351693 2.245620 -0.169152
1.305569 2.263788 -0.174058
1.350327 2.253865 -0.121015
1.304177 2.272193 -0.124978
1.346282 2.252929 -0.072334
1.300053 2.271240 -0.075343
1.339714 2.242851 -0.024981
1.293356 2.260964 -0.027062
1.244682 2.270150 -0.032353
1.284343 2.241760 0.018009
1.235843 2.251315 0.011853
1.187237 2.252313 0.000993
1.225072 2.224448 0.051213
1.177091 2.227004 0.038069
1.212784 2.190581 0.084214
1.165516 2.195103 0.069155
1.199450 2.151016 0.109589
1.152955 2.157834 0.093057
1.185583 2.107274 0.126361
1.139893 2.116629 0.108856
1.171716 2.061033 0.133887
1.126831 2.073071 0.115946
1.158383 2.014074 0.131877
1.114271 2.028836 0.114052
1.146094 1.968199 0.120408
1.102696 1.985623 0.103249
1.135323 1.925172 0.099922
1.092550 1.945093 0.083952
1.126484 1.886647 0.071205
1.084223 1.908802 0.056901
1.119916 1.854102 0.035362
1.078036 1.878146 0.023137
1.115871 1.828790 -0.006231
1.074226 1.854303 -0.016042
1.114505 1.811684 -0.051975
1.072939 1.838189 -0.059133
1.115871 1.803439 -0.100112
1.074226 1.830422 -0.104477
1.119916 1.804374 -0.148793
1.078036 1.831303 -0.150333
1.126484 1.814453 -0.196146
1.084223 1.840797 -0.194939
1.135323 1.833287 -0.240352
1.092550 1.858539 -0.236580
1.146094 1.860154 -0.279712
1.102696 1.883847 -0.273656
1.158383 1.894021 -0.312713
1.114271 1.915749 -0.304742
1.171716 1.933586 -0.338087
1.126831 1.953018 -0.328644
1.185583 1.977329 -0.354860
1.139893 1.994223 -0.344444
1.199450 2.023568 -0.362385
1.152955 2.037780 -0.351533
1.212783 2.070528 -0.360375
1.165516 2.082015 -0.349639
1.225072 2.116403 -0.348907
1.177091 2.125228 -0.338836
1.235843 2.159430 -0.328421
1.187237 2.165759 -0.319539
1.244682 2.197956 -0.299705
1.195564 2.202049 -0.292488
1.251251 2.230500 -0.263861
1.201751 2.232705 -0.258724
1.255296 2.255812 -0.222268
1.205561 2.256549 -0.219545
1.256661 2.272919 -0.176524
1.206847 2.272663 -0.176455
1.255296 2.281163 -0.128386
1.205561 2.280429 -0.131110
1.251251 2.280228 -0.079706
1.201751 2.279548 -0.085254
1.153456 2.269226 -0.091775
1.195564 2.270054 -0.040648
1.147887 2.260683 -0.051631
1.103486 2.242393 -0.064878
1.140394 2.244715 -0.014155
1.097113 2.228815 -0.033008
1.131262 2.221939 0.019212
1.089347 2.209445 -0.004631
1.120845 2.193227 0.047190
1.080488 2.185028 0.019162
1.109541 2.159686 0.068701
1.070875 2.156504 0.037455
1.097785 2.122602 0.082920
1.060877 2.124967 0.049547
1.086030 2.083402 0.089300
1.050880 2.091630 0.054973
1.074726 2.043592 0.087596
1.041267 2.057774 0.053524
1.064308 2.004702 0.077873
1.032408 2.024699 0.045256
1.055177 1.968225 0.060506
1.024642 1.993679 0.030486
1.047683 1.935564 0.036161
1.018269 1.965903 0.009783
1.042115 1.907974 0.005775
1.013534 1.942440 -0.016059
1.038686 1.886516 -0.029486
1.010618 1.924191 -0.046046
1.037528 1.872014 -0.068266
1.009633 1.911858 -0.079026
1.038686 1.865024 -0.109075
1.010618 1.905914 -0.113731
1.042115 1.865817 -0.150345
1.013534 1.906588 -0.148827
1.047683 1.874361 -0.190489
1.018269 1.913854 -0.182967
1.055177 1.890328 -0.227964
1.024642 1.927433 -0.214838
1.064308 1.913105 -0.261332
1.032408 1.946803 -0.243214
1.074726 1.941816 -0.289309
1.041267 1.971220 -0.267007
1.086030 1.975357 -0.310820
1.050880 1.999745 -0.285301
1.097785 2.012440 -0.325039
1.060877 2.031281 -0.297393
1.109541 2.051641 -0.331419
1.070875 2.064619 -0.302819
1.120845 2.091451 -0.329715
1.080488 2.098475 -0.301370
1.131262 2.130342 -0.319993
1.089347 2.131549 -0.293102
1.140394 2.166819 -0.302626
1.097113 2.162569 -0.278332
1.147887 2.199480 -0.278281
1.103486 2.190345 -0.257628
1.153456 2.227069 -0.247894
1.108221 2.213808 -0.231787
1.156885 2.248527 -0.212633
1.111137 2.232057 -0.201800
1.158042 2.263030 -0.173853
1.112122 2.244390 -0.168820
1.156885 2.270019 -0.133044
1.111137 2.250334 -0.134115
1.070077 2.222129 -0.134280
1.108221 2.249660 -0.099018
1.067786 2.221600 -0.106705
1.033703 2.186125 -0.114540
1.064065 2.215891 -0.079882
1.031140 2.182192 -0.096064
1.059058 2.205222 -0.054841
1.027691 2.174843 -0.078815
1.052957 2.190003 -0.032545
1.023489 2.164361 -0.063458
1.045996 2.170819 -0.013852
1.018694 2.151147 -0.050582
1.038443 2.148407 0.000522
1.013491 2.135709 -0.040681
1.030588 2.123629 0.010023
1.008081 2.118641 -0.034137
1.022733 2.097436 0.014285
1.002670 2.100600 -0.031200
1.015180 2.070836 0.013147
0.997468 2.082277 -0.031985
1.008219 2.044850 0.006651
0.992673 2.064377 -0.036459
1.002118 2.020477 -0.004954
0.988470 2.047589 -0.044453
0.997111 1.998654 -0.021221
0.985021 2.032557 -0.055657
0.993390 1.980219 -0.041524
0.982459 2.019859 -0.069643
0.991099 1.965881 -0.065085
0.980880 2.009983 -0.085872
0.990325 1.956190 -0.090997
0.980347 2.003308 -0.103720
0.991099 1.951520 -0.118264
0.980880 2.000091 -0.122502
0.993390 1.952051 -0.145840
0.982459 2.000456 -0.141497
0.997111 1.957759 -0.172663
0.985021 2.004388 -0.159973
1.002118 1.968428 -0.197704
0.988470 2.011737 -0.177221
1.008219 1.983647 -0.219999
0.992673 2.022220 -0.192578
1.015180 2.002831 -0.238693
0.997468 2.035434 -0.205455
1.022733 2.025243 -0.253066
1.002670 2.050872 -0.215355
1.030588 2.050021 -0.262567
1.008081 2.067939 -0.221900
1.038443 2.076214 -0.266830
1.013491 2.085981 -0.224836
1.045996 2.102814 -0.265692
1.018694 2.104304 -0.224052
1.052957 2.128800 -0.259195
1.023489 2.122204 -0.219577
1.059058 2.153173 -0.247591
1.027691 2.138992 -0.211584
1.064065 2.174997 -0.231324
1.031140 2.154024 -0.200379
1.067786 2.193431 -0.211020
1.033703 2.166722 -0.186394
1.070077 2.207769 -0.187460
1.035281 2.176598 -0.170165
1.070850 2.217459 -0.161548
1.035814 2.183273 -0.152316
1.008359 2.143145 -0.141481
1.035281 2.186490 -0.133534
1.008088 2.144785 -0.131905
1.007283 2.144598 -0.122222
0.989541 2.098616 -0.129456
1.002076 2.112011 -0.175770
0.994221 2.110195 -0.081233
0.996979 2.118896 -0.084569
0.999632 2.126767 -0.089616
1.002076 2.133503 -0.096181
1.004218 2.138847 -0.104010
1.005977 2.142594 -0.112803
1.008088 2.139742 -0.150580
1.007283 2.134707 -0.158853
1.005977 2.128233 -0.165983
1.004218 2.120570 -0.171695
0.999631 2.102887 -0.178051
0.996979 2.093545 -0.178451
0.994221 2.084348 -0.176954
0.991463 2.075647 -0.173617
0.988810 2.067777 -0.168570
0.986366 2.061040 -0.162006
0.984224 2.055696 -0.154177
0.982465 2.051950 -0.145384
0.981159 2.049945 -0.135964
0.980354 2.049760 -0.126281
0.980083 2.051399 -0.116706
0.980354 2.054802 -0.107607
0.981159 2.059837 -0.099334
0.982466 2.066310 -0.092204
0.984224 2.073973 -0.086492
0.986366 2.082532 -0.082417
0.988810 2.091657 -0.080136
0.991463 2.100998 -0.079736
3 5 4 0
3 5 0 1
3 1 0 2
3 1 2 65
3 0 3 2
3 4 3 0
3 7 6 4
3 7 4 5
3 6 3 4
3 9 8 6
3 9 6 7
3 8 3 6
3 11 10 8
3 11 8 9
3 10 3 8
3 13 12 10
3 13 10 11
3 12 3 10
3 15 14 12
3 15 12 13
3 14 3 12
3 17 16 14
3 17 14 15
3 16 3 14
3 19 18 16
3 19 16 17
3 18 3 16
3 21 20 18
3 21 18 19
3 20 3 18
3 23 22 20
3 23 20 21
3 22 3 20
3 25 24 22
3 25 22 23
3 24 3 22
3 27 26 24
3 27 24 25
3 26 3 24
3 28 3 26
3 29 28 26
3 29 26 27
3 31 30 28
3 31 28 29
3 30 3 28
3 33 32 30
3 33 30 31
3 32 3 30
3 35 34 32
3 35 32 33
3 34 3 32
3 37 36 34
3 37 34 35
3 36 3 34
3 39 38 36
3 39 36 37
3 38 3 36
3 41 40 38
3 41 38 39
3 40 3 38
3 43 42 40
3 43 40 41
3 42 3 40
3 45 44 42
3 45 42 43
3 44 3 42
3 47 46 44
3 47 44 45
3 46 3 44
3 49 48 46
3 49 46 47
3 48 3 46
3 51 50 48
3 51 48 49
3 50 3 48
3 53 52 50
3 53 50 51
3 52 3 50
3 55 54 52
3 55 52 53
3 54 3 52
3 57 56 54
3 57 54 55
3 56 3 54
3 59 58 56
3 59 56 57
3 58 3 56
3 61 60 58
3 61 58 59
3 60 3 58
3 63 62 60
3 63 60 61
3 62 3 60
3 65 2 62
3 65 62 63
3 2 3 62
3 64 63 61
3 64 61 126
3 66 65 63
3 66 63 64
3 68 1 65
3 68 65 66
3 67 66 64
3 67 64 129
3 69 68 66
3 69 66 67
3 70 5 1
3 70 1 68
3 71 70 68
3 71 68 69
3 72 7 5
3 72 5 70
3 73 72 70
3 73 70 71
3 74 9 7
3 74 7 72
3 75 74 72
3 75 72 73
3 76 11 9
3 76 9 74
3 77 76 74
3 77 74 75
3 78 13 11
3 78 11 76
3 79 78 76
3 79 76 77
3 80 15 13
3 80 13 78
3 81 80 78
3 81 78 79
3 82 17 15
3 82 15 80
3 83 82 80
3 83 80 81
3 84 19 17
3 84 17 82
3 85 84 82
3 85 82 83
3 86 21 19
3 86 19 84
3 87 86 84
3 87 84 85
3 88 23 21
3 88 21 86
3 89 88 86
3 89 86 87
3 90 25 23
3 90 23 88
3 91 90 88
3 91 88 89
3 92 27 25
3 92 25 90
3 93 92 90
3 93 90 91
3 94 29 27
3 94 27 92
3 95 94 92
3 95 92 93
3 96 31 29
3 96 29 94
3 97 96 94
3 97 94 95
3 98 33 31
3 98 31 96
3 99 98 96
3 99 96 97
3 100 35 33
3 100 33 98
3 101 100 98
3 101 98 99
3 102 37 35
3 102 35 100
3 103 102 100
3 103 100 101
3 104 39 37
3 104 37 102
3 105 104 102
3 105 102 103
3 106 41 39
3 106 39 104
3 107 106 104
3 107 104 105
3 108 43 41
3 108 41 106
3 109 108 106
3 109 106 107
3 110 45 43
3 110 43 108
3 111 110 108
3 111 108 109
3 112 47 45
3 112 45 110
3 113 112 110
3 113 110 111
3 114 49 47
3 114 47 112
3 115 114 112
3 115 112 113
3 116 51 49
3 116 49 114
3 117 116 114
3 117 114 115
3 118 53 51
3 118 51 116
3 119 118 116
3 119 116 117
3 120 55 53
3 120 53 118
3 121 120 118
3 121 118 119
3 122 57 55
3 122 55 120
3 123 122 120
3 123 120 121
3 124 59 57
3 124 57 122
3 125 124 122
3 125 122 123
3 126 61 59
3 126 59 124
3 127 126 124
3 127 124 125
3 129 64 126
3 129 126 127
3 128 127 125
3 128 125 190
3 130 129 127
3 130 127 128
3 132 67 129
3 132 129 130
3 131 130 128
3 131 128 193
3 133 132 130
3 133 130 131
3 134 69 67
3 134 67 132
3 135 134 132
3 135 132 133
3 136 71 69
3 136 69 134
3 137 136 134
3 137 134 135
3 138 73 71
3 138 71 136
3 139 138 136
3 139 136 137
3 140 75 73
3 140 73 138
3 141 140 138
3 141 138 139
3 142 77 75
3 142 75 140
3 143 142 140
3 143 140 141
3 144 79 77
3 144 77 142
3 145 144 142
3 145 142 143
3 146 81 79
3 146 79 144
3 147 146 144
3 147 144 145
3 148 83 81
3 148 81 146
3 149 148 146
3 149 146 147
3 150 85 83
3 150 83 148
3 151 150 148
3 151 148 149
3 152 87 85
3 152 85 150
3 153 152 150
3 153 150 151
3 154 89 87
3 154 87 152
3 155 154 152
3 155 152 153
3 156 91 89
3 156 89 154
3 157 156 154
3 157 154 155
3 158 93 91
3 158 91 156
3 159 158 156
3 159 156 157
3 160 95 93
3 160 93 158
3 161 160 158
3 161 158 159
3 162 97 95
3 162 95 160
3 163 162 160
3 163 160 161
3 164 99 97
3 164 97 162
3 165 164 162
3 165 162 163
3 166 101 99
3 166 99 164
3 167 166 164
3 167 164 165
3 168 103 101
3 168 101 166
3 169 168 166
3 169 166 167
3 170 105 103
3 170 103 168
3 171 170 168
3 171 168 169
3 172 107 105
3 172 105 170
3 173 172 170
3 173 170 171
3 174 109 107
3 174 107 172
3 175 174 172
3 175 172 173
3 176 111 109
3 176 109 174
3 177 176 174
3 177 174 175
3 178 113 111
3 178 111 176
3 179 178 176
3 179 176 177
3 180 115 113
3 180 113 178
3 181 180 178
3 181 178 179
3 182 117 115
3 182 115 180
3 183 182 180
3 183 180 181
3 184 119 117
3 184 117 182
3 185 184 182
3 185 182 183
3 186 121 119
3 186 119 184
3 187 186 184
3 187 184 185
3 188 123 121
3 188 121 186
3 189 188 186
3 189 186 187
3 190 125 123
3 190 123 188
3 191 190 188
3 191 188 189
3 193 128 190
3 193 190 191
3 192 191 189
3 192 189 254
3 194 193 191
3 194 191 192
3 196 131 193
3 196 193 194
3 195 194 192
3 195 192 257
3 197 196 194
3 197 194 195
3 198 133 131
3 198 131 196
3 199 198 196
3 199 196 197
3 200 135 133
3 200 133 198
3 201 200 198
3 201 198 199
3 202 137 135
3 202 135 200
3 203 202 200
3 203 200 201
3 204 139 137
3 204 137 202
3 205 204 202
3 205 202 203
3 206 141 139
3 206 139 204
3 207 206 204
3 207 204 205
3 208 143 141
3 208 141 206
3 209 208 206
3 209 206 207
3 210 145 143
3 210 143 208
3 211 210 208
3 211 208 209
3 212 147 145
3 212 145 210
3 213 212 210
3 213 210 211
3 214 149 147
3 214 147 212
3 215 214 212
3 215 212 213
3 216 151 149
3 216 149 214
3 217 216 214
3 217 214 215
3 218 153 151
3 218 151 216
3 219 218 216
3 219 216 217
3 220 155 153
3 220 153 218
3 221 220 218
3 221 218 219
3 222 157 155
3 222 155 220
3 223 222 220
3 223 220 221
3 224 159 157
3 224 157 222
3 225 224 222
3 225 222 223
3 226 161 159
3 226 159 224
3 227 226 224
3 227 224 225
3 228 163 161
3 228 161 226
3 229 228 226
3 229 226 227
3 230 165 163
3 230 163 228
3 231 230 228
3 231 228 229
3 232 167 165
3 232 165 230
3 233 232 230
3 233 230 231
3 234 169 167
3 234 167 232
3 235 234 232
3 235 232 233
3 236 171 169
3 236 169 234
3 237 236 234
3 237 234 235
3 238 173 171
3 238 171 236
3 239 238 236
3 239 236 237
3 240 175 173
3 240 173 238
3 241 240 238
3 241 238 239
3 242 177 175
3 242 175 240
3 243 242 240
3 243 240 241
3 244 179 177
3 244 177 242
3 245 244 242
3 245 242 243
3 246 181 179
3 246 179 244
3 247 246 244
3 247 244 245
3 248 183 181
3 248 181 246
3 249 248 246
3 249 246 247
3 250 185 183
3 250 183 248
3 251 250 248
3 251 248 249
3 252 187 185
3 252 185 250
3 253 252 250
3 253 250 251
3 254 189 187
3 254 187 252
3 255 254 252
3 255 252 253
3 257 192 254
3 257 254 255
3 256 255 253
3 256 253 318
3 258 257 255
3 258 255 256
3 260 195 257
3 260 257 258
3 259 258 256
3 259 256 321
3 261 260 258
3 261 258 259
3 262 197 195
3 262 195 260
3 263 262 260
3 263 260 261
3 264 199 197
3 264 197 262
3 265 264 262
3 265 262 263
3 266 201 199
3 266 199 264
3 267 266 264
3 267 264 265
3 268 203 201
3 268 201 266
3 269 268 266
3 269 266 267
3 270 205 203
3 270 203 268
3 271 270 268
3 271 268 269
3 272 207 205
3 272 205 270
3 273 272 270
3 273 270 271
3 274 209 207
3 274 207 272
3 275 274 272
3 275 272 273
3 276 211 209
3 276 209 274
3 277 276 274
3 277 274 275
3 278 213 211
3 278 211 276
3 279 278 276
3 279 276 277
3 280 215 213
3 280 213 278
3 281 280 278
3 281 278 279
3 282 217 215
3 282 215 280
3 283 282 280
3 283 280 281
3 284 219 217
3 284 217 282
3 285 284 282
3 285 282 283
3 286 221 219
3 286 219 284
3 287 286 284
3 287 284 285
3 288 223 221
3 288 221 286
3 289 288 286
3 289 286 287
3 290 225 223
3 290 223 288
3 291 290 288
3 291 288 289
3 292 227 225
3 292 225 290
3 293 292 290
3 293 290 291
3 294 229 227
3 294 227 292
3 295 294 292
3 295 292 293
3 296 231 229
3 296 229 294
3 297 296 294
3 297 294 295
3 298 233 231
3 298 231 296
3 299 298 296
3 299 296 297
3 300 235 233
3 300 233 298
3 301 300 298
3 301 298 299
3 302 237 235
3 302 235 300
3 303 302 300
3 303 300 301
3 304 239 237
3 304 237 302
3 305 304 302
3 305 302 303
3 306 241 239
3 306 239 304
3 307 306 304
3 307 304 305
3 308 243 241
3 308 241 306
3 309 308 306
3 309 306 307
3 310 245 243
3 310 243 308
3 311 310 308
3 311 308 309
3 312 247 245
3 312 245 310
3 313 312 310
3 313 310 311
3 314 249 247
3 314 247 312
3 315 314 312
3 315 312 313
3 316 251 249
3 316 249 314
3 317 316 314
3 317 314 315
3 318 253 251
3 318 251 316
3 319 318 316
3 319 316 317
3 321 256 318
3 321 318 319
3 320 319 317
3 320 317 382
3 322 321 319
3 322 319 320
3 324 259 321
3 324 321 322
3 323 322 320
3 323 320 385
3 325 324 322
3 325 322 323
3 326 261 259
3 326 259 324
3 327 326 324
3 327 324 325
3 328 263 261
3 328 261 326
3 329 328 326
3 329 326 327
3 330 265 263
3 330 263 328
3 331 330 328
3 331 328 329
3 332 267 265
3 332 265 330
3 333 332 330
3 333 330 331
3 334 269 267
3 334 267 332
3 335 334 332
3 335 332 333
3 336 271 269
3 336 269 334
3 337 336 334
3 337 334 335
3 338 273 271
3 338 271 336
3 339 338 336
3 339 336 337
3 340 275 273
3 340 273 338
3 341 340 338
3 341 338 339
3 342 277 275
3 342 275 340
3 343 342 340
3 343 340 341
3 344 279 277
3 344 277 342
3 345 344 342
3 345 342 343
3 346 281 279
3 346 279 344
3 347 346 344
3 347 344 345
3 348 283 281
3 348 281 346
3 349 348 346
3 349 346 347
3 350 285 283
3 350 283 348
3 351 350 348
3 351 348 349
3 352 287 285
3 352 285 350
3 353 352 350
3 353 350 351
3 354 289 287
3 354 287 352
3 355 354 352
3 355 352 353
3 356 291 289
3 356 289 354
3 357 356 354
3 357 354 355
3 358 293 291
3 358 291 356
3 359 358 356
3 359 356 357
3 360 295 293
3 360 293 358
3 361 360 358
3 361 358 359
3 362 297 295
3 362 295 360
3 363 362 360
3 363 360 361
3 364 299 297
3 364 297 362
3 365 364 362
3 365 362 363
3 366 301 299
3 366 299 364
3 367 366 364
3 367 364 365
3 368 303 301
3 368 301 366
3 369 368 366
3 369 366 367
3 370 305 303
3 370 303 368
3 371 370 368
3 371 368 369
3 372 307 305
3 372 305 370
3 373 372 370
3 373 370 371
3 374 309 307
3 374 307 372
3 375 374 372
3 375 372 373
3 376 311 309
3 376 309 374
3 377 376 374
3 377 374 375
3 378 313 311
3 378 311 376
3 379 378 376
3 379 376 377
3 380 315 313
3 380 313 378
3 381 380 378
3 381 378 379
3 382 317 315
3 382 315 380
3 383 382 380
3 383 380 381
3 385 320 382
3 385 382 383
3 384 383 381
3 384 381 446
3 386 385 383
3 386 383 384
3 388 323 385
3 388 385 386
3 387 386 384
3 387 384 449
3 389 388 386
3 389 386 387
3 390 325 323
3 390 323 388
3 391 390 388
3 391 388 389
3 392 327 325
3 392 325 390
3 393 392 390
3 393 390 391
3 394 329 327
3 394 327 392
3 395 394 392
3 395 392 393
3 396 331 329
3 396 329 394
3 397 396 394
3 397 394 395
3 398 333 331
3 398 331 396
3 399 398 396
3 399 396 397
3 400 335 333
3 400 333 398
3 401 400 398
3 401 398 399
3 402 337 335
3 402 335 400
3 403 402 400
3 403 400 401
3 404 339 337
3 404 337 402
3 405 404 402
3 405 402 403
3 406 341 339
3 406 339 404
3 407 406 404
3 407 404 405
3 408 343 341
3 408 341 406
3 409 408 406
3 409 406 407
3 410 345 343
3 410 343 408
3 411 410 408
3 411 408 409
3 412 347 345
3 412 345 410
3 413 412 410
3 413 410 411
3 414 349 347
3 414 347 412
3 415 414 412
3 415 412 413
3 416 351 349
3 416 349 414
3 417 416 414
3 417 414 415
3 418 353 351
3 418 351 416
3 419 418 416
3 419 416 417
3 420 355 353
3 420 353 418
3 421 420 418
3 421 418 419
3 422 357 355
3 422 355 420
3 423 422 420
3 423 420 421
3 424 359 357
3 424 357 422
3 425 424 422
3 425 422 423
3 426 361 359
3 426 359 424
3 427 426 424
3 427 424 425
3 428 363 361
3 428 361 426
3 429 428 426
3 429 426 427
3 430 365 363
3 430 363 428
3 431 430 428
3 431 428 429
3 432 367 365
3 432 365 430
3 433 432 430
3 433 430 431
3 434 369 367
3 434 367 432
3 435 434 432
3 435 432 433
3 436 371 369
3 436 369 434
3 437 436 434
3 437 434 435
3 438 373 371
3 438 371 436
3 439 438 436
3 439 436 437
3 440 375 373
3 440 373 438
3 441 440 438
3 441 438 439
3 442 377 375
3 442 375 440
3 443 442 440
3 443 440 441
3 444 379 377
3 444 377 442
3 445 444 442
3 445 442 443
3 446 381 379
3 446 379 444
3 447 446 444
3 447 444 445
3 449 384 446
3 449 446 447
3 448 447 445
3 448 445 460
3 450 449 447
3 450 447 448
3 451 387 449
3 451 449 450
3 452 451 450
3 452 450 448
3 452 453 464
3 452 463 453
3 452 481 454
3 452 454 455
3 452 455 456
3 452 456 457
3 452 457 458
3 452 458 459
3 452 459 451
3 452 448 460
3 452 460 461
3 452 461 462
3 452 462 463
3 452 464 465
3 452 465 466
3 452 466 467
3 452 467 468
3 452 468 469
3 452 469 470
3 452 470 471
3 452 471 472
3 452 472 473
3 452 473 474
3 452 474 475
3 452 475 476
3 452 476 477
3 452 477 478
3 452 478 479
3 452 479 480
3 452 480 481
3 481 401 399
3 481 399 454
3 480 403 401
3 480 401 481
3 479 405 403
3 479 403 480
3 478 407 405
3 478 405 479
3 477 409 407
3 477 407 478
3 476 411 409
3 476 409 477
3 475 413 411
3 475 411 476
3 474 415 413
3 474 413 475
3 473 417 415
3 473 415 474
3 472 419 417
3 472 417 473
3 471 421 419
3 471 419 472
3 470 423 421
3 470 421 471
3 469 425 423
3 469 423 470
3 468 427 425
3 468 425 469
3 467 429 427
3 467 427 468
3 466 431 429
3 466 429 467
3 465 433 431
3 465 431 466
3 464 435 433
3 464 433 465
3 453 437 435
3 453 435 464
3 463 439 437
3 463 437 453
3 462 441 439
3 462 439 463
3 461 443 441
3 461 441 462
3 460 445 443
3 460 443 461
3 459 389 387
3 459 387 451
3 458 391 389
3 458 389 459
3 457 393 391
3 457 391 458
3 456 395 393
3 456 393 457
3 455 397 395
3 455 395 456
3 454 399 397
3 454 397 455
