ply
format ascii 1.0
element vertex 1600
property float x
property float y
property float z
element face 3196
property list uchar int vertex_index
end_header
0.291670 2.606472 -0.196642
0.291594 2.606419 -0.196758
0.292174 2.606650 -0.196565
0.291043 2.607125 -0.193237
0.290940 2.607043 -0.193431
0.291963 2.607453 -0.193090
0.289968 2.607624 -0.189843
0.289847 2.607517 -0.190116
0.291329 2.608111 -0.189619
0.288941 2.608747 -0.183880
0.288711 2.608569 -0.184311
0.290970 2.609473 -0.183550
0.288061 2.609979 -0.177488
0.287662 2.609706 -0.178102
0.290754 2.610939 -0.177062
0.287611 2.611450 -0.170410
0.287009 2.611072 -0.171227
0.291017 2.612659 -0.169889
0.287858 2.613043 -0.163465
0.287030 2.612558 -0.164479
0.291933 2.614474 -0.162863
0.289971 2.615222 -0.156148
0.287861 2.614234 -0.157692
0.293658 2.616452 -0.155822
0.292523 2.617226 -0.149893
0.289464 2.615895 -0.151818
0.296021 2.618340 -0.149753
0.283229 2.584132 -0.152316
0.276340 2.549825 -0.154344
0.286601 2.585363 -0.152142
0.280291 2.582682 -0.154293
0.273440 2.548301 -0.156245
0.277916 2.581068 -0.158003
0.286967 2.614385 -0.155462
0.271125 2.546643 -0.159877
0.276223 2.579338 -0.163308
0.285151 2.612735 -0.160703
0.269508 2.544911 -0.165094
0.275316 2.577546 -0.170006
0.284125 2.610982 -0.167354
0.268681 2.543161 -0.171685
0.275276 2.575752 -0.177827
0.283984 2.609185 -0.175163
0.268710 2.541456 -0.179380
0.276149 2.574024 -0.186448
0.284786 2.607412 -0.183819
0.269626 2.539858 -0.187857
0.277932 2.572435 -0.195506
0.286538 2.605746 -0.192958
0.271417 2.538429 -0.196765
0.280562 2.571054 -0.204625
0.289176 2.604270 -0.202195
0.274022 2.537225 -0.205740
0.283929 2.569939 -0.213438
0.292578 2.603050 -0.211145
0.277337 2.536294 -0.214432
0.287876 2.569138 -0.221615
0.296573 2.602143 -0.219459
0.281215 2.535669 -0.222513
0.292223 2.568679 -0.228862
0.300971 2.601584 -0.226829
0.285485 2.535374 -0.229696
0.296778 2.568575 -0.234935
0.305575 2.601390 -0.233002
0.289964 2.535413 -0.235732
0.301346 2.568823 -0.239632
0.310192 2.601558 -0.237770
0.294460 2.535782 -0.240418
0.305740 2.569408 -0.242800
0.314636 2.602074 -0.240980
0.298791 2.536462 -0.243596
0.309786 2.570300 -0.244334
0.318735 2.602907 -0.242527
0.302780 2.537425 -0.245160
0.313324 2.571460 -0.244183
0.322333 2.604022 -0.242361
0.306269 2.538634 -0.245062
0.316214 2.572846 -0.242356
0.325293 2.605370 -0.240490
0.309117 2.540046 -0.243307
0.318339 2.574408 -0.238913
0.327500 2.606902 -0.236979
0.311209 2.541614 -0.239961
0.319611 2.576093 -0.233968
0.328870 2.608566 -0.231945
0.312461 2.543287 -0.235138
0.319980 2.577846 -0.227685
0.329350 2.610304 -0.225557
0.312823 2.545006 -0.229003
0.319434 2.579610 -0.220270
0.328927 2.612063 -0.218032
0.312289 2.546717 -0.221761
0.318007 2.581325 -0.211971
0.327633 2.613786 -0.209630
0.310898 2.548359 -0.213654
0.315788 2.582931 -0.203077
0.325544 2.615411 -0.200655
0.308740 2.549870 -0.204958
0.312912 2.584364 -0.193923
0.322780 2.616879 -0.191451
0.305941 2.551188 -0.195990
0.309549 2.585562 -0.184880
0.319490 2.618121 -0.182391
0.302653 2.552249 -0.187097
0.305868 2.586464 -0.176338
0.315824 2.619071 -0.173862
0.299025 2.552998 -0.178650
0.302011 2.587014 -0.168669
0.311920 2.619672 -0.166222
0.295186 2.553384 -0.171015
0.298075 2.587174 -0.162195
0.307886 2.619890 -0.159780
0.291237 2.553381 -0.164519
0.294137 2.586936 -0.157169
0.303822 2.619719 -0.154780
0.287270 2.552986 -0.159435
0.290278 2.586316 -0.153778
0.299828 2.619188 -0.151400
0.283386 2.552228 -0.155967
0.277847 2.517337 -0.156520
0.279700 2.551155 -0.154249
0.274079 2.516180 -0.154723
0.269062 2.481067 -0.153540
0.270668 2.514795 -0.154725
0.265597 2.479681 -0.153490
0.267748 2.513242 -0.156522
0.262650 2.478145 -0.155223
0.265441 2.511584 -0.160039
0.260348 2.476524 -0.158668
0.263860 2.509885 -0.165132
0.258806 2.474893 -0.163684
0.263092 2.508216 -0.171593
0.258120 2.473337 -0.170071
0.263198 2.506641 -0.179155
0.258351 2.471930 -0.177572
0.264199 2.505223 -0.187509
0.259509 2.470734 -0.185886
0.266069 2.504014 -0.196314
0.261552 2.469787 -0.194676
0.268737 2.503052 -0.205216
0.264384 2.469108 -0.203590
0.272087 2.502368 -0.213866
0.267872 2.468704 -0.212277
0.275976 2.501979 -0.221938
0.271864 2.468571 -0.220401
0.280237 2.501894 -0.229137
0.276190 2.468708 -0.227662
0.284691 2.502113 -0.235206
0.280679 2.469106 -0.233793
0.289155 2.502625 -0.239933
0.285156 2.469755 -0.238578
0.293451 2.503411 -0.243157
0.289452 2.470635 -0.241851
0.297409 2.504446 -0.244771
0.293403 2.471721 -0.243501
0.300874 2.505692 -0.244723
0.296861 2.472978 -0.243477
0.303709 2.507109 -0.243022
0.299690 2.474366 -0.241788
0.305800 2.508648 -0.239734
0.301781 2.475837 -0.238500
0.307066 2.510259 -0.234977
0.303049 2.477339 -0.233735
0.307458 2.511887 -0.228920
0.303445 2.478820 -0.227663
0.306970 2.513477 -0.221771
0.302959 2.480221 -0.220500
0.305642 2.514968 -0.213773
0.301621 2.481488 -0.212494
0.303550 2.516303 -0.205201
0.299497 2.482568 -0.203927
0.300808 2.517419 -0.196361
0.296689 2.483412 -0.195106
0.297543 2.518265 -0.187587
0.293322 2.483981 -0.186364
0.293893 2.518789 -0.179232
0.289533 2.484249 -0.178047
0.289980 2.518960 -0.171648
0.285461 2.484202 -0.170497
0.285923 2.518765 -0.165160
0.281245 2.483843 -0.164029
0.281838 2.518215 -0.160047
0.277018 2.483184 -0.158917
0.272885 2.448695 -0.156650
0.272913 2.482249 -0.155373
0.268710 2.447759 -0.153103
0.266296 2.415002 -0.150247
0.264829 2.446618 -0.151264
0.262455 2.413948 -0.148407
0.261365 2.445294 -0.151200
0.259051 2.412729 -0.148347
0.258444 2.443835 -0.152913
0.256202 2.411382 -0.150064
0.256196 2.442308 -0.156336
0.254036 2.409971 -0.153495
0.254742 2.440798 -0.161334
0.252672 2.408581 -0.158513
0.254186 2.439397 -0.167718
0.252212 2.407307 -0.164935
0.254587 2.438190 -0.175237
0.252717 2.406240 -0.172521
0.255948 2.437235 -0.183594
0.254185 2.405441 -0.180979
0.258201 2.436556 -0.192453
0.256550 2.404939 -0.189974
0.261231 2.436155 -0.201458
0.259688 2.404734 -0.199137
0.264888 2.436013 -0.210245
0.263441 2.404794 -0.208094
0.269008 2.436114 -0.218470
0.267639 2.405081 -0.216481
0.273422 2.436441 -0.225822
0.272108 2.405560 -0.223967
0.277964 2.436981 -0.232028
0.276681 2.406205 -0.230275
0.282468 2.437726 -0.236870
0.281197 2.407009 -0.235183
0.286771 2.438661 -0.240179
0.285499 2.407959 -0.238527
0.290720 2.439762 -0.241848
0.289439 2.409048 -0.240204
0.294169 2.440998 -0.241823
0.292875 2.410245 -0.240167
0.296986 2.442329 -0.240115
0.295677 2.411513 -0.238427
0.299060 2.443706 -0.236790
0.297732 2.412802 -0.235050
0.300306 2.445075 -0.231971
0.298950 2.414052 -0.230159
0.300667 2.446381 -0.225832
0.299271 2.415202 -0.223924
0.300126 2.447563 -0.218589
0.298666 2.416189 -0.216564
0.298701 2.448572 -0.210498
0.297149 2.416961 -0.208338
0.296452 2.449361 -0.201849
0.294775 2.417484 -0.199541
0.293478 2.449897 -0.192958
0.291646 2.417745 -0.190502
0.289910 2.450164 -0.184162
0.287905 2.417756 -0.181572
0.285901 2.450164 -0.175809
0.283730 2.417545 -0.173108
0.281621 2.449908 -0.168239
0.279316 2.417150 -0.165459
0.277233 2.449415 -0.161764
0.274842 2.416594 -0.158936
0.274251 2.385573 -0.155720
0.270461 2.415882 -0.153800
0.269835 2.384861 -0.150523
0.269354 2.354228 -0.146600
0.265644 2.384000 -0.146935
0.265034 2.353319 -0.142945
0.261782 2.382974 -0.145077
0.261073 2.352256 -0.141051
0.258362 2.381789 -0.145007
0.257574 2.351045 -0.140965
0.255505 2.380480 -0.146722
0.254663 2.349716 -0.142680
0.253337 2.379107 -0.150161
0.252474 2.348337 -0.146143
0.251984 2.377760 -0.155208
0.251150 2.346998 -0.151247
0.251552 2.376533 -0.161692
0.250814 2.345803 -0.157840
0.252107 2.375525 -0.169386
0.251541 2.344857 -0.165707
0.253650 2.374809 -0.178002
0.253320 2.344237 -0.174563
0.256112 2.374428 -0.187205
0.256048 2.343983 -0.184059
0.259359 2.374384 -0.196615
0.259555 2.344091 -0.193790
0.263218 2.374639 -0.205832
0.263637 2.344518 -0.203331
0.267507 2.375130 -0.214470
0.268100 2.345188 -0.212266
0.272044 2.375794 -0.222170
0.272763 2.346028 -0.220221
0.276661 2.376581 -0.228639
0.277466 2.346974 -0.226888
0.281200 2.377473 -0.233653
0.282062 2.347999 -0.232043
0.285511 2.378469 -0.237057
0.286412 2.349101 -0.235538
0.289452 2.379568 -0.238758
0.290378 2.350285 -0.237293
0.292887 2.380759 -0.238717
0.293831 2.351542 -0.237278
0.295686 2.382004 -0.236951
0.296644 2.352843 -0.235513
0.297738 2.383253 -0.233526
0.298703 2.354128 -0.232061
0.298946 2.384438 -0.228557
0.299908 2.355314 -0.227026
0.299245 2.385479 -0.222207
0.300183 2.356306 -0.220555
0.298601 2.386306 -0.214689
0.299486 2.357011 -0.212845
0.297022 2.386869 -0.206261
0.297816 2.357381 -0.204153
0.294566 2.387151 -0.197231
0.295227 2.357426 -0.194803
0.291341 2.387173 -0.187950
0.291831 2.357207 -0.185177
0.287505 2.386984 -0.178792
0.287794 2.356803 -0.175684
0.283248 2.386633 -0.170137
0.283322 2.356284 -0.166735
0.278771 2.386158 -0.162343
0.278635 2.355684 -0.158705
0.278506 2.324991 -0.154764
0.273927 2.355006 -0.151911
0.273539 2.324224 -0.147779
0.274978 2.293916 -0.144537
0.268800 2.323395 -0.142364
0.270300 2.293131 -0.139129
0.264404 2.322465 -0.138676
0.266011 2.292260 -0.135491
0.260428 2.321404 -0.136796
0.262167 2.291257 -0.133686
0.256957 2.320203 -0.136753
0.258832 2.290109 -0.133729
0.254104 2.318892 -0.138532
0.256106 2.288842 -0.135600
0.252008 2.317534 -0.142081
0.254122 2.287518 -0.139243
0.250821 2.316229 -0.147302
0.253025 2.286234 -0.144554
0.250681 2.315084 -0.154051
0.252945 2.285100 -0.151386
0.251657 2.314206 -0.162120
0.253955 2.284224 -0.159531
0.253721 2.313669 -0.171224
0.256036 2.283682 -0.168713
0.256737 2.313503 -0.181001
0.259064 2.283509 -0.178587
0.260502 2.313692 -0.191030
0.262839 2.283687 -0.188744
0.264792 2.314185 -0.200866
0.267137 2.284169 -0.198741
0.269405 2.314910 -0.210067
0.271750 2.284886 -0.208125
0.274171 2.315797 -0.218241
0.276512 2.285768 -0.216479
0.278942 2.316790 -0.225071
0.281275 2.286764 -0.223458
0.283583 2.317866 -0.230333
0.285909 2.287848 -0.228830
0.287963 2.319023 -0.233893
0.290284 2.289012 -0.232457
0.291951 2.320261 -0.235682
0.294267 2.290250 -0.234282
0.295418 2.321566 -0.235677
0.297726 2.291546 -0.234294
0.298237 2.322905 -0.233903
0.300536 2.292861 -0.232523
0.300292 2.324214 -0.230419
0.302576 2.294140 -0.229022
0.301479 2.325411 -0.225320
0.303742 2.295300 -0.223875
0.301714 2.326395 -0.218737
0.303948 2.296248 -0.217196
0.300944 2.327065 -0.210851
0.303131 2.296894 -0.209146
0.299151 2.327364 -0.201908
0.301266 2.297176 -0.199969
0.296373 2.327301 -0.192237
0.298381 2.297093 -0.190011
0.292714 2.326943 -0.182243
0.294577 2.296705 -0.179710
0.288351 2.326386 -0.172372
0.290048 2.296108 -0.169556
0.283525 2.325716 -0.163075
0.285072 2.295404 -0.160036
0.288410 2.265728 -0.157808
0.279960 2.294666 -0.151583
0.283413 2.265039 -0.149359
0.287891 2.236065 -0.147198
0.278552 2.264342 -0.142329
0.283085 2.235411 -0.140132
0.273979 2.263608 -0.136932
0.278552 2.234719 -0.134686
0.269771 2.262783 -0.133300
0.274375 2.233936 -0.131001
0.265981 2.261817 -0.131498
0.270611 2.233011 -0.129157
0.262681 2.260697 -0.131548
0.267330 2.231925 -0.129180
0.259973 2.259444 -0.133434
0.264636 2.230701 -0.131054
0.257990 2.258128 -0.137093
0.262665 2.229407 -0.134720
0.256879 2.256845 -0.142420
0.261560 2.228143 -0.140068
0.256770 2.255712 -0.149264
0.261450 2.227019 -0.146940
0.257735 2.254832 -0.157410
0.262396 2.226136 -0.155111
0.259755 2.254281 -0.166581
0.264370 2.225561 -0.164293
0.262706 2.254082 -0.176433
0.267244 2.225314 -0.174121
0.266394 2.254220 -0.186562
0.270835 2.225377 -0.184184
0.270604 2.254648 -0.196531
0.274943 2.225714 -0.194045
0.275141 2.255311 -0.205903
0.279388 2.226281 -0.203275
0.279836 2.256153 -0.214262
0.284010 2.227036 -0.211492
0.284547 2.257128 -0.221274
0.288666 2.227943 -0.218382
0.289142 2.258207 -0.226695
0.293220 2.228977 -0.223722
0.293485 2.259375 -0.230384
0.297534 2.230113 -0.227368
0.297444 2.260614 -0.232272
0.301469 2.231330 -0.229243
0.300883 2.261903 -0.232350
0.304889 2.232594 -0.229325
0.303675 2.263201 -0.230642
0.307665 2.233863 -0.227632
0.305700 2.264452 -0.227199
0.309677 2.235080 -0.224215
0.306854 2.265579 -0.222091
0.310824 2.236179 -0.219158
0.307053 2.266495 -0.215415
0.311025 2.237084 -0.212566
0.306239 2.267115 -0.207320
0.310230 2.237724 -0.204596
0.304387 2.267387 -0.198052
0.308421 2.238050 -0.195484
0.301524 2.267314 -0.187980
0.305630 2.238058 -0.185569
0.297759 2.266950 -0.177576
0.301960 2.237783 -0.175296
0.293293 2.266390 -0.167354
0.297598 2.237303 -0.165160
0.302367 2.208703 -0.162920
0.292811 2.236705 -0.155652
0.297718 2.208214 -0.153405
0.302304 2.179754 -0.150778
0.292923 2.207673 -0.144902
0.297564 2.179275 -0.142080
0.288217 2.207103 -0.137764
0.292903 2.178766 -0.134775
0.283756 2.206481 -0.132240
0.288470 2.178191 -0.129119
0.279626 2.205750 -0.128483
0.284353 2.177495 -0.125264
0.275885 2.204863 -0.126579
0.280611 2.176631 -0.123290
0.272608 2.203800 -0.126561
0.277321 2.175584 -0.123221
0.269902 2.202588 -0.128410
0.274594 2.174378 -0.125042
0.267902 2.201293 -0.132070
0.272570 2.173083 -0.128697
0.266757 2.200012 -0.137433
0.271404 2.171797 -0.134087
0.266591 2.198861 -0.144334
0.271229 2.170636 -0.141060
0.267473 2.197939 -0.152549
0.272108 2.169700 -0.149396
0.269377 2.197315 -0.161777
0.274015 2.169063 -0.158793
0.272178 2.197016 -0.171647
0.276821 2.168752 -0.168866
0.275694 2.197024 -0.181735
0.280353 2.168767 -0.179162
0.279730 2.197304 -0.191599
0.284444 2.169093 -0.189204
0.284106 2.197813 -0.200805
0.288860 2.169651 -0.198573
0.288667 2.198512 -0.208978
0.293428 2.170380 -0.206889
0.293273 2.199369 -0.215816
0.298018 2.171253 -0.213831
0.297783 2.200355 -0.221102
0.302501 2.172235 -0.219181
0.302058 2.201449 -0.224699
0.306747 2.173312 -0.222807
0.305960 2.202621 -0.226533
0.310620 2.174459 -0.224649
0.309350 2.203837 -0.226581
0.313982 2.175640 -0.224701
0.312096 2.205053 -0.224864
0.316704 2.176817 -0.222988
0.314083 2.206217 -0.221436
0.318669 2.177937 -0.219566
0.315213 2.207268 -0.216388
0.319780 2.178941 -0.214516
0.315410 2.208144 -0.209839
0.319966 2.179772 -0.207949
0.314628 2.208788 -0.201956
0.319180 2.180373 -0.200018
0.312862 2.209158 -0.192965
0.317414 2.180703 -0.190944
0.310150 2.209244 -0.183179
0.314702 2.180760 -0.181044
0.306593 2.209071 -0.173007
0.311134 2.180566 -0.170735
0.315960 2.152452 -0.168004
0.306908 2.180199 -0.160487
0.311832 2.152145 -0.157355
0.317498 2.124737 -0.153966
0.307236 2.151726 -0.147291
0.312897 2.124338 -0.143674
0.302447 2.151250 -0.138309
0.308007 2.123830 -0.134479
0.297718 2.150733 -0.130801
0.303135 2.123260 -0.126804
0.293225 2.150155 -0.125017
0.298510 2.122634 -0.120913
0.289065 2.149466 -0.121088
0.294261 2.121919 -0.116932
0.285294 2.148613 -0.119073
0.290445 2.121065 -0.114904
0.281982 2.147577 -0.118987
0.287121 2.120051 -0.114833
0.279239 2.146386 -0.120808
0.284403 2.118899 -0.116694
0.277218 2.145111 -0.124485
0.282457 2.117691 -0.120440
0.276095 2.143864 -0.129930
0.281477 2.116541 -0.125987
0.276021 2.142764 -0.137005
0.281611 2.115565 -0.133202
0.277049 2.141904 -0.145500
0.282862 2.114825 -0.141871
0.279108 2.141334 -0.155116
0.285082 2.114332 -0.151673
0.282009 2.141053 -0.165458
0.288017 2.114051 -0.162186
0.285533 2.141041 -0.176054
0.291439 2.113954 -0.172915
0.289503 2.141283 -0.186410
0.295217 2.114049 -0.183347
0.293791 2.141767 -0.196052
0.299279 2.114357 -0.193009
0.298306 2.142485 -0.204558
0.303579 2.114892 -0.201497
0.302913 2.143388 -0.211616
0.308011 2.115640 -0.208523
0.307392 2.144386 -0.217052
0.312422 2.116563 -0.213905
0.311622 2.145463 -0.220741
0.316644 2.117611 -0.217550
0.315476 2.146599 -0.222637
0.320485 2.118724 -0.219433
0.318815 2.147766 -0.222739
0.323810 2.119868 -0.219546
0.321516 2.148921 -0.221082
0.326492 2.121004 -0.217914
0.323458 2.150015 -0.217712
0.328416 2.122079 -0.214589
0.324548 2.150988 -0.212698
0.329484 2.123036 -0.209638
0.324711 2.151772 -0.206122
0.329639 2.123821 -0.203137
0.323890 2.152306 -0.198114
0.328897 2.124417 -0.195170
0.322085 2.152562 -0.188874
0.327274 2.124808 -0.185910
0.319420 2.152603 -0.178688
0.324809 2.124993 -0.175647
0.330492 2.097753 -0.172893
0.321523 2.124964 -0.164819
0.327498 2.097937 -0.162243
0.333257 2.070903 -0.160653
0.323779 2.097917 -0.151494
0.329973 2.071133 -0.150073
0.319471 2.097702 -0.141223
0.326163 2.071185 -0.139878
0.314846 2.097345 -0.131993
0.322021 2.071080 -0.130645
0.310197 2.096895 -0.124258
0.317787 2.070831 -0.122862
0.305758 2.096362 -0.118312
0.313663 2.070439 -0.116850
0.301666 2.095724 -0.114295
0.309790 2.069891 -0.112772
0.297983 2.094939 -0.112260
0.306249 2.069163 -0.110692
0.294776 2.093990 -0.112211
0.303123 2.068250 -0.110622
0.292153 2.092903 -0.114123
0.300519 2.067180 -0.112539
0.290262 2.091743 -0.117943
0.298569 2.066009 -0.116389
0.289263 2.090608 -0.123583
0.297407 2.064812 -0.122077
0.289267 2.089588 -0.130893
0.297117 2.063668 -0.129444
0.290265 2.088736 -0.139640
0.297692 2.062621 -0.138243
0.292134 2.088072 -0.149482
0.299056 2.061713 -0.148105
0.294673 2.087580 -0.159975
0.301075 2.060964 -0.158556
0.297706 2.087258 -0.170612
0.303651 2.060406 -0.169077
0.301138 2.087131 -0.180885
0.306755 2.060095 -0.179155
0.304911 2.087225 -0.190343
0.310343 2.060068 -0.188362
0.308975 2.087566 -0.198621
0.314310 2.060323 -0.196385
0.313235 2.088154 -0.205460
0.318521 2.060843 -0.203001
0.317531 2.088948 -0.210695
0.322790 2.061584 -0.208060
0.321688 2.089909 -0.214231
0.326930 2.062501 -0.211469
0.325508 2.090974 -0.216033
0.330725 2.063522 -0.213197
0.328818 2.092083 -0.216101
0.334010 2.064597 -0.213228
0.331483 2.093193 -0.214455
0.336650 2.065683 -0.211582
0.333390 2.094251 -0.211146
0.338539 2.066731 -0.208313
0.334469 2.095221 -0.206245
0.339601 2.067700 -0.203501
0.334705 2.096078 -0.199831
0.339842 2.068579 -0.197231
0.334106 2.096798 -0.192009
0.339283 2.069350 -0.189614
0.332695 2.097363 -0.182944
0.337969 2.070002 -0.180812
0.343388 2.042614 -0.178898
0.335942 2.070523 -0.171050
0.341539 2.043231 -0.169359
0.347887 2.015886 -0.166921
0.339130 2.043747 -0.159165
0.345558 2.016399 -0.156970
0.336194 2.044137 -0.148752
0.342799 2.016827 -0.146802
0.332756 2.044351 -0.138660
0.339633 2.017116 -0.136942
0.328954 2.044385 -0.129456
0.336145 2.017245 -0.127927
0.324981 2.044236 -0.121641
0.332454 2.017184 -0.120236
0.321027 2.043905 -0.115564
0.328699 2.016908 -0.114215
0.317254 2.043386 -0.111416
0.325034 2.016420 -0.110076
0.313762 2.042671 -0.109282
0.321587 2.015716 -0.107928
0.310650 2.041762 -0.109181
0.318484 2.014809 -0.107810
0.308032 2.040689 -0.111095
0.315845 2.013734 -0.109707
0.306034 2.039506 -0.114966
0.313781 2.012539 -0.113551
0.304772 2.038280 -0.120689
0.312384 2.011279 -0.119222
0.304317 2.037078 -0.128087
0.311709 2.010017 -0.126525
0.304646 2.035940 -0.136892
0.311756 2.008799 -0.135180
0.305702 2.034914 -0.146709
0.312529 2.007704 -0.144798
0.307395 2.034039 -0.157062
0.314004 2.006788 -0.154922
0.309676 2.033362 -0.167434
0.316164 2.006108 -0.165055
0.312548 2.032951 -0.177334
0.319005 2.005729 -0.174727
0.315976 2.032846 -0.186354
0.322391 2.005626 -0.183576
0.319888 2.033068 -0.194178
0.326208 2.005798 -0.191303
0.324126 2.033592 -0.200598
0.330301 2.006233 -0.197681
0.328411 2.034320 -0.205508
0.334466 2.006882 -0.202567
0.332525 2.035198 -0.208830
0.338506 2.007708 -0.205866
0.336291 2.036182 -0.210507
0.342228 2.008658 -0.207528
0.339549 2.037231 -0.210524
0.345460 2.009684 -0.207543
0.342164 2.038298 -0.208898
0.348062 2.010736 -0.205935
0.344029 2.039339 -0.205687
0.349931 2.011774 -0.202759
0.345075 2.040313 -0.200972
0.351013 2.012766 -0.198094
0.345273 2.041181 -0.194861
0.351301 2.013688 -0.192038
0.344662 2.041934 -0.187466
0.350828 2.014519 -0.184713
0.357507 1.986673 -0.181673
0.349664 2.015254 -0.176269
0.356453 1.987444 -0.173211
0.364122 1.959375 -0.170564
0.354873 1.988164 -0.163801
0.362942 1.960266 -0.160659
0.352850 1.988825 -0.153752
0.361291 1.961110 -0.150045
0.350425 1.989408 -0.143522
0.359165 1.961861 -0.139287
0.347585 1.989844 -0.133655
0.356520 1.962430 -0.129034
0.344384 1.990099 -0.124685
0.353407 1.962776 -0.119849
0.340903 1.990130 -0.117062
0.349931 1.962861 -0.112152
0.337268 1.989914 -0.111104
0.346252 1.962672 -0.106209
0.333654 1.989457 -0.107008
0.342581 1.962232 -0.102157
0.330222 1.988770 -0.104880
0.339107 1.961561 -0.100074
0.327126 1.987883 -0.104759
0.336002 1.960694 -0.099981
0.324497 1.986826 -0.106632
0.333398 1.959667 -0.101858
0.322428 1.985644 -0.110430
0.331382 1.958516 -0.105642
0.320979 1.984381 -0.116032
0.329991 1.957279 -0.111225
0.320177 1.983085 -0.123249
0.329222 1.955992 -0.118446
0.320010 1.981797 -0.131817
0.329027 1.954680 -0.127078
0.320499 1.980595 -0.141378
0.329404 1.953412 -0.136796
0.321651 1.979547 -0.151492
0.330349 1.952251 -0.147180
0.323478 1.978717 -0.161675
0.331883 1.951271 -0.157731
0.326004 1.978184 -0.171440
0.334058 1.950565 -0.167919
0.329179 1.977977 -0.180369
0.336856 1.950181 -0.177267
0.332887 1.978098 -0.188139
0.340216 1.950149 -0.185388
0.336891 1.978494 -0.194555
0.343997 1.950453 -0.192028
0.340968 1.979101 -0.199469
0.347968 1.951022 -0.197054
0.344940 1.979891 -0.202786
0.351912 1.951806 -0.200409
0.348620 1.980814 -0.204459
0.355587 1.952722 -0.202100
0.351834 1.981818 -0.204482
0.358803 1.953707 -0.202148
0.354445 1.982854 -0.202884
0.361425 1.954717 -0.200589
0.356351 1.983885 -0.199717
0.363349 1.955710 -0.197479
0.357499 1.984879 -0.195060
0.364528 1.956665 -0.192878
0.357878 1.985819 -0.189006
0.365003 1.957588 -0.186819
0.373174 1.929464 -0.185009
0.364836 1.958484 -0.179353
0.373155 1.930368 -0.177366
0.382427 1.902498 -0.172151
0.372619 1.931290 -0.168154
0.381935 1.903422 -0.162702
0.371652 1.932254 -0.157582
0.380883 1.904331 -0.152002
0.370191 1.933192 -0.146207
0.379287 1.905244 -0.140586
0.368179 1.934027 -0.134787
0.377149 1.906121 -0.129177
0.365548 1.934652 -0.124080
0.374402 1.906818 -0.118517
0.362370 1.935021 -0.114654
0.371099 1.907248 -0.109162
0.358777 1.935108 -0.106877
0.367370 1.907361 -0.101474
0.354969 1.934909 -0.100943
0.363427 1.907163 -0.095635
0.351186 1.934460 -0.096941
0.359528 1.906703 -0.091725
0.347639 1.933792 -0.094912
0.355903 1.906026 -0.089773
0.344512 1.932941 -0.094858
0.352743 1.905179 -0.089775
0.341939 1.931943 -0.096753
0.350186 1.904200 -0.091702
0.340000 1.930835 -0.100541
0.348307 1.903119 -0.095500
0.338716 1.929644 -0.106130
0.347115 1.901955 -0.101087
0.338056 1.928395 -0.113387
0.346556 1.900711 -0.108347
0.337936 1.927100 -0.122126
0.346523 1.899386 -0.117114
0.338333 1.925823 -0.132058
0.346985 1.898041 -0.127107
0.339228 1.924621 -0.142785
0.347938 1.896764 -0.137927
0.340641 1.923578 -0.153796
0.349436 1.895682 -0.149043
0.342650 1.922798 -0.164506
0.351572 1.894938 -0.159847
0.345272 1.922345 -0.174347
0.354285 1.894540 -0.169788
0.348482 1.922263 -0.182856
0.357489 1.894460 -0.178418
0.352134 1.922527 -0.189753
0.361080 1.894697 -0.185429
0.355969 1.923046 -0.194935
0.364859 1.895189 -0.190682
0.359797 1.923775 -0.198378
0.368648 1.895892 -0.194152
0.363407 1.924648 -0.200116
0.372240 1.896744 -0.195879
0.366609 1.925605 -0.200204
0.375453 1.897685 -0.195918
0.369257 1.926593 -0.198698
0.378139 1.898665 -0.194323
0.371253 1.927575 -0.195651
0.380202 1.899648 -0.191140
0.372554 1.928534 -0.191092
0.381597 1.900615 -0.186392
0.391208 1.872573 -0.179301
0.382331 1.901567 -0.180068
0.391897 1.873484 -0.172783
0.401921 1.845087 -0.166823
0.391956 1.874421 -0.164762
0.401962 1.846094 -0.158849
0.391474 1.875454 -0.155352
0.401355 1.847156 -0.149627
0.390488 1.876584 -0.144845
0.400209 1.848310 -0.139403
0.388922 1.877715 -0.133743
0.398541 1.849543 -0.128588
0.386739 1.878746 -0.122673
0.396318 1.850739 -0.117753
0.383875 1.879526 -0.112305
0.393449 1.851698 -0.107547
0.380424 1.879992 -0.103179
0.389998 1.852319 -0.098524
0.376542 1.880107 -0.095675
0.386093 1.852540 -0.091091
0.372465 1.879898 -0.089995
0.381973 1.852391 -0.085467
0.368461 1.879425 -0.086216
0.377915 1.851946 -0.081740
0.364765 1.878742 -0.084368
0.374168 1.851278 -0.079933
0.361569 1.877900 -0.084440
0.370940 1.850453 -0.080036
0.359015 1.876940 -0.086403
0.368375 1.849518 -0.082015
0.357176 1.875888 -0.090205
0.366544 1.848491 -0.085820
0.356061 1.874756 -0.095768
0.365446 1.847364 -0.091375
0.355618 1.873541 -0.102981
0.365010 1.846116 -0.098575
0.355718 1.872221 -0.111680
0.365101 1.844702 -0.107254
0.356305 1.870837 -0.121587
0.365662 1.843164 -0.117121
0.357334 1.869458 -0.132298
0.366676 1.841598 -0.127744
0.358820 1.868191 -0.143295
0.368190 1.840156 -0.138585
0.360867 1.867197 -0.153981
0.370345 1.839055 -0.149041
0.363504 1.866579 -0.163801
0.373153 1.838400 -0.158596
0.366727 1.866403 -0.172300
0.376522 1.838179 -0.166878
0.370416 1.866650 -0.179193
0.380292 1.838357 -0.173633
0.374299 1.867181 -0.184367
0.384194 1.838821 -0.178739
0.378155 1.867907 -0.187787
0.388068 1.839518 -0.182117
0.381793 1.868767 -0.189454
0.391719 1.840363 -0.183749
0.385036 1.869703 -0.189396
0.394971 1.841280 -0.183651
0.387746 1.870671 -0.187653
0.397691 1.842223 -0.181857
0.389820 1.871633 -0.184273
0.399780 1.843168 -0.178415
0.410055 1.814002 -0.174888
0.401193 1.844116 -0.173381
0.411456 1.814886 -0.169929
0.422482 1.785093 -0.167050
0.412180 1.815806 -0.163446
0.423202 1.785937 -0.160613
0.412307 1.816865 -0.155491
0.423288 1.786885 -0.152696
0.411878 1.818109 -0.146219
0.422831 1.788035 -0.143414
0.410934 1.819543 -0.135921
0.421939 1.789450 -0.133035
0.409395 1.821036 -0.125078
0.420510 1.791001 -0.122072
0.407234 1.822450 -0.114271
0.418487 1.792527 -0.111146
0.404381 1.823587 -0.104123
0.415760 1.793794 -0.100902
0.400930 1.824349 -0.095145
0.412402 1.794686 -0.091847
0.397005 1.824675 -0.087725
0.408527 1.795121 -0.084363
0.392854 1.824604 -0.082081
0.404399 1.795144 -0.078665
0.388758 1.824215 -0.078323
0.400306 1.794836 -0.074865
0.384973 1.823593 -0.076491
0.396520 1.794287 -0.073009
0.381713 1.822810 -0.076583
0.393265 1.793576 -0.073092
0.379125 1.821915 -0.078567
0.390691 1.792752 -0.075084
0.377281 1.820920 -0.082386
0.388867 1.791820 -0.078925
0.376168 1.819804 -0.087959
0.387768 1.790750 -0.084533
0.375718 1.818531 -0.095164
0.387309 1.789486 -0.091782
0.375795 1.817047 -0.103826
0.387337 1.787963 -0.100501
0.376349 1.815389 -0.113647
0.387780 1.786206 -0.110396
0.377374 1.813662 -0.124204
0.388639 1.784336 -0.121053
0.378869 1.812004 -0.134993
0.389960 1.782527 -0.131957
0.380940 1.810632 -0.145439
0.391899 1.781039 -0.142506
0.383597 1.809684 -0.155029
0.394499 1.780041 -0.152156
0.386834 1.809254 -0.163336
0.397755 1.779626 -0.160468
0.390521 1.809324 -0.170091
0.401474 1.779721 -0.167202
0.394429 1.809779 -0.175160
0.405399 1.780184 -0.172238
0.398322 1.810475 -0.178506
0.409297 1.780871 -0.175554
0.401986 1.811308 -0.180126
0.412970 1.781687 -0.177151
0.405246 1.812201 -0.180037
0.416242 1.782555 -0.177056
0.407969 1.813108 -0.178275
0.418973 1.783422 -0.175312
0.431093 1.753314 -0.171145
0.421070 1.784264 -0.171962
0.433194 1.754083 -0.167772
0.446524 1.723388 -0.163191
0.434601 1.754808 -0.162847
0.447911 1.723951 -0.158268
0.435337 1.755546 -0.156398
0.448555 1.724417 -0.151841
0.435443 1.756365 -0.148476
0.448566 1.724879 -0.143917
0.434931 1.757285 -0.139228
0.448085 1.725445 -0.134552
0.433848 1.758341 -0.128930
0.447180 1.726182 -0.123990
0.432200 1.759483 -0.118035
0.445746 1.727018 -0.112741
0.430061 1.760693 -0.107095
0.443694 1.727868 -0.101471
0.427276 1.761741 -0.096801
0.440886 1.728567 -0.090918
0.423874 1.762496 -0.087700
0.437388 1.729037 -0.081670
0.419950 1.762864 -0.080202
0.433334 1.729208 -0.074140
0.415770 1.762877 -0.074518
0.429033 1.729117 -0.068512
0.411627 1.762599 -0.070752
0.424794 1.728810 -0.064847
0.407802 1.762107 -0.068938
0.420900 1.728334 -0.063141
0.404525 1.761466 -0.069067
0.417578 1.727741 -0.063361
0.401947 1.760721 -0.071102
0.414984 1.727059 -0.065464
0.400131 1.759874 -0.074987
0.413179 1.726301 -0.069397
0.399048 1.758893 -0.080640
0.412138 1.725454 -0.075093
0.398598 1.757728 -0.087946
0.411758 1.724489 -0.082449
0.398630 1.756324 -0.096726
0.411882 1.723372 -0.091309
0.399073 1.754713 -0.106691
0.412388 1.722108 -0.101401
0.399974 1.753040 -0.117391
0.413294 1.720814 -0.112276
0.401420 1.751503 -0.128283
0.414641 1.719617 -0.123384
0.403591 1.750357 -0.138744
0.416621 1.718732 -0.134078
0.406398 1.749670 -0.148292
0.419280 1.718265 -0.143801
0.409745 1.749433 -0.156543
0.422639 1.718285 -0.152110
0.413486 1.749604 -0.163236
0.426510 1.718723 -0.158772
0.417423 1.750099 -0.168233
0.430588 1.719433 -0.163721
0.421353 1.750817 -0.171500
0.434594 1.720258 -0.166960
0.425053 1.751643 -0.173053
0.438335 1.721116 -0.168497
0.428346 1.752492 -0.172920
0.441653 1.721950 -0.168353
0.456307 1.690829 -0.163278
0.444417 1.722717 -0.166568
0.459099 1.691529 -0.161465
0.475417 1.659745 -0.155525
0.461233 1.692086 -0.158061
0.477600 1.660179 -0.152093
0.462660 1.692490 -0.153102
0.479060 1.660400 -0.147127
0.463404 1.692772 -0.146601
0.479883 1.660473 -0.140611
0.463532 1.692985 -0.138570
0.480278 1.660507 -0.132479
0.463083 1.693165 -0.129097
0.480317 1.660558 -0.122807
0.462342 1.693483 -0.118281
0.480043 1.660704 -0.111845
0.461238 1.693928 -0.106615
0.479312 1.660956 -0.100121
0.459566 1.694436 -0.094856
0.477933 1.661294 -0.088369
0.457084 1.694869 -0.083851
0.475672 1.661594 -0.077408
0.453767 1.695142 -0.074294
0.472509 1.661776 -0.067896
0.449744 1.695166 -0.066642
0.468594 1.661763 -0.060254
0.445367 1.694977 -0.061046
0.464282 1.661570 -0.054635
0.440998 1.694604 -0.057501
0.459940 1.661212 -0.051050
0.436962 1.694091 -0.055935
0.455908 1.660720 -0.049443
0.433516 1.693481 -0.056276
0.452450 1.660129 -0.049745
0.430822 1.692799 -0.058467
0.449736 1.659465 -0.051899
0.428939 1.692062 -0.062464
0.447825 1.658750 -0.055859
0.427819 1.691270 -0.068233
0.446661 1.657995 -0.061591
0.427323 1.690402 -0.075721
0.446090 1.657200 -0.069050
0.427261 1.689443 -0.084810
0.445908 1.656368 -0.078128
0.427480 1.688397 -0.095243
0.445920 1.655505 -0.088597
0.428070 1.687410 -0.106508
0.446198 1.654735 -0.099961
0.429184 1.686629 -0.117961
0.446871 1.654148 -0.111593
0.431150 1.686285 -0.128847
0.448271 1.653916 -0.122734
0.433940 1.686361 -0.138623
0.450508 1.654072 -0.132768
0.437338 1.686767 -0.146988
0.453611 1.654627 -0.141246
0.441144 1.687410 -0.153719
0.457326 1.655440 -0.147978
0.445174 1.688227 -0.158705
0.461382 1.656412 -0.152906
0.449192 1.689127 -0.161936
0.465423 1.657403 -0.156094
0.452963 1.690015 -0.163448
0.469213 1.658323 -0.157571
0.487251 1.626305 -0.151976
0.472587 1.659118 -0.157370
0.490653 1.627097 -0.151759
0.510484 1.595196 -0.147105
0.493530 1.627663 -0.149912
0.513411 1.595719 -0.145270
0.495781 1.627975 -0.146488
0.515745 1.595924 -0.141860
0.497358 1.628031 -0.141524
0.517412 1.595793 -0.136910
0.498323 1.627887 -0.135009
0.518370 1.595341 -0.130449
0.498748 1.627611 -0.126955
0.518595 1.594603 -0.122523
0.498656 1.627261 -0.117476
0.518225 1.593740 -0.113154
0.498079 1.626933 -0.106830
0.517495 1.593087 -0.102406
0.496978 1.626703 -0.095506
0.516330 1.592751 -0.090809
0.495268 1.626640 -0.084141
0.514537 1.592700 -0.079140
0.492835 1.626715 -0.073445
0.511928 1.592798 -0.068227
0.489610 1.626787 -0.064086
0.508475 1.592887 -0.058750
0.485716 1.626746 -0.056497
0.504370 1.592868 -0.051120
0.481459 1.626565 -0.050860
0.499928 1.592701 -0.045513
0.477171 1.626242 -0.047232
0.495490 1.592375 -0.041961
0.473177 1.625790 -0.045586
0.491374 1.591908 -0.040421
0.469734 1.625236 -0.045875
0.487829 1.591327 -0.040835
0.467008 1.624605 -0.048044
0.485020 1.590660 -0.043147
0.465057 1.623920 -0.052040
0.483008 1.589932 -0.047303
0.463831 1.623202 -0.057808
0.481758 1.589169 -0.053246
0.463211 1.622484 -0.065260
0.481156 1.588395 -0.060888
0.463053 1.621807 -0.074235
0.481060 1.587658 -0.070068
0.463212 1.621213 -0.084469
0.481307 1.587001 -0.080516
0.463720 1.620797 -0.095515
0.481967 1.586583 -0.091726
0.464652 1.620614 -0.106805
0.483151 1.586533 -0.103067
0.466255 1.620774 -0.117648
0.485103 1.586994 -0.113813
0.468611 1.621271 -0.127463
0.487886 1.587969 -0.123377
0.471768 1.622100 -0.135799
0.491359 1.589270 -0.131463
0.475453 1.623119 -0.142463
0.495244 1.590676 -0.137934
0.479433 1.624230 -0.147371
0.499292 1.592055 -0.142745
0.483455 1.625329 -0.150523
0.503286 1.593312 -0.145873
0.524823 1.561729 -0.141492
0.507066 1.594377 -0.147318
0.528568 1.562912 -0.142869
0.551766 1.532108 -0.136465
0.531994 1.563773 -0.142580
0.555182 1.533045 -0.135997
0.534974 1.564273 -0.140665
0.558185 1.533558 -0.133908
0.537408 1.564378 -0.137160
0.560668 1.533616 -0.130250
0.539226 1.564080 -0.132083
0.562541 1.533217 -0.125065
0.540366 1.563382 -0.125445
0.563724 1.532377 -0.118410
0.540833 1.562375 -0.117259
0.564160 1.531175 -0.110361
0.540749 1.561332 -0.107514
0.563839 1.529783 -0.101031
0.540073 1.560438 -0.096497
0.562863 1.528549 -0.090527
0.538719 1.559841 -0.084749
0.561282 1.527743 -0.079197
0.536613 1.559612 -0.072954
0.559095 1.527477 -0.067619
0.533678 1.559657 -0.061897
0.556185 1.527591 -0.056606
0.529928 1.559778 -0.052287
0.552519 1.527822 -0.046924
0.525598 1.559839 -0.044558
0.548277 1.527982 -0.039072
0.520995 1.559757 -0.038900
0.543733 1.527945 -0.033291
0.516439 1.559494 -0.035342
0.539226 1.527684 -0.029622
0.512251 1.559068 -0.033824
0.535085 1.527225 -0.028013
0.508673 1.558502 -0.034278
0.531566 1.526601 -0.028398
0.505861 1.557821 -0.036647
0.528828 1.525844 -0.030721
0.503868 1.557047 -0.040894
0.526919 1.524968 -0.034951
0.502650 1.556199 -0.046983
0.525792 1.523996 -0.041062
0.502114 1.555326 -0.054828
0.525329 1.522964 -0.048993
0.502139 1.554502 -0.064258
0.525418 1.521967 -0.058567
0.502603 1.553837 -0.074955
0.525949 1.521158 -0.069440
0.503528 1.553492 -0.086404
0.526914 1.520748 -0.081048
0.505009 1.553609 -0.097944
0.528386 1.520924 -0.092691
0.507135 1.554263 -0.108913
0.530502 1.521805 -0.103629
0.509876 1.555412 -0.118752
0.533307 1.523339 -0.113279
0.513217 1.556950 -0.127036
0.536670 1.525270 -0.121332
0.516978 1.558655 -0.133581
0.540346 1.527263 -0.127717
0.520902 1.560284 -0.138404
0.544198 1.529143 -0.132364
0.567828 1.499618 -0.125460
0.548057 1.530787 -0.135270
0.571658 1.501525 -0.128170
0.593698 1.475539 -0.121303
0.575313 1.503081 -0.129217
0.597397 1.477438 -0.122182
0.578655 1.504212 -0.128640
0.600699 1.478863 -0.121459
0.581547 1.504860 -0.126492
0.603463 1.479737 -0.119202
0.583871 1.504989 -0.122836
0.605564 1.480009 -0.115480
0.585531 1.504595 -0.117735
0.606895 1.479645 -0.110365
0.586452 1.503710 -0.111254
0.607348 1.478637 -0.103937
0.586559 1.502410 -0.103480
0.606836 1.477059 -0.096288
0.585915 1.500955 -0.094435
0.605493 1.475262 -0.087412
0.584648 1.499700 -0.084210
0.603511 1.473711 -0.077404
0.582801 1.498911 -0.073141
0.601124 1.472834 -0.066553
0.580383 1.498689 -0.061805
0.598479 1.472795 -0.055407
0.577365 1.498900 -0.050948
0.595581 1.473410 -0.044673
0.573740 1.499256 -0.041311
0.592315 1.474236 -0.035070
0.569639 1.499503 -0.033420
0.588662 1.474866 -0.027126
0.565278 1.499472 -0.027572
0.584721 1.475050 -0.021166
0.560976 1.499141 -0.023842
0.580752 1.474757 -0.017309
0.557017 1.498535 -0.022213
0.577031 1.474048 -0.015570
0.553639 1.497699 -0.022629
0.573779 1.472991 -0.015929
0.550997 1.496679 -0.025039
0.571142 1.471645 -0.018353
0.549148 1.495510 -0.029405
0.569177 1.470059 -0.022813
0.548044 1.494215 -0.035694
0.567822 1.468249 -0.029279
0.547555 1.492832 -0.043836
0.567028 1.466318 -0.037622
0.547597 1.491496 -0.053608
0.566756 1.464433 -0.047574
0.548151 1.490432 -0.064585
0.567158 1.462922 -0.058633
0.549263 1.489910 -0.076137
0.568411 1.462122 -0.070165
0.551075 1.490193 -0.087492
0.570633 1.462287 -0.081477
0.553569 1.491284 -0.098030
0.573715 1.463458 -0.091951
0.556667 1.493048 -0.107276
0.577401 1.465454 -0.101114
0.560163 1.495183 -0.115004
0.581444 1.467982 -0.108674
0.563944 1.497453 -0.121071
0.585610 1.470674 -0.114562
0.606928 1.448048 -0.105409
0.589720 1.473240 -0.118778
0.611580 1.451051 -0.109336
0.615949 1.453736 -0.111522
0.619038 1.446493 -0.101416
0.614979 1.443808 -0.097971
0.622454 1.448668 -0.103134
0.619451 1.440514 -0.087013
0.616700 1.438883 -0.084605
0.621739 1.441845 -0.088232
0.623291 1.442710 -0.088472
0.623977 1.443051 -0.088253
0.624864 1.450092 -0.103437
0.626058 1.450696 -0.103041
0.619908 1.455975 -0.112034
0.623323 1.457670 -0.110959
0.626064 1.458747 -0.108381
0.628007 1.459146 -0.104397
0.626717 1.450909 -0.102404
0.627575 1.451030 -0.100604
0.624303 1.443158 -0.087920
0.624782 1.443263 -0.086796
0.625135 1.443189 -0.084330
0.624997 1.442774 -0.080613
0.628263 1.450773 -0.096910
0.628236 1.449909 -0.091453
0.629031 1.458829 -0.099110
0.629041 1.457811 -0.092637
0.628010 1.456227 -0.085094
0.626123 1.454443 -0.076538
0.627241 1.448468 -0.084500
0.625345 1.446772 -0.076198
0.624226 1.442023 -0.075849
0.622863 1.441095 -0.070195
0.621117 1.440274 -0.063834
0.619239 1.439805 -0.057087
0.622849 1.445331 -0.066738
0.620088 1.444566 -0.056575
0.623707 1.452968 -0.067082
0.621058 1.452196 -0.057009
0.618278 1.452208 -0.046800
0.615259 1.452728 -0.037068
0.617217 1.444562 -0.046406
0.614198 1.445054 -0.036958
0.617340 1.439731 -0.050413
0.615406 1.439908 -0.044259
0.613401 1.440116 -0.038976
0.611360 1.440188 -0.034818
0.610982 1.445644 -0.028818
0.607655 1.446020 -0.022389
0.611895 1.453360 -0.028359
0.608192 1.453771 -0.021086
0.604275 1.453774 -0.015529
0.600351 1.453319 -0.011857
0.604472 1.446040 -0.017923
0.601852 1.445753 -0.015491
0.609422 1.440058 -0.031951
0.607841 1.439782 -0.030425
0.606873 1.439507 -0.029992
0.606338 1.439283 -0.030064
0.600187 1.445365 -0.014745
0.599202 1.444977 -0.014855
0.596646 1.452435 -0.010166
0.593347 1.451178 -0.010490
0.590564 1.449584 -0.012833
0.588313 1.447673 -0.017173
0.598040 1.444259 -0.015862
0.596581 1.442920 -0.018753
0.605626 1.438851 -0.030680
0.604625 1.438026 -0.032549
0.603596 1.436865 -0.035928
0.602737 1.435510 -0.040630
0.595181 1.441026 -0.023910
0.594050 1.438787 -0.031092
0.586530 1.445456 -0.023465
0.585142 1.443008 -0.031575
0.584207 1.440558 -0.041203
0.584074 1.438543 -0.051837
0.593354 1.436526 -0.039754
0.593411 1.434699 -0.049172
0.602204 1.434161 -0.046269
0.602220 1.433096 -0.052364
0.603051 1.432612 -0.058549
0.604844 1.432883 -0.064710
0.594655 1.433787 -0.058761
0.597343 1.434086 -0.068284
0.585299 1.437501 -0.062837
0.588165 1.437785 -0.073597
0.592326 1.439359 -0.083598
0.597130 1.441881 -0.092413
0.601271 1.435596 -0.077463
0.605834 1.437998 -0.085788
0.607466 1.433877 -0.070720
0.610526 1.435373 -0.076266
0.613675 1.437113 -0.080983
0.610506 1.440866 -0.092732
0.602078 1.444903 -0.099743
0.297472 2.617363 -0.157153
0.300849 2.617753 -0.160231
0.295499 2.615366 -0.163897
0.299383 2.616050 -0.166218
0.294056 2.613431 -0.170705
0.297743 2.614168 -0.172462
0.293334 2.611622 -0.177624
0.295978 2.612105 -0.179059
0.293041 2.610040 -0.183903
0.294968 2.610387 -0.184962
0.292794 2.608524 -0.189817
0.294277 2.608835 -0.190442
0.292914 2.607713 -0.193247
0.293844 2.607890 -0.193709
0.292688 2.606788 -0.196663
0.293318 2.606928 -0.196890
0.293951 2.607033 -0.197268
0.294558 2.607092 -0.197784
0.294692 2.607966 -0.194466
0.295395 2.607926 -0.195498
0.295665 2.609008 -0.191487
0.296833 2.609010 -0.192935
0.296731 2.610518 -0.186667
0.298978 2.610705 -0.188719
0.298837 2.612465 -0.181235
0.300710 2.612270 -0.184424
0.300319 2.614225 -0.175622
0.303957 2.614441 -0.179339
0.303198 2.616391 -0.169826
0.306173 2.616141 -0.174788
0.304586 2.617921 -0.164669
0.308667 2.617872 -0.170281
0.312649 2.617490 -0.176954
0.316332 2.616773 -0.184439
0.308900 2.615559 -0.180696
0.312581 2.615132 -0.186914
0.306417 2.614026 -0.184141
0.308795 2.613435 -0.189461
0.303581 2.612302 -0.187837
0.304904 2.611645 -0.192125
0.300602 2.610545 -0.191373
0.301880 2.610179 -0.194414
0.297671 2.608815 -0.194753
0.299006 2.608766 -0.196586
0.296388 2.607955 -0.196613
0.297259 2.607902 -0.197892
0.295103 2.607101 -0.198421
0.295559 2.607057 -0.199157
0.295900 2.606959 -0.199967
0.296113 2.606810 -0.200818
0.297887 2.607738 -0.199313
0.298239 2.607464 -0.200824
0.299961 2.608544 -0.198633
0.300429 2.608129 -0.200838
0.303480 2.609892 -0.197488
0.304049 2.609208 -0.200892
0.307262 2.611316 -0.196270
0.307864 2.610319 -0.200973
0.311425 2.612850 -0.194949
0.312613 2.611722 -0.200885
0.315460 2.614309 -0.193688
0.317212 2.613056 -0.200801
0.319441 2.615717 -0.192463
0.321746 2.614346 -0.200721
0.323219 2.612747 -0.208853
0.323911 2.611032 -0.216504
0.317953 2.611495 -0.207910
0.319241 2.610272 -0.214234
0.313885 2.610674 -0.206532
0.314755 2.609592 -0.211811
0.309378 2.609702 -0.205186
0.309103 2.608505 -0.209588
0.304850 2.608642 -0.204079
0.305136 2.607946 -0.207155
0.300459 2.607568 -0.203093
0.300879 2.607199 -0.205042
0.298310 2.607095 -0.202364
0.298183 2.606679 -0.203844
0.296191 2.606615 -0.201679
0.296136 2.606386 -0.202512
0.295961 2.606134 -0.203285
0.295679 2.605873 -0.203965
0.298238 2.606380 -0.205086
0.298011 2.606025 -0.206193
0.300808 2.606706 -0.206889
0.300316 2.606131 -0.208544
0.304551 2.607014 -0.210114
0.304143 2.606275 -0.212512
0.309485 2.607687 -0.213235
0.308455 2.606506 -0.216645
0.313999 2.608079 -0.216894
0.313755 2.606976 -0.220928
0.319727 2.608967 -0.219945
0.318708 2.607372 -0.225050
0.323845 2.609284 -0.223372
0.323337 2.607684 -0.229113
0.322318 2.606258 -0.233555
0.319939 2.604724 -0.236827
0.316868 2.605779 -0.229164
0.314538 2.604344 -0.232065
0.311774 2.605475 -0.224481
0.309766 2.604246 -0.226912
0.307154 2.605421 -0.219342
0.305386 2.604378 -0.221307
0.303214 2.605483 -0.214493
0.301746 2.604647 -0.215998
0.299495 2.605526 -0.209921
0.298432 2.604934 -0.210948
0.297540 2.605645 -0.207114
0.296869 2.605259 -0.207805
0.295310 2.605616 -0.204521
0.294956 2.605407 -0.204906
0.294505 2.605205 -0.205145
0.294374 2.605176 -0.205097
0.296041 2.604891 -0.208235
0.295841 2.604853 -0.208141
0.297201 2.604389 -0.211579
0.296940 2.604345 -0.211434
0.299908 2.603837 -0.216938
0.299467 2.603755 -0.216732
0.302947 2.603308 -0.222557
0.302263 2.603165 -0.222303
0.306681 2.602902 -0.228491
0.305718 2.602688 -0.228189
0.310853 2.602749 -0.233949
0.309597 2.602457 -0.233612
0.316724 2.603293 -0.238679
0.314119 2.602521 -0.238639
0.310897 2.601940 -0.237120
0.306762 2.601413 -0.234304
0.307170 2.602084 -0.232209
0.304619 2.602013 -0.229487
0.303829 2.602422 -0.226994
0.302208 2.602551 -0.224590
0.301024 2.603046 -0.221298
0.299550 2.603061 -0.219493
0.298738 2.603736 -0.215935
0.297644 2.603741 -0.214610
0.296566 2.604373 -0.210873
0.296061 2.604460 -0.209930
0.295523 2.604848 -0.207773
0.295082 2.604870 -0.207151
0.294170 2.605163 -0.204896
0.294023 2.605216 -0.204509
0.293852 2.605298 -0.203979
0.293657 2.605403 -0.203329
0.294510 2.604908 -0.206308
0.293802 2.604948 -0.205282
0.295391 2.604579 -0.208656
0.294510 2.604698 -0.207123
0.296280 2.603788 -0.212791
0.295404 2.604156 -0.210314
0.298143 2.603307 -0.216874
0.295781 2.603349 -0.213883
0.299313 2.602445 -0.221571
0.297469 2.602976 -0.217340
0.301786 2.602152 -0.225619
0.298163 2.602253 -0.220937
0.302755 2.601304 -0.230006
0.299106 2.601654 -0.224348
0.295651 2.602335 -0.217619
0.292476 2.603294 -0.210080
0.294563 2.602572 -0.215396
0.292364 2.603590 -0.208795
0.294698 2.603314 -0.212706
0.292263 2.603900 -0.207472
0.294564 2.603979 -0.209981
0.292170 2.604227 -0.206085
0.294042 2.604429 -0.207600
0.292586 2.604729 -0.204644
0.293388 2.604785 -0.205412
0.292920 2.605177 -0.203306
0.293441 2.605173 -0.203965
0.293069 2.605423 -0.202527
0.293436 2.605523 -0.202587
0.293189 2.605649 -0.201784
0.292919 2.605776 -0.200953
0.292635 2.605897 -0.200125
0.292617 2.605656 -0.201052
0.292094 2.605859 -0.199601
0.292307 2.605532 -0.201155
0.291506 2.605809 -0.199065
0.291791 2.605325 -0.201326
0.290436 2.605689 -0.198191
0.291250 2.605108 -0.201506
0.289239 2.605535 -0.197282
0.290672 2.604874 -0.201698
0.288483 2.605587 -0.196110
0.290128 2.604655 -0.201879
0.287772 2.605641 -0.194983
0.289605 2.604442 -0.202053
0.287092 2.605697 -0.193879
0.285138 2.607033 -0.185868
0.283938 2.608440 -0.178310
0.285589 2.606581 -0.188327
0.285184 2.608059 -0.181663
0.287297 2.606620 -0.190426
0.286754 2.607769 -0.185008
0.288819 2.606546 -0.192710
0.287461 2.607068 -0.188824
0.289827 2.606312 -0.194942
0.289290 2.606889 -0.191940
0.290617 2.606024 -0.197094
0.290486 2.606496 -0.195047
0.291527 2.606027 -0.198226
0.291025 2.606189 -0.196951
0.292350 2.606008 -0.199333
0.292082 2.606107 -0.198606
0.291848 2.606194 -0.197968
0.291666 2.606269 -0.197440
0.290976 2.606487 -0.195703
0.290927 2.606727 -0.194682
0.290272 2.606867 -0.193286
0.290045 2.607150 -0.191858
0.288510 2.607262 -0.189412
0.288514 2.607825 -0.187122
0.287568 2.608038 -0.184984
0.287144 2.608614 -0.182011
0.285730 2.608524 -0.180457
0.286280 2.609684 -0.176263
0.285341 2.609515 -0.175671
0.285374 2.610631 -0.170813
0.283576 2.609884 -0.171492
0.284341 2.611439 -0.165580
0.286092 2.613018 -0.160826
0.285867 2.611620 -0.167064
0.286182 2.610327 -0.173328
0.287259 2.609210 -0.179660
0.288601 2.608272 -0.185393
0.289883 2.607361 -0.190793
0.290907 2.606912 -0.193919
0.291551 2.606333 -0.197042
3 1 4 3
3 1 3 0
3 1 0 2
3 2 1382 1383
3 1383 1384 1385
3 1385 1414 1415
3 1415 1416 1417
3 1417 1446 1447
3 1447 1448 1449
3 1449 1478 1479
3 1479 1480 1481
3 1481 1510 1511
3 1511 1512 1513
3 1511 1513 1542
3 1479 1481 1511
3 1447 1449 1479
3 1415 1417 1447
3 1383 1385 1415
3 1 2 1383
3 1577 1599 1
3 1575 1576 1577
3 1574 1575 1577
3 1577 1 1383
3 1383 1415 1447
3 1447 1479 1511
3 1447 1511 1542
3 1577 1383 1447
3 1574 1577 1447
3 1447 1542 1543
3 1447 1543 1544
3 1545 1574 1447
3 1447 1544 1545
3 0 3 5
3 0 5 2
3 4 7 6
3 4 6 3
3 3 6 8
3 3 8 5
3 7 10 9
3 7 9 6
3 6 9 11
3 6 11 8
3 10 13 12
3 10 12 9
3 9 12 14
3 9 14 11
3 13 16 15
3 13 15 12
3 12 15 17
3 12 17 14
3 16 19 18
3 16 18 15
3 15 18 20
3 15 20 17
3 19 22 21
3 19 21 18
3 18 21 23
3 18 23 20
3 22 25 24
3 22 24 21
3 21 24 26
3 21 26 23
3 24 25 30
3 24 30 27
3 26 24 27
3 26 27 29
3 27 30 31
3 27 31 28
3 29 27 28
3 29 28 120
3 25 33 32
3 25 32 30
3 30 32 34
3 30 34 31
3 33 36 35
3 33 35 32
3 32 35 37
3 32 37 34
3 36 39 38
3 36 38 35
3 35 38 40
3 35 40 37
3 39 42 41
3 39 41 38
3 38 41 43
3 38 43 40
3 42 45 44
3 42 44 41
3 41 44 46
3 41 46 43
3 45 48 47
3 45 47 44
3 44 47 49
3 44 49 46
3 48 51 50
3 48 50 47
3 47 50 52
3 47 52 49
3 51 54 53
3 51 53 50
3 50 53 55
3 50 55 52
3 54 57 56
3 54 56 53
3 53 56 58
3 53 58 55
3 57 60 59
3 57 59 56
3 56 59 61
3 56 61 58
3 60 63 62
3 60 62 59
3 59 62 64
3 59 64 61
3 63 66 65
3 63 65 62
3 62 65 67
3 62 67 64
3 66 69 68
3 66 68 65
3 65 68 70
3 65 70 67
3 69 72 71
3 69 71 68
3 68 71 73
3 68 73 70
3 72 75 74
3 72 74 71
3 71 74 76
3 71 76 73
3 75 78 77
3 75 77 74
3 74 77 79
3 74 79 76
3 78 81 80
3 78 80 77
3 77 80 82
3 77 82 79
3 81 84 83
3 81 83 80
3 80 83 85
3 80 85 82
3 84 87 86
3 84 86 83
3 83 86 88
3 83 88 85
3 87 90 89
3 87 89 86
3 86 89 91
3 86 91 88
3 90 93 92
3 90 92 89
3 89 92 94
3 89 94 91
3 93 96 95
3 93 95 92
3 92 95 97
3 92 97 94
3 96 99 98
3 96 98 95
3 95 98 100
3 95 100 97
3 99 102 101
3 99 101 98
3 98 101 103
3 98 103 100
3 102 105 104
3 102 104 101
3 101 104 106
3 101 106 103
3 105 108 107
3 105 107 104
3 104 107 109
3 104 109 106
3 108 111 110
3 108 110 107
3 107 110 112
3 107 112 109
3 111 114 113
3 111 113 110
3 110 113 115
3 110 115 112
3 114 117 116
3 114 116 113
3 113 116 118
3 113 118 115
3 117 26 29
3 117 29 116
3 116 29 120
3 116 120 118
3 115 118 119
3 115 119 181
3 118 120 121
3 118 121 119
3 120 28 123
3 120 123 121
3 119 121 122
3 119 122 184
3 121 123 124
3 121 124 122
3 28 31 125
3 28 125 123
3 123 125 126
3 123 126 124
3 125 127 128
3 125 128 126
3 31 34 127
3 31 127 125
3 127 129 130
3 127 130 128
3 34 37 129
3 34 129 127
3 129 131 132
3 129 132 130
3 37 40 131
3 37 131 129
3 131 133 134
3 131 134 132
3 40 43 133
3 40 133 131
3 133 135 136
3 133 136 134
3 43 46 135
3 43 135 133
3 135 137 138
3 135 138 136
3 46 49 137
3 46 137 135
3 137 139 140
3 137 140 138
3 49 52 139
3 49 139 137
3 139 141 142
3 139 142 140
3 52 55 141
3 52 141 139
3 141 143 144
3 141 144 142
3 55 58 143
3 55 143 141
3 143 145 146
3 143 146 144
3 58 61 145
3 58 145 143
3 145 147 148
3 145 148 146
3 61 64 147
3 61 147 145
3 147 149 150
3 147 150 148
3 64 67 149
3 64 149 147
3 149 151 152
3 149 152 150
3 67 70 151
3 67 151 149
3 151 153 154
3 151 154 152
3 70 73 153
3 70 153 151
3 153 155 156
3 153 156 154
3 73 76 155
3 73 155 153
3 155 157 158
3 155 158 156
3 76 79 157
3 76 157 155
3 157 159 160
3 157 160 158
3 79 82 159
3 79 159 157
3 159 161 162
3 159 162 160
3 82 85 161
3 82 161 159
3 161 163 164
3 161 164 162
3 85 88 163
3 85 163 161
3 163 165 166
3 163 166 164
3 88 91 165
3 88 165 163
3 165 167 168
3 165 168 166
3 91 94 167
3 91 167 165
3 167 169 170
3 167 170 168
3 94 97 169
3 94 169 167
3 169 171 172
3 169 172 170
3 97 100 171
3 97 171 169
3 171 173 174
3 171 174 172
3 100 103 173
3 100 173 171
3 173 175 176
3 173 176 174
3 103 106 175
3 103 175 173
3 175 177 178
3 175 178 176
3 106 109 177
3 106 177 175
3 177 179 180
3 177 180 178
3 109 112 179
3 109 179 177
3 179 181 182
3 179 182 180
3 112 115 181
3 112 181 179
3 181 119 184
3 181 184 182
3 180 182 183
3 180 183 245
3 182 184 185
3 182 185 183
3 184 122 187
3 184 187 185
3 183 185 186
3 183 186 248
3 185 187 188
3 185 188 186
3 187 189 190
3 187 190 188
3 122 124 189
3 122 189 187
3 124 126 191
3 124 191 189
3 189 191 192
3 189 192 190
3 191 193 194
3 191 194 192
3 126 128 193
3 126 193 191
3 193 195 196
3 193 196 194
3 128 130 195
3 128 195 193
3 195 197 198
3 195 198 196
3 130 132 197
3 130 197 195
3 197 199 200
3 197 200 198
3 132 134 199
3 132 199 197
3 199 201 202
3 199 202 200
3 134 136 201
3 134 201 199
3 201 203 204
3 201 204 202
3 136 138 203
3 136 203 201
3 203 205 206
3 203 206 204
3 138 140 205
3 138 205 203
3 205 207 208
3 205 208 206
3 140 142 207
3 140 207 205
3 207 209 210
3 207 210 208
3 142 144 209
3 142 209 207
3 209 211 212
3 209 212 210
3 144 146 211
3 144 211 209
3 211 213 214
3 211 214 212
3 146 148 213
3 146 213 211
3 213 215 216
3 213 216 214
3 148 150 215
3 148 215 213
3 215 217 218
3 215 218 216
3 150 152 217
3 150 217 215
3 217 219 220
3 217 220 218
3 152 154 219
3 152 219 217
3 219 221 222
3 219 222 220
3 154 156 221
3 154 221 219
3 221 223 224
3 221 224 222
3 156 158 223
3 156 223 221
3 223 225 226
3 223 226 224
3 158 160 225
3 158 225 223
3 225 227 228
3 225 228 226
3 160 162 227
3 160 227 225
3 227 229 230
3 227 230 228
3 162 164 229
3 162 229 227
3 229 231 232
3 229 232 230
3 164 166 231
3 164 231 229
3 231 233 234
3 231 234 232
3 166 168 233
3 166 233 231
3 233 235 236
3 233 236 234
3 168 170 235
3 168 235 233
3 235 237 238
3 235 238 236
3 170 172 237
3 170 237 235
3 237 239 240
3 237 240 238
3 172 174 239
3 172 239 237
3 239 241 242
3 239 242 240
3 174 176 241
3 174 241 239
3 241 243 244
3 241 244 242
3 176 178 243
3 176 243 241
3 243 245 246
3 243 246 244
3 178 180 245
3 178 245 243
3 245 183 248
3 245 248 246
3 244 246 247
3 244 247 309
3 246 248 249
3 246 249 247
3 248 186 251
3 248 251 249
3 247 249 250
3 247 250 312
3 249 251 252
3 249 252 250
3 251 253 254
3 251 254 252
3 186 188 253
3 186 253 251
3 253 255 256
3 253 256 254
3 188 190 255
3 188 255 253
3 190 192 257
3 190 257 255
3 255 257 258
3 255 258 256
3 257 259 260
3 257 260 258
3 192 194 259
3 192 259 257
3 259 261 262
3 259 262 260
3 194 196 261
3 194 261 259
3 261 263 264
3 261 264 262
3 196 198 263
3 196 263 261
3 263 265 266
3 263 266 264
3 198 200 265
3 198 265 263
3 265 267 268
3 265 268 266
3 200 202 267
3 200 267 265
3 267 269 270
3 267 270 268
3 202 204 269
3 202 269 267
3 269 271 272
3 269 272 270
3 204 206 271
3 204 271 269
3 271 273 274
3 271 274 272
3 206 208 273
3 206 273 271
3 273 275 276
3 273 276 274
3 208 210 275
3 208 275 273
3 275 277 278
3 275 278 276
3 210 212 277
3 210 277 275
3 277 279 280
3 277 280 278
3 212 214 279
3 212 279 277
3 279 281 282
3 279 282 280
3 214 216 281
3 214 281 279
3 281 283 284
3 281 284 282
3 216 218 283
3 216 283 281
3 283 285 286
3 283 286 284
3 218 220 285
3 218 285 283
3 285 287 288
3 285 288 286
3 220 222 287
3 220 287 285
3 287 289 290
3 287 290 288
3 222 224 289
3 222 289 287
3 289 291 292
3 289 292 290
3 224 226 291
3 224 291 289
3 291 293 294
3 291 294 292
3 226 228 293
3 226 293 291
3 293 295 296
3 293 296 294
3 228 230 295
3 228 295 293
3 295 297 298
3 295 298 296
3 230 232 297
3 230 297 295
3 297 299 300
3 297 300 298
3 232 234 299
3 232 299 297
3 299 301 302
3 299 302 300
3 234 236 301
3 234 301 299
3 301 303 304
3 301 304 302
3 236 238 303
3 236 303 301
3 303 305 306
3 303 306 304
3 238 240 305
3 238 305 303
3 305 307 308
3 305 308 306
3 240 242 307
3 240 307 305
3 307 309 310
3 307 310 308
3 242 244 309
3 242 309 307
3 309 247 312
3 309 312 310
3 308 310 311
3 308 311 373
3 310 312 313
3 310 313 311
3 312 250 315
3 312 315 313
3 311 313 314
3 311 314 376
3 313 315 316
3 313 316 314
3 315 317 318
3 315 318 316
3 250 252 317
3 250 317 315
3 317 319 320
3 317 320 318
3 252 254 319
3 252 319 317
3 319 321 322
3 319 322 320
3 254 256 321
3 254 321 319
3 256 258 323
3 256 323 321
3 321 323 324
3 321 324 322
3 323 325 326
3 323 326 324
3 258 260 325
3 258 325 323
3 325 327 328
3 325 328 326
3 260 262 327
3 260 327 325
3 327 329 330
3 327 330 328
3 262 264 329
3 262 329 327
3 329 331 332
3 329 332 330
3 264 266 331
3 264 331 329
3 331 333 334
3 331 334 332
3 266 268 333
3 266 333 331
3 333 335 336
3 333 336 334
3 268 270 335
3 268 335 333
3 335 337 338
3 335 338 336
3 270 272 337
3 270 337 335
3 337 339 340
3 337 340 338
3 272 274 339
3 272 339 337
3 339 341 342
3 339 342 340
3 274 276 341
3 274 341 339
3 341 343 344
3 341 344 342
3 276 278 343
3 276 343 341
3 343 345 346
3 343 346 344
3 278 280 345
3 278 345 343
3 345 347 348
3 345 348 346
3 280 282 347
3 280 347 345
3 347 349 350
3 347 350 348
3 282 284 349
3 282 349 347
3 349 351 352
3 349 352 350
3 284 286 351
3 284 351 349
3 351 353 354
3 351 354 352
3 286 288 353
3 286 353 351
3 353 355 356
3 353 356 354
3 288 290 355
3 288 355 353
3 355 357 358
3 355 358 356
3 290 292 357
3 290 357 355
3 357 359 360
3 357 360 358
3 292 294 359
3 292 359 357
3 359 361 362
3 359 362 360
3 294 296 361
3 294 361 359
3 361 363 364
3 361 364 362
3 296 298 363
3 296 363 361
3 363 365 366
3 363 366 364
3 298 300 365
3 298 365 363
3 365 367 368
3 365 368 366
3 300 302 367
3 300 367 365
3 367 369 370
3 367 370 368
3 302 304 369
3 302 369 367
3 369 371 372
3 369 372 370
3 304 306 371
3 304 371 369
3 371 373 374
3 371 374 372
3 306 308 373
3 306 373 371
3 373 311 376
3 373 376 374
3 372 374 375
3 372 375 437
3 374 376 377
3 374 377 375
3 376 314 379
3 376 379 377
3 375 377 378
3 375 378 440
3 377 379 380
3 377 380 378
3 379 381 382
3 379 382 380
3 314 316 381
3 314 381 379
3 381 383 384
3 381 384 382
3 316 318 383
3 316 383 381
3 383 385 386
3 383 386 384
3 318 320 385
3 318 385 383
3 385 387 388
3 385 388 386
3 320 322 387
3 320 387 385
3 322 324 389
3 322 389 387
3 387 389 390
3 387 390 388
3 389 391 392
3 389 392 390
3 324 326 391
3 324 391 389
3 391 393 394
3 391 394 392
3 326 328 393
3 326 393 391
3 393 395 396
3 393 396 394
3 328 330 395
3 328 395 393
3 395 397 398
3 395 398 396
3 330 332 397
3 330 397 395
3 397 399 400
3 397 400 398
3 332 334 399
3 332 399 397
3 399 401 402
3 399 402 400
3 334 336 401
3 334 401 399
3 401 403 404
3 401 404 402
3 336 338 403
3 336 403 401
3 403 405 406
3 403 406 404
3 338 340 405
3 338 405 403
3 405 407 408
3 405 408 406
3 340 342 407
3 340 407 405
3 407 409 410
3 407 410 408
3 342 344 409
3 342 409 407
3 409 411 412
3 409 412 410
3 344 346 411
3 344 411 409
3 411 413 414
3 411 414 412
3 346 348 413
3 346 413 411
3 413 415 416
3 413 416 414
3 348 350 415
3 348 415 413
3 415 417 418
3 415 418 416
3 350 352 417
3 350 417 415
3 417 419 420
3 417 420 418
3 352 354 419
3 352 419 417
3 419 421 422
3 419 422 420
3 354 356 421
3 354 421 419
3 421 423 424
3 421 424 422
3 356 358 423
3 356 423 421
3 423 425 426
3 423 426 424
3 358 360 425
3 358 425 423
3 425 427 428
3 425 428 426
3 360 362 427
3 360 427 425
3 427 429 430
3 427 430 428
3 362 364 429
3 362 429 427
3 429 431 432
3 429 432 430
3 364 366 431
3 364 431 429
3 431 433 434
3 431 434 432
3 366 368 433
3 366 433 431
3 433 435 436
3 433 436 434
3 368 370 435
3 368 435 433
3 435 437 438
3 435 438 436
3 370 372 437
3 370 437 435
3 437 375 440
3 437 440 438
3 436 438 439
3 436 439 501
3 438 440 441
3 438 441 439
3 440 378 443
3 440 443 441
3 439 441 442
3 439 442 504
3 441 443 444
3 441 444 442
3 443 445 446
3 443 446 444
3 378 380 445
3 378 445 443
3 445 447 448
3 445 448 446
3 380 382 447
3 380 447 445
3 447 449 450
3 447 450 448
3 382 384 449
3 382 449 447
3 449 451 452
3 449 452 450
3 384 386 451
3 384 451 449
3 451 453 454
3 451 454 452
3 386 388 453
3 386 453 451
3 388 390 455
3 388 455 453
3 453 455 456
3 453 456 454
3 455 457 458
3 455 458 456
3 390 392 457
3 390 457 455
3 457 459 460
3 457 460 458
3 392 394 459
3 392 459 457
3 459 461 462
3 459 462 460
3 394 396 461
3 394 461 459
3 461 463 464
3 461 464 462
3 396 398 463
3 396 463 461
3 463 465 466
3 463 466 464
3 398 400 465
3 398 465 463
3 465 467 468
3 465 468 466
3 400 402 467
3 400 467 465
3 467 469 470
3 467 470 468
3 402 404 469
3 402 469 467
3 469 471 472
3 469 472 470
3 404 406 471
3 404 471 469
3 471 473 474
3 471 474 472
3 406 408 473
3 406 473 471
3 473 475 476
3 473 476 474
3 408 410 475
3 408 475 473
3 475 477 478
3 475 478 476
3 410 412 477
3 410 477 475
3 477 479 480
3 477 480 478
3 412 414 479
3 412 479 477
3 479 481 482
3 479 482 480
3 414 416 481
3 414 481 479
3 481 483 484
3 481 484 482
3 416 418 483
3 416 483 481
3 483 485 486
3 483 486 484
3 418 420 485
3 418 485 483
3 485 487 488
3 485 488 486
3 420 422 487
3 420 487 485
3 487 489 490
3 487 490 488
3 422 424 489
3 422 489 487
3 489 491 492
3 489 492 490
3 424 426 491
3 424 491 489
3 491 493 494
3 491 494 492
3 426 428 493
3 426 493 491
3 493 495 496
3 493 496 494
3 428 430 495
3 428 495 493
3 495 497 498
3 495 498 496
3 430 432 497
3 430 497 495
3 497 499 500
3 497 500 498
3 432 434 499
3 432 499 497
3 499 501 502
3 499 502 500
3 434 436 501
3 434 501 499
3 501 439 504
3 501 504 502
3 500 502 503
3 500 503 565
3 502 504 505
3 502 505 503
3 504 442 507
3 504 507 505
3 503 505 506
3 503 506 568
3 505 507 508
3 505 508 506
3 507 509 510
3 507 510 508
3 442 444 509
3 442 509 507
3 509 511 512
3 509 512 510
3 444 446 511
3 444 511 509
3 511 513 514
3 511 514 512
3 446 448 513
3 446 513 511
3 513 515 516
3 513 516 514
3 448 450 515
3 448 515 513
3 515 517 518
3 515 518 516
3 450 452 517
3 450 517 515
3 517 519 520
3 517 520 518
3 452 454 519
3 452 519 517
3 454 456 521
3 454 521 519
3 519 521 522
3 519 522 520
3 521 523 524
3 521 524 522
3 456 458 523
3 456 523 521
3 523 525 526
3 523 526 524
3 458 460 525
3 458 525 523
3 525 527 528
3 525 528 526
3 460 462 527
3 460 527 525
3 527 529 530
3 527 530 528
3 462 464 529
3 462 529 527
3 529 531 532
3 529 532 530
3 464 466 531
3 464 531 529
3 531 533 534
3 531 534 532
3 466 468 533
3 466 533 531
3 533 535 536
3 533 536 534
3 468 470 535
3 468 535 533
3 535 537 538
3 535 538 536
3 470 472 537
3 470 537 535
3 537 539 540
3 537 540 538
3 472 474 539
3 472 539 537
3 539 541 542
3 539 542 540
3 474 476 541
3 474 541 539
3 541 543 544
3 541 544 542
3 476 478 543
3 476 543 541
3 543 545 546
3 543 546 544
3 478 480 545
3 478 545 543
3 545 547 548
3 545 548 546
3 480 482 547
3 480 547 545
3 547 549 550
3 547 550 548
3 482 484 549
3 482 549 547
3 549 551 552
3 549 552 550
3 484 486 551
3 484 551 549
3 551 553 554
3 551 554 552
3 486 488 553
3 486 553 551
3 553 555 556
3 553 556 554
3 488 490 555
3 488 555 553
3 555 557 558
3 555 558 556
3 490 492 557
3 490 557 555
3 557 559 560
3 557 560 558
3 492 494 559
3 492 559 557
3 559 561 562
3 559 562 560
3 494 496 561
3 494 561 559
3 561 563 564
3 561 564 562
3 496 498 563
3 496 563 561
3 563 565 566
3 563 566 564
3 498 500 565
3 498 565 563
3 565 503 568
3 565 568 566
3 564 566 567
3 564 567 629
3 566 568 569
3 566 569 567
3 568 506 571
3 568 571 569
3 567 569 570
3 567 570 632
3 569 571 572
3 569 572 570
3 571 573 574
3 571 574 572
3 506 508 573
3 506 573 571
3 573 575 576
3 573 576 574
3 508 510 575
3 508 575 573
3 575 577 578
3 575 578 576
3 510 512 577
3 510 577 575
3 577 579 580
3 577 580 578
3 512 514 579
3 512 579 577
3 579 581 582
3 579 582 580
3 514 516 581
3 514 581 579
3 581 583 584
3 581 584 582
3 516 518 583
3 516 583 581
3 583 585 586
3 583 586 584
3 518 520 585
3 518 585 583
3 520 522 587
3 520 587 585
3 585 587 588
3 585 588 586
3 587 589 590
3 587 590 588
3 522 524 589
3 522 589 587
3 589 591 592
3 589 592 590
3 524 526 591
3 524 591 589
3 591 593 594
3 591 594 592
3 526 528 593
3 526 593 591
3 593 595 596
3 593 596 594
3 528 530 595
3 528 595 593
3 595 597 598
3 595 598 596
3 530 532 597
3 530 597 595
3 597 599 600
3 597 600 598
3 532 534 599
3 532 599 597
3 599 601 602
3 599 602 600
3 534 536 601
3 534 601 599
3 601 603 604
3 601 604 602
3 536 538 603
3 536 603 601
3 603 605 606
3 603 606 604
3 538 540 605
3 538 605 603
3 605 607 608
3 605 608 606
3 540 542 607
3 540 607 605
3 607 609 610
3 607 610 608
3 542 544 609
3 542 609 607
3 609 611 612
3 609 612 610
3 544 546 611
3 544 611 609
3 611 613 614
3 611 614 612
3 546 548 613
3 546 613 611
3 613 615 616
3 613 616 614
3 548 550 615
3 548 615 613
3 615 617 618
3 615 618 616
3 550 552 617
3 550 617 615
3 617 619 620
3 617 620 618
3 552 554 619
3 552 619 617
3 619 621 622
3 619 622 620
3 554 556 621
3 554 621 619
3 621 623 624
3 621 624 622
3 556 558 623
3 556 623 621
3 623 625 626
3 623 626 624
3 558 560 625
3 558 625 623
3 625 627 628
3 625 628 626
3 560 562 627
3 560 627 625
3 627 629 630
3 627 630 628
3 562 564 629
3 562 629 627
3 629 567 632
3 629 632 630
3 628 630 631
3 628 631 693
3 630 632 633
3 630 633 631
3 632 570 635
3 632 635 633
3 631 633 634
3 631 634 696
3 633 635 636
3 633 636 634
3 635 637 638
3 635 638 636
3 570 572 637
3 570 637 635
3 637 639 640
3 637 640 638
3 572 574 639
3 572 639 637
3 639 641 642
3 639 642 640
3 574 576 641
3 574 641 639
3 641 643 644
3 641 644 642
3 576 578 643
3 576 643 641
3 643 645 646
3 643 646 644
3 578 580 645
3 578 645 643
3 645 647 648
3 645 648 646
3 580 582 647
3 580 647 645
3 647 649 650
3 647 650 648
3 582 584 649
3 582 649 647
3 649 651 652
3 649 652 650
3 584 586 651
3 584 651 649
3 586 588 653
3 586 653 651
3 651 653 654
3 651 654 652
3 653 655 656
3 653 656 654
3 588 590 655
3 588 655 653
3 655 657 658
3 655 658 656
3 590 592 657
3 590 657 655
3 657 659 660
3 657 660 658
3 592 594 659
3 592 659 657
3 659 661 662
3 659 662 660
3 594 596 661
3 594 661 659
3 661 663 664
3 661 664 662
3 596 598 663
3 596 663 661
3 663 665 666
3 663 666 664
3 598 600 665
3 598 665 663
3 665 667 668
3 665 668 666
3 600 602 667
3 600 667 665
3 667 669 670
3 667 670 668
3 602 604 669
3 602 669 667
3 669 671 672
3 669 672 670
3 604 606 671
3 604 671 669
3 671 673 674
3 671 674 672
3 606 608 673
3 606 673 671
3 673 675 676
3 673 676 674
3 608 610 675
3 608 675 673
3 675 677 678
3 675 678 676
3 610 612 677
3 610 677 675
3 677 679 680
3 677 680 678
3 612 614 679
3 612 679 677
3 679 681 682
3 679 682 680
3 614 616 681
3 614 681 679
3 681 683 684
3 681 684 682
3 616 618 683
3 616 683 681
3 683 685 686
3 683 686 684
3 618 620 685
3 618 685 683
3 685 687 688
3 685 688 686
3 620 622 687
3 620 687 685
3 687 689 690
3 687 690 688
3 622 624 689
3 622 689 687
3 689 691 692
3 689 692 690
3 624 626 691
3 624 691 689
3 691 693 694
3 691 694 692
3 626 628 693
3 626 693 691
3 693 631 696
3 693 696 694
3 692 694 695
3 692 695 757
3 694 696 697
3 694 697 695
3 696 634 699
3 696 699 697
3 695 697 698
3 695 698 760
3 697 699 700
3 697 700 698
3 699 701 702
3 699 702 700
3 634 636 701
3 634 701 699
3 701 703 704
3 701 704 702
3 636 638 703
3 636 703 701
3 703 705 706
3 703 706 704
3 638 640 705
3 638 705 703
3 705 707 708
3 705 708 706
3 640 642 707
3 640 707 705
3 707 709 710
3 707 710 708
3 642 644 709
3 642 709 707
3 709 711 712
3 709 712 710
3 644 646 711
3 644 711 709
3 711 713 714
3 711 714 712
3 646 648 713
3 646 713 711
3 713 715 716
3 713 716 714
3 648 650 715
3 648 715 713
3 715 717 718
3 715 718 716
3 650 652 717
3 650 717 715
3 652 654 719
3 652 719 717
3 717 719 720
3 717 720 718
3 719 721 722
3 719 722 720
3 654 656 721
3 654 721 719
3 721 723 724
3 721 724 722
3 656 658 723
3 656 723 721
3 723 725 726
3 723 726 724
3 658 660 725
3 658 725 723
3 725 727 728
3 725 728 726
3 660 662 727
3 660 727 725
3 727 729 730
3 727 730 728
3 662 664 729
3 662 729 727
3 729 731 732
3 729 732 730
3 664 666 731
3 664 731 729
3 731 733 734
3 731 734 732
3 666 668 733
3 666 733 731
3 733 735 736
3 733 736 734
3 668 670 735
3 668 735 733
3 735 737 738
3 735 738 736
3 670 672 737
3 670 737 735
3 737 739 740
3 737 740 738
3 672 674 739
3 672 739 737
3 739 741 742
3 739 742 740
3 674 676 741
3 674 741 739
3 741 743 744
3 741 744 742
3 676 678 743
3 676 743 741
3 743 745 746
3 743 746 744
3 678 680 745
3 678 745 743
3 745 747 748
3 745 748 746
3 680 682 747
3 680 747 745
3 747 749 750
3 747 750 748
3 682 684 749
3 682 749 747
3 749 751 752
3 749 752 750
3 684 686 751
3 684 751 749
3 751 753 754
3 751 754 752
3 686 688 753
3 686 753 751
3 753 755 756
3 753 756 754
3 688 690 755
3 688 755 753
3 755 757 758
3 755 758 756
3 690 692 757
3 690 757 755
3 757 695 760
3 757 760 758
3 756 758 759
3 756 759 821
3 758 760 761
3 758 761 759
3 760 698 763
3 760 763 761
3 759 761 762
3 759 762 824
3 761 763 764
3 761 764 762
3 763 765 766
3 763 766 764
3 698 700 765
3 698 765 763
3 765 767 768
3 765 768 766
3 700 702 767
3 700 767 765
3 767 769 770
3 767 770 768
3 702 704 769
3 702 769 767
3 769 771 772
3 769 772 770
3 704 706 771
3 704 771 769
3 771 773 774
3 771 774 772
3 706 708 773
3 706 773 771
3 773 775 776
3 773 776 774
3 708 710 775
3 708 775 773
3 775 777 778
3 775 778 776
3 710 712 777
3 710 777 775
3 777 779 780
3 777 780 778
3 712 714 779
3 712 779 777
3 779 781 782
3 779 782 780
3 714 716 781
3 714 781 779
3 781 783 784
3 781 784 782
3 716 718 783
3 716 783 781
3 718 720 785
3 718 785 783
3 783 785 786
3 783 786 784
3 785 787 788
3 785 788 786
3 720 722 787
3 720 787 785
3 787 789 790
3 787 790 788
3 722 724 789
3 722 789 787
3 789 791 792
3 789 792 790
3 724 726 791
3 724 791 789
3 791 793 794
3 791 794 792
3 726 728 793
3 726 793 791
3 793 795 796
3 793 796 794
3 728 730 795
3 728 795 793
3 795 797 798
3 795 798 796
3 730 732 797
3 730 797 795
3 797 799 800
3 797 800 798
3 732 734 799
3 732 799 797
3 799 801 802
3 799 802 800
3 734 736 801
3 734 801 799
3 801 803 804
3 801 804 802
3 736 738 803
3 736 803 801
3 803 805 806
3 803 806 804
3 738 740 805
3 738 805 803
3 805 807 808
3 805 808 806
3 740 742 807
3 740 807 805
3 807 809 810
3 807 810 808
3 742 744 809
3 742 809 807
3 809 811 812
3 809 812 810
3 744 746 811
3 744 811 809
3 811 813 814
3 811 814 812
3 746 748 813
3 746 813 811
3 813 815 816
3 813 816 814
3 748 750 815
3 748 815 813
3 815 817 818
3 815 818 816
3 750 752 817
3 750 817 815
3 817 819 820
3 817 820 818
3 752 754 819
3 752 819 817
3 819 821 822
3 819 822 820
3 754 756 821
3 754 821 819
3 821 759 824
3 821 824 822
3 820 822 823
3 820 823 885
3 822 824 825
3 822 825 823
3 824 762 827
3 824 827 825
3 823 825 826
3 823 826 888
3 825 827 828
3 825 828 826
3 827 829 830
3 827 830 828
3 762 764 829
3 762 829 827
3 829 831 832
3 829 832 830
3 764 766 831
3 764 831 829
3 831 833 834
3 831 834 832
3 766 768 833
3 766 833 831
3 833 835 836
3 833 836 834
3 768 770 835
3 768 835 833
3 835 837 838
3 835 838 836
3 770 772 837
3 770 837 835
3 837 839 840
3 837 840 838
3 772 774 839
3 772 839 837
3 839 841 842
3 839 842 840
3 774 776 841
3 774 841 839
3 841 843 844
3 841 844 842
3 776 778 843
3 776 843 841
3 843 845 846
3 843 846 844
3 778 780 845
3 778 845 843
3 845 847 848
3 845 848 846
3 780 782 847
3 780 847 845
3 847 849 850
3 847 850 848
3 782 784 849
3 782 849 847
3 784 786 851
3 784 851 849
3 849 851 852
3 849 852 850
3 851 853 854
3 851 854 852
3 786 788 853
3 786 853 851
3 853 855 856
3 853 856 854
3 788 790 855
3 788 855 853
3 855 857 858
3 855 858 856
3 790 792 857
3 790 857 855
3 857 859 860
3 857 860 858
3 792 794 859
3 792 859 857
3 859 861 862
3 859 862 860
3 794 796 861
3 794 861 859
3 861 863 864
3 861 864 862
3 796 798 863
3 796 863 861
3 863 865 866
3 863 866 864
3 798 800 865
3 798 865 863
3 865 867 868
3 865 868 866
3 800 802 867
3 800 867 865
3 867 869 870
3 867 870 868
3 802 804 869
3 802 869 867
3 869 871 872
3 869 872 870
3 804 806 871
3 804 871 869
3 871 873 874
3 871 874 872
3 806 808 873
3 806 873 871
3 873 875 876
3 873 876 874
3 808 810 875
3 808 875 873
3 875 877 878
3 875 878 876
3 810 812 877
3 810 877 875
3 877 879 880
3 877 880 878
3 812 814 879
3 812 879 877
3 879 881 882
3 879 882 880
3 814 816 881
3 814 881 879
3 881 883 884
3 881 884 882
3 816 818 883
3 816 883 881
3 883 885 886
3 883 886 884
3 818 820 885
3 818 885 883
3 885 823 888
3 885 888 886
3 884 886 887
3 884 887 949
3 886 888 889
3 886 889 887
3 888 826 891
3 888 891 889
3 887 889 890
3 887 890 952
3 889 891 892
3 889 892 890
3 891 893 894
3 891 894 892
3 826 828 893
3 826 893 891
3 893 895 896
3 893 896 894
3 828 830 895
3 828 895 893
3 895 897 898
3 895 898 896
3 830 832 897
3 830 897 895
3 897 899 900
3 897 900 898
3 832 834 899
3 832 899 897
3 899 901 902
3 899 902 900
3 834 836 901
3 834 901 899
3 901 903 904
3 901 904 902
3 836 838 903
3 836 903 901
3 903 905 906
3 903 906 904
3 838 840 905
3 838 905 903
3 905 907 908
3 905 908 906
3 840 842 907
3 840 907 905
3 907 909 910
3 907 910 908
3 842 844 909
3 842 909 907
3 909 911 912
3 909 912 910
3 844 846 911
3 844 911 909
3 911 913 914
3 911 914 912
3 846 848 913
3 846 913 911
3 913 915 916
3 913 916 914
3 848 850 915
3 848 915 913
3 850 852 917
3 850 917 915
3 915 917 918
3 915 918 916
3 917 919 920
3 917 920 918
3 852 854 919
3 852 919 917
3 919 921 922
3 919 922 920
3 854 856 921
3 854 921 919
3 921 923 924
3 921 924 922
3 856 858 923
3 856 923 921
3 923 925 926
3 923 926 924
3 858 860 925
3 858 925 923
3 925 927 928
3 925 928 926
3 860 862 927
3 860 927 925
3 927 929 930
3 927 930 928
3 862 864 929
3 862 929 927
3 929 931 932
3 929 932 930
3 864 866 931
3 864 931 929
3 931 933 934
3 931 934 932
3 866 868 933
3 866 933 931
3 933 935 936
3 933 936 934
3 868 870 935
3 868 935 933
3 935 937 938
3 935 938 936
3 870 872 937
3 870 937 935
3 937 939 940
3 937 940 938
3 872 874 939
3 872 939 937
3 939 941 942
3 939 942 940
3 874 876 941
3 874 941 939
3 941 943 944
3 941 944 942
3 876 878 943
3 876 943 941
3 943 945 946
3 943 946 944
3 878 880 945
3 878 945 943
3 945 947 948
3 945 948 946
3 880 882 947
3 880 947 945
3 947 949 950
3 947 950 948
3 882 884 949
3 882 949 947
3 949 887 952
3 949 952 950
3 948 950 951
3 948 951 1013
3 950 952 953
3 950 953 951
3 952 890 955
3 952 955 953
3 951 953 954
3 951 954 1016
3 953 955 956
3 953 956 954
3 955 957 958
3 955 958 956
3 890 892 957
3 890 957 955
3 957 959 960
3 957 960 958
3 892 894 959
3 892 959 957
3 959 961 962
3 959 962 960
3 894 896 961
3 894 961 959
3 961 963 964
3 961 964 962
3 896 898 963
3 896 963 961
3 963 965 966
3 963 966 964
3 898 900 965
3 898 965 963
3 965 967 968
3 965 968 966
3 900 902 967
3 900 967 965
3 967 969 970
3 967 970 968
3 902 904 969
3 902 969 967
3 969 971 972
3 969 972 970
3 904 906 971
3 904 971 969
3 971 973 974
3 971 974 972
3 906 908 973
3 906 973 971
3 973 975 976
3 973 976 974
3 908 910 975
3 908 975 973
3 975 977 978
3 975 978 976
3 910 912 977
3 910 977 975
3 977 979 980
3 977 980 978
3 912 914 979
3 912 979 977
3 979 981 982
3 979 982 980
3 914 916 981
3 914 981 979
3 916 918 983
3 916 983 981
3 981 983 984
3 981 984 982
3 983 985 986
3 983 986 984
3 918 920 985
3 918 985 983
3 985 987 988
3 985 988 986
3 920 922 987
3 920 987 985
3 987 989 990
3 987 990 988
3 922 924 989
3 922 989 987
3 989 991 992
3 989 992 990
3 924 926 991
3 924 991 989
3 991 993 994
3 991 994 992
3 926 928 993
3 926 993 991
3 993 995 996
3 993 996 994
3 928 930 995
3 928 995 993
3 995 997 998
3 995 998 996
3 930 932 997
3 930 997 995
3 997 999 1000
3 997 1000 998
3 932 934 999
3 932 999 997
3 999 1001 1002
3 999 1002 1000
3 934 936 1001
3 934 1001 999
3 1001 1003 1004
3 1001 1004 1002
3 936 938 1003
3 936 1003 1001
3 1003 1005 1006
3 1003 1006 1004
3 938 940 1005
3 938 1005 1003
3 1005 1007 1008
3 1005 1008 1006
3 940 942 1007
3 940 1007 1005
3 1007 1009 1010
3 1007 1010 1008
3 942 944 1009
3 942 1009 1007
3 1009 1011 1012
3 1009 1012 1010
3 944 946 1011
3 944 1011 1009
3 1011 1013 1014
3 1011 1014 1012
3 946 948 1013
3 946 1013 1011
3 1013 951 1016
3 1013 1016 1014
3 1012 1014 1015
3 1012 1015 1077
3 1014 1016 1017
3 1014 1017 1015
3 1016 954 1019
3 1016 1019 1017
3 1015 1017 1018
3 1015 1018 1080
3 1017 1019 1020
3 1017 1020 1018
3 1019 1021 1022
3 1019 1022 1020
3 954 956 1021
3 954 1021 1019
3 1021 1023 1024
3 1021 1024 1022
3 956 958 1023
3 956 1023 1021
3 1023 1025 1026
3 1023 1026 1024
3 958 960 1025
3 958 1025 1023
3 1025 1027 1028
3 1025 1028 1026
3 960 962 1027
3 960 1027 1025
3 1027 1029 1030
3 1027 1030 1028
3 962 964 1029
3 962 1029 1027
3 1029 1031 1032
3 1029 1032 1030
3 964 966 1031
3 964 1031 1029
3 1031 1033 1034
3 1031 1034 1032
3 966 968 1033
3 966 1033 1031
3 1033 1035 1036
3 1033 1036 1034
3 968 970 1035
3 968 1035 1033
3 1035 1037 1038
3 1035 1038 1036
3 970 972 1037
3 970 1037 1035
3 1037 1039 1040
3 1037 1040 1038
3 972 974 1039
3 972 1039 1037
3 1039 1041 1042
3 1039 1042 1040
3 974 976 1041
3 974 1041 1039
3 1041 1043 1044
3 1041 1044 1042
3 976 978 1043
3 976 1043 1041
3 1043 1045 1046
3 1043 1046 1044
3 978 980 1045
3 978 1045 1043
3 1045 1047 1048
3 1045 1048 1046
3 980 982 1047
3 980 1047 1045
3 982 984 1049
3 982 1049 1047
3 1047 1049 1050
3 1047 1050 1048
3 1049 1051 1052
3 1049 1052 1050
3 984 986 1051
3 984 1051 1049
3 1051 1053 1054
3 1051 1054 1052
3 986 988 1053
3 986 1053 1051
3 1053 1055 1056
3 1053 1056 1054
3 988 990 1055
3 988 1055 1053
3 1055 1057 1058
3 1055 1058 1056
3 990 992 1057
3 990 1057 1055
3 1057 1059 1060
3 1057 1060 1058
3 992 994 1059
3 992 1059 1057
3 1059 1061 1062
3 1059 1062 1060
3 994 996 1061
3 994 1061 1059
3 1061 1063 1064
3 1061 1064 1062
3 996 998 1063
3 996 1063 1061
3 1063 1065 1066
3 1063 1066 1064
3 998 1000 1065
3 998 1065 1063
3 1065 1067 1068
3 1065 1068 1066
3 1000 1002 1067
3 1000 1067 1065
3 1067 1069 1070
3 1067 1070 1068
3 1002 1004 1069
3 1002 1069 1067
3 1069 1071 1072
3 1069 1072 1070
3 1004 1006 1071
3 1004 1071 1069
3 1071 1073 1074
3 1071 1074 1072
3 1006 1008 1073
3 1006 1073 1071
3 1073 1075 1076
3 1073 1076 1074
3 1008 1010 1075
3 1008 1075 1073
3 1075 1077 1078
3 1075 1078 1076
3 1010 1012 1077
3 1010 1077 1075
3 1077 1015 1080
3 1077 1080 1078
3 1076 1078 1079
3 1076 1079 1141
3 1078 1080 1081
3 1078 1081 1079
3 1080 1018 1083
3 1080 1083 1081
3 1079 1081 1082
3 1079 1082 1144
3 1081 1083 1084
3 1081 1084 1082
3 1083 1085 1086
3 1083 1086 1084
3 1018 1020 1085
3 1018 1085 1083
3 1085 1087 1088
3 1085 1088 1086
3 1020 1022 1087
3 1020 1087 1085
3 1087 1089 1090
3 1087 1090 1088
3 1022 1024 1089
3 1022 1089 1087
3 1089 1091 1092
3 1089 1092 1090
3 1024 1026 1091
3 1024 1091 1089
3 1091 1093 1094
3 1091 1094 1092
3 1026 1028 1093
3 1026 1093 1091
3 1093 1095 1096
3 1093 1096 1094
3 1028 1030 1095
3 1028 1095 1093
3 1095 1097 1098
3 1095 1098 1096
3 1030 1032 1097
3 1030 1097 1095
3 1097 1099 1100
3 1097 1100 1098
3 1032 1034 1099
3 1032 1099 1097
3 1099 1101 1102
3 1099 1102 1100
3 1034 1036 1101
3 1034 1101 1099
3 1101 1103 1104
3 1101 1104 1102
3 1036 1038 1103
3 1036 1103 1101
3 1103 1105 1106
3 1103 1106 1104
3 1038 1040 1105
3 1038 1105 1103
3 1105 1107 1108
3 1105 1108 1106
3 1040 1042 1107
3 1040 1107 1105
3 1107 1109 1110
3 1107 1110 1108
3 1042 1044 1109
3 1042 1109 1107
3 1109 1111 1112
3 1109 1112 1110
3 1044 1046 1111
3 1044 1111 1109
3 1111 1113 1114
3 1111 1114 1112
3 1046 1048 1113
3 1046 1113 1111
3 1048 1050 1115
3 1048 1115 1113
3 1113 1115 1116
3 1113 1116 1114
3 1115 1117 1118
3 1115 1118 1116
3 1050 1052 1117
3 1050 1117 1115
3 1117 1119 1120
3 1117 1120 1118
3 1052 1054 1119
3 1052 1119 1117
3 1119 1121 1122
3 1119 1122 1120
3 1054 1056 1121
3 1054 1121 1119
3 1121 1123 1124
3 1121 1124 1122
3 1056 1058 1123
3 1056 1123 1121
3 1123 1125 1126
3 1123 1126 1124
3 1058 1060 1125
3 1058 1125 1123
3 1125 1127 1128
3 1125 1128 1126
3 1060 1062 1127
3 1060 1127 1125
3 1127 1129 1130
3 1127 1130 1128
3 1062 1064 1129
3 1062 1129 1127
3 1129 1131 1132
3 1129 1132 1130
3 1064 1066 1131
3 1064 1131 1129
3 1131 1133 1134
3 1131 1134 1132
3 1066 1068 1133
3 1066 1133 1131
3 1133 1135 1136
3 1133 1136 1134
3 1068 1070 1135
3 1068 1135 1133
3 1135 1137 1138
3 1135 1138 1136
3 1070 1072 1137
3 1070 1137 1135
3 1137 1139 1140
3 1137 1140 1138
3 1072 1074 1139
3 1072 1139 1137
3 1139 1141 1142
3 1139 1142 1140
3 1074 1076 1141
3 1074 1141 1139
3 1141 1079 1144
3 1141 1144 1142
3 1140 1142 1143
3 1140 1143 1205
3 1142 1144 1145
3 1142 1145 1143
3 1144 1082 1147
3 1144 1147 1145
3 1143 1145 1146
3 1143 1146 1208
3 1145 1147 1148
3 1145 1148 1146
3 1147 1149 1150
3 1147 1150 1148
3 1082 1084 1149
3 1082 1149 1147
3 1149 1151 1152
3 1149 1152 1150
3 1084 1086 1151
3 1084 1151 1149
3 1151 1153 1154
3 1151 1154 1152
3 1086 1088 1153
3 1086 1153 1151
3 1153 1155 1156
3 1153 1156 1154
3 1088 1090 1155
3 1088 1155 1153
3 1155 1157 1158
3 1155 1158 1156
3 1090 1092 1157
3 1090 1157 1155
3 1157 1159 1160
3 1157 1160 1158
3 1092 1094 1159
3 1092 1159 1157
3 1159 1161 1162
3 1159 1162 1160
3 1094 1096 1161
3 1094 1161 1159
3 1161 1163 1164
3 1161 1164 1162
3 1096 1098 1163
3 1096 1163 1161
3 1163 1165 1166
3 1163 1166 1164
3 1098 1100 1165
3 1098 1165 1163
3 1165 1167 1168
3 1165 1168 1166
3 1100 1102 1167
3 1100 1167 1165
3 1167 1169 1170
3 1167 1170 1168
3 1102 1104 1169
3 1102 1169 1167
3 1169 1171 1172
3 1169 1172 1170
3 1104 1106 1171
3 1104 1171 1169
3 1171 1173 1174
3 1171 1174 1172
3 1106 1108 1173
3 1106 1173 1171
3 1173 1175 1176
3 1173 1176 1174
3 1108 1110 1175
3 1108 1175 1173
3 1175 1177 1178
3 1175 1178 1176
3 1110 1112 1177
3 1110 1177 1175
3 1177 1179 1180
3 1177 1180 1178
3 1112 1114 1179
3 1112 1179 1177
3 1114 1116 1181
3 1114 1181 1179
3 1179 1181 1182
3 1179 1182 1180
3 1181 1183 1184
3 1181 1184 1182
3 1116 1118 1183
3 1116 1183 1181
3 1183 1185 1186
3 1183 1186 1184
3 1118 1120 1185
3 1118 1185 1183
3 1185 1187 1188
3 1185 1188 1186
3 1120 1122 1187
3 1120 1187 1185
3 1187 1189 1190
3 1187 1190 1188
3 1122 1124 1189
3 1122 1189 1187
3 1189 1191 1192
3 1189 1192 1190
3 1124 1126 1191
3 1124 1191 1189
3 1191 1193 1194
3 1191 1194 1192
3 1126 1128 1193
3 1126 1193 1191
3 1193 1195 1196
3 1193 1196 1194
3 1128 1130 1195
3 1128 1195 1193
3 1195 1197 1198
3 1195 1198 1196
3 1130 1132 1197
3 1130 1197 1195
3 1197 1199 1200
3 1197 1200 1198
3 1132 1134 1199
3 1132 1199 1197
3 1199 1201 1202
3 1199 1202 1200
3 1134 1136 1201
3 1134 1201 1199
3 1201 1203 1204
3 1201 1204 1202
3 1136 1138 1203
3 1136 1203 1201
3 1203 1205 1206
3 1203 1206 1204
3 1138 1140 1205
3 1138 1205 1203
3 1205 1143 1208
3 1205 1208 1206
3 1204 1206 1207
3 1204 1207 1269
3 1206 1208 1209
3 1206 1209 1207
3 1208 1146 1211
3 1208 1211 1209
3 1207 1209 1210
3 1207 1210 1272
3 1209 1211 1212
3 1209 1212 1210
3 1211 1213 1214
3 1211 1214 1212
3 1146 1148 1213
3 1146 1213 1211
3 1213 1215 1216
3 1213 1216 1214
3 1148 1150 1215
3 1148 1215 1213
3 1215 1217 1218
3 1215 1218 1216
3 1150 1152 1217
3 1150 1217 1215
3 1217 1219 1220
3 1217 1220 1218
3 1152 1154 1219
3 1152 1219 1217
3 1219 1221 1222
3 1219 1222 1220
3 1154 1156 1221
3 1154 1221 1219
3 1221 1223 1224
3 1221 1224 1222
3 1156 1158 1223
3 1156 1223 1221
3 1223 1225 1226
3 1223 1226 1224
3 1158 1160 1225
3 1158 1225 1223
3 1225 1227 1228
3 1225 1228 1226
3 1160 1162 1227
3 1160 1227 1225
3 1227 1229 1230
3 1227 1230 1228
3 1162 1164 1229
3 1162 1229 1227
3 1229 1231 1232
3 1229 1232 1230
3 1164 1166 1231
3 1164 1231 1229
3 1231 1233 1234
3 1231 1234 1232
3 1166 1168 1233
3 1166 1233 1231
3 1233 1235 1236
3 1233 1236 1234
3 1168 1170 1235
3 1168 1235 1233
3 1235 1237 1238
3 1235 1238 1236
3 1170 1172 1237
3 1170 1237 1235
3 1237 1239 1240
3 1237 1240 1238
3 1172 1174 1239
3 1172 1239 1237
3 1239 1241 1242
3 1239 1242 1240
3 1174 1176 1241
3 1174 1241 1239
3 1241 1243 1244
3 1241 1244 1242
3 1176 1178 1243
3 1176 1243 1241
3 1243 1245 1246
3 1243 1246 1244
3 1178 1180 1245
3 1178 1245 1243
3 1180 1182 1247
3 1180 1247 1245
3 1245 1247 1248
3 1245 1248 1246
3 1247 1249 1250
3 1247 1250 1248
3 1182 1184 1249
3 1182 1249 1247
3 1249 1251 1252
3 1249 1252 1250
3 1184 1186 1251
3 1184 1251 1249
3 1251 1253 1254
3 1251 1254 1252
3 1186 1188 1253
3 1186 1253 1251
3 1253 1255 1256
3 1253 1256 1254
3 1188 1190 1255
3 1188 1255 1253
3 1255 1257 1258
3 1255 1258 1256
3 1190 1192 1257
3 1190 1257 1255
3 1257 1259 1260
3 1257 1260 1258
3 1192 1194 1259
3 1192 1259 1257
3 1259 1261 1262
3 1259 1262 1260
3 1194 1196 1261
3 1194 1261 1259
3 1261 1263 1264
3 1261 1264 1262
3 1196 1198 1263
3 1196 1263 1261
3 1263 1265 1266
3 1263 1266 1264
3 1198 1200 1265
3 1198 1265 1263
3 1265 1267 1268
3 1265 1268 1266
3 1200 1202 1267
3 1200 1267 1265
3 1267 1269 1270
3 1267 1270 1268
3 1202 1204 1269
3 1202 1269 1267
3 1269 1207 1272
3 1269 1272 1270
3 1270 1272 1273
3 1270 1273 1271
3 1268 1270 1271
3 1268 1271 1367
3 1272 1210 1274
3 1272 1274 1273
3 1276 1271 1273
3 1276 1273 1275
3 1275 1273 1274
3 1275 1274 1277
3 1279 1276 1275
3 1279 1275 1278
3 1278 1275 1277
3 1278 1277 1280
3 1330 1339 1340
3 1340 1341 1342
3 1342 1351 1352
3 1352 1353 1354
3 1354 1363 1364
3 1364 1365 1279
3 1279 1278 1280
3 1280 1281 1282
3 1282 1291 1292
3 1292 1293 1294
3 1294 1303 1304
3 1294 1304 1305
3 1282 1292 1294
3 1279 1280 1282
3 1354 1364 1279
3 1342 1352 1354
3 1330 1340 1342
3 1328 1329 1330
3 1318 1327 1328
3 1316 1317 1318
3 1306 1315 1316
3 1294 1305 1306
3 1279 1282 1294
3 1342 1354 1279
3 1328 1330 1342
3 1316 1318 1328
3 1279 1294 1306
3 1306 1316 1328
3 1328 1342 1279
3 1279 1306 1328
3 1280 1277 1283
3 1280 1283 1281
3 1281 1283 1284
3 1281 1284 1282
3 1277 1274 1285
3 1277 1285 1283
3 1283 1285 1286
3 1283 1286 1284
3 1210 1212 1285
3 1210 1285 1274
3 1212 1214 1286
3 1212 1286 1285
3 1284 1286 1287
3 1284 1287 1289
3 1214 1216 1287
3 1214 1287 1286
3 1289 1287 1288
3 1289 1288 1290
3 1216 1218 1288
3 1216 1288 1287
3 1282 1284 1289
3 1282 1289 1291
3 1291 1289 1290
3 1291 1290 1292
3 1292 1290 1295
3 1292 1295 1293
3 1293 1295 1296
3 1293 1296 1294
3 1290 1288 1297
3 1290 1297 1295
3 1295 1297 1298
3 1295 1298 1296
3 1218 1220 1297
3 1218 1297 1288
3 1220 1222 1298
3 1220 1298 1297
3 1296 1298 1299
3 1296 1299 1301
3 1222 1224 1299
3 1222 1299 1298
3 1301 1299 1300
3 1301 1300 1302
3 1224 1226 1300
3 1224 1300 1299
3 1294 1296 1301
3 1294 1301 1303
3 1303 1301 1302
3 1303 1302 1304
3 1304 1302 1307
3 1304 1307 1305
3 1305 1307 1308
3 1305 1308 1306
3 1302 1300 1309
3 1302 1309 1307
3 1307 1309 1310
3 1307 1310 1308
3 1226 1228 1309
3 1226 1309 1300
3 1228 1230 1310
3 1228 1310 1309
3 1308 1310 1311
3 1308 1311 1313
3 1230 1232 1311
3 1230 1311 1310
3 1313 1311 1312
3 1313 1312 1314
3 1232 1234 1312
3 1232 1312 1311
3 1306 1308 1313
3 1306 1313 1315
3 1315 1313 1314
3 1315 1314 1316
3 1316 1314 1319
3 1316 1319 1317
3 1317 1319 1320
3 1317 1320 1318
3 1314 1312 1321
3 1314 1321 1319
3 1319 1321 1322
3 1319 1322 1320
3 1234 1236 1321
3 1234 1321 1312
3 1236 1238 1322
3 1236 1322 1321
3 1320 1322 1323
3 1320 1323 1325
3 1238 1240 1323
3 1238 1323 1322
3 1325 1323 1324
3 1325 1324 1326
3 1240 1242 1324
3 1240 1324 1323
3 1318 1320 1325
3 1318 1325 1327
3 1327 1325 1326
3 1327 1326 1328
3 1328 1326 1331
3 1328 1331 1329
3 1329 1331 1332
3 1329 1332 1330
3 1326 1324 1333
3 1326 1333 1331
3 1331 1333 1334
3 1331 1334 1332
3 1242 1244 1333
3 1242 1333 1324
3 1244 1246 1334
3 1244 1334 1333
3 1332 1334 1335
3 1332 1335 1337
3 1246 1248 1335
3 1246 1335 1334
3 1337 1335 1336
3 1337 1336 1338
3 1248 1250 1336
3 1248 1336 1335
3 1330 1332 1337
3 1330 1337 1339
3 1339 1337 1338
3 1339 1338 1340
3 1340 1338 1343
3 1340 1343 1341
3 1341 1343 1344
3 1341 1344 1342
3 1338 1336 1345
3 1338 1345 1343
3 1343 1345 1346
3 1343 1346 1344
3 1250 1252 1345
3 1250 1345 1336
3 1252 1254 1346
3 1252 1346 1345
3 1344 1346 1347
3 1344 1347 1349
3 1254 1256 1347
3 1254 1347 1346
3 1349 1347 1348
3 1349 1348 1350
3 1256 1258 1348
3 1256 1348 1347
3 1342 1344 1349
3 1342 1349 1351
3 1351 1349 1350
3 1351 1350 1352
3 1352 1350 1355
3 1352 1355 1353
3 1353 1355 1356
3 1353 1356 1354
3 1350 1348 1357
3 1350 1357 1355
3 1355 1357 1358
3 1355 1358 1356
3 1258 1260 1357
3 1258 1357 1348
3 1260 1262 1358
3 1260 1358 1357
3 1356 1358 1359
3 1356 1359 1361
3 1262 1264 1359
3 1262 1359 1358
3 1361 1359 1360
3 1361 1360 1362
3 1264 1266 1360
3 1264 1360 1359
3 1354 1356 1361
3 1354 1361 1363
3 1363 1361 1362
3 1363 1362 1364
3 1364 1362 1366
3 1364 1366 1365
3 1365 1366 1276
3 1365 1276 1279
3 1362 1360 1367
3 1362 1367 1366
3 1366 1367 1271
3 1366 1271 1276
3 1266 1268 1367
3 1266 1367 1360
3 1368 117 114
3 1368 114 1369
3 23 26 117
3 23 117 1368
3 1370 1368 1369
3 1370 1369 1371
3 20 23 1368
3 20 1368 1370
3 1372 1370 1371
3 1372 1371 1373
3 17 20 1370
3 17 1370 1372
3 1374 1372 1373
3 1374 1373 1375
3 14 17 1372
3 14 1372 1374
3 1376 1374 1375
3 1376 1375 1377
3 11 14 1374
3 11 1374 1376
3 1378 1376 1377
3 1378 1377 1379
3 8 11 1376
3 8 1376 1378
3 1380 1378 1379
3 1380 1379 1381
3 5 8 1378
3 5 1378 1380
3 1382 1380 1381
3 1382 1381 1383
3 2 5 1380
3 2 1380 1382
3 1383 1381 1386
3 1383 1386 1384
3 1384 1386 1387
3 1384 1387 1385
3 1386 1388 1389
3 1386 1389 1387
3 1381 1379 1388
3 1381 1388 1386
3 1388 1390 1391
3 1388 1391 1389
3 1379 1377 1390
3 1379 1390 1388
3 1390 1392 1393
3 1390 1393 1391
3 1377 1375 1392
3 1377 1392 1390
3 1392 1394 1395
3 1392 1395 1393
3 1375 1373 1394
3 1375 1394 1392
3 1394 1396 1397
3 1394 1397 1395
3 1373 1371 1396
3 1373 1396 1394
3 1396 1398 1399
3 1396 1399 1397
3 1371 1369 1398
3 1371 1398 1396
3 1398 111 108
3 1398 108 1399
3 1369 114 111
3 1369 111 1398
3 1397 1399 1400
3 1397 1400 1402
3 1399 108 105
3 1399 105 1400
3 1402 1400 1401
3 1402 1401 1403
3 1400 105 102
3 1400 102 1401
3 1404 1402 1403
3 1404 1403 1405
3 1395 1397 1402
3 1395 1402 1404
3 1406 1404 1405
3 1406 1405 1407
3 1393 1395 1404
3 1393 1404 1406
3 1408 1406 1407
3 1408 1407 1409
3 1391 1393 1406
3 1391 1406 1408
3 1410 1408 1409
3 1410 1409 1411
3 1389 1391 1408
3 1389 1408 1410
3 1412 1410 1411
3 1412 1411 1413
3 1387 1389 1410
3 1387 1410 1412
3 1414 1412 1413
3 1414 1413 1415
3 1385 1387 1412
3 1385 1412 1414
3 1415 1413 1418
3 1415 1418 1416
3 1416 1418 1419
3 1416 1419 1417
3 1418 1420 1421
3 1418 1421 1419
3 1413 1411 1420
3 1413 1420 1418
3 1420 1422 1423
3 1420 1423 1421
3 1411 1409 1422
3 1411 1422 1420
3 1422 1424 1425
3 1422 1425 1423
3 1409 1407 1424
3 1409 1424 1422
3 1424 1426 1427
3 1424 1427 1425
3 1407 1405 1426
3 1407 1426 1424
3 1426 1428 1429
3 1426 1429 1427
3 1405 1403 1428
3 1405 1428 1426
3 1428 1430 1431
3 1428 1431 1429
3 1403 1401 1430
3 1403 1430 1428
3 1430 99 96
3 1430 96 1431
3 1401 102 99
3 1401 99 1430
3 1429 1431 1432
3 1429 1432 1434
3 1431 96 93
3 1431 93 1432
3 1434 1432 1433
3 1434 1433 1435
3 1432 93 90
3 1432 90 1433
3 1436 1434 1435
3 1436 1435 1437
3 1427 1429 1434
3 1427 1434 1436
3 1438 1436 1437
3 1438 1437 1439
3 1425 1427 1436
3 1425 1436 1438
3 1440 1438 1439
3 1440 1439 1441
3 1423 1425 1438
3 1423 1438 1440
3 1442 1440 1441
3 1442 1441 1443
3 1421 1423 1440
3 1421 1440 1442
3 1444 1442 1443
3 1444 1443 1445
3 1419 1421 1442
3 1419 1442 1444
3 1446 1444 1445
3 1446 1445 1447
3 1417 1419 1444
3 1417 1444 1446
3 1447 1445 1450
3 1447 1450 1448
3 1448 1450 1451
3 1448 1451 1449
3 1450 1452 1453
3 1450 1453 1451
3 1445 1443 1452
3 1445 1452 1450
3 1452 1454 1455
3 1452 1455 1453
3 1443 1441 1454
3 1443 1454 1452
3 1454 1456 1457
3 1454 1457 1455
3 1441 1439 1456
3 1441 1456 1454
3 1456 1458 1459
3 1456 1459 1457
3 1439 1437 1458
3 1439 1458 1456
3 1458 1460 1461
3 1458 1461 1459
3 1437 1435 1460
3 1437 1460 1458
3 1460 1462 1463
3 1460 1463 1461
3 1435 1433 1462
3 1435 1462 1460
3 1462 87 84
3 1462 84 1463
3 1433 90 87
3 1433 87 1462
3 1461 1463 1464
3 1461 1464 1466
3 1463 84 81
3 1463 81 1464
3 1466 1464 1465
3 1466 1465 1467
3 1464 81 78
3 1464 78 1465
3 1468 1466 1467
3 1468 1467 1469
3 1459 1461 1466
3 1459 1466 1468
3 1470 1468 1469
3 1470 1469 1471
3 1457 1459 1468
3 1457 1468 1470
3 1472 1470 1471
3 1472 1471 1473
3 1455 1457 1470
3 1455 1470 1472
3 1474 1472 1473
3 1474 1473 1475
3 1453 1455 1472
3 1453 1472 1474
3 1476 1474 1475
3 1476 1475 1477
3 1451 1453 1474
3 1451 1474 1476
3 1478 1476 1477
3 1478 1477 1479
3 1449 1451 1476
3 1449 1476 1478
3 1479 1477 1482
3 1479 1482 1480
3 1480 1482 1483
3 1480 1483 1481
3 1482 1484 1485
3 1482 1485 1483
3 1477 1475 1484
3 1477 1484 1482
3 1484 1486 1487
3 1484 1487 1485
3 1475 1473 1486
3 1475 1486 1484
3 1486 1488 1489
3 1486 1489 1487
3 1473 1471 1488
3 1473 1488 1486
3 1488 1490 1491
3 1488 1491 1489
3 1471 1469 1490
3 1471 1490 1488
3 1490 1492 1493
3 1490 1493 1491
3 1469 1467 1492
3 1469 1492 1490
3 1492 1494 1495
3 1492 1495 1493
3 1467 1465 1494
3 1467 1494 1492
3 1494 75 72
3 1494 72 1495
3 1465 78 75
3 1465 75 1494
3 1493 1495 1496
3 1493 1496 1498
3 1495 72 69
3 1495 69 1496
3 1498 1496 1497
3 1498 1497 1499
3 1496 69 66
3 1496 66 1497
3 1500 1498 1499
3 1500 1499 1501
3 1491 1493 1498
3 1491 1498 1500
3 1502 1500 1501
3 1502 1501 1503
3 1489 1491 1500
3 1489 1500 1502
3 1504 1502 1503
3 1504 1503 1505
3 1487 1489 1502
3 1487 1502 1504
3 1506 1504 1505
3 1506 1505 1507
3 1485 1487 1504
3 1485 1504 1506
3 1508 1506 1507
3 1508 1507 1509
3 1483 1485 1506
3 1483 1506 1508
3 1510 1508 1511
3 1508 1509 1511
3 1481 1483 1508
3 1481 1508 1510
3 1511 1509 1514
3 1511 1514 1512
3 1512 1514 1515
3 1512 1515 1513
3 1514 1516 1517
3 1514 1517 1515
3 1509 1507 1516
3 1509 1516 1514
3 1516 1518 1519
3 1516 1519 1517
3 1507 1505 1518
3 1507 1518 1516
3 1518 1520 1521
3 1518 1521 1519
3 1505 1503 1520
3 1505 1520 1518
3 1520 1522 1523
3 1520 1523 1521
3 1503 1501 1522
3 1503 1522 1520
3 1522 1524 1525
3 1522 1525 1523
3 1501 1499 1524
3 1501 1524 1522
3 1524 1526 1527
3 1524 1527 1525
3 1499 1497 1526
3 1499 1526 1524
3 1526 63 60
3 1526 60 1527
3 1497 66 63
3 1497 63 1526
3 1525 1527 1528
3 1525 1528 1530
3 1527 60 1528
3 60 57 1528
3 1530 1528 1531
3 1528 1529 1531
3 1528 57 1529
3 57 54 1529
3 1532 1530 1531
3 1532 1531 1533
3 1523 1525 1530
3 1523 1530 1532
3 1534 1532 1533
3 1534 1533 1535
3 1521 1523 1532
3 1521 1532 1534
3 1536 1534 1535
3 1536 1535 1537
3 1519 1521 1534
3 1519 1534 1536
3 1538 1536 1537
3 1538 1537 1539
3 1517 1519 1536
3 1517 1536 1538
3 1540 1538 1539
3 1540 1539 1541
3 1515 1517 1538
3 1515 1538 1540
3 1542 1540 1541
3 1542 1541 1543
3 1513 1515 1540
3 1513 1540 1542
3 1543 1541 1546
3 1543 1546 1544
3 1544 1546 1547
3 1544 1547 1545
3 1546 1548 1549
3 1546 1549 1547
3 1541 1539 1548
3 1541 1548 1546
3 1548 1550 1551
3 1548 1551 1549
3 1539 1537 1550
3 1539 1550 1548
3 1550 1552 1553
3 1550 1553 1551
3 1537 1535 1552
3 1537 1552 1550
3 1552 1554 1555
3 1552 1555 1553
3 1535 1533 1554
3 1535 1554 1552
3 1554 1556 1557
3 1554 1557 1555
3 1533 1531 1556
3 1533 1556 1554
3 1556 1558 1559
3 1556 1559 1557
3 1531 1529 1558
3 1531 1558 1556
3 1558 51 48
3 1558 48 1559
3 1529 54 51
3 1529 51 1558
3 1557 1559 1562
3 1559 1560 1562
3 1559 48 1560
3 48 45 1560
3 1562 1560 1561
3 1562 1561 1563
3 1560 45 1561
3 45 42 1561
3 1564 1562 1563
3 1564 1563 1565
3 1555 1557 1562
3 1555 1562 1564
3 1566 1564 1567
3 1564 1565 1567
3 1553 1555 1564
3 1553 1564 1566
3 1568 1566 1567
3 1568 1567 1569
3 1551 1553 1566
3 1551 1566 1568
3 1570 1568 1569
3 1570 1569 1571
3 1549 1551 1570
3 1551 1568 1570
3 1572 1570 1573
3 1570 1571 1573
3 1547 1549 1570
3 1547 1570 1572
3 1574 1572 1573
3 1574 1573 1575
3 1545 1547 1572
3 1545 1572 1574
3 1575 1573 1578
3 1575 1578 1576
3 1576 1578 1577
3 1578 1579 1577
3 1578 1580 1581
3 1578 1581 1579
3 1573 1571 1580
3 1573 1580 1578
3 1580 1582 1583
3 1580 1583 1581
3 1571 1569 1582
3 1571 1582 1580
3 1582 1584 1585
3 1582 1585 1583
3 1569 1567 1582
3 1567 1584 1582
3 1584 1586 1587
3 1584 1587 1585
3 1567 1565 1584
3 1565 1586 1584
3 1586 1588 1589
3 1586 1589 1587
3 1565 1563 1586
3 1563 1588 1586
3 1588 1590 1591
3 1588 1591 1589
3 1563 1561 1590
3 1563 1590 1588
3 1590 39 1591
3 39 36 1591
3 1561 42 1590
3 42 39 1590
3 1589 1591 1592
3 1589 1592 1593
3 1591 36 33
3 1591 33 1592
3 1593 1592 22
3 1593 22 19
3 1592 33 25
3 1592 25 22
3 1594 1593 19
3 1594 19 16
3 1587 1589 1593
3 1587 1593 1594
3 1595 1594 16
3 1595 16 13
3 1585 1587 1594
3 1585 1594 1595
3 1596 1595 13
3 1596 13 10
3 1583 1585 1595
3 1583 1595 1596
3 1597 1596 10
3 1597 10 7
3 1581 1583 1596
3 1581 1596 1597
3 1598 1597 7
3 1598 7 4
3 1579 1581 1597
3 1579 1597 1598
3 1599 1598 4
3 1599 4 1
3 1577 1579 1599
3 1579 1598 1599
