ply
format ascii 1.0
element vertex 514
property float x
property float y
property float z
element face 1024
property list uchar int vertex_index
end_header
0.584494 2.266891 0.006613
0.637392 2.274587 0.145028
0.593794 2.301804 -0.002897
0.583931 2.238362 -0.151670
0.576516 2.230364 0.010136
0.622066 2.207257 0.151418
0.570265 2.193638 0.007545
0.609749 2.139656 0.146466
0.565452 2.158305 -0.001093
0.599773 2.074728 0.130294
0.561925 2.125867 -0.015462
0.591988 2.015213 0.103494
0.559727 2.097650 -0.035003
0.586701 1.963500 0.067118
0.558798 2.074811 -0.058952
0.583938 1.921689 0.022604
0.559092 2.058259 -0.086362
0.583737 1.891411 -0.028246
0.560612 2.048627 -0.116149
0.586317 1.873764 -0.083344
0.563241 2.046296 -0.147151
0.591650 1.869401 -0.140424
0.566835 2.051368 -0.178184
0.599493 1.878561 -0.197175
0.571135 2.063666 -0.208099
0.609437 1.901041 -0.251392
0.576008 2.082658 -0.235811
0.621195 1.935985 -0.301154
0.581354 2.107503 -0.260330
0.634074 1.981809 -0.345034
0.587202 2.137086 -0.280757
0.646773 2.036266 -0.382023
0.593589 2.170135 -0.296297
0.658382 2.096811 -0.410906
0.600805 2.205252 -0.306272
0.670236 2.160931 -0.429954
0.608661 2.241126 -0.310232
0.683423 2.226535 -0.437845
0.617098 2.276417 -0.307961
0.697901 2.291518 -0.434301
0.625258 2.309970 -0.299545
0.711919 2.353730 -0.419586
0.632532 2.340623 -0.285305
0.724541 2.410768 -0.394031
0.638555 2.367249 -0.265778
0.735278 2.460361 -0.358418
0.642914 2.388879 -0.241725
0.743292 2.500649 -0.314169
0.645307 2.404710 -0.214093
0.747909 2.530119 -0.263133
0.645593 2.414132 -0.183970
0.748902 2.547600 -0.207402
0.643635 2.416792 -0.152546
0.746027 2.552425 -0.149229
0.639400 2.412599 -0.121060
0.738990 2.544477 -0.090936
0.632881 2.401734 -0.090752
0.727567 2.524159 -0.034836
0.624404 2.384568 -0.062794
0.712231 2.492217 0.016889
0.614580 2.361655 -0.038247
0.694117 2.449705 0.062275
0.604136 2.333749 -0.018031
0.674635 2.398036 0.099623
0.795309 2.423692 0.182651
0.655154 2.338998 0.127542
0.772367 2.345642 0.219347
0.941984 2.327971 0.283351
0.749590 2.261256 0.242225
0.915872 2.230901 0.309656
0.727811 2.173786 0.250406
0.890187 2.130528 0.318988
0.707976 2.086575 0.243594
0.865954 2.030628 0.311023
0.690378 2.003077 0.222045
0.844039 1.934994 0.286098
0.675615 1.926595 0.186592
0.825335 1.847365 0.245176
0.664382 1.860137 0.138630
0.810641 1.771194 0.189846
0.657129 1.806346 0.080052
0.800591 1.709472 0.122272
0.654224 1.767339 0.013207
0.795657 1.664607 0.045118
0.656003 1.744592 -0.059185
0.796129 1.638313 -0.038558
0.662502 1.738923 -0.134130
0.802090 1.631596 -0.125411
0.673652 1.750561 -0.208487
0.813533 1.644750 -0.211921
0.689477 1.779276 -0.279183
0.830442 1.677401 -0.294563
0.709871 1.824194 -0.343505
0.852443 1.728415 -0.370136
0.733298 1.883383 -0.399652
0.877704 1.795556 -0.436332
0.755865 1.953526 -0.447023
0.902971 1.875436 -0.491741
0.774207 2.030985 -0.484690
0.926208 1.964521 -0.534622
0.790336 2.113290 -0.509782
0.948330 2.059960 -0.562394
0.807189 2.198553 -0.519866
0.970467 2.158962 -0.573163
0.824127 2.284140 -0.515276
0.991878 2.257957 -0.566758
0.839343 2.366608 -0.496623
1.011311 2.352929 -0.543609
0.852830 2.442317 -0.463700
1.028217 2.440043 -0.504251
0.864328 2.508159 -0.417332
1.042029 2.515877 -0.450000
0.872873 2.561627 -0.359515
1.052000 2.577504 -0.383029
0.877631 2.600696 -0.292780
1.057497 2.622551 -0.306056
0.878208 2.623861 -0.219906
1.058144 2.649268 -0.222154
0.874389 2.630225 -0.143823
1.053804 2.656614 -0.134624
0.866101 2.619550 -0.067532
1.044570 2.644300 -0.046871
0.853427 2.592266 0.005986
1.030733 2.612775 0.037709
0.836833 2.549389 0.073878
1.012800 2.563212 0.115842
0.817127 2.492491 0.133529
0.991453 2.497454 0.184518
1.162717 2.488574 0.222691
0.967534 2.417994 0.241089
1.136751 2.402052 0.284312
1.207925 2.361175 0.258442
1.108948 2.303926 0.330370
1.182235 2.270554 0.300987
1.080436 2.198172 0.359025
1.155841 2.172727 0.327485
1.052327 2.088877 0.369157
1.129806 2.071606 0.336864
1.025654 1.980033 0.360452
1.105080 1.970872 0.328837
1.001433 1.875738 0.333288
1.082603 1.874333 0.303739
0.980655 1.780167 0.288675
1.063295 1.785864 0.262503
0.964177 1.697116 0.228326
1.047941 1.708979 0.206711
0.952675 1.629824 0.154582
1.037166 1.646700 0.138508
0.946624 1.580872 0.070342
1.031396 1.601387 0.060548
0.946271 1.552021 -0.021091
1.030836 1.574627 -0.024110
0.951709 1.544441 -0.116164
1.035552 1.567488 -0.112196
0.962855 1.558510 -0.211163
1.045438 1.580380 -0.200329
0.979410 1.593704 -0.302355
1.060147 1.612827 -0.285110
1.000719 1.648652 -0.386294
1.079048 1.663520 -0.363309
1.025477 1.721073 -0.460025
1.101189 1.730353 -0.432011
1.051929 1.807774 -0.521069
1.125426 1.810525 -0.488679
1.078842 1.905342 -0.567174
1.150768 1.900974 -0.531192
1.105769 2.010390 -0.596351
1.176455 1.998466 -0.557889
1.132303 2.119184 -0.607249
1.201730 2.099372 -0.567675
1.157554 2.227470 -0.599363
1.225685 2.199676 -0.560068
1.180504 2.330978 -0.572977
1.247414 2.295461 -0.535321
1.200323 2.425821 -0.529074
1.266129 2.383188 -0.494399
1.216265 2.508414 -0.469307
1.281129 2.459572 -0.438870
1.227654 2.575586 -0.395987
1.291822 2.521722 -0.370881
1.233957 2.624727 -0.311943
1.297748 2.567199 -0.293048
1.234824 2.653813 -0.220426
1.298597 2.594092 -0.208339
1.230183 2.661759 -0.125001
1.294315 2.601375 -0.120032
1.220195 2.648319 -0.029370
1.285076 2.588880 -0.031562
1.205222 2.613999 0.062789
1.271231 2.557113 0.053653
1.185824 2.560092 0.147898
1.253296 2.507257 0.132340
1.430403 2.495390 0.161478
1.231931 2.441142 0.201483
1.407503 2.424519 0.235551
1.381808 2.338969 0.296525
1.353439 2.530560 0.310359
1.215379 2.652296 0.374758
1.321755 2.425074 0.385511
1.381659 2.617897 0.219076
1.248598 2.755113 0.267294
1.405349 2.683807 0.115159
1.276482 2.832693 0.144956
1.449635 2.548889 0.077155
1.423636 2.725877 0.002577
1.298002 2.882199 0.012413
1.464487 2.583055 -0.014195
1.435823 2.742508 -0.114346
1.312342 2.901759 -0.125250
1.474393 2.596571 -0.109053
1.441405 2.732888 -0.231065
1.318910 2.890425 -0.262685
1.478938 2.588776 -0.203730
1.440172 2.697362 -0.343083
1.317462 2.848594 -0.394588
1.477957 2.559954 -0.294577
1.432189 2.637293 -0.446077
1.308084 2.777873 -0.515867
1.471500 2.511216 -0.378094
1.417798 2.555024 -0.536082
1.291201 2.681017 -0.621826
1.459842 2.444463 -0.451067
1.397648 2.453960 -0.609683
1.267612 2.562026 -0.708413
1.443506 2.362470 -0.510742
1.372551 2.338028 -0.664059
1.238320 2.425534 -0.772273
1.423141 2.268418 -0.554836
1.343426 2.211487 -0.697080
1.204417 2.276593 -0.810925
1.399486 2.165750 -0.581619
1.311306 2.078908 -0.707422
1.167090 2.120618 -0.822870
1.373381 2.058177 -0.590017
1.277417 1.945433 -0.694717
1.127851 1.963707 -0.807652
1.345812 1.949866 -0.579738
1.243039 1.816431 -0.659572
1.088179 1.812111 -0.765929
1.317837 1.845194 -0.551275
1.209247 1.696589 -0.603360
1.048813 1.671104 -0.699530
1.290398 1.747996 -0.505713
1.177219 1.590535 -0.528322
1.010645 1.546053 -0.611392
1.264493 1.662009 -0.444832
1.148243 1.502243 -0.437252
0.975530 1.441798 -0.504674
1.241127 1.590447 -0.370918
1.123727 1.435400 -0.333582
0.945873 1.362880 -0.383018
1.221353 1.536274 -0.286795
1.104798 1.392751 -0.221245
0.923164 1.312555 -0.250957
1.206047 1.501709 -0.195673
1.092208 1.375981 -0.104559
0.908127 1.292754 -0.113655
1.195837 1.488118 -0.101039
1.086353 1.385538 0.012018
0.901107 1.303975 0.023574
1.191069 1.495871 -0.006493
1.087406 1.420989 0.123996
0.902263 1.345699 0.155406
1.191895 1.524615 0.084331
1.095298 1.480963 0.227055
0.911501 1.416314 0.276737
1.198264 1.573241 0.167933
1.109714 1.563179 0.317215
0.928444 1.513135 0.382877
1.209924 1.639904 0.241083
1.130150 1.664713 0.390936
0.952489 1.632703 0.469663
1.226471 1.722241 0.300901
1.155816 1.781689 0.445368
0.982699 1.770454 0.533738
1.247265 1.817106 0.345072
1.185659 1.909394 0.478462
1.017834 1.920847 0.572686
1.271449 1.920670 0.371935
1.218443 2.042606 0.489020
1.056433 2.077720 0.585107
1.298023 2.028709 0.380510
1.252914 2.176254 0.476616
1.097020 2.235097 0.570498
1.325973 2.137114 0.370451
1.287827 2.305499 0.441635
1.138125 2.387280 0.529313
1.354287 2.241958 0.342068
0.996564 2.415804 0.507520
1.178069 2.528068 0.463240
1.035763 2.553873 0.442761
1.072402 2.675632 0.356074
0.881446 2.565844 0.400199
0.741650 2.559610 0.339610
0.844050 2.435915 0.461161
0.916674 2.680393 0.318599
0.775293 2.662582 0.266075
0.947670 2.775289 0.219466
1.104974 2.776404 0.250795
0.973390 2.846950 0.106600
0.804346 2.748055 0.176658
0.827807 2.812767 0.074798
0.682970 2.688429 0.120402
0.573341 2.594364 0.047554
0.658113 2.616244 0.195923
0.703131 2.743083 0.034376
0.718641 2.777942 -0.058791
0.588478 2.635449 -0.017028
0.600280 2.661633 -0.086947
0.497387 2.525277 -0.066011
0.427624 2.407704 -0.114698
0.487323 2.497504 -0.022425
0.505215 2.543002 -0.113189
0.510503 2.549997 -0.162126
0.431793 2.416640 -0.138619
0.434658 2.420154 -0.163435
0.391581 2.277366 -0.162439
0.423254 2.334468 -0.279343
0.395160 2.299684 -0.037695
0.402118 2.327223 -0.045191
0.409235 2.352677 -0.057166
0.416093 2.375105 -0.073170
0.422323 2.393678 -0.092596
0.436122 2.418111 -0.188180
0.436148 2.410595 -0.211894
0.434762 2.397895 -0.233654
0.432049 2.380503 -0.252614
0.428151 2.359086 -0.268042
0.417587 2.307581 -0.286090
0.411441 2.279424 -0.288029
0.405147 2.251031 -0.285098
0.398920 2.223471 -0.277430
0.392935 2.197806 -0.265347
0.387279 2.175060 -0.249335
0.382090 2.156143 -0.230010
0.377541 2.141809 -0.208096
0.373832 2.132607 -0.184403
0.371091 2.128901 -0.159813
0.369404 2.130835 -0.135256
0.368833 2.138333 -0.111668
0.369413 2.151110 -0.089961
0.371156 2.168679 -0.070977
0.374040 2.190366 -0.055460
0.377996 2.215336 -0.044017
0.382912 2.242612 -0.037096
0.388672 2.271108 -0.034962
0.420572 2.255890 0.091000
0.472584 2.236460 0.215489
0.408781 2.199872 0.086704
0.433741 2.312111 0.085688
0.492516 2.319746 0.207665
0.447704 2.366348 0.070969
0.513539 2.400115 0.185885
0.461862 2.416517 0.047403
0.534873 2.474453 0.150988
0.475308 2.460783 0.015872
0.555220 2.540007 0.104288
0.629620 2.529259 0.258039
0.600059 2.430483 0.304447
0.706563 2.442687 0.394542
0.571415 2.323522 0.333413
0.672320 2.316103 0.428810
0.544764 2.212500 0.343822
0.640215 2.184729 0.441098
0.520670 2.101821 0.335249
0.610647 2.053804 0.430889
0.454568 2.153492 0.209057
0.498610 1.996113 0.307938
0.583228 1.928725 0.398493
0.438502 2.074244 0.188579
0.480119 1.899348 0.262991
0.559909 1.814182 0.345209
0.425414 2.001742 0.154875
0.467015 1.815079 0.202225
0.543012 1.714360 0.273178
0.416347 1.938715 0.109300
0.459681 1.746666 0.128015
0.533270 1.633187 0.185201
0.411392 1.887658 0.053652
0.457081 1.697142 0.043220
0.529390 1.574263 0.084619
0.409963 1.850658 -0.009866
0.459348 1.668460 -0.048733
0.531123 1.540027 -0.024606
0.411944 1.829048 -0.078651
0.466593 1.661457 -0.143975
0.538576 1.531601 -0.138008
0.417307 1.823530 -0.149840
0.478943 1.675972 -0.238309
0.552077 1.548841 -0.250716
0.426376 1.834252 -0.220450
0.497859 1.711580 -0.327506
0.573479 1.591259 -0.357647
0.439904 1.860854 -0.287544
0.524461 1.767627 -0.407661
0.604700 1.658484 -0.453710
0.458211 1.902464 -0.348508
0.558317 1.842709 -0.475624
0.646035 1.749493 -0.534460
0.479860 1.957689 -0.401654
0.592236 1.933286 -0.532568
0.688319 1.858811 -0.600856
0.500852 2.024213 -0.446647
0.612512 2.031883 -0.581586
0.711441 1.974051 -0.659091
0.517293 2.098656 -0.482768
0.624998 2.135297 -0.616190
0.726308 2.094498 -0.700437
0.530889 2.177954 -0.507179
0.644517 2.242320 -0.628545
0.752170 2.221143 -0.713862
0.545180 2.259770 -0.517365
0.664283 2.351344 -0.623697
0.777384 2.350218 -0.707317
0.560096 2.341665 -0.513314
0.679994 2.457329 -0.602671
0.796947 2.475070 -0.681945
0.573768 2.420634 -0.495514
0.695851 2.554070 -0.561917
0.816733 2.589227 -0.632800
0.586266 2.493093 -0.464028
0.711567 2.637652 -0.503040
0.836039 2.688042 -0.562390
0.597495 2.555946 -0.419791
0.724779 2.705154 -0.429380
0.852334 2.767869 -0.474748
0.606304 2.606832 -0.364707
0.732591 2.754420 -0.344495
0.862243 2.826096 -0.373991
0.611275 2.643975 -0.301187
0.734090 2.783624 -0.251965
0.864352 2.860632 -0.264304
0.729263 2.791595 -0.155479
0.611967 2.665956 -0.231859
0.513081 2.545990 -0.210915
0.608261 2.671922 -0.159497
0.512920 2.531134 -0.257640
0.510104 2.506005 -0.300456
0.504806 2.471584 -0.337667
0.497434 2.429199 -0.367795
0.488436 2.380514 -0.389670
0.478135 2.327472 -0.402492
0.466996 2.272116 -0.405810
0.455720 2.216437 -0.399520
0.444348 2.162455 -0.383996
0.432715 2.112129 -0.360087
0.420693 2.067467 -0.328906
0.409003 2.030344 -0.291562
0.398700 2.002291 -0.249212
0.390602 1.984362 -0.203231
0.384875 1.977201 -0.155269
0.381392 1.981029 -0.107150
0.380069 1.995681 -0.060761
0.381007 2.020627 -0.017953
0.384351 2.054973 0.019553
0.390234 2.097420 0.050259
0.398528 2.146345 0.072944
0.858618 2.870109 -0.150011
1.006788 2.910553 -0.142580
0.845978 2.854006 -0.035517
0.993295 2.892624 -0.015652
1.153372 2.900912 0.001099
1.167445 2.920004 -0.133744
1.132290 2.852433 0.130942
1.173912 2.908880 -0.268369
1.172518 2.867901 -0.397564
1.013000 2.900063 -0.269292
1.011479 2.861553 -0.390881
1.002330 2.796517 -0.502599
1.163369 2.798643 -0.516321
0.986330 2.707464 -0.599987
1.146952 2.703838 -0.620010
0.965288 2.597749 -0.678929
1.124216 2.587265 -0.704544
0.940780 2.471597 -0.735794
1.096274 2.453444 -0.766516
0.913625 2.334002 -0.768336
1.064193 2.307456 -0.803567
0.882633 2.190783 -0.777456
1.028852 2.154913 -0.814643
0.851130 2.048287 -0.762188
0.992138 2.001945 -0.799153
0.824337 1.911872 -0.719760
0.955901 1.854368 -0.757168
0.794512 1.783436 -0.655822
0.919085 1.716742 -0.691320
0.754244 1.665762 -0.577616
0.880406 1.593700 -0.605666
0.711612 1.566759 -0.485189
0.842799 1.490782 -0.502915
0.678581 1.492743 -0.376602
0.811616 1.413041 -0.384991
0.655380 1.445902 -0.256549
0.788379 1.363560 -0.256237
0.640478 1.427222 -0.130760
0.773119 1.343996 -0.122016
0.633027 1.437158 -0.004625
0.765852 1.354864 0.012273
0.632890 1.475374 0.116720
0.766647 1.395651 0.141343
0.639972 1.540466 0.228454
0.775404 1.464791 0.260158
0.654080 1.629931 0.326202
0.791756 1.559687 0.364091
0.675269 1.740227 0.406180
0.815145 1.676806 0.449089
0.702589 1.867069 0.465291
0.844613 1.811634 0.511867
0.734458 2.005550 0.501248
0.878917 1.958820 0.550043
0.769241 2.150283 0.512671
0.916613 2.112489 0.562199
0.806158 2.295594 0.499138
0.956322 2.266746 0.547856
3 5 4 0
3 5 0 1
3 1 0 2
3 1 2 65
3 0 3 2
3 4 3 0
3 7 6 4
3 7 4 5
3 6 3 4
3 9 8 6
3 9 6 7
3 8 3 6
3 11 10 8
3 11 8 9
3 10 3 8
3 13 12 10
3 13 10 11
3 12 3 10
3 15 14 12
3 15 12 13
3 14 3 12
3 17 16 14
3 17 14 15
3 16 3 14
3 19 18 16
3 19 16 17
3 18 3 16
3 21 20 18
3 21 18 19
3 20 3 18
3 23 22 20
3 23 20 21
3 22 3 20
3 25 24 22
3 25 22 23
3 24 3 22
3 27 26 24
3 27 24 25
3 26 3 24
3 28 3 26
3 29 28 26
3 29 26 27
3 31 30 28
3 31 28 29
3 30 3 28
3 33 32 30
3 33 30 31
3 32 3 30
3 35 34 32
3 35 32 33
3 34 3 32
3 37 36 34
3 37 34 35
3 36 3 34
3 39 38 36
3 39 36 37
3 38 3 36
3 41 40 38
3 41 38 39
3 40 3 38
3 43 42 40
3 43 40 41
3 42 3 40
3 45 44 42
3 45 42 43
3 44 3 42
3 47 46 44
3 47 44 45
3 46 3 44
3 49 48 46
3 49 46 47
3 48 3 46
3 51 50 48
3 51 48 49
3 50 3 48
3 53 52 50
3 53 50 51
3 52 3 50
3 55 54 52
3 55 52 53
3 54 3 52
3 57 56 54
3 57 54 55
3 56 3 54
3 59 58 56
3 59 56 57
3 58 3 56
3 61 60 58
3 61 58 59
3 60 3 58
3 63 62 60
3 63 60 61
3 62 3 60
3 65 2 62
3 65 62 63
3 2 3 62
3 64 63 61
3 64 61 126
3 66 65 63
3 66 63 64
3 68 1 65
3 68 65 66
3 67 66 64
3 67 64 129
3 69 68 66
3 69 66 67
3 70 5 1
3 70 1 68
3 71 70 68
3 71 68 69
3 72 7 5
3 72 5 70
3 73 72 70
3 73 70 71
3 74 9 7
3 74 7 72
3 75 74 72
3 75 72 73
3 76 11 9
3 76 9 74
3 77 76 74
3 77 74 75
3 78 13 11
3 78 11 76
3 79 78 76
3 79 76 77
3 80 15 13
3 80 13 78
3 81 80 78
3 81 78 79
3 82 17 15
3 82 15 80
3 83 82 80
3 83 80 81
3 84 19 17
3 84 17 82
3 85 84 82
3 85 82 83
3 86 21 19
3 86 19 84
3 87 86 84
3 87 84 85
3 88 23 21
3 88 21 86
3 89 88 86
3 89 86 87
3 90 25 23
3 90 23 88
3 91 90 88
3 91 88 89
3 92 27 25
3 92 25 90
3 93 92 90
3 93 90 91
3 94 29 27
3 94 27 92
3 95 94 92
3 95 92 93
3 96 31 29
3 96 29 94
3 97 96 94
3 97 94 95
3 98 33 31
3 98 31 96
3 99 98 96
3 99 96 97
3 100 35 33
3 100 33 98
3 101 100 98
3 101 98 99
3 102 37 35
3 102 35 100
3 103 102 100
3 103 100 101
3 104 39 37
3 104 37 102
3 105 104 102
3 105 102 103
3 106 41 39
3 106 39 104
3 107 106 104
3 107 104 105
3 108 43 41
3 108 41 106
3 109 108 106
3 109 106 107
3 110 45 43
3 110 43 108
3 111 110 108
3 111 108 109
3 112 47 45
3 112 45 110
3 113 112 110
3 113 110 111
3 114 49 47
3 114 47 112
3 115 114 112
3 115 112 113
3 116 51 49
3 116 49 114
3 117 116 114
3 117 114 115
3 118 53 51
3 118 51 116
3 119 118 116
3 119 116 117
3 120 55 53
3 120 53 118
3 121 120 118
3 121 118 119
3 122 57 55
3 122 55 120
3 123 122 120
3 123 120 121
3 124 59 57
3 124 57 122
3 125 124 122
3 125 122 123
3 126 61 59
3 126 59 124
3 127 126 124
3 127 124 125
3 129 64 126
3 129 126 127
3 128 127 125
3 128 125 190
3 130 129 127
3 130 127 128
3 132 67 129
3 132 129 130
3 131 130 128
3 131 128 193
3 133 132 130
3 133 130 131
3 134 69 67
3 134 67 132
3 135 134 132
3 135 132 133
3 136 71 69
3 136 69 134
3 137 136 134
3 137 134 135
3 138 73 71
3 138 71 136
3 139 138 136
3 139 136 137
3 140 75 73
3 140 73 138
3 141 140 138
3 141 138 139
3 142 77 75
3 142 75 140
3 143 142 140
3 143 140 141
3 144 79 77
3 144 77 142
3 145 144 142
3 145 142 143
3 146 81 79
3 146 79 144
3 147 146 144
3 147 144 145
3 148 83 81
3 148 81 146
3 149 148 146
3 149 146 147
3 150 85 83
3 150 83 148
3 151 150 148
3 151 148 149
3 152 87 85
3 152 85 150
3 153 152 150
3 153 150 151
3 154 89 87
3 154 87 152
3 155 154 152
3 155 152 153
3 156 91 89
3 156 89 154
3 157 156 154
3 157 154 155
3 158 93 91
3 158 91 156
3 159 158 156
3 159 156 157
3 160 95 93
3 160 93 158
3 161 160 158
3 161 158 159
3 162 97 95
3 162 95 160
3 163 162 160
3 163 160 161
3 164 99 97
3 164 97 162
3 165 164 162
3 165 162 163
3 166 101 99
3 166 99 164
3 167 166 164
3 167 164 165
3 168 103 101
3 168 101 166
3 169 168 166
3 169 166 167
3 170 105 103
3 170 103 168
3 171 170 168
3 171 168 169
3 172 107 105
3 172 105 170
3 173 172 170
3 173 170 171
3 174 109 107
3 174 107 172
3 175 174 172
3 175 172 173
3 176 111 109
3 176 109 174
3 177 176 174
3 177 174 175
3 178 113 111
3 178 111 176
3 179 178 176
3 179 176 177
3 180 115 113
3 180 113 178
3 181 180 178
3 181 178 179
3 182 117 115
3 182 115 180
3 183 182 180
3 183 180 181
3 184 119 117
3 184 117 182
3 185 184 182
3 185 182 183
3 186 121 119
3 186 119 184
3 187 186 184
3 187 184 185
3 188 123 121
3 188 121 186
3 189 188 186
3 189 186 187
3 190 125 123
3 190 123 188
3 191 190 188
3 191 188 189
3 193 128 190
3 193 190 191
3 192 191 189
3 192 189 203
3 194 193 191
3 194 191 192
3 195 131 193
3 195 193 194
3 198 195 194
3 198 194 196
3 196 194 192
3 196 192 199
3 289 198 196
3 289 196 197
3 197 196 199
3 197 199 200
3 200 199 201
3 200 201 202
3 199 192 203
3 199 203 201
3 202 201 204
3 202 204 205
3 201 203 206
3 201 206 204
3 205 204 207
3 205 207 208
3 204 206 209
3 204 209 207
3 208 207 210
3 208 210 211
3 207 209 212
3 207 212 210
3 211 210 213
3 211 213 214
3 210 212 215
3 210 215 213
3 214 213 216
3 214 216 217
3 213 215 218
3 213 218 216
3 217 216 219
3 217 219 220
3 216 218 221
3 216 221 219
3 220 219 222
3 220 222 223
3 219 221 224
3 219 224 222
3 223 222 225
3 223 225 226
3 222 224 227
3 222 227 225
3 226 225 228
3 226 228 229
3 225 227 230
3 225 230 228
3 229 228 231
3 229 231 232
3 228 230 233
3 228 233 231
3 232 231 234
3 232 234 235
3 231 233 236
3 231 236 234
3 235 234 237
3 235 237 238
3 234 236 239
3 234 239 237
3 238 237 240
3 238 240 241
3 237 239 242
3 237 242 240
3 241 240 243
3 241 243 244
3 240 242 245
3 240 245 243
3 244 243 246
3 244 246 247
3 243 245 248
3 243 248 246
3 247 246 249
3 247 249 250
3 246 248 251
3 246 251 249
3 250 249 252
3 250 252 253
3 249 251 254
3 249 254 252
3 253 252 255
3 253 255 256
3 252 254 257
3 252 257 255
3 256 255 258
3 256 258 259
3 255 257 260
3 255 260 258
3 259 258 261
3 259 261 262
3 258 260 263
3 258 263 261
3 262 261 264
3 262 264 265
3 261 263 266
3 261 266 264
3 265 264 267
3 265 267 268
3 264 266 269
3 264 269 267
3 268 267 270
3 268 270 271
3 267 269 272
3 267 272 270
3 271 270 273
3 271 273 274
3 270 272 275
3 270 275 273
3 274 273 276
3 274 276 277
3 273 275 278
3 273 278 276
3 277 276 279
3 277 279 280
3 276 278 281
3 276 281 279
3 280 279 282
3 280 282 283
3 279 281 284
3 279 284 282
3 283 282 285
3 283 285 286
3 282 284 287
3 282 287 285
3 286 285 198
3 286 198 289
3 285 287 195
3 285 195 198
3 287 133 131
3 287 131 195
3 284 135 133
3 284 133 287
3 288 286 289
3 288 289 290
3 513 283 286
3 513 286 288
3 290 289 197
3 290 197 291
3 292 290 291
3 292 291 295
3 294 288 290
3 294 290 292
3 293 292 295
3 293 295 296
3 359 294 292
3 359 292 293
3 295 291 298
3 295 298 297
3 296 295 297
3 296 297 300
3 297 298 463
3 297 463 299
3 300 297 299
3 300 299 301
3 302 300 301
3 302 301 305
3 304 296 300
3 304 300 302
3 303 302 305
3 303 305 307
3 356 304 302
3 356 302 303
3 305 301 459
3 305 459 306
3 307 305 306
3 307 306 308
3 309 307 308
3 309 308 312
3 311 303 307
3 311 307 309
3 310 309 312
3 310 312 314
3 322 311 309
3 322 309 310
3 312 308 435
3 312 435 313
3 314 312 313
3 314 313 315
3 316 314 315
3 316 310 314
3 316 315 323
3 316 317 328
3 316 327 317
3 316 345 318
3 316 318 319
3 316 319 320
3 316 320 321
3 316 321 322
3 316 322 310
3 316 323 324
3 316 324 325
3 316 325 326
3 316 326 327
3 316 328 329
3 316 329 330
3 316 330 331
3 316 331 332
3 316 332 333
3 316 333 334
3 316 334 335
3 316 335 336
3 316 336 337
3 316 337 338
3 316 338 339
3 316 339 340
3 316 340 341
3 316 341 342
3 316 342 343
3 316 343 344
3 316 344 345
3 345 346 349
3 345 349 318
3 344 348 346
3 344 346 345
3 346 347 350
3 346 350 349
3 348 366 347
3 348 347 346
3 349 350 352
3 349 352 351
3 318 349 351
3 318 351 319
3 351 352 354
3 351 354 353
3 319 351 353
3 319 353 320
3 353 354 356
3 353 356 355
3 320 353 355
3 320 355 321
3 355 356 303
3 355 303 311
3 321 355 311
3 321 311 322
3 354 357 304
3 354 304 356
3 352 358 357
3 352 357 354
3 357 293 296
3 357 296 304
3 358 359 293
3 358 293 357
3 360 361 359
3 360 359 358
3 350 360 358
3 350 358 352
3 362 363 361
3 362 361 360
3 347 362 360
3 347 360 350
3 364 365 363
3 364 363 362
3 366 364 362
3 366 362 347
3 367 368 365
3 367 365 364
3 369 367 364
3 369 364 366
3 370 371 368
3 370 368 367
3 372 370 367
3 372 367 369
3 373 374 371
3 373 371 370
3 375 373 370
3 375 370 372
3 376 377 374
3 376 374 373
3 378 376 373
3 378 373 375
3 379 380 377
3 379 377 376
3 381 379 376
3 381 376 378
3 382 383 380
3 382 380 379
3 384 382 379
3 384 379 381
3 385 386 383
3 385 383 382
3 387 385 382
3 387 382 384
3 388 389 386
3 388 386 385
3 390 388 385
3 390 385 387
3 391 392 389
3 391 389 388
3 393 391 388
3 393 388 390
3 394 395 392
3 394 392 391
3 396 394 391
3 396 391 393
3 397 398 395
3 397 395 394
3 399 397 394
3 399 394 396
3 400 401 398
3 400 398 397
3 402 400 397
3 402 397 399
3 403 404 401
3 403 401 400
3 405 403 400
3 405 400 402
3 406 407 404
3 406 404 403
3 408 406 403
3 408 403 405
3 409 410 407
3 409 407 406
3 411 409 406
3 411 406 408
3 412 413 410
3 412 410 409
3 414 412 409
3 414 409 411
3 415 416 413
3 415 413 412
3 417 415 412
3 417 412 414
3 418 419 416
3 418 416 415
3 420 418 415
3 420 415 417
3 421 422 419
3 421 419 418
3 423 421 418
3 423 418 420
3 424 425 422
3 424 422 421
3 426 424 421
3 426 421 423
3 427 428 425
3 427 425 424
3 429 427 424
3 429 424 426
3 430 431 428
3 430 428 427
3 433 430 427
3 433 427 429
3 432 457 431
3 432 431 430
3 435 432 430
3 435 430 433
3 434 433 429
3 434 429 436
3 313 435 433
3 313 433 434
3 308 306 432
3 308 432 435
3 323 434 436
3 323 436 324
3 315 313 434
3 315 434 323
3 436 429 426
3 436 426 437
3 324 436 437
3 324 437 325
3 437 426 423
3 437 423 438
3 325 437 438
3 325 438 326
3 438 423 420
3 438 420 439
3 326 438 439
3 326 439 327
3 439 420 417
3 439 417 440
3 327 439 440
3 327 440 317
3 440 417 414
3 440 414 441
3 317 440 441
3 317 441 328
3 441 414 411
3 441 411 442
3 328 441 442
3 328 442 329
3 442 411 408
3 442 408 443
3 329 442 443
3 329 443 330
3 443 408 405
3 443 405 444
3 330 443 444
3 330 444 331
3 444 405 402
3 444 402 445
3 331 444 445
3 331 445 332
3 445 402 399
3 445 399 446
3 332 445 446
3 332 446 333
3 446 399 396
3 446 396 447
3 333 446 447
3 333 447 334
3 447 396 393
3 447 393 448
3 334 447 448
3 334 448 335
3 448 393 390
3 448 390 449
3 335 448 449
3 335 449 336
3 449 390 387
3 449 387 450
3 336 449 450
3 336 450 337
3 450 387 384
3 450 384 451
3 337 450 451
3 337 451 338
3 451 384 381
3 451 381 452
3 338 451 452
3 338 452 339
3 452 381 378
3 452 378 453
3 339 452 453
3 339 453 340
3 453 378 375
3 453 375 454
3 340 453 454
3 340 454 341
3 454 375 372
3 454 372 455
3 341 454 455
3 341 455 342
3 455 372 369
3 455 369 456
3 342 455 456
3 342 456 343
3 456 369 366
3 456 366 348
3 343 456 348
3 343 348 344
3 306 459 457
3 306 457 432
3 457 458 466
3 457 466 431
3 459 460 458
3 459 458 457
3 301 299 460
3 301 460 459
3 460 461 462
3 460 462 458
3 299 463 461
3 299 461 460
3 461 205 208
3 461 208 462
3 463 202 205
3 463 205 461
3 298 200 202
3 298 202 463
3 462 208 211
3 462 211 464
3 458 462 464
3 458 464 466
3 464 211 214
3 464 214 465
3 466 464 465
3 466 465 467
3 431 466 467
3 431 467 428
3 467 465 469
3 467 469 468
3 428 467 468
3 428 468 425
3 468 469 471
3 468 471 470
3 425 468 470
3 425 470 422
3 470 471 473
3 470 473 472
3 422 470 472
3 422 472 419
3 472 473 475
3 472 475 474
3 419 472 474
3 419 474 416
3 474 475 477
3 474 477 476
3 416 474 476
3 416 476 413
3 476 477 479
3 476 479 478
3 413 476 478
3 413 478 410
3 478 479 481
3 478 481 480
3 410 478 480
3 410 480 407
3 480 481 483
3 480 483 482
3 407 480 482
3 407 482 404
3 482 483 485
3 482 485 484
3 404 482 484
3 404 484 401
3 484 485 487
3 484 487 486
3 401 484 486
3 401 486 398
3 486 487 489
3 486 489 488
3 398 486 488
3 398 488 395
3 488 489 491
3 488 491 490
3 395 488 490
3 395 490 392
3 490 491 493
3 490 493 492
3 392 490 492
3 392 492 389
3 492 493 495
3 492 495 494
3 389 492 494
3 389 494 386
3 494 495 497
3 494 497 496
3 386 494 496
3 386 496 383
3 496 497 499
3 496 499 498
3 383 496 498
3 383 498 380
3 498 499 501
3 498 501 500
3 380 498 500
3 380 500 377
3 500 501 503
3 500 503 502
3 377 500 502
3 377 502 374
3 502 503 505
3 502 505 504
3 374 502 504
3 374 504 371
3 504 505 507
3 504 507 506
3 371 504 506
3 371 506 368
3 506 507 509
3 506 509 508
3 368 506 508
3 368 508 365
3 508 509 511
3 508 511 510
3 365 508 510
3 365 510 363
3 510 511 513
3 510 513 512
3 363 510 512
3 363 512 361
3 512 513 288
3 512 288 294
3 361 512 294
3 361 294 359
3 511 280 283
3 511 283 513
3 509 277 280
3 509 280 511
3 507 274 277
3 507 277 509
3 505 271 274
3 505 274 507
3 503 268 271
3 503 271 505
3 501 265 268
3 501 268 503
3 499 262 265
3 499 265 501
3 497 259 262
3 497 262 499
3 495 256 259
3 495 259 497
3 493 253 256
3 493 256 495
3 491 250 253
3 491 253 493
3 489 247 250
3 489 250 491
3 487 244 247
3 487 247 489
3 485 241 244
3 485 244 487
3 483 238 241
3 483 241 485
3 481 235 238
3 481 238 483
3 479 232 235
3 479 235 481
3 477 229 232
3 477 232 479
3 475 226 229
3 475 229 477
3 473 223 226
3 473 226 475
3 471 220 223
3 471 223 473
3 469 217 220
3 469 220 471
3 465 214 217
3 465 217 469
3 291 197 200
3 291 200 298
3 281 137 135
3 281 135 284
3 278 139 137
3 278 137 281
3 275 141 139
3 275 139 278
3 272 143 141
3 272 141 275
3 269 145 143
3 269 143 272
3 266 147 145
3 266 145 269
3 263 149 147
3 263 147 266
3 260 151 149
3 260 149 263
3 257 153 151
3 257 151 260
3 254 155 153
3 254 153 257
3 251 157 155
3 251 155 254
3 248 159 157
3 248 157 251
3 245 161 159
3 245 159 248
3 242 163 161
3 242 161 245
3 239 165 163
3 239 163 242
3 236 167 165
3 236 165 239
3 233 169 167
3 233 167 236
3 230 171 169
3 230 169 233
3 227 173 171
3 227 171 230
3 224 175 173
3 224 173 227
3 221 177 175
3 221 175 224
3 218 179 177
3 218 177 221
3 215 181 179
3 215 179 218
3 212 183 181
3 212 181 215
3 209 185 183
3 209 183 212
3 206 187 185
3 206 185 209
3 203 189 187
3 203 187 206
