ply
format ascii 1.0
element vertex 1120
property float x
property float y
property float z
element face 2236
property list uchar int vertex_index
end_header
0.290017 2.668050 -0.151210
0.289904 2.668193 -0.151036
0.290977 2.668296 -0.151891
0.288231 2.659659 -0.153852
0.287943 2.659940 -0.153464
0.290046 2.660193 -0.155188
0.287492 2.650193 -0.157287
0.286976 2.650620 -0.156646
0.290220 2.651088 -0.159338
0.288160 2.638934 -0.162159
0.287466 2.639535 -0.161314
0.292154 2.640328 -0.165167
0.291074 2.629902 -0.167867
0.289299 2.630458 -0.166106
0.295339 2.631597 -0.170943
0.298010 2.621469 -0.176516
0.294169 2.621721 -0.173208
0.299863 2.603043 -0.139530
0.301930 2.623351 -0.179072
0.305848 2.627282 -0.180787
0.302889 2.604675 -0.142110
0.315162 2.589403 -0.105192
0.305820 2.608382 -0.143882
0.317783 2.592994 -0.106875
0.308676 2.614064 -0.144834
0.309765 2.633126 -0.181621
0.320277 2.598523 -0.107648
0.311576 2.621539 -0.144986
0.313757 2.640668 -0.181576
0.322704 2.605818 -0.107527
0.314714 2.630527 -0.144361
0.317939 2.649608 -0.180661
0.325209 2.614631 -0.106533
0.318322 2.640588 -0.142941
0.322426 2.659538 -0.178880
0.328066 2.624633 -0.104649
0.322614 2.651152 -0.140662
0.327271 2.669978 -0.176228
0.331630 2.635340 -0.101820
0.327618 2.661652 -0.137455
0.332368 2.680470 -0.172721
0.336022 2.646163 -0.098019
0.333165 2.671704 -0.133275
0.337435 2.690638 -0.168426
0.340830 2.656607 -0.093342
0.338530 2.681152 -0.128226
0.341991 2.700205 -0.163480
0.345358 2.666397 -0.087981
0.342868 2.689891 -0.122548
0.345527 2.708941 -0.158087
0.348963 2.675339 -0.082169
0.345597 2.697713 -0.116549
0.347645 2.716580 -0.152510
0.351221 2.683215 -0.076172
0.346534 2.704264 -0.110618
0.348174 2.722806 -0.147063
0.351978 2.689738 -0.070297
0.345786 2.709165 -0.105137
0.347152 2.727301 -0.142080
0.351283 2.694594 -0.064867
0.343559 2.712110 -0.100446
0.344713 2.729796 -0.137881
0.349283 2.697516 -0.060188
0.340052 2.712921 -0.096811
0.341005 2.730145 -0.134720
0.346153 2.698328 -0.056511
0.335426 2.711578 -0.094399
0.336138 2.728358 -0.132758
0.342058 2.696991 -0.054001
0.329792 2.708212 -0.093267
0.330191 2.724610 -0.132037
0.337149 2.693598 -0.052724
0.323254 2.703073 -0.093367
0.323251 2.719212 -0.132480
0.331585 2.688340 -0.052648
0.315989 2.696451 -0.094568
0.315512 2.712521 -0.133905
0.325592 2.681461 -0.053666
0.308375 2.688580 -0.096684
0.307395 2.704799 -0.136069
0.319511 2.673198 -0.055621
0.301091 2.679582 -0.099494
0.299580 2.696107 -0.138724
0.313823 2.663754 -0.058347
0.295053 2.669505 -0.102760
0.292879 2.686397 -0.141678
0.309047 2.653345 -0.061701
0.290847 2.658576 -0.106324
0.287885 2.675778 -0.144849
0.305505 2.642308 -0.065621
0.288490 2.647305 -0.110164
0.284800 2.664685 -0.148273
0.303259 2.631146 -0.070099
0.287612 2.636352 -0.114310
0.283470 2.653803 -0.152031
0.302236 2.620463 -0.075051
0.287939 2.626339 -0.118735
0.283639 2.643836 -0.156146
0.302297 2.610766 -0.080240
0.289237 2.617768 -0.123330
0.285045 2.635351 -0.160529
0.303260 2.602442 -0.085442
0.291296 2.610988 -0.127916
0.287443 2.628718 -0.164992
0.304954 2.595809 -0.090468
0.293897 2.606212 -0.132280
0.290571 2.624143 -0.169298
0.307178 2.591093 -0.095124
0.296817 2.603552 -0.136211
0.309736 2.588423 -0.099226
0.324888 2.574478 -0.062314
0.312447 2.587861 -0.102620
0.327692 2.573968 -0.065738
0.341126 2.559821 -0.029959
0.330575 2.575586 -0.068256
0.344239 2.561546 -0.032413
0.333439 2.579254 -0.069786
0.347398 2.565341 -0.033816
0.336209 2.584847 -0.070296
0.350487 2.571067 -0.034131
0.338877 2.592171 -0.069793
0.353450 2.578511 -0.033359
0.341500 2.600957 -0.068307
0.356305 2.587387 -0.031534
0.344124 2.610871 -0.065900
0.359128 2.597349 -0.028704
0.346883 2.621474 -0.062630
0.361972 2.608018 -0.024918
0.349985 2.632293 -0.058498
0.364798 2.619002 -0.020254
0.353354 2.642899 -0.053554
0.367487 2.629912 -0.014821
0.356561 2.652952 -0.047960
0.369808 2.640365 -0.008793
0.359093 2.662164 -0.041954
0.371483 2.650000 -0.002409
0.360583 2.670258 -0.035807
0.372284 2.658453 0.004051
0.360874 2.676930 -0.029816
0.372099 2.665386 0.010287
0.359971 2.681875 -0.024287
0.370930 2.670475 0.015992
0.357977 2.684835 -0.019514
0.368854 2.673458 0.020872
0.355037 2.685640 -0.015739
0.365997 2.674170 0.024686
0.351312 2.684237 -0.013131
0.362505 2.672577 0.027279
0.346969 2.680694 -0.011773
0.358543 2.668755 0.028574
0.342189 2.675183 -0.011659
0.354283 2.662872 0.028545
0.337189 2.667939 -0.012716
0.349908 2.655170 0.027220
0.332245 2.659237 -0.014830
0.345593 2.645965 0.024672
0.327687 2.649366 -0.017874
0.341536 2.635633 0.021024
0.323822 2.638667 -0.021733
0.337919 2.624605 0.016467
0.320849 2.627558 -0.026295
0.334948 2.613325 0.011255
0.318846 2.616520 -0.031412
0.332804 2.602220 0.005629
0.317813 2.606030 -0.036887
0.331589 2.591704 -0.000219
0.317751 2.596505 -0.042478
0.331329 2.582169 -0.006118
0.318586 2.588312 -0.047999
0.331982 2.573984 -0.011890
0.320156 2.581773 -0.053276
0.333434 2.567457 -0.017344
0.322328 2.577103 -0.058103
0.335541 2.562834 -0.022292
0.346903 2.548028 0.012036
0.338165 2.560256 -0.026545
0.349562 2.545471 0.007743
0.360583 2.530830 0.041268
0.352659 2.545081 0.004329
0.363669 2.530432 0.037806
0.356043 2.546862 0.001919
0.367103 2.532233 0.035334
0.359579 2.550755 0.000608
0.370765 2.536162 0.033956
0.363154 2.556616 0.000452
0.374561 2.542083 0.033746
0.366677 2.564230 0.001462
0.378446 2.549790 0.034743
0.370085 2.573308 0.003600
0.382336 2.559016 0.036935
0.373365 2.583497 0.006791
0.386158 2.569429 0.040245
0.376508 2.594413 0.010950
0.389751 2.580639 0.044530
0.379460 2.605671 0.015990
0.392940 2.592209 0.049604
0.382069 2.616889 0.021783
0.395548 2.603681 0.055259
0.384092 2.627662 0.028114
0.397409 2.614599 0.061271
0.385303 2.637543 0.034666
0.398416 2.624527 0.067420
0.385587 2.646088 0.041089
0.398535 2.633073 0.073468
0.384929 2.652926 0.047075
0.397747 2.639909 0.079173
0.383400 2.657797 0.052398
0.396124 2.644781 0.084292
0.381094 2.660532 0.056887
0.393737 2.647515 0.088604
0.378111 2.661032 0.060361
0.390701 2.648018 0.091924
0.374579 2.659279 0.062684
0.387148 2.646277 0.094123
0.370644 2.655342 0.063777
0.383216 2.642355 0.095133
0.366459 2.649374 0.063617
0.379047 2.636388 0.094953
0.362188 2.641599 0.062234
0.374775 2.628580 0.093643
0.357983 2.632313 0.059707
0.370553 2.619207 0.091295
0.354015 2.621874 0.056145
0.366514 2.608623 0.088019
0.350431 2.610690 0.051676
0.362810 2.597245 0.083919
0.347408 2.599210 0.046478
0.359614 2.585541 0.079105
0.345104 2.587894 0.040752
0.357096 2.573996 0.073719
0.343651 2.577189 0.034719
0.355414 2.563081 0.067945
0.343123 2.567516 0.028608
0.354671 2.553228 0.062011
0.343544 2.559241 0.022651
0.354895 2.544812 0.056156
0.344844 2.552669 0.017062
0.356044 2.538134 0.050612
0.368464 2.524004 0.084134
0.357989 2.533423 0.045589
0.370322 2.519182 0.079227
0.383648 2.505773 0.112311
0.372874 2.516527 0.074944
0.386084 2.502979 0.108184
0.375957 2.516120 0.071466
0.389147 2.502537 0.104802
0.379427 2.517962 0.068934
0.392655 2.504404 0.102298
0.383160 2.521972 0.067450
0.396493 2.508521 0.100777
0.387070 2.528020 0.067084
0.400578 2.514731 0.100272
0.391097 2.535897 0.067854
0.404848 2.522811 0.100765
0.395179 2.545326 0.069728
0.409236 2.532465 0.102182
0.399230 2.555974 0.072615
0.413623 2.543349 0.104403
0.403073 2.567450 0.076375
0.417834 2.555087 0.107293
0.406514 2.579318 0.080839
0.421656 2.567277 0.110725
0.409334 2.591109 0.085827
0.424844 2.579462 0.114608
0.411351 2.602331 0.091161
0.427174 2.591133 0.118879
0.412439 2.612519 0.096689
0.428500 2.601730 0.123511
0.412584 2.621254 0.102229
0.428798 2.610722 0.128436
0.411802 2.628204 0.107559
0.428118 2.617768 0.133427
0.410166 2.633134 0.112421
0.426539 2.622683 0.138168
0.407770 2.635893 0.116565
0.424195 2.625368 0.142330
0.404741 2.636413 0.119779
0.421210 2.625794 0.145641
0.401204 2.634684 0.121926
0.417713 2.623973 0.147940
0.397292 2.630760 0.122956
0.413829 2.619954 0.149185
0.393135 2.624753 0.122912
0.409657 2.613834 0.149452
0.388851 2.616832 0.121899
0.405287 2.605763 0.148892
0.384556 2.607252 0.120047
0.400802 2.595962 0.147670
0.380370 2.596372 0.117448
0.396342 2.584801 0.145853
0.376470 2.584647 0.114126
0.392104 2.572821 0.143372
0.373043 2.572596 0.110111
0.388308 2.560544 0.140173
0.370282 2.560738 0.105476
0.385180 2.548465 0.136278
0.368363 2.549549 0.100354
0.382906 2.537058 0.131808
0.367412 2.539465 0.094936
0.381584 2.526735 0.126953
0.367456 2.530845 0.089450
0.381312 2.517901 0.121925
0.396912 2.506140 0.153273
0.381994 2.510797 0.116968
0.397309 2.498846 0.148572
0.414525 2.486867 0.179736
0.398759 2.493678 0.144101
0.415747 2.481581 0.175404
0.401067 2.490793 0.140103
0.417933 2.478644 0.171471
0.404085 2.490305 0.136782
0.420949 2.478172 0.168139
0.407679 2.492234 0.134283
0.424632 2.480170 0.165554
0.411657 2.496449 0.132699
0.428834 2.484555 0.163831
0.416005 2.502833 0.132041
0.433470 2.491119 0.162961
0.420626 2.511112 0.132267
0.438435 2.499573 0.162912
0.425401 2.520947 0.133292
0.443581 2.509554 0.163608
0.430171 2.531958 0.135001
0.448743 2.520674 0.164932
0.434751 2.543761 0.137277
0.453727 2.532520 0.166769
0.438923 2.555956 0.140031
0.458280 2.544601 0.169082
0.442446 2.568099 0.143237
0.462121 2.556407 0.171923
0.445091 2.579695 0.146920
0.464996 2.567452 0.175350
0.446679 2.590178 0.151114
0.466730 2.577315 0.179360
0.447143 2.599035 0.155755
0.467270 2.585654 0.183833
0.446528 2.605922 0.160612
0.466678 2.592216 0.188534
0.444954 2.610684 0.165332
0.465090 2.596815 0.193142
0.442580 2.613237 0.169556
0.462689 2.599316 0.197316
0.439565 2.613546 0.172988
0.459660 2.599650 0.200759
0.436059 2.611628 0.175446
0.456161 2.597826 0.203281
0.432182 2.607558 0.176883
0.452302 2.593929 0.204829
0.428020 2.601484 0.177367
0.448139 2.588116 0.205475
0.423630 2.593606 0.177042
0.443697 2.580583 0.205363
0.419062 2.584143 0.176069
0.439007 2.571540 0.204643
0.414408 2.573381 0.174544
0.434153 2.561214 0.203408
0.409844 2.561687 0.172463
0.429314 2.549886 0.201654
0.405635 2.549506 0.169752
0.424771 2.537939 0.199301
0.402082 2.537360 0.166362
0.420844 2.525878 0.196281
0.399419 2.525800 0.162362
0.417748 2.514270 0.192650
0.397630 2.515251 0.157945
0.415625 2.503608 0.188555
0.436136 2.491327 0.218334
0.414496 2.494334 0.184197
0.434881 2.482131 0.214110
0.458426 2.469310 0.242850
0.434738 2.474732 0.209817
0.458288 2.462035 0.238557
0.435783 2.469487 0.205649
0.459371 2.456920 0.234407
0.437882 2.466595 0.201844
0.461534 2.454143 0.230645
0.440940 2.466184 0.198583
0.464655 2.453801 0.227455
0.444818 2.468261 0.196004
0.468592 2.455893 0.224961
0.449186 2.472639 0.194240
0.473231 2.460325 0.223215
0.454054 2.479182 0.193271
0.478310 2.466842 0.222275
0.459247 2.487589 0.193080
0.483654 2.475160 0.222116
0.464607 2.497518 0.193595
0.489107 2.484954 0.222651
0.469978 2.508587 0.194700
0.494523 2.495855 0.223763
0.475171 2.520344 0.196291
0.499737 2.507415 0.225347
0.479943 2.532248 0.198350
0.504537 2.519118 0.227376
0.484013 2.543766 0.200947
0.508644 2.530440 0.229906
0.487093 2.554449 0.204156
0.511747 2.540932 0.233016
0.488970 2.563943 0.207974
0.513625 2.550247 0.236708
0.489579 2.571972 0.212279
0.514208 2.558111 0.240875
0.488989 2.578305 0.216837
0.513570 2.564301 0.245295
0.487359 2.582751 0.221340
0.511879 2.568633 0.249675
0.484895 2.585170 0.225456
0.509349 2.570979 0.253703
0.481800 2.585488 0.228898
0.506184 2.571277 0.257108
0.478236 2.583713 0.231479
0.502545 2.569533 0.259715
0.474302 2.579926 0.233145
0.498526 2.565822 0.261467
0.470039 2.574270 0.233958
0.494168 2.560268 0.262409
0.465463 2.566924 0.234046
0.489489 2.553034 0.262640
0.460609 2.558085 0.233532
0.484533 2.544308 0.262252
0.455575 2.547975 0.232482
0.479407 2.534316 0.261288
0.450564 2.536870 0.230879
0.474321 2.523347 0.259723
0.445873 2.525148 0.228649
0.469566 2.511780 0.257496
0.441822 2.513299 0.225743
0.465428 2.500083 0.254593
0.438513 2.501877 0.222265
0.462136 2.488785 0.251066
0.487888 2.475439 0.279153
0.459735 2.478372 0.247093
0.485401 2.464947 0.275146
0.512151 2.451562 0.302001
0.484004 2.455824 0.270859
0.510577 2.442231 0.297704
0.483780 2.448501 0.266528
0.510209 2.434715 0.293331
0.484784 2.443344 0.262370
0.511091 2.429393 0.289127
0.486925 2.440562 0.258617
0.513171 2.426509 0.285330
0.490093 2.440260 0.255448
0.516348 2.426189 0.282127
0.494161 2.442445 0.252979
0.520498 2.428436 0.279638
0.498977 2.446971 0.251279
0.525507 2.433161 0.277904
0.504310 2.453623 0.250360
0.531115 2.440071 0.276926
0.509943 2.462079 0.250187
0.537083 2.448799 0.276643
0.515684 2.471972 0.250669
0.543167 2.458921 0.276973
0.521341 2.482896 0.251710
0.549114 2.469985 0.277851
0.526708 2.494395 0.253235
0.554664 2.481523 0.279241
0.531549 2.505980 0.255224
0.559555 2.493066 0.281139
0.535591 2.517166 0.257721
0.563531 2.504172 0.283574
0.538570 2.527527 0.260779
0.566379 2.514446 0.286576
0.540312 2.536723 0.264390
0.567973 2.523562 0.290119
0.540772 2.544481 0.268450
0.568298 2.531254 0.294094
0.540032 2.550579 0.272751
0.567449 2.537304 0.298305
0.538259 2.554848 0.277020
0.565596 2.541548 0.302494
0.535664 2.557168 0.280964
0.562942 2.543876 0.306386
0.532444 2.557482 0.284332
0.559683 2.544233 0.309747
0.528757 2.555798 0.286960
0.555971 2.542623 0.312416
0.524697 2.552177 0.288787
0.551902 2.539098 0.314332
0.520308 2.546729 0.289840
0.547524 2.533753 0.315511
0.515616 2.539597 0.290197
0.542861 2.526715 0.316016
0.510664 2.530959 0.289928
0.537952 2.518148 0.315902
0.505554 2.521034 0.289062
0.532885 2.508260 0.315189
0.500474 2.510111 0.287572
0.527816 2.497331 0.313857
0.495694 2.498573 0.285400
0.522967 2.485722 0.311879
0.491391 2.486839 0.282610
0.518577 2.473884 0.309209
0.545694 2.460903 0.334183
0.514881 2.462301 0.305901
0.541835 2.449125 0.330979
0.567963 2.435565 0.354510
0.538912 2.438162 0.327138
0.564856 2.424341 0.350717
0.537131 2.428573 0.322860
0.562890 2.414482 0.346424
0.536607 2.420834 0.318428
0.562208 2.406509 0.341919
0.537378 2.415337 0.314135
0.562870 2.400841 0.337524
0.539409 2.412352 0.310238
0.564853 2.397758 0.333517
0.542605 2.412016 0.306939
0.568074 2.397403 0.330113
0.546846 2.414356 0.304366
0.572402 2.399781 0.327454
0.551979 2.419203 0.302571
0.577677 2.404790 0.325583
0.557793 2.426322 0.301519
0.583677 2.412117 0.324479
0.564028 2.435300 0.301132
0.590130 2.421341 0.324035
0.570393 2.445656 0.301326
0.596722 2.431947 0.324131
0.576587 2.456894 0.302045
0.603126 2.443400 0.324696
0.582311 2.468526 0.303271
0.609018 2.455193 0.325722
0.587282 2.480097 0.305022
0.614103 2.466872 0.327246
0.591253 2.491188 0.307330
0.618135 2.478033 0.329322
0.594041 2.501436 0.310215
0.620942 2.488326 0.331987
0.595551 2.510524 0.313646
0.622446 2.497450 0.335218
0.595794 2.518194 0.317515
0.622670 2.505149 0.338918
0.594875 2.524235 0.321633
0.621729 2.511217 0.342908
0.592968 2.528487 0.325754
0.619798 2.515495 0.346951
0.590275 2.530843 0.329619
0.617084 2.517881 0.350792
0.586991 2.531249 0.332998
0.613778 2.518324 0.354209
0.583265 2.529707 0.335739
0.610033 2.516822 0.357047
0.579193 2.526262 0.337776
0.605942 2.513415 0.359242
0.574824 2.520996 0.339121
0.601553 2.508178 0.360799
0.570180 2.514024 0.339822
0.596885 2.501217 0.361756
0.565292 2.505495 0.339923
0.591966 2.492672 0.362145
0.560236 2.495611 0.339432
0.586864 2.482737 0.361958
0.555150 2.484644 0.338318
0.581705 2.471677 0.361173
0.550224 2.472928 0.336608
0.576671 2.459826 0.359708
0.602277 2.446539 0.381599
0.572000 2.447607 0.357521
0.597452 2.434088 0.379571
0.622365 2.420714 0.400557
0.593281 2.421816 0.376647
0.618091 2.408204 0.397644
0.590040 2.410332 0.372898
0.614786 2.396518 0.393835
0.587951 2.400233 0.368561
0.612668 2.386268 0.389373
0.587167 2.392062 0.363963
0.611880 2.378000 0.384631
0.587761 2.386252 0.359458
0.612488 2.372141 0.379990
0.589725 2.383095 0.355343
0.614481 2.368961 0.375759
0.592980 2.382733 0.351842
0.617771 2.368584 0.372177
0.597398 2.385190 0.349107
0.622216 2.370984 0.369412
0.602779 2.390267 0.347211
0.627664 2.376124 0.367531
0.608915 2.397747 0.346118
0.633863 2.383662 0.366516
0.615521 2.407179 0.345692
0.640553 2.393210 0.366196
0.622283 2.418024 0.345756
0.647438 2.404241 0.366322
0.628864 2.429718 0.346199
0.654182 2.416179 0.366721
0.634926 2.441735 0.347009
0.660430 2.428476 0.367358
0.640157 2.453609 0.348248
0.665847 2.440639 0.368314
0.644303 2.464937 0.350007
0.670154 2.452243 0.369720
0.647189 2.475368 0.352354
0.673165 2.462918 0.371691
0.648743 2.484602 0.355298
0.674801 2.472352 0.374283
0.648992 2.492386 0.358761
0.675093 2.480287 0.377457
0.648055 2.498513 0.362581
0.674164 2.486518 0.381073
0.646114 2.502833 0.366527
0.672205 2.490898 0.384910
0.643377 2.505244 0.370346
0.669432 2.493333 0.388711
0.640041 2.505699 0.373813
0.666047 2.493783 0.392244
0.636258 2.504197 0.376773
0.662205 2.492249 0.395351
0.632121 2.500776 0.379158
0.657997 2.488768 0.397958
0.627674 2.495506 0.380968
0.653463 2.483407 0.400058
0.622936 2.488486 0.382232
0.648615 2.476261 0.401667
0.617931 2.479854 0.382958
0.643479 2.467463 0.402772
0.612726 2.469798 0.383104
0.638127 2.457209 0.403326
0.607457 2.458598 0.382708
0.632686 2.445752 0.403212
0.657496 2.433258 0.422968
0.627347 2.433443 0.402367
0.651938 2.420561 0.422242
0.675867 2.407655 0.441173
0.646809 2.407530 0.420442
0.670542 2.394247 0.439309
0.642444 2.394785 0.417502
0.666060 2.381237 0.436227
0.639121 2.382955 0.413560
0.662697 2.369266 0.432103
0.637034 2.372639 0.408926
0.660617 2.358894 0.427295
0.636301 2.364355 0.404017
0.659904 2.350595 0.422233
0.636965 2.358502 0.399229
0.660589 2.344737 0.417307
0.639003 2.355329 0.394881
0.662642 2.341555 0.412848
0.642325 2.354947 0.391221
0.665974 2.341153 0.409120
0.646794 2.357354 0.388426
0.670453 2.343511 0.406316
0.652238 2.362420 0.386589
0.675913 2.348558 0.404551
0.658448 2.369927 0.385693
0.682157 2.356045 0.403825
0.665184 2.379503 0.385553
0.688967 2.365644 0.403955
0.672175 2.390651 0.385855
0.696101 2.376903 0.404571
0.679097 2.402813 0.386339
0.703259 2.389302 0.405289
0.685579 2.415430 0.386906
0.710062 2.402284 0.405897
0.691249 2.427972 0.387629
0.716089 2.415278 0.406426
0.695788 2.439964 0.388675
0.720960 2.427751 0.407077
0.698979 2.450997 0.390223
0.724413 2.439241 0.408110
0.700732 2.460732 0.392397
0.726341 2.449373 0.409747
0.701080 2.468898 0.395219
0.726778 2.457850 0.412103
0.700156 2.475286 0.398590
0.725873 2.464458 0.415139
0.698166 2.479756 0.402300
0.723852 2.469056 0.418665
0.695339 2.482224 0.406086
0.720964 2.471575 0.422413
0.691886 2.482659 0.409706
0.717433 2.471995 0.426118
0.687966 2.481069 0.412988
0.713419 2.470332 0.429597
0.683666 2.477492 0.415852
0.709004 2.466625 0.432759
0.679018 2.471988 0.418283
0.704208 2.460932 0.435570
0.674025 2.464647 0.420270
0.699027 2.453336 0.437991
0.668707 2.455593 0.421757
0.693475 2.443974 0.439941
0.663161 2.445065 0.422723
0.687640 2.433029 0.441257
0.711549 2.420808 0.458786
0.681687 2.420788 0.441758
0.705225 2.408039 0.459511
0.728464 2.394885 0.476038
0.699084 2.394413 0.458977
0.721957 2.380761 0.475566
0.693501 2.380584 0.457042
0.716060 2.366508 0.473537
0.688847 2.367270 0.453768
0.711172 2.352878 0.470033
0.685389 2.355134 0.449426
0.707559 2.340560 0.465409
0.683257 2.344700 0.444427
0.705337 2.330064 0.460136
0.682512 2.336383 0.439195
0.704537 2.321740 0.454655
0.683170 2.330513 0.434118
0.705157 2.315868 0.449379
0.685203 2.327310 0.429548
0.707160 2.312646 0.444690
0.688525 2.326875 0.425773
0.710459 2.312167 0.440923
0.693018 2.329216 0.423018
0.714933 2.314416 0.438348
0.698495 2.334188 0.421418
0.720449 2.319344 0.437132
0.704805 2.341642 0.421004
0.726831 2.326740 0.437315
0.711737 2.351265 0.421591
0.733896 2.336347 0.438653
0.719068 2.362643 0.422729
0.741436 2.347782 0.440555
0.726527 2.375286 0.423855
0.749201 2.360585 0.442244
0.733732 2.388641 0.424601
0.756820 2.374230 0.443185
0.740213 2.402109 0.424942
0.763788 2.388106 0.443310
0.745517 2.415101 0.425127
0.769580 2.401582 0.442953
0.749325 2.427108 0.425525
0.773804 2.414099 0.442632
0.751499 2.437709 0.426486
0.776277 2.425189 0.442849
0.752073 2.446575 0.428240
0.777031 2.434489 0.443942
0.751217 2.453471 0.430819
0.776262 2.441736 0.445997
0.749186 2.458256 0.434062
0.774255 2.446778 0.448863
0.746251 2.460865 0.437690
0.771308 2.449548 0.452257
0.742647 2.461293 0.441426
0.767665 2.450040 0.455893
0.738536 2.459560 0.445071
0.763483 2.448279 0.459571
0.733989 2.455709 0.448522
0.758822 2.444309 0.463189
0.729015 2.449792 0.451723
0.753675 2.438189 0.466682
0.723600 2.441889 0.454584
0.748001 2.430025 0.469960
0.717751 2.432184 0.457021
0.741835 2.419916 0.472791
0.765968 2.407303 0.487389
0.735237 2.408120 0.474963
0.758987 2.395035 0.489985
0.783010 2.381975 0.504122
0.751814 2.381341 0.491378
0.775429 2.367838 0.506066
0.744872 2.366792 0.491129
0.768065 2.352825 0.506195
0.738610 2.352142 0.489059
0.761433 2.337734 0.504221
0.733442 2.338195 0.485307
0.755979 2.323442 0.500301
0.729639 2.325678 0.480321
0.751991 2.310715 0.494974
0.727318 2.315107 0.474658
0.749595 2.300084 0.488911
0.726488 2.306801 0.468836
0.748784 2.291839 0.482750
0.727103 2.300962 0.463320
0.749456 2.286097 0.477044
0.729107 2.297754 0.458548
0.751521 2.282967 0.472310
0.732410 2.297258 0.454924
0.754863 2.282487 0.469014
0.736907 2.299483 0.452784
0.759334 2.284605 0.467470
0.742410 2.304273 0.452234
0.764840 2.289305 0.467895
0.748819 2.311549 0.453346
0.771207 2.296391 0.470062
0.755953 2.321050 0.455703
0.778318 2.305687 0.473383
0.763628 2.332429 0.458503
0.786053 2.316942 0.476885
0.771638 2.345290 0.460759
0.794263 2.329846 0.479448
0.779635 2.359147 0.461789
0.802612 2.343928 0.480293
0.787081 2.373369 0.461530
0.810515 2.358500 0.479390
0.793379 2.387272 0.460449
0.817301 2.372799 0.477351
0.798058 2.400244 0.459248
0.822424 2.386170 0.475065
0.800882 2.411783 0.458600
0.825604 2.398095 0.473366
0.801871 2.421497 0.458945
0.826845 2.408170 0.472805
0.801239 2.429104 0.460405
0.826380 2.416102 0.473543
0.799305 2.434440 0.462822
0.824550 2.421716 0.475418
0.796389 2.437427 0.465896
0.821690 2.424928 0.478114
0.792742 2.438045 0.469335
0.818053 2.425694 0.481335
0.788517 2.436313 0.472946
0.813787 2.424026 0.484892
0.783765 2.432279 0.476631
0.808933 2.419983 0.488700
0.778471 2.425991 0.480319
0.803460 2.413661 0.492704
0.772529 2.417666 0.483998
0.797309 2.405131 0.496799
0.822451 2.392978 0.508708
0.790436 2.394542 0.500786
0.815334 2.382165 0.513391
0.840861 2.370264 0.525172
0.807623 2.369312 0.517495
0.833000 2.357261 0.530004
0.799668 2.354793 0.520275
0.824879 2.342445 0.533638
0.791927 2.339276 0.521076
0.816937 2.326473 0.535334
0.784944 2.323671 0.519533
0.809715 2.310357 0.534676
0.779210 2.308979 0.515805
0.803749 2.295276 0.531806
0.775056 2.296049 0.510488
0.799442 2.282198 0.527271
0.772620 2.285409 0.504324
0.796959 2.271628 0.521740
0.771872 2.277294 0.498055
0.796237 2.263696 0.515928
0.772649 2.271722 0.492350
0.797079 2.258337 0.510567
0.774815 2.268732 0.487837
0.799311 2.255524 0.506361
0.778212 2.268306 0.485000
0.802739 2.255191 0.503786
0.782691 2.270404 0.484116
0.807198 2.257255 0.503047
0.788100 2.274885 0.485291
0.812659 2.261694 0.504121
0.794386 2.281725 0.488107
0.819068 2.268445 0.506436
0.801489 2.290803 0.491815
0.826415 2.277475 0.509245
0.809354 2.301978 0.495374
0.834637 2.288712 0.511711
0.817832 2.314996 0.497677
0.843467 2.301857 0.513020
0.826537 2.329346 0.497964
0.852404 2.316306 0.512575
0.834833 2.344250 0.496241
0.860812 2.331266 0.510294
0.841997 2.358885 0.493191
0.868018 2.345960 0.506708
0.847442 2.372573 0.489806
0.873468 2.359756 0.502731
0.850866 2.384800 0.487042
0.876876 2.372139 0.499335
0.852276 2.395159 0.485540
0.878265 2.382677 0.497227
0.851923 2.403348 0.485514
0.877895 2.391032 0.496678
0.850164 2.409190 0.486812
0.876128 2.397014 0.497565
0.847344 2.412591 0.489114
0.873300 2.400533 0.499582
0.843707 2.413486 0.492128
0.869635 2.401504 0.502450
0.839390 2.411877 0.495670
0.865255 2.399932 0.505989
0.834441 2.407830 0.499655
0.860238 2.395929 0.510124
0.828821 2.401532 0.504029
0.854546 2.389616 0.514788
0.879938 2.377426 0.525045
0.848097 2.381079 0.519877
0.873528 2.368954 0.530200
0.895812 2.356776 0.538390
0.866372 2.358249 0.535572
0.888962 2.346422 0.543205
0.858656 2.345403 0.540610
0.881652 2.334178 0.547616
0.850790 2.330628 0.544593
0.874615 2.320049 0.551007
0.843104 2.314548 0.546814
0.867925 2.304713 0.552741
0.836034 2.298208 0.546921
0.861844 2.289126 0.552694
0.830093 2.282913 0.545051
0.856737 2.274493 0.551119
0.825744 2.269785 0.541553
0.852981 2.261940 0.548174
0.823224 2.259372 0.536872
0.850818 2.252095 0.543993
0.822497 2.251747 0.531589
0.850287 2.245070 0.538852
0.823354 2.246735 0.526330
0.851262 2.240685 0.533138
0.825657 2.244292 0.521785
0.853707 2.238916 0.527471
0.829221 2.244336 0.518480
0.857470 2.239652 0.522517
0.833822 2.246889 0.516769
0.862318 2.242688 0.518951
0.839681 2.251575 0.516327
0.868207 2.248139 0.516643
0.846528 2.258672 0.516955
0.874866 2.255640 0.515913
0.854295 2.267987 0.518102
0.882131 2.264990 0.516406
0.862771 2.279306 0.519315
0.889762 2.275786 0.517662
0.871546 2.292182 0.520103
0.897431 2.287558 0.519114
0.880116 2.306047 0.519878
0.904817 2.299962 0.520015
0.888004 2.320316 0.518223
0.911606 2.312708 0.519764
0.894673 2.334429 0.515338
0.917340 2.325453 0.518412
0.899657 2.347858 0.511926
0.921628 2.337787 0.516459
0.902715 2.360073 0.508906
0.924265 2.349190 0.514692
0.903883 2.370561 0.507014
0.925266 2.359114 0.513799
0.903396 2.378901 0.506584
0.924785 2.367061 0.514139
0.901576 2.384860 0.507546
0.923049 2.372714 0.515694
0.898719 2.388340 0.509627
0.920286 2.375936 0.518228
0.895015 2.389255 0.512557
0.916671 2.376663 0.521461
0.890549 2.387622 0.516144
0.912306 2.374936 0.525177
0.885530 2.383641 0.520322
0.907226 2.370959 0.529236
0.901821 2.364966 0.533641
0.918860 2.361552 0.534641
0.923226 2.365386 0.530740
0.913227 2.356263 0.538400
0.906956 2.348854 0.542375
0.901277 2.338703 0.546728
0.893808 2.327574 0.550140
0.887866 2.314265 0.552834
0.882215 2.300220 0.553889
0.877255 2.286256 0.553379
0.873253 2.273374 0.551674
0.870409 2.262467 0.549058
0.868840 2.254014 0.545651
0.868574 2.248050 0.541560
0.869558 2.244420 0.537000
0.871746 2.243036 0.532334
0.875047 2.243802 0.527976
0.879329 2.246620 0.524318
0.884477 2.251440 0.521561
0.890323 2.258122 0.519900
0.896679 2.266445 0.519346
0.903307 2.276038 0.519732
0.909947 2.286506 0.520649
0.916355 2.297543 0.521473
0.922269 2.308892 0.521649
0.927296 2.320254 0.521118
0.931104 2.331269 0.520173
0.933520 2.341491 0.519345
0.934538 2.350453 0.519148
0.934253 2.357728 0.519880
0.932814 2.363008 0.521572
0.930391 2.366109 0.524074
0.927142 2.366917 0.527186
0.287669 2.632806 -0.163841
0.286073 2.636856 -0.160975
0.286424 2.641493 -0.159646
0.285680 2.644848 -0.157707
0.286322 2.652014 -0.155474
0.286415 2.654439 -0.154539
0.287670 2.660845 -0.152795
0.287666 2.662363 -0.152062
0.289856 2.668642 -0.150750
0.289862 2.669379 -0.150351
0.289904 2.670372 -0.149833
0.290081 2.671589 -0.149291
0.288117 2.664448 -0.151431
0.288580 2.666959 -0.150544
0.286453 2.657681 -0.153152
0.286354 2.661591 -0.151246
0.284865 2.649412 -0.155170
0.285229 2.655164 -0.153127
0.284389 2.642452 -0.157380
0.282951 2.649434 -0.153321
0.283819 2.657754 -0.150644
0.285757 2.666737 -0.148111
0.285265 2.661620 -0.150222
0.286729 2.668674 -0.147968
0.287561 2.666155 -0.150061
0.287998 2.670937 -0.147849
0.288912 2.669780 -0.149306
0.289854 2.672856 -0.148357
0.290694 2.673004 -0.148984
0.291340 2.674525 -0.148611
0.291977 2.676090 -0.148167
0.292572 2.677638 -0.147663
0.291231 2.676034 -0.147581
0.292301 2.679137 -0.146451
0.290417 2.675974 -0.146933
0.291757 2.680798 -0.144868
0.289465 2.675903 -0.146162
0.292078 2.682848 -0.143680
0.288682 2.675841 -0.145516
0.292444 2.684583 -0.142704
0.296994 2.692643 -0.139829
0.302211 2.699846 -0.137185
0.295835 2.689339 -0.141704
0.300877 2.695168 -0.140529
0.295052 2.685423 -0.144172
0.297226 2.689532 -0.142621
0.293718 2.682095 -0.145558
0.295613 2.684803 -0.145079
0.293106 2.679113 -0.147124
0.293577 2.680461 -0.146589
0.294369 2.681655 -0.146389
0.295134 2.682633 -0.146296
0.297100 2.687130 -0.144443
0.298241 2.689013 -0.143810
0.300482 2.693105 -0.142051
0.303030 2.695985 -0.141349
0.304886 2.700156 -0.138811
0.309531 2.704250 -0.138086
0.309495 2.706124 -0.136213
0.315949 2.711373 -0.135363
0.320977 2.715414 -0.134719
0.324768 2.718034 -0.134703
0.313102 2.707317 -0.137490
0.316015 2.709249 -0.137529
0.304839 2.698106 -0.140694
0.306835 2.699426 -0.140853
0.299481 2.690415 -0.143588
0.300564 2.691282 -0.143661
0.295732 2.683358 -0.146238
0.296158 2.683805 -0.146241
0.296408 2.683961 -0.146319
0.297321 2.683863 -0.147087
0.301161 2.691581 -0.143842
0.303012 2.691364 -0.145343
0.307876 2.699881 -0.141141
0.310826 2.699542 -0.143442
0.317426 2.709928 -0.137801
0.321893 2.709544 -0.141149
0.327542 2.719060 -0.135606
0.332113 2.718709 -0.139129
0.335412 2.716786 -0.143308
0.336972 2.713303 -0.147760
0.324642 2.707940 -0.144528
0.326270 2.705196 -0.148229
0.312669 2.698359 -0.145746
0.314401 2.696416 -0.148623
0.304287 2.690587 -0.146877
0.305210 2.689290 -0.148570
0.298017 2.683474 -0.147894
0.298447 2.682809 -0.148697
0.298572 2.681888 -0.149446
0.298494 2.680749 -0.150184
0.305954 2.687526 -0.150478
0.305956 2.685324 -0.152169
0.314877 2.693719 -0.151283
0.313938 2.690324 -0.153517
0.326087 2.701334 -0.151724
0.325657 2.696639 -0.155678
0.336295 2.708320 -0.152041
0.333563 2.702069 -0.156007
0.331557 2.695175 -0.160796
0.328621 2.687513 -0.165154
0.322915 2.691007 -0.158710
0.320300 2.684848 -0.161880
0.313451 2.686458 -0.156267
0.310831 2.682026 -0.157841
0.305064 2.682739 -0.153463
0.304208 2.679905 -0.154859
0.298555 2.679454 -0.151113
0.298330 2.678025 -0.151898
0.297808 2.676507 -0.152489
0.297009 2.674956 -0.152858
0.303236 2.676909 -0.156170
0.301417 2.673798 -0.156828
0.309628 2.677451 -0.160181
0.306287 2.672564 -0.160997
0.317694 2.678300 -0.164872
0.313570 2.671365 -0.166598
0.324776 2.679239 -0.168746
0.320118 2.670572 -0.171317
0.315101 2.661857 -0.172889
0.310194 2.653512 -0.173611
0.309853 2.664508 -0.167978
0.306962 2.658073 -0.169222
0.304559 2.667891 -0.162487
0.301228 2.663291 -0.162531
0.299621 2.670746 -0.157323
0.298099 2.667898 -0.157778
0.295977 2.673430 -0.152996
0.294780 2.671989 -0.152913
0.293872 2.670726 -0.152919
0.292959 2.669666 -0.152779
0.296079 2.665292 -0.157611
0.293806 2.663053 -0.156942
0.298909 2.659237 -0.162787
0.296005 2.655720 -0.162148
0.302829 2.652059 -0.168981
0.299559 2.647041 -0.168607
0.307332 2.646256 -0.174728
0.303888 2.640019 -0.174667
0.299736 2.635038 -0.173307
0.295788 2.643039 -0.167184
0.292774 2.652917 -0.160742
0.291840 2.661333 -0.156167
0.291974 2.668843 -0.152426
3 0 1 983
3 983 984 985
3 985 986 1003
3 985 1003 1004
3 0 983 985
3 1119 2 0
3 1105 1106 1119
3 1086 1103 1104
3 1104 1105 1119
3 1119 0 985
3 985 1004 1005
3 1119 985 1005
3 1086 1104 1119
3 1084 1085 1086
3 1066 1083 1084
3 1064 1065 1066
3 1046 1063 1064
3 1044 1045 1046
3 1026 1043 1044
3 1024 1025 1026
3 1023 1024 1026
3 1026 1044 1046
3 1046 1064 1066
3 1066 1084 1086
3 1086 1119 1005
3 1006 1023 1026
3 1086 1005 1006
3 1046 1066 1086
3 1006 1026 1046
3 1006 1046 1086
3 0 3 4
3 0 4 1
3 2 5 3
3 2 3 0
3 3 6 7
3 3 7 4
3 5 8 6
3 5 6 3
3 6 9 10
3 6 10 7
3 8 11 9
3 8 9 6
3 9 12 13
3 9 13 10
3 11 14 12
3 11 12 9
3 12 15 16
3 12 16 13
3 14 18 15
3 14 15 12
3 17 108 16
3 17 16 15
3 20 17 15
3 20 15 18
3 22 20 18
3 22 18 19
3 1115 19 18
3 1115 18 14
3 21 111 17
3 21 17 20
3 23 21 20
3 23 20 22
3 24 22 19
3 24 19 25
3 26 23 22
3 26 22 24
3 27 24 25
3 27 25 28
3 29 26 24
3 29 24 27
3 30 27 28
3 30 28 31
3 32 29 27
3 32 27 30
3 33 30 31
3 33 31 34
3 35 32 30
3 35 30 33
3 36 33 34
3 36 34 37
3 38 35 33
3 38 33 36
3 39 36 37
3 39 37 40
3 41 38 36
3 41 36 39
3 42 39 40
3 42 40 43
3 44 41 39
3 44 39 42
3 45 42 43
3 45 43 46
3 47 44 42
3 47 42 45
3 48 45 46
3 48 46 49
3 50 47 45
3 50 45 48
3 51 48 49
3 51 49 52
3 53 50 48
3 53 48 51
3 54 51 52
3 54 52 55
3 56 53 51
3 56 51 54
3 57 54 55
3 57 55 58
3 59 56 54
3 59 54 57
3 60 57 58
3 60 58 61
3 62 59 57
3 62 57 60
3 63 60 61
3 63 61 64
3 65 62 60
3 65 60 63
3 66 63 64
3 66 64 67
3 68 65 63
3 68 63 66
3 69 66 67
3 69 67 70
3 71 68 66
3 71 66 69
3 72 69 70
3 72 70 73
3 74 71 69
3 74 69 72
3 75 72 73
3 75 73 76
3 77 74 72
3 77 72 75
3 78 75 76
3 78 76 79
3 80 77 75
3 80 75 78
3 81 78 79
3 81 79 82
3 83 80 78
3 83 78 81
3 84 81 82
3 84 82 85
3 86 83 81
3 86 81 84
3 87 84 85
3 87 85 88
3 89 86 84
3 89 84 87
3 90 87 88
3 90 88 91
3 92 89 87
3 92 87 90
3 93 90 91
3 93 91 94
3 95 92 90
3 95 90 93
3 96 93 94
3 96 94 97
3 98 95 93
3 98 93 96
3 99 96 97
3 99 97 100
3 101 98 96
3 101 96 99
3 102 99 100
3 102 100 103
3 104 101 99
3 104 99 102
3 105 102 103
3 105 103 106
3 107 104 102
3 107 102 105
3 108 105 106
3 108 106 16
3 109 107 105
3 109 105 108
3 111 109 108
3 111 108 17
3 110 172 107
3 110 107 109
3 112 110 109
3 112 109 111
3 114 112 111
3 114 111 21
3 115 113 112
3 115 112 114
3 113 175 110
3 113 110 112
3 116 114 21
3 116 21 23
3 117 115 114
3 117 114 116
3 118 116 23
3 118 23 26
3 119 117 116
3 119 116 118
3 120 118 26
3 120 26 29
3 121 119 118
3 121 118 120
3 122 120 29
3 122 29 32
3 123 121 120
3 123 120 122
3 124 122 32
3 124 32 35
3 125 123 122
3 125 122 124
3 126 124 35
3 126 35 38
3 127 125 124
3 127 124 126
3 128 126 38
3 128 38 41
3 129 127 126
3 129 126 128
3 130 128 41
3 130 41 44
3 131 129 128
3 131 128 130
3 132 130 44
3 132 44 47
3 133 131 130
3 133 130 132
3 134 132 47
3 134 47 50
3 135 133 132
3 135 132 134
3 136 134 50
3 136 50 53
3 137 135 134
3 137 134 136
3 138 136 53
3 138 53 56
3 139 137 136
3 139 136 138
3 140 138 56
3 140 56 59
3 141 139 138
3 141 138 140
3 142 140 59
3 142 59 62
3 143 141 140
3 143 140 142
3 144 142 62
3 144 62 65
3 145 143 142
3 145 142 144
3 146 144 65
3 146 65 68
3 147 145 144
3 147 144 146
3 148 146 68
3 148 68 71
3 149 147 146
3 149 146 148
3 150 148 71
3 150 71 74
3 151 149 148
3 151 148 150
3 152 150 74
3 152 74 77
3 153 151 150
3 153 150 152
3 154 152 77
3 154 77 80
3 155 153 152
3 155 152 154
3 156 154 80
3 156 80 83
3 157 155 154
3 157 154 156
3 158 156 83
3 158 83 86
3 159 157 156
3 159 156 158
3 160 158 86
3 160 86 89
3 161 159 158
3 161 158 160
3 162 160 89
3 162 89 92
3 163 161 160
3 163 160 162
3 164 162 92
3 164 92 95
3 165 163 162
3 165 162 164
3 166 164 95
3 166 95 98
3 167 165 164
3 167 164 166
3 168 166 98
3 168 98 101
3 169 167 166
3 169 166 168
3 170 168 101
3 170 101 104
3 171 169 168
3 171 168 170
3 172 170 104
3 172 104 107
3 173 171 170
3 173 170 172
3 175 173 172
3 175 172 110
3 174 236 171
3 174 171 173
3 176 174 173
3 176 173 175
3 178 176 175
3 178 175 113
3 177 239 174
3 177 174 176
3 179 177 176
3 179 176 178
3 181 179 178
3 181 178 180
3 180 178 113
3 180 113 115
3 182 180 115
3 182 115 117
3 183 181 180
3 183 180 182
3 184 182 117
3 184 117 119
3 185 183 182
3 185 182 184
3 186 184 119
3 186 119 121
3 187 185 184
3 187 184 186
3 188 186 121
3 188 121 123
3 189 187 186
3 189 186 188
3 190 188 123
3 190 123 125
3 191 189 188
3 191 188 190
3 192 190 125
3 192 125 127
3 193 191 190
3 193 190 192
3 194 192 127
3 194 127 129
3 195 193 192
3 195 192 194
3 196 194 129
3 196 129 131
3 197 195 194
3 197 194 196
3 198 196 131
3 198 131 133
3 199 197 196
3 199 196 198
3 200 198 133
3 200 133 135
3 201 199 198
3 201 198 200
3 202 200 135
3 202 135 137
3 203 201 200
3 203 200 202
3 204 202 137
3 204 137 139
3 205 203 202
3 205 202 204
3 206 204 139
3 206 139 141
3 207 205 204
3 207 204 206
3 208 206 141
3 208 141 143
3 209 207 206
3 209 206 208
3 210 208 143
3 210 143 145
3 211 209 208
3 211 208 210
3 212 210 145
3 212 145 147
3 213 211 210
3 213 210 212
3 214 212 147
3 214 147 149
3 215 213 212
3 215 212 214
3 216 214 149
3 216 149 151
3 217 215 214
3 217 214 216
3 218 216 151
3 218 151 153
3 219 217 216
3 219 216 218
3 220 218 153
3 220 153 155
3 221 219 218
3 221 218 220
3 222 220 155
3 222 155 157
3 223 221 220
3 223 220 222
3 224 222 157
3 224 157 159
3 225 223 222
3 225 222 224
3 226 224 159
3 226 159 161
3 227 225 224
3 227 224 226
3 228 226 161
3 228 161 163
3 229 227 226
3 229 226 228
3 230 228 163
3 230 163 165
3 231 229 228
3 231 228 230
3 232 230 165
3 232 165 167
3 233 231 230
3 233 230 232
3 234 232 167
3 234 167 169
3 235 233 232
3 235 232 234
3 236 234 169
3 236 169 171
3 237 235 234
3 237 234 236
3 239 237 236
3 239 236 174
3 238 300 235
3 238 235 237
3 240 238 237
3 240 237 239
3 242 240 239
3 242 239 177
3 241 303 238
3 241 238 240
3 243 241 240
3 243 240 242
3 244 242 177
3 244 177 179
3 245 243 242
3 245 242 244
3 247 245 244
3 247 244 246
3 246 244 179
3 246 179 181
3 248 246 181
3 248 181 183
3 249 247 246
3 249 246 248
3 250 248 183
3 250 183 185
3 251 249 248
3 251 248 250
3 252 250 185
3 252 185 187
3 253 251 250
3 253 250 252
3 254 252 187
3 254 187 189
3 255 253 252
3 255 252 254
3 256 254 189
3 256 189 191
3 257 255 254
3 257 254 256
3 258 256 191
3 258 191 193
3 259 257 256
3 259 256 258
3 260 258 193
3 260 193 195
3 261 259 258
3 261 258 260
3 262 260 195
3 262 195 197
3 263 261 260
3 263 260 262
3 264 262 197
3 264 197 199
3 265 263 262
3 265 262 264
3 266 264 199
3 266 199 201
3 267 265 264
3 267 264 266
3 268 266 201
3 268 201 203
3 269 267 266
3 269 266 268
3 270 268 203
3 270 203 205
3 271 269 268
3 271 268 270
3 272 270 205
3 272 205 207
3 273 271 270
3 273 270 272
3 274 272 207
3 274 207 209
3 275 273 272
3 275 272 274
3 276 274 209
3 276 209 211
3 277 275 274
3 277 274 276
3 278 276 211
3 278 211 213
3 279 277 276
3 279 276 278
3 280 278 213
3 280 213 215
3 281 279 278
3 281 278 280
3 282 280 215
3 282 215 217
3 283 281 280
3 283 280 282
3 284 282 217
3 284 217 219
3 285 283 282
3 285 282 284
3 286 284 219
3 286 219 221
3 287 285 284
3 287 284 286
3 288 286 221
3 288 221 223
3 289 287 286
3 289 286 288
3 290 288 223
3 290 223 225
3 291 289 288
3 291 288 290
3 292 290 225
3 292 225 227
3 293 291 290
3 293 290 292
3 294 292 227
3 294 227 229
3 295 293 292
3 295 292 294
3 296 294 229
3 296 229 231
3 297 295 294
3 297 294 296
3 298 296 231
3 298 231 233
3 299 297 296
3 299 296 298
3 300 298 233
3 300 233 235
3 301 299 298
3 301 298 300
3 303 301 300
3 303 300 238
3 302 364 299
3 302 299 301
3 304 302 301
3 304 301 303
3 306 304 303
3 306 303 241
3 305 367 302
3 305 302 304
3 307 305 304
3 307 304 306
3 308 306 241
3 308 241 243
3 309 307 306
3 309 306 308
3 310 308 243
3 310 243 245
3 311 309 308
3 311 308 310
3 313 311 310
3 313 310 312
3 312 310 245
3 312 245 247
3 314 312 247
3 314 247 249
3 315 313 312
3 315 312 314
3 316 314 249
3 316 249 251
3 317 315 314
3 317 314 316
3 318 316 251
3 318 251 253
3 319 317 316
3 319 316 318
3 320 318 253
3 320 253 255
3 321 319 318
3 321 318 320
3 322 320 255
3 322 255 257
3 323 321 320
3 323 320 322
3 324 322 257
3 324 257 259
3 325 323 322
3 325 322 324
3 326 324 259
3 326 259 261
3 327 325 324
3 327 324 326
3 328 326 261
3 328 261 263
3 329 327 326
3 329 326 328
3 330 328 263
3 330 263 265
3 331 329 328
3 331 328 330
3 332 330 265
3 332 265 267
3 333 331 330
3 333 330 332
3 334 332 267
3 334 267 269
3 335 333 332
3 335 332 334
3 336 334 269
3 336 269 271
3 337 335 334
3 337 334 336
3 338 336 271
3 338 271 273
3 339 337 336
3 339 336 338
3 340 338 273
3 340 273 275
3 341 339 338
3 341 338 340
3 342 340 275
3 342 275 277
3 343 341 340
3 343 340 342
3 344 342 277
3 344 277 279
3 345 343 342
3 345 342 344
3 346 344 279
3 346 279 281
3 347 345 344
3 347 344 346
3 348 346 281
3 348 281 283
3 349 347 346
3 349 346 348
3 350 348 283
3 350 283 285
3 351 349 348
3 351 348 350
3 352 350 285
3 352 285 287
3 353 351 350
3 353 350 352
3 354 352 287
3 354 287 289
3 355 353 352
3 355 352 354
3 356 354 289
3 356 289 291
3 357 355 354
3 357 354 356
3 358 356 291
3 358 291 293
3 359 357 356
3 359 356 358
3 360 358 293
3 360 293 295
3 361 359 358
3 361 358 360
3 362 360 295
3 362 295 297
3 363 361 360
3 363 360 362
3 364 362 297
3 364 297 299
3 365 363 362
3 365 362 364
3 367 365 364
3 367 364 302
3 366 428 363
3 366 363 365
3 368 366 365
3 368 365 367
3 370 368 367
3 370 367 305
3 369 431 366
3 369 366 368
3 371 369 368
3 371 368 370
3 372 370 305
3 372 305 307
3 373 371 370
3 373 370 372
3 374 372 307
3 374 307 309
3 375 373 372
3 375 372 374
3 376 374 309
3 376 309 311
3 377 375 374
3 377 374 376
3 379 377 376
3 379 376 378
3 378 376 311
3 378 311 313
3 380 378 313
3 380 313 315
3 381 379 378
3 381 378 380
3 382 380 315
3 382 315 317
3 383 381 380
3 383 380 382
3 384 382 317
3 384 317 319
3 385 383 382
3 385 382 384
3 386 384 319
3 386 319 321
3 387 385 384
3 387 384 386
3 388 386 321
3 388 321 323
3 389 387 386
3 389 386 388
3 390 388 323
3 390 323 325
3 391 389 388
3 391 388 390
3 392 390 325
3 392 325 327
3 393 391 390
3 393 390 392
3 394 392 327
3 394 327 329
3 395 393 392
3 395 392 394
3 396 394 329
3 396 329 331
3 397 395 394
3 397 394 396
3 398 396 331
3 398 331 333
3 399 397 396
3 399 396 398
3 400 398 333
3 400 333 335
3 401 399 398
3 401 398 400
3 402 400 335
3 402 335 337
3 403 401 400
3 403 400 402
3 404 402 337
3 404 337 339
3 405 403 402
3 405 402 404
3 406 404 339
3 406 339 341
3 407 405 404
3 407 404 406
3 408 406 341
3 408 341 343
3 409 407 406
3 409 406 408
3 410 408 343
3 410 343 345
3 411 409 408
3 411 408 410
3 412 410 345
3 412 345 347
3 413 411 410
3 413 410 412
3 414 412 347
3 414 347 349
3 415 413 412
3 415 412 414
3 416 414 349
3 416 349 351
3 417 415 414
3 417 414 416
3 418 416 351
3 418 351 353
3 419 417 416
3 419 416 418
3 420 418 353
3 420 353 355
3 421 419 418
3 421 418 420
3 422 420 355
3 422 355 357
3 423 421 420
3 423 420 422
3 424 422 357
3 424 357 359
3 425 423 422
3 425 422 424
3 426 424 359
3 426 359 361
3 427 425 424
3 427 424 426
3 428 426 361
3 428 361 363
3 429 427 426
3 429 426 428
3 431 429 428
3 431 428 366
3 430 492 427
3 430 427 429
3 432 430 429
3 432 429 431
3 434 432 431
3 434 431 369
3 433 495 430
3 433 430 432
3 435 433 432
3 435 432 434
3 436 434 369
3 436 369 371
3 437 435 434
3 437 434 436
3 438 436 371
3 438 371 373
3 439 437 436
3 439 436 438
3 440 438 373
3 440 373 375
3 441 439 438
3 441 438 440
3 442 440 375
3 442 375 377
3 443 441 440
3 443 440 442
3 445 443 442
3 445 442 444
3 444 442 377
3 444 377 379
3 446 444 379
3 446 379 381
3 447 445 444
3 447 444 446
3 448 446 381
3 448 381 383
3 449 447 446
3 449 446 448
3 450 448 383
3 450 383 385
3 451 449 448
3 451 448 450
3 452 450 385
3 452 385 387
3 453 451 450
3 453 450 452
3 454 452 387
3 454 387 389
3 455 453 452
3 455 452 454
3 456 454 389
3 456 389 391
3 457 455 454
3 457 454 456
3 458 456 391
3 458 391 393
3 459 457 456
3 459 456 458
3 460 458 393
3 460 393 395
3 461 459 458
3 461 458 460
3 462 460 395
3 462 395 397
3 463 461 460
3 463 460 462
3 464 462 397
3 464 397 399
3 465 463 462
3 465 462 464
3 466 464 399
3 466 399 401
3 467 465 464
3 467 464 466
3 468 466 401
3 468 401 403
3 469 467 466
3 469 466 468
3 470 468 403
3 470 403 405
3 471 469 468
3 471 468 470
3 472 470 405
3 472 405 407
3 473 471 470
3 473 470 472
3 474 472 407
3 474 407 409
3 475 473 472
3 475 472 474
3 476 474 409
3 476 409 411
3 477 475 474
3 477 474 476
3 478 476 411
3 478 411 413
3 479 477 476
3 479 476 478
3 480 478 413
3 480 413 415
3 481 479 478
3 481 478 480
3 482 480 415
3 482 415 417
3 483 481 480
3 483 480 482
3 484 482 417
3 484 417 419
3 485 483 482
3 485 482 484
3 486 484 419
3 486 419 421
3 487 485 484
3 487 484 486
3 488 486 421
3 488 421 423
3 489 487 486
3 489 486 488
3 490 488 423
3 490 423 425
3 491 489 488
3 491 488 490
3 492 490 425
3 492 425 427
3 493 491 490
3 493 490 492
3 495 493 492
3 495 492 430
3 494 556 491
3 494 491 493
3 496 494 493
3 496 493 495
3 498 496 495
3 498 495 433
3 497 559 494
3 497 494 496
3 499 497 496
3 499 496 498
3 500 498 433
3 500 433 435
3 501 499 498
3 501 498 500
3 502 500 435
3 502 435 437
3 503 501 500
3 503 500 502
3 504 502 437
3 504 437 439
3 505 503 502
3 505 502 504
3 506 504 439
3 506 439 441
3 507 505 504
3 507 504 506
3 508 506 441
3 508 441 443
3 509 507 506
3 509 506 508
3 511 509 508
3 511 508 510
3 510 508 443
3 510 443 445
3 512 510 445
3 512 445 447
3 513 511 510
3 513 510 512
3 514 512 447
3 514 447 449
3 515 513 512
3 515 512 514
3 516 514 449
3 516 449 451
3 517 515 514
3 517 514 516
3 518 516 451
3 518 451 453
3 519 517 516
3 519 516 518
3 520 518 453
3 520 453 455
3 521 519 518
3 521 518 520
3 522 520 455
3 522 455 457
3 523 521 520
3 523 520 522
3 524 522 457
3 524 457 459
3 525 523 522
3 525 522 524
3 526 524 459
3 526 459 461
3 527 525 524
3 527 524 526
3 528 526 461
3 528 461 463
3 529 527 526
3 529 526 528
3 530 528 463
3 530 463 465
3 531 529 528
3 531 528 530
3 532 530 465
3 532 465 467
3 533 531 530
3 533 530 532
3 534 532 467
3 534 467 469
3 535 533 532
3 535 532 534
3 536 534 469
3 536 469 471
3 537 535 534
3 537 534 536
3 538 536 471
3 538 471 473
3 539 537 536
3 539 536 538
3 540 538 473
3 540 473 475
3 541 539 538
3 541 538 540
3 542 540 475
3 542 475 477
3 543 541 540
3 543 540 542
3 544 542 477
3 544 477 479
3 545 543 542
3 545 542 544
3 546 544 479
3 546 479 481
3 547 545 544
3 547 544 546
3 548 546 481
3 548 481 483
3 549 547 546
3 549 546 548
3 550 548 483
3 550 483 485
3 551 549 548
3 551 548 550
3 552 550 485
3 552 485 487
3 553 551 550
3 553 550 552
3 554 552 487
3 554 487 489
3 555 553 552
3 555 552 554
3 556 554 489
3 556 489 491
3 557 555 554
3 557 554 556
3 559 557 556
3 559 556 494
3 558 620 555
3 558 555 557
3 560 558 557
3 560 557 559
3 562 560 559
3 562 559 497
3 561 623 558
3 561 558 560
3 563 561 560
3 563 560 562
3 564 562 497
3 564 497 499
3 565 563 562
3 565 562 564
3 566 564 499
3 566 499 501
3 567 565 564
3 567 564 566
3 568 566 501
3 568 501 503
3 569 567 566
3 569 566 568
3 570 568 503
3 570 503 505
3 571 569 568
3 571 568 570
3 572 570 505
3 572 505 507
3 573 571 570
3 573 570 572
3 574 572 507
3 574 507 509
3 575 573 572
3 575 572 574
3 577 575 574
3 577 574 576
3 576 574 509
3 576 509 511
3 578 576 511
3 578 511 513
3 579 577 576
3 579 576 578
3 580 578 513
3 580 513 515
3 581 579 578
3 581 578 580
3 582 580 515
3 582 515 517
3 583 581 580
3 583 580 582
3 584 582 517
3 584 517 519
3 585 583 582
3 585 582 584
3 586 584 519
3 586 519 521
3 587 585 584
3 587 584 586
3 588 586 521
3 588 521 523
3 589 587 586
3 589 586 588
3 590 588 523
3 590 523 525
3 591 589 588
3 591 588 590
3 592 590 525
3 592 525 527
3 593 591 590
3 593 590 592
3 594 592 527
3 594 527 529
3 595 593 592
3 595 592 594
3 596 594 529
3 596 529 531
3 597 595 594
3 597 594 596
3 598 596 531
3 598 531 533
3 599 597 596
3 599 596 598
3 600 598 533
3 600 533 535
3 601 599 598
3 601 598 600
3 602 600 535
3 602 535 537
3 603 601 600
3 603 600 602
3 604 602 537
3 604 537 539
3 605 603 602
3 605 602 604
3 606 604 539
3 606 539 541
3 607 605 604
3 607 604 606
3 608 606 541
3 608 541 543
3 609 607 606
3 609 606 608
3 610 608 543
3 610 543 545
3 611 609 608
3 611 608 610
3 612 610 545
3 612 545 547
3 613 611 610
3 613 610 612
3 614 612 547
3 614 547 549
3 615 613 612
3 615 612 614
3 616 614 549
3 616 549 551
3 617 615 614
3 617 614 616
3 618 616 551
3 618 551 553
3 619 617 616
3 619 616 618
3 620 618 553
3 620 553 555
3 621 619 618
3 621 618 620
3 623 621 620
3 623 620 558
3 622 684 619
3 622 619 621
3 624 622 621
3 624 621 623
3 626 624 623
3 626 623 561
3 625 687 622
3 625 622 624
3 627 625 624
3 627 624 626
3 628 626 561
3 628 561 563
3 629 627 626
3 629 626 628
3 630 628 563
3 630 563 565
3 631 629 628
3 631 628 630
3 632 630 565
3 632 565 567
3 633 631 630
3 633 630 632
3 634 632 567
3 634 567 569
3 635 633 632
3 635 632 634
3 636 634 569
3 636 569 571
3 637 635 634
3 637 634 636
3 638 636 571
3 638 571 573
3 639 637 636
3 639 636 638
3 640 638 573
3 640 573 575
3 641 639 638
3 641 638 640
3 643 641 640
3 643 640 642
3 642 640 575
3 642 575 577
3 644 642 577
3 644 577 579
3 645 643 642
3 645 642 644
3 646 644 579
3 646 579 581
3 647 645 644
3 647 644 646
3 648 646 581
3 648 581 583
3 649 647 646
3 649 646 648
3 650 648 583
3 650 583 585
3 651 649 648
3 651 648 650
3 652 650 585
3 652 585 587
3 653 651 650
3 653 650 652
3 654 652 587
3 654 587 589
3 655 653 652
3 655 652 654
3 656 654 589
3 656 589 591
3 657 655 654
3 657 654 656
3 658 656 591
3 658 591 593
3 659 657 656
3 659 656 658
3 660 658 593
3 660 593 595
3 661 659 658
3 661 658 660
3 662 660 595
3 662 595 597
3 663 661 660
3 663 660 662
3 664 662 597
3 664 597 599
3 665 663 662
3 665 662 664
3 666 664 599
3 666 599 601
3 667 665 664
3 667 664 666
3 668 666 601
3 668 601 603
3 669 667 666
3 669 666 668
3 670 668 603
3 670 603 605
3 671 669 668
3 671 668 670
3 672 670 605
3 672 605 607
3 673 671 670
3 673 670 672
3 674 672 607
3 674 607 609
3 675 673 672
3 675 672 674
3 676 674 609
3 676 609 611
3 677 675 674
3 677 674 676
3 678 676 611
3 678 611 613
3 679 677 676
3 679 676 678
3 680 678 613
3 680 613 615
3 681 679 678
3 681 678 680
3 682 680 615
3 682 615 617
3 683 681 680
3 683 680 682
3 684 682 617
3 684 617 619
3 685 683 682
3 685 682 684
3 687 685 684
3 687 684 622
3 686 748 683
3 686 683 685
3 688 686 685
3 688 685 687
3 690 688 687
3 690 687 625
3 689 751 686
3 689 686 688
3 691 689 688
3 691 688 690
3 692 690 625
3 692 625 627
3 693 691 690
3 693 690 692
3 694 692 627
3 694 627 629
3 695 693 692
3 695 692 694
3 696 694 629
3 696 629 631
3 697 695 694
3 697 694 696
3 698 696 631
3 698 631 633
3 699 697 696
3 699 696 698
3 700 698 633
3 700 633 635
3 701 699 698
3 701 698 700
3 702 700 635
3 702 635 637
3 703 701 700
3 703 700 702
3 704 702 637
3 704 637 639
3 705 703 702
3 705 702 704
3 706 704 639
3 706 639 641
3 707 705 704
3 707 704 706
3 709 707 706
3 709 706 708
3 708 706 641
3 708 641 643
3 710 708 643
3 710 643 645
3 711 709 708
3 711 708 710
3 712 710 645
3 712 645 647
3 713 711 710
3 713 710 712
3 714 712 647
3 714 647 649
3 715 713 712
3 715 712 714
3 716 714 649
3 716 649 651
3 717 715 714
3 717 714 716
3 718 716 651
3 718 651 653
3 719 717 716
3 719 716 718
3 720 718 653
3 720 653 655
3 721 719 718
3 721 718 720
3 722 720 655
3 722 655 657
3 723 721 720
3 723 720 722
3 724 722 657
3 724 657 659
3 725 723 722
3 725 722 724
3 726 724 659
3 726 659 661
3 727 725 724
3 727 724 726
3 728 726 661
3 728 661 663
3 729 727 726
3 729 726 728
3 730 728 663
3 730 663 665
3 731 729 728
3 731 728 730
3 732 730 665
3 732 665 667
3 733 731 730
3 733 730 732
3 734 732 667
3 734 667 669
3 735 733 732
3 735 732 734
3 736 734 669
3 736 669 671
3 737 735 734
3 737 734 736
3 738 736 671
3 738 671 673
3 739 737 736
3 739 736 738
3 740 738 673
3 740 673 675
3 741 739 738
3 741 738 740
3 742 740 675
3 742 675 677
3 743 741 740
3 743 740 742
3 744 742 677
3 744 677 679
3 745 743 742
3 745 742 744
3 746 744 679
3 746 679 681
3 747 745 744
3 747 744 746
3 748 746 681
3 748 681 683
3 749 747 746
3 749 746 748
3 751 749 748
3 751 748 686
3 750 812 747
3 750 747 749
3 752 750 749
3 752 749 751
3 754 752 751
3 754 751 689
3 753 815 750
3 753 750 752
3 755 753 752
3 755 752 754
3 756 754 689
3 756 689 691
3 757 755 754
3 757 754 756
3 758 756 691
3 758 691 693
3 759 757 756
3 759 756 758
3 760 758 693
3 760 693 695
3 761 759 758
3 761 758 760
3 762 760 695
3 762 695 697
3 763 761 760
3 763 760 762
3 764 762 697
3 764 697 699
3 765 763 762
3 765 762 764
3 766 764 699
3 766 699 701
3 767 765 764
3 767 764 766
3 768 766 701
3 768 701 703
3 769 767 766
3 769 766 768
3 770 768 703
3 770 703 705
3 771 769 768
3 771 768 770
3 772 770 705
3 772 705 707
3 773 771 770
3 773 770 772
3 775 773 772
3 775 772 774
3 774 772 707
3 774 707 709
3 776 774 709
3 776 709 711
3 777 775 774
3 777 774 776
3 778 776 711
3 778 711 713
3 779 777 776
3 779 776 778
3 780 778 713
3 780 713 715
3 781 779 778
3 781 778 780
3 782 780 715
3 782 715 717
3 783 781 780
3 783 780 782
3 784 782 717
3 784 717 719
3 785 783 782
3 785 782 784
3 786 784 719
3 786 719 721
3 787 785 784
3 787 784 786
3 788 786 721
3 788 721 723
3 789 787 786
3 789 786 788
3 790 788 723
3 790 723 725
3 791 789 788
3 791 788 790
3 792 790 725
3 792 725 727
3 793 791 790
3 793 790 792
3 794 792 727
3 794 727 729
3 795 793 792
3 795 792 794
3 796 794 729
3 796 729 731
3 797 795 794
3 797 794 796
3 798 796 731
3 798 731 733
3 799 797 796
3 799 796 798
3 800 798 733
3 800 733 735
3 801 799 798
3 801 798 800
3 802 800 735
3 802 735 737
3 803 801 800
3 803 800 802
3 804 802 737
3 804 737 739
3 805 803 802
3 805 802 804
3 806 804 739
3 806 739 741
3 807 805 804
3 807 804 806
3 808 806 741
3 808 741 743
3 809 807 806
3 809 806 808
3 810 808 743
3 810 743 745
3 811 809 808
3 811 808 810
3 812 810 745
3 812 745 747
3 813 811 810
3 813 810 812
3 815 813 812
3 815 812 750
3 814 876 811
3 814 811 813
3 816 814 813
3 816 813 815
3 818 816 815
3 818 815 753
3 817 879 814
3 817 814 816
3 819 817 816
3 819 816 818
3 820 818 753
3 820 753 755
3 821 819 818
3 821 818 820
3 822 820 755
3 822 755 757
3 823 821 820
3 823 820 822
3 824 822 757
3 824 757 759
3 825 823 822
3 825 822 824
3 826 824 759
3 826 759 761
3 827 825 824
3 827 824 826
3 828 826 761
3 828 761 763
3 829 827 826
3 829 826 828
3 830 828 763
3 830 763 765
3 831 829 828
3 831 828 830
3 832 830 765
3 832 765 767
3 833 831 830
3 833 830 832
3 834 832 767
3 834 767 769
3 835 833 832
3 835 832 834
3 836 834 769
3 836 769 771
3 837 835 834
3 837 834 836
3 838 836 771
3 838 771 773
3 839 837 836
3 839 836 838
3 841 839 838
3 841 838 840
3 840 838 773
3 840 773 775
3 842 840 775
3 842 775 777
3 843 841 840
3 843 840 842
3 844 842 777
3 844 777 779
3 845 843 842
3 845 842 844
3 846 844 779
3 846 779 781
3 847 845 844
3 847 844 846
3 848 846 781
3 848 781 783
3 849 847 846
3 849 846 848
3 850 848 783
3 850 783 785
3 851 849 848
3 851 848 850
3 852 850 785
3 852 785 787
3 853 851 850
3 853 850 852
3 854 852 787
3 854 787 789
3 855 853 852
3 855 852 854
3 856 854 789
3 856 789 791
3 857 855 854
3 857 854 856
3 858 856 791
3 858 791 793
3 859 857 856
3 859 856 858
3 860 858 793
3 860 793 795
3 861 859 858
3 861 858 860
3 862 860 795
3 862 795 797
3 863 861 860
3 863 860 862
3 864 862 797
3 864 797 799
3 865 863 862
3 865 862 864
3 866 864 799
3 866 799 801
3 867 865 864
3 867 864 866
3 868 866 801
3 868 801 803
3 869 867 866
3 869 866 868
3 870 868 803
3 870 803 805
3 871 869 868
3 871 868 870
3 872 870 805
3 872 805 807
3 873 871 870
3 873 870 872
3 874 872 807
3 874 807 809
3 875 873 872
3 875 872 874
3 876 874 809
3 876 809 811
3 877 875 874
3 877 874 876
3 879 877 876
3 879 876 814
3 878 940 875
3 878 875 877
3 880 878 877
3 880 877 879
3 882 880 879
3 882 879 817
3 881 942 878
3 881 878 880
3 883 881 880
3 883 880 882
3 884 882 817
3 884 817 819
3 885 883 882
3 885 882 884
3 886 884 819
3 886 819 821
3 887 885 884
3 887 884 886
3 888 886 821
3 888 821 823
3 889 887 886
3 889 886 888
3 890 888 823
3 890 823 825
3 891 889 888
3 891 888 890
3 892 890 825
3 892 825 827
3 893 891 890
3 893 890 892
3 894 892 827
3 894 827 829
3 895 893 892
3 895 892 894
3 896 894 829
3 896 829 831
3 897 895 894
3 897 894 896
3 898 896 831
3 898 831 833
3 899 897 896
3 899 896 898
3 900 898 833
3 900 833 835
3 901 899 898
3 901 898 900
3 902 900 835
3 902 835 837
3 903 901 900
3 903 900 902
3 904 902 837
3 904 837 839
3 905 903 902
3 905 902 904
3 907 905 904
3 907 904 906
3 906 904 839
3 906 839 841
3 908 906 841
3 908 841 843
3 909 907 906
3 909 906 908
3 910 908 843
3 910 843 845
3 911 909 908
3 911 908 910
3 912 910 845
3 912 845 847
3 913 911 910
3 913 910 912
3 914 912 847
3 914 847 849
3 915 913 912
3 915 912 914
3 916 914 849
3 916 849 851
3 917 915 914
3 917 914 916
3 918 916 851
3 918 851 853
3 919 917 916
3 919 916 918
3 920 918 853
3 920 853 855
3 921 919 918
3 921 918 920
3 922 920 855
3 922 855 857
3 923 921 920
3 923 920 922
3 924 922 857
3 924 857 859
3 925 923 922
3 925 922 924
3 926 924 859
3 926 859 861
3 927 925 924
3 927 924 926
3 928 926 861
3 928 861 863
3 929 927 926
3 929 926 928
3 930 928 863
3 930 863 865
3 931 929 928
3 931 928 930
3 932 930 865
3 932 865 867
3 933 931 930
3 933 930 932
3 934 932 867
3 934 867 869
3 935 933 932
3 935 932 934
3 936 934 869
3 936 869 871
3 937 935 934
3 937 934 936
3 938 936 871
3 938 871 873
3 939 937 936
3 939 936 938
3 940 938 873
3 940 873 875
3 941 939 938
3 941 938 940
3 942 941 940
3 942 940 878
3 942 945 943
3 942 943 941
3 941 943 944
3 941 944 939
3 945 946 947
3 947 948 949
3 949 950 951
3 951 952 953
3 953 954 955
3 955 956 957
3 957 958 959
3 959 960 961
3 961 962 963
3 963 964 965
3 965 966 967
3 967 968 969
3 969 970 971
3 971 972 973
3 973 974 944
3 944 943 945
3 945 947 949
3 949 951 953
3 953 955 957
3 957 959 961
3 961 963 965
3 965 967 969
3 969 971 973
3 973 944 945
3 945 949 953
3 953 957 961
3 961 965 969
3 969 973 945
3 945 953 961
3 961 969 945
3 881 946 945
3 881 945 942
3 883 947 946
3 883 946 881
3 885 948 947
3 885 947 883
3 887 949 948
3 887 948 885
3 889 950 949
3 889 949 887
3 891 951 950
3 891 950 889
3 893 952 951
3 893 951 891
3 895 953 952
3 895 952 893
3 897 954 953
3 897 953 895
3 899 955 954
3 899 954 897
3 901 956 955
3 901 955 899
3 903 957 956
3 903 956 901
3 905 958 957
3 905 957 903
3 907 959 958
3 907 958 905
3 909 960 959
3 909 959 907
3 911 961 960
3 911 960 909
3 913 962 961
3 913 961 911
3 915 963 962
3 915 962 913
3 917 964 963
3 917 963 915
3 919 965 964
3 919 964 917
3 921 966 965
3 921 965 919
3 923 967 966
3 923 966 921
3 925 968 967
3 925 967 923
3 927 969 968
3 927 968 925
3 929 970 969
3 929 969 927
3 931 971 970
3 931 970 929
3 933 972 971
3 933 971 931
3 935 973 972
3 935 972 933
3 937 974 973
3 937 973 935
3 939 944 974
3 939 974 937
3 13 16 106
3 13 106 975
3 975 106 103
3 975 103 976
3 10 13 975
3 10 975 977
3 977 975 976
3 977 976 978
3 7 10 977
3 7 977 979
3 979 977 978
3 979 978 980
3 4 7 979
3 4 979 981
3 981 979 980
3 981 980 982
3 1 4 981
3 1 981 983
3 983 981 982
3 983 982 984
3 984 982 987
3 984 987 985
3 985 987 988
3 985 988 986
3 982 980 989
3 982 989 987
3 987 989 990
3 987 990 988
3 980 978 991
3 980 991 989
3 989 991 992
3 989 992 990
3 978 976 993
3 978 993 991
3 991 993 994
3 991 994 992
3 976 103 100
3 976 100 993
3 993 100 97
3 993 97 994
3 994 97 94
3 994 94 995
3 992 994 995
3 992 995 997
3 995 94 996
3 94 91 996
3 997 995 996
3 997 996 998
3 990 992 997
3 990 997 999
3 999 997 998
3 999 998 1000
3 988 990 999
3 988 999 1001
3 1001 999 1000
3 1001 1000 1002
3 986 988 1001
3 986 1001 1003
3 1003 1001 1002
3 1003 1002 1004
3 1004 1002 1007
3 1004 1007 1005
3 1005 1007 1008
3 1005 1008 1006
3 1002 1000 1009
3 1002 1009 1007
3 1007 1009 1010
3 1007 1010 1008
3 1000 998 1011
3 1000 1011 1009
3 1009 1011 1012
3 1009 1012 1010
3 998 996 1013
3 998 1013 1011
3 1011 1013 1014
3 1011 1014 1012
3 996 91 88
3 996 88 1013
3 1013 88 85
3 1013 85 1014
3 1014 85 1015
3 85 82 1015
3 1012 1014 1015
3 1012 1015 1017
3 1015 82 1016
3 82 79 1016
3 1017 1015 1016
3 1017 1016 1018
3 1010 1012 1017
3 1010 1017 1019
3 1019 1017 1020
3 1017 1018 1020
3 1008 1010 1019
3 1008 1019 1021
3 1021 1019 1020
3 1021 1020 1022
3 1006 1008 1021
3 1006 1021 1023
3 1023 1021 1024
3 1021 1022 1024
3 1024 1022 1027
3 1024 1027 1025
3 1025 1027 1028
3 1025 1028 1026
3 1022 1020 1029
3 1022 1029 1027
3 1027 1029 1028
3 1029 1030 1028
3 1020 1018 1031
3 1020 1031 1029
3 1029 1031 1032
3 1029 1032 1030
3 1018 1016 1033
3 1018 1033 1031
3 1031 1033 1034
3 1031 1034 1032
3 1016 79 1033
3 79 76 1033
3 1033 76 73
3 1033 73 1034
3 1034 73 70
3 1034 70 1035
3 1032 1034 1035
3 1032 1035 1037
3 1035 70 67
3 1035 67 1036
3 1037 1035 1036
3 1037 1036 1038
3 1030 1032 1039
3 1032 1037 1039
3 1039 1037 1038
3 1039 1038 1040
3 1028 1030 1039
3 1028 1039 1041
3 1041 1039 1040
3 1041 1040 1042
3 1026 1028 1041
3 1026 1041 1043
3 1043 1041 1042
3 1043 1042 1044
3 1044 1042 1047
3 1044 1047 1045
3 1045 1047 1048
3 1045 1048 1046
3 1042 1040 1049
3 1042 1049 1047
3 1047 1049 1050
3 1047 1050 1048
3 1040 1038 1051
3 1040 1051 1049
3 1049 1051 1052
3 1049 1052 1050
3 1038 1036 1053
3 1038 1053 1051
3 1051 1053 1054
3 1051 1054 1052
3 1036 67 64
3 1036 64 1053
3 1053 64 61
3 1053 61 1054
3 1054 61 58
3 1054 58 1055
3 1052 1054 1055
3 1052 1055 1057
3 1055 58 55
3 1055 55 1056
3 1057 1055 1056
3 1057 1056 1058
3 1050 1052 1057
3 1050 1057 1059
3 1059 1057 1058
3 1059 1058 1060
3 1048 1050 1059
3 1048 1059 1061
3 1061 1059 1060
3 1061 1060 1062
3 1046 1048 1061
3 1046 1061 1063
3 1063 1061 1062
3 1063 1062 1064
3 1064 1062 1067
3 1064 1067 1065
3 1065 1067 1068
3 1065 1068 1066
3 1062 1060 1069
3 1062 1069 1067
3 1067 1069 1070
3 1067 1070 1068
3 1060 1058 1071
3 1060 1071 1069
3 1069 1071 1072
3 1069 1072 1070
3 1058 1056 1073
3 1058 1073 1071
3 1071 1073 1074
3 1071 1074 1072
3 1056 55 52
3 1056 52 1073
3 1073 52 49
3 1073 49 1074
3 1074 49 46
3 1074 46 1075
3 1072 1074 1075
3 1072 1075 1077
3 1075 46 43
3 1075 43 1076
3 1077 1075 1076
3 1077 1076 1078
3 1070 1072 1077
3 1070 1077 1079
3 1079 1077 1078
3 1079 1078 1080
3 1068 1070 1079
3 1068 1079 1081
3 1081 1079 1080
3 1081 1080 1082
3 1066 1068 1081
3 1066 1081 1083
3 1083 1081 1082
3 1083 1082 1084
3 1084 1082 1087
3 1084 1087 1085
3 1085 1087 1088
3 1085 1088 1086
3 1082 1080 1089
3 1082 1089 1087
3 1087 1089 1090
3 1087 1090 1088
3 1080 1078 1091
3 1080 1091 1089
3 1089 1091 1092
3 1089 1092 1090
3 1078 1076 1093
3 1078 1093 1091
3 1091 1093 1094
3 1091 1094 1092
3 1076 43 40
3 1076 40 1093
3 1093 40 37
3 1093 37 1094
3 1094 37 34
3 1094 34 1095
3 1092 1094 1095
3 1092 1095 1097
3 1095 34 31
3 1095 31 1096
3 1097 1095 1096
3 1097 1096 1098
3 1090 1092 1097
3 1090 1097 1099
3 1099 1097 1098
3 1099 1098 1100
3 1088 1090 1099
3 1088 1099 1101
3 1101 1099 1100
3 1101 1100 1102
3 1086 1088 1101
3 1086 1101 1103
3 1103 1101 1102
3 1103 1102 1104
3 1104 1102 1107
3 1104 1107 1105
3 1105 1107 1108
3 1105 1108 1106
3 1102 1100 1109
3 1102 1109 1107
3 1107 1109 1110
3 1107 1110 1108
3 1100 1098 1111
3 1100 1111 1109
3 1109 1111 1112
3 1109 1112 1110
3 1098 1096 1113
3 1098 1113 1111
3 1111 1113 1114
3 1111 1114 1112
3 1096 31 28
3 1096 28 1113
3 1113 28 25
3 1113 25 1114
3 1114 25 19
3 1114 19 1115
3 1112 1114 1115
3 1112 1115 1116
3 1116 1115 14
3 1116 14 11
3 1110 1112 1116
3 1110 1116 1117
3 1117 1116 11
3 1117 11 8
3 1108 1110 1117
3 1108 1117 1118
3 1118 1117 8
3 1118 8 5
3 1106 1108 1118
3 1106 1118 1119
3 1119 1118 5
3 1119 5 2
